M48
; DRILL file {KiCad (5.1.0-0)} date Tuesday, May 26, 2020 at 09:10:59 pm
; FORMAT={-:-/ absolute / inch / decimal}
; #@! TF.CreationDate,2020-05-26T21:10:59-04:00
; #@! TF.GenerationSoftware,Kicad,Pcbnew,(5.1.0-0)
FMAT,2
INCH
T1C0.0138
T2C0.0236
T3C0.0335
T4C0.0394
T5C0.0400
T6C0.0354
%
G90
G05
T1
X4.0145Y-4.4821
X4.0433Y-4.0211
X4.0433Y-4.2205
X4.0787Y-4.7375
X4.0787Y-4.9751
X4.0997Y-4.4148
X4.1192Y-4.7388
X4.1639Y-4.4084
X4.1899Y-4.2527
X4.1923Y-4.3189
X4.2471Y-5.1176
X4.2758Y-4.643
X4.2771Y-4.4822
X4.2771Y-4.5582
X4.2974Y-4.2711
X4.2982Y-4.1689
X4.3126Y-5.0081
X4.3171Y-4.858
X4.3401Y-4.4849
X4.3459Y-5.0081
X4.378Y-5.0074
X4.3818Y-4.0226
X4.4214Y-4.9387
X4.544Y-4.0642
X4.5709Y-4.7891
X4.5721Y-4.6939
X4.5944Y-4.4653
X4.6442Y-4.8231
X4.6651Y-4.4814
X4.6676Y-4.791
X4.6836Y-4.5836
X4.6962Y-4.5385
X4.7318Y-4.2123
X4.7802Y-4.4965
X4.8339Y-4.6593
X4.8519Y-4.3774
X4.8519Y-4.6289
X4.8758Y-5.0609
X4.8776Y-4.7036
X4.8893Y-4.6401
X4.9096Y-4.7619
X4.9101Y-4.4125
X4.9282Y-4.6342
X4.9505Y-4.3616
X4.9784Y-4.5172
X4.9821Y-4.8298
X4.9915Y-5.0027
X5.0146Y-4.7636
X5.0346Y-4.729
X5.0385Y-4.823
X5.083Y-4.3945
X5.0965Y-4.5937
X5.1401Y-4.4985
X5.1524Y-4.9692
X5.1824Y-4.5691
X5.2096Y-4.3882
X5.2597Y-4.1117
X5.3003Y-5.1559
X5.3109Y-4.7361
X5.4989Y-4.0556
T3
X4.1481Y-5.0734
X4.3449Y-5.0734
T4
X5.402Y-3.6735
X5.402Y-3.7735
X5.502Y-3.6735
X5.502Y-3.7735
X5.602Y-3.6735
X5.602Y-3.7735
X4.8395Y-4.187
X4.8395Y-4.287
X4.9395Y-4.187
X4.9395Y-4.287
X5.0395Y-4.187
X5.0395Y-4.287
X5.1395Y-4.187
X5.1395Y-4.287
X4.6421Y-4.0362
X4.7421Y-4.0362
X4.8421Y-4.0362
X4.9421Y-4.0362
X5.0421Y-4.0362
X5.1421Y-4.0362
T5
X5.452Y-4.809
X5.452Y-4.909
X5.452Y-5.009
X5.552Y-4.809
X5.552Y-4.909
X5.552Y-5.009
X5.452Y-4.166
X5.452Y-4.266
X5.452Y-4.366
X5.552Y-4.166
X5.552Y-4.266
X5.552Y-4.366
T6
X4.01Y-4.7099
X4.01Y-4.8281
T2
G00X4.1087Y-5.1935
M15
G01X4.1087Y-5.1659
M16
G05
G00X4.3843Y-5.1659
M15
G01X4.3843Y-5.1935
M16
G05
T0
M30
