G04 #@! TF.GenerationSoftware,KiCad,Pcbnew,(5.1.0-0)*
G04 #@! TF.CreationDate,2020-05-26T23:43:54-04:00*
G04 #@! TF.ProjectId,ROCKETasp_v3,524f434b-4554-4617-9370-5f76332e6b69,3.0*
G04 #@! TF.SameCoordinates,Original*
G04 #@! TF.FileFunction,Paste,Top*
G04 #@! TF.FilePolarity,Positive*
%FSLAX46Y46*%
G04 Gerber Fmt 4.6, Leading zero omitted, Abs format (unit mm)*
G04 Created by KiCad (PCBNEW (5.1.0-0)) date 2020-05-26 23:43:54*
%MOMM*%
%LPD*%
G04 APERTURE LIST*
%ADD10C,0.100000*%
%ADD11C,0.875000*%
%ADD12C,0.975000*%
%ADD13R,0.600000X1.200000*%
%ADD14R,0.800000X0.900000*%
%ADD15C,1.250000*%
%ADD16R,1.500000X1.900000*%
%ADD17R,0.400000X1.350000*%
%ADD18R,2.440000X1.120000*%
%ADD19R,1.500000X0.700000*%
%ADD20R,0.800000X1.000000*%
%ADD21R,0.550000X1.600000*%
%ADD22R,1.600000X0.550000*%
%ADD23R,2.000000X3.800000*%
%ADD24R,2.000000X1.500000*%
%ADD25R,1.600000X1.300000*%
G04 APERTURE END LIST*
D10*
G36*
X125220291Y-129547953D02*
G01*
X125241526Y-129551103D01*
X125262350Y-129556319D01*
X125282562Y-129563551D01*
X125301968Y-129572730D01*
X125320381Y-129583766D01*
X125337624Y-129596554D01*
X125353530Y-129610970D01*
X125367946Y-129626876D01*
X125380734Y-129644119D01*
X125391770Y-129662532D01*
X125400949Y-129681938D01*
X125408181Y-129702150D01*
X125413397Y-129722974D01*
X125416547Y-129744209D01*
X125417600Y-129765650D01*
X125417600Y-130203150D01*
X125416547Y-130224591D01*
X125413397Y-130245826D01*
X125408181Y-130266650D01*
X125400949Y-130286862D01*
X125391770Y-130306268D01*
X125380734Y-130324681D01*
X125367946Y-130341924D01*
X125353530Y-130357830D01*
X125337624Y-130372246D01*
X125320381Y-130385034D01*
X125301968Y-130396070D01*
X125282562Y-130405249D01*
X125262350Y-130412481D01*
X125241526Y-130417697D01*
X125220291Y-130420847D01*
X125198850Y-130421900D01*
X124686350Y-130421900D01*
X124664909Y-130420847D01*
X124643674Y-130417697D01*
X124622850Y-130412481D01*
X124602638Y-130405249D01*
X124583232Y-130396070D01*
X124564819Y-130385034D01*
X124547576Y-130372246D01*
X124531670Y-130357830D01*
X124517254Y-130341924D01*
X124504466Y-130324681D01*
X124493430Y-130306268D01*
X124484251Y-130286862D01*
X124477019Y-130266650D01*
X124471803Y-130245826D01*
X124468653Y-130224591D01*
X124467600Y-130203150D01*
X124467600Y-129765650D01*
X124468653Y-129744209D01*
X124471803Y-129722974D01*
X124477019Y-129702150D01*
X124484251Y-129681938D01*
X124493430Y-129662532D01*
X124504466Y-129644119D01*
X124517254Y-129626876D01*
X124531670Y-129610970D01*
X124547576Y-129596554D01*
X124564819Y-129583766D01*
X124583232Y-129572730D01*
X124602638Y-129563551D01*
X124622850Y-129556319D01*
X124643674Y-129551103D01*
X124664909Y-129547953D01*
X124686350Y-129546900D01*
X125198850Y-129546900D01*
X125220291Y-129547953D01*
X125220291Y-129547953D01*
G37*
D11*
X124942600Y-129984400D03*
D10*
G36*
X125220291Y-131122953D02*
G01*
X125241526Y-131126103D01*
X125262350Y-131131319D01*
X125282562Y-131138551D01*
X125301968Y-131147730D01*
X125320381Y-131158766D01*
X125337624Y-131171554D01*
X125353530Y-131185970D01*
X125367946Y-131201876D01*
X125380734Y-131219119D01*
X125391770Y-131237532D01*
X125400949Y-131256938D01*
X125408181Y-131277150D01*
X125413397Y-131297974D01*
X125416547Y-131319209D01*
X125417600Y-131340650D01*
X125417600Y-131778150D01*
X125416547Y-131799591D01*
X125413397Y-131820826D01*
X125408181Y-131841650D01*
X125400949Y-131861862D01*
X125391770Y-131881268D01*
X125380734Y-131899681D01*
X125367946Y-131916924D01*
X125353530Y-131932830D01*
X125337624Y-131947246D01*
X125320381Y-131960034D01*
X125301968Y-131971070D01*
X125282562Y-131980249D01*
X125262350Y-131987481D01*
X125241526Y-131992697D01*
X125220291Y-131995847D01*
X125198850Y-131996900D01*
X124686350Y-131996900D01*
X124664909Y-131995847D01*
X124643674Y-131992697D01*
X124622850Y-131987481D01*
X124602638Y-131980249D01*
X124583232Y-131971070D01*
X124564819Y-131960034D01*
X124547576Y-131947246D01*
X124531670Y-131932830D01*
X124517254Y-131916924D01*
X124504466Y-131899681D01*
X124493430Y-131881268D01*
X124484251Y-131861862D01*
X124477019Y-131841650D01*
X124471803Y-131820826D01*
X124468653Y-131799591D01*
X124467600Y-131778150D01*
X124467600Y-131340650D01*
X124468653Y-131319209D01*
X124471803Y-131297974D01*
X124477019Y-131277150D01*
X124484251Y-131256938D01*
X124493430Y-131237532D01*
X124504466Y-131219119D01*
X124517254Y-131201876D01*
X124531670Y-131185970D01*
X124547576Y-131171554D01*
X124564819Y-131158766D01*
X124583232Y-131147730D01*
X124602638Y-131138551D01*
X124622850Y-131131319D01*
X124643674Y-131126103D01*
X124664909Y-131122953D01*
X124686350Y-131121900D01*
X125198850Y-131121900D01*
X125220291Y-131122953D01*
X125220291Y-131122953D01*
G37*
D11*
X124942600Y-131559400D03*
D10*
G36*
X133691191Y-129764053D02*
G01*
X133712426Y-129767203D01*
X133733250Y-129772419D01*
X133753462Y-129779651D01*
X133772868Y-129788830D01*
X133791281Y-129799866D01*
X133808524Y-129812654D01*
X133824430Y-129827070D01*
X133838846Y-129842976D01*
X133851634Y-129860219D01*
X133862670Y-129878632D01*
X133871849Y-129898038D01*
X133879081Y-129918250D01*
X133884297Y-129939074D01*
X133887447Y-129960309D01*
X133888500Y-129981750D01*
X133888500Y-130419250D01*
X133887447Y-130440691D01*
X133884297Y-130461926D01*
X133879081Y-130482750D01*
X133871849Y-130502962D01*
X133862670Y-130522368D01*
X133851634Y-130540781D01*
X133838846Y-130558024D01*
X133824430Y-130573930D01*
X133808524Y-130588346D01*
X133791281Y-130601134D01*
X133772868Y-130612170D01*
X133753462Y-130621349D01*
X133733250Y-130628581D01*
X133712426Y-130633797D01*
X133691191Y-130636947D01*
X133669750Y-130638000D01*
X133157250Y-130638000D01*
X133135809Y-130636947D01*
X133114574Y-130633797D01*
X133093750Y-130628581D01*
X133073538Y-130621349D01*
X133054132Y-130612170D01*
X133035719Y-130601134D01*
X133018476Y-130588346D01*
X133002570Y-130573930D01*
X132988154Y-130558024D01*
X132975366Y-130540781D01*
X132964330Y-130522368D01*
X132955151Y-130502962D01*
X132947919Y-130482750D01*
X132942703Y-130461926D01*
X132939553Y-130440691D01*
X132938500Y-130419250D01*
X132938500Y-129981750D01*
X132939553Y-129960309D01*
X132942703Y-129939074D01*
X132947919Y-129918250D01*
X132955151Y-129898038D01*
X132964330Y-129878632D01*
X132975366Y-129860219D01*
X132988154Y-129842976D01*
X133002570Y-129827070D01*
X133018476Y-129812654D01*
X133035719Y-129799866D01*
X133054132Y-129788830D01*
X133073538Y-129779651D01*
X133093750Y-129772419D01*
X133114574Y-129767203D01*
X133135809Y-129764053D01*
X133157250Y-129763000D01*
X133669750Y-129763000D01*
X133691191Y-129764053D01*
X133691191Y-129764053D01*
G37*
D11*
X133413500Y-130200500D03*
D10*
G36*
X133691191Y-128189053D02*
G01*
X133712426Y-128192203D01*
X133733250Y-128197419D01*
X133753462Y-128204651D01*
X133772868Y-128213830D01*
X133791281Y-128224866D01*
X133808524Y-128237654D01*
X133824430Y-128252070D01*
X133838846Y-128267976D01*
X133851634Y-128285219D01*
X133862670Y-128303632D01*
X133871849Y-128323038D01*
X133879081Y-128343250D01*
X133884297Y-128364074D01*
X133887447Y-128385309D01*
X133888500Y-128406750D01*
X133888500Y-128844250D01*
X133887447Y-128865691D01*
X133884297Y-128886926D01*
X133879081Y-128907750D01*
X133871849Y-128927962D01*
X133862670Y-128947368D01*
X133851634Y-128965781D01*
X133838846Y-128983024D01*
X133824430Y-128998930D01*
X133808524Y-129013346D01*
X133791281Y-129026134D01*
X133772868Y-129037170D01*
X133753462Y-129046349D01*
X133733250Y-129053581D01*
X133712426Y-129058797D01*
X133691191Y-129061947D01*
X133669750Y-129063000D01*
X133157250Y-129063000D01*
X133135809Y-129061947D01*
X133114574Y-129058797D01*
X133093750Y-129053581D01*
X133073538Y-129046349D01*
X133054132Y-129037170D01*
X133035719Y-129026134D01*
X133018476Y-129013346D01*
X133002570Y-128998930D01*
X132988154Y-128983024D01*
X132975366Y-128965781D01*
X132964330Y-128947368D01*
X132955151Y-128927962D01*
X132947919Y-128907750D01*
X132942703Y-128886926D01*
X132939553Y-128865691D01*
X132938500Y-128844250D01*
X132938500Y-128406750D01*
X132939553Y-128385309D01*
X132942703Y-128364074D01*
X132947919Y-128343250D01*
X132955151Y-128323038D01*
X132964330Y-128303632D01*
X132975366Y-128285219D01*
X132988154Y-128267976D01*
X133002570Y-128252070D01*
X133018476Y-128237654D01*
X133035719Y-128224866D01*
X133054132Y-128213830D01*
X133073538Y-128204651D01*
X133093750Y-128197419D01*
X133114574Y-128192203D01*
X133135809Y-128189053D01*
X133157250Y-128188000D01*
X133669750Y-128188000D01*
X133691191Y-128189053D01*
X133691191Y-128189053D01*
G37*
D11*
X133413500Y-128625500D03*
D10*
G36*
X124085411Y-126599713D02*
G01*
X124106646Y-126602863D01*
X124127470Y-126608079D01*
X124147682Y-126615311D01*
X124167088Y-126624490D01*
X124185501Y-126635526D01*
X124202744Y-126648314D01*
X124218650Y-126662730D01*
X124233066Y-126678636D01*
X124245854Y-126695879D01*
X124256890Y-126714292D01*
X124266069Y-126733698D01*
X124273301Y-126753910D01*
X124278517Y-126774734D01*
X124281667Y-126795969D01*
X124282720Y-126817410D01*
X124282720Y-127329910D01*
X124281667Y-127351351D01*
X124278517Y-127372586D01*
X124273301Y-127393410D01*
X124266069Y-127413622D01*
X124256890Y-127433028D01*
X124245854Y-127451441D01*
X124233066Y-127468684D01*
X124218650Y-127484590D01*
X124202744Y-127499006D01*
X124185501Y-127511794D01*
X124167088Y-127522830D01*
X124147682Y-127532009D01*
X124127470Y-127539241D01*
X124106646Y-127544457D01*
X124085411Y-127547607D01*
X124063970Y-127548660D01*
X123626470Y-127548660D01*
X123605029Y-127547607D01*
X123583794Y-127544457D01*
X123562970Y-127539241D01*
X123542758Y-127532009D01*
X123523352Y-127522830D01*
X123504939Y-127511794D01*
X123487696Y-127499006D01*
X123471790Y-127484590D01*
X123457374Y-127468684D01*
X123444586Y-127451441D01*
X123433550Y-127433028D01*
X123424371Y-127413622D01*
X123417139Y-127393410D01*
X123411923Y-127372586D01*
X123408773Y-127351351D01*
X123407720Y-127329910D01*
X123407720Y-126817410D01*
X123408773Y-126795969D01*
X123411923Y-126774734D01*
X123417139Y-126753910D01*
X123424371Y-126733698D01*
X123433550Y-126714292D01*
X123444586Y-126695879D01*
X123457374Y-126678636D01*
X123471790Y-126662730D01*
X123487696Y-126648314D01*
X123504939Y-126635526D01*
X123523352Y-126624490D01*
X123542758Y-126615311D01*
X123562970Y-126608079D01*
X123583794Y-126602863D01*
X123605029Y-126599713D01*
X123626470Y-126598660D01*
X124063970Y-126598660D01*
X124085411Y-126599713D01*
X124085411Y-126599713D01*
G37*
D11*
X123845220Y-127073660D03*
D10*
G36*
X125660411Y-126599713D02*
G01*
X125681646Y-126602863D01*
X125702470Y-126608079D01*
X125722682Y-126615311D01*
X125742088Y-126624490D01*
X125760501Y-126635526D01*
X125777744Y-126648314D01*
X125793650Y-126662730D01*
X125808066Y-126678636D01*
X125820854Y-126695879D01*
X125831890Y-126714292D01*
X125841069Y-126733698D01*
X125848301Y-126753910D01*
X125853517Y-126774734D01*
X125856667Y-126795969D01*
X125857720Y-126817410D01*
X125857720Y-127329910D01*
X125856667Y-127351351D01*
X125853517Y-127372586D01*
X125848301Y-127393410D01*
X125841069Y-127413622D01*
X125831890Y-127433028D01*
X125820854Y-127451441D01*
X125808066Y-127468684D01*
X125793650Y-127484590D01*
X125777744Y-127499006D01*
X125760501Y-127511794D01*
X125742088Y-127522830D01*
X125722682Y-127532009D01*
X125702470Y-127539241D01*
X125681646Y-127544457D01*
X125660411Y-127547607D01*
X125638970Y-127548660D01*
X125201470Y-127548660D01*
X125180029Y-127547607D01*
X125158794Y-127544457D01*
X125137970Y-127539241D01*
X125117758Y-127532009D01*
X125098352Y-127522830D01*
X125079939Y-127511794D01*
X125062696Y-127499006D01*
X125046790Y-127484590D01*
X125032374Y-127468684D01*
X125019586Y-127451441D01*
X125008550Y-127433028D01*
X124999371Y-127413622D01*
X124992139Y-127393410D01*
X124986923Y-127372586D01*
X124983773Y-127351351D01*
X124982720Y-127329910D01*
X124982720Y-126817410D01*
X124983773Y-126795969D01*
X124986923Y-126774734D01*
X124992139Y-126753910D01*
X124999371Y-126733698D01*
X125008550Y-126714292D01*
X125019586Y-126695879D01*
X125032374Y-126678636D01*
X125046790Y-126662730D01*
X125062696Y-126648314D01*
X125079939Y-126635526D01*
X125098352Y-126624490D01*
X125117758Y-126615311D01*
X125137970Y-126608079D01*
X125158794Y-126602863D01*
X125180029Y-126599713D01*
X125201470Y-126598660D01*
X125638970Y-126598660D01*
X125660411Y-126599713D01*
X125660411Y-126599713D01*
G37*
D11*
X125420220Y-127073660D03*
D10*
G36*
X127506291Y-111640953D02*
G01*
X127527526Y-111644103D01*
X127548350Y-111649319D01*
X127568562Y-111656551D01*
X127587968Y-111665730D01*
X127606381Y-111676766D01*
X127623624Y-111689554D01*
X127639530Y-111703970D01*
X127653946Y-111719876D01*
X127666734Y-111737119D01*
X127677770Y-111755532D01*
X127686949Y-111774938D01*
X127694181Y-111795150D01*
X127699397Y-111815974D01*
X127702547Y-111837209D01*
X127703600Y-111858650D01*
X127703600Y-112296150D01*
X127702547Y-112317591D01*
X127699397Y-112338826D01*
X127694181Y-112359650D01*
X127686949Y-112379862D01*
X127677770Y-112399268D01*
X127666734Y-112417681D01*
X127653946Y-112434924D01*
X127639530Y-112450830D01*
X127623624Y-112465246D01*
X127606381Y-112478034D01*
X127587968Y-112489070D01*
X127568562Y-112498249D01*
X127548350Y-112505481D01*
X127527526Y-112510697D01*
X127506291Y-112513847D01*
X127484850Y-112514900D01*
X126972350Y-112514900D01*
X126950909Y-112513847D01*
X126929674Y-112510697D01*
X126908850Y-112505481D01*
X126888638Y-112498249D01*
X126869232Y-112489070D01*
X126850819Y-112478034D01*
X126833576Y-112465246D01*
X126817670Y-112450830D01*
X126803254Y-112434924D01*
X126790466Y-112417681D01*
X126779430Y-112399268D01*
X126770251Y-112379862D01*
X126763019Y-112359650D01*
X126757803Y-112338826D01*
X126754653Y-112317591D01*
X126753600Y-112296150D01*
X126753600Y-111858650D01*
X126754653Y-111837209D01*
X126757803Y-111815974D01*
X126763019Y-111795150D01*
X126770251Y-111774938D01*
X126779430Y-111755532D01*
X126790466Y-111737119D01*
X126803254Y-111719876D01*
X126817670Y-111703970D01*
X126833576Y-111689554D01*
X126850819Y-111676766D01*
X126869232Y-111665730D01*
X126888638Y-111656551D01*
X126908850Y-111649319D01*
X126929674Y-111644103D01*
X126950909Y-111640953D01*
X126972350Y-111639900D01*
X127484850Y-111639900D01*
X127506291Y-111640953D01*
X127506291Y-111640953D01*
G37*
D11*
X127228600Y-112077400D03*
D10*
G36*
X127506291Y-113215953D02*
G01*
X127527526Y-113219103D01*
X127548350Y-113224319D01*
X127568562Y-113231551D01*
X127587968Y-113240730D01*
X127606381Y-113251766D01*
X127623624Y-113264554D01*
X127639530Y-113278970D01*
X127653946Y-113294876D01*
X127666734Y-113312119D01*
X127677770Y-113330532D01*
X127686949Y-113349938D01*
X127694181Y-113370150D01*
X127699397Y-113390974D01*
X127702547Y-113412209D01*
X127703600Y-113433650D01*
X127703600Y-113871150D01*
X127702547Y-113892591D01*
X127699397Y-113913826D01*
X127694181Y-113934650D01*
X127686949Y-113954862D01*
X127677770Y-113974268D01*
X127666734Y-113992681D01*
X127653946Y-114009924D01*
X127639530Y-114025830D01*
X127623624Y-114040246D01*
X127606381Y-114053034D01*
X127587968Y-114064070D01*
X127568562Y-114073249D01*
X127548350Y-114080481D01*
X127527526Y-114085697D01*
X127506291Y-114088847D01*
X127484850Y-114089900D01*
X126972350Y-114089900D01*
X126950909Y-114088847D01*
X126929674Y-114085697D01*
X126908850Y-114080481D01*
X126888638Y-114073249D01*
X126869232Y-114064070D01*
X126850819Y-114053034D01*
X126833576Y-114040246D01*
X126817670Y-114025830D01*
X126803254Y-114009924D01*
X126790466Y-113992681D01*
X126779430Y-113974268D01*
X126770251Y-113954862D01*
X126763019Y-113934650D01*
X126757803Y-113913826D01*
X126754653Y-113892591D01*
X126753600Y-113871150D01*
X126753600Y-113433650D01*
X126754653Y-113412209D01*
X126757803Y-113390974D01*
X126763019Y-113370150D01*
X126770251Y-113349938D01*
X126779430Y-113330532D01*
X126790466Y-113312119D01*
X126803254Y-113294876D01*
X126817670Y-113278970D01*
X126833576Y-113264554D01*
X126850819Y-113251766D01*
X126869232Y-113240730D01*
X126888638Y-113231551D01*
X126908850Y-113224319D01*
X126929674Y-113219103D01*
X126950909Y-113215953D01*
X126972350Y-113214900D01*
X127484850Y-113214900D01*
X127506291Y-113215953D01*
X127506291Y-113215953D01*
G37*
D11*
X127228600Y-113652400D03*
D10*
G36*
X134084142Y-102927474D02*
G01*
X134107803Y-102930984D01*
X134131007Y-102936796D01*
X134153529Y-102944854D01*
X134175153Y-102955082D01*
X134195670Y-102967379D01*
X134214883Y-102981629D01*
X134232607Y-102997693D01*
X134248671Y-103015417D01*
X134262921Y-103034630D01*
X134275218Y-103055147D01*
X134285446Y-103076771D01*
X134293504Y-103099293D01*
X134299316Y-103122497D01*
X134302826Y-103146158D01*
X134304000Y-103170050D01*
X134304000Y-103657550D01*
X134302826Y-103681442D01*
X134299316Y-103705103D01*
X134293504Y-103728307D01*
X134285446Y-103750829D01*
X134275218Y-103772453D01*
X134262921Y-103792970D01*
X134248671Y-103812183D01*
X134232607Y-103829907D01*
X134214883Y-103845971D01*
X134195670Y-103860221D01*
X134175153Y-103872518D01*
X134153529Y-103882746D01*
X134131007Y-103890804D01*
X134107803Y-103896616D01*
X134084142Y-103900126D01*
X134060250Y-103901300D01*
X133147750Y-103901300D01*
X133123858Y-103900126D01*
X133100197Y-103896616D01*
X133076993Y-103890804D01*
X133054471Y-103882746D01*
X133032847Y-103872518D01*
X133012330Y-103860221D01*
X132993117Y-103845971D01*
X132975393Y-103829907D01*
X132959329Y-103812183D01*
X132945079Y-103792970D01*
X132932782Y-103772453D01*
X132922554Y-103750829D01*
X132914496Y-103728307D01*
X132908684Y-103705103D01*
X132905174Y-103681442D01*
X132904000Y-103657550D01*
X132904000Y-103170050D01*
X132905174Y-103146158D01*
X132908684Y-103122497D01*
X132914496Y-103099293D01*
X132922554Y-103076771D01*
X132932782Y-103055147D01*
X132945079Y-103034630D01*
X132959329Y-103015417D01*
X132975393Y-102997693D01*
X132993117Y-102981629D01*
X133012330Y-102967379D01*
X133032847Y-102955082D01*
X133054471Y-102944854D01*
X133076993Y-102936796D01*
X133100197Y-102930984D01*
X133123858Y-102927474D01*
X133147750Y-102926300D01*
X134060250Y-102926300D01*
X134084142Y-102927474D01*
X134084142Y-102927474D01*
G37*
D12*
X133604000Y-103413800D03*
D10*
G36*
X134084142Y-101052474D02*
G01*
X134107803Y-101055984D01*
X134131007Y-101061796D01*
X134153529Y-101069854D01*
X134175153Y-101080082D01*
X134195670Y-101092379D01*
X134214883Y-101106629D01*
X134232607Y-101122693D01*
X134248671Y-101140417D01*
X134262921Y-101159630D01*
X134275218Y-101180147D01*
X134285446Y-101201771D01*
X134293504Y-101224293D01*
X134299316Y-101247497D01*
X134302826Y-101271158D01*
X134304000Y-101295050D01*
X134304000Y-101782550D01*
X134302826Y-101806442D01*
X134299316Y-101830103D01*
X134293504Y-101853307D01*
X134285446Y-101875829D01*
X134275218Y-101897453D01*
X134262921Y-101917970D01*
X134248671Y-101937183D01*
X134232607Y-101954907D01*
X134214883Y-101970971D01*
X134195670Y-101985221D01*
X134175153Y-101997518D01*
X134153529Y-102007746D01*
X134131007Y-102015804D01*
X134107803Y-102021616D01*
X134084142Y-102025126D01*
X134060250Y-102026300D01*
X133147750Y-102026300D01*
X133123858Y-102025126D01*
X133100197Y-102021616D01*
X133076993Y-102015804D01*
X133054471Y-102007746D01*
X133032847Y-101997518D01*
X133012330Y-101985221D01*
X132993117Y-101970971D01*
X132975393Y-101954907D01*
X132959329Y-101937183D01*
X132945079Y-101917970D01*
X132932782Y-101897453D01*
X132922554Y-101875829D01*
X132914496Y-101853307D01*
X132908684Y-101830103D01*
X132905174Y-101806442D01*
X132904000Y-101782550D01*
X132904000Y-101295050D01*
X132905174Y-101271158D01*
X132908684Y-101247497D01*
X132914496Y-101224293D01*
X132922554Y-101201771D01*
X132932782Y-101180147D01*
X132945079Y-101159630D01*
X132959329Y-101140417D01*
X132975393Y-101122693D01*
X132993117Y-101106629D01*
X133012330Y-101092379D01*
X133032847Y-101080082D01*
X133054471Y-101069854D01*
X133076993Y-101061796D01*
X133100197Y-101055984D01*
X133123858Y-101052474D01*
X133147750Y-101051300D01*
X134060250Y-101051300D01*
X134084142Y-101052474D01*
X134084142Y-101052474D01*
G37*
D12*
X133604000Y-101538800D03*
D10*
G36*
X124072711Y-113147873D02*
G01*
X124093946Y-113151023D01*
X124114770Y-113156239D01*
X124134982Y-113163471D01*
X124154388Y-113172650D01*
X124172801Y-113183686D01*
X124190044Y-113196474D01*
X124205950Y-113210890D01*
X124220366Y-113226796D01*
X124233154Y-113244039D01*
X124244190Y-113262452D01*
X124253369Y-113281858D01*
X124260601Y-113302070D01*
X124265817Y-113322894D01*
X124268967Y-113344129D01*
X124270020Y-113365570D01*
X124270020Y-113878070D01*
X124268967Y-113899511D01*
X124265817Y-113920746D01*
X124260601Y-113941570D01*
X124253369Y-113961782D01*
X124244190Y-113981188D01*
X124233154Y-113999601D01*
X124220366Y-114016844D01*
X124205950Y-114032750D01*
X124190044Y-114047166D01*
X124172801Y-114059954D01*
X124154388Y-114070990D01*
X124134982Y-114080169D01*
X124114770Y-114087401D01*
X124093946Y-114092617D01*
X124072711Y-114095767D01*
X124051270Y-114096820D01*
X123613770Y-114096820D01*
X123592329Y-114095767D01*
X123571094Y-114092617D01*
X123550270Y-114087401D01*
X123530058Y-114080169D01*
X123510652Y-114070990D01*
X123492239Y-114059954D01*
X123474996Y-114047166D01*
X123459090Y-114032750D01*
X123444674Y-114016844D01*
X123431886Y-113999601D01*
X123420850Y-113981188D01*
X123411671Y-113961782D01*
X123404439Y-113941570D01*
X123399223Y-113920746D01*
X123396073Y-113899511D01*
X123395020Y-113878070D01*
X123395020Y-113365570D01*
X123396073Y-113344129D01*
X123399223Y-113322894D01*
X123404439Y-113302070D01*
X123411671Y-113281858D01*
X123420850Y-113262452D01*
X123431886Y-113244039D01*
X123444674Y-113226796D01*
X123459090Y-113210890D01*
X123474996Y-113196474D01*
X123492239Y-113183686D01*
X123510652Y-113172650D01*
X123530058Y-113163471D01*
X123550270Y-113156239D01*
X123571094Y-113151023D01*
X123592329Y-113147873D01*
X123613770Y-113146820D01*
X124051270Y-113146820D01*
X124072711Y-113147873D01*
X124072711Y-113147873D01*
G37*
D11*
X123832520Y-113621820D03*
D10*
G36*
X125647711Y-113147873D02*
G01*
X125668946Y-113151023D01*
X125689770Y-113156239D01*
X125709982Y-113163471D01*
X125729388Y-113172650D01*
X125747801Y-113183686D01*
X125765044Y-113196474D01*
X125780950Y-113210890D01*
X125795366Y-113226796D01*
X125808154Y-113244039D01*
X125819190Y-113262452D01*
X125828369Y-113281858D01*
X125835601Y-113302070D01*
X125840817Y-113322894D01*
X125843967Y-113344129D01*
X125845020Y-113365570D01*
X125845020Y-113878070D01*
X125843967Y-113899511D01*
X125840817Y-113920746D01*
X125835601Y-113941570D01*
X125828369Y-113961782D01*
X125819190Y-113981188D01*
X125808154Y-113999601D01*
X125795366Y-114016844D01*
X125780950Y-114032750D01*
X125765044Y-114047166D01*
X125747801Y-114059954D01*
X125729388Y-114070990D01*
X125709982Y-114080169D01*
X125689770Y-114087401D01*
X125668946Y-114092617D01*
X125647711Y-114095767D01*
X125626270Y-114096820D01*
X125188770Y-114096820D01*
X125167329Y-114095767D01*
X125146094Y-114092617D01*
X125125270Y-114087401D01*
X125105058Y-114080169D01*
X125085652Y-114070990D01*
X125067239Y-114059954D01*
X125049996Y-114047166D01*
X125034090Y-114032750D01*
X125019674Y-114016844D01*
X125006886Y-113999601D01*
X124995850Y-113981188D01*
X124986671Y-113961782D01*
X124979439Y-113941570D01*
X124974223Y-113920746D01*
X124971073Y-113899511D01*
X124970020Y-113878070D01*
X124970020Y-113365570D01*
X124971073Y-113344129D01*
X124974223Y-113322894D01*
X124979439Y-113302070D01*
X124986671Y-113281858D01*
X124995850Y-113262452D01*
X125006886Y-113244039D01*
X125019674Y-113226796D01*
X125034090Y-113210890D01*
X125049996Y-113196474D01*
X125067239Y-113183686D01*
X125085652Y-113172650D01*
X125105058Y-113163471D01*
X125125270Y-113156239D01*
X125146094Y-113151023D01*
X125167329Y-113147873D01*
X125188770Y-113146820D01*
X125626270Y-113146820D01*
X125647711Y-113147873D01*
X125647711Y-113147873D01*
G37*
D11*
X125407520Y-113621820D03*
D10*
G36*
X108139142Y-122694374D02*
G01*
X108162803Y-122697884D01*
X108186007Y-122703696D01*
X108208529Y-122711754D01*
X108230153Y-122721982D01*
X108250670Y-122734279D01*
X108269883Y-122748529D01*
X108287607Y-122764593D01*
X108303671Y-122782317D01*
X108317921Y-122801530D01*
X108330218Y-122822047D01*
X108340446Y-122843671D01*
X108348504Y-122866193D01*
X108354316Y-122889397D01*
X108357826Y-122913058D01*
X108359000Y-122936950D01*
X108359000Y-123849450D01*
X108357826Y-123873342D01*
X108354316Y-123897003D01*
X108348504Y-123920207D01*
X108340446Y-123942729D01*
X108330218Y-123964353D01*
X108317921Y-123984870D01*
X108303671Y-124004083D01*
X108287607Y-124021807D01*
X108269883Y-124037871D01*
X108250670Y-124052121D01*
X108230153Y-124064418D01*
X108208529Y-124074646D01*
X108186007Y-124082704D01*
X108162803Y-124088516D01*
X108139142Y-124092026D01*
X108115250Y-124093200D01*
X107627750Y-124093200D01*
X107603858Y-124092026D01*
X107580197Y-124088516D01*
X107556993Y-124082704D01*
X107534471Y-124074646D01*
X107512847Y-124064418D01*
X107492330Y-124052121D01*
X107473117Y-124037871D01*
X107455393Y-124021807D01*
X107439329Y-124004083D01*
X107425079Y-123984870D01*
X107412782Y-123964353D01*
X107402554Y-123942729D01*
X107394496Y-123920207D01*
X107388684Y-123897003D01*
X107385174Y-123873342D01*
X107384000Y-123849450D01*
X107384000Y-122936950D01*
X107385174Y-122913058D01*
X107388684Y-122889397D01*
X107394496Y-122866193D01*
X107402554Y-122843671D01*
X107412782Y-122822047D01*
X107425079Y-122801530D01*
X107439329Y-122782317D01*
X107455393Y-122764593D01*
X107473117Y-122748529D01*
X107492330Y-122734279D01*
X107512847Y-122721982D01*
X107534471Y-122711754D01*
X107556993Y-122703696D01*
X107580197Y-122697884D01*
X107603858Y-122694374D01*
X107627750Y-122693200D01*
X108115250Y-122693200D01*
X108139142Y-122694374D01*
X108139142Y-122694374D01*
G37*
D12*
X107871500Y-123393200D03*
D10*
G36*
X106264142Y-122694374D02*
G01*
X106287803Y-122697884D01*
X106311007Y-122703696D01*
X106333529Y-122711754D01*
X106355153Y-122721982D01*
X106375670Y-122734279D01*
X106394883Y-122748529D01*
X106412607Y-122764593D01*
X106428671Y-122782317D01*
X106442921Y-122801530D01*
X106455218Y-122822047D01*
X106465446Y-122843671D01*
X106473504Y-122866193D01*
X106479316Y-122889397D01*
X106482826Y-122913058D01*
X106484000Y-122936950D01*
X106484000Y-123849450D01*
X106482826Y-123873342D01*
X106479316Y-123897003D01*
X106473504Y-123920207D01*
X106465446Y-123942729D01*
X106455218Y-123964353D01*
X106442921Y-123984870D01*
X106428671Y-124004083D01*
X106412607Y-124021807D01*
X106394883Y-124037871D01*
X106375670Y-124052121D01*
X106355153Y-124064418D01*
X106333529Y-124074646D01*
X106311007Y-124082704D01*
X106287803Y-124088516D01*
X106264142Y-124092026D01*
X106240250Y-124093200D01*
X105752750Y-124093200D01*
X105728858Y-124092026D01*
X105705197Y-124088516D01*
X105681993Y-124082704D01*
X105659471Y-124074646D01*
X105637847Y-124064418D01*
X105617330Y-124052121D01*
X105598117Y-124037871D01*
X105580393Y-124021807D01*
X105564329Y-124004083D01*
X105550079Y-123984870D01*
X105537782Y-123964353D01*
X105527554Y-123942729D01*
X105519496Y-123920207D01*
X105513684Y-123897003D01*
X105510174Y-123873342D01*
X105509000Y-123849450D01*
X105509000Y-122936950D01*
X105510174Y-122913058D01*
X105513684Y-122889397D01*
X105519496Y-122866193D01*
X105527554Y-122843671D01*
X105537782Y-122822047D01*
X105550079Y-122801530D01*
X105564329Y-122782317D01*
X105580393Y-122764593D01*
X105598117Y-122748529D01*
X105617330Y-122734279D01*
X105637847Y-122721982D01*
X105659471Y-122711754D01*
X105681993Y-122703696D01*
X105705197Y-122697884D01*
X105728858Y-122694374D01*
X105752750Y-122693200D01*
X106240250Y-122693200D01*
X106264142Y-122694374D01*
X106264142Y-122694374D01*
G37*
D12*
X105996500Y-123393200D03*
D10*
G36*
X104138642Y-114591774D02*
G01*
X104162303Y-114595284D01*
X104185507Y-114601096D01*
X104208029Y-114609154D01*
X104229653Y-114619382D01*
X104250170Y-114631679D01*
X104269383Y-114645929D01*
X104287107Y-114661993D01*
X104303171Y-114679717D01*
X104317421Y-114698930D01*
X104329718Y-114719447D01*
X104339946Y-114741071D01*
X104348004Y-114763593D01*
X104353816Y-114786797D01*
X104357326Y-114810458D01*
X104358500Y-114834350D01*
X104358500Y-115746850D01*
X104357326Y-115770742D01*
X104353816Y-115794403D01*
X104348004Y-115817607D01*
X104339946Y-115840129D01*
X104329718Y-115861753D01*
X104317421Y-115882270D01*
X104303171Y-115901483D01*
X104287107Y-115919207D01*
X104269383Y-115935271D01*
X104250170Y-115949521D01*
X104229653Y-115961818D01*
X104208029Y-115972046D01*
X104185507Y-115980104D01*
X104162303Y-115985916D01*
X104138642Y-115989426D01*
X104114750Y-115990600D01*
X103627250Y-115990600D01*
X103603358Y-115989426D01*
X103579697Y-115985916D01*
X103556493Y-115980104D01*
X103533971Y-115972046D01*
X103512347Y-115961818D01*
X103491830Y-115949521D01*
X103472617Y-115935271D01*
X103454893Y-115919207D01*
X103438829Y-115901483D01*
X103424579Y-115882270D01*
X103412282Y-115861753D01*
X103402054Y-115840129D01*
X103393996Y-115817607D01*
X103388184Y-115794403D01*
X103384674Y-115770742D01*
X103383500Y-115746850D01*
X103383500Y-114834350D01*
X103384674Y-114810458D01*
X103388184Y-114786797D01*
X103393996Y-114763593D01*
X103402054Y-114741071D01*
X103412282Y-114719447D01*
X103424579Y-114698930D01*
X103438829Y-114679717D01*
X103454893Y-114661993D01*
X103472617Y-114645929D01*
X103491830Y-114631679D01*
X103512347Y-114619382D01*
X103533971Y-114609154D01*
X103556493Y-114601096D01*
X103579697Y-114595284D01*
X103603358Y-114591774D01*
X103627250Y-114590600D01*
X104114750Y-114590600D01*
X104138642Y-114591774D01*
X104138642Y-114591774D01*
G37*
D12*
X103871000Y-115290600D03*
D10*
G36*
X102263642Y-114591774D02*
G01*
X102287303Y-114595284D01*
X102310507Y-114601096D01*
X102333029Y-114609154D01*
X102354653Y-114619382D01*
X102375170Y-114631679D01*
X102394383Y-114645929D01*
X102412107Y-114661993D01*
X102428171Y-114679717D01*
X102442421Y-114698930D01*
X102454718Y-114719447D01*
X102464946Y-114741071D01*
X102473004Y-114763593D01*
X102478816Y-114786797D01*
X102482326Y-114810458D01*
X102483500Y-114834350D01*
X102483500Y-115746850D01*
X102482326Y-115770742D01*
X102478816Y-115794403D01*
X102473004Y-115817607D01*
X102464946Y-115840129D01*
X102454718Y-115861753D01*
X102442421Y-115882270D01*
X102428171Y-115901483D01*
X102412107Y-115919207D01*
X102394383Y-115935271D01*
X102375170Y-115949521D01*
X102354653Y-115961818D01*
X102333029Y-115972046D01*
X102310507Y-115980104D01*
X102287303Y-115985916D01*
X102263642Y-115989426D01*
X102239750Y-115990600D01*
X101752250Y-115990600D01*
X101728358Y-115989426D01*
X101704697Y-115985916D01*
X101681493Y-115980104D01*
X101658971Y-115972046D01*
X101637347Y-115961818D01*
X101616830Y-115949521D01*
X101597617Y-115935271D01*
X101579893Y-115919207D01*
X101563829Y-115901483D01*
X101549579Y-115882270D01*
X101537282Y-115861753D01*
X101527054Y-115840129D01*
X101518996Y-115817607D01*
X101513184Y-115794403D01*
X101509674Y-115770742D01*
X101508500Y-115746850D01*
X101508500Y-114834350D01*
X101509674Y-114810458D01*
X101513184Y-114786797D01*
X101518996Y-114763593D01*
X101527054Y-114741071D01*
X101537282Y-114719447D01*
X101549579Y-114698930D01*
X101563829Y-114679717D01*
X101579893Y-114661993D01*
X101597617Y-114645929D01*
X101616830Y-114631679D01*
X101637347Y-114619382D01*
X101658971Y-114609154D01*
X101681493Y-114601096D01*
X101704697Y-114595284D01*
X101728358Y-114591774D01*
X101752250Y-114590600D01*
X102239750Y-114590600D01*
X102263642Y-114591774D01*
X102263642Y-114591774D01*
G37*
D12*
X101996000Y-115290600D03*
D10*
G36*
X133830142Y-117321174D02*
G01*
X133853803Y-117324684D01*
X133877007Y-117330496D01*
X133899529Y-117338554D01*
X133921153Y-117348782D01*
X133941670Y-117361079D01*
X133960883Y-117375329D01*
X133978607Y-117391393D01*
X133994671Y-117409117D01*
X134008921Y-117428330D01*
X134021218Y-117448847D01*
X134031446Y-117470471D01*
X134039504Y-117492993D01*
X134045316Y-117516197D01*
X134048826Y-117539858D01*
X134050000Y-117563750D01*
X134050000Y-118051250D01*
X134048826Y-118075142D01*
X134045316Y-118098803D01*
X134039504Y-118122007D01*
X134031446Y-118144529D01*
X134021218Y-118166153D01*
X134008921Y-118186670D01*
X133994671Y-118205883D01*
X133978607Y-118223607D01*
X133960883Y-118239671D01*
X133941670Y-118253921D01*
X133921153Y-118266218D01*
X133899529Y-118276446D01*
X133877007Y-118284504D01*
X133853803Y-118290316D01*
X133830142Y-118293826D01*
X133806250Y-118295000D01*
X132893750Y-118295000D01*
X132869858Y-118293826D01*
X132846197Y-118290316D01*
X132822993Y-118284504D01*
X132800471Y-118276446D01*
X132778847Y-118266218D01*
X132758330Y-118253921D01*
X132739117Y-118239671D01*
X132721393Y-118223607D01*
X132705329Y-118205883D01*
X132691079Y-118186670D01*
X132678782Y-118166153D01*
X132668554Y-118144529D01*
X132660496Y-118122007D01*
X132654684Y-118098803D01*
X132651174Y-118075142D01*
X132650000Y-118051250D01*
X132650000Y-117563750D01*
X132651174Y-117539858D01*
X132654684Y-117516197D01*
X132660496Y-117492993D01*
X132668554Y-117470471D01*
X132678782Y-117448847D01*
X132691079Y-117428330D01*
X132705329Y-117409117D01*
X132721393Y-117391393D01*
X132739117Y-117375329D01*
X132758330Y-117361079D01*
X132778847Y-117348782D01*
X132800471Y-117338554D01*
X132822993Y-117330496D01*
X132846197Y-117324684D01*
X132869858Y-117321174D01*
X132893750Y-117320000D01*
X133806250Y-117320000D01*
X133830142Y-117321174D01*
X133830142Y-117321174D01*
G37*
D12*
X133350000Y-117807500D03*
D10*
G36*
X133830142Y-119196174D02*
G01*
X133853803Y-119199684D01*
X133877007Y-119205496D01*
X133899529Y-119213554D01*
X133921153Y-119223782D01*
X133941670Y-119236079D01*
X133960883Y-119250329D01*
X133978607Y-119266393D01*
X133994671Y-119284117D01*
X134008921Y-119303330D01*
X134021218Y-119323847D01*
X134031446Y-119345471D01*
X134039504Y-119367993D01*
X134045316Y-119391197D01*
X134048826Y-119414858D01*
X134050000Y-119438750D01*
X134050000Y-119926250D01*
X134048826Y-119950142D01*
X134045316Y-119973803D01*
X134039504Y-119997007D01*
X134031446Y-120019529D01*
X134021218Y-120041153D01*
X134008921Y-120061670D01*
X133994671Y-120080883D01*
X133978607Y-120098607D01*
X133960883Y-120114671D01*
X133941670Y-120128921D01*
X133921153Y-120141218D01*
X133899529Y-120151446D01*
X133877007Y-120159504D01*
X133853803Y-120165316D01*
X133830142Y-120168826D01*
X133806250Y-120170000D01*
X132893750Y-120170000D01*
X132869858Y-120168826D01*
X132846197Y-120165316D01*
X132822993Y-120159504D01*
X132800471Y-120151446D01*
X132778847Y-120141218D01*
X132758330Y-120128921D01*
X132739117Y-120114671D01*
X132721393Y-120098607D01*
X132705329Y-120080883D01*
X132691079Y-120061670D01*
X132678782Y-120041153D01*
X132668554Y-120019529D01*
X132660496Y-119997007D01*
X132654684Y-119973803D01*
X132651174Y-119950142D01*
X132650000Y-119926250D01*
X132650000Y-119438750D01*
X132651174Y-119414858D01*
X132654684Y-119391197D01*
X132660496Y-119367993D01*
X132668554Y-119345471D01*
X132678782Y-119323847D01*
X132691079Y-119303330D01*
X132705329Y-119284117D01*
X132721393Y-119266393D01*
X132739117Y-119250329D01*
X132758330Y-119236079D01*
X132778847Y-119223782D01*
X132800471Y-119213554D01*
X132822993Y-119205496D01*
X132846197Y-119199684D01*
X132869858Y-119196174D01*
X132893750Y-119195000D01*
X133806250Y-119195000D01*
X133830142Y-119196174D01*
X133830142Y-119196174D01*
G37*
D12*
X133350000Y-119682500D03*
D13*
X119204760Y-108778880D03*
X119204760Y-106978880D03*
X118254760Y-106978880D03*
X118254760Y-108778880D03*
X115562360Y-108778880D03*
X115562360Y-106978880D03*
X116512360Y-106978880D03*
X116512360Y-108778880D03*
D14*
X114427000Y-126990600D03*
X115377000Y-128990600D03*
X113477000Y-128990600D03*
X115364300Y-123460000D03*
X113464300Y-123460000D03*
X114414300Y-125460000D03*
D10*
G36*
X102440004Y-126652604D02*
G01*
X102464273Y-126656204D01*
X102488071Y-126662165D01*
X102511171Y-126670430D01*
X102533349Y-126680920D01*
X102554393Y-126693533D01*
X102574098Y-126708147D01*
X102592277Y-126724623D01*
X102608753Y-126742802D01*
X102623367Y-126762507D01*
X102635980Y-126783551D01*
X102646470Y-126805729D01*
X102654735Y-126828829D01*
X102660696Y-126852627D01*
X102664296Y-126876896D01*
X102665500Y-126901400D01*
X102665500Y-127651400D01*
X102664296Y-127675904D01*
X102660696Y-127700173D01*
X102654735Y-127723971D01*
X102646470Y-127747071D01*
X102635980Y-127769249D01*
X102623367Y-127790293D01*
X102608753Y-127809998D01*
X102592277Y-127828177D01*
X102574098Y-127844653D01*
X102554393Y-127859267D01*
X102533349Y-127871880D01*
X102511171Y-127882370D01*
X102488071Y-127890635D01*
X102464273Y-127896596D01*
X102440004Y-127900196D01*
X102415500Y-127901400D01*
X101165500Y-127901400D01*
X101140996Y-127900196D01*
X101116727Y-127896596D01*
X101092929Y-127890635D01*
X101069829Y-127882370D01*
X101047651Y-127871880D01*
X101026607Y-127859267D01*
X101006902Y-127844653D01*
X100988723Y-127828177D01*
X100972247Y-127809998D01*
X100957633Y-127790293D01*
X100945020Y-127769249D01*
X100934530Y-127747071D01*
X100926265Y-127723971D01*
X100920304Y-127700173D01*
X100916704Y-127675904D01*
X100915500Y-127651400D01*
X100915500Y-126901400D01*
X100916704Y-126876896D01*
X100920304Y-126852627D01*
X100926265Y-126828829D01*
X100934530Y-126805729D01*
X100945020Y-126783551D01*
X100957633Y-126762507D01*
X100972247Y-126742802D01*
X100988723Y-126724623D01*
X101006902Y-126708147D01*
X101026607Y-126693533D01*
X101047651Y-126680920D01*
X101069829Y-126670430D01*
X101092929Y-126662165D01*
X101116727Y-126656204D01*
X101140996Y-126652604D01*
X101165500Y-126651400D01*
X102415500Y-126651400D01*
X102440004Y-126652604D01*
X102440004Y-126652604D01*
G37*
D15*
X101790500Y-127276400D03*
D10*
G36*
X102440004Y-129452604D02*
G01*
X102464273Y-129456204D01*
X102488071Y-129462165D01*
X102511171Y-129470430D01*
X102533349Y-129480920D01*
X102554393Y-129493533D01*
X102574098Y-129508147D01*
X102592277Y-129524623D01*
X102608753Y-129542802D01*
X102623367Y-129562507D01*
X102635980Y-129583551D01*
X102646470Y-129605729D01*
X102654735Y-129628829D01*
X102660696Y-129652627D01*
X102664296Y-129676896D01*
X102665500Y-129701400D01*
X102665500Y-130451400D01*
X102664296Y-130475904D01*
X102660696Y-130500173D01*
X102654735Y-130523971D01*
X102646470Y-130547071D01*
X102635980Y-130569249D01*
X102623367Y-130590293D01*
X102608753Y-130609998D01*
X102592277Y-130628177D01*
X102574098Y-130644653D01*
X102554393Y-130659267D01*
X102533349Y-130671880D01*
X102511171Y-130682370D01*
X102488071Y-130690635D01*
X102464273Y-130696596D01*
X102440004Y-130700196D01*
X102415500Y-130701400D01*
X101165500Y-130701400D01*
X101140996Y-130700196D01*
X101116727Y-130696596D01*
X101092929Y-130690635D01*
X101069829Y-130682370D01*
X101047651Y-130671880D01*
X101026607Y-130659267D01*
X101006902Y-130644653D01*
X100988723Y-130628177D01*
X100972247Y-130609998D01*
X100957633Y-130590293D01*
X100945020Y-130569249D01*
X100934530Y-130547071D01*
X100926265Y-130523971D01*
X100920304Y-130500173D01*
X100916704Y-130475904D01*
X100915500Y-130451400D01*
X100915500Y-129701400D01*
X100916704Y-129676896D01*
X100920304Y-129652627D01*
X100926265Y-129628829D01*
X100934530Y-129605729D01*
X100945020Y-129583551D01*
X100957633Y-129562507D01*
X100972247Y-129542802D01*
X100988723Y-129524623D01*
X101006902Y-129508147D01*
X101026607Y-129493533D01*
X101047651Y-129480920D01*
X101069829Y-129470430D01*
X101092929Y-129462165D01*
X101116727Y-129456204D01*
X101140996Y-129452604D01*
X101165500Y-129451400D01*
X102415500Y-129451400D01*
X102440004Y-129452604D01*
X102440004Y-129452604D01*
G37*
D15*
X101790500Y-130076400D03*
D16*
X108861100Y-131564900D03*
D17*
X107211100Y-128864900D03*
X106561100Y-128864900D03*
X109161100Y-128864900D03*
X108511100Y-128864900D03*
X107861100Y-128864900D03*
D16*
X106861100Y-131564900D03*
D10*
G36*
X120313011Y-110315073D02*
G01*
X120334246Y-110318223D01*
X120355070Y-110323439D01*
X120375282Y-110330671D01*
X120394688Y-110339850D01*
X120413101Y-110350886D01*
X120430344Y-110363674D01*
X120446250Y-110378090D01*
X120460666Y-110393996D01*
X120473454Y-110411239D01*
X120484490Y-110429652D01*
X120493669Y-110449058D01*
X120500901Y-110469270D01*
X120506117Y-110490094D01*
X120509267Y-110511329D01*
X120510320Y-110532770D01*
X120510320Y-110970270D01*
X120509267Y-110991711D01*
X120506117Y-111012946D01*
X120500901Y-111033770D01*
X120493669Y-111053982D01*
X120484490Y-111073388D01*
X120473454Y-111091801D01*
X120460666Y-111109044D01*
X120446250Y-111124950D01*
X120430344Y-111139366D01*
X120413101Y-111152154D01*
X120394688Y-111163190D01*
X120375282Y-111172369D01*
X120355070Y-111179601D01*
X120334246Y-111184817D01*
X120313011Y-111187967D01*
X120291570Y-111189020D01*
X119779070Y-111189020D01*
X119757629Y-111187967D01*
X119736394Y-111184817D01*
X119715570Y-111179601D01*
X119695358Y-111172369D01*
X119675952Y-111163190D01*
X119657539Y-111152154D01*
X119640296Y-111139366D01*
X119624390Y-111124950D01*
X119609974Y-111109044D01*
X119597186Y-111091801D01*
X119586150Y-111073388D01*
X119576971Y-111053982D01*
X119569739Y-111033770D01*
X119564523Y-111012946D01*
X119561373Y-110991711D01*
X119560320Y-110970270D01*
X119560320Y-110532770D01*
X119561373Y-110511329D01*
X119564523Y-110490094D01*
X119569739Y-110469270D01*
X119576971Y-110449058D01*
X119586150Y-110429652D01*
X119597186Y-110411239D01*
X119609974Y-110393996D01*
X119624390Y-110378090D01*
X119640296Y-110363674D01*
X119657539Y-110350886D01*
X119675952Y-110339850D01*
X119695358Y-110330671D01*
X119715570Y-110323439D01*
X119736394Y-110318223D01*
X119757629Y-110315073D01*
X119779070Y-110314020D01*
X120291570Y-110314020D01*
X120313011Y-110315073D01*
X120313011Y-110315073D01*
G37*
D11*
X120035320Y-110751520D03*
D10*
G36*
X120313011Y-111890073D02*
G01*
X120334246Y-111893223D01*
X120355070Y-111898439D01*
X120375282Y-111905671D01*
X120394688Y-111914850D01*
X120413101Y-111925886D01*
X120430344Y-111938674D01*
X120446250Y-111953090D01*
X120460666Y-111968996D01*
X120473454Y-111986239D01*
X120484490Y-112004652D01*
X120493669Y-112024058D01*
X120500901Y-112044270D01*
X120506117Y-112065094D01*
X120509267Y-112086329D01*
X120510320Y-112107770D01*
X120510320Y-112545270D01*
X120509267Y-112566711D01*
X120506117Y-112587946D01*
X120500901Y-112608770D01*
X120493669Y-112628982D01*
X120484490Y-112648388D01*
X120473454Y-112666801D01*
X120460666Y-112684044D01*
X120446250Y-112699950D01*
X120430344Y-112714366D01*
X120413101Y-112727154D01*
X120394688Y-112738190D01*
X120375282Y-112747369D01*
X120355070Y-112754601D01*
X120334246Y-112759817D01*
X120313011Y-112762967D01*
X120291570Y-112764020D01*
X119779070Y-112764020D01*
X119757629Y-112762967D01*
X119736394Y-112759817D01*
X119715570Y-112754601D01*
X119695358Y-112747369D01*
X119675952Y-112738190D01*
X119657539Y-112727154D01*
X119640296Y-112714366D01*
X119624390Y-112699950D01*
X119609974Y-112684044D01*
X119597186Y-112666801D01*
X119586150Y-112648388D01*
X119576971Y-112628982D01*
X119569739Y-112608770D01*
X119564523Y-112587946D01*
X119561373Y-112566711D01*
X119560320Y-112545270D01*
X119560320Y-112107770D01*
X119561373Y-112086329D01*
X119564523Y-112065094D01*
X119569739Y-112044270D01*
X119576971Y-112024058D01*
X119586150Y-112004652D01*
X119597186Y-111986239D01*
X119609974Y-111968996D01*
X119624390Y-111953090D01*
X119640296Y-111938674D01*
X119657539Y-111925886D01*
X119675952Y-111914850D01*
X119695358Y-111905671D01*
X119715570Y-111898439D01*
X119736394Y-111893223D01*
X119757629Y-111890073D01*
X119779070Y-111889020D01*
X120291570Y-111889020D01*
X120313011Y-111890073D01*
X120313011Y-111890073D01*
G37*
D11*
X120035320Y-112326520D03*
D10*
G36*
X118768691Y-111882453D02*
G01*
X118789926Y-111885603D01*
X118810750Y-111890819D01*
X118830962Y-111898051D01*
X118850368Y-111907230D01*
X118868781Y-111918266D01*
X118886024Y-111931054D01*
X118901930Y-111945470D01*
X118916346Y-111961376D01*
X118929134Y-111978619D01*
X118940170Y-111997032D01*
X118949349Y-112016438D01*
X118956581Y-112036650D01*
X118961797Y-112057474D01*
X118964947Y-112078709D01*
X118966000Y-112100150D01*
X118966000Y-112537650D01*
X118964947Y-112559091D01*
X118961797Y-112580326D01*
X118956581Y-112601150D01*
X118949349Y-112621362D01*
X118940170Y-112640768D01*
X118929134Y-112659181D01*
X118916346Y-112676424D01*
X118901930Y-112692330D01*
X118886024Y-112706746D01*
X118868781Y-112719534D01*
X118850368Y-112730570D01*
X118830962Y-112739749D01*
X118810750Y-112746981D01*
X118789926Y-112752197D01*
X118768691Y-112755347D01*
X118747250Y-112756400D01*
X118234750Y-112756400D01*
X118213309Y-112755347D01*
X118192074Y-112752197D01*
X118171250Y-112746981D01*
X118151038Y-112739749D01*
X118131632Y-112730570D01*
X118113219Y-112719534D01*
X118095976Y-112706746D01*
X118080070Y-112692330D01*
X118065654Y-112676424D01*
X118052866Y-112659181D01*
X118041830Y-112640768D01*
X118032651Y-112621362D01*
X118025419Y-112601150D01*
X118020203Y-112580326D01*
X118017053Y-112559091D01*
X118016000Y-112537650D01*
X118016000Y-112100150D01*
X118017053Y-112078709D01*
X118020203Y-112057474D01*
X118025419Y-112036650D01*
X118032651Y-112016438D01*
X118041830Y-111997032D01*
X118052866Y-111978619D01*
X118065654Y-111961376D01*
X118080070Y-111945470D01*
X118095976Y-111931054D01*
X118113219Y-111918266D01*
X118131632Y-111907230D01*
X118151038Y-111898051D01*
X118171250Y-111890819D01*
X118192074Y-111885603D01*
X118213309Y-111882453D01*
X118234750Y-111881400D01*
X118747250Y-111881400D01*
X118768691Y-111882453D01*
X118768691Y-111882453D01*
G37*
D11*
X118491000Y-112318900D03*
D10*
G36*
X118768691Y-110307453D02*
G01*
X118789926Y-110310603D01*
X118810750Y-110315819D01*
X118830962Y-110323051D01*
X118850368Y-110332230D01*
X118868781Y-110343266D01*
X118886024Y-110356054D01*
X118901930Y-110370470D01*
X118916346Y-110386376D01*
X118929134Y-110403619D01*
X118940170Y-110422032D01*
X118949349Y-110441438D01*
X118956581Y-110461650D01*
X118961797Y-110482474D01*
X118964947Y-110503709D01*
X118966000Y-110525150D01*
X118966000Y-110962650D01*
X118964947Y-110984091D01*
X118961797Y-111005326D01*
X118956581Y-111026150D01*
X118949349Y-111046362D01*
X118940170Y-111065768D01*
X118929134Y-111084181D01*
X118916346Y-111101424D01*
X118901930Y-111117330D01*
X118886024Y-111131746D01*
X118868781Y-111144534D01*
X118850368Y-111155570D01*
X118830962Y-111164749D01*
X118810750Y-111171981D01*
X118789926Y-111177197D01*
X118768691Y-111180347D01*
X118747250Y-111181400D01*
X118234750Y-111181400D01*
X118213309Y-111180347D01*
X118192074Y-111177197D01*
X118171250Y-111171981D01*
X118151038Y-111164749D01*
X118131632Y-111155570D01*
X118113219Y-111144534D01*
X118095976Y-111131746D01*
X118080070Y-111117330D01*
X118065654Y-111101424D01*
X118052866Y-111084181D01*
X118041830Y-111065768D01*
X118032651Y-111046362D01*
X118025419Y-111026150D01*
X118020203Y-111005326D01*
X118017053Y-110984091D01*
X118016000Y-110962650D01*
X118016000Y-110525150D01*
X118017053Y-110503709D01*
X118020203Y-110482474D01*
X118025419Y-110461650D01*
X118032651Y-110441438D01*
X118041830Y-110422032D01*
X118052866Y-110403619D01*
X118065654Y-110386376D01*
X118080070Y-110370470D01*
X118095976Y-110356054D01*
X118113219Y-110343266D01*
X118131632Y-110332230D01*
X118151038Y-110323051D01*
X118171250Y-110315819D01*
X118192074Y-110310603D01*
X118213309Y-110307453D01*
X118234750Y-110306400D01*
X118747250Y-110306400D01*
X118768691Y-110307453D01*
X118768691Y-110307453D01*
G37*
D11*
X118491000Y-110743900D03*
D10*
G36*
X116520791Y-110309993D02*
G01*
X116542026Y-110313143D01*
X116562850Y-110318359D01*
X116583062Y-110325591D01*
X116602468Y-110334770D01*
X116620881Y-110345806D01*
X116638124Y-110358594D01*
X116654030Y-110373010D01*
X116668446Y-110388916D01*
X116681234Y-110406159D01*
X116692270Y-110424572D01*
X116701449Y-110443978D01*
X116708681Y-110464190D01*
X116713897Y-110485014D01*
X116717047Y-110506249D01*
X116718100Y-110527690D01*
X116718100Y-110965190D01*
X116717047Y-110986631D01*
X116713897Y-111007866D01*
X116708681Y-111028690D01*
X116701449Y-111048902D01*
X116692270Y-111068308D01*
X116681234Y-111086721D01*
X116668446Y-111103964D01*
X116654030Y-111119870D01*
X116638124Y-111134286D01*
X116620881Y-111147074D01*
X116602468Y-111158110D01*
X116583062Y-111167289D01*
X116562850Y-111174521D01*
X116542026Y-111179737D01*
X116520791Y-111182887D01*
X116499350Y-111183940D01*
X115986850Y-111183940D01*
X115965409Y-111182887D01*
X115944174Y-111179737D01*
X115923350Y-111174521D01*
X115903138Y-111167289D01*
X115883732Y-111158110D01*
X115865319Y-111147074D01*
X115848076Y-111134286D01*
X115832170Y-111119870D01*
X115817754Y-111103964D01*
X115804966Y-111086721D01*
X115793930Y-111068308D01*
X115784751Y-111048902D01*
X115777519Y-111028690D01*
X115772303Y-111007866D01*
X115769153Y-110986631D01*
X115768100Y-110965190D01*
X115768100Y-110527690D01*
X115769153Y-110506249D01*
X115772303Y-110485014D01*
X115777519Y-110464190D01*
X115784751Y-110443978D01*
X115793930Y-110424572D01*
X115804966Y-110406159D01*
X115817754Y-110388916D01*
X115832170Y-110373010D01*
X115848076Y-110358594D01*
X115865319Y-110345806D01*
X115883732Y-110334770D01*
X115903138Y-110325591D01*
X115923350Y-110318359D01*
X115944174Y-110313143D01*
X115965409Y-110309993D01*
X115986850Y-110308940D01*
X116499350Y-110308940D01*
X116520791Y-110309993D01*
X116520791Y-110309993D01*
G37*
D11*
X116243100Y-110746440D03*
D10*
G36*
X116520791Y-111884993D02*
G01*
X116542026Y-111888143D01*
X116562850Y-111893359D01*
X116583062Y-111900591D01*
X116602468Y-111909770D01*
X116620881Y-111920806D01*
X116638124Y-111933594D01*
X116654030Y-111948010D01*
X116668446Y-111963916D01*
X116681234Y-111981159D01*
X116692270Y-111999572D01*
X116701449Y-112018978D01*
X116708681Y-112039190D01*
X116713897Y-112060014D01*
X116717047Y-112081249D01*
X116718100Y-112102690D01*
X116718100Y-112540190D01*
X116717047Y-112561631D01*
X116713897Y-112582866D01*
X116708681Y-112603690D01*
X116701449Y-112623902D01*
X116692270Y-112643308D01*
X116681234Y-112661721D01*
X116668446Y-112678964D01*
X116654030Y-112694870D01*
X116638124Y-112709286D01*
X116620881Y-112722074D01*
X116602468Y-112733110D01*
X116583062Y-112742289D01*
X116562850Y-112749521D01*
X116542026Y-112754737D01*
X116520791Y-112757887D01*
X116499350Y-112758940D01*
X115986850Y-112758940D01*
X115965409Y-112757887D01*
X115944174Y-112754737D01*
X115923350Y-112749521D01*
X115903138Y-112742289D01*
X115883732Y-112733110D01*
X115865319Y-112722074D01*
X115848076Y-112709286D01*
X115832170Y-112694870D01*
X115817754Y-112678964D01*
X115804966Y-112661721D01*
X115793930Y-112643308D01*
X115784751Y-112623902D01*
X115777519Y-112603690D01*
X115772303Y-112582866D01*
X115769153Y-112561631D01*
X115768100Y-112540190D01*
X115768100Y-112102690D01*
X115769153Y-112081249D01*
X115772303Y-112060014D01*
X115777519Y-112039190D01*
X115784751Y-112018978D01*
X115793930Y-111999572D01*
X115804966Y-111981159D01*
X115817754Y-111963916D01*
X115832170Y-111948010D01*
X115848076Y-111933594D01*
X115865319Y-111920806D01*
X115883732Y-111909770D01*
X115903138Y-111900591D01*
X115923350Y-111893359D01*
X115944174Y-111888143D01*
X115965409Y-111884993D01*
X115986850Y-111883940D01*
X116499350Y-111883940D01*
X116520791Y-111884993D01*
X116520791Y-111884993D01*
G37*
D11*
X116243100Y-112321440D03*
D10*
G36*
X114968851Y-111887533D02*
G01*
X114990086Y-111890683D01*
X115010910Y-111895899D01*
X115031122Y-111903131D01*
X115050528Y-111912310D01*
X115068941Y-111923346D01*
X115086184Y-111936134D01*
X115102090Y-111950550D01*
X115116506Y-111966456D01*
X115129294Y-111983699D01*
X115140330Y-112002112D01*
X115149509Y-112021518D01*
X115156741Y-112041730D01*
X115161957Y-112062554D01*
X115165107Y-112083789D01*
X115166160Y-112105230D01*
X115166160Y-112542730D01*
X115165107Y-112564171D01*
X115161957Y-112585406D01*
X115156741Y-112606230D01*
X115149509Y-112626442D01*
X115140330Y-112645848D01*
X115129294Y-112664261D01*
X115116506Y-112681504D01*
X115102090Y-112697410D01*
X115086184Y-112711826D01*
X115068941Y-112724614D01*
X115050528Y-112735650D01*
X115031122Y-112744829D01*
X115010910Y-112752061D01*
X114990086Y-112757277D01*
X114968851Y-112760427D01*
X114947410Y-112761480D01*
X114434910Y-112761480D01*
X114413469Y-112760427D01*
X114392234Y-112757277D01*
X114371410Y-112752061D01*
X114351198Y-112744829D01*
X114331792Y-112735650D01*
X114313379Y-112724614D01*
X114296136Y-112711826D01*
X114280230Y-112697410D01*
X114265814Y-112681504D01*
X114253026Y-112664261D01*
X114241990Y-112645848D01*
X114232811Y-112626442D01*
X114225579Y-112606230D01*
X114220363Y-112585406D01*
X114217213Y-112564171D01*
X114216160Y-112542730D01*
X114216160Y-112105230D01*
X114217213Y-112083789D01*
X114220363Y-112062554D01*
X114225579Y-112041730D01*
X114232811Y-112021518D01*
X114241990Y-112002112D01*
X114253026Y-111983699D01*
X114265814Y-111966456D01*
X114280230Y-111950550D01*
X114296136Y-111936134D01*
X114313379Y-111923346D01*
X114331792Y-111912310D01*
X114351198Y-111903131D01*
X114371410Y-111895899D01*
X114392234Y-111890683D01*
X114413469Y-111887533D01*
X114434910Y-111886480D01*
X114947410Y-111886480D01*
X114968851Y-111887533D01*
X114968851Y-111887533D01*
G37*
D11*
X114691160Y-112323980D03*
D10*
G36*
X114968851Y-110312533D02*
G01*
X114990086Y-110315683D01*
X115010910Y-110320899D01*
X115031122Y-110328131D01*
X115050528Y-110337310D01*
X115068941Y-110348346D01*
X115086184Y-110361134D01*
X115102090Y-110375550D01*
X115116506Y-110391456D01*
X115129294Y-110408699D01*
X115140330Y-110427112D01*
X115149509Y-110446518D01*
X115156741Y-110466730D01*
X115161957Y-110487554D01*
X115165107Y-110508789D01*
X115166160Y-110530230D01*
X115166160Y-110967730D01*
X115165107Y-110989171D01*
X115161957Y-111010406D01*
X115156741Y-111031230D01*
X115149509Y-111051442D01*
X115140330Y-111070848D01*
X115129294Y-111089261D01*
X115116506Y-111106504D01*
X115102090Y-111122410D01*
X115086184Y-111136826D01*
X115068941Y-111149614D01*
X115050528Y-111160650D01*
X115031122Y-111169829D01*
X115010910Y-111177061D01*
X114990086Y-111182277D01*
X114968851Y-111185427D01*
X114947410Y-111186480D01*
X114434910Y-111186480D01*
X114413469Y-111185427D01*
X114392234Y-111182277D01*
X114371410Y-111177061D01*
X114351198Y-111169829D01*
X114331792Y-111160650D01*
X114313379Y-111149614D01*
X114296136Y-111136826D01*
X114280230Y-111122410D01*
X114265814Y-111106504D01*
X114253026Y-111089261D01*
X114241990Y-111070848D01*
X114232811Y-111051442D01*
X114225579Y-111031230D01*
X114220363Y-111010406D01*
X114217213Y-110989171D01*
X114216160Y-110967730D01*
X114216160Y-110530230D01*
X114217213Y-110508789D01*
X114220363Y-110487554D01*
X114225579Y-110466730D01*
X114232811Y-110446518D01*
X114241990Y-110427112D01*
X114253026Y-110408699D01*
X114265814Y-110391456D01*
X114280230Y-110375550D01*
X114296136Y-110361134D01*
X114313379Y-110348346D01*
X114331792Y-110337310D01*
X114351198Y-110328131D01*
X114371410Y-110320899D01*
X114392234Y-110315683D01*
X114413469Y-110312533D01*
X114434910Y-110311480D01*
X114947410Y-110311480D01*
X114968851Y-110312533D01*
X114968851Y-110312533D01*
G37*
D11*
X114691160Y-110748980D03*
D10*
G36*
X117333591Y-125026953D02*
G01*
X117354826Y-125030103D01*
X117375650Y-125035319D01*
X117395862Y-125042551D01*
X117415268Y-125051730D01*
X117433681Y-125062766D01*
X117450924Y-125075554D01*
X117466830Y-125089970D01*
X117481246Y-125105876D01*
X117494034Y-125123119D01*
X117505070Y-125141532D01*
X117514249Y-125160938D01*
X117521481Y-125181150D01*
X117526697Y-125201974D01*
X117529847Y-125223209D01*
X117530900Y-125244650D01*
X117530900Y-125682150D01*
X117529847Y-125703591D01*
X117526697Y-125724826D01*
X117521481Y-125745650D01*
X117514249Y-125765862D01*
X117505070Y-125785268D01*
X117494034Y-125803681D01*
X117481246Y-125820924D01*
X117466830Y-125836830D01*
X117450924Y-125851246D01*
X117433681Y-125864034D01*
X117415268Y-125875070D01*
X117395862Y-125884249D01*
X117375650Y-125891481D01*
X117354826Y-125896697D01*
X117333591Y-125899847D01*
X117312150Y-125900900D01*
X116799650Y-125900900D01*
X116778209Y-125899847D01*
X116756974Y-125896697D01*
X116736150Y-125891481D01*
X116715938Y-125884249D01*
X116696532Y-125875070D01*
X116678119Y-125864034D01*
X116660876Y-125851246D01*
X116644970Y-125836830D01*
X116630554Y-125820924D01*
X116617766Y-125803681D01*
X116606730Y-125785268D01*
X116597551Y-125765862D01*
X116590319Y-125745650D01*
X116585103Y-125724826D01*
X116581953Y-125703591D01*
X116580900Y-125682150D01*
X116580900Y-125244650D01*
X116581953Y-125223209D01*
X116585103Y-125201974D01*
X116590319Y-125181150D01*
X116597551Y-125160938D01*
X116606730Y-125141532D01*
X116617766Y-125123119D01*
X116630554Y-125105876D01*
X116644970Y-125089970D01*
X116660876Y-125075554D01*
X116678119Y-125062766D01*
X116696532Y-125051730D01*
X116715938Y-125042551D01*
X116736150Y-125035319D01*
X116756974Y-125030103D01*
X116778209Y-125026953D01*
X116799650Y-125025900D01*
X117312150Y-125025900D01*
X117333591Y-125026953D01*
X117333591Y-125026953D01*
G37*
D11*
X117055900Y-125463400D03*
D10*
G36*
X117333591Y-123451953D02*
G01*
X117354826Y-123455103D01*
X117375650Y-123460319D01*
X117395862Y-123467551D01*
X117415268Y-123476730D01*
X117433681Y-123487766D01*
X117450924Y-123500554D01*
X117466830Y-123514970D01*
X117481246Y-123530876D01*
X117494034Y-123548119D01*
X117505070Y-123566532D01*
X117514249Y-123585938D01*
X117521481Y-123606150D01*
X117526697Y-123626974D01*
X117529847Y-123648209D01*
X117530900Y-123669650D01*
X117530900Y-124107150D01*
X117529847Y-124128591D01*
X117526697Y-124149826D01*
X117521481Y-124170650D01*
X117514249Y-124190862D01*
X117505070Y-124210268D01*
X117494034Y-124228681D01*
X117481246Y-124245924D01*
X117466830Y-124261830D01*
X117450924Y-124276246D01*
X117433681Y-124289034D01*
X117415268Y-124300070D01*
X117395862Y-124309249D01*
X117375650Y-124316481D01*
X117354826Y-124321697D01*
X117333591Y-124324847D01*
X117312150Y-124325900D01*
X116799650Y-124325900D01*
X116778209Y-124324847D01*
X116756974Y-124321697D01*
X116736150Y-124316481D01*
X116715938Y-124309249D01*
X116696532Y-124300070D01*
X116678119Y-124289034D01*
X116660876Y-124276246D01*
X116644970Y-124261830D01*
X116630554Y-124245924D01*
X116617766Y-124228681D01*
X116606730Y-124210268D01*
X116597551Y-124190862D01*
X116590319Y-124170650D01*
X116585103Y-124149826D01*
X116581953Y-124128591D01*
X116580900Y-124107150D01*
X116580900Y-123669650D01*
X116581953Y-123648209D01*
X116585103Y-123626974D01*
X116590319Y-123606150D01*
X116597551Y-123585938D01*
X116606730Y-123566532D01*
X116617766Y-123548119D01*
X116630554Y-123530876D01*
X116644970Y-123514970D01*
X116660876Y-123500554D01*
X116678119Y-123487766D01*
X116696532Y-123476730D01*
X116715938Y-123467551D01*
X116736150Y-123460319D01*
X116756974Y-123455103D01*
X116778209Y-123451953D01*
X116799650Y-123450900D01*
X117312150Y-123450900D01*
X117333591Y-123451953D01*
X117333591Y-123451953D01*
G37*
D11*
X117055900Y-123888400D03*
D10*
G36*
X119022691Y-126568533D02*
G01*
X119043926Y-126571683D01*
X119064750Y-126576899D01*
X119084962Y-126584131D01*
X119104368Y-126593310D01*
X119122781Y-126604346D01*
X119140024Y-126617134D01*
X119155930Y-126631550D01*
X119170346Y-126647456D01*
X119183134Y-126664699D01*
X119194170Y-126683112D01*
X119203349Y-126702518D01*
X119210581Y-126722730D01*
X119215797Y-126743554D01*
X119218947Y-126764789D01*
X119220000Y-126786230D01*
X119220000Y-127223730D01*
X119218947Y-127245171D01*
X119215797Y-127266406D01*
X119210581Y-127287230D01*
X119203349Y-127307442D01*
X119194170Y-127326848D01*
X119183134Y-127345261D01*
X119170346Y-127362504D01*
X119155930Y-127378410D01*
X119140024Y-127392826D01*
X119122781Y-127405614D01*
X119104368Y-127416650D01*
X119084962Y-127425829D01*
X119064750Y-127433061D01*
X119043926Y-127438277D01*
X119022691Y-127441427D01*
X119001250Y-127442480D01*
X118488750Y-127442480D01*
X118467309Y-127441427D01*
X118446074Y-127438277D01*
X118425250Y-127433061D01*
X118405038Y-127425829D01*
X118385632Y-127416650D01*
X118367219Y-127405614D01*
X118349976Y-127392826D01*
X118334070Y-127378410D01*
X118319654Y-127362504D01*
X118306866Y-127345261D01*
X118295830Y-127326848D01*
X118286651Y-127307442D01*
X118279419Y-127287230D01*
X118274203Y-127266406D01*
X118271053Y-127245171D01*
X118270000Y-127223730D01*
X118270000Y-126786230D01*
X118271053Y-126764789D01*
X118274203Y-126743554D01*
X118279419Y-126722730D01*
X118286651Y-126702518D01*
X118295830Y-126683112D01*
X118306866Y-126664699D01*
X118319654Y-126647456D01*
X118334070Y-126631550D01*
X118349976Y-126617134D01*
X118367219Y-126604346D01*
X118385632Y-126593310D01*
X118405038Y-126584131D01*
X118425250Y-126576899D01*
X118446074Y-126571683D01*
X118467309Y-126568533D01*
X118488750Y-126567480D01*
X119001250Y-126567480D01*
X119022691Y-126568533D01*
X119022691Y-126568533D01*
G37*
D11*
X118745000Y-127004980D03*
D10*
G36*
X119022691Y-128143533D02*
G01*
X119043926Y-128146683D01*
X119064750Y-128151899D01*
X119084962Y-128159131D01*
X119104368Y-128168310D01*
X119122781Y-128179346D01*
X119140024Y-128192134D01*
X119155930Y-128206550D01*
X119170346Y-128222456D01*
X119183134Y-128239699D01*
X119194170Y-128258112D01*
X119203349Y-128277518D01*
X119210581Y-128297730D01*
X119215797Y-128318554D01*
X119218947Y-128339789D01*
X119220000Y-128361230D01*
X119220000Y-128798730D01*
X119218947Y-128820171D01*
X119215797Y-128841406D01*
X119210581Y-128862230D01*
X119203349Y-128882442D01*
X119194170Y-128901848D01*
X119183134Y-128920261D01*
X119170346Y-128937504D01*
X119155930Y-128953410D01*
X119140024Y-128967826D01*
X119122781Y-128980614D01*
X119104368Y-128991650D01*
X119084962Y-129000829D01*
X119064750Y-129008061D01*
X119043926Y-129013277D01*
X119022691Y-129016427D01*
X119001250Y-129017480D01*
X118488750Y-129017480D01*
X118467309Y-129016427D01*
X118446074Y-129013277D01*
X118425250Y-129008061D01*
X118405038Y-129000829D01*
X118385632Y-128991650D01*
X118367219Y-128980614D01*
X118349976Y-128967826D01*
X118334070Y-128953410D01*
X118319654Y-128937504D01*
X118306866Y-128920261D01*
X118295830Y-128901848D01*
X118286651Y-128882442D01*
X118279419Y-128862230D01*
X118274203Y-128841406D01*
X118271053Y-128820171D01*
X118270000Y-128798730D01*
X118270000Y-128361230D01*
X118271053Y-128339789D01*
X118274203Y-128318554D01*
X118279419Y-128297730D01*
X118286651Y-128277518D01*
X118295830Y-128258112D01*
X118306866Y-128239699D01*
X118319654Y-128222456D01*
X118334070Y-128206550D01*
X118349976Y-128192134D01*
X118367219Y-128179346D01*
X118385632Y-128168310D01*
X118405038Y-128159131D01*
X118425250Y-128151899D01*
X118446074Y-128146683D01*
X118467309Y-128143533D01*
X118488750Y-128142480D01*
X119001250Y-128142480D01*
X119022691Y-128143533D01*
X119022691Y-128143533D01*
G37*
D11*
X118745000Y-128579980D03*
D10*
G36*
X134021391Y-109240853D02*
G01*
X134042626Y-109244003D01*
X134063450Y-109249219D01*
X134083662Y-109256451D01*
X134103068Y-109265630D01*
X134121481Y-109276666D01*
X134138724Y-109289454D01*
X134154630Y-109303870D01*
X134169046Y-109319776D01*
X134181834Y-109337019D01*
X134192870Y-109355432D01*
X134202049Y-109374838D01*
X134209281Y-109395050D01*
X134214497Y-109415874D01*
X134217647Y-109437109D01*
X134218700Y-109458550D01*
X134218700Y-109896050D01*
X134217647Y-109917491D01*
X134214497Y-109938726D01*
X134209281Y-109959550D01*
X134202049Y-109979762D01*
X134192870Y-109999168D01*
X134181834Y-110017581D01*
X134169046Y-110034824D01*
X134154630Y-110050730D01*
X134138724Y-110065146D01*
X134121481Y-110077934D01*
X134103068Y-110088970D01*
X134083662Y-110098149D01*
X134063450Y-110105381D01*
X134042626Y-110110597D01*
X134021391Y-110113747D01*
X133999950Y-110114800D01*
X133487450Y-110114800D01*
X133466009Y-110113747D01*
X133444774Y-110110597D01*
X133423950Y-110105381D01*
X133403738Y-110098149D01*
X133384332Y-110088970D01*
X133365919Y-110077934D01*
X133348676Y-110065146D01*
X133332770Y-110050730D01*
X133318354Y-110034824D01*
X133305566Y-110017581D01*
X133294530Y-109999168D01*
X133285351Y-109979762D01*
X133278119Y-109959550D01*
X133272903Y-109938726D01*
X133269753Y-109917491D01*
X133268700Y-109896050D01*
X133268700Y-109458550D01*
X133269753Y-109437109D01*
X133272903Y-109415874D01*
X133278119Y-109395050D01*
X133285351Y-109374838D01*
X133294530Y-109355432D01*
X133305566Y-109337019D01*
X133318354Y-109319776D01*
X133332770Y-109303870D01*
X133348676Y-109289454D01*
X133365919Y-109276666D01*
X133384332Y-109265630D01*
X133403738Y-109256451D01*
X133423950Y-109249219D01*
X133444774Y-109244003D01*
X133466009Y-109240853D01*
X133487450Y-109239800D01*
X133999950Y-109239800D01*
X134021391Y-109240853D01*
X134021391Y-109240853D01*
G37*
D11*
X133743700Y-109677300D03*
D10*
G36*
X134021391Y-107665853D02*
G01*
X134042626Y-107669003D01*
X134063450Y-107674219D01*
X134083662Y-107681451D01*
X134103068Y-107690630D01*
X134121481Y-107701666D01*
X134138724Y-107714454D01*
X134154630Y-107728870D01*
X134169046Y-107744776D01*
X134181834Y-107762019D01*
X134192870Y-107780432D01*
X134202049Y-107799838D01*
X134209281Y-107820050D01*
X134214497Y-107840874D01*
X134217647Y-107862109D01*
X134218700Y-107883550D01*
X134218700Y-108321050D01*
X134217647Y-108342491D01*
X134214497Y-108363726D01*
X134209281Y-108384550D01*
X134202049Y-108404762D01*
X134192870Y-108424168D01*
X134181834Y-108442581D01*
X134169046Y-108459824D01*
X134154630Y-108475730D01*
X134138724Y-108490146D01*
X134121481Y-108502934D01*
X134103068Y-108513970D01*
X134083662Y-108523149D01*
X134063450Y-108530381D01*
X134042626Y-108535597D01*
X134021391Y-108538747D01*
X133999950Y-108539800D01*
X133487450Y-108539800D01*
X133466009Y-108538747D01*
X133444774Y-108535597D01*
X133423950Y-108530381D01*
X133403738Y-108523149D01*
X133384332Y-108513970D01*
X133365919Y-108502934D01*
X133348676Y-108490146D01*
X133332770Y-108475730D01*
X133318354Y-108459824D01*
X133305566Y-108442581D01*
X133294530Y-108424168D01*
X133285351Y-108404762D01*
X133278119Y-108384550D01*
X133272903Y-108363726D01*
X133269753Y-108342491D01*
X133268700Y-108321050D01*
X133268700Y-107883550D01*
X133269753Y-107862109D01*
X133272903Y-107840874D01*
X133278119Y-107820050D01*
X133285351Y-107799838D01*
X133294530Y-107780432D01*
X133305566Y-107762019D01*
X133318354Y-107744776D01*
X133332770Y-107728870D01*
X133348676Y-107714454D01*
X133365919Y-107701666D01*
X133384332Y-107690630D01*
X133403738Y-107681451D01*
X133423950Y-107674219D01*
X133444774Y-107669003D01*
X133466009Y-107665853D01*
X133487450Y-107664800D01*
X133999950Y-107664800D01*
X134021391Y-107665853D01*
X134021391Y-107665853D01*
G37*
D11*
X133743700Y-108102300D03*
D10*
G36*
X116351111Y-119975393D02*
G01*
X116372346Y-119978543D01*
X116393170Y-119983759D01*
X116413382Y-119990991D01*
X116432788Y-120000170D01*
X116451201Y-120011206D01*
X116468444Y-120023994D01*
X116484350Y-120038410D01*
X116498766Y-120054316D01*
X116511554Y-120071559D01*
X116522590Y-120089972D01*
X116531769Y-120109378D01*
X116539001Y-120129590D01*
X116544217Y-120150414D01*
X116547367Y-120171649D01*
X116548420Y-120193090D01*
X116548420Y-120705590D01*
X116547367Y-120727031D01*
X116544217Y-120748266D01*
X116539001Y-120769090D01*
X116531769Y-120789302D01*
X116522590Y-120808708D01*
X116511554Y-120827121D01*
X116498766Y-120844364D01*
X116484350Y-120860270D01*
X116468444Y-120874686D01*
X116451201Y-120887474D01*
X116432788Y-120898510D01*
X116413382Y-120907689D01*
X116393170Y-120914921D01*
X116372346Y-120920137D01*
X116351111Y-120923287D01*
X116329670Y-120924340D01*
X115892170Y-120924340D01*
X115870729Y-120923287D01*
X115849494Y-120920137D01*
X115828670Y-120914921D01*
X115808458Y-120907689D01*
X115789052Y-120898510D01*
X115770639Y-120887474D01*
X115753396Y-120874686D01*
X115737490Y-120860270D01*
X115723074Y-120844364D01*
X115710286Y-120827121D01*
X115699250Y-120808708D01*
X115690071Y-120789302D01*
X115682839Y-120769090D01*
X115677623Y-120748266D01*
X115674473Y-120727031D01*
X115673420Y-120705590D01*
X115673420Y-120193090D01*
X115674473Y-120171649D01*
X115677623Y-120150414D01*
X115682839Y-120129590D01*
X115690071Y-120109378D01*
X115699250Y-120089972D01*
X115710286Y-120071559D01*
X115723074Y-120054316D01*
X115737490Y-120038410D01*
X115753396Y-120023994D01*
X115770639Y-120011206D01*
X115789052Y-120000170D01*
X115808458Y-119990991D01*
X115828670Y-119983759D01*
X115849494Y-119978543D01*
X115870729Y-119975393D01*
X115892170Y-119974340D01*
X116329670Y-119974340D01*
X116351111Y-119975393D01*
X116351111Y-119975393D01*
G37*
D11*
X116110920Y-120449340D03*
D10*
G36*
X117926111Y-119975393D02*
G01*
X117947346Y-119978543D01*
X117968170Y-119983759D01*
X117988382Y-119990991D01*
X118007788Y-120000170D01*
X118026201Y-120011206D01*
X118043444Y-120023994D01*
X118059350Y-120038410D01*
X118073766Y-120054316D01*
X118086554Y-120071559D01*
X118097590Y-120089972D01*
X118106769Y-120109378D01*
X118114001Y-120129590D01*
X118119217Y-120150414D01*
X118122367Y-120171649D01*
X118123420Y-120193090D01*
X118123420Y-120705590D01*
X118122367Y-120727031D01*
X118119217Y-120748266D01*
X118114001Y-120769090D01*
X118106769Y-120789302D01*
X118097590Y-120808708D01*
X118086554Y-120827121D01*
X118073766Y-120844364D01*
X118059350Y-120860270D01*
X118043444Y-120874686D01*
X118026201Y-120887474D01*
X118007788Y-120898510D01*
X117988382Y-120907689D01*
X117968170Y-120914921D01*
X117947346Y-120920137D01*
X117926111Y-120923287D01*
X117904670Y-120924340D01*
X117467170Y-120924340D01*
X117445729Y-120923287D01*
X117424494Y-120920137D01*
X117403670Y-120914921D01*
X117383458Y-120907689D01*
X117364052Y-120898510D01*
X117345639Y-120887474D01*
X117328396Y-120874686D01*
X117312490Y-120860270D01*
X117298074Y-120844364D01*
X117285286Y-120827121D01*
X117274250Y-120808708D01*
X117265071Y-120789302D01*
X117257839Y-120769090D01*
X117252623Y-120748266D01*
X117249473Y-120727031D01*
X117248420Y-120705590D01*
X117248420Y-120193090D01*
X117249473Y-120171649D01*
X117252623Y-120150414D01*
X117257839Y-120129590D01*
X117265071Y-120109378D01*
X117274250Y-120089972D01*
X117285286Y-120071559D01*
X117298074Y-120054316D01*
X117312490Y-120038410D01*
X117328396Y-120023994D01*
X117345639Y-120011206D01*
X117364052Y-120000170D01*
X117383458Y-119990991D01*
X117403670Y-119983759D01*
X117424494Y-119978543D01*
X117445729Y-119975393D01*
X117467170Y-119974340D01*
X117904670Y-119974340D01*
X117926111Y-119975393D01*
X117926111Y-119975393D01*
G37*
D11*
X117685920Y-120449340D03*
D10*
G36*
X117371691Y-126568533D02*
G01*
X117392926Y-126571683D01*
X117413750Y-126576899D01*
X117433962Y-126584131D01*
X117453368Y-126593310D01*
X117471781Y-126604346D01*
X117489024Y-126617134D01*
X117504930Y-126631550D01*
X117519346Y-126647456D01*
X117532134Y-126664699D01*
X117543170Y-126683112D01*
X117552349Y-126702518D01*
X117559581Y-126722730D01*
X117564797Y-126743554D01*
X117567947Y-126764789D01*
X117569000Y-126786230D01*
X117569000Y-127223730D01*
X117567947Y-127245171D01*
X117564797Y-127266406D01*
X117559581Y-127287230D01*
X117552349Y-127307442D01*
X117543170Y-127326848D01*
X117532134Y-127345261D01*
X117519346Y-127362504D01*
X117504930Y-127378410D01*
X117489024Y-127392826D01*
X117471781Y-127405614D01*
X117453368Y-127416650D01*
X117433962Y-127425829D01*
X117413750Y-127433061D01*
X117392926Y-127438277D01*
X117371691Y-127441427D01*
X117350250Y-127442480D01*
X116837750Y-127442480D01*
X116816309Y-127441427D01*
X116795074Y-127438277D01*
X116774250Y-127433061D01*
X116754038Y-127425829D01*
X116734632Y-127416650D01*
X116716219Y-127405614D01*
X116698976Y-127392826D01*
X116683070Y-127378410D01*
X116668654Y-127362504D01*
X116655866Y-127345261D01*
X116644830Y-127326848D01*
X116635651Y-127307442D01*
X116628419Y-127287230D01*
X116623203Y-127266406D01*
X116620053Y-127245171D01*
X116619000Y-127223730D01*
X116619000Y-126786230D01*
X116620053Y-126764789D01*
X116623203Y-126743554D01*
X116628419Y-126722730D01*
X116635651Y-126702518D01*
X116644830Y-126683112D01*
X116655866Y-126664699D01*
X116668654Y-126647456D01*
X116683070Y-126631550D01*
X116698976Y-126617134D01*
X116716219Y-126604346D01*
X116734632Y-126593310D01*
X116754038Y-126584131D01*
X116774250Y-126576899D01*
X116795074Y-126571683D01*
X116816309Y-126568533D01*
X116837750Y-126567480D01*
X117350250Y-126567480D01*
X117371691Y-126568533D01*
X117371691Y-126568533D01*
G37*
D11*
X117094000Y-127004980D03*
D10*
G36*
X117371691Y-128143533D02*
G01*
X117392926Y-128146683D01*
X117413750Y-128151899D01*
X117433962Y-128159131D01*
X117453368Y-128168310D01*
X117471781Y-128179346D01*
X117489024Y-128192134D01*
X117504930Y-128206550D01*
X117519346Y-128222456D01*
X117532134Y-128239699D01*
X117543170Y-128258112D01*
X117552349Y-128277518D01*
X117559581Y-128297730D01*
X117564797Y-128318554D01*
X117567947Y-128339789D01*
X117569000Y-128361230D01*
X117569000Y-128798730D01*
X117567947Y-128820171D01*
X117564797Y-128841406D01*
X117559581Y-128862230D01*
X117552349Y-128882442D01*
X117543170Y-128901848D01*
X117532134Y-128920261D01*
X117519346Y-128937504D01*
X117504930Y-128953410D01*
X117489024Y-128967826D01*
X117471781Y-128980614D01*
X117453368Y-128991650D01*
X117433962Y-129000829D01*
X117413750Y-129008061D01*
X117392926Y-129013277D01*
X117371691Y-129016427D01*
X117350250Y-129017480D01*
X116837750Y-129017480D01*
X116816309Y-129016427D01*
X116795074Y-129013277D01*
X116774250Y-129008061D01*
X116754038Y-129000829D01*
X116734632Y-128991650D01*
X116716219Y-128980614D01*
X116698976Y-128967826D01*
X116683070Y-128953410D01*
X116668654Y-128937504D01*
X116655866Y-128920261D01*
X116644830Y-128901848D01*
X116635651Y-128882442D01*
X116628419Y-128862230D01*
X116623203Y-128841406D01*
X116620053Y-128820171D01*
X116619000Y-128798730D01*
X116619000Y-128361230D01*
X116620053Y-128339789D01*
X116623203Y-128318554D01*
X116628419Y-128297730D01*
X116635651Y-128277518D01*
X116644830Y-128258112D01*
X116655866Y-128239699D01*
X116668654Y-128222456D01*
X116683070Y-128206550D01*
X116698976Y-128192134D01*
X116716219Y-128179346D01*
X116734632Y-128168310D01*
X116754038Y-128159131D01*
X116774250Y-128151899D01*
X116795074Y-128146683D01*
X116816309Y-128143533D01*
X116837750Y-128142480D01*
X117350250Y-128142480D01*
X117371691Y-128143533D01*
X117371691Y-128143533D01*
G37*
D11*
X117094000Y-128579980D03*
D10*
G36*
X113765391Y-131098053D02*
G01*
X113786626Y-131101203D01*
X113807450Y-131106419D01*
X113827662Y-131113651D01*
X113847068Y-131122830D01*
X113865481Y-131133866D01*
X113882724Y-131146654D01*
X113898630Y-131161070D01*
X113913046Y-131176976D01*
X113925834Y-131194219D01*
X113936870Y-131212632D01*
X113946049Y-131232038D01*
X113953281Y-131252250D01*
X113958497Y-131273074D01*
X113961647Y-131294309D01*
X113962700Y-131315750D01*
X113962700Y-131828250D01*
X113961647Y-131849691D01*
X113958497Y-131870926D01*
X113953281Y-131891750D01*
X113946049Y-131911962D01*
X113936870Y-131931368D01*
X113925834Y-131949781D01*
X113913046Y-131967024D01*
X113898630Y-131982930D01*
X113882724Y-131997346D01*
X113865481Y-132010134D01*
X113847068Y-132021170D01*
X113827662Y-132030349D01*
X113807450Y-132037581D01*
X113786626Y-132042797D01*
X113765391Y-132045947D01*
X113743950Y-132047000D01*
X113306450Y-132047000D01*
X113285009Y-132045947D01*
X113263774Y-132042797D01*
X113242950Y-132037581D01*
X113222738Y-132030349D01*
X113203332Y-132021170D01*
X113184919Y-132010134D01*
X113167676Y-131997346D01*
X113151770Y-131982930D01*
X113137354Y-131967024D01*
X113124566Y-131949781D01*
X113113530Y-131931368D01*
X113104351Y-131911962D01*
X113097119Y-131891750D01*
X113091903Y-131870926D01*
X113088753Y-131849691D01*
X113087700Y-131828250D01*
X113087700Y-131315750D01*
X113088753Y-131294309D01*
X113091903Y-131273074D01*
X113097119Y-131252250D01*
X113104351Y-131232038D01*
X113113530Y-131212632D01*
X113124566Y-131194219D01*
X113137354Y-131176976D01*
X113151770Y-131161070D01*
X113167676Y-131146654D01*
X113184919Y-131133866D01*
X113203332Y-131122830D01*
X113222738Y-131113651D01*
X113242950Y-131106419D01*
X113263774Y-131101203D01*
X113285009Y-131098053D01*
X113306450Y-131097000D01*
X113743950Y-131097000D01*
X113765391Y-131098053D01*
X113765391Y-131098053D01*
G37*
D11*
X113525200Y-131572000D03*
D10*
G36*
X115340391Y-131098053D02*
G01*
X115361626Y-131101203D01*
X115382450Y-131106419D01*
X115402662Y-131113651D01*
X115422068Y-131122830D01*
X115440481Y-131133866D01*
X115457724Y-131146654D01*
X115473630Y-131161070D01*
X115488046Y-131176976D01*
X115500834Y-131194219D01*
X115511870Y-131212632D01*
X115521049Y-131232038D01*
X115528281Y-131252250D01*
X115533497Y-131273074D01*
X115536647Y-131294309D01*
X115537700Y-131315750D01*
X115537700Y-131828250D01*
X115536647Y-131849691D01*
X115533497Y-131870926D01*
X115528281Y-131891750D01*
X115521049Y-131911962D01*
X115511870Y-131931368D01*
X115500834Y-131949781D01*
X115488046Y-131967024D01*
X115473630Y-131982930D01*
X115457724Y-131997346D01*
X115440481Y-132010134D01*
X115422068Y-132021170D01*
X115402662Y-132030349D01*
X115382450Y-132037581D01*
X115361626Y-132042797D01*
X115340391Y-132045947D01*
X115318950Y-132047000D01*
X114881450Y-132047000D01*
X114860009Y-132045947D01*
X114838774Y-132042797D01*
X114817950Y-132037581D01*
X114797738Y-132030349D01*
X114778332Y-132021170D01*
X114759919Y-132010134D01*
X114742676Y-131997346D01*
X114726770Y-131982930D01*
X114712354Y-131967024D01*
X114699566Y-131949781D01*
X114688530Y-131931368D01*
X114679351Y-131911962D01*
X114672119Y-131891750D01*
X114666903Y-131870926D01*
X114663753Y-131849691D01*
X114662700Y-131828250D01*
X114662700Y-131315750D01*
X114663753Y-131294309D01*
X114666903Y-131273074D01*
X114672119Y-131252250D01*
X114679351Y-131232038D01*
X114688530Y-131212632D01*
X114699566Y-131194219D01*
X114712354Y-131176976D01*
X114726770Y-131161070D01*
X114742676Y-131146654D01*
X114759919Y-131133866D01*
X114778332Y-131122830D01*
X114797738Y-131113651D01*
X114817950Y-131106419D01*
X114838774Y-131101203D01*
X114860009Y-131098053D01*
X114881450Y-131097000D01*
X115318950Y-131097000D01*
X115340391Y-131098053D01*
X115340391Y-131098053D01*
G37*
D11*
X115100200Y-131572000D03*
D10*
G36*
X133970591Y-112580953D02*
G01*
X133991826Y-112584103D01*
X134012650Y-112589319D01*
X134032862Y-112596551D01*
X134052268Y-112605730D01*
X134070681Y-112616766D01*
X134087924Y-112629554D01*
X134103830Y-112643970D01*
X134118246Y-112659876D01*
X134131034Y-112677119D01*
X134142070Y-112695532D01*
X134151249Y-112714938D01*
X134158481Y-112735150D01*
X134163697Y-112755974D01*
X134166847Y-112777209D01*
X134167900Y-112798650D01*
X134167900Y-113236150D01*
X134166847Y-113257591D01*
X134163697Y-113278826D01*
X134158481Y-113299650D01*
X134151249Y-113319862D01*
X134142070Y-113339268D01*
X134131034Y-113357681D01*
X134118246Y-113374924D01*
X134103830Y-113390830D01*
X134087924Y-113405246D01*
X134070681Y-113418034D01*
X134052268Y-113429070D01*
X134032862Y-113438249D01*
X134012650Y-113445481D01*
X133991826Y-113450697D01*
X133970591Y-113453847D01*
X133949150Y-113454900D01*
X133436650Y-113454900D01*
X133415209Y-113453847D01*
X133393974Y-113450697D01*
X133373150Y-113445481D01*
X133352938Y-113438249D01*
X133333532Y-113429070D01*
X133315119Y-113418034D01*
X133297876Y-113405246D01*
X133281970Y-113390830D01*
X133267554Y-113374924D01*
X133254766Y-113357681D01*
X133243730Y-113339268D01*
X133234551Y-113319862D01*
X133227319Y-113299650D01*
X133222103Y-113278826D01*
X133218953Y-113257591D01*
X133217900Y-113236150D01*
X133217900Y-112798650D01*
X133218953Y-112777209D01*
X133222103Y-112755974D01*
X133227319Y-112735150D01*
X133234551Y-112714938D01*
X133243730Y-112695532D01*
X133254766Y-112677119D01*
X133267554Y-112659876D01*
X133281970Y-112643970D01*
X133297876Y-112629554D01*
X133315119Y-112616766D01*
X133333532Y-112605730D01*
X133352938Y-112596551D01*
X133373150Y-112589319D01*
X133393974Y-112584103D01*
X133415209Y-112580953D01*
X133436650Y-112579900D01*
X133949150Y-112579900D01*
X133970591Y-112580953D01*
X133970591Y-112580953D01*
G37*
D11*
X133692900Y-113017400D03*
D10*
G36*
X133970591Y-111005953D02*
G01*
X133991826Y-111009103D01*
X134012650Y-111014319D01*
X134032862Y-111021551D01*
X134052268Y-111030730D01*
X134070681Y-111041766D01*
X134087924Y-111054554D01*
X134103830Y-111068970D01*
X134118246Y-111084876D01*
X134131034Y-111102119D01*
X134142070Y-111120532D01*
X134151249Y-111139938D01*
X134158481Y-111160150D01*
X134163697Y-111180974D01*
X134166847Y-111202209D01*
X134167900Y-111223650D01*
X134167900Y-111661150D01*
X134166847Y-111682591D01*
X134163697Y-111703826D01*
X134158481Y-111724650D01*
X134151249Y-111744862D01*
X134142070Y-111764268D01*
X134131034Y-111782681D01*
X134118246Y-111799924D01*
X134103830Y-111815830D01*
X134087924Y-111830246D01*
X134070681Y-111843034D01*
X134052268Y-111854070D01*
X134032862Y-111863249D01*
X134012650Y-111870481D01*
X133991826Y-111875697D01*
X133970591Y-111878847D01*
X133949150Y-111879900D01*
X133436650Y-111879900D01*
X133415209Y-111878847D01*
X133393974Y-111875697D01*
X133373150Y-111870481D01*
X133352938Y-111863249D01*
X133333532Y-111854070D01*
X133315119Y-111843034D01*
X133297876Y-111830246D01*
X133281970Y-111815830D01*
X133267554Y-111799924D01*
X133254766Y-111782681D01*
X133243730Y-111764268D01*
X133234551Y-111744862D01*
X133227319Y-111724650D01*
X133222103Y-111703826D01*
X133218953Y-111682591D01*
X133217900Y-111661150D01*
X133217900Y-111223650D01*
X133218953Y-111202209D01*
X133222103Y-111180974D01*
X133227319Y-111160150D01*
X133234551Y-111139938D01*
X133243730Y-111120532D01*
X133254766Y-111102119D01*
X133267554Y-111084876D01*
X133281970Y-111068970D01*
X133297876Y-111054554D01*
X133315119Y-111041766D01*
X133333532Y-111030730D01*
X133352938Y-111021551D01*
X133373150Y-111014319D01*
X133393974Y-111009103D01*
X133415209Y-111005953D01*
X133436650Y-111004900D01*
X133949150Y-111004900D01*
X133970591Y-111005953D01*
X133970591Y-111005953D01*
G37*
D11*
X133692900Y-111442400D03*
D18*
X111310120Y-110985300D03*
X102700120Y-103365300D03*
X111310120Y-108445300D03*
X102700120Y-105905300D03*
X111310120Y-105905300D03*
X102700120Y-108445300D03*
X111310120Y-103365300D03*
X102700120Y-110985300D03*
D19*
X103614200Y-118882600D03*
X103614200Y-121882600D03*
X103614200Y-123382600D03*
D20*
X100754200Y-117482600D03*
X100754200Y-124782600D03*
X102964200Y-124782600D03*
X102964200Y-117482600D03*
D21*
X122447400Y-124760300D03*
X123247400Y-124760300D03*
X124047400Y-124760300D03*
X124847400Y-124760300D03*
X125647400Y-124760300D03*
X126447400Y-124760300D03*
X127247400Y-124760300D03*
X128047400Y-124760300D03*
D22*
X129497400Y-123310300D03*
X129497400Y-122510300D03*
X129497400Y-121710300D03*
X129497400Y-120910300D03*
X129497400Y-120110300D03*
X129497400Y-119310300D03*
X129497400Y-118510300D03*
X129497400Y-117710300D03*
D21*
X128047400Y-116260300D03*
X127247400Y-116260300D03*
X126447400Y-116260300D03*
X125647400Y-116260300D03*
X124847400Y-116260300D03*
X124047400Y-116260300D03*
X123247400Y-116260300D03*
X122447400Y-116260300D03*
D22*
X120997400Y-117710300D03*
X120997400Y-118510300D03*
X120997400Y-119310300D03*
X120997400Y-120110300D03*
X120997400Y-120910300D03*
X120997400Y-121710300D03*
X120997400Y-122510300D03*
X120997400Y-123310300D03*
D23*
X106514500Y-117932200D03*
D24*
X112814500Y-117932200D03*
X112814500Y-115632200D03*
X112814500Y-120232200D03*
D25*
X127233600Y-131286900D03*
X131033600Y-131286900D03*
X131033600Y-128986900D03*
X127233600Y-128986900D03*
M02*
