G04 #@! TF.GenerationSoftware,KiCad,Pcbnew,(5.1.0-0)*
G04 #@! TF.CreationDate,2020-05-26T23:43:54-04:00*
G04 #@! TF.ProjectId,ROCKETasp_v3,524f434b-4554-4617-9370-5f76332e6b69,3.0*
G04 #@! TF.SameCoordinates,Original*
G04 #@! TF.FileFunction,Copper,L2,Bot*
G04 #@! TF.FilePolarity,Positive*
%FSLAX46Y46*%
G04 Gerber Fmt 4.6, Leading zero omitted, Abs format (unit mm)*
G04 Created by KiCad (PCBNEW (5.1.0-0)) date 2020-05-26 23:43:54*
%MOMM*%
%LPD*%
G04 APERTURE LIST*
%ADD10C,0.300000*%
%ADD11C,1.450000*%
%ADD12O,1.200000X1.900000*%
%ADD13O,1.727200X1.727200*%
%ADD14R,1.727200X1.727200*%
%ADD15R,1.700000X1.700000*%
%ADD16O,1.700000X1.700000*%
%ADD17C,0.635000*%
%ADD18C,0.457200*%
%ADD19C,0.203200*%
G04 APERTURE END LIST*
D10*
X141998105Y-129917451D02*
X141855248Y-129917451D01*
X141712391Y-129988880D01*
X141640962Y-130060308D01*
X141569534Y-130203165D01*
X141498105Y-130488880D01*
X141498105Y-130846022D01*
X141569534Y-131131737D01*
X141640962Y-131274594D01*
X141712391Y-131346022D01*
X141855248Y-131417451D01*
X141998105Y-131417451D01*
X142140962Y-131346022D01*
X142212391Y-131274594D01*
X142283820Y-131131737D01*
X142355248Y-130846022D01*
X142355248Y-130488880D01*
X142283820Y-130203165D01*
X142212391Y-130060308D01*
X142140962Y-129988880D01*
X141998105Y-129917451D01*
X140140962Y-129917451D02*
X140855248Y-129917451D01*
X140926677Y-130631737D01*
X140855248Y-130560308D01*
X140712391Y-130488880D01*
X140355248Y-130488880D01*
X140212391Y-130560308D01*
X140140962Y-130631737D01*
X140069534Y-130774594D01*
X140069534Y-131131737D01*
X140140962Y-131274594D01*
X140212391Y-131346022D01*
X140355248Y-131417451D01*
X140712391Y-131417451D01*
X140855248Y-131346022D01*
X140926677Y-131274594D01*
X138640962Y-131417451D02*
X139498105Y-131417451D01*
X139069534Y-131417451D02*
X139069534Y-129917451D01*
X139212391Y-130131737D01*
X139355248Y-130274594D01*
X139498105Y-130346022D01*
X137926677Y-131417451D02*
X137640962Y-131417451D01*
X137498105Y-131346022D01*
X137426677Y-131274594D01*
X137283820Y-131060308D01*
X137212391Y-130774594D01*
X137212391Y-130203165D01*
X137283820Y-130060308D01*
X137355248Y-129988880D01*
X137498105Y-129917451D01*
X137783820Y-129917451D01*
X137926677Y-129988880D01*
X137998105Y-130060308D01*
X138069534Y-130203165D01*
X138069534Y-130560308D01*
X137998105Y-130703165D01*
X137926677Y-130774594D01*
X137783820Y-130846022D01*
X137498105Y-130846022D01*
X137355248Y-130774594D01*
X137283820Y-130703165D01*
X137212391Y-130560308D01*
D11*
X105361100Y-128864900D03*
X110361100Y-128864900D03*
D12*
X104361100Y-131564900D03*
X111361100Y-131564900D03*
D13*
X141020800Y-127228600D03*
X138480800Y-127228600D03*
X141020800Y-124688600D03*
X138480800Y-124688600D03*
X141020800Y-122148600D03*
D14*
X138480800Y-122148600D03*
X138480800Y-105816400D03*
D13*
X141020800Y-105816400D03*
X138480800Y-108356400D03*
X141020800Y-108356400D03*
X138480800Y-110896400D03*
X141020800Y-110896400D03*
D15*
X122923300Y-106349800D03*
D16*
X122923300Y-108889800D03*
X125463300Y-106349800D03*
X125463300Y-108889800D03*
X128003300Y-106349800D03*
X128003300Y-108889800D03*
X130543300Y-106349800D03*
X130543300Y-108889800D03*
D15*
X117909340Y-102519480D03*
D16*
X120449340Y-102519480D03*
X122989340Y-102519480D03*
X125529340Y-102519480D03*
X128069340Y-102519480D03*
X130609340Y-102519480D03*
D15*
X137210800Y-95846900D03*
D16*
X137210800Y-93306900D03*
X139750800Y-95846900D03*
X139750800Y-93306900D03*
X142290800Y-95846900D03*
X142290800Y-93306900D03*
D17*
X109540040Y-127205740D03*
X110385860Y-127205740D03*
X111201200Y-127187960D03*
X109653500Y-123393200D03*
X101968300Y-113845340D03*
X126784100Y-127068580D03*
X124716640Y-112077400D03*
X134627620Y-130959860D03*
X134896860Y-120296940D03*
X133596380Y-104437180D03*
X102699820Y-102135940D03*
X102699820Y-107200700D03*
X119283480Y-115277900D03*
X121417080Y-114211100D03*
X131632960Y-116055140D03*
X130558540Y-114261900D03*
X106484420Y-109700060D03*
X110238540Y-113916460D03*
X105763060Y-111973360D03*
X115417600Y-103230680D03*
X139672060Y-103012240D03*
X116131340Y-119225060D03*
X104627680Y-120365520D03*
X123845220Y-128546960D03*
X116100860Y-121643140D03*
X118493540Y-113827560D03*
X116697760Y-113418620D03*
X109174280Y-105890060D03*
X106423460Y-108018580D03*
X108605320Y-117932200D03*
X108638340Y-115778280D03*
X108638340Y-113847880D03*
X103598980Y-126367540D03*
X103598980Y-120332500D03*
X120187720Y-106992420D03*
X124703840Y-120952260D03*
X107876340Y-129987040D03*
X112303560Y-125442980D03*
X104132380Y-112135920D03*
X130870960Y-126217680D03*
X132323840Y-111460280D03*
X129451100Y-116679980D03*
X122781060Y-118346220D03*
X123238260Y-117574060D03*
X123238260Y-111185960D03*
X125176280Y-117708680D03*
X123891040Y-119471440D03*
X126451360Y-114736880D03*
X129108200Y-111620300D03*
X126545340Y-122676920D03*
X124188220Y-117858540D03*
X125742700Y-110784640D03*
X127977900Y-122504200D03*
X118557040Y-121691400D03*
X117962680Y-122506740D03*
X127370840Y-120995440D03*
X109153960Y-108485940D03*
X118963440Y-116423440D03*
X111297720Y-102174040D03*
X127878840Y-120116600D03*
D18*
X109540040Y-127205740D02*
X110385860Y-127205740D01*
X142290800Y-93306900D02*
X142646400Y-93306900D01*
X142646400Y-93306900D02*
X143652240Y-94312740D01*
X143652240Y-94312740D02*
X143652240Y-100853240D01*
X105768140Y-119225060D02*
X116131340Y-119225060D01*
X104627680Y-120365520D02*
X105768140Y-119225060D01*
X123845220Y-128546960D02*
X121180960Y-128546960D01*
X116100860Y-123466860D02*
X116100860Y-121643140D01*
X121180960Y-128546960D02*
X116100860Y-123466860D01*
X118084600Y-113418620D02*
X116697760Y-113418620D01*
X118493540Y-113827560D02*
X118084600Y-113418620D01*
X116697760Y-113418620D02*
X114495580Y-111216440D01*
X114495580Y-111216440D02*
X114495580Y-107401360D01*
X114495580Y-107401360D02*
X112984280Y-105890060D01*
X112984280Y-105890060D02*
X109174280Y-105890060D01*
X104627680Y-116959380D02*
X104627680Y-120365520D01*
X102887780Y-115219480D02*
X104627680Y-116959380D01*
X102887780Y-109151420D02*
X102887780Y-115219480D01*
X104020620Y-108018580D02*
X102887780Y-109151420D01*
X106423460Y-108018580D02*
X104020620Y-108018580D01*
X108638340Y-115778280D02*
X108638340Y-113847880D01*
X103598980Y-126367540D02*
X103598980Y-120332500D01*
X120411240Y-107215940D02*
X120187720Y-106992420D01*
X120411240Y-119707660D02*
X120411240Y-107215940D01*
X122394980Y-121691400D02*
X120411240Y-119707660D01*
X123964700Y-121691400D02*
X122394980Y-121691400D01*
X124703840Y-120952260D02*
X123964700Y-121691400D01*
X107876340Y-129987040D02*
X107876340Y-127408940D01*
X109842300Y-125442980D02*
X112303560Y-125442980D01*
X107876340Y-127408940D02*
X109842300Y-125442980D01*
X110921800Y-112745520D02*
X104741980Y-112745520D01*
X116908580Y-118732300D02*
X110921800Y-112745520D01*
X121455180Y-127795020D02*
X116908580Y-123248420D01*
X104741980Y-112745520D02*
X104132380Y-112135920D01*
X130870960Y-126217680D02*
X129293620Y-127795020D01*
X129293620Y-127795020D02*
X121455180Y-127795020D01*
X116908580Y-123248420D02*
X116908580Y-118732300D01*
X132323840Y-111460280D02*
X132323840Y-113380520D01*
X138480800Y-119537480D02*
X138480800Y-122148600D01*
X132323840Y-113380520D02*
X138480800Y-119537480D01*
X132323840Y-113784380D02*
X132323840Y-111460280D01*
X129451100Y-116657120D02*
X132323840Y-113784380D01*
X129451100Y-116679980D02*
X129451100Y-116657120D01*
X121257060Y-108016040D02*
X122923300Y-106349800D01*
X121257060Y-110947200D02*
X121257060Y-108016040D01*
X122438160Y-112128300D02*
X121257060Y-110947200D01*
X122438160Y-118003320D02*
X122438160Y-112128300D01*
X122781060Y-118346220D02*
X122438160Y-118003320D01*
X123238260Y-117574060D02*
X123238260Y-114962940D01*
X123238260Y-114962940D02*
X123238260Y-111185960D01*
X126685040Y-107571540D02*
X125463300Y-106349800D01*
X126685040Y-111503460D02*
X126685040Y-107571540D01*
X125176280Y-113012220D02*
X126685040Y-111503460D01*
X125176280Y-117708680D02*
X125176280Y-113012220D01*
X125176280Y-118186200D02*
X125176280Y-117708680D01*
X123891040Y-119471440D02*
X125176280Y-118186200D01*
X129260600Y-107607100D02*
X128003300Y-106349800D01*
X129260600Y-110190280D02*
X129260600Y-107607100D01*
X126451360Y-112999520D02*
X129260600Y-110190280D01*
X126451360Y-114736880D02*
X126451360Y-112999520D01*
X125442980Y-119334280D02*
X127228600Y-117548660D01*
X125442980Y-121574560D02*
X125442980Y-119334280D01*
X127228600Y-113499900D02*
X129108200Y-111620300D01*
X127228600Y-117548660D02*
X127228600Y-113499900D01*
X126545340Y-122676920D02*
X125442980Y-121574560D01*
X124188220Y-117858540D02*
X123997720Y-117668040D01*
X123997720Y-117668040D02*
X123997720Y-111379000D01*
X124592080Y-110784640D02*
X125742700Y-110784640D01*
X123997720Y-111379000D02*
X124592080Y-110784640D01*
X127977900Y-114076480D02*
X130543300Y-111511080D01*
X130543300Y-111511080D02*
X130543300Y-108889800D01*
X126121160Y-119702580D02*
X127977900Y-117845840D01*
X127977900Y-117845840D02*
X127977900Y-114076480D01*
X126121160Y-121003060D02*
X126121160Y-119702580D01*
X127622300Y-122504200D02*
X126121160Y-121003060D01*
X127977900Y-122504200D02*
X127622300Y-122504200D01*
X121419620Y-104089200D02*
X122989340Y-102519480D01*
X109537500Y-104089200D02*
X121419620Y-104089200D01*
X108407200Y-105219500D02*
X109537500Y-104089200D01*
X109926120Y-109410500D02*
X108709460Y-109410500D01*
X118557040Y-118041420D02*
X109926120Y-109410500D01*
X108407200Y-109108240D02*
X108407200Y-105219500D01*
X108709460Y-109410500D02*
X108407200Y-109108240D01*
X118557040Y-121691400D02*
X118557040Y-118041420D01*
X123649740Y-100639880D02*
X125529340Y-102519480D01*
X116662200Y-100639880D02*
X123649740Y-100639880D01*
X114136170Y-103165910D02*
X116662200Y-100639880D01*
X107599480Y-104846120D02*
X109279690Y-103165910D01*
X117723920Y-122267980D02*
X117723920Y-118473220D01*
X108473240Y-110223300D02*
X107599480Y-109349540D01*
X107599480Y-109349540D02*
X107599480Y-104846120D01*
X109474000Y-110223300D02*
X108473240Y-110223300D01*
X117723920Y-118473220D02*
X109474000Y-110223300D01*
X109279690Y-103165910D02*
X114136170Y-103165910D01*
X117962680Y-122506740D02*
X117723920Y-122267980D01*
X132064760Y-103974900D02*
X130609340Y-102519480D01*
X131356100Y-112201960D02*
X131356100Y-110368080D01*
X132064760Y-109659420D02*
X132064760Y-103974900D01*
X127370840Y-120995440D02*
X126918720Y-120543320D01*
X126918720Y-120543320D02*
X126918720Y-119951500D01*
X128719580Y-114838480D02*
X131356100Y-112201960D01*
X131356100Y-110368080D02*
X132064760Y-109659420D01*
X128719580Y-118150640D02*
X128719580Y-114838480D01*
X126918720Y-119951500D02*
X128719580Y-118150640D01*
X109153960Y-107309920D02*
X109153960Y-108485940D01*
X109715300Y-106748580D02*
X109153960Y-107309920D01*
X113680240Y-107795060D02*
X112633760Y-106748580D01*
X113680240Y-111434880D02*
X113680240Y-107795060D01*
X118668800Y-116423440D02*
X113680240Y-111434880D01*
X112633760Y-106748580D02*
X109715300Y-106748580D01*
X118963440Y-116423440D02*
X118668800Y-116423440D01*
X111297720Y-102174040D02*
X105608120Y-102174040D01*
X105608120Y-102174040D02*
X100622100Y-107160060D01*
X100622100Y-107160060D02*
X100622100Y-126197360D01*
X100622100Y-126197360D02*
X101851460Y-127426720D01*
X101851460Y-127426720D02*
X105145840Y-127426720D01*
X105145840Y-127426720D02*
X108127800Y-124444760D01*
X108127800Y-124444760D02*
X115945920Y-124444760D01*
X115945920Y-124444760D02*
X120865900Y-129364740D01*
X120865900Y-129364740D02*
X130220720Y-129364740D01*
X130220720Y-129364740D02*
X132895340Y-126690120D01*
X127878840Y-120116600D02*
X128925320Y-121163080D01*
X128925320Y-121163080D02*
X128925320Y-121782840D01*
X132895340Y-125752860D02*
X132895340Y-126690120D01*
X128925320Y-121782840D02*
X132895340Y-125752860D01*
D19*
G36*
X144594580Y-132547360D02*
G01*
X112012541Y-132547360D01*
X112117053Y-132420012D01*
X112201070Y-132262827D01*
X112252807Y-132092272D01*
X112265900Y-131959339D01*
X112265900Y-131170461D01*
X112252807Y-131037528D01*
X112201070Y-130866973D01*
X112117053Y-130709788D01*
X112003985Y-130572015D01*
X111866211Y-130458947D01*
X111709026Y-130374930D01*
X111538471Y-130323193D01*
X111361100Y-130305723D01*
X111183728Y-130323193D01*
X111013173Y-130374930D01*
X110855988Y-130458947D01*
X110718215Y-130572015D01*
X110605147Y-130709789D01*
X110521130Y-130866974D01*
X110469393Y-131037529D01*
X110456300Y-131170462D01*
X110456300Y-131959339D01*
X110469393Y-132092272D01*
X110521131Y-132262827D01*
X110605148Y-132420012D01*
X110709660Y-132547360D01*
X105012541Y-132547360D01*
X105117053Y-132420012D01*
X105201070Y-132262827D01*
X105252807Y-132092272D01*
X105265900Y-131959339D01*
X105265900Y-131170461D01*
X105252807Y-131037528D01*
X105201070Y-130866973D01*
X105117053Y-130709788D01*
X105003985Y-130572015D01*
X104866212Y-130458947D01*
X104709027Y-130374930D01*
X104538472Y-130323193D01*
X104361100Y-130305723D01*
X104183729Y-130323193D01*
X104013174Y-130374930D01*
X103855989Y-130458947D01*
X103718216Y-130572015D01*
X103605148Y-130709788D01*
X103521131Y-130866973D01*
X103469393Y-131037528D01*
X103456300Y-131170461D01*
X103456300Y-131959338D01*
X103469393Y-132092271D01*
X103521130Y-132262826D01*
X103605147Y-132420011D01*
X103709659Y-132547360D01*
X100464620Y-132547360D01*
X100464620Y-126794221D01*
X101455764Y-127785365D01*
X101472465Y-127805715D01*
X101553685Y-127872371D01*
X101646349Y-127921901D01*
X101746895Y-127952401D01*
X101825265Y-127960120D01*
X101825266Y-127960120D01*
X101851460Y-127962700D01*
X101877654Y-127960120D01*
X104861608Y-127960120D01*
X104704641Y-128065002D01*
X104561202Y-128208441D01*
X104448503Y-128377107D01*
X104370874Y-128564518D01*
X104331300Y-128763474D01*
X104331300Y-128966326D01*
X104370874Y-129165282D01*
X104448503Y-129352693D01*
X104561202Y-129521359D01*
X104704641Y-129664798D01*
X104873307Y-129777497D01*
X105060718Y-129855126D01*
X105259674Y-129894700D01*
X105462526Y-129894700D01*
X105661482Y-129855126D01*
X105848893Y-129777497D01*
X106017559Y-129664798D01*
X106160998Y-129521359D01*
X106273697Y-129352693D01*
X106351326Y-129165282D01*
X106390900Y-128966326D01*
X106390900Y-128763474D01*
X106351326Y-128564518D01*
X106273697Y-128377107D01*
X106160998Y-128208441D01*
X106017559Y-128065002D01*
X105848893Y-127952303D01*
X105661482Y-127874674D01*
X105483859Y-127839343D01*
X105524835Y-127805715D01*
X105541536Y-127785365D01*
X108348742Y-124978160D01*
X109580388Y-124978160D01*
X109544525Y-124997329D01*
X109463305Y-125063985D01*
X109446609Y-125084329D01*
X107517690Y-127013249D01*
X107497346Y-127029945D01*
X107480650Y-127050289D01*
X107480647Y-127050292D01*
X107466056Y-127068072D01*
X107430690Y-127111165D01*
X107430689Y-127111167D01*
X107381159Y-127203830D01*
X107350659Y-127304376D01*
X107340361Y-127408940D01*
X107342941Y-127435137D01*
X107342940Y-129665219D01*
X107324865Y-129692270D01*
X107277955Y-129805522D01*
X107254040Y-129925749D01*
X107254040Y-130048331D01*
X107277955Y-130168558D01*
X107324865Y-130281810D01*
X107392968Y-130383733D01*
X107479647Y-130470412D01*
X107581570Y-130538515D01*
X107694822Y-130585425D01*
X107815049Y-130609340D01*
X107937631Y-130609340D01*
X108057858Y-130585425D01*
X108171110Y-130538515D01*
X108273033Y-130470412D01*
X108359712Y-130383733D01*
X108427815Y-130281810D01*
X108474725Y-130168558D01*
X108498640Y-130048331D01*
X108498640Y-129925749D01*
X108474725Y-129805522D01*
X108427815Y-129692270D01*
X108409740Y-129665219D01*
X108409740Y-128763474D01*
X109331300Y-128763474D01*
X109331300Y-128966326D01*
X109370874Y-129165282D01*
X109448503Y-129352693D01*
X109561202Y-129521359D01*
X109704641Y-129664798D01*
X109873307Y-129777497D01*
X110060718Y-129855126D01*
X110259674Y-129894700D01*
X110462526Y-129894700D01*
X110661482Y-129855126D01*
X110848893Y-129777497D01*
X111017559Y-129664798D01*
X111160998Y-129521359D01*
X111273697Y-129352693D01*
X111351326Y-129165282D01*
X111390900Y-128966326D01*
X111390900Y-128763474D01*
X111351326Y-128564518D01*
X111273697Y-128377107D01*
X111160998Y-128208441D01*
X111017559Y-128065002D01*
X110848893Y-127952303D01*
X110661482Y-127874674D01*
X110462526Y-127835100D01*
X110259674Y-127835100D01*
X110060718Y-127874674D01*
X109873307Y-127952303D01*
X109704641Y-128065002D01*
X109561202Y-128208441D01*
X109448503Y-128377107D01*
X109370874Y-128564518D01*
X109331300Y-128763474D01*
X108409740Y-128763474D01*
X108409740Y-127629881D01*
X110063242Y-125976380D01*
X111981739Y-125976380D01*
X112008790Y-125994455D01*
X112122042Y-126041365D01*
X112242269Y-126065280D01*
X112364851Y-126065280D01*
X112485078Y-126041365D01*
X112598330Y-125994455D01*
X112700253Y-125926352D01*
X112786932Y-125839673D01*
X112855035Y-125737750D01*
X112901945Y-125624498D01*
X112925860Y-125504271D01*
X112925860Y-125381689D01*
X112901945Y-125261462D01*
X112855035Y-125148210D01*
X112786932Y-125046287D01*
X112718805Y-124978160D01*
X115724979Y-124978160D01*
X120470209Y-129723391D01*
X120486905Y-129743735D01*
X120568125Y-129810391D01*
X120660789Y-129859921D01*
X120761335Y-129890421D01*
X120839705Y-129898140D01*
X120839712Y-129898140D01*
X120865899Y-129900719D01*
X120892086Y-129898140D01*
X130194533Y-129898140D01*
X130220720Y-129900719D01*
X130246907Y-129898140D01*
X130246915Y-129898140D01*
X130325285Y-129890421D01*
X130425831Y-129859921D01*
X130518495Y-129810391D01*
X130599715Y-129743735D01*
X130616416Y-129723385D01*
X131060721Y-129279080D01*
X136471877Y-129279080D01*
X136471877Y-132438680D01*
X143095763Y-132438680D01*
X143095763Y-129279080D01*
X136471877Y-129279080D01*
X131060721Y-129279080D01*
X133111201Y-127228600D01*
X137306747Y-127228600D01*
X137329306Y-127457646D01*
X137396116Y-127677891D01*
X137504611Y-127880869D01*
X137650619Y-128058781D01*
X137828531Y-128204789D01*
X138031509Y-128313284D01*
X138251754Y-128380094D01*
X138423404Y-128397000D01*
X138538196Y-128397000D01*
X138709846Y-128380094D01*
X138930091Y-128313284D01*
X139133069Y-128204789D01*
X139310981Y-128058781D01*
X139456989Y-127880869D01*
X139565484Y-127677891D01*
X139632294Y-127457646D01*
X139649200Y-127285996D01*
X139649200Y-127381002D01*
X139785565Y-127381002D01*
X139698316Y-127592361D01*
X139719095Y-127660879D01*
X139828440Y-127906523D01*
X139983607Y-128126115D01*
X140178633Y-128311216D01*
X140406023Y-128454712D01*
X140657038Y-128551090D01*
X140868400Y-128464713D01*
X140868400Y-127381000D01*
X141173200Y-127381000D01*
X141173200Y-128464713D01*
X141384562Y-128551090D01*
X141635577Y-128454712D01*
X141862967Y-128311216D01*
X142057993Y-128126115D01*
X142213160Y-127906523D01*
X142322505Y-127660879D01*
X142343284Y-127592361D01*
X142256034Y-127381000D01*
X141173200Y-127381000D01*
X140868400Y-127381000D01*
X140848400Y-127381000D01*
X140848400Y-127076200D01*
X140868400Y-127076200D01*
X140868400Y-127056200D01*
X141173200Y-127056200D01*
X141173200Y-127076200D01*
X142256034Y-127076200D01*
X142343284Y-126864839D01*
X142322505Y-126796321D01*
X142213160Y-126550677D01*
X142057993Y-126331085D01*
X141862967Y-126145984D01*
X141635577Y-126002488D01*
X141384562Y-125906110D01*
X141173202Y-125992486D01*
X141173202Y-125857000D01*
X141078196Y-125857000D01*
X141249846Y-125840094D01*
X141470091Y-125773284D01*
X141673069Y-125664789D01*
X141850981Y-125518781D01*
X141996989Y-125340869D01*
X142105484Y-125137891D01*
X142172294Y-124917646D01*
X142194853Y-124688600D01*
X142172294Y-124459554D01*
X142105484Y-124239309D01*
X141996989Y-124036331D01*
X141850981Y-123858419D01*
X141673069Y-123712411D01*
X141470091Y-123603916D01*
X141249846Y-123537106D01*
X141078196Y-123520200D01*
X140963404Y-123520200D01*
X140791754Y-123537106D01*
X140571509Y-123603916D01*
X140368531Y-123712411D01*
X140190619Y-123858419D01*
X140044611Y-124036331D01*
X139936116Y-124239309D01*
X139869306Y-124459554D01*
X139846747Y-124688600D01*
X139869306Y-124917646D01*
X139936116Y-125137891D01*
X140044611Y-125340869D01*
X140190619Y-125518781D01*
X140368531Y-125664789D01*
X140571509Y-125773284D01*
X140791754Y-125840094D01*
X140963404Y-125857000D01*
X140868398Y-125857000D01*
X140868398Y-125992486D01*
X140657038Y-125906110D01*
X140406023Y-126002488D01*
X140178633Y-126145984D01*
X139983607Y-126331085D01*
X139828440Y-126550677D01*
X139719095Y-126796321D01*
X139698316Y-126864839D01*
X139785565Y-127076198D01*
X139649200Y-127076198D01*
X139649200Y-127171204D01*
X139632294Y-126999554D01*
X139565484Y-126779309D01*
X139456989Y-126576331D01*
X139310981Y-126398419D01*
X139133069Y-126252411D01*
X138930091Y-126143916D01*
X138709846Y-126077106D01*
X138538196Y-126060200D01*
X138423404Y-126060200D01*
X138251754Y-126077106D01*
X138031509Y-126143916D01*
X137828531Y-126252411D01*
X137650619Y-126398419D01*
X137504611Y-126576331D01*
X137396116Y-126779309D01*
X137329306Y-126999554D01*
X137306747Y-127228600D01*
X133111201Y-127228600D01*
X133253991Y-127085811D01*
X133274335Y-127069115D01*
X133291890Y-127047725D01*
X133306481Y-127029945D01*
X133340991Y-126987895D01*
X133390521Y-126895231D01*
X133421021Y-126794685D01*
X133428740Y-126716315D01*
X133428740Y-126716307D01*
X133431319Y-126690120D01*
X133428740Y-126663933D01*
X133428740Y-125779046D01*
X133431319Y-125752859D01*
X133428740Y-125726672D01*
X133428740Y-125726665D01*
X133421021Y-125648295D01*
X133390521Y-125547749D01*
X133340991Y-125455085D01*
X133291033Y-125394211D01*
X133291031Y-125394209D01*
X133274335Y-125373865D01*
X133253991Y-125357169D01*
X132585422Y-124688600D01*
X137306747Y-124688600D01*
X137329306Y-124917646D01*
X137396116Y-125137891D01*
X137504611Y-125340869D01*
X137650619Y-125518781D01*
X137828531Y-125664789D01*
X138031509Y-125773284D01*
X138251754Y-125840094D01*
X138423404Y-125857000D01*
X138538196Y-125857000D01*
X138709846Y-125840094D01*
X138930091Y-125773284D01*
X139133069Y-125664789D01*
X139310981Y-125518781D01*
X139456989Y-125340869D01*
X139565484Y-125137891D01*
X139632294Y-124917646D01*
X139654853Y-124688600D01*
X139632294Y-124459554D01*
X139565484Y-124239309D01*
X139456989Y-124036331D01*
X139310981Y-123858419D01*
X139133069Y-123712411D01*
X138930091Y-123603916D01*
X138709846Y-123537106D01*
X138538196Y-123520200D01*
X138423404Y-123520200D01*
X138251754Y-123537106D01*
X138031509Y-123603916D01*
X137828531Y-123712411D01*
X137650619Y-123858419D01*
X137504611Y-124036331D01*
X137396116Y-124239309D01*
X137329306Y-124459554D01*
X137306747Y-124688600D01*
X132585422Y-124688600D01*
X129458720Y-121561899D01*
X129458720Y-121189266D01*
X129461299Y-121163079D01*
X129458720Y-121136892D01*
X129458720Y-121136885D01*
X129451001Y-121058515D01*
X129420501Y-120957969D01*
X129370971Y-120865305D01*
X129304315Y-120784085D01*
X129283971Y-120767389D01*
X128483572Y-119966991D01*
X128477225Y-119935082D01*
X128430315Y-119821830D01*
X128362212Y-119719907D01*
X128275533Y-119633228D01*
X128173610Y-119565125D01*
X128092877Y-119531684D01*
X129078225Y-118546336D01*
X129098575Y-118529635D01*
X129165231Y-118448415D01*
X129214761Y-118355751D01*
X129245261Y-118255205D01*
X129252980Y-118176835D01*
X129252980Y-118176834D01*
X129255560Y-118150640D01*
X129252980Y-118124446D01*
X129252980Y-117271488D01*
X129269582Y-117278365D01*
X129389809Y-117302280D01*
X129512391Y-117302280D01*
X129632618Y-117278365D01*
X129745870Y-117231455D01*
X129847793Y-117163352D01*
X129934472Y-117076673D01*
X130002575Y-116974750D01*
X130049485Y-116861498D01*
X130061509Y-116801053D01*
X132525770Y-114336792D01*
X137947400Y-119758422D01*
X137947401Y-120978726D01*
X137617200Y-120978726D01*
X137557449Y-120984611D01*
X137499994Y-121002040D01*
X137447043Y-121030342D01*
X137400632Y-121068432D01*
X137362542Y-121114843D01*
X137334240Y-121167794D01*
X137316811Y-121225249D01*
X137310926Y-121285000D01*
X137310926Y-123012200D01*
X137316811Y-123071951D01*
X137334240Y-123129406D01*
X137362542Y-123182357D01*
X137400632Y-123228768D01*
X137447043Y-123266858D01*
X137499994Y-123295160D01*
X137557449Y-123312589D01*
X137617200Y-123318474D01*
X139344400Y-123318474D01*
X139404151Y-123312589D01*
X139461606Y-123295160D01*
X139514557Y-123266858D01*
X139560968Y-123228768D01*
X139599058Y-123182357D01*
X139627360Y-123129406D01*
X139644789Y-123071951D01*
X139650674Y-123012200D01*
X139650674Y-122148600D01*
X139846747Y-122148600D01*
X139869306Y-122377646D01*
X139936116Y-122597891D01*
X140044611Y-122800869D01*
X140190619Y-122978781D01*
X140368531Y-123124789D01*
X140571509Y-123233284D01*
X140791754Y-123300094D01*
X140963404Y-123317000D01*
X141078196Y-123317000D01*
X141249846Y-123300094D01*
X141470091Y-123233284D01*
X141673069Y-123124789D01*
X141850981Y-122978781D01*
X141996989Y-122800869D01*
X142105484Y-122597891D01*
X142172294Y-122377646D01*
X142194853Y-122148600D01*
X142172294Y-121919554D01*
X142105484Y-121699309D01*
X141996989Y-121496331D01*
X141850981Y-121318419D01*
X141673069Y-121172411D01*
X141470091Y-121063916D01*
X141249846Y-120997106D01*
X141078196Y-120980200D01*
X140963404Y-120980200D01*
X140791754Y-120997106D01*
X140571509Y-121063916D01*
X140368531Y-121172411D01*
X140190619Y-121318419D01*
X140044611Y-121496331D01*
X139936116Y-121699309D01*
X139869306Y-121919554D01*
X139846747Y-122148600D01*
X139650674Y-122148600D01*
X139650674Y-121285000D01*
X139644789Y-121225249D01*
X139627360Y-121167794D01*
X139599058Y-121114843D01*
X139560968Y-121068432D01*
X139514557Y-121030342D01*
X139461606Y-121002040D01*
X139404151Y-120984611D01*
X139344400Y-120978726D01*
X139014200Y-120978726D01*
X139014200Y-119563666D01*
X139016779Y-119537479D01*
X139014200Y-119511292D01*
X139014200Y-119511285D01*
X139006481Y-119432915D01*
X138975981Y-119332369D01*
X138926451Y-119239705D01*
X138859795Y-119158485D01*
X138839451Y-119141789D01*
X132857240Y-113159579D01*
X132857240Y-111782101D01*
X132875315Y-111755050D01*
X132922225Y-111641798D01*
X132946140Y-111521571D01*
X132946140Y-111398989D01*
X132922225Y-111278762D01*
X132875315Y-111165510D01*
X132807212Y-111063587D01*
X132720533Y-110976908D01*
X132618610Y-110908805D01*
X132588662Y-110896400D01*
X137306747Y-110896400D01*
X137329306Y-111125446D01*
X137396116Y-111345691D01*
X137504611Y-111548669D01*
X137650619Y-111726581D01*
X137828531Y-111872589D01*
X138031509Y-111981084D01*
X138251754Y-112047894D01*
X138423404Y-112064800D01*
X138538196Y-112064800D01*
X138709846Y-112047894D01*
X138930091Y-111981084D01*
X139133069Y-111872589D01*
X139310981Y-111726581D01*
X139456989Y-111548669D01*
X139565484Y-111345691D01*
X139632294Y-111125446D01*
X139649200Y-110953796D01*
X139649200Y-111048802D01*
X139785565Y-111048802D01*
X139698316Y-111260161D01*
X139719095Y-111328679D01*
X139828440Y-111574323D01*
X139983607Y-111793915D01*
X140178633Y-111979016D01*
X140406023Y-112122512D01*
X140657038Y-112218890D01*
X140868400Y-112132513D01*
X140868400Y-111048800D01*
X141173200Y-111048800D01*
X141173200Y-112132513D01*
X141384562Y-112218890D01*
X141635577Y-112122512D01*
X141862967Y-111979016D01*
X142057993Y-111793915D01*
X142213160Y-111574323D01*
X142322505Y-111328679D01*
X142343284Y-111260161D01*
X142256034Y-111048800D01*
X141173200Y-111048800D01*
X140868400Y-111048800D01*
X140848400Y-111048800D01*
X140848400Y-110744000D01*
X140868400Y-110744000D01*
X140868400Y-110724000D01*
X141173200Y-110724000D01*
X141173200Y-110744000D01*
X142256034Y-110744000D01*
X142343284Y-110532639D01*
X142322505Y-110464121D01*
X142213160Y-110218477D01*
X142057993Y-109998885D01*
X141862967Y-109813784D01*
X141635577Y-109670288D01*
X141384562Y-109573910D01*
X141173202Y-109660286D01*
X141173202Y-109524800D01*
X141078196Y-109524800D01*
X141249846Y-109507894D01*
X141470091Y-109441084D01*
X141673069Y-109332589D01*
X141850981Y-109186581D01*
X141996989Y-109008669D01*
X142105484Y-108805691D01*
X142172294Y-108585446D01*
X142194853Y-108356400D01*
X142172294Y-108127354D01*
X142105484Y-107907109D01*
X141996989Y-107704131D01*
X141850981Y-107526219D01*
X141673069Y-107380211D01*
X141470091Y-107271716D01*
X141249846Y-107204906D01*
X141078196Y-107188000D01*
X140963404Y-107188000D01*
X140791754Y-107204906D01*
X140571509Y-107271716D01*
X140368531Y-107380211D01*
X140190619Y-107526219D01*
X140044611Y-107704131D01*
X139936116Y-107907109D01*
X139869306Y-108127354D01*
X139846747Y-108356400D01*
X139869306Y-108585446D01*
X139936116Y-108805691D01*
X140044611Y-109008669D01*
X140190619Y-109186581D01*
X140368531Y-109332589D01*
X140571509Y-109441084D01*
X140791754Y-109507894D01*
X140963404Y-109524800D01*
X140868398Y-109524800D01*
X140868398Y-109660286D01*
X140657038Y-109573910D01*
X140406023Y-109670288D01*
X140178633Y-109813784D01*
X139983607Y-109998885D01*
X139828440Y-110218477D01*
X139719095Y-110464121D01*
X139698316Y-110532639D01*
X139785565Y-110743998D01*
X139649200Y-110743998D01*
X139649200Y-110839004D01*
X139632294Y-110667354D01*
X139565484Y-110447109D01*
X139456989Y-110244131D01*
X139310981Y-110066219D01*
X139133069Y-109920211D01*
X138930091Y-109811716D01*
X138709846Y-109744906D01*
X138538196Y-109728000D01*
X138423404Y-109728000D01*
X138251754Y-109744906D01*
X138031509Y-109811716D01*
X137828531Y-109920211D01*
X137650619Y-110066219D01*
X137504611Y-110244131D01*
X137396116Y-110447109D01*
X137329306Y-110667354D01*
X137306747Y-110896400D01*
X132588662Y-110896400D01*
X132505358Y-110861895D01*
X132385131Y-110837980D01*
X132262549Y-110837980D01*
X132142322Y-110861895D01*
X132029070Y-110908805D01*
X131927147Y-110976908D01*
X131889500Y-111014555D01*
X131889500Y-110589021D01*
X132423405Y-110055116D01*
X132443755Y-110038415D01*
X132510411Y-109957195D01*
X132559941Y-109864531D01*
X132590441Y-109763985D01*
X132598160Y-109685615D01*
X132598160Y-109685614D01*
X132600740Y-109659420D01*
X132598160Y-109633226D01*
X132598160Y-108356400D01*
X137306747Y-108356400D01*
X137329306Y-108585446D01*
X137396116Y-108805691D01*
X137504611Y-109008669D01*
X137650619Y-109186581D01*
X137828531Y-109332589D01*
X138031509Y-109441084D01*
X138251754Y-109507894D01*
X138423404Y-109524800D01*
X138538196Y-109524800D01*
X138709846Y-109507894D01*
X138930091Y-109441084D01*
X139133069Y-109332589D01*
X139310981Y-109186581D01*
X139456989Y-109008669D01*
X139565484Y-108805691D01*
X139632294Y-108585446D01*
X139654853Y-108356400D01*
X139632294Y-108127354D01*
X139565484Y-107907109D01*
X139456989Y-107704131D01*
X139310981Y-107526219D01*
X139133069Y-107380211D01*
X138930091Y-107271716D01*
X138709846Y-107204906D01*
X138538196Y-107188000D01*
X138423404Y-107188000D01*
X138251754Y-107204906D01*
X138031509Y-107271716D01*
X137828531Y-107380211D01*
X137650619Y-107526219D01*
X137504611Y-107704131D01*
X137396116Y-107907109D01*
X137329306Y-108127354D01*
X137306747Y-108356400D01*
X132598160Y-108356400D01*
X132598160Y-104952800D01*
X137310926Y-104952800D01*
X137310926Y-106680000D01*
X137316811Y-106739751D01*
X137334240Y-106797206D01*
X137362542Y-106850157D01*
X137400632Y-106896568D01*
X137447043Y-106934658D01*
X137499994Y-106962960D01*
X137557449Y-106980389D01*
X137617200Y-106986274D01*
X139344400Y-106986274D01*
X139404151Y-106980389D01*
X139461606Y-106962960D01*
X139514557Y-106934658D01*
X139560968Y-106896568D01*
X139599058Y-106850157D01*
X139627360Y-106797206D01*
X139644789Y-106739751D01*
X139650674Y-106680000D01*
X139650674Y-105816400D01*
X139846747Y-105816400D01*
X139869306Y-106045446D01*
X139936116Y-106265691D01*
X140044611Y-106468669D01*
X140190619Y-106646581D01*
X140368531Y-106792589D01*
X140571509Y-106901084D01*
X140791754Y-106967894D01*
X140963404Y-106984800D01*
X141078196Y-106984800D01*
X141249846Y-106967894D01*
X141470091Y-106901084D01*
X141673069Y-106792589D01*
X141850981Y-106646581D01*
X141996989Y-106468669D01*
X142105484Y-106265691D01*
X142172294Y-106045446D01*
X142194853Y-105816400D01*
X142172294Y-105587354D01*
X142105484Y-105367109D01*
X141996989Y-105164131D01*
X141850981Y-104986219D01*
X141673069Y-104840211D01*
X141470091Y-104731716D01*
X141249846Y-104664906D01*
X141078196Y-104648000D01*
X140963404Y-104648000D01*
X140791754Y-104664906D01*
X140571509Y-104731716D01*
X140368531Y-104840211D01*
X140190619Y-104986219D01*
X140044611Y-105164131D01*
X139936116Y-105367109D01*
X139869306Y-105587354D01*
X139846747Y-105816400D01*
X139650674Y-105816400D01*
X139650674Y-104952800D01*
X139644789Y-104893049D01*
X139627360Y-104835594D01*
X139599058Y-104782643D01*
X139560968Y-104736232D01*
X139514557Y-104698142D01*
X139461606Y-104669840D01*
X139404151Y-104652411D01*
X139344400Y-104646526D01*
X137617200Y-104646526D01*
X137557449Y-104652411D01*
X137499994Y-104669840D01*
X137447043Y-104698142D01*
X137400632Y-104736232D01*
X137362542Y-104782643D01*
X137334240Y-104835594D01*
X137316811Y-104893049D01*
X137310926Y-104952800D01*
X132598160Y-104952800D01*
X132598160Y-104001094D01*
X132600740Y-103974900D01*
X132590441Y-103870336D01*
X132577735Y-103828447D01*
X132559941Y-103769789D01*
X132510411Y-103677125D01*
X132443755Y-103595905D01*
X132423405Y-103579204D01*
X131710804Y-102866603D01*
X131747430Y-102745860D01*
X131769727Y-102519480D01*
X131747430Y-102293100D01*
X131681398Y-102075419D01*
X131574167Y-101874804D01*
X131429858Y-101698962D01*
X131254016Y-101554653D01*
X131053401Y-101447422D01*
X130835720Y-101381390D01*
X130666064Y-101364680D01*
X130552616Y-101364680D01*
X130382960Y-101381390D01*
X130165279Y-101447422D01*
X129964664Y-101554653D01*
X129788822Y-101698962D01*
X129644513Y-101874804D01*
X129537282Y-102075419D01*
X129471250Y-102293100D01*
X129448953Y-102519480D01*
X129471250Y-102745860D01*
X129537282Y-102963541D01*
X129644513Y-103164156D01*
X129788822Y-103339998D01*
X129964664Y-103484307D01*
X130165279Y-103591538D01*
X130382960Y-103657570D01*
X130552616Y-103674280D01*
X130666064Y-103674280D01*
X130835720Y-103657570D01*
X130956463Y-103620944D01*
X131531361Y-104195842D01*
X131531361Y-105748591D01*
X131508127Y-105705124D01*
X131363818Y-105529282D01*
X131187976Y-105384973D01*
X130987361Y-105277742D01*
X130769680Y-105211710D01*
X130600024Y-105195000D01*
X130486576Y-105195000D01*
X130316920Y-105211710D01*
X130099239Y-105277742D01*
X129898624Y-105384973D01*
X129722782Y-105529282D01*
X129578473Y-105705124D01*
X129471242Y-105905739D01*
X129405210Y-106123420D01*
X129382913Y-106349800D01*
X129405210Y-106576180D01*
X129471242Y-106793861D01*
X129578473Y-106994476D01*
X129722782Y-107170318D01*
X129898624Y-107314627D01*
X130099239Y-107421858D01*
X130316920Y-107487890D01*
X130486576Y-107504600D01*
X130600024Y-107504600D01*
X130769680Y-107487890D01*
X130987361Y-107421858D01*
X131187976Y-107314627D01*
X131363818Y-107170318D01*
X131508127Y-106994476D01*
X131531360Y-106951009D01*
X131531360Y-108288590D01*
X131508127Y-108245124D01*
X131363818Y-108069282D01*
X131187976Y-107924973D01*
X130987361Y-107817742D01*
X130769680Y-107751710D01*
X130600024Y-107735000D01*
X130486576Y-107735000D01*
X130316920Y-107751710D01*
X130099239Y-107817742D01*
X129898624Y-107924973D01*
X129794000Y-108010835D01*
X129794000Y-107633294D01*
X129796580Y-107607100D01*
X129793214Y-107572929D01*
X129786281Y-107502535D01*
X129755781Y-107401989D01*
X129706251Y-107309325D01*
X129639595Y-107228105D01*
X129619245Y-107211404D01*
X129104764Y-106696923D01*
X129141390Y-106576180D01*
X129163687Y-106349800D01*
X129141390Y-106123420D01*
X129075358Y-105905739D01*
X128968127Y-105705124D01*
X128823818Y-105529282D01*
X128647976Y-105384973D01*
X128447361Y-105277742D01*
X128229680Y-105211710D01*
X128060024Y-105195000D01*
X127946576Y-105195000D01*
X127776920Y-105211710D01*
X127559239Y-105277742D01*
X127358624Y-105384973D01*
X127182782Y-105529282D01*
X127038473Y-105705124D01*
X126931242Y-105905739D01*
X126865210Y-106123420D01*
X126842913Y-106349800D01*
X126865210Y-106576180D01*
X126931242Y-106793861D01*
X127038473Y-106994476D01*
X127182782Y-107170318D01*
X127358624Y-107314627D01*
X127559239Y-107421858D01*
X127776920Y-107487890D01*
X127946576Y-107504600D01*
X128060024Y-107504600D01*
X128229680Y-107487890D01*
X128350423Y-107451264D01*
X128727201Y-107828042D01*
X128727201Y-107989991D01*
X128647976Y-107924973D01*
X128447361Y-107817742D01*
X128229680Y-107751710D01*
X128060024Y-107735000D01*
X127946576Y-107735000D01*
X127776920Y-107751710D01*
X127559239Y-107817742D01*
X127358624Y-107924973D01*
X127218440Y-108040018D01*
X127218440Y-107597726D01*
X127221019Y-107571539D01*
X127218440Y-107545352D01*
X127218440Y-107545345D01*
X127210721Y-107466975D01*
X127180221Y-107366429D01*
X127130691Y-107273765D01*
X127129009Y-107271716D01*
X127080733Y-107212891D01*
X127080731Y-107212889D01*
X127064035Y-107192545D01*
X127043691Y-107175849D01*
X126564764Y-106696922D01*
X126601390Y-106576180D01*
X126623687Y-106349800D01*
X126601390Y-106123420D01*
X126535358Y-105905739D01*
X126428127Y-105705124D01*
X126283818Y-105529282D01*
X126107976Y-105384973D01*
X125907361Y-105277742D01*
X125689680Y-105211710D01*
X125520024Y-105195000D01*
X125406576Y-105195000D01*
X125236920Y-105211710D01*
X125019239Y-105277742D01*
X124818624Y-105384973D01*
X124642782Y-105529282D01*
X124498473Y-105705124D01*
X124391242Y-105905739D01*
X124325210Y-106123420D01*
X124302913Y-106349800D01*
X124325210Y-106576180D01*
X124391242Y-106793861D01*
X124498473Y-106994476D01*
X124642782Y-107170318D01*
X124818624Y-107314627D01*
X125019239Y-107421858D01*
X125236920Y-107487890D01*
X125406576Y-107504600D01*
X125520024Y-107504600D01*
X125689680Y-107487890D01*
X125810422Y-107451264D01*
X126151641Y-107792483D01*
X126151641Y-107960808D01*
X126107976Y-107924973D01*
X125907361Y-107817742D01*
X125689680Y-107751710D01*
X125520024Y-107735000D01*
X125406576Y-107735000D01*
X125236920Y-107751710D01*
X125019239Y-107817742D01*
X124818624Y-107924973D01*
X124642782Y-108069282D01*
X124498473Y-108245124D01*
X124391242Y-108445739D01*
X124325210Y-108663420D01*
X124302913Y-108889800D01*
X124325210Y-109116180D01*
X124391242Y-109333861D01*
X124498473Y-109534476D01*
X124642782Y-109710318D01*
X124818624Y-109854627D01*
X125019239Y-109961858D01*
X125236920Y-110027890D01*
X125406576Y-110044600D01*
X125520024Y-110044600D01*
X125689680Y-110027890D01*
X125907361Y-109961858D01*
X126107976Y-109854627D01*
X126151640Y-109818793D01*
X126151640Y-110313515D01*
X126139393Y-110301268D01*
X126037470Y-110233165D01*
X125924218Y-110186255D01*
X125803991Y-110162340D01*
X125681409Y-110162340D01*
X125561182Y-110186255D01*
X125447930Y-110233165D01*
X125420879Y-110251240D01*
X124618267Y-110251240D01*
X124592080Y-110248661D01*
X124565893Y-110251240D01*
X124565885Y-110251240D01*
X124487515Y-110258959D01*
X124386969Y-110289459D01*
X124294305Y-110338989D01*
X124213085Y-110405645D01*
X124196389Y-110425989D01*
X123766285Y-110856094D01*
X123721632Y-110789267D01*
X123634953Y-110702588D01*
X123533030Y-110634485D01*
X123419778Y-110587575D01*
X123299551Y-110563660D01*
X123176969Y-110563660D01*
X123056742Y-110587575D01*
X122943490Y-110634485D01*
X122841567Y-110702588D01*
X122754888Y-110789267D01*
X122686785Y-110891190D01*
X122639875Y-111004442D01*
X122615960Y-111124669D01*
X122615960Y-111247251D01*
X122639875Y-111367478D01*
X122686785Y-111480730D01*
X122704861Y-111507782D01*
X122704861Y-111640660D01*
X121790460Y-110726259D01*
X121790460Y-109133487D01*
X121851242Y-109333861D01*
X121958473Y-109534476D01*
X122102782Y-109710318D01*
X122278624Y-109854627D01*
X122479239Y-109961858D01*
X122696920Y-110027890D01*
X122866576Y-110044600D01*
X122980024Y-110044600D01*
X123149680Y-110027890D01*
X123367361Y-109961858D01*
X123567976Y-109854627D01*
X123743818Y-109710318D01*
X123888127Y-109534476D01*
X123995358Y-109333861D01*
X124061390Y-109116180D01*
X124083687Y-108889800D01*
X124061390Y-108663420D01*
X123995358Y-108445739D01*
X123888127Y-108245124D01*
X123743818Y-108069282D01*
X123567976Y-107924973D01*
X123367361Y-107817742D01*
X123149680Y-107751710D01*
X122980024Y-107735000D01*
X122866576Y-107735000D01*
X122696920Y-107751710D01*
X122479239Y-107817742D01*
X122278624Y-107924973D01*
X122102782Y-108069282D01*
X121958473Y-108245124D01*
X121851242Y-108445739D01*
X121790460Y-108646113D01*
X121790460Y-108236981D01*
X122521368Y-107506074D01*
X123773300Y-107506074D01*
X123833051Y-107500189D01*
X123890506Y-107482760D01*
X123943457Y-107454458D01*
X123989868Y-107416368D01*
X124027958Y-107369957D01*
X124056260Y-107317006D01*
X124073689Y-107259551D01*
X124079574Y-107199800D01*
X124079574Y-105499800D01*
X124073689Y-105440049D01*
X124056260Y-105382594D01*
X124027958Y-105329643D01*
X123989868Y-105283232D01*
X123943457Y-105245142D01*
X123890506Y-105216840D01*
X123833051Y-105199411D01*
X123773300Y-105193526D01*
X122073300Y-105193526D01*
X122013549Y-105199411D01*
X121956094Y-105216840D01*
X121903143Y-105245142D01*
X121856732Y-105283232D01*
X121818642Y-105329643D01*
X121790340Y-105382594D01*
X121772911Y-105440049D01*
X121767026Y-105499800D01*
X121767026Y-106751732D01*
X120944640Y-107574119D01*
X120944640Y-107242126D01*
X120947219Y-107215939D01*
X120944640Y-107189752D01*
X120944640Y-107189745D01*
X120936921Y-107111375D01*
X120906421Y-107010829D01*
X120856891Y-106918165D01*
X120791621Y-106838634D01*
X120786105Y-106810902D01*
X120739195Y-106697650D01*
X120671092Y-106595727D01*
X120584413Y-106509048D01*
X120482490Y-106440945D01*
X120369238Y-106394035D01*
X120249011Y-106370120D01*
X120126429Y-106370120D01*
X120006202Y-106394035D01*
X119892950Y-106440945D01*
X119791027Y-106509048D01*
X119704348Y-106595727D01*
X119636245Y-106697650D01*
X119589335Y-106810902D01*
X119565420Y-106931129D01*
X119565420Y-107053711D01*
X119589335Y-107173938D01*
X119636245Y-107287190D01*
X119704348Y-107389113D01*
X119791027Y-107475792D01*
X119877841Y-107533799D01*
X119877840Y-119681473D01*
X119875261Y-119707660D01*
X119877840Y-119733847D01*
X119877840Y-119733854D01*
X119885559Y-119812224D01*
X119916059Y-119912770D01*
X119965589Y-120005435D01*
X120032245Y-120086655D01*
X120052595Y-120103356D01*
X121999289Y-122050051D01*
X122015985Y-122070395D01*
X122097205Y-122137051D01*
X122189869Y-122186581D01*
X122290415Y-122217081D01*
X122368785Y-122224800D01*
X122368792Y-122224800D01*
X122394979Y-122227379D01*
X122421166Y-122224800D01*
X123938513Y-122224800D01*
X123964700Y-122227379D01*
X123990887Y-122224800D01*
X123990895Y-122224800D01*
X124069265Y-122217081D01*
X124169811Y-122186581D01*
X124262475Y-122137051D01*
X124343695Y-122070395D01*
X124360396Y-122050045D01*
X124853449Y-121556992D01*
X124885358Y-121550645D01*
X124909580Y-121540612D01*
X124909580Y-121548373D01*
X124907001Y-121574560D01*
X124909580Y-121600747D01*
X124909580Y-121600754D01*
X124917299Y-121679124D01*
X124947799Y-121779670D01*
X124997329Y-121872335D01*
X125063985Y-121953555D01*
X125084334Y-121970255D01*
X125940608Y-122826530D01*
X125946955Y-122858438D01*
X125993865Y-122971690D01*
X126061968Y-123073613D01*
X126148647Y-123160292D01*
X126250570Y-123228395D01*
X126363822Y-123275305D01*
X126484049Y-123299220D01*
X126606631Y-123299220D01*
X126726858Y-123275305D01*
X126840110Y-123228395D01*
X126942033Y-123160292D01*
X127028712Y-123073613D01*
X127096815Y-122971690D01*
X127143725Y-122858438D01*
X127156745Y-122792986D01*
X127226604Y-122862845D01*
X127243305Y-122883195D01*
X127324525Y-122949851D01*
X127417189Y-122999381D01*
X127517735Y-123029881D01*
X127596105Y-123037600D01*
X127596106Y-123037600D01*
X127622300Y-123040180D01*
X127648494Y-123037600D01*
X127656079Y-123037600D01*
X127683130Y-123055675D01*
X127796382Y-123102585D01*
X127916609Y-123126500D01*
X128039191Y-123126500D01*
X128159418Y-123102585D01*
X128272670Y-123055675D01*
X128374593Y-122987572D01*
X128461272Y-122900893D01*
X128529375Y-122798970D01*
X128576285Y-122685718D01*
X128600200Y-122565491D01*
X128600200Y-122442909D01*
X128576285Y-122322682D01*
X128529375Y-122209430D01*
X128461272Y-122107507D01*
X128374593Y-122020828D01*
X128272670Y-121952725D01*
X128159418Y-121905815D01*
X128039191Y-121881900D01*
X127916609Y-121881900D01*
X127796382Y-121905815D01*
X127783565Y-121911124D01*
X127480550Y-121608109D01*
X127552358Y-121593825D01*
X127665610Y-121546915D01*
X127767533Y-121478812D01*
X127854212Y-121392133D01*
X127922315Y-121290210D01*
X127969225Y-121176958D01*
X127993140Y-121056731D01*
X127993140Y-120985241D01*
X128391920Y-121384022D01*
X128391920Y-121756653D01*
X128389341Y-121782840D01*
X128391920Y-121809027D01*
X128391920Y-121809035D01*
X128399639Y-121887405D01*
X128405224Y-121905815D01*
X128430139Y-121987950D01*
X128461333Y-122046309D01*
X128479670Y-122080615D01*
X128495777Y-122100241D01*
X128529627Y-122141488D01*
X128529630Y-122141491D01*
X128546326Y-122161835D01*
X128566670Y-122178531D01*
X132361940Y-125973802D01*
X132361941Y-126469177D01*
X129999779Y-128831340D01*
X124400999Y-128831340D01*
X124443605Y-128728478D01*
X124467520Y-128608251D01*
X124467520Y-128485669D01*
X124443605Y-128365442D01*
X124428270Y-128328420D01*
X129267433Y-128328420D01*
X129293620Y-128330999D01*
X129319807Y-128328420D01*
X129319815Y-128328420D01*
X129398185Y-128320701D01*
X129498731Y-128290201D01*
X129591395Y-128240671D01*
X129672615Y-128174015D01*
X129689316Y-128153665D01*
X131020569Y-126822412D01*
X131052478Y-126816065D01*
X131165730Y-126769155D01*
X131267653Y-126701052D01*
X131354332Y-126614373D01*
X131422435Y-126512450D01*
X131469345Y-126399198D01*
X131493260Y-126278971D01*
X131493260Y-126156389D01*
X131469345Y-126036162D01*
X131422435Y-125922910D01*
X131354332Y-125820987D01*
X131267653Y-125734308D01*
X131165730Y-125666205D01*
X131052478Y-125619295D01*
X130932251Y-125595380D01*
X130809669Y-125595380D01*
X130689442Y-125619295D01*
X130576190Y-125666205D01*
X130474267Y-125734308D01*
X130387588Y-125820987D01*
X130319485Y-125922910D01*
X130272575Y-126036162D01*
X130266228Y-126068071D01*
X129072679Y-127261620D01*
X121676122Y-127261620D01*
X117441980Y-123027479D01*
X117441980Y-122847568D01*
X117479308Y-122903433D01*
X117565987Y-122990112D01*
X117667910Y-123058215D01*
X117781162Y-123105125D01*
X117901389Y-123129040D01*
X118023971Y-123129040D01*
X118144198Y-123105125D01*
X118257450Y-123058215D01*
X118359373Y-122990112D01*
X118446052Y-122903433D01*
X118514155Y-122801510D01*
X118561065Y-122688258D01*
X118584980Y-122568031D01*
X118584980Y-122445449D01*
X118561065Y-122325222D01*
X118556292Y-122313700D01*
X118618331Y-122313700D01*
X118738558Y-122289785D01*
X118851810Y-122242875D01*
X118953733Y-122174772D01*
X119040412Y-122088093D01*
X119108515Y-121986170D01*
X119155425Y-121872918D01*
X119179340Y-121752691D01*
X119179340Y-121630109D01*
X119155425Y-121509882D01*
X119108515Y-121396630D01*
X119090440Y-121369579D01*
X119090440Y-118067606D01*
X119093019Y-118041419D01*
X119090440Y-118015232D01*
X119090440Y-118015225D01*
X119082721Y-117936855D01*
X119052221Y-117836309D01*
X119002691Y-117743645D01*
X118936035Y-117662425D01*
X118915691Y-117645729D01*
X110321813Y-109051852D01*
X110305115Y-109031505D01*
X110223895Y-108964849D01*
X110131231Y-108915319D01*
X110030685Y-108884819D01*
X109952315Y-108877100D01*
X109952307Y-108877100D01*
X109926120Y-108874521D01*
X109899933Y-108877100D01*
X109641029Y-108877100D01*
X109705435Y-108780710D01*
X109752345Y-108667458D01*
X109776260Y-108547231D01*
X109776260Y-108424649D01*
X109752345Y-108304422D01*
X109705435Y-108191170D01*
X109687360Y-108164119D01*
X109687360Y-107530861D01*
X109936241Y-107281980D01*
X112412819Y-107281980D01*
X113146841Y-108016003D01*
X113146840Y-111408693D01*
X113144261Y-111434880D01*
X113146840Y-111461067D01*
X113146840Y-111461074D01*
X113154559Y-111539444D01*
X113185059Y-111639990D01*
X113234589Y-111732655D01*
X113301245Y-111813875D01*
X113321595Y-111830576D01*
X118273109Y-116782091D01*
X118289805Y-116802435D01*
X118371025Y-116869091D01*
X118463689Y-116918621D01*
X118564235Y-116949121D01*
X118641448Y-116956726D01*
X118668670Y-116974915D01*
X118781922Y-117021825D01*
X118902149Y-117045740D01*
X119024731Y-117045740D01*
X119144958Y-117021825D01*
X119258210Y-116974915D01*
X119360133Y-116906812D01*
X119446812Y-116820133D01*
X119514915Y-116718210D01*
X119561825Y-116604958D01*
X119585740Y-116484731D01*
X119585740Y-116362149D01*
X119561825Y-116241922D01*
X119514915Y-116128670D01*
X119446812Y-116026747D01*
X119360133Y-115940068D01*
X119258210Y-115871965D01*
X119144958Y-115825055D01*
X119024731Y-115801140D01*
X118902149Y-115801140D01*
X118817650Y-115817948D01*
X116976455Y-113976753D01*
X116992530Y-113970095D01*
X117019581Y-113952020D01*
X117863659Y-113952020D01*
X117888808Y-113977169D01*
X117895155Y-114009078D01*
X117942065Y-114122330D01*
X118010168Y-114224253D01*
X118096847Y-114310932D01*
X118198770Y-114379035D01*
X118312022Y-114425945D01*
X118432249Y-114449860D01*
X118554831Y-114449860D01*
X118675058Y-114425945D01*
X118788310Y-114379035D01*
X118890233Y-114310932D01*
X118976912Y-114224253D01*
X119045015Y-114122330D01*
X119091925Y-114009078D01*
X119115840Y-113888851D01*
X119115840Y-113766269D01*
X119091925Y-113646042D01*
X119045015Y-113532790D01*
X118976912Y-113430867D01*
X118890233Y-113344188D01*
X118788310Y-113276085D01*
X118675058Y-113229175D01*
X118643149Y-113222828D01*
X118480293Y-113059972D01*
X118463595Y-113039625D01*
X118382375Y-112972969D01*
X118289711Y-112923439D01*
X118189165Y-112892939D01*
X118110795Y-112885220D01*
X118110787Y-112885220D01*
X118084600Y-112882641D01*
X118058413Y-112885220D01*
X117019581Y-112885220D01*
X116992530Y-112867145D01*
X116879278Y-112820235D01*
X116847369Y-112813888D01*
X115028980Y-110995499D01*
X115028980Y-107427547D01*
X115031559Y-107401360D01*
X115028980Y-107375173D01*
X115028980Y-107375165D01*
X115021261Y-107296795D01*
X114990761Y-107196249D01*
X114941231Y-107103585D01*
X114900300Y-107053711D01*
X114891273Y-107042711D01*
X114891271Y-107042709D01*
X114874575Y-107022365D01*
X114854231Y-107005669D01*
X113379976Y-105531414D01*
X113363275Y-105511065D01*
X113282055Y-105444409D01*
X113189391Y-105394879D01*
X113088845Y-105364379D01*
X113010475Y-105356660D01*
X113010467Y-105356660D01*
X112984280Y-105354081D01*
X112958093Y-105356660D01*
X109496101Y-105356660D01*
X109469050Y-105338585D01*
X109355798Y-105291675D01*
X109235571Y-105267760D01*
X109113281Y-105267760D01*
X109758441Y-104622600D01*
X121393433Y-104622600D01*
X121419620Y-104625179D01*
X121445807Y-104622600D01*
X121445815Y-104622600D01*
X121524185Y-104614881D01*
X121624731Y-104584381D01*
X121717395Y-104534851D01*
X121798615Y-104468195D01*
X121815316Y-104447846D01*
X122642218Y-103620944D01*
X122762960Y-103657570D01*
X122932616Y-103674280D01*
X123046064Y-103674280D01*
X123215720Y-103657570D01*
X123433401Y-103591538D01*
X123634016Y-103484307D01*
X123809858Y-103339998D01*
X123954167Y-103164156D01*
X124061398Y-102963541D01*
X124127430Y-102745860D01*
X124149727Y-102519480D01*
X124127430Y-102293100D01*
X124061398Y-102075419D01*
X123954167Y-101874804D01*
X123809858Y-101698962D01*
X123634016Y-101554653D01*
X123433401Y-101447422D01*
X123215720Y-101381390D01*
X123046064Y-101364680D01*
X122932616Y-101364680D01*
X122762960Y-101381390D01*
X122545279Y-101447422D01*
X122344664Y-101554653D01*
X122168822Y-101698962D01*
X122024513Y-101874804D01*
X121917282Y-102075419D01*
X121851250Y-102293100D01*
X121828953Y-102519480D01*
X121851250Y-102745860D01*
X121887876Y-102866602D01*
X121686211Y-103068268D01*
X121758314Y-102881101D01*
X121671768Y-102671880D01*
X120601740Y-102671880D01*
X120601740Y-102691880D01*
X120296940Y-102691880D01*
X120296940Y-102671880D01*
X119226912Y-102671880D01*
X119140366Y-102881101D01*
X119236066Y-103129521D01*
X119378392Y-103354497D01*
X119561874Y-103547384D01*
X119573813Y-103555800D01*
X119000733Y-103555800D01*
X119013998Y-103539637D01*
X119042300Y-103486686D01*
X119059729Y-103429231D01*
X119065614Y-103369480D01*
X119065614Y-101669480D01*
X119059729Y-101609729D01*
X119042300Y-101552274D01*
X119013998Y-101499323D01*
X118975908Y-101452912D01*
X118929497Y-101414822D01*
X118876546Y-101386520D01*
X118819091Y-101369091D01*
X118759340Y-101363206D01*
X117059340Y-101363206D01*
X116999589Y-101369091D01*
X116942134Y-101386520D01*
X116889183Y-101414822D01*
X116842772Y-101452912D01*
X116804682Y-101499323D01*
X116776380Y-101552274D01*
X116758951Y-101609729D01*
X116753066Y-101669480D01*
X116753066Y-103369480D01*
X116758951Y-103429231D01*
X116776380Y-103486686D01*
X116804682Y-103539637D01*
X116817947Y-103555800D01*
X114501889Y-103555800D01*
X114515165Y-103544905D01*
X114531866Y-103524555D01*
X116883142Y-101173280D01*
X120296938Y-101173280D01*
X120296938Y-101297949D01*
X120087720Y-101210513D01*
X120022791Y-101230202D01*
X119779461Y-101338191D01*
X119561874Y-101491576D01*
X119378392Y-101684463D01*
X119236066Y-101909439D01*
X119140366Y-102157859D01*
X119226912Y-102367080D01*
X120296940Y-102367080D01*
X120296940Y-102347080D01*
X120601740Y-102347080D01*
X120601740Y-102367080D01*
X121671768Y-102367080D01*
X121758314Y-102157859D01*
X121662614Y-101909439D01*
X121520288Y-101684463D01*
X121336806Y-101491576D01*
X121119219Y-101338191D01*
X120875889Y-101230202D01*
X120810960Y-101210513D01*
X120601742Y-101297949D01*
X120601742Y-101173280D01*
X123428799Y-101173280D01*
X124427876Y-102172357D01*
X124391250Y-102293100D01*
X124368953Y-102519480D01*
X124391250Y-102745860D01*
X124457282Y-102963541D01*
X124564513Y-103164156D01*
X124708822Y-103339998D01*
X124884664Y-103484307D01*
X125085279Y-103591538D01*
X125302960Y-103657570D01*
X125472616Y-103674280D01*
X125586064Y-103674280D01*
X125755720Y-103657570D01*
X125973401Y-103591538D01*
X126174016Y-103484307D01*
X126349858Y-103339998D01*
X126494167Y-103164156D01*
X126601398Y-102963541D01*
X126667430Y-102745860D01*
X126689727Y-102519480D01*
X126908953Y-102519480D01*
X126931250Y-102745860D01*
X126997282Y-102963541D01*
X127104513Y-103164156D01*
X127248822Y-103339998D01*
X127424664Y-103484307D01*
X127625279Y-103591538D01*
X127842960Y-103657570D01*
X128012616Y-103674280D01*
X128126064Y-103674280D01*
X128295720Y-103657570D01*
X128513401Y-103591538D01*
X128714016Y-103484307D01*
X128889858Y-103339998D01*
X129034167Y-103164156D01*
X129141398Y-102963541D01*
X129207430Y-102745860D01*
X129229727Y-102519480D01*
X129207430Y-102293100D01*
X129141398Y-102075419D01*
X129034167Y-101874804D01*
X128889858Y-101698962D01*
X128714016Y-101554653D01*
X128513401Y-101447422D01*
X128295720Y-101381390D01*
X128126064Y-101364680D01*
X128012616Y-101364680D01*
X127842960Y-101381390D01*
X127625279Y-101447422D01*
X127424664Y-101554653D01*
X127248822Y-101698962D01*
X127104513Y-101874804D01*
X126997282Y-102075419D01*
X126931250Y-102293100D01*
X126908953Y-102519480D01*
X126689727Y-102519480D01*
X126667430Y-102293100D01*
X126601398Y-102075419D01*
X126494167Y-101874804D01*
X126349858Y-101698962D01*
X126174016Y-101554653D01*
X125973401Y-101447422D01*
X125755720Y-101381390D01*
X125586064Y-101364680D01*
X125472616Y-101364680D01*
X125302960Y-101381390D01*
X125182217Y-101418016D01*
X124208501Y-100444300D01*
X144594580Y-100444300D01*
X144594580Y-132547360D01*
X144594580Y-132547360D01*
G37*
X144594580Y-132547360D02*
X112012541Y-132547360D01*
X112117053Y-132420012D01*
X112201070Y-132262827D01*
X112252807Y-132092272D01*
X112265900Y-131959339D01*
X112265900Y-131170461D01*
X112252807Y-131037528D01*
X112201070Y-130866973D01*
X112117053Y-130709788D01*
X112003985Y-130572015D01*
X111866211Y-130458947D01*
X111709026Y-130374930D01*
X111538471Y-130323193D01*
X111361100Y-130305723D01*
X111183728Y-130323193D01*
X111013173Y-130374930D01*
X110855988Y-130458947D01*
X110718215Y-130572015D01*
X110605147Y-130709789D01*
X110521130Y-130866974D01*
X110469393Y-131037529D01*
X110456300Y-131170462D01*
X110456300Y-131959339D01*
X110469393Y-132092272D01*
X110521131Y-132262827D01*
X110605148Y-132420012D01*
X110709660Y-132547360D01*
X105012541Y-132547360D01*
X105117053Y-132420012D01*
X105201070Y-132262827D01*
X105252807Y-132092272D01*
X105265900Y-131959339D01*
X105265900Y-131170461D01*
X105252807Y-131037528D01*
X105201070Y-130866973D01*
X105117053Y-130709788D01*
X105003985Y-130572015D01*
X104866212Y-130458947D01*
X104709027Y-130374930D01*
X104538472Y-130323193D01*
X104361100Y-130305723D01*
X104183729Y-130323193D01*
X104013174Y-130374930D01*
X103855989Y-130458947D01*
X103718216Y-130572015D01*
X103605148Y-130709788D01*
X103521131Y-130866973D01*
X103469393Y-131037528D01*
X103456300Y-131170461D01*
X103456300Y-131959338D01*
X103469393Y-132092271D01*
X103521130Y-132262826D01*
X103605147Y-132420011D01*
X103709659Y-132547360D01*
X100464620Y-132547360D01*
X100464620Y-126794221D01*
X101455764Y-127785365D01*
X101472465Y-127805715D01*
X101553685Y-127872371D01*
X101646349Y-127921901D01*
X101746895Y-127952401D01*
X101825265Y-127960120D01*
X101825266Y-127960120D01*
X101851460Y-127962700D01*
X101877654Y-127960120D01*
X104861608Y-127960120D01*
X104704641Y-128065002D01*
X104561202Y-128208441D01*
X104448503Y-128377107D01*
X104370874Y-128564518D01*
X104331300Y-128763474D01*
X104331300Y-128966326D01*
X104370874Y-129165282D01*
X104448503Y-129352693D01*
X104561202Y-129521359D01*
X104704641Y-129664798D01*
X104873307Y-129777497D01*
X105060718Y-129855126D01*
X105259674Y-129894700D01*
X105462526Y-129894700D01*
X105661482Y-129855126D01*
X105848893Y-129777497D01*
X106017559Y-129664798D01*
X106160998Y-129521359D01*
X106273697Y-129352693D01*
X106351326Y-129165282D01*
X106390900Y-128966326D01*
X106390900Y-128763474D01*
X106351326Y-128564518D01*
X106273697Y-128377107D01*
X106160998Y-128208441D01*
X106017559Y-128065002D01*
X105848893Y-127952303D01*
X105661482Y-127874674D01*
X105483859Y-127839343D01*
X105524835Y-127805715D01*
X105541536Y-127785365D01*
X108348742Y-124978160D01*
X109580388Y-124978160D01*
X109544525Y-124997329D01*
X109463305Y-125063985D01*
X109446609Y-125084329D01*
X107517690Y-127013249D01*
X107497346Y-127029945D01*
X107480650Y-127050289D01*
X107480647Y-127050292D01*
X107466056Y-127068072D01*
X107430690Y-127111165D01*
X107430689Y-127111167D01*
X107381159Y-127203830D01*
X107350659Y-127304376D01*
X107340361Y-127408940D01*
X107342941Y-127435137D01*
X107342940Y-129665219D01*
X107324865Y-129692270D01*
X107277955Y-129805522D01*
X107254040Y-129925749D01*
X107254040Y-130048331D01*
X107277955Y-130168558D01*
X107324865Y-130281810D01*
X107392968Y-130383733D01*
X107479647Y-130470412D01*
X107581570Y-130538515D01*
X107694822Y-130585425D01*
X107815049Y-130609340D01*
X107937631Y-130609340D01*
X108057858Y-130585425D01*
X108171110Y-130538515D01*
X108273033Y-130470412D01*
X108359712Y-130383733D01*
X108427815Y-130281810D01*
X108474725Y-130168558D01*
X108498640Y-130048331D01*
X108498640Y-129925749D01*
X108474725Y-129805522D01*
X108427815Y-129692270D01*
X108409740Y-129665219D01*
X108409740Y-128763474D01*
X109331300Y-128763474D01*
X109331300Y-128966326D01*
X109370874Y-129165282D01*
X109448503Y-129352693D01*
X109561202Y-129521359D01*
X109704641Y-129664798D01*
X109873307Y-129777497D01*
X110060718Y-129855126D01*
X110259674Y-129894700D01*
X110462526Y-129894700D01*
X110661482Y-129855126D01*
X110848893Y-129777497D01*
X111017559Y-129664798D01*
X111160998Y-129521359D01*
X111273697Y-129352693D01*
X111351326Y-129165282D01*
X111390900Y-128966326D01*
X111390900Y-128763474D01*
X111351326Y-128564518D01*
X111273697Y-128377107D01*
X111160998Y-128208441D01*
X111017559Y-128065002D01*
X110848893Y-127952303D01*
X110661482Y-127874674D01*
X110462526Y-127835100D01*
X110259674Y-127835100D01*
X110060718Y-127874674D01*
X109873307Y-127952303D01*
X109704641Y-128065002D01*
X109561202Y-128208441D01*
X109448503Y-128377107D01*
X109370874Y-128564518D01*
X109331300Y-128763474D01*
X108409740Y-128763474D01*
X108409740Y-127629881D01*
X110063242Y-125976380D01*
X111981739Y-125976380D01*
X112008790Y-125994455D01*
X112122042Y-126041365D01*
X112242269Y-126065280D01*
X112364851Y-126065280D01*
X112485078Y-126041365D01*
X112598330Y-125994455D01*
X112700253Y-125926352D01*
X112786932Y-125839673D01*
X112855035Y-125737750D01*
X112901945Y-125624498D01*
X112925860Y-125504271D01*
X112925860Y-125381689D01*
X112901945Y-125261462D01*
X112855035Y-125148210D01*
X112786932Y-125046287D01*
X112718805Y-124978160D01*
X115724979Y-124978160D01*
X120470209Y-129723391D01*
X120486905Y-129743735D01*
X120568125Y-129810391D01*
X120660789Y-129859921D01*
X120761335Y-129890421D01*
X120839705Y-129898140D01*
X120839712Y-129898140D01*
X120865899Y-129900719D01*
X120892086Y-129898140D01*
X130194533Y-129898140D01*
X130220720Y-129900719D01*
X130246907Y-129898140D01*
X130246915Y-129898140D01*
X130325285Y-129890421D01*
X130425831Y-129859921D01*
X130518495Y-129810391D01*
X130599715Y-129743735D01*
X130616416Y-129723385D01*
X131060721Y-129279080D01*
X136471877Y-129279080D01*
X136471877Y-132438680D01*
X143095763Y-132438680D01*
X143095763Y-129279080D01*
X136471877Y-129279080D01*
X131060721Y-129279080D01*
X133111201Y-127228600D01*
X137306747Y-127228600D01*
X137329306Y-127457646D01*
X137396116Y-127677891D01*
X137504611Y-127880869D01*
X137650619Y-128058781D01*
X137828531Y-128204789D01*
X138031509Y-128313284D01*
X138251754Y-128380094D01*
X138423404Y-128397000D01*
X138538196Y-128397000D01*
X138709846Y-128380094D01*
X138930091Y-128313284D01*
X139133069Y-128204789D01*
X139310981Y-128058781D01*
X139456989Y-127880869D01*
X139565484Y-127677891D01*
X139632294Y-127457646D01*
X139649200Y-127285996D01*
X139649200Y-127381002D01*
X139785565Y-127381002D01*
X139698316Y-127592361D01*
X139719095Y-127660879D01*
X139828440Y-127906523D01*
X139983607Y-128126115D01*
X140178633Y-128311216D01*
X140406023Y-128454712D01*
X140657038Y-128551090D01*
X140868400Y-128464713D01*
X140868400Y-127381000D01*
X141173200Y-127381000D01*
X141173200Y-128464713D01*
X141384562Y-128551090D01*
X141635577Y-128454712D01*
X141862967Y-128311216D01*
X142057993Y-128126115D01*
X142213160Y-127906523D01*
X142322505Y-127660879D01*
X142343284Y-127592361D01*
X142256034Y-127381000D01*
X141173200Y-127381000D01*
X140868400Y-127381000D01*
X140848400Y-127381000D01*
X140848400Y-127076200D01*
X140868400Y-127076200D01*
X140868400Y-127056200D01*
X141173200Y-127056200D01*
X141173200Y-127076200D01*
X142256034Y-127076200D01*
X142343284Y-126864839D01*
X142322505Y-126796321D01*
X142213160Y-126550677D01*
X142057993Y-126331085D01*
X141862967Y-126145984D01*
X141635577Y-126002488D01*
X141384562Y-125906110D01*
X141173202Y-125992486D01*
X141173202Y-125857000D01*
X141078196Y-125857000D01*
X141249846Y-125840094D01*
X141470091Y-125773284D01*
X141673069Y-125664789D01*
X141850981Y-125518781D01*
X141996989Y-125340869D01*
X142105484Y-125137891D01*
X142172294Y-124917646D01*
X142194853Y-124688600D01*
X142172294Y-124459554D01*
X142105484Y-124239309D01*
X141996989Y-124036331D01*
X141850981Y-123858419D01*
X141673069Y-123712411D01*
X141470091Y-123603916D01*
X141249846Y-123537106D01*
X141078196Y-123520200D01*
X140963404Y-123520200D01*
X140791754Y-123537106D01*
X140571509Y-123603916D01*
X140368531Y-123712411D01*
X140190619Y-123858419D01*
X140044611Y-124036331D01*
X139936116Y-124239309D01*
X139869306Y-124459554D01*
X139846747Y-124688600D01*
X139869306Y-124917646D01*
X139936116Y-125137891D01*
X140044611Y-125340869D01*
X140190619Y-125518781D01*
X140368531Y-125664789D01*
X140571509Y-125773284D01*
X140791754Y-125840094D01*
X140963404Y-125857000D01*
X140868398Y-125857000D01*
X140868398Y-125992486D01*
X140657038Y-125906110D01*
X140406023Y-126002488D01*
X140178633Y-126145984D01*
X139983607Y-126331085D01*
X139828440Y-126550677D01*
X139719095Y-126796321D01*
X139698316Y-126864839D01*
X139785565Y-127076198D01*
X139649200Y-127076198D01*
X139649200Y-127171204D01*
X139632294Y-126999554D01*
X139565484Y-126779309D01*
X139456989Y-126576331D01*
X139310981Y-126398419D01*
X139133069Y-126252411D01*
X138930091Y-126143916D01*
X138709846Y-126077106D01*
X138538196Y-126060200D01*
X138423404Y-126060200D01*
X138251754Y-126077106D01*
X138031509Y-126143916D01*
X137828531Y-126252411D01*
X137650619Y-126398419D01*
X137504611Y-126576331D01*
X137396116Y-126779309D01*
X137329306Y-126999554D01*
X137306747Y-127228600D01*
X133111201Y-127228600D01*
X133253991Y-127085811D01*
X133274335Y-127069115D01*
X133291890Y-127047725D01*
X133306481Y-127029945D01*
X133340991Y-126987895D01*
X133390521Y-126895231D01*
X133421021Y-126794685D01*
X133428740Y-126716315D01*
X133428740Y-126716307D01*
X133431319Y-126690120D01*
X133428740Y-126663933D01*
X133428740Y-125779046D01*
X133431319Y-125752859D01*
X133428740Y-125726672D01*
X133428740Y-125726665D01*
X133421021Y-125648295D01*
X133390521Y-125547749D01*
X133340991Y-125455085D01*
X133291033Y-125394211D01*
X133291031Y-125394209D01*
X133274335Y-125373865D01*
X133253991Y-125357169D01*
X132585422Y-124688600D01*
X137306747Y-124688600D01*
X137329306Y-124917646D01*
X137396116Y-125137891D01*
X137504611Y-125340869D01*
X137650619Y-125518781D01*
X137828531Y-125664789D01*
X138031509Y-125773284D01*
X138251754Y-125840094D01*
X138423404Y-125857000D01*
X138538196Y-125857000D01*
X138709846Y-125840094D01*
X138930091Y-125773284D01*
X139133069Y-125664789D01*
X139310981Y-125518781D01*
X139456989Y-125340869D01*
X139565484Y-125137891D01*
X139632294Y-124917646D01*
X139654853Y-124688600D01*
X139632294Y-124459554D01*
X139565484Y-124239309D01*
X139456989Y-124036331D01*
X139310981Y-123858419D01*
X139133069Y-123712411D01*
X138930091Y-123603916D01*
X138709846Y-123537106D01*
X138538196Y-123520200D01*
X138423404Y-123520200D01*
X138251754Y-123537106D01*
X138031509Y-123603916D01*
X137828531Y-123712411D01*
X137650619Y-123858419D01*
X137504611Y-124036331D01*
X137396116Y-124239309D01*
X137329306Y-124459554D01*
X137306747Y-124688600D01*
X132585422Y-124688600D01*
X129458720Y-121561899D01*
X129458720Y-121189266D01*
X129461299Y-121163079D01*
X129458720Y-121136892D01*
X129458720Y-121136885D01*
X129451001Y-121058515D01*
X129420501Y-120957969D01*
X129370971Y-120865305D01*
X129304315Y-120784085D01*
X129283971Y-120767389D01*
X128483572Y-119966991D01*
X128477225Y-119935082D01*
X128430315Y-119821830D01*
X128362212Y-119719907D01*
X128275533Y-119633228D01*
X128173610Y-119565125D01*
X128092877Y-119531684D01*
X129078225Y-118546336D01*
X129098575Y-118529635D01*
X129165231Y-118448415D01*
X129214761Y-118355751D01*
X129245261Y-118255205D01*
X129252980Y-118176835D01*
X129252980Y-118176834D01*
X129255560Y-118150640D01*
X129252980Y-118124446D01*
X129252980Y-117271488D01*
X129269582Y-117278365D01*
X129389809Y-117302280D01*
X129512391Y-117302280D01*
X129632618Y-117278365D01*
X129745870Y-117231455D01*
X129847793Y-117163352D01*
X129934472Y-117076673D01*
X130002575Y-116974750D01*
X130049485Y-116861498D01*
X130061509Y-116801053D01*
X132525770Y-114336792D01*
X137947400Y-119758422D01*
X137947401Y-120978726D01*
X137617200Y-120978726D01*
X137557449Y-120984611D01*
X137499994Y-121002040D01*
X137447043Y-121030342D01*
X137400632Y-121068432D01*
X137362542Y-121114843D01*
X137334240Y-121167794D01*
X137316811Y-121225249D01*
X137310926Y-121285000D01*
X137310926Y-123012200D01*
X137316811Y-123071951D01*
X137334240Y-123129406D01*
X137362542Y-123182357D01*
X137400632Y-123228768D01*
X137447043Y-123266858D01*
X137499994Y-123295160D01*
X137557449Y-123312589D01*
X137617200Y-123318474D01*
X139344400Y-123318474D01*
X139404151Y-123312589D01*
X139461606Y-123295160D01*
X139514557Y-123266858D01*
X139560968Y-123228768D01*
X139599058Y-123182357D01*
X139627360Y-123129406D01*
X139644789Y-123071951D01*
X139650674Y-123012200D01*
X139650674Y-122148600D01*
X139846747Y-122148600D01*
X139869306Y-122377646D01*
X139936116Y-122597891D01*
X140044611Y-122800869D01*
X140190619Y-122978781D01*
X140368531Y-123124789D01*
X140571509Y-123233284D01*
X140791754Y-123300094D01*
X140963404Y-123317000D01*
X141078196Y-123317000D01*
X141249846Y-123300094D01*
X141470091Y-123233284D01*
X141673069Y-123124789D01*
X141850981Y-122978781D01*
X141996989Y-122800869D01*
X142105484Y-122597891D01*
X142172294Y-122377646D01*
X142194853Y-122148600D01*
X142172294Y-121919554D01*
X142105484Y-121699309D01*
X141996989Y-121496331D01*
X141850981Y-121318419D01*
X141673069Y-121172411D01*
X141470091Y-121063916D01*
X141249846Y-120997106D01*
X141078196Y-120980200D01*
X140963404Y-120980200D01*
X140791754Y-120997106D01*
X140571509Y-121063916D01*
X140368531Y-121172411D01*
X140190619Y-121318419D01*
X140044611Y-121496331D01*
X139936116Y-121699309D01*
X139869306Y-121919554D01*
X139846747Y-122148600D01*
X139650674Y-122148600D01*
X139650674Y-121285000D01*
X139644789Y-121225249D01*
X139627360Y-121167794D01*
X139599058Y-121114843D01*
X139560968Y-121068432D01*
X139514557Y-121030342D01*
X139461606Y-121002040D01*
X139404151Y-120984611D01*
X139344400Y-120978726D01*
X139014200Y-120978726D01*
X139014200Y-119563666D01*
X139016779Y-119537479D01*
X139014200Y-119511292D01*
X139014200Y-119511285D01*
X139006481Y-119432915D01*
X138975981Y-119332369D01*
X138926451Y-119239705D01*
X138859795Y-119158485D01*
X138839451Y-119141789D01*
X132857240Y-113159579D01*
X132857240Y-111782101D01*
X132875315Y-111755050D01*
X132922225Y-111641798D01*
X132946140Y-111521571D01*
X132946140Y-111398989D01*
X132922225Y-111278762D01*
X132875315Y-111165510D01*
X132807212Y-111063587D01*
X132720533Y-110976908D01*
X132618610Y-110908805D01*
X132588662Y-110896400D01*
X137306747Y-110896400D01*
X137329306Y-111125446D01*
X137396116Y-111345691D01*
X137504611Y-111548669D01*
X137650619Y-111726581D01*
X137828531Y-111872589D01*
X138031509Y-111981084D01*
X138251754Y-112047894D01*
X138423404Y-112064800D01*
X138538196Y-112064800D01*
X138709846Y-112047894D01*
X138930091Y-111981084D01*
X139133069Y-111872589D01*
X139310981Y-111726581D01*
X139456989Y-111548669D01*
X139565484Y-111345691D01*
X139632294Y-111125446D01*
X139649200Y-110953796D01*
X139649200Y-111048802D01*
X139785565Y-111048802D01*
X139698316Y-111260161D01*
X139719095Y-111328679D01*
X139828440Y-111574323D01*
X139983607Y-111793915D01*
X140178633Y-111979016D01*
X140406023Y-112122512D01*
X140657038Y-112218890D01*
X140868400Y-112132513D01*
X140868400Y-111048800D01*
X141173200Y-111048800D01*
X141173200Y-112132513D01*
X141384562Y-112218890D01*
X141635577Y-112122512D01*
X141862967Y-111979016D01*
X142057993Y-111793915D01*
X142213160Y-111574323D01*
X142322505Y-111328679D01*
X142343284Y-111260161D01*
X142256034Y-111048800D01*
X141173200Y-111048800D01*
X140868400Y-111048800D01*
X140848400Y-111048800D01*
X140848400Y-110744000D01*
X140868400Y-110744000D01*
X140868400Y-110724000D01*
X141173200Y-110724000D01*
X141173200Y-110744000D01*
X142256034Y-110744000D01*
X142343284Y-110532639D01*
X142322505Y-110464121D01*
X142213160Y-110218477D01*
X142057993Y-109998885D01*
X141862967Y-109813784D01*
X141635577Y-109670288D01*
X141384562Y-109573910D01*
X141173202Y-109660286D01*
X141173202Y-109524800D01*
X141078196Y-109524800D01*
X141249846Y-109507894D01*
X141470091Y-109441084D01*
X141673069Y-109332589D01*
X141850981Y-109186581D01*
X141996989Y-109008669D01*
X142105484Y-108805691D01*
X142172294Y-108585446D01*
X142194853Y-108356400D01*
X142172294Y-108127354D01*
X142105484Y-107907109D01*
X141996989Y-107704131D01*
X141850981Y-107526219D01*
X141673069Y-107380211D01*
X141470091Y-107271716D01*
X141249846Y-107204906D01*
X141078196Y-107188000D01*
X140963404Y-107188000D01*
X140791754Y-107204906D01*
X140571509Y-107271716D01*
X140368531Y-107380211D01*
X140190619Y-107526219D01*
X140044611Y-107704131D01*
X139936116Y-107907109D01*
X139869306Y-108127354D01*
X139846747Y-108356400D01*
X139869306Y-108585446D01*
X139936116Y-108805691D01*
X140044611Y-109008669D01*
X140190619Y-109186581D01*
X140368531Y-109332589D01*
X140571509Y-109441084D01*
X140791754Y-109507894D01*
X140963404Y-109524800D01*
X140868398Y-109524800D01*
X140868398Y-109660286D01*
X140657038Y-109573910D01*
X140406023Y-109670288D01*
X140178633Y-109813784D01*
X139983607Y-109998885D01*
X139828440Y-110218477D01*
X139719095Y-110464121D01*
X139698316Y-110532639D01*
X139785565Y-110743998D01*
X139649200Y-110743998D01*
X139649200Y-110839004D01*
X139632294Y-110667354D01*
X139565484Y-110447109D01*
X139456989Y-110244131D01*
X139310981Y-110066219D01*
X139133069Y-109920211D01*
X138930091Y-109811716D01*
X138709846Y-109744906D01*
X138538196Y-109728000D01*
X138423404Y-109728000D01*
X138251754Y-109744906D01*
X138031509Y-109811716D01*
X137828531Y-109920211D01*
X137650619Y-110066219D01*
X137504611Y-110244131D01*
X137396116Y-110447109D01*
X137329306Y-110667354D01*
X137306747Y-110896400D01*
X132588662Y-110896400D01*
X132505358Y-110861895D01*
X132385131Y-110837980D01*
X132262549Y-110837980D01*
X132142322Y-110861895D01*
X132029070Y-110908805D01*
X131927147Y-110976908D01*
X131889500Y-111014555D01*
X131889500Y-110589021D01*
X132423405Y-110055116D01*
X132443755Y-110038415D01*
X132510411Y-109957195D01*
X132559941Y-109864531D01*
X132590441Y-109763985D01*
X132598160Y-109685615D01*
X132598160Y-109685614D01*
X132600740Y-109659420D01*
X132598160Y-109633226D01*
X132598160Y-108356400D01*
X137306747Y-108356400D01*
X137329306Y-108585446D01*
X137396116Y-108805691D01*
X137504611Y-109008669D01*
X137650619Y-109186581D01*
X137828531Y-109332589D01*
X138031509Y-109441084D01*
X138251754Y-109507894D01*
X138423404Y-109524800D01*
X138538196Y-109524800D01*
X138709846Y-109507894D01*
X138930091Y-109441084D01*
X139133069Y-109332589D01*
X139310981Y-109186581D01*
X139456989Y-109008669D01*
X139565484Y-108805691D01*
X139632294Y-108585446D01*
X139654853Y-108356400D01*
X139632294Y-108127354D01*
X139565484Y-107907109D01*
X139456989Y-107704131D01*
X139310981Y-107526219D01*
X139133069Y-107380211D01*
X138930091Y-107271716D01*
X138709846Y-107204906D01*
X138538196Y-107188000D01*
X138423404Y-107188000D01*
X138251754Y-107204906D01*
X138031509Y-107271716D01*
X137828531Y-107380211D01*
X137650619Y-107526219D01*
X137504611Y-107704131D01*
X137396116Y-107907109D01*
X137329306Y-108127354D01*
X137306747Y-108356400D01*
X132598160Y-108356400D01*
X132598160Y-104952800D01*
X137310926Y-104952800D01*
X137310926Y-106680000D01*
X137316811Y-106739751D01*
X137334240Y-106797206D01*
X137362542Y-106850157D01*
X137400632Y-106896568D01*
X137447043Y-106934658D01*
X137499994Y-106962960D01*
X137557449Y-106980389D01*
X137617200Y-106986274D01*
X139344400Y-106986274D01*
X139404151Y-106980389D01*
X139461606Y-106962960D01*
X139514557Y-106934658D01*
X139560968Y-106896568D01*
X139599058Y-106850157D01*
X139627360Y-106797206D01*
X139644789Y-106739751D01*
X139650674Y-106680000D01*
X139650674Y-105816400D01*
X139846747Y-105816400D01*
X139869306Y-106045446D01*
X139936116Y-106265691D01*
X140044611Y-106468669D01*
X140190619Y-106646581D01*
X140368531Y-106792589D01*
X140571509Y-106901084D01*
X140791754Y-106967894D01*
X140963404Y-106984800D01*
X141078196Y-106984800D01*
X141249846Y-106967894D01*
X141470091Y-106901084D01*
X141673069Y-106792589D01*
X141850981Y-106646581D01*
X141996989Y-106468669D01*
X142105484Y-106265691D01*
X142172294Y-106045446D01*
X142194853Y-105816400D01*
X142172294Y-105587354D01*
X142105484Y-105367109D01*
X141996989Y-105164131D01*
X141850981Y-104986219D01*
X141673069Y-104840211D01*
X141470091Y-104731716D01*
X141249846Y-104664906D01*
X141078196Y-104648000D01*
X140963404Y-104648000D01*
X140791754Y-104664906D01*
X140571509Y-104731716D01*
X140368531Y-104840211D01*
X140190619Y-104986219D01*
X140044611Y-105164131D01*
X139936116Y-105367109D01*
X139869306Y-105587354D01*
X139846747Y-105816400D01*
X139650674Y-105816400D01*
X139650674Y-104952800D01*
X139644789Y-104893049D01*
X139627360Y-104835594D01*
X139599058Y-104782643D01*
X139560968Y-104736232D01*
X139514557Y-104698142D01*
X139461606Y-104669840D01*
X139404151Y-104652411D01*
X139344400Y-104646526D01*
X137617200Y-104646526D01*
X137557449Y-104652411D01*
X137499994Y-104669840D01*
X137447043Y-104698142D01*
X137400632Y-104736232D01*
X137362542Y-104782643D01*
X137334240Y-104835594D01*
X137316811Y-104893049D01*
X137310926Y-104952800D01*
X132598160Y-104952800D01*
X132598160Y-104001094D01*
X132600740Y-103974900D01*
X132590441Y-103870336D01*
X132577735Y-103828447D01*
X132559941Y-103769789D01*
X132510411Y-103677125D01*
X132443755Y-103595905D01*
X132423405Y-103579204D01*
X131710804Y-102866603D01*
X131747430Y-102745860D01*
X131769727Y-102519480D01*
X131747430Y-102293100D01*
X131681398Y-102075419D01*
X131574167Y-101874804D01*
X131429858Y-101698962D01*
X131254016Y-101554653D01*
X131053401Y-101447422D01*
X130835720Y-101381390D01*
X130666064Y-101364680D01*
X130552616Y-101364680D01*
X130382960Y-101381390D01*
X130165279Y-101447422D01*
X129964664Y-101554653D01*
X129788822Y-101698962D01*
X129644513Y-101874804D01*
X129537282Y-102075419D01*
X129471250Y-102293100D01*
X129448953Y-102519480D01*
X129471250Y-102745860D01*
X129537282Y-102963541D01*
X129644513Y-103164156D01*
X129788822Y-103339998D01*
X129964664Y-103484307D01*
X130165279Y-103591538D01*
X130382960Y-103657570D01*
X130552616Y-103674280D01*
X130666064Y-103674280D01*
X130835720Y-103657570D01*
X130956463Y-103620944D01*
X131531361Y-104195842D01*
X131531361Y-105748591D01*
X131508127Y-105705124D01*
X131363818Y-105529282D01*
X131187976Y-105384973D01*
X130987361Y-105277742D01*
X130769680Y-105211710D01*
X130600024Y-105195000D01*
X130486576Y-105195000D01*
X130316920Y-105211710D01*
X130099239Y-105277742D01*
X129898624Y-105384973D01*
X129722782Y-105529282D01*
X129578473Y-105705124D01*
X129471242Y-105905739D01*
X129405210Y-106123420D01*
X129382913Y-106349800D01*
X129405210Y-106576180D01*
X129471242Y-106793861D01*
X129578473Y-106994476D01*
X129722782Y-107170318D01*
X129898624Y-107314627D01*
X130099239Y-107421858D01*
X130316920Y-107487890D01*
X130486576Y-107504600D01*
X130600024Y-107504600D01*
X130769680Y-107487890D01*
X130987361Y-107421858D01*
X131187976Y-107314627D01*
X131363818Y-107170318D01*
X131508127Y-106994476D01*
X131531360Y-106951009D01*
X131531360Y-108288590D01*
X131508127Y-108245124D01*
X131363818Y-108069282D01*
X131187976Y-107924973D01*
X130987361Y-107817742D01*
X130769680Y-107751710D01*
X130600024Y-107735000D01*
X130486576Y-107735000D01*
X130316920Y-107751710D01*
X130099239Y-107817742D01*
X129898624Y-107924973D01*
X129794000Y-108010835D01*
X129794000Y-107633294D01*
X129796580Y-107607100D01*
X129793214Y-107572929D01*
X129786281Y-107502535D01*
X129755781Y-107401989D01*
X129706251Y-107309325D01*
X129639595Y-107228105D01*
X129619245Y-107211404D01*
X129104764Y-106696923D01*
X129141390Y-106576180D01*
X129163687Y-106349800D01*
X129141390Y-106123420D01*
X129075358Y-105905739D01*
X128968127Y-105705124D01*
X128823818Y-105529282D01*
X128647976Y-105384973D01*
X128447361Y-105277742D01*
X128229680Y-105211710D01*
X128060024Y-105195000D01*
X127946576Y-105195000D01*
X127776920Y-105211710D01*
X127559239Y-105277742D01*
X127358624Y-105384973D01*
X127182782Y-105529282D01*
X127038473Y-105705124D01*
X126931242Y-105905739D01*
X126865210Y-106123420D01*
X126842913Y-106349800D01*
X126865210Y-106576180D01*
X126931242Y-106793861D01*
X127038473Y-106994476D01*
X127182782Y-107170318D01*
X127358624Y-107314627D01*
X127559239Y-107421858D01*
X127776920Y-107487890D01*
X127946576Y-107504600D01*
X128060024Y-107504600D01*
X128229680Y-107487890D01*
X128350423Y-107451264D01*
X128727201Y-107828042D01*
X128727201Y-107989991D01*
X128647976Y-107924973D01*
X128447361Y-107817742D01*
X128229680Y-107751710D01*
X128060024Y-107735000D01*
X127946576Y-107735000D01*
X127776920Y-107751710D01*
X127559239Y-107817742D01*
X127358624Y-107924973D01*
X127218440Y-108040018D01*
X127218440Y-107597726D01*
X127221019Y-107571539D01*
X127218440Y-107545352D01*
X127218440Y-107545345D01*
X127210721Y-107466975D01*
X127180221Y-107366429D01*
X127130691Y-107273765D01*
X127129009Y-107271716D01*
X127080733Y-107212891D01*
X127080731Y-107212889D01*
X127064035Y-107192545D01*
X127043691Y-107175849D01*
X126564764Y-106696922D01*
X126601390Y-106576180D01*
X126623687Y-106349800D01*
X126601390Y-106123420D01*
X126535358Y-105905739D01*
X126428127Y-105705124D01*
X126283818Y-105529282D01*
X126107976Y-105384973D01*
X125907361Y-105277742D01*
X125689680Y-105211710D01*
X125520024Y-105195000D01*
X125406576Y-105195000D01*
X125236920Y-105211710D01*
X125019239Y-105277742D01*
X124818624Y-105384973D01*
X124642782Y-105529282D01*
X124498473Y-105705124D01*
X124391242Y-105905739D01*
X124325210Y-106123420D01*
X124302913Y-106349800D01*
X124325210Y-106576180D01*
X124391242Y-106793861D01*
X124498473Y-106994476D01*
X124642782Y-107170318D01*
X124818624Y-107314627D01*
X125019239Y-107421858D01*
X125236920Y-107487890D01*
X125406576Y-107504600D01*
X125520024Y-107504600D01*
X125689680Y-107487890D01*
X125810422Y-107451264D01*
X126151641Y-107792483D01*
X126151641Y-107960808D01*
X126107976Y-107924973D01*
X125907361Y-107817742D01*
X125689680Y-107751710D01*
X125520024Y-107735000D01*
X125406576Y-107735000D01*
X125236920Y-107751710D01*
X125019239Y-107817742D01*
X124818624Y-107924973D01*
X124642782Y-108069282D01*
X124498473Y-108245124D01*
X124391242Y-108445739D01*
X124325210Y-108663420D01*
X124302913Y-108889800D01*
X124325210Y-109116180D01*
X124391242Y-109333861D01*
X124498473Y-109534476D01*
X124642782Y-109710318D01*
X124818624Y-109854627D01*
X125019239Y-109961858D01*
X125236920Y-110027890D01*
X125406576Y-110044600D01*
X125520024Y-110044600D01*
X125689680Y-110027890D01*
X125907361Y-109961858D01*
X126107976Y-109854627D01*
X126151640Y-109818793D01*
X126151640Y-110313515D01*
X126139393Y-110301268D01*
X126037470Y-110233165D01*
X125924218Y-110186255D01*
X125803991Y-110162340D01*
X125681409Y-110162340D01*
X125561182Y-110186255D01*
X125447930Y-110233165D01*
X125420879Y-110251240D01*
X124618267Y-110251240D01*
X124592080Y-110248661D01*
X124565893Y-110251240D01*
X124565885Y-110251240D01*
X124487515Y-110258959D01*
X124386969Y-110289459D01*
X124294305Y-110338989D01*
X124213085Y-110405645D01*
X124196389Y-110425989D01*
X123766285Y-110856094D01*
X123721632Y-110789267D01*
X123634953Y-110702588D01*
X123533030Y-110634485D01*
X123419778Y-110587575D01*
X123299551Y-110563660D01*
X123176969Y-110563660D01*
X123056742Y-110587575D01*
X122943490Y-110634485D01*
X122841567Y-110702588D01*
X122754888Y-110789267D01*
X122686785Y-110891190D01*
X122639875Y-111004442D01*
X122615960Y-111124669D01*
X122615960Y-111247251D01*
X122639875Y-111367478D01*
X122686785Y-111480730D01*
X122704861Y-111507782D01*
X122704861Y-111640660D01*
X121790460Y-110726259D01*
X121790460Y-109133487D01*
X121851242Y-109333861D01*
X121958473Y-109534476D01*
X122102782Y-109710318D01*
X122278624Y-109854627D01*
X122479239Y-109961858D01*
X122696920Y-110027890D01*
X122866576Y-110044600D01*
X122980024Y-110044600D01*
X123149680Y-110027890D01*
X123367361Y-109961858D01*
X123567976Y-109854627D01*
X123743818Y-109710318D01*
X123888127Y-109534476D01*
X123995358Y-109333861D01*
X124061390Y-109116180D01*
X124083687Y-108889800D01*
X124061390Y-108663420D01*
X123995358Y-108445739D01*
X123888127Y-108245124D01*
X123743818Y-108069282D01*
X123567976Y-107924973D01*
X123367361Y-107817742D01*
X123149680Y-107751710D01*
X122980024Y-107735000D01*
X122866576Y-107735000D01*
X122696920Y-107751710D01*
X122479239Y-107817742D01*
X122278624Y-107924973D01*
X122102782Y-108069282D01*
X121958473Y-108245124D01*
X121851242Y-108445739D01*
X121790460Y-108646113D01*
X121790460Y-108236981D01*
X122521368Y-107506074D01*
X123773300Y-107506074D01*
X123833051Y-107500189D01*
X123890506Y-107482760D01*
X123943457Y-107454458D01*
X123989868Y-107416368D01*
X124027958Y-107369957D01*
X124056260Y-107317006D01*
X124073689Y-107259551D01*
X124079574Y-107199800D01*
X124079574Y-105499800D01*
X124073689Y-105440049D01*
X124056260Y-105382594D01*
X124027958Y-105329643D01*
X123989868Y-105283232D01*
X123943457Y-105245142D01*
X123890506Y-105216840D01*
X123833051Y-105199411D01*
X123773300Y-105193526D01*
X122073300Y-105193526D01*
X122013549Y-105199411D01*
X121956094Y-105216840D01*
X121903143Y-105245142D01*
X121856732Y-105283232D01*
X121818642Y-105329643D01*
X121790340Y-105382594D01*
X121772911Y-105440049D01*
X121767026Y-105499800D01*
X121767026Y-106751732D01*
X120944640Y-107574119D01*
X120944640Y-107242126D01*
X120947219Y-107215939D01*
X120944640Y-107189752D01*
X120944640Y-107189745D01*
X120936921Y-107111375D01*
X120906421Y-107010829D01*
X120856891Y-106918165D01*
X120791621Y-106838634D01*
X120786105Y-106810902D01*
X120739195Y-106697650D01*
X120671092Y-106595727D01*
X120584413Y-106509048D01*
X120482490Y-106440945D01*
X120369238Y-106394035D01*
X120249011Y-106370120D01*
X120126429Y-106370120D01*
X120006202Y-106394035D01*
X119892950Y-106440945D01*
X119791027Y-106509048D01*
X119704348Y-106595727D01*
X119636245Y-106697650D01*
X119589335Y-106810902D01*
X119565420Y-106931129D01*
X119565420Y-107053711D01*
X119589335Y-107173938D01*
X119636245Y-107287190D01*
X119704348Y-107389113D01*
X119791027Y-107475792D01*
X119877841Y-107533799D01*
X119877840Y-119681473D01*
X119875261Y-119707660D01*
X119877840Y-119733847D01*
X119877840Y-119733854D01*
X119885559Y-119812224D01*
X119916059Y-119912770D01*
X119965589Y-120005435D01*
X120032245Y-120086655D01*
X120052595Y-120103356D01*
X121999289Y-122050051D01*
X122015985Y-122070395D01*
X122097205Y-122137051D01*
X122189869Y-122186581D01*
X122290415Y-122217081D01*
X122368785Y-122224800D01*
X122368792Y-122224800D01*
X122394979Y-122227379D01*
X122421166Y-122224800D01*
X123938513Y-122224800D01*
X123964700Y-122227379D01*
X123990887Y-122224800D01*
X123990895Y-122224800D01*
X124069265Y-122217081D01*
X124169811Y-122186581D01*
X124262475Y-122137051D01*
X124343695Y-122070395D01*
X124360396Y-122050045D01*
X124853449Y-121556992D01*
X124885358Y-121550645D01*
X124909580Y-121540612D01*
X124909580Y-121548373D01*
X124907001Y-121574560D01*
X124909580Y-121600747D01*
X124909580Y-121600754D01*
X124917299Y-121679124D01*
X124947799Y-121779670D01*
X124997329Y-121872335D01*
X125063985Y-121953555D01*
X125084334Y-121970255D01*
X125940608Y-122826530D01*
X125946955Y-122858438D01*
X125993865Y-122971690D01*
X126061968Y-123073613D01*
X126148647Y-123160292D01*
X126250570Y-123228395D01*
X126363822Y-123275305D01*
X126484049Y-123299220D01*
X126606631Y-123299220D01*
X126726858Y-123275305D01*
X126840110Y-123228395D01*
X126942033Y-123160292D01*
X127028712Y-123073613D01*
X127096815Y-122971690D01*
X127143725Y-122858438D01*
X127156745Y-122792986D01*
X127226604Y-122862845D01*
X127243305Y-122883195D01*
X127324525Y-122949851D01*
X127417189Y-122999381D01*
X127517735Y-123029881D01*
X127596105Y-123037600D01*
X127596106Y-123037600D01*
X127622300Y-123040180D01*
X127648494Y-123037600D01*
X127656079Y-123037600D01*
X127683130Y-123055675D01*
X127796382Y-123102585D01*
X127916609Y-123126500D01*
X128039191Y-123126500D01*
X128159418Y-123102585D01*
X128272670Y-123055675D01*
X128374593Y-122987572D01*
X128461272Y-122900893D01*
X128529375Y-122798970D01*
X128576285Y-122685718D01*
X128600200Y-122565491D01*
X128600200Y-122442909D01*
X128576285Y-122322682D01*
X128529375Y-122209430D01*
X128461272Y-122107507D01*
X128374593Y-122020828D01*
X128272670Y-121952725D01*
X128159418Y-121905815D01*
X128039191Y-121881900D01*
X127916609Y-121881900D01*
X127796382Y-121905815D01*
X127783565Y-121911124D01*
X127480550Y-121608109D01*
X127552358Y-121593825D01*
X127665610Y-121546915D01*
X127767533Y-121478812D01*
X127854212Y-121392133D01*
X127922315Y-121290210D01*
X127969225Y-121176958D01*
X127993140Y-121056731D01*
X127993140Y-120985241D01*
X128391920Y-121384022D01*
X128391920Y-121756653D01*
X128389341Y-121782840D01*
X128391920Y-121809027D01*
X128391920Y-121809035D01*
X128399639Y-121887405D01*
X128405224Y-121905815D01*
X128430139Y-121987950D01*
X128461333Y-122046309D01*
X128479670Y-122080615D01*
X128495777Y-122100241D01*
X128529627Y-122141488D01*
X128529630Y-122141491D01*
X128546326Y-122161835D01*
X128566670Y-122178531D01*
X132361940Y-125973802D01*
X132361941Y-126469177D01*
X129999779Y-128831340D01*
X124400999Y-128831340D01*
X124443605Y-128728478D01*
X124467520Y-128608251D01*
X124467520Y-128485669D01*
X124443605Y-128365442D01*
X124428270Y-128328420D01*
X129267433Y-128328420D01*
X129293620Y-128330999D01*
X129319807Y-128328420D01*
X129319815Y-128328420D01*
X129398185Y-128320701D01*
X129498731Y-128290201D01*
X129591395Y-128240671D01*
X129672615Y-128174015D01*
X129689316Y-128153665D01*
X131020569Y-126822412D01*
X131052478Y-126816065D01*
X131165730Y-126769155D01*
X131267653Y-126701052D01*
X131354332Y-126614373D01*
X131422435Y-126512450D01*
X131469345Y-126399198D01*
X131493260Y-126278971D01*
X131493260Y-126156389D01*
X131469345Y-126036162D01*
X131422435Y-125922910D01*
X131354332Y-125820987D01*
X131267653Y-125734308D01*
X131165730Y-125666205D01*
X131052478Y-125619295D01*
X130932251Y-125595380D01*
X130809669Y-125595380D01*
X130689442Y-125619295D01*
X130576190Y-125666205D01*
X130474267Y-125734308D01*
X130387588Y-125820987D01*
X130319485Y-125922910D01*
X130272575Y-126036162D01*
X130266228Y-126068071D01*
X129072679Y-127261620D01*
X121676122Y-127261620D01*
X117441980Y-123027479D01*
X117441980Y-122847568D01*
X117479308Y-122903433D01*
X117565987Y-122990112D01*
X117667910Y-123058215D01*
X117781162Y-123105125D01*
X117901389Y-123129040D01*
X118023971Y-123129040D01*
X118144198Y-123105125D01*
X118257450Y-123058215D01*
X118359373Y-122990112D01*
X118446052Y-122903433D01*
X118514155Y-122801510D01*
X118561065Y-122688258D01*
X118584980Y-122568031D01*
X118584980Y-122445449D01*
X118561065Y-122325222D01*
X118556292Y-122313700D01*
X118618331Y-122313700D01*
X118738558Y-122289785D01*
X118851810Y-122242875D01*
X118953733Y-122174772D01*
X119040412Y-122088093D01*
X119108515Y-121986170D01*
X119155425Y-121872918D01*
X119179340Y-121752691D01*
X119179340Y-121630109D01*
X119155425Y-121509882D01*
X119108515Y-121396630D01*
X119090440Y-121369579D01*
X119090440Y-118067606D01*
X119093019Y-118041419D01*
X119090440Y-118015232D01*
X119090440Y-118015225D01*
X119082721Y-117936855D01*
X119052221Y-117836309D01*
X119002691Y-117743645D01*
X118936035Y-117662425D01*
X118915691Y-117645729D01*
X110321813Y-109051852D01*
X110305115Y-109031505D01*
X110223895Y-108964849D01*
X110131231Y-108915319D01*
X110030685Y-108884819D01*
X109952315Y-108877100D01*
X109952307Y-108877100D01*
X109926120Y-108874521D01*
X109899933Y-108877100D01*
X109641029Y-108877100D01*
X109705435Y-108780710D01*
X109752345Y-108667458D01*
X109776260Y-108547231D01*
X109776260Y-108424649D01*
X109752345Y-108304422D01*
X109705435Y-108191170D01*
X109687360Y-108164119D01*
X109687360Y-107530861D01*
X109936241Y-107281980D01*
X112412819Y-107281980D01*
X113146841Y-108016003D01*
X113146840Y-111408693D01*
X113144261Y-111434880D01*
X113146840Y-111461067D01*
X113146840Y-111461074D01*
X113154559Y-111539444D01*
X113185059Y-111639990D01*
X113234589Y-111732655D01*
X113301245Y-111813875D01*
X113321595Y-111830576D01*
X118273109Y-116782091D01*
X118289805Y-116802435D01*
X118371025Y-116869091D01*
X118463689Y-116918621D01*
X118564235Y-116949121D01*
X118641448Y-116956726D01*
X118668670Y-116974915D01*
X118781922Y-117021825D01*
X118902149Y-117045740D01*
X119024731Y-117045740D01*
X119144958Y-117021825D01*
X119258210Y-116974915D01*
X119360133Y-116906812D01*
X119446812Y-116820133D01*
X119514915Y-116718210D01*
X119561825Y-116604958D01*
X119585740Y-116484731D01*
X119585740Y-116362149D01*
X119561825Y-116241922D01*
X119514915Y-116128670D01*
X119446812Y-116026747D01*
X119360133Y-115940068D01*
X119258210Y-115871965D01*
X119144958Y-115825055D01*
X119024731Y-115801140D01*
X118902149Y-115801140D01*
X118817650Y-115817948D01*
X116976455Y-113976753D01*
X116992530Y-113970095D01*
X117019581Y-113952020D01*
X117863659Y-113952020D01*
X117888808Y-113977169D01*
X117895155Y-114009078D01*
X117942065Y-114122330D01*
X118010168Y-114224253D01*
X118096847Y-114310932D01*
X118198770Y-114379035D01*
X118312022Y-114425945D01*
X118432249Y-114449860D01*
X118554831Y-114449860D01*
X118675058Y-114425945D01*
X118788310Y-114379035D01*
X118890233Y-114310932D01*
X118976912Y-114224253D01*
X119045015Y-114122330D01*
X119091925Y-114009078D01*
X119115840Y-113888851D01*
X119115840Y-113766269D01*
X119091925Y-113646042D01*
X119045015Y-113532790D01*
X118976912Y-113430867D01*
X118890233Y-113344188D01*
X118788310Y-113276085D01*
X118675058Y-113229175D01*
X118643149Y-113222828D01*
X118480293Y-113059972D01*
X118463595Y-113039625D01*
X118382375Y-112972969D01*
X118289711Y-112923439D01*
X118189165Y-112892939D01*
X118110795Y-112885220D01*
X118110787Y-112885220D01*
X118084600Y-112882641D01*
X118058413Y-112885220D01*
X117019581Y-112885220D01*
X116992530Y-112867145D01*
X116879278Y-112820235D01*
X116847369Y-112813888D01*
X115028980Y-110995499D01*
X115028980Y-107427547D01*
X115031559Y-107401360D01*
X115028980Y-107375173D01*
X115028980Y-107375165D01*
X115021261Y-107296795D01*
X114990761Y-107196249D01*
X114941231Y-107103585D01*
X114900300Y-107053711D01*
X114891273Y-107042711D01*
X114891271Y-107042709D01*
X114874575Y-107022365D01*
X114854231Y-107005669D01*
X113379976Y-105531414D01*
X113363275Y-105511065D01*
X113282055Y-105444409D01*
X113189391Y-105394879D01*
X113088845Y-105364379D01*
X113010475Y-105356660D01*
X113010467Y-105356660D01*
X112984280Y-105354081D01*
X112958093Y-105356660D01*
X109496101Y-105356660D01*
X109469050Y-105338585D01*
X109355798Y-105291675D01*
X109235571Y-105267760D01*
X109113281Y-105267760D01*
X109758441Y-104622600D01*
X121393433Y-104622600D01*
X121419620Y-104625179D01*
X121445807Y-104622600D01*
X121445815Y-104622600D01*
X121524185Y-104614881D01*
X121624731Y-104584381D01*
X121717395Y-104534851D01*
X121798615Y-104468195D01*
X121815316Y-104447846D01*
X122642218Y-103620944D01*
X122762960Y-103657570D01*
X122932616Y-103674280D01*
X123046064Y-103674280D01*
X123215720Y-103657570D01*
X123433401Y-103591538D01*
X123634016Y-103484307D01*
X123809858Y-103339998D01*
X123954167Y-103164156D01*
X124061398Y-102963541D01*
X124127430Y-102745860D01*
X124149727Y-102519480D01*
X124127430Y-102293100D01*
X124061398Y-102075419D01*
X123954167Y-101874804D01*
X123809858Y-101698962D01*
X123634016Y-101554653D01*
X123433401Y-101447422D01*
X123215720Y-101381390D01*
X123046064Y-101364680D01*
X122932616Y-101364680D01*
X122762960Y-101381390D01*
X122545279Y-101447422D01*
X122344664Y-101554653D01*
X122168822Y-101698962D01*
X122024513Y-101874804D01*
X121917282Y-102075419D01*
X121851250Y-102293100D01*
X121828953Y-102519480D01*
X121851250Y-102745860D01*
X121887876Y-102866602D01*
X121686211Y-103068268D01*
X121758314Y-102881101D01*
X121671768Y-102671880D01*
X120601740Y-102671880D01*
X120601740Y-102691880D01*
X120296940Y-102691880D01*
X120296940Y-102671880D01*
X119226912Y-102671880D01*
X119140366Y-102881101D01*
X119236066Y-103129521D01*
X119378392Y-103354497D01*
X119561874Y-103547384D01*
X119573813Y-103555800D01*
X119000733Y-103555800D01*
X119013998Y-103539637D01*
X119042300Y-103486686D01*
X119059729Y-103429231D01*
X119065614Y-103369480D01*
X119065614Y-101669480D01*
X119059729Y-101609729D01*
X119042300Y-101552274D01*
X119013998Y-101499323D01*
X118975908Y-101452912D01*
X118929497Y-101414822D01*
X118876546Y-101386520D01*
X118819091Y-101369091D01*
X118759340Y-101363206D01*
X117059340Y-101363206D01*
X116999589Y-101369091D01*
X116942134Y-101386520D01*
X116889183Y-101414822D01*
X116842772Y-101452912D01*
X116804682Y-101499323D01*
X116776380Y-101552274D01*
X116758951Y-101609729D01*
X116753066Y-101669480D01*
X116753066Y-103369480D01*
X116758951Y-103429231D01*
X116776380Y-103486686D01*
X116804682Y-103539637D01*
X116817947Y-103555800D01*
X114501889Y-103555800D01*
X114515165Y-103544905D01*
X114531866Y-103524555D01*
X116883142Y-101173280D01*
X120296938Y-101173280D01*
X120296938Y-101297949D01*
X120087720Y-101210513D01*
X120022791Y-101230202D01*
X119779461Y-101338191D01*
X119561874Y-101491576D01*
X119378392Y-101684463D01*
X119236066Y-101909439D01*
X119140366Y-102157859D01*
X119226912Y-102367080D01*
X120296940Y-102367080D01*
X120296940Y-102347080D01*
X120601740Y-102347080D01*
X120601740Y-102367080D01*
X121671768Y-102367080D01*
X121758314Y-102157859D01*
X121662614Y-101909439D01*
X121520288Y-101684463D01*
X121336806Y-101491576D01*
X121119219Y-101338191D01*
X120875889Y-101230202D01*
X120810960Y-101210513D01*
X120601742Y-101297949D01*
X120601742Y-101173280D01*
X123428799Y-101173280D01*
X124427876Y-102172357D01*
X124391250Y-102293100D01*
X124368953Y-102519480D01*
X124391250Y-102745860D01*
X124457282Y-102963541D01*
X124564513Y-103164156D01*
X124708822Y-103339998D01*
X124884664Y-103484307D01*
X125085279Y-103591538D01*
X125302960Y-103657570D01*
X125472616Y-103674280D01*
X125586064Y-103674280D01*
X125755720Y-103657570D01*
X125973401Y-103591538D01*
X126174016Y-103484307D01*
X126349858Y-103339998D01*
X126494167Y-103164156D01*
X126601398Y-102963541D01*
X126667430Y-102745860D01*
X126689727Y-102519480D01*
X126908953Y-102519480D01*
X126931250Y-102745860D01*
X126997282Y-102963541D01*
X127104513Y-103164156D01*
X127248822Y-103339998D01*
X127424664Y-103484307D01*
X127625279Y-103591538D01*
X127842960Y-103657570D01*
X128012616Y-103674280D01*
X128126064Y-103674280D01*
X128295720Y-103657570D01*
X128513401Y-103591538D01*
X128714016Y-103484307D01*
X128889858Y-103339998D01*
X129034167Y-103164156D01*
X129141398Y-102963541D01*
X129207430Y-102745860D01*
X129229727Y-102519480D01*
X129207430Y-102293100D01*
X129141398Y-102075419D01*
X129034167Y-101874804D01*
X128889858Y-101698962D01*
X128714016Y-101554653D01*
X128513401Y-101447422D01*
X128295720Y-101381390D01*
X128126064Y-101364680D01*
X128012616Y-101364680D01*
X127842960Y-101381390D01*
X127625279Y-101447422D01*
X127424664Y-101554653D01*
X127248822Y-101698962D01*
X127104513Y-101874804D01*
X126997282Y-102075419D01*
X126931250Y-102293100D01*
X126908953Y-102519480D01*
X126689727Y-102519480D01*
X126667430Y-102293100D01*
X126601398Y-102075419D01*
X126494167Y-101874804D01*
X126349858Y-101698962D01*
X126174016Y-101554653D01*
X125973401Y-101447422D01*
X125755720Y-101381390D01*
X125586064Y-101364680D01*
X125472616Y-101364680D01*
X125302960Y-101381390D01*
X125182217Y-101418016D01*
X124208501Y-100444300D01*
X144594580Y-100444300D01*
X144594580Y-132547360D01*
G36*
X108981915Y-102720259D02*
G01*
X108900695Y-102786915D01*
X108883997Y-102807262D01*
X107240830Y-104450429D01*
X107220486Y-104467125D01*
X107203790Y-104487469D01*
X107203787Y-104487472D01*
X107193029Y-104500581D01*
X107153830Y-104548345D01*
X107153829Y-104548347D01*
X107104299Y-104641010D01*
X107073799Y-104741556D01*
X107063501Y-104846120D01*
X107066081Y-104872317D01*
X107066080Y-109323353D01*
X107063501Y-109349540D01*
X107066080Y-109375727D01*
X107066080Y-109375734D01*
X107073799Y-109454104D01*
X107104299Y-109554650D01*
X107153829Y-109647315D01*
X107220485Y-109728535D01*
X107240834Y-109745235D01*
X108077549Y-110581951D01*
X108094245Y-110602295D01*
X108175465Y-110668951D01*
X108268129Y-110718481D01*
X108368675Y-110748981D01*
X108447045Y-110756700D01*
X108447052Y-110756700D01*
X108473239Y-110759279D01*
X108499426Y-110756700D01*
X109253059Y-110756700D01*
X110708479Y-112212120D01*
X104962921Y-112212120D01*
X104737112Y-111986311D01*
X104730765Y-111954402D01*
X104683855Y-111841150D01*
X104615752Y-111739227D01*
X104529073Y-111652548D01*
X104427150Y-111584445D01*
X104313898Y-111537535D01*
X104193671Y-111513620D01*
X104071089Y-111513620D01*
X103950862Y-111537535D01*
X103837610Y-111584445D01*
X103735687Y-111652548D01*
X103649008Y-111739227D01*
X103580905Y-111841150D01*
X103533995Y-111954402D01*
X103510080Y-112074629D01*
X103510080Y-112197211D01*
X103533995Y-112317438D01*
X103580905Y-112430690D01*
X103649008Y-112532613D01*
X103735687Y-112619292D01*
X103837610Y-112687395D01*
X103950862Y-112734305D01*
X103982771Y-112740652D01*
X104346284Y-113104165D01*
X104362985Y-113124515D01*
X104444205Y-113191171D01*
X104536869Y-113240701D01*
X104637415Y-113271201D01*
X104715785Y-113278920D01*
X104715786Y-113278920D01*
X104741980Y-113281500D01*
X104768174Y-113278920D01*
X108385783Y-113278920D01*
X108343570Y-113296405D01*
X108241647Y-113364508D01*
X108154968Y-113451187D01*
X108086865Y-113553110D01*
X108039955Y-113666362D01*
X108016040Y-113786589D01*
X108016040Y-113909171D01*
X108039955Y-114029398D01*
X108086865Y-114142650D01*
X108104941Y-114169702D01*
X108104940Y-115456459D01*
X108086865Y-115483510D01*
X108039955Y-115596762D01*
X108016040Y-115716989D01*
X108016040Y-115839571D01*
X108039955Y-115959798D01*
X108086865Y-116073050D01*
X108154968Y-116174973D01*
X108241647Y-116261652D01*
X108343570Y-116329755D01*
X108456822Y-116376665D01*
X108577049Y-116400580D01*
X108699631Y-116400580D01*
X108819858Y-116376665D01*
X108933110Y-116329755D01*
X109035033Y-116261652D01*
X109121712Y-116174973D01*
X109189815Y-116073050D01*
X109236725Y-115959798D01*
X109260640Y-115839571D01*
X109260640Y-115716989D01*
X109236725Y-115596762D01*
X109189815Y-115483510D01*
X109171740Y-115456459D01*
X109171740Y-114169701D01*
X109189815Y-114142650D01*
X109236725Y-114029398D01*
X109260640Y-113909171D01*
X109260640Y-113786589D01*
X109236725Y-113666362D01*
X109189815Y-113553110D01*
X109121712Y-113451187D01*
X109035033Y-113364508D01*
X108933110Y-113296405D01*
X108890897Y-113278920D01*
X110700859Y-113278920D01*
X116032222Y-118610284D01*
X115949822Y-118626675D01*
X115836570Y-118673585D01*
X115809519Y-118691660D01*
X105794327Y-118691660D01*
X105768140Y-118689081D01*
X105741953Y-118691660D01*
X105741945Y-118691660D01*
X105663575Y-118699379D01*
X105563029Y-118729879D01*
X105470365Y-118779409D01*
X105389145Y-118846065D01*
X105372449Y-118866409D01*
X105161080Y-119077778D01*
X105161080Y-117870909D01*
X107983020Y-117870909D01*
X107983020Y-117993491D01*
X108006935Y-118113718D01*
X108053845Y-118226970D01*
X108121948Y-118328893D01*
X108208627Y-118415572D01*
X108310550Y-118483675D01*
X108423802Y-118530585D01*
X108544029Y-118554500D01*
X108666611Y-118554500D01*
X108786838Y-118530585D01*
X108900090Y-118483675D01*
X109002013Y-118415572D01*
X109088692Y-118328893D01*
X109156795Y-118226970D01*
X109203705Y-118113718D01*
X109227620Y-117993491D01*
X109227620Y-117870909D01*
X109203705Y-117750682D01*
X109156795Y-117637430D01*
X109088692Y-117535507D01*
X109002013Y-117448828D01*
X108900090Y-117380725D01*
X108786838Y-117333815D01*
X108666611Y-117309900D01*
X108544029Y-117309900D01*
X108423802Y-117333815D01*
X108310550Y-117380725D01*
X108208627Y-117448828D01*
X108121948Y-117535507D01*
X108053845Y-117637430D01*
X108006935Y-117750682D01*
X107983020Y-117870909D01*
X105161080Y-117870909D01*
X105161080Y-116985566D01*
X105163659Y-116959379D01*
X105161080Y-116933192D01*
X105161080Y-116933185D01*
X105153361Y-116854815D01*
X105122861Y-116754269D01*
X105073331Y-116661605D01*
X105048153Y-116630926D01*
X105023373Y-116600731D01*
X105023371Y-116600729D01*
X105006675Y-116580385D01*
X104986331Y-116563689D01*
X103421180Y-114998539D01*
X103421180Y-109372361D01*
X104241561Y-108551980D01*
X106101639Y-108551980D01*
X106128690Y-108570055D01*
X106241942Y-108616965D01*
X106362169Y-108640880D01*
X106484751Y-108640880D01*
X106604978Y-108616965D01*
X106718230Y-108570055D01*
X106820153Y-108501952D01*
X106906832Y-108415273D01*
X106974935Y-108313350D01*
X107021845Y-108200098D01*
X107045760Y-108079871D01*
X107045760Y-107957289D01*
X107021845Y-107837062D01*
X106974935Y-107723810D01*
X106906832Y-107621887D01*
X106820153Y-107535208D01*
X106718230Y-107467105D01*
X106604978Y-107420195D01*
X106484751Y-107396280D01*
X106362169Y-107396280D01*
X106241942Y-107420195D01*
X106128690Y-107467105D01*
X106101639Y-107485180D01*
X104046814Y-107485180D01*
X104020620Y-107482600D01*
X103994426Y-107485180D01*
X103994425Y-107485180D01*
X103916055Y-107492899D01*
X103815509Y-107523399D01*
X103722845Y-107572929D01*
X103641625Y-107639585D01*
X103624924Y-107659935D01*
X102529135Y-108755724D01*
X102508785Y-108772425D01*
X102442129Y-108853645D01*
X102392599Y-108946310D01*
X102362099Y-109046856D01*
X102354380Y-109125226D01*
X102354380Y-109125233D01*
X102351801Y-109151420D01*
X102354380Y-109177607D01*
X102354381Y-115193283D01*
X102351801Y-115219480D01*
X102362099Y-115324044D01*
X102392599Y-115424590D01*
X102392600Y-115424591D01*
X102442130Y-115517255D01*
X102469454Y-115550549D01*
X102492087Y-115578128D01*
X102492090Y-115578131D01*
X102508786Y-115598475D01*
X102529130Y-115615171D01*
X104094280Y-117180322D01*
X104094281Y-119953660D01*
X104082352Y-119935807D01*
X103995673Y-119849128D01*
X103893750Y-119781025D01*
X103780498Y-119734115D01*
X103660271Y-119710200D01*
X103537689Y-119710200D01*
X103417462Y-119734115D01*
X103304210Y-119781025D01*
X103202287Y-119849128D01*
X103115608Y-119935807D01*
X103047505Y-120037730D01*
X103000595Y-120150982D01*
X102976680Y-120271209D01*
X102976680Y-120393791D01*
X103000595Y-120514018D01*
X103047505Y-120627270D01*
X103065581Y-120654322D01*
X103065580Y-126045719D01*
X103047505Y-126072770D01*
X103000595Y-126186022D01*
X102976680Y-126306249D01*
X102976680Y-126428831D01*
X103000595Y-126549058D01*
X103047505Y-126662310D01*
X103115608Y-126764233D01*
X103202287Y-126850912D01*
X103265755Y-126893320D01*
X102072401Y-126893320D01*
X101155500Y-125976419D01*
X101155500Y-122918176D01*
X101185305Y-122990132D01*
X101267909Y-123113757D01*
X101373043Y-123218891D01*
X101496668Y-123301495D01*
X101634033Y-123358393D01*
X101779859Y-123387400D01*
X101928541Y-123387400D01*
X102074367Y-123358393D01*
X102211732Y-123301495D01*
X102335357Y-123218891D01*
X102440491Y-123113757D01*
X102523095Y-122990132D01*
X102579993Y-122852767D01*
X102609000Y-122706941D01*
X102609000Y-122558259D01*
X102579993Y-122412433D01*
X102523095Y-122275068D01*
X102440491Y-122151443D01*
X102335357Y-122046309D01*
X102211732Y-121963705D01*
X102074367Y-121906807D01*
X101928541Y-121877800D01*
X101779859Y-121877800D01*
X101634033Y-121906807D01*
X101496668Y-121963705D01*
X101373043Y-122046309D01*
X101267909Y-122151443D01*
X101185305Y-122275068D01*
X101155500Y-122347024D01*
X101155500Y-119918176D01*
X101185305Y-119990132D01*
X101267909Y-120113757D01*
X101373043Y-120218891D01*
X101496668Y-120301495D01*
X101634033Y-120358393D01*
X101779859Y-120387400D01*
X101928541Y-120387400D01*
X102074367Y-120358393D01*
X102211732Y-120301495D01*
X102335357Y-120218891D01*
X102440491Y-120113757D01*
X102523095Y-119990132D01*
X102579993Y-119852767D01*
X102609000Y-119706941D01*
X102609000Y-119558259D01*
X102579993Y-119412433D01*
X102523095Y-119275068D01*
X102440491Y-119151443D01*
X102335357Y-119046309D01*
X102211732Y-118963705D01*
X102074367Y-118906807D01*
X101928541Y-118877800D01*
X101779859Y-118877800D01*
X101634033Y-118906807D01*
X101496668Y-118963705D01*
X101373043Y-119046309D01*
X101267909Y-119151443D01*
X101185305Y-119275068D01*
X101155500Y-119347024D01*
X101155500Y-107381001D01*
X105829062Y-102707440D01*
X109005898Y-102707440D01*
X108981915Y-102720259D01*
X108981915Y-102720259D01*
G37*
X108981915Y-102720259D02*
X108900695Y-102786915D01*
X108883997Y-102807262D01*
X107240830Y-104450429D01*
X107220486Y-104467125D01*
X107203790Y-104487469D01*
X107203787Y-104487472D01*
X107193029Y-104500581D01*
X107153830Y-104548345D01*
X107153829Y-104548347D01*
X107104299Y-104641010D01*
X107073799Y-104741556D01*
X107063501Y-104846120D01*
X107066081Y-104872317D01*
X107066080Y-109323353D01*
X107063501Y-109349540D01*
X107066080Y-109375727D01*
X107066080Y-109375734D01*
X107073799Y-109454104D01*
X107104299Y-109554650D01*
X107153829Y-109647315D01*
X107220485Y-109728535D01*
X107240834Y-109745235D01*
X108077549Y-110581951D01*
X108094245Y-110602295D01*
X108175465Y-110668951D01*
X108268129Y-110718481D01*
X108368675Y-110748981D01*
X108447045Y-110756700D01*
X108447052Y-110756700D01*
X108473239Y-110759279D01*
X108499426Y-110756700D01*
X109253059Y-110756700D01*
X110708479Y-112212120D01*
X104962921Y-112212120D01*
X104737112Y-111986311D01*
X104730765Y-111954402D01*
X104683855Y-111841150D01*
X104615752Y-111739227D01*
X104529073Y-111652548D01*
X104427150Y-111584445D01*
X104313898Y-111537535D01*
X104193671Y-111513620D01*
X104071089Y-111513620D01*
X103950862Y-111537535D01*
X103837610Y-111584445D01*
X103735687Y-111652548D01*
X103649008Y-111739227D01*
X103580905Y-111841150D01*
X103533995Y-111954402D01*
X103510080Y-112074629D01*
X103510080Y-112197211D01*
X103533995Y-112317438D01*
X103580905Y-112430690D01*
X103649008Y-112532613D01*
X103735687Y-112619292D01*
X103837610Y-112687395D01*
X103950862Y-112734305D01*
X103982771Y-112740652D01*
X104346284Y-113104165D01*
X104362985Y-113124515D01*
X104444205Y-113191171D01*
X104536869Y-113240701D01*
X104637415Y-113271201D01*
X104715785Y-113278920D01*
X104715786Y-113278920D01*
X104741980Y-113281500D01*
X104768174Y-113278920D01*
X108385783Y-113278920D01*
X108343570Y-113296405D01*
X108241647Y-113364508D01*
X108154968Y-113451187D01*
X108086865Y-113553110D01*
X108039955Y-113666362D01*
X108016040Y-113786589D01*
X108016040Y-113909171D01*
X108039955Y-114029398D01*
X108086865Y-114142650D01*
X108104941Y-114169702D01*
X108104940Y-115456459D01*
X108086865Y-115483510D01*
X108039955Y-115596762D01*
X108016040Y-115716989D01*
X108016040Y-115839571D01*
X108039955Y-115959798D01*
X108086865Y-116073050D01*
X108154968Y-116174973D01*
X108241647Y-116261652D01*
X108343570Y-116329755D01*
X108456822Y-116376665D01*
X108577049Y-116400580D01*
X108699631Y-116400580D01*
X108819858Y-116376665D01*
X108933110Y-116329755D01*
X109035033Y-116261652D01*
X109121712Y-116174973D01*
X109189815Y-116073050D01*
X109236725Y-115959798D01*
X109260640Y-115839571D01*
X109260640Y-115716989D01*
X109236725Y-115596762D01*
X109189815Y-115483510D01*
X109171740Y-115456459D01*
X109171740Y-114169701D01*
X109189815Y-114142650D01*
X109236725Y-114029398D01*
X109260640Y-113909171D01*
X109260640Y-113786589D01*
X109236725Y-113666362D01*
X109189815Y-113553110D01*
X109121712Y-113451187D01*
X109035033Y-113364508D01*
X108933110Y-113296405D01*
X108890897Y-113278920D01*
X110700859Y-113278920D01*
X116032222Y-118610284D01*
X115949822Y-118626675D01*
X115836570Y-118673585D01*
X115809519Y-118691660D01*
X105794327Y-118691660D01*
X105768140Y-118689081D01*
X105741953Y-118691660D01*
X105741945Y-118691660D01*
X105663575Y-118699379D01*
X105563029Y-118729879D01*
X105470365Y-118779409D01*
X105389145Y-118846065D01*
X105372449Y-118866409D01*
X105161080Y-119077778D01*
X105161080Y-117870909D01*
X107983020Y-117870909D01*
X107983020Y-117993491D01*
X108006935Y-118113718D01*
X108053845Y-118226970D01*
X108121948Y-118328893D01*
X108208627Y-118415572D01*
X108310550Y-118483675D01*
X108423802Y-118530585D01*
X108544029Y-118554500D01*
X108666611Y-118554500D01*
X108786838Y-118530585D01*
X108900090Y-118483675D01*
X109002013Y-118415572D01*
X109088692Y-118328893D01*
X109156795Y-118226970D01*
X109203705Y-118113718D01*
X109227620Y-117993491D01*
X109227620Y-117870909D01*
X109203705Y-117750682D01*
X109156795Y-117637430D01*
X109088692Y-117535507D01*
X109002013Y-117448828D01*
X108900090Y-117380725D01*
X108786838Y-117333815D01*
X108666611Y-117309900D01*
X108544029Y-117309900D01*
X108423802Y-117333815D01*
X108310550Y-117380725D01*
X108208627Y-117448828D01*
X108121948Y-117535507D01*
X108053845Y-117637430D01*
X108006935Y-117750682D01*
X107983020Y-117870909D01*
X105161080Y-117870909D01*
X105161080Y-116985566D01*
X105163659Y-116959379D01*
X105161080Y-116933192D01*
X105161080Y-116933185D01*
X105153361Y-116854815D01*
X105122861Y-116754269D01*
X105073331Y-116661605D01*
X105048153Y-116630926D01*
X105023373Y-116600731D01*
X105023371Y-116600729D01*
X105006675Y-116580385D01*
X104986331Y-116563689D01*
X103421180Y-114998539D01*
X103421180Y-109372361D01*
X104241561Y-108551980D01*
X106101639Y-108551980D01*
X106128690Y-108570055D01*
X106241942Y-108616965D01*
X106362169Y-108640880D01*
X106484751Y-108640880D01*
X106604978Y-108616965D01*
X106718230Y-108570055D01*
X106820153Y-108501952D01*
X106906832Y-108415273D01*
X106974935Y-108313350D01*
X107021845Y-108200098D01*
X107045760Y-108079871D01*
X107045760Y-107957289D01*
X107021845Y-107837062D01*
X106974935Y-107723810D01*
X106906832Y-107621887D01*
X106820153Y-107535208D01*
X106718230Y-107467105D01*
X106604978Y-107420195D01*
X106484751Y-107396280D01*
X106362169Y-107396280D01*
X106241942Y-107420195D01*
X106128690Y-107467105D01*
X106101639Y-107485180D01*
X104046814Y-107485180D01*
X104020620Y-107482600D01*
X103994426Y-107485180D01*
X103994425Y-107485180D01*
X103916055Y-107492899D01*
X103815509Y-107523399D01*
X103722845Y-107572929D01*
X103641625Y-107639585D01*
X103624924Y-107659935D01*
X102529135Y-108755724D01*
X102508785Y-108772425D01*
X102442129Y-108853645D01*
X102392599Y-108946310D01*
X102362099Y-109046856D01*
X102354380Y-109125226D01*
X102354380Y-109125233D01*
X102351801Y-109151420D01*
X102354380Y-109177607D01*
X102354381Y-115193283D01*
X102351801Y-115219480D01*
X102362099Y-115324044D01*
X102392599Y-115424590D01*
X102392600Y-115424591D01*
X102442130Y-115517255D01*
X102469454Y-115550549D01*
X102492087Y-115578128D01*
X102492090Y-115578131D01*
X102508786Y-115598475D01*
X102529130Y-115615171D01*
X104094280Y-117180322D01*
X104094281Y-119953660D01*
X104082352Y-119935807D01*
X103995673Y-119849128D01*
X103893750Y-119781025D01*
X103780498Y-119734115D01*
X103660271Y-119710200D01*
X103537689Y-119710200D01*
X103417462Y-119734115D01*
X103304210Y-119781025D01*
X103202287Y-119849128D01*
X103115608Y-119935807D01*
X103047505Y-120037730D01*
X103000595Y-120150982D01*
X102976680Y-120271209D01*
X102976680Y-120393791D01*
X103000595Y-120514018D01*
X103047505Y-120627270D01*
X103065581Y-120654322D01*
X103065580Y-126045719D01*
X103047505Y-126072770D01*
X103000595Y-126186022D01*
X102976680Y-126306249D01*
X102976680Y-126428831D01*
X103000595Y-126549058D01*
X103047505Y-126662310D01*
X103115608Y-126764233D01*
X103202287Y-126850912D01*
X103265755Y-126893320D01*
X102072401Y-126893320D01*
X101155500Y-125976419D01*
X101155500Y-122918176D01*
X101185305Y-122990132D01*
X101267909Y-123113757D01*
X101373043Y-123218891D01*
X101496668Y-123301495D01*
X101634033Y-123358393D01*
X101779859Y-123387400D01*
X101928541Y-123387400D01*
X102074367Y-123358393D01*
X102211732Y-123301495D01*
X102335357Y-123218891D01*
X102440491Y-123113757D01*
X102523095Y-122990132D01*
X102579993Y-122852767D01*
X102609000Y-122706941D01*
X102609000Y-122558259D01*
X102579993Y-122412433D01*
X102523095Y-122275068D01*
X102440491Y-122151443D01*
X102335357Y-122046309D01*
X102211732Y-121963705D01*
X102074367Y-121906807D01*
X101928541Y-121877800D01*
X101779859Y-121877800D01*
X101634033Y-121906807D01*
X101496668Y-121963705D01*
X101373043Y-122046309D01*
X101267909Y-122151443D01*
X101185305Y-122275068D01*
X101155500Y-122347024D01*
X101155500Y-119918176D01*
X101185305Y-119990132D01*
X101267909Y-120113757D01*
X101373043Y-120218891D01*
X101496668Y-120301495D01*
X101634033Y-120358393D01*
X101779859Y-120387400D01*
X101928541Y-120387400D01*
X102074367Y-120358393D01*
X102211732Y-120301495D01*
X102335357Y-120218891D01*
X102440491Y-120113757D01*
X102523095Y-119990132D01*
X102579993Y-119852767D01*
X102609000Y-119706941D01*
X102609000Y-119558259D01*
X102579993Y-119412433D01*
X102523095Y-119275068D01*
X102440491Y-119151443D01*
X102335357Y-119046309D01*
X102211732Y-118963705D01*
X102074367Y-118906807D01*
X101928541Y-118877800D01*
X101779859Y-118877800D01*
X101634033Y-118906807D01*
X101496668Y-118963705D01*
X101373043Y-119046309D01*
X101267909Y-119151443D01*
X101185305Y-119275068D01*
X101155500Y-119347024D01*
X101155500Y-107381001D01*
X105829062Y-102707440D01*
X109005898Y-102707440D01*
X108981915Y-102720259D01*
G36*
X115836570Y-119776535D02*
G01*
X115949822Y-119823445D01*
X116070049Y-119847360D01*
X116192631Y-119847360D01*
X116312858Y-119823445D01*
X116375181Y-119797630D01*
X116375180Y-121083195D01*
X116282378Y-121044755D01*
X116162151Y-121020840D01*
X116039569Y-121020840D01*
X115919342Y-121044755D01*
X115806090Y-121091665D01*
X115704167Y-121159768D01*
X115617488Y-121246447D01*
X115549385Y-121348370D01*
X115502475Y-121461622D01*
X115478560Y-121581849D01*
X115478560Y-121704431D01*
X115502475Y-121824658D01*
X115549385Y-121937910D01*
X115567461Y-121964962D01*
X115567460Y-123440673D01*
X115564881Y-123466860D01*
X115567460Y-123493047D01*
X115567460Y-123493054D01*
X115575179Y-123571424D01*
X115605679Y-123671970D01*
X115655209Y-123764635D01*
X115721865Y-123845855D01*
X115742215Y-123862556D01*
X115791019Y-123911360D01*
X108153986Y-123911360D01*
X108127799Y-123908781D01*
X108101612Y-123911360D01*
X108101605Y-123911360D01*
X108023235Y-123919079D01*
X107922689Y-123949579D01*
X107830025Y-123999109D01*
X107748805Y-124065765D01*
X107732109Y-124086109D01*
X104924899Y-126893320D01*
X103932205Y-126893320D01*
X103995673Y-126850912D01*
X104082352Y-126764233D01*
X104150455Y-126662310D01*
X104197365Y-126549058D01*
X104221280Y-126428831D01*
X104221280Y-126306249D01*
X104197365Y-126186022D01*
X104150455Y-126072770D01*
X104132380Y-126045719D01*
X104132380Y-120744362D01*
X104144308Y-120762213D01*
X104230987Y-120848892D01*
X104332910Y-120916995D01*
X104446162Y-120963905D01*
X104566389Y-120987820D01*
X104688971Y-120987820D01*
X104809198Y-120963905D01*
X104922450Y-120916995D01*
X105024373Y-120848892D01*
X105111052Y-120762213D01*
X105179155Y-120660290D01*
X105226065Y-120547038D01*
X105232412Y-120515129D01*
X105989082Y-119758460D01*
X115809519Y-119758460D01*
X115836570Y-119776535D01*
X115836570Y-119776535D01*
G37*
X115836570Y-119776535D02*
X115949822Y-119823445D01*
X116070049Y-119847360D01*
X116192631Y-119847360D01*
X116312858Y-119823445D01*
X116375181Y-119797630D01*
X116375180Y-121083195D01*
X116282378Y-121044755D01*
X116162151Y-121020840D01*
X116039569Y-121020840D01*
X115919342Y-121044755D01*
X115806090Y-121091665D01*
X115704167Y-121159768D01*
X115617488Y-121246447D01*
X115549385Y-121348370D01*
X115502475Y-121461622D01*
X115478560Y-121581849D01*
X115478560Y-121704431D01*
X115502475Y-121824658D01*
X115549385Y-121937910D01*
X115567461Y-121964962D01*
X115567460Y-123440673D01*
X115564881Y-123466860D01*
X115567460Y-123493047D01*
X115567460Y-123493054D01*
X115575179Y-123571424D01*
X115605679Y-123671970D01*
X115655209Y-123764635D01*
X115721865Y-123845855D01*
X115742215Y-123862556D01*
X115791019Y-123911360D01*
X108153986Y-123911360D01*
X108127799Y-123908781D01*
X108101612Y-123911360D01*
X108101605Y-123911360D01*
X108023235Y-123919079D01*
X107922689Y-123949579D01*
X107830025Y-123999109D01*
X107748805Y-124065765D01*
X107732109Y-124086109D01*
X104924899Y-126893320D01*
X103932205Y-126893320D01*
X103995673Y-126850912D01*
X104082352Y-126764233D01*
X104150455Y-126662310D01*
X104197365Y-126549058D01*
X104221280Y-126428831D01*
X104221280Y-126306249D01*
X104197365Y-126186022D01*
X104150455Y-126072770D01*
X104132380Y-126045719D01*
X104132380Y-120744362D01*
X104144308Y-120762213D01*
X104230987Y-120848892D01*
X104332910Y-120916995D01*
X104446162Y-120963905D01*
X104566389Y-120987820D01*
X104688971Y-120987820D01*
X104809198Y-120963905D01*
X104922450Y-120916995D01*
X105024373Y-120848892D01*
X105111052Y-120762213D01*
X105179155Y-120660290D01*
X105226065Y-120547038D01*
X105232412Y-120515129D01*
X105989082Y-119758460D01*
X115809519Y-119758460D01*
X115836570Y-119776535D01*
G36*
X121904761Y-112349242D02*
G01*
X121904760Y-117977133D01*
X121902181Y-118003320D01*
X121904760Y-118029507D01*
X121904760Y-118029514D01*
X121912479Y-118107884D01*
X121942979Y-118208430D01*
X121992509Y-118301095D01*
X122059165Y-118382315D01*
X122079515Y-118399016D01*
X122176328Y-118495828D01*
X122182675Y-118527738D01*
X122229585Y-118640990D01*
X122297688Y-118742913D01*
X122384367Y-118829592D01*
X122486290Y-118897695D01*
X122599542Y-118944605D01*
X122719769Y-118968520D01*
X122842351Y-118968520D01*
X122962578Y-118944605D01*
X123075830Y-118897695D01*
X123177753Y-118829592D01*
X123264432Y-118742913D01*
X123332535Y-118640990D01*
X123379445Y-118527738D01*
X123403360Y-118407511D01*
X123403360Y-118284929D01*
X123382462Y-118179868D01*
X123419778Y-118172445D01*
X123533030Y-118125535D01*
X123605252Y-118077278D01*
X123636745Y-118153310D01*
X123704848Y-118255233D01*
X123791527Y-118341912D01*
X123893450Y-118410015D01*
X124006702Y-118456925D01*
X124126929Y-118480840D01*
X124127299Y-118480840D01*
X123741431Y-118866708D01*
X123709522Y-118873055D01*
X123596270Y-118919965D01*
X123494347Y-118988068D01*
X123407668Y-119074747D01*
X123339565Y-119176670D01*
X123292655Y-119289922D01*
X123268740Y-119410149D01*
X123268740Y-119532731D01*
X123292655Y-119652958D01*
X123339565Y-119766210D01*
X123407668Y-119868133D01*
X123494347Y-119954812D01*
X123596270Y-120022915D01*
X123709522Y-120069825D01*
X123829749Y-120093740D01*
X123952331Y-120093740D01*
X124072558Y-120069825D01*
X124185810Y-120022915D01*
X124287733Y-119954812D01*
X124374412Y-119868133D01*
X124442515Y-119766210D01*
X124489425Y-119652958D01*
X124495772Y-119621049D01*
X124930446Y-119186375D01*
X124917299Y-119229716D01*
X124907001Y-119334280D01*
X124909581Y-119360477D01*
X124909581Y-120363908D01*
X124885358Y-120353875D01*
X124765131Y-120329960D01*
X124642549Y-120329960D01*
X124522322Y-120353875D01*
X124409070Y-120400785D01*
X124307147Y-120468888D01*
X124220468Y-120555567D01*
X124152365Y-120657490D01*
X124105455Y-120770742D01*
X124099108Y-120802651D01*
X123743759Y-121158000D01*
X122615922Y-121158000D01*
X120944640Y-119486719D01*
X120944640Y-111389121D01*
X121904761Y-112349242D01*
X121904761Y-112349242D01*
G37*
X121904761Y-112349242D02*
X121904760Y-117977133D01*
X121902181Y-118003320D01*
X121904760Y-118029507D01*
X121904760Y-118029514D01*
X121912479Y-118107884D01*
X121942979Y-118208430D01*
X121992509Y-118301095D01*
X122059165Y-118382315D01*
X122079515Y-118399016D01*
X122176328Y-118495828D01*
X122182675Y-118527738D01*
X122229585Y-118640990D01*
X122297688Y-118742913D01*
X122384367Y-118829592D01*
X122486290Y-118897695D01*
X122599542Y-118944605D01*
X122719769Y-118968520D01*
X122842351Y-118968520D01*
X122962578Y-118944605D01*
X123075830Y-118897695D01*
X123177753Y-118829592D01*
X123264432Y-118742913D01*
X123332535Y-118640990D01*
X123379445Y-118527738D01*
X123403360Y-118407511D01*
X123403360Y-118284929D01*
X123382462Y-118179868D01*
X123419778Y-118172445D01*
X123533030Y-118125535D01*
X123605252Y-118077278D01*
X123636745Y-118153310D01*
X123704848Y-118255233D01*
X123791527Y-118341912D01*
X123893450Y-118410015D01*
X124006702Y-118456925D01*
X124126929Y-118480840D01*
X124127299Y-118480840D01*
X123741431Y-118866708D01*
X123709522Y-118873055D01*
X123596270Y-118919965D01*
X123494347Y-118988068D01*
X123407668Y-119074747D01*
X123339565Y-119176670D01*
X123292655Y-119289922D01*
X123268740Y-119410149D01*
X123268740Y-119532731D01*
X123292655Y-119652958D01*
X123339565Y-119766210D01*
X123407668Y-119868133D01*
X123494347Y-119954812D01*
X123596270Y-120022915D01*
X123709522Y-120069825D01*
X123829749Y-120093740D01*
X123952331Y-120093740D01*
X124072558Y-120069825D01*
X124185810Y-120022915D01*
X124287733Y-119954812D01*
X124374412Y-119868133D01*
X124442515Y-119766210D01*
X124489425Y-119652958D01*
X124495772Y-119621049D01*
X124930446Y-119186375D01*
X124917299Y-119229716D01*
X124907001Y-119334280D01*
X124909581Y-119360477D01*
X124909581Y-120363908D01*
X124885358Y-120353875D01*
X124765131Y-120329960D01*
X124642549Y-120329960D01*
X124522322Y-120353875D01*
X124409070Y-120400785D01*
X124307147Y-120468888D01*
X124220468Y-120555567D01*
X124152365Y-120657490D01*
X124105455Y-120770742D01*
X124099108Y-120802651D01*
X123743759Y-121158000D01*
X122615922Y-121158000D01*
X120944640Y-119486719D01*
X120944640Y-111389121D01*
X121904761Y-112349242D01*
G36*
X126151640Y-111282519D02*
G01*
X124817630Y-112616529D01*
X124797286Y-112633225D01*
X124780590Y-112653569D01*
X124780587Y-112653572D01*
X124757954Y-112681151D01*
X124730630Y-112714445D01*
X124730629Y-112714447D01*
X124681099Y-112807110D01*
X124650599Y-112907656D01*
X124640301Y-113012220D01*
X124642881Y-113038417D01*
X124642880Y-117386859D01*
X124624805Y-117413910D01*
X124624468Y-117414723D01*
X124584913Y-117375168D01*
X124531120Y-117339225D01*
X124531120Y-111599941D01*
X124813022Y-111318040D01*
X125420879Y-111318040D01*
X125447930Y-111336115D01*
X125561182Y-111383025D01*
X125681409Y-111406940D01*
X125803991Y-111406940D01*
X125924218Y-111383025D01*
X126037470Y-111336115D01*
X126139393Y-111268012D01*
X126151640Y-111255765D01*
X126151640Y-111282519D01*
X126151640Y-111282519D01*
G37*
X126151640Y-111282519D02*
X124817630Y-112616529D01*
X124797286Y-112633225D01*
X124780590Y-112653569D01*
X124780587Y-112653572D01*
X124757954Y-112681151D01*
X124730630Y-112714445D01*
X124730629Y-112714447D01*
X124681099Y-112807110D01*
X124650599Y-112907656D01*
X124640301Y-113012220D01*
X124642881Y-113038417D01*
X124642880Y-117386859D01*
X124624805Y-117413910D01*
X124624468Y-117414723D01*
X124584913Y-117375168D01*
X124531120Y-117339225D01*
X124531120Y-111599941D01*
X124813022Y-111318040D01*
X125420879Y-111318040D01*
X125447930Y-111336115D01*
X125561182Y-111383025D01*
X125681409Y-111406940D01*
X125803991Y-111406940D01*
X125924218Y-111383025D01*
X126037470Y-111336115D01*
X126139393Y-111268012D01*
X126151640Y-111255765D01*
X126151640Y-111282519D01*
G36*
X131790440Y-113354331D02*
G01*
X131787861Y-113380520D01*
X131790440Y-113406708D01*
X131790440Y-113563438D01*
X129272955Y-116080924D01*
X129269582Y-116081595D01*
X129252980Y-116088472D01*
X129252980Y-115059421D01*
X131714751Y-112597651D01*
X131735095Y-112580955D01*
X131790441Y-112513517D01*
X131790440Y-113354331D01*
X131790440Y-113354331D01*
G37*
X131790440Y-113354331D02*
X131787861Y-113380520D01*
X131790440Y-113406708D01*
X131790440Y-113563438D01*
X129272955Y-116080924D01*
X129269582Y-116081595D01*
X129252980Y-116088472D01*
X129252980Y-115059421D01*
X131714751Y-112597651D01*
X131735095Y-112580955D01*
X131790441Y-112513517D01*
X131790440Y-113354331D01*
G36*
X113915229Y-102632510D02*
G01*
X111719315Y-102632510D01*
X111781092Y-102570733D01*
X111849195Y-102468810D01*
X111896105Y-102355558D01*
X111920020Y-102235331D01*
X111920020Y-102112749D01*
X111896105Y-101992522D01*
X111849195Y-101879270D01*
X111781092Y-101777347D01*
X111694413Y-101690668D01*
X111592490Y-101622565D01*
X111479238Y-101575655D01*
X111359011Y-101551740D01*
X111236429Y-101551740D01*
X111116202Y-101575655D01*
X111002950Y-101622565D01*
X110975899Y-101640640D01*
X105634306Y-101640640D01*
X105608119Y-101638061D01*
X105581932Y-101640640D01*
X105581925Y-101640640D01*
X105503555Y-101648359D01*
X105403009Y-101678859D01*
X105310345Y-101728389D01*
X105229125Y-101795045D01*
X105212429Y-101815389D01*
X100464620Y-106563199D01*
X100464620Y-100444300D01*
X116103438Y-100444300D01*
X113915229Y-102632510D01*
X113915229Y-102632510D01*
G37*
X113915229Y-102632510D02*
X111719315Y-102632510D01*
X111781092Y-102570733D01*
X111849195Y-102468810D01*
X111896105Y-102355558D01*
X111920020Y-102235331D01*
X111920020Y-102112749D01*
X111896105Y-101992522D01*
X111849195Y-101879270D01*
X111781092Y-101777347D01*
X111694413Y-101690668D01*
X111592490Y-101622565D01*
X111479238Y-101575655D01*
X111359011Y-101551740D01*
X111236429Y-101551740D01*
X111116202Y-101575655D01*
X111002950Y-101622565D01*
X110975899Y-101640640D01*
X105634306Y-101640640D01*
X105608119Y-101638061D01*
X105581932Y-101640640D01*
X105581925Y-101640640D01*
X105503555Y-101648359D01*
X105403009Y-101678859D01*
X105310345Y-101728389D01*
X105229125Y-101795045D01*
X105212429Y-101815389D01*
X100464620Y-106563199D01*
X100464620Y-100444300D01*
X116103438Y-100444300D01*
X113915229Y-102632510D01*
M02*
