G04 #@! TF.GenerationSoftware,KiCad,Pcbnew,(5.1.0-0)*
G04 #@! TF.CreationDate,2020-05-26T23:43:54-04:00*
G04 #@! TF.ProjectId,ROCKETasp_v3,524f434b-4554-4617-9370-5f76332e6b69,3.0*
G04 #@! TF.SameCoordinates,Original*
G04 #@! TF.FileFunction,Soldermask,Top*
G04 #@! TF.FilePolarity,Negative*
%FSLAX46Y46*%
G04 Gerber Fmt 4.6, Leading zero omitted, Abs format (unit mm)*
G04 Created by KiCad (PCBNEW (5.1.0-0)) date 2020-05-26 23:43:54*
%MOMM*%
%LPD*%
G04 APERTURE LIST*
%ADD10C,0.100000*%
%ADD11C,1.275000*%
%ADD12C,1.375000*%
%ADD13R,1.000000X1.600000*%
%ADD14R,1.200000X1.300000*%
%ADD15C,1.650000*%
%ADD16R,1.900000X2.300000*%
%ADD17C,1.850000*%
%ADD18R,0.800000X1.750000*%
%ADD19O,1.600000X2.300000*%
%ADD20R,1.600000X2.300000*%
%ADD21O,2.127200X2.127200*%
%ADD22R,2.127200X2.127200*%
%ADD23R,2.100000X2.100000*%
%ADD24O,2.100000X2.100000*%
%ADD25R,2.840000X1.520000*%
%ADD26C,1.300000*%
%ADD27R,1.900000X1.100000*%
%ADD28R,1.200000X1.400000*%
%ADD29R,0.950000X2.000000*%
%ADD30R,2.000000X0.950000*%
%ADD31R,2.400000X4.200000*%
%ADD32R,2.400000X1.900000*%
%ADD33R,2.000000X1.700000*%
G04 APERTURE END LIST*
D10*
G36*
X125330093Y-129348435D02*
G01*
X125361035Y-129353025D01*
X125391378Y-129360625D01*
X125420830Y-129371163D01*
X125449108Y-129384538D01*
X125475938Y-129400619D01*
X125501063Y-129419253D01*
X125524240Y-129440260D01*
X125545247Y-129463437D01*
X125563881Y-129488562D01*
X125579962Y-129515392D01*
X125593337Y-129543670D01*
X125603875Y-129573122D01*
X125611475Y-129603465D01*
X125616065Y-129634407D01*
X125617600Y-129665650D01*
X125617600Y-130303150D01*
X125616065Y-130334393D01*
X125611475Y-130365335D01*
X125603875Y-130395678D01*
X125593337Y-130425130D01*
X125579962Y-130453408D01*
X125563881Y-130480238D01*
X125545247Y-130505363D01*
X125524240Y-130528540D01*
X125501063Y-130549547D01*
X125475938Y-130568181D01*
X125449108Y-130584262D01*
X125420830Y-130597637D01*
X125391378Y-130608175D01*
X125361035Y-130615775D01*
X125330093Y-130620365D01*
X125298850Y-130621900D01*
X124586350Y-130621900D01*
X124555107Y-130620365D01*
X124524165Y-130615775D01*
X124493822Y-130608175D01*
X124464370Y-130597637D01*
X124436092Y-130584262D01*
X124409262Y-130568181D01*
X124384137Y-130549547D01*
X124360960Y-130528540D01*
X124339953Y-130505363D01*
X124321319Y-130480238D01*
X124305238Y-130453408D01*
X124291863Y-130425130D01*
X124281325Y-130395678D01*
X124273725Y-130365335D01*
X124269135Y-130334393D01*
X124267600Y-130303150D01*
X124267600Y-129665650D01*
X124269135Y-129634407D01*
X124273725Y-129603465D01*
X124281325Y-129573122D01*
X124291863Y-129543670D01*
X124305238Y-129515392D01*
X124321319Y-129488562D01*
X124339953Y-129463437D01*
X124360960Y-129440260D01*
X124384137Y-129419253D01*
X124409262Y-129400619D01*
X124436092Y-129384538D01*
X124464370Y-129371163D01*
X124493822Y-129360625D01*
X124524165Y-129353025D01*
X124555107Y-129348435D01*
X124586350Y-129346900D01*
X125298850Y-129346900D01*
X125330093Y-129348435D01*
X125330093Y-129348435D01*
G37*
D11*
X124942600Y-129984400D03*
D10*
G36*
X125330093Y-130923435D02*
G01*
X125361035Y-130928025D01*
X125391378Y-130935625D01*
X125420830Y-130946163D01*
X125449108Y-130959538D01*
X125475938Y-130975619D01*
X125501063Y-130994253D01*
X125524240Y-131015260D01*
X125545247Y-131038437D01*
X125563881Y-131063562D01*
X125579962Y-131090392D01*
X125593337Y-131118670D01*
X125603875Y-131148122D01*
X125611475Y-131178465D01*
X125616065Y-131209407D01*
X125617600Y-131240650D01*
X125617600Y-131878150D01*
X125616065Y-131909393D01*
X125611475Y-131940335D01*
X125603875Y-131970678D01*
X125593337Y-132000130D01*
X125579962Y-132028408D01*
X125563881Y-132055238D01*
X125545247Y-132080363D01*
X125524240Y-132103540D01*
X125501063Y-132124547D01*
X125475938Y-132143181D01*
X125449108Y-132159262D01*
X125420830Y-132172637D01*
X125391378Y-132183175D01*
X125361035Y-132190775D01*
X125330093Y-132195365D01*
X125298850Y-132196900D01*
X124586350Y-132196900D01*
X124555107Y-132195365D01*
X124524165Y-132190775D01*
X124493822Y-132183175D01*
X124464370Y-132172637D01*
X124436092Y-132159262D01*
X124409262Y-132143181D01*
X124384137Y-132124547D01*
X124360960Y-132103540D01*
X124339953Y-132080363D01*
X124321319Y-132055238D01*
X124305238Y-132028408D01*
X124291863Y-132000130D01*
X124281325Y-131970678D01*
X124273725Y-131940335D01*
X124269135Y-131909393D01*
X124267600Y-131878150D01*
X124267600Y-131240650D01*
X124269135Y-131209407D01*
X124273725Y-131178465D01*
X124281325Y-131148122D01*
X124291863Y-131118670D01*
X124305238Y-131090392D01*
X124321319Y-131063562D01*
X124339953Y-131038437D01*
X124360960Y-131015260D01*
X124384137Y-130994253D01*
X124409262Y-130975619D01*
X124436092Y-130959538D01*
X124464370Y-130946163D01*
X124493822Y-130935625D01*
X124524165Y-130928025D01*
X124555107Y-130923435D01*
X124586350Y-130921900D01*
X125298850Y-130921900D01*
X125330093Y-130923435D01*
X125330093Y-130923435D01*
G37*
D11*
X124942600Y-131559400D03*
D10*
G36*
X133800993Y-129564535D02*
G01*
X133831935Y-129569125D01*
X133862278Y-129576725D01*
X133891730Y-129587263D01*
X133920008Y-129600638D01*
X133946838Y-129616719D01*
X133971963Y-129635353D01*
X133995140Y-129656360D01*
X134016147Y-129679537D01*
X134034781Y-129704662D01*
X134050862Y-129731492D01*
X134064237Y-129759770D01*
X134074775Y-129789222D01*
X134082375Y-129819565D01*
X134086965Y-129850507D01*
X134088500Y-129881750D01*
X134088500Y-130519250D01*
X134086965Y-130550493D01*
X134082375Y-130581435D01*
X134074775Y-130611778D01*
X134064237Y-130641230D01*
X134050862Y-130669508D01*
X134034781Y-130696338D01*
X134016147Y-130721463D01*
X133995140Y-130744640D01*
X133971963Y-130765647D01*
X133946838Y-130784281D01*
X133920008Y-130800362D01*
X133891730Y-130813737D01*
X133862278Y-130824275D01*
X133831935Y-130831875D01*
X133800993Y-130836465D01*
X133769750Y-130838000D01*
X133057250Y-130838000D01*
X133026007Y-130836465D01*
X132995065Y-130831875D01*
X132964722Y-130824275D01*
X132935270Y-130813737D01*
X132906992Y-130800362D01*
X132880162Y-130784281D01*
X132855037Y-130765647D01*
X132831860Y-130744640D01*
X132810853Y-130721463D01*
X132792219Y-130696338D01*
X132776138Y-130669508D01*
X132762763Y-130641230D01*
X132752225Y-130611778D01*
X132744625Y-130581435D01*
X132740035Y-130550493D01*
X132738500Y-130519250D01*
X132738500Y-129881750D01*
X132740035Y-129850507D01*
X132744625Y-129819565D01*
X132752225Y-129789222D01*
X132762763Y-129759770D01*
X132776138Y-129731492D01*
X132792219Y-129704662D01*
X132810853Y-129679537D01*
X132831860Y-129656360D01*
X132855037Y-129635353D01*
X132880162Y-129616719D01*
X132906992Y-129600638D01*
X132935270Y-129587263D01*
X132964722Y-129576725D01*
X132995065Y-129569125D01*
X133026007Y-129564535D01*
X133057250Y-129563000D01*
X133769750Y-129563000D01*
X133800993Y-129564535D01*
X133800993Y-129564535D01*
G37*
D11*
X133413500Y-130200500D03*
D10*
G36*
X133800993Y-127989535D02*
G01*
X133831935Y-127994125D01*
X133862278Y-128001725D01*
X133891730Y-128012263D01*
X133920008Y-128025638D01*
X133946838Y-128041719D01*
X133971963Y-128060353D01*
X133995140Y-128081360D01*
X134016147Y-128104537D01*
X134034781Y-128129662D01*
X134050862Y-128156492D01*
X134064237Y-128184770D01*
X134074775Y-128214222D01*
X134082375Y-128244565D01*
X134086965Y-128275507D01*
X134088500Y-128306750D01*
X134088500Y-128944250D01*
X134086965Y-128975493D01*
X134082375Y-129006435D01*
X134074775Y-129036778D01*
X134064237Y-129066230D01*
X134050862Y-129094508D01*
X134034781Y-129121338D01*
X134016147Y-129146463D01*
X133995140Y-129169640D01*
X133971963Y-129190647D01*
X133946838Y-129209281D01*
X133920008Y-129225362D01*
X133891730Y-129238737D01*
X133862278Y-129249275D01*
X133831935Y-129256875D01*
X133800993Y-129261465D01*
X133769750Y-129263000D01*
X133057250Y-129263000D01*
X133026007Y-129261465D01*
X132995065Y-129256875D01*
X132964722Y-129249275D01*
X132935270Y-129238737D01*
X132906992Y-129225362D01*
X132880162Y-129209281D01*
X132855037Y-129190647D01*
X132831860Y-129169640D01*
X132810853Y-129146463D01*
X132792219Y-129121338D01*
X132776138Y-129094508D01*
X132762763Y-129066230D01*
X132752225Y-129036778D01*
X132744625Y-129006435D01*
X132740035Y-128975493D01*
X132738500Y-128944250D01*
X132738500Y-128306750D01*
X132740035Y-128275507D01*
X132744625Y-128244565D01*
X132752225Y-128214222D01*
X132762763Y-128184770D01*
X132776138Y-128156492D01*
X132792219Y-128129662D01*
X132810853Y-128104537D01*
X132831860Y-128081360D01*
X132855037Y-128060353D01*
X132880162Y-128041719D01*
X132906992Y-128025638D01*
X132935270Y-128012263D01*
X132964722Y-128001725D01*
X132995065Y-127994125D01*
X133026007Y-127989535D01*
X133057250Y-127988000D01*
X133769750Y-127988000D01*
X133800993Y-127989535D01*
X133800993Y-127989535D01*
G37*
D11*
X133413500Y-128625500D03*
D10*
G36*
X124195213Y-126400195D02*
G01*
X124226155Y-126404785D01*
X124256498Y-126412385D01*
X124285950Y-126422923D01*
X124314228Y-126436298D01*
X124341058Y-126452379D01*
X124366183Y-126471013D01*
X124389360Y-126492020D01*
X124410367Y-126515197D01*
X124429001Y-126540322D01*
X124445082Y-126567152D01*
X124458457Y-126595430D01*
X124468995Y-126624882D01*
X124476595Y-126655225D01*
X124481185Y-126686167D01*
X124482720Y-126717410D01*
X124482720Y-127429910D01*
X124481185Y-127461153D01*
X124476595Y-127492095D01*
X124468995Y-127522438D01*
X124458457Y-127551890D01*
X124445082Y-127580168D01*
X124429001Y-127606998D01*
X124410367Y-127632123D01*
X124389360Y-127655300D01*
X124366183Y-127676307D01*
X124341058Y-127694941D01*
X124314228Y-127711022D01*
X124285950Y-127724397D01*
X124256498Y-127734935D01*
X124226155Y-127742535D01*
X124195213Y-127747125D01*
X124163970Y-127748660D01*
X123526470Y-127748660D01*
X123495227Y-127747125D01*
X123464285Y-127742535D01*
X123433942Y-127734935D01*
X123404490Y-127724397D01*
X123376212Y-127711022D01*
X123349382Y-127694941D01*
X123324257Y-127676307D01*
X123301080Y-127655300D01*
X123280073Y-127632123D01*
X123261439Y-127606998D01*
X123245358Y-127580168D01*
X123231983Y-127551890D01*
X123221445Y-127522438D01*
X123213845Y-127492095D01*
X123209255Y-127461153D01*
X123207720Y-127429910D01*
X123207720Y-126717410D01*
X123209255Y-126686167D01*
X123213845Y-126655225D01*
X123221445Y-126624882D01*
X123231983Y-126595430D01*
X123245358Y-126567152D01*
X123261439Y-126540322D01*
X123280073Y-126515197D01*
X123301080Y-126492020D01*
X123324257Y-126471013D01*
X123349382Y-126452379D01*
X123376212Y-126436298D01*
X123404490Y-126422923D01*
X123433942Y-126412385D01*
X123464285Y-126404785D01*
X123495227Y-126400195D01*
X123526470Y-126398660D01*
X124163970Y-126398660D01*
X124195213Y-126400195D01*
X124195213Y-126400195D01*
G37*
D11*
X123845220Y-127073660D03*
D10*
G36*
X125770213Y-126400195D02*
G01*
X125801155Y-126404785D01*
X125831498Y-126412385D01*
X125860950Y-126422923D01*
X125889228Y-126436298D01*
X125916058Y-126452379D01*
X125941183Y-126471013D01*
X125964360Y-126492020D01*
X125985367Y-126515197D01*
X126004001Y-126540322D01*
X126020082Y-126567152D01*
X126033457Y-126595430D01*
X126043995Y-126624882D01*
X126051595Y-126655225D01*
X126056185Y-126686167D01*
X126057720Y-126717410D01*
X126057720Y-127429910D01*
X126056185Y-127461153D01*
X126051595Y-127492095D01*
X126043995Y-127522438D01*
X126033457Y-127551890D01*
X126020082Y-127580168D01*
X126004001Y-127606998D01*
X125985367Y-127632123D01*
X125964360Y-127655300D01*
X125941183Y-127676307D01*
X125916058Y-127694941D01*
X125889228Y-127711022D01*
X125860950Y-127724397D01*
X125831498Y-127734935D01*
X125801155Y-127742535D01*
X125770213Y-127747125D01*
X125738970Y-127748660D01*
X125101470Y-127748660D01*
X125070227Y-127747125D01*
X125039285Y-127742535D01*
X125008942Y-127734935D01*
X124979490Y-127724397D01*
X124951212Y-127711022D01*
X124924382Y-127694941D01*
X124899257Y-127676307D01*
X124876080Y-127655300D01*
X124855073Y-127632123D01*
X124836439Y-127606998D01*
X124820358Y-127580168D01*
X124806983Y-127551890D01*
X124796445Y-127522438D01*
X124788845Y-127492095D01*
X124784255Y-127461153D01*
X124782720Y-127429910D01*
X124782720Y-126717410D01*
X124784255Y-126686167D01*
X124788845Y-126655225D01*
X124796445Y-126624882D01*
X124806983Y-126595430D01*
X124820358Y-126567152D01*
X124836439Y-126540322D01*
X124855073Y-126515197D01*
X124876080Y-126492020D01*
X124899257Y-126471013D01*
X124924382Y-126452379D01*
X124951212Y-126436298D01*
X124979490Y-126422923D01*
X125008942Y-126412385D01*
X125039285Y-126404785D01*
X125070227Y-126400195D01*
X125101470Y-126398660D01*
X125738970Y-126398660D01*
X125770213Y-126400195D01*
X125770213Y-126400195D01*
G37*
D11*
X125420220Y-127073660D03*
D10*
G36*
X127616093Y-111441435D02*
G01*
X127647035Y-111446025D01*
X127677378Y-111453625D01*
X127706830Y-111464163D01*
X127735108Y-111477538D01*
X127761938Y-111493619D01*
X127787063Y-111512253D01*
X127810240Y-111533260D01*
X127831247Y-111556437D01*
X127849881Y-111581562D01*
X127865962Y-111608392D01*
X127879337Y-111636670D01*
X127889875Y-111666122D01*
X127897475Y-111696465D01*
X127902065Y-111727407D01*
X127903600Y-111758650D01*
X127903600Y-112396150D01*
X127902065Y-112427393D01*
X127897475Y-112458335D01*
X127889875Y-112488678D01*
X127879337Y-112518130D01*
X127865962Y-112546408D01*
X127849881Y-112573238D01*
X127831247Y-112598363D01*
X127810240Y-112621540D01*
X127787063Y-112642547D01*
X127761938Y-112661181D01*
X127735108Y-112677262D01*
X127706830Y-112690637D01*
X127677378Y-112701175D01*
X127647035Y-112708775D01*
X127616093Y-112713365D01*
X127584850Y-112714900D01*
X126872350Y-112714900D01*
X126841107Y-112713365D01*
X126810165Y-112708775D01*
X126779822Y-112701175D01*
X126750370Y-112690637D01*
X126722092Y-112677262D01*
X126695262Y-112661181D01*
X126670137Y-112642547D01*
X126646960Y-112621540D01*
X126625953Y-112598363D01*
X126607319Y-112573238D01*
X126591238Y-112546408D01*
X126577863Y-112518130D01*
X126567325Y-112488678D01*
X126559725Y-112458335D01*
X126555135Y-112427393D01*
X126553600Y-112396150D01*
X126553600Y-111758650D01*
X126555135Y-111727407D01*
X126559725Y-111696465D01*
X126567325Y-111666122D01*
X126577863Y-111636670D01*
X126591238Y-111608392D01*
X126607319Y-111581562D01*
X126625953Y-111556437D01*
X126646960Y-111533260D01*
X126670137Y-111512253D01*
X126695262Y-111493619D01*
X126722092Y-111477538D01*
X126750370Y-111464163D01*
X126779822Y-111453625D01*
X126810165Y-111446025D01*
X126841107Y-111441435D01*
X126872350Y-111439900D01*
X127584850Y-111439900D01*
X127616093Y-111441435D01*
X127616093Y-111441435D01*
G37*
D11*
X127228600Y-112077400D03*
D10*
G36*
X127616093Y-113016435D02*
G01*
X127647035Y-113021025D01*
X127677378Y-113028625D01*
X127706830Y-113039163D01*
X127735108Y-113052538D01*
X127761938Y-113068619D01*
X127787063Y-113087253D01*
X127810240Y-113108260D01*
X127831247Y-113131437D01*
X127849881Y-113156562D01*
X127865962Y-113183392D01*
X127879337Y-113211670D01*
X127889875Y-113241122D01*
X127897475Y-113271465D01*
X127902065Y-113302407D01*
X127903600Y-113333650D01*
X127903600Y-113971150D01*
X127902065Y-114002393D01*
X127897475Y-114033335D01*
X127889875Y-114063678D01*
X127879337Y-114093130D01*
X127865962Y-114121408D01*
X127849881Y-114148238D01*
X127831247Y-114173363D01*
X127810240Y-114196540D01*
X127787063Y-114217547D01*
X127761938Y-114236181D01*
X127735108Y-114252262D01*
X127706830Y-114265637D01*
X127677378Y-114276175D01*
X127647035Y-114283775D01*
X127616093Y-114288365D01*
X127584850Y-114289900D01*
X126872350Y-114289900D01*
X126841107Y-114288365D01*
X126810165Y-114283775D01*
X126779822Y-114276175D01*
X126750370Y-114265637D01*
X126722092Y-114252262D01*
X126695262Y-114236181D01*
X126670137Y-114217547D01*
X126646960Y-114196540D01*
X126625953Y-114173363D01*
X126607319Y-114148238D01*
X126591238Y-114121408D01*
X126577863Y-114093130D01*
X126567325Y-114063678D01*
X126559725Y-114033335D01*
X126555135Y-114002393D01*
X126553600Y-113971150D01*
X126553600Y-113333650D01*
X126555135Y-113302407D01*
X126559725Y-113271465D01*
X126567325Y-113241122D01*
X126577863Y-113211670D01*
X126591238Y-113183392D01*
X126607319Y-113156562D01*
X126625953Y-113131437D01*
X126646960Y-113108260D01*
X126670137Y-113087253D01*
X126695262Y-113068619D01*
X126722092Y-113052538D01*
X126750370Y-113039163D01*
X126779822Y-113028625D01*
X126810165Y-113021025D01*
X126841107Y-113016435D01*
X126872350Y-113014900D01*
X127584850Y-113014900D01*
X127616093Y-113016435D01*
X127616093Y-113016435D01*
G37*
D11*
X127228600Y-113652400D03*
D10*
G36*
X134193943Y-102727955D02*
G01*
X134227312Y-102732905D01*
X134260035Y-102741102D01*
X134291797Y-102752466D01*
X134322293Y-102766890D01*
X134351227Y-102784232D01*
X134378323Y-102804328D01*
X134403318Y-102826982D01*
X134425972Y-102851977D01*
X134446068Y-102879073D01*
X134463410Y-102908007D01*
X134477834Y-102938503D01*
X134489198Y-102970265D01*
X134497395Y-103002988D01*
X134502345Y-103036357D01*
X134504000Y-103070050D01*
X134504000Y-103757550D01*
X134502345Y-103791243D01*
X134497395Y-103824612D01*
X134489198Y-103857335D01*
X134477834Y-103889097D01*
X134463410Y-103919593D01*
X134446068Y-103948527D01*
X134425972Y-103975623D01*
X134403318Y-104000618D01*
X134378323Y-104023272D01*
X134351227Y-104043368D01*
X134322293Y-104060710D01*
X134291797Y-104075134D01*
X134260035Y-104086498D01*
X134227312Y-104094695D01*
X134193943Y-104099645D01*
X134160250Y-104101300D01*
X133047750Y-104101300D01*
X133014057Y-104099645D01*
X132980688Y-104094695D01*
X132947965Y-104086498D01*
X132916203Y-104075134D01*
X132885707Y-104060710D01*
X132856773Y-104043368D01*
X132829677Y-104023272D01*
X132804682Y-104000618D01*
X132782028Y-103975623D01*
X132761932Y-103948527D01*
X132744590Y-103919593D01*
X132730166Y-103889097D01*
X132718802Y-103857335D01*
X132710605Y-103824612D01*
X132705655Y-103791243D01*
X132704000Y-103757550D01*
X132704000Y-103070050D01*
X132705655Y-103036357D01*
X132710605Y-103002988D01*
X132718802Y-102970265D01*
X132730166Y-102938503D01*
X132744590Y-102908007D01*
X132761932Y-102879073D01*
X132782028Y-102851977D01*
X132804682Y-102826982D01*
X132829677Y-102804328D01*
X132856773Y-102784232D01*
X132885707Y-102766890D01*
X132916203Y-102752466D01*
X132947965Y-102741102D01*
X132980688Y-102732905D01*
X133014057Y-102727955D01*
X133047750Y-102726300D01*
X134160250Y-102726300D01*
X134193943Y-102727955D01*
X134193943Y-102727955D01*
G37*
D12*
X133604000Y-103413800D03*
D10*
G36*
X134193943Y-100852955D02*
G01*
X134227312Y-100857905D01*
X134260035Y-100866102D01*
X134291797Y-100877466D01*
X134322293Y-100891890D01*
X134351227Y-100909232D01*
X134378323Y-100929328D01*
X134403318Y-100951982D01*
X134425972Y-100976977D01*
X134446068Y-101004073D01*
X134463410Y-101033007D01*
X134477834Y-101063503D01*
X134489198Y-101095265D01*
X134497395Y-101127988D01*
X134502345Y-101161357D01*
X134504000Y-101195050D01*
X134504000Y-101882550D01*
X134502345Y-101916243D01*
X134497395Y-101949612D01*
X134489198Y-101982335D01*
X134477834Y-102014097D01*
X134463410Y-102044593D01*
X134446068Y-102073527D01*
X134425972Y-102100623D01*
X134403318Y-102125618D01*
X134378323Y-102148272D01*
X134351227Y-102168368D01*
X134322293Y-102185710D01*
X134291797Y-102200134D01*
X134260035Y-102211498D01*
X134227312Y-102219695D01*
X134193943Y-102224645D01*
X134160250Y-102226300D01*
X133047750Y-102226300D01*
X133014057Y-102224645D01*
X132980688Y-102219695D01*
X132947965Y-102211498D01*
X132916203Y-102200134D01*
X132885707Y-102185710D01*
X132856773Y-102168368D01*
X132829677Y-102148272D01*
X132804682Y-102125618D01*
X132782028Y-102100623D01*
X132761932Y-102073527D01*
X132744590Y-102044593D01*
X132730166Y-102014097D01*
X132718802Y-101982335D01*
X132710605Y-101949612D01*
X132705655Y-101916243D01*
X132704000Y-101882550D01*
X132704000Y-101195050D01*
X132705655Y-101161357D01*
X132710605Y-101127988D01*
X132718802Y-101095265D01*
X132730166Y-101063503D01*
X132744590Y-101033007D01*
X132761932Y-101004073D01*
X132782028Y-100976977D01*
X132804682Y-100951982D01*
X132829677Y-100929328D01*
X132856773Y-100909232D01*
X132885707Y-100891890D01*
X132916203Y-100877466D01*
X132947965Y-100866102D01*
X132980688Y-100857905D01*
X133014057Y-100852955D01*
X133047750Y-100851300D01*
X134160250Y-100851300D01*
X134193943Y-100852955D01*
X134193943Y-100852955D01*
G37*
D12*
X133604000Y-101538800D03*
D10*
G36*
X124182513Y-112948355D02*
G01*
X124213455Y-112952945D01*
X124243798Y-112960545D01*
X124273250Y-112971083D01*
X124301528Y-112984458D01*
X124328358Y-113000539D01*
X124353483Y-113019173D01*
X124376660Y-113040180D01*
X124397667Y-113063357D01*
X124416301Y-113088482D01*
X124432382Y-113115312D01*
X124445757Y-113143590D01*
X124456295Y-113173042D01*
X124463895Y-113203385D01*
X124468485Y-113234327D01*
X124470020Y-113265570D01*
X124470020Y-113978070D01*
X124468485Y-114009313D01*
X124463895Y-114040255D01*
X124456295Y-114070598D01*
X124445757Y-114100050D01*
X124432382Y-114128328D01*
X124416301Y-114155158D01*
X124397667Y-114180283D01*
X124376660Y-114203460D01*
X124353483Y-114224467D01*
X124328358Y-114243101D01*
X124301528Y-114259182D01*
X124273250Y-114272557D01*
X124243798Y-114283095D01*
X124213455Y-114290695D01*
X124182513Y-114295285D01*
X124151270Y-114296820D01*
X123513770Y-114296820D01*
X123482527Y-114295285D01*
X123451585Y-114290695D01*
X123421242Y-114283095D01*
X123391790Y-114272557D01*
X123363512Y-114259182D01*
X123336682Y-114243101D01*
X123311557Y-114224467D01*
X123288380Y-114203460D01*
X123267373Y-114180283D01*
X123248739Y-114155158D01*
X123232658Y-114128328D01*
X123219283Y-114100050D01*
X123208745Y-114070598D01*
X123201145Y-114040255D01*
X123196555Y-114009313D01*
X123195020Y-113978070D01*
X123195020Y-113265570D01*
X123196555Y-113234327D01*
X123201145Y-113203385D01*
X123208745Y-113173042D01*
X123219283Y-113143590D01*
X123232658Y-113115312D01*
X123248739Y-113088482D01*
X123267373Y-113063357D01*
X123288380Y-113040180D01*
X123311557Y-113019173D01*
X123336682Y-113000539D01*
X123363512Y-112984458D01*
X123391790Y-112971083D01*
X123421242Y-112960545D01*
X123451585Y-112952945D01*
X123482527Y-112948355D01*
X123513770Y-112946820D01*
X124151270Y-112946820D01*
X124182513Y-112948355D01*
X124182513Y-112948355D01*
G37*
D11*
X123832520Y-113621820D03*
D10*
G36*
X125757513Y-112948355D02*
G01*
X125788455Y-112952945D01*
X125818798Y-112960545D01*
X125848250Y-112971083D01*
X125876528Y-112984458D01*
X125903358Y-113000539D01*
X125928483Y-113019173D01*
X125951660Y-113040180D01*
X125972667Y-113063357D01*
X125991301Y-113088482D01*
X126007382Y-113115312D01*
X126020757Y-113143590D01*
X126031295Y-113173042D01*
X126038895Y-113203385D01*
X126043485Y-113234327D01*
X126045020Y-113265570D01*
X126045020Y-113978070D01*
X126043485Y-114009313D01*
X126038895Y-114040255D01*
X126031295Y-114070598D01*
X126020757Y-114100050D01*
X126007382Y-114128328D01*
X125991301Y-114155158D01*
X125972667Y-114180283D01*
X125951660Y-114203460D01*
X125928483Y-114224467D01*
X125903358Y-114243101D01*
X125876528Y-114259182D01*
X125848250Y-114272557D01*
X125818798Y-114283095D01*
X125788455Y-114290695D01*
X125757513Y-114295285D01*
X125726270Y-114296820D01*
X125088770Y-114296820D01*
X125057527Y-114295285D01*
X125026585Y-114290695D01*
X124996242Y-114283095D01*
X124966790Y-114272557D01*
X124938512Y-114259182D01*
X124911682Y-114243101D01*
X124886557Y-114224467D01*
X124863380Y-114203460D01*
X124842373Y-114180283D01*
X124823739Y-114155158D01*
X124807658Y-114128328D01*
X124794283Y-114100050D01*
X124783745Y-114070598D01*
X124776145Y-114040255D01*
X124771555Y-114009313D01*
X124770020Y-113978070D01*
X124770020Y-113265570D01*
X124771555Y-113234327D01*
X124776145Y-113203385D01*
X124783745Y-113173042D01*
X124794283Y-113143590D01*
X124807658Y-113115312D01*
X124823739Y-113088482D01*
X124842373Y-113063357D01*
X124863380Y-113040180D01*
X124886557Y-113019173D01*
X124911682Y-113000539D01*
X124938512Y-112984458D01*
X124966790Y-112971083D01*
X124996242Y-112960545D01*
X125026585Y-112952945D01*
X125057527Y-112948355D01*
X125088770Y-112946820D01*
X125726270Y-112946820D01*
X125757513Y-112948355D01*
X125757513Y-112948355D01*
G37*
D11*
X125407520Y-113621820D03*
D10*
G36*
X108248943Y-122494855D02*
G01*
X108282312Y-122499805D01*
X108315035Y-122508002D01*
X108346797Y-122519366D01*
X108377293Y-122533790D01*
X108406227Y-122551132D01*
X108433323Y-122571228D01*
X108458318Y-122593882D01*
X108480972Y-122618877D01*
X108501068Y-122645973D01*
X108518410Y-122674907D01*
X108532834Y-122705403D01*
X108544198Y-122737165D01*
X108552395Y-122769888D01*
X108557345Y-122803257D01*
X108559000Y-122836950D01*
X108559000Y-123949450D01*
X108557345Y-123983143D01*
X108552395Y-124016512D01*
X108544198Y-124049235D01*
X108532834Y-124080997D01*
X108518410Y-124111493D01*
X108501068Y-124140427D01*
X108480972Y-124167523D01*
X108458318Y-124192518D01*
X108433323Y-124215172D01*
X108406227Y-124235268D01*
X108377293Y-124252610D01*
X108346797Y-124267034D01*
X108315035Y-124278398D01*
X108282312Y-124286595D01*
X108248943Y-124291545D01*
X108215250Y-124293200D01*
X107527750Y-124293200D01*
X107494057Y-124291545D01*
X107460688Y-124286595D01*
X107427965Y-124278398D01*
X107396203Y-124267034D01*
X107365707Y-124252610D01*
X107336773Y-124235268D01*
X107309677Y-124215172D01*
X107284682Y-124192518D01*
X107262028Y-124167523D01*
X107241932Y-124140427D01*
X107224590Y-124111493D01*
X107210166Y-124080997D01*
X107198802Y-124049235D01*
X107190605Y-124016512D01*
X107185655Y-123983143D01*
X107184000Y-123949450D01*
X107184000Y-122836950D01*
X107185655Y-122803257D01*
X107190605Y-122769888D01*
X107198802Y-122737165D01*
X107210166Y-122705403D01*
X107224590Y-122674907D01*
X107241932Y-122645973D01*
X107262028Y-122618877D01*
X107284682Y-122593882D01*
X107309677Y-122571228D01*
X107336773Y-122551132D01*
X107365707Y-122533790D01*
X107396203Y-122519366D01*
X107427965Y-122508002D01*
X107460688Y-122499805D01*
X107494057Y-122494855D01*
X107527750Y-122493200D01*
X108215250Y-122493200D01*
X108248943Y-122494855D01*
X108248943Y-122494855D01*
G37*
D12*
X107871500Y-123393200D03*
D10*
G36*
X106373943Y-122494855D02*
G01*
X106407312Y-122499805D01*
X106440035Y-122508002D01*
X106471797Y-122519366D01*
X106502293Y-122533790D01*
X106531227Y-122551132D01*
X106558323Y-122571228D01*
X106583318Y-122593882D01*
X106605972Y-122618877D01*
X106626068Y-122645973D01*
X106643410Y-122674907D01*
X106657834Y-122705403D01*
X106669198Y-122737165D01*
X106677395Y-122769888D01*
X106682345Y-122803257D01*
X106684000Y-122836950D01*
X106684000Y-123949450D01*
X106682345Y-123983143D01*
X106677395Y-124016512D01*
X106669198Y-124049235D01*
X106657834Y-124080997D01*
X106643410Y-124111493D01*
X106626068Y-124140427D01*
X106605972Y-124167523D01*
X106583318Y-124192518D01*
X106558323Y-124215172D01*
X106531227Y-124235268D01*
X106502293Y-124252610D01*
X106471797Y-124267034D01*
X106440035Y-124278398D01*
X106407312Y-124286595D01*
X106373943Y-124291545D01*
X106340250Y-124293200D01*
X105652750Y-124293200D01*
X105619057Y-124291545D01*
X105585688Y-124286595D01*
X105552965Y-124278398D01*
X105521203Y-124267034D01*
X105490707Y-124252610D01*
X105461773Y-124235268D01*
X105434677Y-124215172D01*
X105409682Y-124192518D01*
X105387028Y-124167523D01*
X105366932Y-124140427D01*
X105349590Y-124111493D01*
X105335166Y-124080997D01*
X105323802Y-124049235D01*
X105315605Y-124016512D01*
X105310655Y-123983143D01*
X105309000Y-123949450D01*
X105309000Y-122836950D01*
X105310655Y-122803257D01*
X105315605Y-122769888D01*
X105323802Y-122737165D01*
X105335166Y-122705403D01*
X105349590Y-122674907D01*
X105366932Y-122645973D01*
X105387028Y-122618877D01*
X105409682Y-122593882D01*
X105434677Y-122571228D01*
X105461773Y-122551132D01*
X105490707Y-122533790D01*
X105521203Y-122519366D01*
X105552965Y-122508002D01*
X105585688Y-122499805D01*
X105619057Y-122494855D01*
X105652750Y-122493200D01*
X106340250Y-122493200D01*
X106373943Y-122494855D01*
X106373943Y-122494855D01*
G37*
D12*
X105996500Y-123393200D03*
D10*
G36*
X104248443Y-114392255D02*
G01*
X104281812Y-114397205D01*
X104314535Y-114405402D01*
X104346297Y-114416766D01*
X104376793Y-114431190D01*
X104405727Y-114448532D01*
X104432823Y-114468628D01*
X104457818Y-114491282D01*
X104480472Y-114516277D01*
X104500568Y-114543373D01*
X104517910Y-114572307D01*
X104532334Y-114602803D01*
X104543698Y-114634565D01*
X104551895Y-114667288D01*
X104556845Y-114700657D01*
X104558500Y-114734350D01*
X104558500Y-115846850D01*
X104556845Y-115880543D01*
X104551895Y-115913912D01*
X104543698Y-115946635D01*
X104532334Y-115978397D01*
X104517910Y-116008893D01*
X104500568Y-116037827D01*
X104480472Y-116064923D01*
X104457818Y-116089918D01*
X104432823Y-116112572D01*
X104405727Y-116132668D01*
X104376793Y-116150010D01*
X104346297Y-116164434D01*
X104314535Y-116175798D01*
X104281812Y-116183995D01*
X104248443Y-116188945D01*
X104214750Y-116190600D01*
X103527250Y-116190600D01*
X103493557Y-116188945D01*
X103460188Y-116183995D01*
X103427465Y-116175798D01*
X103395703Y-116164434D01*
X103365207Y-116150010D01*
X103336273Y-116132668D01*
X103309177Y-116112572D01*
X103284182Y-116089918D01*
X103261528Y-116064923D01*
X103241432Y-116037827D01*
X103224090Y-116008893D01*
X103209666Y-115978397D01*
X103198302Y-115946635D01*
X103190105Y-115913912D01*
X103185155Y-115880543D01*
X103183500Y-115846850D01*
X103183500Y-114734350D01*
X103185155Y-114700657D01*
X103190105Y-114667288D01*
X103198302Y-114634565D01*
X103209666Y-114602803D01*
X103224090Y-114572307D01*
X103241432Y-114543373D01*
X103261528Y-114516277D01*
X103284182Y-114491282D01*
X103309177Y-114468628D01*
X103336273Y-114448532D01*
X103365207Y-114431190D01*
X103395703Y-114416766D01*
X103427465Y-114405402D01*
X103460188Y-114397205D01*
X103493557Y-114392255D01*
X103527250Y-114390600D01*
X104214750Y-114390600D01*
X104248443Y-114392255D01*
X104248443Y-114392255D01*
G37*
D12*
X103871000Y-115290600D03*
D10*
G36*
X102373443Y-114392255D02*
G01*
X102406812Y-114397205D01*
X102439535Y-114405402D01*
X102471297Y-114416766D01*
X102501793Y-114431190D01*
X102530727Y-114448532D01*
X102557823Y-114468628D01*
X102582818Y-114491282D01*
X102605472Y-114516277D01*
X102625568Y-114543373D01*
X102642910Y-114572307D01*
X102657334Y-114602803D01*
X102668698Y-114634565D01*
X102676895Y-114667288D01*
X102681845Y-114700657D01*
X102683500Y-114734350D01*
X102683500Y-115846850D01*
X102681845Y-115880543D01*
X102676895Y-115913912D01*
X102668698Y-115946635D01*
X102657334Y-115978397D01*
X102642910Y-116008893D01*
X102625568Y-116037827D01*
X102605472Y-116064923D01*
X102582818Y-116089918D01*
X102557823Y-116112572D01*
X102530727Y-116132668D01*
X102501793Y-116150010D01*
X102471297Y-116164434D01*
X102439535Y-116175798D01*
X102406812Y-116183995D01*
X102373443Y-116188945D01*
X102339750Y-116190600D01*
X101652250Y-116190600D01*
X101618557Y-116188945D01*
X101585188Y-116183995D01*
X101552465Y-116175798D01*
X101520703Y-116164434D01*
X101490207Y-116150010D01*
X101461273Y-116132668D01*
X101434177Y-116112572D01*
X101409182Y-116089918D01*
X101386528Y-116064923D01*
X101366432Y-116037827D01*
X101349090Y-116008893D01*
X101334666Y-115978397D01*
X101323302Y-115946635D01*
X101315105Y-115913912D01*
X101310155Y-115880543D01*
X101308500Y-115846850D01*
X101308500Y-114734350D01*
X101310155Y-114700657D01*
X101315105Y-114667288D01*
X101323302Y-114634565D01*
X101334666Y-114602803D01*
X101349090Y-114572307D01*
X101366432Y-114543373D01*
X101386528Y-114516277D01*
X101409182Y-114491282D01*
X101434177Y-114468628D01*
X101461273Y-114448532D01*
X101490207Y-114431190D01*
X101520703Y-114416766D01*
X101552465Y-114405402D01*
X101585188Y-114397205D01*
X101618557Y-114392255D01*
X101652250Y-114390600D01*
X102339750Y-114390600D01*
X102373443Y-114392255D01*
X102373443Y-114392255D01*
G37*
D12*
X101996000Y-115290600D03*
D10*
G36*
X133939943Y-117121655D02*
G01*
X133973312Y-117126605D01*
X134006035Y-117134802D01*
X134037797Y-117146166D01*
X134068293Y-117160590D01*
X134097227Y-117177932D01*
X134124323Y-117198028D01*
X134149318Y-117220682D01*
X134171972Y-117245677D01*
X134192068Y-117272773D01*
X134209410Y-117301707D01*
X134223834Y-117332203D01*
X134235198Y-117363965D01*
X134243395Y-117396688D01*
X134248345Y-117430057D01*
X134250000Y-117463750D01*
X134250000Y-118151250D01*
X134248345Y-118184943D01*
X134243395Y-118218312D01*
X134235198Y-118251035D01*
X134223834Y-118282797D01*
X134209410Y-118313293D01*
X134192068Y-118342227D01*
X134171972Y-118369323D01*
X134149318Y-118394318D01*
X134124323Y-118416972D01*
X134097227Y-118437068D01*
X134068293Y-118454410D01*
X134037797Y-118468834D01*
X134006035Y-118480198D01*
X133973312Y-118488395D01*
X133939943Y-118493345D01*
X133906250Y-118495000D01*
X132793750Y-118495000D01*
X132760057Y-118493345D01*
X132726688Y-118488395D01*
X132693965Y-118480198D01*
X132662203Y-118468834D01*
X132631707Y-118454410D01*
X132602773Y-118437068D01*
X132575677Y-118416972D01*
X132550682Y-118394318D01*
X132528028Y-118369323D01*
X132507932Y-118342227D01*
X132490590Y-118313293D01*
X132476166Y-118282797D01*
X132464802Y-118251035D01*
X132456605Y-118218312D01*
X132451655Y-118184943D01*
X132450000Y-118151250D01*
X132450000Y-117463750D01*
X132451655Y-117430057D01*
X132456605Y-117396688D01*
X132464802Y-117363965D01*
X132476166Y-117332203D01*
X132490590Y-117301707D01*
X132507932Y-117272773D01*
X132528028Y-117245677D01*
X132550682Y-117220682D01*
X132575677Y-117198028D01*
X132602773Y-117177932D01*
X132631707Y-117160590D01*
X132662203Y-117146166D01*
X132693965Y-117134802D01*
X132726688Y-117126605D01*
X132760057Y-117121655D01*
X132793750Y-117120000D01*
X133906250Y-117120000D01*
X133939943Y-117121655D01*
X133939943Y-117121655D01*
G37*
D12*
X133350000Y-117807500D03*
D10*
G36*
X133939943Y-118996655D02*
G01*
X133973312Y-119001605D01*
X134006035Y-119009802D01*
X134037797Y-119021166D01*
X134068293Y-119035590D01*
X134097227Y-119052932D01*
X134124323Y-119073028D01*
X134149318Y-119095682D01*
X134171972Y-119120677D01*
X134192068Y-119147773D01*
X134209410Y-119176707D01*
X134223834Y-119207203D01*
X134235198Y-119238965D01*
X134243395Y-119271688D01*
X134248345Y-119305057D01*
X134250000Y-119338750D01*
X134250000Y-120026250D01*
X134248345Y-120059943D01*
X134243395Y-120093312D01*
X134235198Y-120126035D01*
X134223834Y-120157797D01*
X134209410Y-120188293D01*
X134192068Y-120217227D01*
X134171972Y-120244323D01*
X134149318Y-120269318D01*
X134124323Y-120291972D01*
X134097227Y-120312068D01*
X134068293Y-120329410D01*
X134037797Y-120343834D01*
X134006035Y-120355198D01*
X133973312Y-120363395D01*
X133939943Y-120368345D01*
X133906250Y-120370000D01*
X132793750Y-120370000D01*
X132760057Y-120368345D01*
X132726688Y-120363395D01*
X132693965Y-120355198D01*
X132662203Y-120343834D01*
X132631707Y-120329410D01*
X132602773Y-120312068D01*
X132575677Y-120291972D01*
X132550682Y-120269318D01*
X132528028Y-120244323D01*
X132507932Y-120217227D01*
X132490590Y-120188293D01*
X132476166Y-120157797D01*
X132464802Y-120126035D01*
X132456605Y-120093312D01*
X132451655Y-120059943D01*
X132450000Y-120026250D01*
X132450000Y-119338750D01*
X132451655Y-119305057D01*
X132456605Y-119271688D01*
X132464802Y-119238965D01*
X132476166Y-119207203D01*
X132490590Y-119176707D01*
X132507932Y-119147773D01*
X132528028Y-119120677D01*
X132550682Y-119095682D01*
X132575677Y-119073028D01*
X132602773Y-119052932D01*
X132631707Y-119035590D01*
X132662203Y-119021166D01*
X132693965Y-119009802D01*
X132726688Y-119001605D01*
X132760057Y-118996655D01*
X132793750Y-118995000D01*
X133906250Y-118995000D01*
X133939943Y-118996655D01*
X133939943Y-118996655D01*
G37*
D12*
X133350000Y-119682500D03*
D13*
X119204760Y-108778880D03*
X119204760Y-106978880D03*
X118254760Y-106978880D03*
X118254760Y-108778880D03*
X115562360Y-108778880D03*
X115562360Y-106978880D03*
X116512360Y-106978880D03*
X116512360Y-108778880D03*
D14*
X114427000Y-126990600D03*
X115377000Y-128990600D03*
X113477000Y-128990600D03*
X115364300Y-123460000D03*
X113464300Y-123460000D03*
X114414300Y-125460000D03*
D10*
G36*
X102567846Y-126452989D02*
G01*
X102599880Y-126457741D01*
X102631294Y-126465610D01*
X102661786Y-126476520D01*
X102691061Y-126490366D01*
X102718838Y-126507015D01*
X102744850Y-126526307D01*
X102768845Y-126548055D01*
X102790593Y-126572050D01*
X102809885Y-126598062D01*
X102826534Y-126625839D01*
X102840380Y-126655114D01*
X102851290Y-126685606D01*
X102859159Y-126717020D01*
X102863911Y-126749054D01*
X102865500Y-126781400D01*
X102865500Y-127771400D01*
X102863911Y-127803746D01*
X102859159Y-127835780D01*
X102851290Y-127867194D01*
X102840380Y-127897686D01*
X102826534Y-127926961D01*
X102809885Y-127954738D01*
X102790593Y-127980750D01*
X102768845Y-128004745D01*
X102744850Y-128026493D01*
X102718838Y-128045785D01*
X102691061Y-128062434D01*
X102661786Y-128076280D01*
X102631294Y-128087190D01*
X102599880Y-128095059D01*
X102567846Y-128099811D01*
X102535500Y-128101400D01*
X101045500Y-128101400D01*
X101013154Y-128099811D01*
X100981120Y-128095059D01*
X100949706Y-128087190D01*
X100919214Y-128076280D01*
X100889939Y-128062434D01*
X100862162Y-128045785D01*
X100836150Y-128026493D01*
X100812155Y-128004745D01*
X100790407Y-127980750D01*
X100771115Y-127954738D01*
X100754466Y-127926961D01*
X100740620Y-127897686D01*
X100729710Y-127867194D01*
X100721841Y-127835780D01*
X100717089Y-127803746D01*
X100715500Y-127771400D01*
X100715500Y-126781400D01*
X100717089Y-126749054D01*
X100721841Y-126717020D01*
X100729710Y-126685606D01*
X100740620Y-126655114D01*
X100754466Y-126625839D01*
X100771115Y-126598062D01*
X100790407Y-126572050D01*
X100812155Y-126548055D01*
X100836150Y-126526307D01*
X100862162Y-126507015D01*
X100889939Y-126490366D01*
X100919214Y-126476520D01*
X100949706Y-126465610D01*
X100981120Y-126457741D01*
X101013154Y-126452989D01*
X101045500Y-126451400D01*
X102535500Y-126451400D01*
X102567846Y-126452989D01*
X102567846Y-126452989D01*
G37*
D15*
X101790500Y-127276400D03*
D10*
G36*
X102567846Y-129252989D02*
G01*
X102599880Y-129257741D01*
X102631294Y-129265610D01*
X102661786Y-129276520D01*
X102691061Y-129290366D01*
X102718838Y-129307015D01*
X102744850Y-129326307D01*
X102768845Y-129348055D01*
X102790593Y-129372050D01*
X102809885Y-129398062D01*
X102826534Y-129425839D01*
X102840380Y-129455114D01*
X102851290Y-129485606D01*
X102859159Y-129517020D01*
X102863911Y-129549054D01*
X102865500Y-129581400D01*
X102865500Y-130571400D01*
X102863911Y-130603746D01*
X102859159Y-130635780D01*
X102851290Y-130667194D01*
X102840380Y-130697686D01*
X102826534Y-130726961D01*
X102809885Y-130754738D01*
X102790593Y-130780750D01*
X102768845Y-130804745D01*
X102744850Y-130826493D01*
X102718838Y-130845785D01*
X102691061Y-130862434D01*
X102661786Y-130876280D01*
X102631294Y-130887190D01*
X102599880Y-130895059D01*
X102567846Y-130899811D01*
X102535500Y-130901400D01*
X101045500Y-130901400D01*
X101013154Y-130899811D01*
X100981120Y-130895059D01*
X100949706Y-130887190D01*
X100919214Y-130876280D01*
X100889939Y-130862434D01*
X100862162Y-130845785D01*
X100836150Y-130826493D01*
X100812155Y-130804745D01*
X100790407Y-130780750D01*
X100771115Y-130754738D01*
X100754466Y-130726961D01*
X100740620Y-130697686D01*
X100729710Y-130667194D01*
X100721841Y-130635780D01*
X100717089Y-130603746D01*
X100715500Y-130571400D01*
X100715500Y-129581400D01*
X100717089Y-129549054D01*
X100721841Y-129517020D01*
X100729710Y-129485606D01*
X100740620Y-129455114D01*
X100754466Y-129425839D01*
X100771115Y-129398062D01*
X100790407Y-129372050D01*
X100812155Y-129348055D01*
X100836150Y-129326307D01*
X100862162Y-129307015D01*
X100889939Y-129290366D01*
X100919214Y-129276520D01*
X100949706Y-129265610D01*
X100981120Y-129257741D01*
X101013154Y-129252989D01*
X101045500Y-129251400D01*
X102535500Y-129251400D01*
X102567846Y-129252989D01*
X102567846Y-129252989D01*
G37*
D15*
X101790500Y-130076400D03*
D16*
X108861100Y-131564900D03*
D17*
X105361100Y-128864900D03*
D18*
X107211100Y-128864900D03*
X106561100Y-128864900D03*
X109161100Y-128864900D03*
X108511100Y-128864900D03*
X107861100Y-128864900D03*
D17*
X110361100Y-128864900D03*
D16*
X106861100Y-131564900D03*
D19*
X104361100Y-131564900D03*
X111361100Y-131564900D03*
D20*
X110761100Y-131564900D03*
X104961100Y-131564900D03*
D21*
X141020800Y-127228600D03*
X138480800Y-127228600D03*
X141020800Y-124688600D03*
X138480800Y-124688600D03*
X141020800Y-122148600D03*
D22*
X138480800Y-122148600D03*
X138480800Y-105816400D03*
D21*
X141020800Y-105816400D03*
X138480800Y-108356400D03*
X141020800Y-108356400D03*
X138480800Y-110896400D03*
X141020800Y-110896400D03*
D23*
X122923300Y-106349800D03*
D24*
X122923300Y-108889800D03*
X125463300Y-106349800D03*
X125463300Y-108889800D03*
X128003300Y-106349800D03*
X128003300Y-108889800D03*
X130543300Y-106349800D03*
X130543300Y-108889800D03*
D23*
X117909340Y-102519480D03*
D24*
X120449340Y-102519480D03*
X122989340Y-102519480D03*
X125529340Y-102519480D03*
X128069340Y-102519480D03*
X130609340Y-102519480D03*
D10*
G36*
X120422813Y-110115555D02*
G01*
X120453755Y-110120145D01*
X120484098Y-110127745D01*
X120513550Y-110138283D01*
X120541828Y-110151658D01*
X120568658Y-110167739D01*
X120593783Y-110186373D01*
X120616960Y-110207380D01*
X120637967Y-110230557D01*
X120656601Y-110255682D01*
X120672682Y-110282512D01*
X120686057Y-110310790D01*
X120696595Y-110340242D01*
X120704195Y-110370585D01*
X120708785Y-110401527D01*
X120710320Y-110432770D01*
X120710320Y-111070270D01*
X120708785Y-111101513D01*
X120704195Y-111132455D01*
X120696595Y-111162798D01*
X120686057Y-111192250D01*
X120672682Y-111220528D01*
X120656601Y-111247358D01*
X120637967Y-111272483D01*
X120616960Y-111295660D01*
X120593783Y-111316667D01*
X120568658Y-111335301D01*
X120541828Y-111351382D01*
X120513550Y-111364757D01*
X120484098Y-111375295D01*
X120453755Y-111382895D01*
X120422813Y-111387485D01*
X120391570Y-111389020D01*
X119679070Y-111389020D01*
X119647827Y-111387485D01*
X119616885Y-111382895D01*
X119586542Y-111375295D01*
X119557090Y-111364757D01*
X119528812Y-111351382D01*
X119501982Y-111335301D01*
X119476857Y-111316667D01*
X119453680Y-111295660D01*
X119432673Y-111272483D01*
X119414039Y-111247358D01*
X119397958Y-111220528D01*
X119384583Y-111192250D01*
X119374045Y-111162798D01*
X119366445Y-111132455D01*
X119361855Y-111101513D01*
X119360320Y-111070270D01*
X119360320Y-110432770D01*
X119361855Y-110401527D01*
X119366445Y-110370585D01*
X119374045Y-110340242D01*
X119384583Y-110310790D01*
X119397958Y-110282512D01*
X119414039Y-110255682D01*
X119432673Y-110230557D01*
X119453680Y-110207380D01*
X119476857Y-110186373D01*
X119501982Y-110167739D01*
X119528812Y-110151658D01*
X119557090Y-110138283D01*
X119586542Y-110127745D01*
X119616885Y-110120145D01*
X119647827Y-110115555D01*
X119679070Y-110114020D01*
X120391570Y-110114020D01*
X120422813Y-110115555D01*
X120422813Y-110115555D01*
G37*
D11*
X120035320Y-110751520D03*
D10*
G36*
X120422813Y-111690555D02*
G01*
X120453755Y-111695145D01*
X120484098Y-111702745D01*
X120513550Y-111713283D01*
X120541828Y-111726658D01*
X120568658Y-111742739D01*
X120593783Y-111761373D01*
X120616960Y-111782380D01*
X120637967Y-111805557D01*
X120656601Y-111830682D01*
X120672682Y-111857512D01*
X120686057Y-111885790D01*
X120696595Y-111915242D01*
X120704195Y-111945585D01*
X120708785Y-111976527D01*
X120710320Y-112007770D01*
X120710320Y-112645270D01*
X120708785Y-112676513D01*
X120704195Y-112707455D01*
X120696595Y-112737798D01*
X120686057Y-112767250D01*
X120672682Y-112795528D01*
X120656601Y-112822358D01*
X120637967Y-112847483D01*
X120616960Y-112870660D01*
X120593783Y-112891667D01*
X120568658Y-112910301D01*
X120541828Y-112926382D01*
X120513550Y-112939757D01*
X120484098Y-112950295D01*
X120453755Y-112957895D01*
X120422813Y-112962485D01*
X120391570Y-112964020D01*
X119679070Y-112964020D01*
X119647827Y-112962485D01*
X119616885Y-112957895D01*
X119586542Y-112950295D01*
X119557090Y-112939757D01*
X119528812Y-112926382D01*
X119501982Y-112910301D01*
X119476857Y-112891667D01*
X119453680Y-112870660D01*
X119432673Y-112847483D01*
X119414039Y-112822358D01*
X119397958Y-112795528D01*
X119384583Y-112767250D01*
X119374045Y-112737798D01*
X119366445Y-112707455D01*
X119361855Y-112676513D01*
X119360320Y-112645270D01*
X119360320Y-112007770D01*
X119361855Y-111976527D01*
X119366445Y-111945585D01*
X119374045Y-111915242D01*
X119384583Y-111885790D01*
X119397958Y-111857512D01*
X119414039Y-111830682D01*
X119432673Y-111805557D01*
X119453680Y-111782380D01*
X119476857Y-111761373D01*
X119501982Y-111742739D01*
X119528812Y-111726658D01*
X119557090Y-111713283D01*
X119586542Y-111702745D01*
X119616885Y-111695145D01*
X119647827Y-111690555D01*
X119679070Y-111689020D01*
X120391570Y-111689020D01*
X120422813Y-111690555D01*
X120422813Y-111690555D01*
G37*
D11*
X120035320Y-112326520D03*
D10*
G36*
X118878493Y-111682935D02*
G01*
X118909435Y-111687525D01*
X118939778Y-111695125D01*
X118969230Y-111705663D01*
X118997508Y-111719038D01*
X119024338Y-111735119D01*
X119049463Y-111753753D01*
X119072640Y-111774760D01*
X119093647Y-111797937D01*
X119112281Y-111823062D01*
X119128362Y-111849892D01*
X119141737Y-111878170D01*
X119152275Y-111907622D01*
X119159875Y-111937965D01*
X119164465Y-111968907D01*
X119166000Y-112000150D01*
X119166000Y-112637650D01*
X119164465Y-112668893D01*
X119159875Y-112699835D01*
X119152275Y-112730178D01*
X119141737Y-112759630D01*
X119128362Y-112787908D01*
X119112281Y-112814738D01*
X119093647Y-112839863D01*
X119072640Y-112863040D01*
X119049463Y-112884047D01*
X119024338Y-112902681D01*
X118997508Y-112918762D01*
X118969230Y-112932137D01*
X118939778Y-112942675D01*
X118909435Y-112950275D01*
X118878493Y-112954865D01*
X118847250Y-112956400D01*
X118134750Y-112956400D01*
X118103507Y-112954865D01*
X118072565Y-112950275D01*
X118042222Y-112942675D01*
X118012770Y-112932137D01*
X117984492Y-112918762D01*
X117957662Y-112902681D01*
X117932537Y-112884047D01*
X117909360Y-112863040D01*
X117888353Y-112839863D01*
X117869719Y-112814738D01*
X117853638Y-112787908D01*
X117840263Y-112759630D01*
X117829725Y-112730178D01*
X117822125Y-112699835D01*
X117817535Y-112668893D01*
X117816000Y-112637650D01*
X117816000Y-112000150D01*
X117817535Y-111968907D01*
X117822125Y-111937965D01*
X117829725Y-111907622D01*
X117840263Y-111878170D01*
X117853638Y-111849892D01*
X117869719Y-111823062D01*
X117888353Y-111797937D01*
X117909360Y-111774760D01*
X117932537Y-111753753D01*
X117957662Y-111735119D01*
X117984492Y-111719038D01*
X118012770Y-111705663D01*
X118042222Y-111695125D01*
X118072565Y-111687525D01*
X118103507Y-111682935D01*
X118134750Y-111681400D01*
X118847250Y-111681400D01*
X118878493Y-111682935D01*
X118878493Y-111682935D01*
G37*
D11*
X118491000Y-112318900D03*
D10*
G36*
X118878493Y-110107935D02*
G01*
X118909435Y-110112525D01*
X118939778Y-110120125D01*
X118969230Y-110130663D01*
X118997508Y-110144038D01*
X119024338Y-110160119D01*
X119049463Y-110178753D01*
X119072640Y-110199760D01*
X119093647Y-110222937D01*
X119112281Y-110248062D01*
X119128362Y-110274892D01*
X119141737Y-110303170D01*
X119152275Y-110332622D01*
X119159875Y-110362965D01*
X119164465Y-110393907D01*
X119166000Y-110425150D01*
X119166000Y-111062650D01*
X119164465Y-111093893D01*
X119159875Y-111124835D01*
X119152275Y-111155178D01*
X119141737Y-111184630D01*
X119128362Y-111212908D01*
X119112281Y-111239738D01*
X119093647Y-111264863D01*
X119072640Y-111288040D01*
X119049463Y-111309047D01*
X119024338Y-111327681D01*
X118997508Y-111343762D01*
X118969230Y-111357137D01*
X118939778Y-111367675D01*
X118909435Y-111375275D01*
X118878493Y-111379865D01*
X118847250Y-111381400D01*
X118134750Y-111381400D01*
X118103507Y-111379865D01*
X118072565Y-111375275D01*
X118042222Y-111367675D01*
X118012770Y-111357137D01*
X117984492Y-111343762D01*
X117957662Y-111327681D01*
X117932537Y-111309047D01*
X117909360Y-111288040D01*
X117888353Y-111264863D01*
X117869719Y-111239738D01*
X117853638Y-111212908D01*
X117840263Y-111184630D01*
X117829725Y-111155178D01*
X117822125Y-111124835D01*
X117817535Y-111093893D01*
X117816000Y-111062650D01*
X117816000Y-110425150D01*
X117817535Y-110393907D01*
X117822125Y-110362965D01*
X117829725Y-110332622D01*
X117840263Y-110303170D01*
X117853638Y-110274892D01*
X117869719Y-110248062D01*
X117888353Y-110222937D01*
X117909360Y-110199760D01*
X117932537Y-110178753D01*
X117957662Y-110160119D01*
X117984492Y-110144038D01*
X118012770Y-110130663D01*
X118042222Y-110120125D01*
X118072565Y-110112525D01*
X118103507Y-110107935D01*
X118134750Y-110106400D01*
X118847250Y-110106400D01*
X118878493Y-110107935D01*
X118878493Y-110107935D01*
G37*
D11*
X118491000Y-110743900D03*
D10*
G36*
X116630593Y-110110475D02*
G01*
X116661535Y-110115065D01*
X116691878Y-110122665D01*
X116721330Y-110133203D01*
X116749608Y-110146578D01*
X116776438Y-110162659D01*
X116801563Y-110181293D01*
X116824740Y-110202300D01*
X116845747Y-110225477D01*
X116864381Y-110250602D01*
X116880462Y-110277432D01*
X116893837Y-110305710D01*
X116904375Y-110335162D01*
X116911975Y-110365505D01*
X116916565Y-110396447D01*
X116918100Y-110427690D01*
X116918100Y-111065190D01*
X116916565Y-111096433D01*
X116911975Y-111127375D01*
X116904375Y-111157718D01*
X116893837Y-111187170D01*
X116880462Y-111215448D01*
X116864381Y-111242278D01*
X116845747Y-111267403D01*
X116824740Y-111290580D01*
X116801563Y-111311587D01*
X116776438Y-111330221D01*
X116749608Y-111346302D01*
X116721330Y-111359677D01*
X116691878Y-111370215D01*
X116661535Y-111377815D01*
X116630593Y-111382405D01*
X116599350Y-111383940D01*
X115886850Y-111383940D01*
X115855607Y-111382405D01*
X115824665Y-111377815D01*
X115794322Y-111370215D01*
X115764870Y-111359677D01*
X115736592Y-111346302D01*
X115709762Y-111330221D01*
X115684637Y-111311587D01*
X115661460Y-111290580D01*
X115640453Y-111267403D01*
X115621819Y-111242278D01*
X115605738Y-111215448D01*
X115592363Y-111187170D01*
X115581825Y-111157718D01*
X115574225Y-111127375D01*
X115569635Y-111096433D01*
X115568100Y-111065190D01*
X115568100Y-110427690D01*
X115569635Y-110396447D01*
X115574225Y-110365505D01*
X115581825Y-110335162D01*
X115592363Y-110305710D01*
X115605738Y-110277432D01*
X115621819Y-110250602D01*
X115640453Y-110225477D01*
X115661460Y-110202300D01*
X115684637Y-110181293D01*
X115709762Y-110162659D01*
X115736592Y-110146578D01*
X115764870Y-110133203D01*
X115794322Y-110122665D01*
X115824665Y-110115065D01*
X115855607Y-110110475D01*
X115886850Y-110108940D01*
X116599350Y-110108940D01*
X116630593Y-110110475D01*
X116630593Y-110110475D01*
G37*
D11*
X116243100Y-110746440D03*
D10*
G36*
X116630593Y-111685475D02*
G01*
X116661535Y-111690065D01*
X116691878Y-111697665D01*
X116721330Y-111708203D01*
X116749608Y-111721578D01*
X116776438Y-111737659D01*
X116801563Y-111756293D01*
X116824740Y-111777300D01*
X116845747Y-111800477D01*
X116864381Y-111825602D01*
X116880462Y-111852432D01*
X116893837Y-111880710D01*
X116904375Y-111910162D01*
X116911975Y-111940505D01*
X116916565Y-111971447D01*
X116918100Y-112002690D01*
X116918100Y-112640190D01*
X116916565Y-112671433D01*
X116911975Y-112702375D01*
X116904375Y-112732718D01*
X116893837Y-112762170D01*
X116880462Y-112790448D01*
X116864381Y-112817278D01*
X116845747Y-112842403D01*
X116824740Y-112865580D01*
X116801563Y-112886587D01*
X116776438Y-112905221D01*
X116749608Y-112921302D01*
X116721330Y-112934677D01*
X116691878Y-112945215D01*
X116661535Y-112952815D01*
X116630593Y-112957405D01*
X116599350Y-112958940D01*
X115886850Y-112958940D01*
X115855607Y-112957405D01*
X115824665Y-112952815D01*
X115794322Y-112945215D01*
X115764870Y-112934677D01*
X115736592Y-112921302D01*
X115709762Y-112905221D01*
X115684637Y-112886587D01*
X115661460Y-112865580D01*
X115640453Y-112842403D01*
X115621819Y-112817278D01*
X115605738Y-112790448D01*
X115592363Y-112762170D01*
X115581825Y-112732718D01*
X115574225Y-112702375D01*
X115569635Y-112671433D01*
X115568100Y-112640190D01*
X115568100Y-112002690D01*
X115569635Y-111971447D01*
X115574225Y-111940505D01*
X115581825Y-111910162D01*
X115592363Y-111880710D01*
X115605738Y-111852432D01*
X115621819Y-111825602D01*
X115640453Y-111800477D01*
X115661460Y-111777300D01*
X115684637Y-111756293D01*
X115709762Y-111737659D01*
X115736592Y-111721578D01*
X115764870Y-111708203D01*
X115794322Y-111697665D01*
X115824665Y-111690065D01*
X115855607Y-111685475D01*
X115886850Y-111683940D01*
X116599350Y-111683940D01*
X116630593Y-111685475D01*
X116630593Y-111685475D01*
G37*
D11*
X116243100Y-112321440D03*
D10*
G36*
X115078653Y-111688015D02*
G01*
X115109595Y-111692605D01*
X115139938Y-111700205D01*
X115169390Y-111710743D01*
X115197668Y-111724118D01*
X115224498Y-111740199D01*
X115249623Y-111758833D01*
X115272800Y-111779840D01*
X115293807Y-111803017D01*
X115312441Y-111828142D01*
X115328522Y-111854972D01*
X115341897Y-111883250D01*
X115352435Y-111912702D01*
X115360035Y-111943045D01*
X115364625Y-111973987D01*
X115366160Y-112005230D01*
X115366160Y-112642730D01*
X115364625Y-112673973D01*
X115360035Y-112704915D01*
X115352435Y-112735258D01*
X115341897Y-112764710D01*
X115328522Y-112792988D01*
X115312441Y-112819818D01*
X115293807Y-112844943D01*
X115272800Y-112868120D01*
X115249623Y-112889127D01*
X115224498Y-112907761D01*
X115197668Y-112923842D01*
X115169390Y-112937217D01*
X115139938Y-112947755D01*
X115109595Y-112955355D01*
X115078653Y-112959945D01*
X115047410Y-112961480D01*
X114334910Y-112961480D01*
X114303667Y-112959945D01*
X114272725Y-112955355D01*
X114242382Y-112947755D01*
X114212930Y-112937217D01*
X114184652Y-112923842D01*
X114157822Y-112907761D01*
X114132697Y-112889127D01*
X114109520Y-112868120D01*
X114088513Y-112844943D01*
X114069879Y-112819818D01*
X114053798Y-112792988D01*
X114040423Y-112764710D01*
X114029885Y-112735258D01*
X114022285Y-112704915D01*
X114017695Y-112673973D01*
X114016160Y-112642730D01*
X114016160Y-112005230D01*
X114017695Y-111973987D01*
X114022285Y-111943045D01*
X114029885Y-111912702D01*
X114040423Y-111883250D01*
X114053798Y-111854972D01*
X114069879Y-111828142D01*
X114088513Y-111803017D01*
X114109520Y-111779840D01*
X114132697Y-111758833D01*
X114157822Y-111740199D01*
X114184652Y-111724118D01*
X114212930Y-111710743D01*
X114242382Y-111700205D01*
X114272725Y-111692605D01*
X114303667Y-111688015D01*
X114334910Y-111686480D01*
X115047410Y-111686480D01*
X115078653Y-111688015D01*
X115078653Y-111688015D01*
G37*
D11*
X114691160Y-112323980D03*
D10*
G36*
X115078653Y-110113015D02*
G01*
X115109595Y-110117605D01*
X115139938Y-110125205D01*
X115169390Y-110135743D01*
X115197668Y-110149118D01*
X115224498Y-110165199D01*
X115249623Y-110183833D01*
X115272800Y-110204840D01*
X115293807Y-110228017D01*
X115312441Y-110253142D01*
X115328522Y-110279972D01*
X115341897Y-110308250D01*
X115352435Y-110337702D01*
X115360035Y-110368045D01*
X115364625Y-110398987D01*
X115366160Y-110430230D01*
X115366160Y-111067730D01*
X115364625Y-111098973D01*
X115360035Y-111129915D01*
X115352435Y-111160258D01*
X115341897Y-111189710D01*
X115328522Y-111217988D01*
X115312441Y-111244818D01*
X115293807Y-111269943D01*
X115272800Y-111293120D01*
X115249623Y-111314127D01*
X115224498Y-111332761D01*
X115197668Y-111348842D01*
X115169390Y-111362217D01*
X115139938Y-111372755D01*
X115109595Y-111380355D01*
X115078653Y-111384945D01*
X115047410Y-111386480D01*
X114334910Y-111386480D01*
X114303667Y-111384945D01*
X114272725Y-111380355D01*
X114242382Y-111372755D01*
X114212930Y-111362217D01*
X114184652Y-111348842D01*
X114157822Y-111332761D01*
X114132697Y-111314127D01*
X114109520Y-111293120D01*
X114088513Y-111269943D01*
X114069879Y-111244818D01*
X114053798Y-111217988D01*
X114040423Y-111189710D01*
X114029885Y-111160258D01*
X114022285Y-111129915D01*
X114017695Y-111098973D01*
X114016160Y-111067730D01*
X114016160Y-110430230D01*
X114017695Y-110398987D01*
X114022285Y-110368045D01*
X114029885Y-110337702D01*
X114040423Y-110308250D01*
X114053798Y-110279972D01*
X114069879Y-110253142D01*
X114088513Y-110228017D01*
X114109520Y-110204840D01*
X114132697Y-110183833D01*
X114157822Y-110165199D01*
X114184652Y-110149118D01*
X114212930Y-110135743D01*
X114242382Y-110125205D01*
X114272725Y-110117605D01*
X114303667Y-110113015D01*
X114334910Y-110111480D01*
X115047410Y-110111480D01*
X115078653Y-110113015D01*
X115078653Y-110113015D01*
G37*
D11*
X114691160Y-110748980D03*
D10*
G36*
X117443393Y-124827435D02*
G01*
X117474335Y-124832025D01*
X117504678Y-124839625D01*
X117534130Y-124850163D01*
X117562408Y-124863538D01*
X117589238Y-124879619D01*
X117614363Y-124898253D01*
X117637540Y-124919260D01*
X117658547Y-124942437D01*
X117677181Y-124967562D01*
X117693262Y-124994392D01*
X117706637Y-125022670D01*
X117717175Y-125052122D01*
X117724775Y-125082465D01*
X117729365Y-125113407D01*
X117730900Y-125144650D01*
X117730900Y-125782150D01*
X117729365Y-125813393D01*
X117724775Y-125844335D01*
X117717175Y-125874678D01*
X117706637Y-125904130D01*
X117693262Y-125932408D01*
X117677181Y-125959238D01*
X117658547Y-125984363D01*
X117637540Y-126007540D01*
X117614363Y-126028547D01*
X117589238Y-126047181D01*
X117562408Y-126063262D01*
X117534130Y-126076637D01*
X117504678Y-126087175D01*
X117474335Y-126094775D01*
X117443393Y-126099365D01*
X117412150Y-126100900D01*
X116699650Y-126100900D01*
X116668407Y-126099365D01*
X116637465Y-126094775D01*
X116607122Y-126087175D01*
X116577670Y-126076637D01*
X116549392Y-126063262D01*
X116522562Y-126047181D01*
X116497437Y-126028547D01*
X116474260Y-126007540D01*
X116453253Y-125984363D01*
X116434619Y-125959238D01*
X116418538Y-125932408D01*
X116405163Y-125904130D01*
X116394625Y-125874678D01*
X116387025Y-125844335D01*
X116382435Y-125813393D01*
X116380900Y-125782150D01*
X116380900Y-125144650D01*
X116382435Y-125113407D01*
X116387025Y-125082465D01*
X116394625Y-125052122D01*
X116405163Y-125022670D01*
X116418538Y-124994392D01*
X116434619Y-124967562D01*
X116453253Y-124942437D01*
X116474260Y-124919260D01*
X116497437Y-124898253D01*
X116522562Y-124879619D01*
X116549392Y-124863538D01*
X116577670Y-124850163D01*
X116607122Y-124839625D01*
X116637465Y-124832025D01*
X116668407Y-124827435D01*
X116699650Y-124825900D01*
X117412150Y-124825900D01*
X117443393Y-124827435D01*
X117443393Y-124827435D01*
G37*
D11*
X117055900Y-125463400D03*
D10*
G36*
X117443393Y-123252435D02*
G01*
X117474335Y-123257025D01*
X117504678Y-123264625D01*
X117534130Y-123275163D01*
X117562408Y-123288538D01*
X117589238Y-123304619D01*
X117614363Y-123323253D01*
X117637540Y-123344260D01*
X117658547Y-123367437D01*
X117677181Y-123392562D01*
X117693262Y-123419392D01*
X117706637Y-123447670D01*
X117717175Y-123477122D01*
X117724775Y-123507465D01*
X117729365Y-123538407D01*
X117730900Y-123569650D01*
X117730900Y-124207150D01*
X117729365Y-124238393D01*
X117724775Y-124269335D01*
X117717175Y-124299678D01*
X117706637Y-124329130D01*
X117693262Y-124357408D01*
X117677181Y-124384238D01*
X117658547Y-124409363D01*
X117637540Y-124432540D01*
X117614363Y-124453547D01*
X117589238Y-124472181D01*
X117562408Y-124488262D01*
X117534130Y-124501637D01*
X117504678Y-124512175D01*
X117474335Y-124519775D01*
X117443393Y-124524365D01*
X117412150Y-124525900D01*
X116699650Y-124525900D01*
X116668407Y-124524365D01*
X116637465Y-124519775D01*
X116607122Y-124512175D01*
X116577670Y-124501637D01*
X116549392Y-124488262D01*
X116522562Y-124472181D01*
X116497437Y-124453547D01*
X116474260Y-124432540D01*
X116453253Y-124409363D01*
X116434619Y-124384238D01*
X116418538Y-124357408D01*
X116405163Y-124329130D01*
X116394625Y-124299678D01*
X116387025Y-124269335D01*
X116382435Y-124238393D01*
X116380900Y-124207150D01*
X116380900Y-123569650D01*
X116382435Y-123538407D01*
X116387025Y-123507465D01*
X116394625Y-123477122D01*
X116405163Y-123447670D01*
X116418538Y-123419392D01*
X116434619Y-123392562D01*
X116453253Y-123367437D01*
X116474260Y-123344260D01*
X116497437Y-123323253D01*
X116522562Y-123304619D01*
X116549392Y-123288538D01*
X116577670Y-123275163D01*
X116607122Y-123264625D01*
X116637465Y-123257025D01*
X116668407Y-123252435D01*
X116699650Y-123250900D01*
X117412150Y-123250900D01*
X117443393Y-123252435D01*
X117443393Y-123252435D01*
G37*
D11*
X117055900Y-123888400D03*
D10*
G36*
X119132493Y-126369015D02*
G01*
X119163435Y-126373605D01*
X119193778Y-126381205D01*
X119223230Y-126391743D01*
X119251508Y-126405118D01*
X119278338Y-126421199D01*
X119303463Y-126439833D01*
X119326640Y-126460840D01*
X119347647Y-126484017D01*
X119366281Y-126509142D01*
X119382362Y-126535972D01*
X119395737Y-126564250D01*
X119406275Y-126593702D01*
X119413875Y-126624045D01*
X119418465Y-126654987D01*
X119420000Y-126686230D01*
X119420000Y-127323730D01*
X119418465Y-127354973D01*
X119413875Y-127385915D01*
X119406275Y-127416258D01*
X119395737Y-127445710D01*
X119382362Y-127473988D01*
X119366281Y-127500818D01*
X119347647Y-127525943D01*
X119326640Y-127549120D01*
X119303463Y-127570127D01*
X119278338Y-127588761D01*
X119251508Y-127604842D01*
X119223230Y-127618217D01*
X119193778Y-127628755D01*
X119163435Y-127636355D01*
X119132493Y-127640945D01*
X119101250Y-127642480D01*
X118388750Y-127642480D01*
X118357507Y-127640945D01*
X118326565Y-127636355D01*
X118296222Y-127628755D01*
X118266770Y-127618217D01*
X118238492Y-127604842D01*
X118211662Y-127588761D01*
X118186537Y-127570127D01*
X118163360Y-127549120D01*
X118142353Y-127525943D01*
X118123719Y-127500818D01*
X118107638Y-127473988D01*
X118094263Y-127445710D01*
X118083725Y-127416258D01*
X118076125Y-127385915D01*
X118071535Y-127354973D01*
X118070000Y-127323730D01*
X118070000Y-126686230D01*
X118071535Y-126654987D01*
X118076125Y-126624045D01*
X118083725Y-126593702D01*
X118094263Y-126564250D01*
X118107638Y-126535972D01*
X118123719Y-126509142D01*
X118142353Y-126484017D01*
X118163360Y-126460840D01*
X118186537Y-126439833D01*
X118211662Y-126421199D01*
X118238492Y-126405118D01*
X118266770Y-126391743D01*
X118296222Y-126381205D01*
X118326565Y-126373605D01*
X118357507Y-126369015D01*
X118388750Y-126367480D01*
X119101250Y-126367480D01*
X119132493Y-126369015D01*
X119132493Y-126369015D01*
G37*
D11*
X118745000Y-127004980D03*
D10*
G36*
X119132493Y-127944015D02*
G01*
X119163435Y-127948605D01*
X119193778Y-127956205D01*
X119223230Y-127966743D01*
X119251508Y-127980118D01*
X119278338Y-127996199D01*
X119303463Y-128014833D01*
X119326640Y-128035840D01*
X119347647Y-128059017D01*
X119366281Y-128084142D01*
X119382362Y-128110972D01*
X119395737Y-128139250D01*
X119406275Y-128168702D01*
X119413875Y-128199045D01*
X119418465Y-128229987D01*
X119420000Y-128261230D01*
X119420000Y-128898730D01*
X119418465Y-128929973D01*
X119413875Y-128960915D01*
X119406275Y-128991258D01*
X119395737Y-129020710D01*
X119382362Y-129048988D01*
X119366281Y-129075818D01*
X119347647Y-129100943D01*
X119326640Y-129124120D01*
X119303463Y-129145127D01*
X119278338Y-129163761D01*
X119251508Y-129179842D01*
X119223230Y-129193217D01*
X119193778Y-129203755D01*
X119163435Y-129211355D01*
X119132493Y-129215945D01*
X119101250Y-129217480D01*
X118388750Y-129217480D01*
X118357507Y-129215945D01*
X118326565Y-129211355D01*
X118296222Y-129203755D01*
X118266770Y-129193217D01*
X118238492Y-129179842D01*
X118211662Y-129163761D01*
X118186537Y-129145127D01*
X118163360Y-129124120D01*
X118142353Y-129100943D01*
X118123719Y-129075818D01*
X118107638Y-129048988D01*
X118094263Y-129020710D01*
X118083725Y-128991258D01*
X118076125Y-128960915D01*
X118071535Y-128929973D01*
X118070000Y-128898730D01*
X118070000Y-128261230D01*
X118071535Y-128229987D01*
X118076125Y-128199045D01*
X118083725Y-128168702D01*
X118094263Y-128139250D01*
X118107638Y-128110972D01*
X118123719Y-128084142D01*
X118142353Y-128059017D01*
X118163360Y-128035840D01*
X118186537Y-128014833D01*
X118211662Y-127996199D01*
X118238492Y-127980118D01*
X118266770Y-127966743D01*
X118296222Y-127956205D01*
X118326565Y-127948605D01*
X118357507Y-127944015D01*
X118388750Y-127942480D01*
X119101250Y-127942480D01*
X119132493Y-127944015D01*
X119132493Y-127944015D01*
G37*
D11*
X118745000Y-128579980D03*
D10*
G36*
X134131193Y-109041335D02*
G01*
X134162135Y-109045925D01*
X134192478Y-109053525D01*
X134221930Y-109064063D01*
X134250208Y-109077438D01*
X134277038Y-109093519D01*
X134302163Y-109112153D01*
X134325340Y-109133160D01*
X134346347Y-109156337D01*
X134364981Y-109181462D01*
X134381062Y-109208292D01*
X134394437Y-109236570D01*
X134404975Y-109266022D01*
X134412575Y-109296365D01*
X134417165Y-109327307D01*
X134418700Y-109358550D01*
X134418700Y-109996050D01*
X134417165Y-110027293D01*
X134412575Y-110058235D01*
X134404975Y-110088578D01*
X134394437Y-110118030D01*
X134381062Y-110146308D01*
X134364981Y-110173138D01*
X134346347Y-110198263D01*
X134325340Y-110221440D01*
X134302163Y-110242447D01*
X134277038Y-110261081D01*
X134250208Y-110277162D01*
X134221930Y-110290537D01*
X134192478Y-110301075D01*
X134162135Y-110308675D01*
X134131193Y-110313265D01*
X134099950Y-110314800D01*
X133387450Y-110314800D01*
X133356207Y-110313265D01*
X133325265Y-110308675D01*
X133294922Y-110301075D01*
X133265470Y-110290537D01*
X133237192Y-110277162D01*
X133210362Y-110261081D01*
X133185237Y-110242447D01*
X133162060Y-110221440D01*
X133141053Y-110198263D01*
X133122419Y-110173138D01*
X133106338Y-110146308D01*
X133092963Y-110118030D01*
X133082425Y-110088578D01*
X133074825Y-110058235D01*
X133070235Y-110027293D01*
X133068700Y-109996050D01*
X133068700Y-109358550D01*
X133070235Y-109327307D01*
X133074825Y-109296365D01*
X133082425Y-109266022D01*
X133092963Y-109236570D01*
X133106338Y-109208292D01*
X133122419Y-109181462D01*
X133141053Y-109156337D01*
X133162060Y-109133160D01*
X133185237Y-109112153D01*
X133210362Y-109093519D01*
X133237192Y-109077438D01*
X133265470Y-109064063D01*
X133294922Y-109053525D01*
X133325265Y-109045925D01*
X133356207Y-109041335D01*
X133387450Y-109039800D01*
X134099950Y-109039800D01*
X134131193Y-109041335D01*
X134131193Y-109041335D01*
G37*
D11*
X133743700Y-109677300D03*
D10*
G36*
X134131193Y-107466335D02*
G01*
X134162135Y-107470925D01*
X134192478Y-107478525D01*
X134221930Y-107489063D01*
X134250208Y-107502438D01*
X134277038Y-107518519D01*
X134302163Y-107537153D01*
X134325340Y-107558160D01*
X134346347Y-107581337D01*
X134364981Y-107606462D01*
X134381062Y-107633292D01*
X134394437Y-107661570D01*
X134404975Y-107691022D01*
X134412575Y-107721365D01*
X134417165Y-107752307D01*
X134418700Y-107783550D01*
X134418700Y-108421050D01*
X134417165Y-108452293D01*
X134412575Y-108483235D01*
X134404975Y-108513578D01*
X134394437Y-108543030D01*
X134381062Y-108571308D01*
X134364981Y-108598138D01*
X134346347Y-108623263D01*
X134325340Y-108646440D01*
X134302163Y-108667447D01*
X134277038Y-108686081D01*
X134250208Y-108702162D01*
X134221930Y-108715537D01*
X134192478Y-108726075D01*
X134162135Y-108733675D01*
X134131193Y-108738265D01*
X134099950Y-108739800D01*
X133387450Y-108739800D01*
X133356207Y-108738265D01*
X133325265Y-108733675D01*
X133294922Y-108726075D01*
X133265470Y-108715537D01*
X133237192Y-108702162D01*
X133210362Y-108686081D01*
X133185237Y-108667447D01*
X133162060Y-108646440D01*
X133141053Y-108623263D01*
X133122419Y-108598138D01*
X133106338Y-108571308D01*
X133092963Y-108543030D01*
X133082425Y-108513578D01*
X133074825Y-108483235D01*
X133070235Y-108452293D01*
X133068700Y-108421050D01*
X133068700Y-107783550D01*
X133070235Y-107752307D01*
X133074825Y-107721365D01*
X133082425Y-107691022D01*
X133092963Y-107661570D01*
X133106338Y-107633292D01*
X133122419Y-107606462D01*
X133141053Y-107581337D01*
X133162060Y-107558160D01*
X133185237Y-107537153D01*
X133210362Y-107518519D01*
X133237192Y-107502438D01*
X133265470Y-107489063D01*
X133294922Y-107478525D01*
X133325265Y-107470925D01*
X133356207Y-107466335D01*
X133387450Y-107464800D01*
X134099950Y-107464800D01*
X134131193Y-107466335D01*
X134131193Y-107466335D01*
G37*
D11*
X133743700Y-108102300D03*
D10*
G36*
X116460913Y-119775875D02*
G01*
X116491855Y-119780465D01*
X116522198Y-119788065D01*
X116551650Y-119798603D01*
X116579928Y-119811978D01*
X116606758Y-119828059D01*
X116631883Y-119846693D01*
X116655060Y-119867700D01*
X116676067Y-119890877D01*
X116694701Y-119916002D01*
X116710782Y-119942832D01*
X116724157Y-119971110D01*
X116734695Y-120000562D01*
X116742295Y-120030905D01*
X116746885Y-120061847D01*
X116748420Y-120093090D01*
X116748420Y-120805590D01*
X116746885Y-120836833D01*
X116742295Y-120867775D01*
X116734695Y-120898118D01*
X116724157Y-120927570D01*
X116710782Y-120955848D01*
X116694701Y-120982678D01*
X116676067Y-121007803D01*
X116655060Y-121030980D01*
X116631883Y-121051987D01*
X116606758Y-121070621D01*
X116579928Y-121086702D01*
X116551650Y-121100077D01*
X116522198Y-121110615D01*
X116491855Y-121118215D01*
X116460913Y-121122805D01*
X116429670Y-121124340D01*
X115792170Y-121124340D01*
X115760927Y-121122805D01*
X115729985Y-121118215D01*
X115699642Y-121110615D01*
X115670190Y-121100077D01*
X115641912Y-121086702D01*
X115615082Y-121070621D01*
X115589957Y-121051987D01*
X115566780Y-121030980D01*
X115545773Y-121007803D01*
X115527139Y-120982678D01*
X115511058Y-120955848D01*
X115497683Y-120927570D01*
X115487145Y-120898118D01*
X115479545Y-120867775D01*
X115474955Y-120836833D01*
X115473420Y-120805590D01*
X115473420Y-120093090D01*
X115474955Y-120061847D01*
X115479545Y-120030905D01*
X115487145Y-120000562D01*
X115497683Y-119971110D01*
X115511058Y-119942832D01*
X115527139Y-119916002D01*
X115545773Y-119890877D01*
X115566780Y-119867700D01*
X115589957Y-119846693D01*
X115615082Y-119828059D01*
X115641912Y-119811978D01*
X115670190Y-119798603D01*
X115699642Y-119788065D01*
X115729985Y-119780465D01*
X115760927Y-119775875D01*
X115792170Y-119774340D01*
X116429670Y-119774340D01*
X116460913Y-119775875D01*
X116460913Y-119775875D01*
G37*
D11*
X116110920Y-120449340D03*
D10*
G36*
X118035913Y-119775875D02*
G01*
X118066855Y-119780465D01*
X118097198Y-119788065D01*
X118126650Y-119798603D01*
X118154928Y-119811978D01*
X118181758Y-119828059D01*
X118206883Y-119846693D01*
X118230060Y-119867700D01*
X118251067Y-119890877D01*
X118269701Y-119916002D01*
X118285782Y-119942832D01*
X118299157Y-119971110D01*
X118309695Y-120000562D01*
X118317295Y-120030905D01*
X118321885Y-120061847D01*
X118323420Y-120093090D01*
X118323420Y-120805590D01*
X118321885Y-120836833D01*
X118317295Y-120867775D01*
X118309695Y-120898118D01*
X118299157Y-120927570D01*
X118285782Y-120955848D01*
X118269701Y-120982678D01*
X118251067Y-121007803D01*
X118230060Y-121030980D01*
X118206883Y-121051987D01*
X118181758Y-121070621D01*
X118154928Y-121086702D01*
X118126650Y-121100077D01*
X118097198Y-121110615D01*
X118066855Y-121118215D01*
X118035913Y-121122805D01*
X118004670Y-121124340D01*
X117367170Y-121124340D01*
X117335927Y-121122805D01*
X117304985Y-121118215D01*
X117274642Y-121110615D01*
X117245190Y-121100077D01*
X117216912Y-121086702D01*
X117190082Y-121070621D01*
X117164957Y-121051987D01*
X117141780Y-121030980D01*
X117120773Y-121007803D01*
X117102139Y-120982678D01*
X117086058Y-120955848D01*
X117072683Y-120927570D01*
X117062145Y-120898118D01*
X117054545Y-120867775D01*
X117049955Y-120836833D01*
X117048420Y-120805590D01*
X117048420Y-120093090D01*
X117049955Y-120061847D01*
X117054545Y-120030905D01*
X117062145Y-120000562D01*
X117072683Y-119971110D01*
X117086058Y-119942832D01*
X117102139Y-119916002D01*
X117120773Y-119890877D01*
X117141780Y-119867700D01*
X117164957Y-119846693D01*
X117190082Y-119828059D01*
X117216912Y-119811978D01*
X117245190Y-119798603D01*
X117274642Y-119788065D01*
X117304985Y-119780465D01*
X117335927Y-119775875D01*
X117367170Y-119774340D01*
X118004670Y-119774340D01*
X118035913Y-119775875D01*
X118035913Y-119775875D01*
G37*
D11*
X117685920Y-120449340D03*
D10*
G36*
X117481493Y-126369015D02*
G01*
X117512435Y-126373605D01*
X117542778Y-126381205D01*
X117572230Y-126391743D01*
X117600508Y-126405118D01*
X117627338Y-126421199D01*
X117652463Y-126439833D01*
X117675640Y-126460840D01*
X117696647Y-126484017D01*
X117715281Y-126509142D01*
X117731362Y-126535972D01*
X117744737Y-126564250D01*
X117755275Y-126593702D01*
X117762875Y-126624045D01*
X117767465Y-126654987D01*
X117769000Y-126686230D01*
X117769000Y-127323730D01*
X117767465Y-127354973D01*
X117762875Y-127385915D01*
X117755275Y-127416258D01*
X117744737Y-127445710D01*
X117731362Y-127473988D01*
X117715281Y-127500818D01*
X117696647Y-127525943D01*
X117675640Y-127549120D01*
X117652463Y-127570127D01*
X117627338Y-127588761D01*
X117600508Y-127604842D01*
X117572230Y-127618217D01*
X117542778Y-127628755D01*
X117512435Y-127636355D01*
X117481493Y-127640945D01*
X117450250Y-127642480D01*
X116737750Y-127642480D01*
X116706507Y-127640945D01*
X116675565Y-127636355D01*
X116645222Y-127628755D01*
X116615770Y-127618217D01*
X116587492Y-127604842D01*
X116560662Y-127588761D01*
X116535537Y-127570127D01*
X116512360Y-127549120D01*
X116491353Y-127525943D01*
X116472719Y-127500818D01*
X116456638Y-127473988D01*
X116443263Y-127445710D01*
X116432725Y-127416258D01*
X116425125Y-127385915D01*
X116420535Y-127354973D01*
X116419000Y-127323730D01*
X116419000Y-126686230D01*
X116420535Y-126654987D01*
X116425125Y-126624045D01*
X116432725Y-126593702D01*
X116443263Y-126564250D01*
X116456638Y-126535972D01*
X116472719Y-126509142D01*
X116491353Y-126484017D01*
X116512360Y-126460840D01*
X116535537Y-126439833D01*
X116560662Y-126421199D01*
X116587492Y-126405118D01*
X116615770Y-126391743D01*
X116645222Y-126381205D01*
X116675565Y-126373605D01*
X116706507Y-126369015D01*
X116737750Y-126367480D01*
X117450250Y-126367480D01*
X117481493Y-126369015D01*
X117481493Y-126369015D01*
G37*
D11*
X117094000Y-127004980D03*
D10*
G36*
X117481493Y-127944015D02*
G01*
X117512435Y-127948605D01*
X117542778Y-127956205D01*
X117572230Y-127966743D01*
X117600508Y-127980118D01*
X117627338Y-127996199D01*
X117652463Y-128014833D01*
X117675640Y-128035840D01*
X117696647Y-128059017D01*
X117715281Y-128084142D01*
X117731362Y-128110972D01*
X117744737Y-128139250D01*
X117755275Y-128168702D01*
X117762875Y-128199045D01*
X117767465Y-128229987D01*
X117769000Y-128261230D01*
X117769000Y-128898730D01*
X117767465Y-128929973D01*
X117762875Y-128960915D01*
X117755275Y-128991258D01*
X117744737Y-129020710D01*
X117731362Y-129048988D01*
X117715281Y-129075818D01*
X117696647Y-129100943D01*
X117675640Y-129124120D01*
X117652463Y-129145127D01*
X117627338Y-129163761D01*
X117600508Y-129179842D01*
X117572230Y-129193217D01*
X117542778Y-129203755D01*
X117512435Y-129211355D01*
X117481493Y-129215945D01*
X117450250Y-129217480D01*
X116737750Y-129217480D01*
X116706507Y-129215945D01*
X116675565Y-129211355D01*
X116645222Y-129203755D01*
X116615770Y-129193217D01*
X116587492Y-129179842D01*
X116560662Y-129163761D01*
X116535537Y-129145127D01*
X116512360Y-129124120D01*
X116491353Y-129100943D01*
X116472719Y-129075818D01*
X116456638Y-129048988D01*
X116443263Y-129020710D01*
X116432725Y-128991258D01*
X116425125Y-128960915D01*
X116420535Y-128929973D01*
X116419000Y-128898730D01*
X116419000Y-128261230D01*
X116420535Y-128229987D01*
X116425125Y-128199045D01*
X116432725Y-128168702D01*
X116443263Y-128139250D01*
X116456638Y-128110972D01*
X116472719Y-128084142D01*
X116491353Y-128059017D01*
X116512360Y-128035840D01*
X116535537Y-128014833D01*
X116560662Y-127996199D01*
X116587492Y-127980118D01*
X116615770Y-127966743D01*
X116645222Y-127956205D01*
X116675565Y-127948605D01*
X116706507Y-127944015D01*
X116737750Y-127942480D01*
X117450250Y-127942480D01*
X117481493Y-127944015D01*
X117481493Y-127944015D01*
G37*
D11*
X117094000Y-128579980D03*
D10*
G36*
X113875193Y-130898535D02*
G01*
X113906135Y-130903125D01*
X113936478Y-130910725D01*
X113965930Y-130921263D01*
X113994208Y-130934638D01*
X114021038Y-130950719D01*
X114046163Y-130969353D01*
X114069340Y-130990360D01*
X114090347Y-131013537D01*
X114108981Y-131038662D01*
X114125062Y-131065492D01*
X114138437Y-131093770D01*
X114148975Y-131123222D01*
X114156575Y-131153565D01*
X114161165Y-131184507D01*
X114162700Y-131215750D01*
X114162700Y-131928250D01*
X114161165Y-131959493D01*
X114156575Y-131990435D01*
X114148975Y-132020778D01*
X114138437Y-132050230D01*
X114125062Y-132078508D01*
X114108981Y-132105338D01*
X114090347Y-132130463D01*
X114069340Y-132153640D01*
X114046163Y-132174647D01*
X114021038Y-132193281D01*
X113994208Y-132209362D01*
X113965930Y-132222737D01*
X113936478Y-132233275D01*
X113906135Y-132240875D01*
X113875193Y-132245465D01*
X113843950Y-132247000D01*
X113206450Y-132247000D01*
X113175207Y-132245465D01*
X113144265Y-132240875D01*
X113113922Y-132233275D01*
X113084470Y-132222737D01*
X113056192Y-132209362D01*
X113029362Y-132193281D01*
X113004237Y-132174647D01*
X112981060Y-132153640D01*
X112960053Y-132130463D01*
X112941419Y-132105338D01*
X112925338Y-132078508D01*
X112911963Y-132050230D01*
X112901425Y-132020778D01*
X112893825Y-131990435D01*
X112889235Y-131959493D01*
X112887700Y-131928250D01*
X112887700Y-131215750D01*
X112889235Y-131184507D01*
X112893825Y-131153565D01*
X112901425Y-131123222D01*
X112911963Y-131093770D01*
X112925338Y-131065492D01*
X112941419Y-131038662D01*
X112960053Y-131013537D01*
X112981060Y-130990360D01*
X113004237Y-130969353D01*
X113029362Y-130950719D01*
X113056192Y-130934638D01*
X113084470Y-130921263D01*
X113113922Y-130910725D01*
X113144265Y-130903125D01*
X113175207Y-130898535D01*
X113206450Y-130897000D01*
X113843950Y-130897000D01*
X113875193Y-130898535D01*
X113875193Y-130898535D01*
G37*
D11*
X113525200Y-131572000D03*
D10*
G36*
X115450193Y-130898535D02*
G01*
X115481135Y-130903125D01*
X115511478Y-130910725D01*
X115540930Y-130921263D01*
X115569208Y-130934638D01*
X115596038Y-130950719D01*
X115621163Y-130969353D01*
X115644340Y-130990360D01*
X115665347Y-131013537D01*
X115683981Y-131038662D01*
X115700062Y-131065492D01*
X115713437Y-131093770D01*
X115723975Y-131123222D01*
X115731575Y-131153565D01*
X115736165Y-131184507D01*
X115737700Y-131215750D01*
X115737700Y-131928250D01*
X115736165Y-131959493D01*
X115731575Y-131990435D01*
X115723975Y-132020778D01*
X115713437Y-132050230D01*
X115700062Y-132078508D01*
X115683981Y-132105338D01*
X115665347Y-132130463D01*
X115644340Y-132153640D01*
X115621163Y-132174647D01*
X115596038Y-132193281D01*
X115569208Y-132209362D01*
X115540930Y-132222737D01*
X115511478Y-132233275D01*
X115481135Y-132240875D01*
X115450193Y-132245465D01*
X115418950Y-132247000D01*
X114781450Y-132247000D01*
X114750207Y-132245465D01*
X114719265Y-132240875D01*
X114688922Y-132233275D01*
X114659470Y-132222737D01*
X114631192Y-132209362D01*
X114604362Y-132193281D01*
X114579237Y-132174647D01*
X114556060Y-132153640D01*
X114535053Y-132130463D01*
X114516419Y-132105338D01*
X114500338Y-132078508D01*
X114486963Y-132050230D01*
X114476425Y-132020778D01*
X114468825Y-131990435D01*
X114464235Y-131959493D01*
X114462700Y-131928250D01*
X114462700Y-131215750D01*
X114464235Y-131184507D01*
X114468825Y-131153565D01*
X114476425Y-131123222D01*
X114486963Y-131093770D01*
X114500338Y-131065492D01*
X114516419Y-131038662D01*
X114535053Y-131013537D01*
X114556060Y-130990360D01*
X114579237Y-130969353D01*
X114604362Y-130950719D01*
X114631192Y-130934638D01*
X114659470Y-130921263D01*
X114688922Y-130910725D01*
X114719265Y-130903125D01*
X114750207Y-130898535D01*
X114781450Y-130897000D01*
X115418950Y-130897000D01*
X115450193Y-130898535D01*
X115450193Y-130898535D01*
G37*
D11*
X115100200Y-131572000D03*
D10*
G36*
X134080393Y-112381435D02*
G01*
X134111335Y-112386025D01*
X134141678Y-112393625D01*
X134171130Y-112404163D01*
X134199408Y-112417538D01*
X134226238Y-112433619D01*
X134251363Y-112452253D01*
X134274540Y-112473260D01*
X134295547Y-112496437D01*
X134314181Y-112521562D01*
X134330262Y-112548392D01*
X134343637Y-112576670D01*
X134354175Y-112606122D01*
X134361775Y-112636465D01*
X134366365Y-112667407D01*
X134367900Y-112698650D01*
X134367900Y-113336150D01*
X134366365Y-113367393D01*
X134361775Y-113398335D01*
X134354175Y-113428678D01*
X134343637Y-113458130D01*
X134330262Y-113486408D01*
X134314181Y-113513238D01*
X134295547Y-113538363D01*
X134274540Y-113561540D01*
X134251363Y-113582547D01*
X134226238Y-113601181D01*
X134199408Y-113617262D01*
X134171130Y-113630637D01*
X134141678Y-113641175D01*
X134111335Y-113648775D01*
X134080393Y-113653365D01*
X134049150Y-113654900D01*
X133336650Y-113654900D01*
X133305407Y-113653365D01*
X133274465Y-113648775D01*
X133244122Y-113641175D01*
X133214670Y-113630637D01*
X133186392Y-113617262D01*
X133159562Y-113601181D01*
X133134437Y-113582547D01*
X133111260Y-113561540D01*
X133090253Y-113538363D01*
X133071619Y-113513238D01*
X133055538Y-113486408D01*
X133042163Y-113458130D01*
X133031625Y-113428678D01*
X133024025Y-113398335D01*
X133019435Y-113367393D01*
X133017900Y-113336150D01*
X133017900Y-112698650D01*
X133019435Y-112667407D01*
X133024025Y-112636465D01*
X133031625Y-112606122D01*
X133042163Y-112576670D01*
X133055538Y-112548392D01*
X133071619Y-112521562D01*
X133090253Y-112496437D01*
X133111260Y-112473260D01*
X133134437Y-112452253D01*
X133159562Y-112433619D01*
X133186392Y-112417538D01*
X133214670Y-112404163D01*
X133244122Y-112393625D01*
X133274465Y-112386025D01*
X133305407Y-112381435D01*
X133336650Y-112379900D01*
X134049150Y-112379900D01*
X134080393Y-112381435D01*
X134080393Y-112381435D01*
G37*
D11*
X133692900Y-113017400D03*
D10*
G36*
X134080393Y-110806435D02*
G01*
X134111335Y-110811025D01*
X134141678Y-110818625D01*
X134171130Y-110829163D01*
X134199408Y-110842538D01*
X134226238Y-110858619D01*
X134251363Y-110877253D01*
X134274540Y-110898260D01*
X134295547Y-110921437D01*
X134314181Y-110946562D01*
X134330262Y-110973392D01*
X134343637Y-111001670D01*
X134354175Y-111031122D01*
X134361775Y-111061465D01*
X134366365Y-111092407D01*
X134367900Y-111123650D01*
X134367900Y-111761150D01*
X134366365Y-111792393D01*
X134361775Y-111823335D01*
X134354175Y-111853678D01*
X134343637Y-111883130D01*
X134330262Y-111911408D01*
X134314181Y-111938238D01*
X134295547Y-111963363D01*
X134274540Y-111986540D01*
X134251363Y-112007547D01*
X134226238Y-112026181D01*
X134199408Y-112042262D01*
X134171130Y-112055637D01*
X134141678Y-112066175D01*
X134111335Y-112073775D01*
X134080393Y-112078365D01*
X134049150Y-112079900D01*
X133336650Y-112079900D01*
X133305407Y-112078365D01*
X133274465Y-112073775D01*
X133244122Y-112066175D01*
X133214670Y-112055637D01*
X133186392Y-112042262D01*
X133159562Y-112026181D01*
X133134437Y-112007547D01*
X133111260Y-111986540D01*
X133090253Y-111963363D01*
X133071619Y-111938238D01*
X133055538Y-111911408D01*
X133042163Y-111883130D01*
X133031625Y-111853678D01*
X133024025Y-111823335D01*
X133019435Y-111792393D01*
X133017900Y-111761150D01*
X133017900Y-111123650D01*
X133019435Y-111092407D01*
X133024025Y-111061465D01*
X133031625Y-111031122D01*
X133042163Y-111001670D01*
X133055538Y-110973392D01*
X133071619Y-110946562D01*
X133090253Y-110921437D01*
X133111260Y-110898260D01*
X133134437Y-110877253D01*
X133159562Y-110858619D01*
X133186392Y-110842538D01*
X133214670Y-110829163D01*
X133244122Y-110818625D01*
X133274465Y-110811025D01*
X133305407Y-110806435D01*
X133336650Y-110804900D01*
X134049150Y-110804900D01*
X134080393Y-110806435D01*
X134080393Y-110806435D01*
G37*
D11*
X133692900Y-111442400D03*
D25*
X111310120Y-110985300D03*
X102700120Y-103365300D03*
X111310120Y-108445300D03*
X102700120Y-105905300D03*
X111310120Y-105905300D03*
X102700120Y-108445300D03*
X111310120Y-103365300D03*
X102700120Y-110985300D03*
D26*
X101854200Y-119632600D03*
X101854200Y-122632600D03*
D27*
X103614200Y-118882600D03*
X103614200Y-121882600D03*
X103614200Y-123382600D03*
D28*
X100754200Y-117482600D03*
X100754200Y-124782600D03*
X102964200Y-124782600D03*
X102964200Y-117482600D03*
D29*
X122447400Y-124760300D03*
X123247400Y-124760300D03*
X124047400Y-124760300D03*
X124847400Y-124760300D03*
X125647400Y-124760300D03*
X126447400Y-124760300D03*
X127247400Y-124760300D03*
X128047400Y-124760300D03*
D30*
X129497400Y-123310300D03*
X129497400Y-122510300D03*
X129497400Y-121710300D03*
X129497400Y-120910300D03*
X129497400Y-120110300D03*
X129497400Y-119310300D03*
X129497400Y-118510300D03*
X129497400Y-117710300D03*
D29*
X128047400Y-116260300D03*
X127247400Y-116260300D03*
X126447400Y-116260300D03*
X125647400Y-116260300D03*
X124847400Y-116260300D03*
X124047400Y-116260300D03*
X123247400Y-116260300D03*
X122447400Y-116260300D03*
D30*
X120997400Y-117710300D03*
X120997400Y-118510300D03*
X120997400Y-119310300D03*
X120997400Y-120110300D03*
X120997400Y-120910300D03*
X120997400Y-121710300D03*
X120997400Y-122510300D03*
X120997400Y-123310300D03*
D31*
X106514500Y-117932200D03*
D32*
X112814500Y-117932200D03*
X112814500Y-115632200D03*
X112814500Y-120232200D03*
D33*
X127233600Y-131286900D03*
X131033600Y-131286900D03*
X131033600Y-128986900D03*
X127233600Y-128986900D03*
D23*
X137210800Y-95846900D03*
D24*
X137210800Y-93306900D03*
X139750800Y-95846900D03*
X139750800Y-93306900D03*
X142290800Y-95846900D03*
X142290800Y-93306900D03*
M02*
