G04 #@! TF.GenerationSoftware,KiCad,Pcbnew,(5.1.0-0)*
G04 #@! TF.CreationDate,2020-05-26T23:43:54-04:00*
G04 #@! TF.ProjectId,ROCKETasp_v3,524f434b-4554-4617-9370-5f76332e6b69,3.0*
G04 #@! TF.SameCoordinates,Original*
G04 #@! TF.FileFunction,Legend,Top*
G04 #@! TF.FilePolarity,Positive*
%FSLAX46Y46*%
G04 Gerber Fmt 4.6, Leading zero omitted, Abs format (unit mm)*
G04 Created by KiCad (PCBNEW (5.1.0-0)) date 2020-05-26 23:43:54*
%MOMM*%
%LPD*%
G04 APERTURE LIST*
%ADD10C,0.500000*%
%ADD11C,0.150000*%
%ADD12C,0.120000*%
G04 APERTURE END LIST*
D10*
X137160000Y-98158300D02*
X137604500Y-98856800D01*
X137604500Y-98856800D02*
X136690100Y-98856800D01*
X136690100Y-98856800D02*
X137160000Y-98158300D01*
D11*
X150088452Y-99119890D02*
X150040833Y-99215128D01*
X149993214Y-99262747D01*
X149897976Y-99310366D01*
X149850357Y-99310366D01*
X149755119Y-99262747D01*
X149707500Y-99215128D01*
X149659880Y-99119890D01*
X149659880Y-98929414D01*
X149707500Y-98834176D01*
X149755119Y-98786557D01*
X149850357Y-98738938D01*
X149897976Y-98738938D01*
X149993214Y-98786557D01*
X150040833Y-98834176D01*
X150088452Y-98929414D01*
X150088452Y-99119890D01*
X150136071Y-99215128D01*
X150183690Y-99262747D01*
X150278928Y-99310366D01*
X150469404Y-99310366D01*
X150564642Y-99262747D01*
X150612261Y-99215128D01*
X150659880Y-99119890D01*
X150659880Y-98929414D01*
X150612261Y-98834176D01*
X150564642Y-98786557D01*
X150469404Y-98738938D01*
X150278928Y-98738938D01*
X150183690Y-98786557D01*
X150136071Y-98834176D01*
X150088452Y-98929414D01*
X150564642Y-98310366D02*
X150612261Y-98262747D01*
X150659880Y-98310366D01*
X150612261Y-98357985D01*
X150564642Y-98310366D01*
X150659880Y-98310366D01*
X149659880Y-97929414D02*
X149659880Y-97262747D01*
X150659880Y-97691319D01*
X150088452Y-96738938D02*
X150040833Y-96834176D01*
X149993214Y-96881795D01*
X149897976Y-96929414D01*
X149850357Y-96929414D01*
X149755119Y-96881795D01*
X149707500Y-96834176D01*
X149659880Y-96738938D01*
X149659880Y-96548461D01*
X149707500Y-96453223D01*
X149755119Y-96405604D01*
X149850357Y-96357985D01*
X149897976Y-96357985D01*
X149993214Y-96405604D01*
X150040833Y-96453223D01*
X150088452Y-96548461D01*
X150088452Y-96738938D01*
X150136071Y-96834176D01*
X150183690Y-96881795D01*
X150278928Y-96929414D01*
X150469404Y-96929414D01*
X150564642Y-96881795D01*
X150612261Y-96834176D01*
X150659880Y-96738938D01*
X150659880Y-96548461D01*
X150612261Y-96453223D01*
X150564642Y-96405604D01*
X150469404Y-96357985D01*
X150278928Y-96357985D01*
X150183690Y-96405604D01*
X150136071Y-96453223D01*
X150088452Y-96548461D01*
X150088452Y-95786557D02*
X150040833Y-95881795D01*
X149993214Y-95929414D01*
X149897976Y-95977033D01*
X149850357Y-95977033D01*
X149755119Y-95929414D01*
X149707500Y-95881795D01*
X149659880Y-95786557D01*
X149659880Y-95596080D01*
X149707500Y-95500842D01*
X149755119Y-95453223D01*
X149850357Y-95405604D01*
X149897976Y-95405604D01*
X149993214Y-95453223D01*
X150040833Y-95500842D01*
X150088452Y-95596080D01*
X150088452Y-95786557D01*
X150136071Y-95881795D01*
X150183690Y-95929414D01*
X150278928Y-95977033D01*
X150469404Y-95977033D01*
X150564642Y-95929414D01*
X150612261Y-95881795D01*
X150659880Y-95786557D01*
X150659880Y-95596080D01*
X150612261Y-95500842D01*
X150564642Y-95453223D01*
X150469404Y-95405604D01*
X150278928Y-95405604D01*
X150183690Y-95453223D01*
X150136071Y-95500842D01*
X150088452Y-95596080D01*
X150659880Y-94215128D02*
X149993214Y-94215128D01*
X150088452Y-94215128D02*
X150040833Y-94167509D01*
X149993214Y-94072271D01*
X149993214Y-93929414D01*
X150040833Y-93834176D01*
X150136071Y-93786557D01*
X150659880Y-93786557D01*
X150136071Y-93786557D02*
X150040833Y-93738938D01*
X149993214Y-93643700D01*
X149993214Y-93500842D01*
X150040833Y-93405604D01*
X150136071Y-93357985D01*
X150659880Y-93357985D01*
X150659880Y-92881795D02*
X149993214Y-92881795D01*
X150088452Y-92881795D02*
X150040833Y-92834176D01*
X149993214Y-92738938D01*
X149993214Y-92596080D01*
X150040833Y-92500842D01*
X150136071Y-92453223D01*
X150659880Y-92453223D01*
X150136071Y-92453223D02*
X150040833Y-92405604D01*
X149993214Y-92310366D01*
X149993214Y-92167509D01*
X150040833Y-92072271D01*
X150136071Y-92024652D01*
X150659880Y-92024652D01*
X148907500Y-100037900D02*
X148907500Y-91249500D01*
X145834100Y-100037900D02*
X149493921Y-100037900D01*
X145834100Y-91249500D02*
X149493921Y-91249500D01*
X148907500Y-91249500D02*
X149493921Y-92376004D01*
X148907500Y-91249500D02*
X148321079Y-92376004D01*
X148907500Y-100037900D02*
X149493921Y-98911396D01*
X148907500Y-100037900D02*
X148321079Y-98911396D01*
X156444719Y-112287573D02*
X156444719Y-112906621D01*
X156063766Y-112573288D01*
X156063766Y-112716145D01*
X156016147Y-112811383D01*
X155968528Y-112859002D01*
X155873290Y-112906621D01*
X155635195Y-112906621D01*
X155539957Y-112859002D01*
X155492338Y-112811383D01*
X155444719Y-112716145D01*
X155444719Y-112430430D01*
X155492338Y-112335192D01*
X155539957Y-112287573D01*
X156349480Y-113287573D02*
X156397100Y-113335192D01*
X156444719Y-113430430D01*
X156444719Y-113668526D01*
X156397100Y-113763764D01*
X156349480Y-113811383D01*
X156254242Y-113859002D01*
X156159004Y-113859002D01*
X156016147Y-113811383D01*
X155444719Y-113239954D01*
X155444719Y-113859002D01*
X155539957Y-114287573D02*
X155492338Y-114335192D01*
X155444719Y-114287573D01*
X155492338Y-114239954D01*
X155539957Y-114287573D01*
X155444719Y-114287573D01*
X156016147Y-114906621D02*
X156063766Y-114811383D01*
X156111385Y-114763764D01*
X156206623Y-114716145D01*
X156254242Y-114716145D01*
X156349480Y-114763764D01*
X156397100Y-114811383D01*
X156444719Y-114906621D01*
X156444719Y-115097097D01*
X156397100Y-115192335D01*
X156349480Y-115239954D01*
X156254242Y-115287573D01*
X156206623Y-115287573D01*
X156111385Y-115239954D01*
X156063766Y-115192335D01*
X156016147Y-115097097D01*
X156016147Y-114906621D01*
X155968528Y-114811383D01*
X155920909Y-114763764D01*
X155825671Y-114716145D01*
X155635195Y-114716145D01*
X155539957Y-114763764D01*
X155492338Y-114811383D01*
X155444719Y-114906621D01*
X155444719Y-115097097D01*
X155492338Y-115192335D01*
X155539957Y-115239954D01*
X155635195Y-115287573D01*
X155825671Y-115287573D01*
X155920909Y-115239954D01*
X155968528Y-115192335D01*
X156016147Y-115097097D01*
X156016147Y-115859002D02*
X156063766Y-115763764D01*
X156111385Y-115716145D01*
X156206623Y-115668526D01*
X156254242Y-115668526D01*
X156349480Y-115716145D01*
X156397100Y-115763764D01*
X156444719Y-115859002D01*
X156444719Y-116049478D01*
X156397100Y-116144716D01*
X156349480Y-116192335D01*
X156254242Y-116239954D01*
X156206623Y-116239954D01*
X156111385Y-116192335D01*
X156063766Y-116144716D01*
X156016147Y-116049478D01*
X156016147Y-115859002D01*
X155968528Y-115763764D01*
X155920909Y-115716145D01*
X155825671Y-115668526D01*
X155635195Y-115668526D01*
X155539957Y-115716145D01*
X155492338Y-115763764D01*
X155444719Y-115859002D01*
X155444719Y-116049478D01*
X155492338Y-116144716D01*
X155539957Y-116192335D01*
X155635195Y-116239954D01*
X155825671Y-116239954D01*
X155920909Y-116192335D01*
X155968528Y-116144716D01*
X156016147Y-116049478D01*
X156444719Y-116859002D02*
X156444719Y-116954240D01*
X156397100Y-117049478D01*
X156349480Y-117097097D01*
X156254242Y-117144716D01*
X156063766Y-117192335D01*
X155825671Y-117192335D01*
X155635195Y-117144716D01*
X155539957Y-117097097D01*
X155492338Y-117049478D01*
X155444719Y-116954240D01*
X155444719Y-116859002D01*
X155492338Y-116763764D01*
X155539957Y-116716145D01*
X155635195Y-116668526D01*
X155825671Y-116620907D01*
X156063766Y-116620907D01*
X156254242Y-116668526D01*
X156349480Y-116716145D01*
X156397100Y-116763764D01*
X156444719Y-116859002D01*
X155444719Y-118382811D02*
X156111385Y-118382811D01*
X156016147Y-118382811D02*
X156063766Y-118430430D01*
X156111385Y-118525669D01*
X156111385Y-118668526D01*
X156063766Y-118763764D01*
X155968528Y-118811383D01*
X155444719Y-118811383D01*
X155968528Y-118811383D02*
X156063766Y-118859002D01*
X156111385Y-118954240D01*
X156111385Y-119097097D01*
X156063766Y-119192335D01*
X155968528Y-119239954D01*
X155444719Y-119239954D01*
X155444719Y-119716145D02*
X156111385Y-119716145D01*
X156016147Y-119716145D02*
X156063766Y-119763764D01*
X156111385Y-119859002D01*
X156111385Y-120001859D01*
X156063766Y-120097097D01*
X155968528Y-120144716D01*
X155444719Y-120144716D01*
X155968528Y-120144716D02*
X156063766Y-120192335D01*
X156111385Y-120287573D01*
X156111385Y-120430430D01*
X156063766Y-120525669D01*
X155968528Y-120573288D01*
X155444719Y-120573288D01*
X154597100Y-100037900D02*
X154597100Y-132918200D01*
X146659600Y-100037900D02*
X155183521Y-100037900D01*
X146659600Y-132918200D02*
X155183521Y-132918200D01*
X154597100Y-132918200D02*
X154010679Y-131791696D01*
X154597100Y-132918200D02*
X155183521Y-131791696D01*
X154597100Y-100037900D02*
X154010679Y-101164404D01*
X154597100Y-100037900D02*
X155183521Y-101164404D01*
X118881983Y-138918814D02*
X118881983Y-139585480D01*
X118643888Y-138537861D02*
X118405792Y-139252147D01*
X119024840Y-139252147D01*
X119881983Y-138585480D02*
X119405792Y-138585480D01*
X119358173Y-139061671D01*
X119405792Y-139014052D01*
X119501030Y-138966433D01*
X119739126Y-138966433D01*
X119834364Y-139014052D01*
X119881983Y-139061671D01*
X119929602Y-139156909D01*
X119929602Y-139395004D01*
X119881983Y-139490242D01*
X119834364Y-139537861D01*
X119739126Y-139585480D01*
X119501030Y-139585480D01*
X119405792Y-139537861D01*
X119358173Y-139490242D01*
X120358173Y-139490242D02*
X120405792Y-139537861D01*
X120358173Y-139585480D01*
X120310554Y-139537861D01*
X120358173Y-139490242D01*
X120358173Y-139585480D01*
X121024840Y-138585480D02*
X121120078Y-138585480D01*
X121215316Y-138633100D01*
X121262935Y-138680719D01*
X121310554Y-138775957D01*
X121358173Y-138966433D01*
X121358173Y-139204528D01*
X121310554Y-139395004D01*
X121262935Y-139490242D01*
X121215316Y-139537861D01*
X121120078Y-139585480D01*
X121024840Y-139585480D01*
X120929602Y-139537861D01*
X120881983Y-139490242D01*
X120834364Y-139395004D01*
X120786745Y-139204528D01*
X120786745Y-138966433D01*
X120834364Y-138775957D01*
X120881983Y-138680719D01*
X120929602Y-138633100D01*
X121024840Y-138585480D01*
X121739126Y-138680719D02*
X121786745Y-138633100D01*
X121881983Y-138585480D01*
X122120078Y-138585480D01*
X122215316Y-138633100D01*
X122262935Y-138680719D01*
X122310554Y-138775957D01*
X122310554Y-138871195D01*
X122262935Y-139014052D01*
X121691507Y-139585480D01*
X122310554Y-139585480D01*
X122691507Y-138680719D02*
X122739126Y-138633100D01*
X122834364Y-138585480D01*
X123072459Y-138585480D01*
X123167697Y-138633100D01*
X123215316Y-138680719D01*
X123262935Y-138775957D01*
X123262935Y-138871195D01*
X123215316Y-139014052D01*
X122643888Y-139585480D01*
X123262935Y-139585480D01*
X124453411Y-139585480D02*
X124453411Y-138918814D01*
X124453411Y-139014052D02*
X124501030Y-138966433D01*
X124596269Y-138918814D01*
X124739126Y-138918814D01*
X124834364Y-138966433D01*
X124881983Y-139061671D01*
X124881983Y-139585480D01*
X124881983Y-139061671D02*
X124929602Y-138966433D01*
X125024840Y-138918814D01*
X125167697Y-138918814D01*
X125262935Y-138966433D01*
X125310554Y-139061671D01*
X125310554Y-139585480D01*
X125786745Y-139585480D02*
X125786745Y-138918814D01*
X125786745Y-139014052D02*
X125834364Y-138966433D01*
X125929602Y-138918814D01*
X126072459Y-138918814D01*
X126167697Y-138966433D01*
X126215316Y-139061671D01*
X126215316Y-139585480D01*
X126215316Y-139061671D02*
X126262935Y-138966433D01*
X126358173Y-138918814D01*
X126501030Y-138918814D01*
X126596269Y-138966433D01*
X126643888Y-139061671D01*
X126643888Y-139585480D01*
X100037900Y-137833100D02*
X145059400Y-137833100D01*
X100037900Y-135483600D02*
X100037900Y-138419521D01*
X145059400Y-135483600D02*
X145059400Y-138419521D01*
X145059400Y-137833100D02*
X143932896Y-138419521D01*
X145059400Y-137833100D02*
X143932896Y-137246679D01*
X100037900Y-137833100D02*
X101164404Y-138419521D01*
X100037900Y-137833100D02*
X101164404Y-137246679D01*
D10*
X133705600Y-105397300D02*
X134404100Y-105867200D01*
X133705600Y-106311700D02*
X133705600Y-105397300D01*
X134404100Y-105867200D02*
X133705600Y-106311700D01*
X133781800Y-122415300D02*
X133781800Y-121500900D01*
X133781800Y-121500900D02*
X134480300Y-121970800D01*
X134480300Y-121970800D02*
X133781800Y-122415300D01*
X120708420Y-125498860D02*
X120708420Y-124584460D01*
X121427240Y-125067060D02*
X120728740Y-125511560D01*
X120728740Y-124597160D02*
X121427240Y-125067060D01*
D12*
X125452600Y-130934679D02*
X125452600Y-130609121D01*
X124432600Y-130934679D02*
X124432600Y-130609121D01*
X132903500Y-129250221D02*
X132903500Y-129575779D01*
X133923500Y-129250221D02*
X133923500Y-129575779D01*
X124469941Y-126563660D02*
X124795499Y-126563660D01*
X124469941Y-127583660D02*
X124795499Y-127583660D01*
X127738600Y-112702121D02*
X127738600Y-113027679D01*
X126718600Y-112702121D02*
X126718600Y-113027679D01*
X132894000Y-102217722D02*
X132894000Y-102734878D01*
X134314000Y-102217722D02*
X134314000Y-102734878D01*
X124457241Y-113111820D02*
X124782799Y-113111820D01*
X124457241Y-114131820D02*
X124782799Y-114131820D01*
X106675422Y-124103200D02*
X107192578Y-124103200D01*
X106675422Y-122683200D02*
X107192578Y-122683200D01*
X103192078Y-116000600D02*
X102674922Y-116000600D01*
X103192078Y-114580600D02*
X102674922Y-114580600D01*
X134060000Y-118486422D02*
X134060000Y-119003578D01*
X132640000Y-118486422D02*
X132640000Y-119003578D01*
D11*
X119479760Y-107943880D02*
X117979760Y-107943880D01*
X118729760Y-107878880D02*
X118729760Y-107628880D01*
X119029760Y-106128880D02*
X118429760Y-106128880D01*
X118729760Y-106178880D02*
X118729760Y-106478880D01*
X116037360Y-106178880D02*
X116037360Y-106478880D01*
X116337360Y-106128880D02*
X115737360Y-106128880D01*
X116037360Y-107878880D02*
X116037360Y-107628880D01*
X116787360Y-107943880D02*
X115287360Y-107943880D01*
D12*
X116007000Y-127230600D02*
X116007000Y-128690600D01*
X112847000Y-127230600D02*
X112847000Y-129390600D01*
X112847000Y-127230600D02*
X113777000Y-127230600D01*
X116007000Y-127230600D02*
X115077000Y-127230600D01*
X112834300Y-125220000D02*
X113764300Y-125220000D01*
X115994300Y-125220000D02*
X115064300Y-125220000D01*
X115994300Y-125220000D02*
X115994300Y-123060000D01*
X112834300Y-125220000D02*
X112834300Y-123760000D01*
X102700500Y-128074336D02*
X102700500Y-129278464D01*
X100880500Y-128074336D02*
X100880500Y-129278464D01*
X103961100Y-128564900D02*
X104411100Y-128564900D01*
X103961100Y-130414900D02*
X103961100Y-128564900D01*
X111761100Y-132964900D02*
X111761100Y-132714900D01*
X103961100Y-132964900D02*
X103961100Y-132714900D01*
X111761100Y-130414900D02*
X111761100Y-128564900D01*
X111761100Y-128564900D02*
X111311100Y-128564900D01*
X106161100Y-128014900D02*
X106611100Y-128014900D01*
X106161100Y-128014900D02*
X106161100Y-128464900D01*
X134825800Y-116548600D02*
X137365800Y-116548600D01*
X134825800Y-116548600D02*
X134825800Y-119088600D01*
X135075800Y-116798600D02*
X144425800Y-116798600D01*
X135075800Y-132578600D02*
X135075800Y-116798600D01*
X144425800Y-132578600D02*
X135075800Y-132578600D01*
X144425800Y-116798600D02*
X144425800Y-132578600D01*
X144425800Y-100466400D02*
X144425800Y-116246400D01*
X144425800Y-116246400D02*
X135075800Y-116246400D01*
X135075800Y-116246400D02*
X135075800Y-100466400D01*
X135075800Y-100466400D02*
X144425800Y-100466400D01*
X134825800Y-100216400D02*
X134825800Y-102756400D01*
X134825800Y-100216400D02*
X137365800Y-100216400D01*
X121593300Y-110219800D02*
X121593300Y-107619800D01*
X121593300Y-110219800D02*
X131873300Y-110219800D01*
X131873300Y-110219800D02*
X131873300Y-105019800D01*
X124193300Y-105019800D02*
X131873300Y-105019800D01*
X124193300Y-107619800D02*
X124193300Y-105019800D01*
X121593300Y-107619800D02*
X124193300Y-107619800D01*
X121593300Y-105019800D02*
X122923300Y-105019800D01*
X121593300Y-106349800D02*
X121593300Y-105019800D01*
X119179340Y-103849480D02*
X119179340Y-101189480D01*
X119179340Y-103849480D02*
X131939340Y-103849480D01*
X131939340Y-103849480D02*
X131939340Y-101189480D01*
X119179340Y-101189480D02*
X131939340Y-101189480D01*
X116579340Y-101189480D02*
X117909340Y-101189480D01*
X116579340Y-102519480D02*
X116579340Y-101189480D01*
X120545320Y-111376241D02*
X120545320Y-111701799D01*
X119525320Y-111376241D02*
X119525320Y-111701799D01*
X117981000Y-111368621D02*
X117981000Y-111694179D01*
X119001000Y-111368621D02*
X119001000Y-111694179D01*
X116753100Y-111371161D02*
X116753100Y-111696719D01*
X115733100Y-111371161D02*
X115733100Y-111696719D01*
X114181160Y-111373701D02*
X114181160Y-111699259D01*
X115201160Y-111373701D02*
X115201160Y-111699259D01*
X116545900Y-124838679D02*
X116545900Y-124513121D01*
X117565900Y-124838679D02*
X117565900Y-124513121D01*
X119255000Y-127629701D02*
X119255000Y-127955259D01*
X118235000Y-127629701D02*
X118235000Y-127955259D01*
X133233700Y-108727021D02*
X133233700Y-109052579D01*
X134253700Y-108727021D02*
X134253700Y-109052579D01*
X116735641Y-119939340D02*
X117061199Y-119939340D01*
X116735641Y-120959340D02*
X117061199Y-120959340D01*
X117604000Y-127955259D02*
X117604000Y-127629701D01*
X116584000Y-127955259D02*
X116584000Y-127629701D01*
X114149921Y-131062000D02*
X114475479Y-131062000D01*
X114149921Y-132082000D02*
X114475479Y-132082000D01*
X133182900Y-112067121D02*
X133182900Y-112392679D01*
X134202900Y-112067121D02*
X134202900Y-112392679D01*
X110415120Y-113095300D02*
X103595120Y-113095300D01*
X110415120Y-101255300D02*
X103595120Y-101255300D01*
X110415120Y-113095300D02*
X110415120Y-111785300D01*
X110415120Y-110185300D02*
X110415120Y-109245300D01*
X110415120Y-107645300D02*
X110415120Y-106705300D01*
X110415120Y-105105300D02*
X110415120Y-104165300D01*
X110415120Y-102565300D02*
X110415120Y-101255300D01*
X103595120Y-102565300D02*
X103595120Y-101255300D01*
X103595120Y-105105300D02*
X103595120Y-104165300D01*
X103595120Y-107645300D02*
X103595120Y-106705300D01*
X103595120Y-113095300D02*
X103595120Y-111785300D01*
X103595120Y-110185300D02*
X103595120Y-109245300D01*
X110655120Y-113335300D02*
X109272120Y-113335300D01*
X110655120Y-113335300D02*
X110655120Y-111952300D01*
X108815120Y-111620300D02*
X108815120Y-110350300D01*
X108815120Y-110350300D02*
X105195120Y-110350300D01*
X105195120Y-110350300D02*
X105195120Y-111620300D01*
X105195120Y-111620300D02*
X108815120Y-111620300D01*
X108815120Y-111500300D02*
X107608453Y-111500300D01*
X108815120Y-111380300D02*
X107608453Y-111380300D01*
X108815120Y-111260300D02*
X107608453Y-111260300D01*
X108815120Y-111140300D02*
X107608453Y-111140300D01*
X108815120Y-111020300D02*
X107608453Y-111020300D01*
X108815120Y-110900300D02*
X107608453Y-110900300D01*
X108815120Y-110780300D02*
X107608453Y-110780300D01*
X108815120Y-110660300D02*
X107608453Y-110660300D01*
X108815120Y-110540300D02*
X107608453Y-110540300D01*
X108815120Y-110420300D02*
X107608453Y-110420300D01*
X107608453Y-111620300D02*
X107608453Y-110350300D01*
X108815120Y-109080300D02*
X108815120Y-107810300D01*
X108815120Y-107810300D02*
X105195120Y-107810300D01*
X105195120Y-107810300D02*
X105195120Y-109080300D01*
X105195120Y-109080300D02*
X108815120Y-109080300D01*
X108815120Y-108960300D02*
X107608453Y-108960300D01*
X108815120Y-108840300D02*
X107608453Y-108840300D01*
X108815120Y-108720300D02*
X107608453Y-108720300D01*
X108815120Y-108600300D02*
X107608453Y-108600300D01*
X108815120Y-108480300D02*
X107608453Y-108480300D01*
X108815120Y-108360300D02*
X107608453Y-108360300D01*
X108815120Y-108240300D02*
X107608453Y-108240300D01*
X108815120Y-108120300D02*
X107608453Y-108120300D01*
X108815120Y-108000300D02*
X107608453Y-108000300D01*
X108815120Y-107880300D02*
X107608453Y-107880300D01*
X107608453Y-109080300D02*
X107608453Y-107810300D01*
X108815120Y-106540300D02*
X108815120Y-105270300D01*
X108815120Y-105270300D02*
X105195120Y-105270300D01*
X105195120Y-105270300D02*
X105195120Y-106540300D01*
X105195120Y-106540300D02*
X108815120Y-106540300D01*
X108815120Y-106420300D02*
X107608453Y-106420300D01*
X108815120Y-106300300D02*
X107608453Y-106300300D01*
X108815120Y-106180300D02*
X107608453Y-106180300D01*
X108815120Y-106060300D02*
X107608453Y-106060300D01*
X108815120Y-105940300D02*
X107608453Y-105940300D01*
X108815120Y-105820300D02*
X107608453Y-105820300D01*
X108815120Y-105700300D02*
X107608453Y-105700300D01*
X108815120Y-105580300D02*
X107608453Y-105580300D01*
X108815120Y-105460300D02*
X107608453Y-105460300D01*
X108815120Y-105340300D02*
X107608453Y-105340300D01*
X107608453Y-106540300D02*
X107608453Y-105270300D01*
X108815120Y-104000300D02*
X108815120Y-102730300D01*
X108815120Y-102730300D02*
X105195120Y-102730300D01*
X105195120Y-102730300D02*
X105195120Y-104000300D01*
X105195120Y-104000300D02*
X108815120Y-104000300D01*
X108815120Y-103880300D02*
X107608453Y-103880300D01*
X108815120Y-103760300D02*
X107608453Y-103760300D01*
X108815120Y-103640300D02*
X107608453Y-103640300D01*
X108815120Y-103520300D02*
X107608453Y-103520300D01*
X108815120Y-103400300D02*
X107608453Y-103400300D01*
X108815120Y-103280300D02*
X107608453Y-103280300D01*
X108815120Y-103160300D02*
X107608453Y-103160300D01*
X108815120Y-103040300D02*
X107608453Y-103040300D01*
X108815120Y-102920300D02*
X107608453Y-102920300D01*
X108815120Y-102800300D02*
X107608453Y-102800300D01*
X107608453Y-104000300D02*
X107608453Y-102730300D01*
X103304200Y-122532600D02*
X103304200Y-122732600D01*
X99164200Y-119732600D02*
X98954200Y-119932600D01*
X99164200Y-121032600D02*
X98954200Y-120832600D01*
X100454200Y-119732600D02*
X99164200Y-119732600D01*
X98954200Y-119932600D02*
X98954200Y-120832600D01*
X99164200Y-121032600D02*
X100454200Y-121032600D01*
X100454200Y-118282600D02*
X100454200Y-123982600D01*
X103304200Y-119532600D02*
X103304200Y-121232600D01*
X102254200Y-117682600D02*
X101464200Y-117682600D01*
X101464200Y-124582600D02*
X102254200Y-124582600D01*
D11*
X121622400Y-124135300D02*
X121847400Y-124135300D01*
X121622400Y-116885300D02*
X121947400Y-116885300D01*
X128872400Y-116885300D02*
X128547400Y-116885300D01*
X128872400Y-124135300D02*
X128547400Y-124135300D01*
X121622400Y-124135300D02*
X121622400Y-123810300D01*
X128872400Y-124135300D02*
X128872400Y-123810300D01*
X128872400Y-116885300D02*
X128872400Y-117210300D01*
X121622400Y-116885300D02*
X121622400Y-117210300D01*
X121847400Y-124135300D02*
X121847400Y-125560300D01*
D12*
X107754500Y-114522200D02*
X107754500Y-115782200D01*
X107754500Y-121342200D02*
X107754500Y-120082200D01*
X111514500Y-114522200D02*
X107754500Y-114522200D01*
X113764500Y-121342200D02*
X107754500Y-121342200D01*
X126233600Y-128136900D02*
X126233600Y-132136900D01*
X126233600Y-132136900D02*
X132033600Y-132136900D01*
X143620800Y-97176900D02*
X143620800Y-91976900D01*
X138480800Y-97176900D02*
X143620800Y-97176900D01*
X135880800Y-91976900D02*
X143620800Y-91976900D01*
X138480800Y-97176900D02*
X138480800Y-94576900D01*
X138480800Y-94576900D02*
X135880800Y-94576900D01*
X135880800Y-94576900D02*
X135880800Y-91976900D01*
X137210800Y-97176900D02*
X135880800Y-97176900D01*
X135880800Y-97176900D02*
X135880800Y-95846900D01*
D11*
X123869742Y-130938566D02*
X123917361Y-130986185D01*
X123964980Y-131129042D01*
X123964980Y-131224280D01*
X123917361Y-131367138D01*
X123822123Y-131462376D01*
X123726885Y-131509995D01*
X123536409Y-131557614D01*
X123393552Y-131557614D01*
X123203076Y-131509995D01*
X123107838Y-131462376D01*
X123012600Y-131367138D01*
X122964980Y-131224280D01*
X122964980Y-131129042D01*
X123012600Y-130986185D01*
X123060219Y-130938566D01*
X123964980Y-129986185D02*
X123964980Y-130557614D01*
X123964980Y-130271900D02*
X122964980Y-130271900D01*
X123107838Y-130367138D01*
X123203076Y-130462376D01*
X123250695Y-130557614D01*
X133211273Y-127651782D02*
X133163654Y-127699401D01*
X133020797Y-127747020D01*
X132925559Y-127747020D01*
X132782701Y-127699401D01*
X132687463Y-127604163D01*
X132639844Y-127508925D01*
X132592225Y-127318449D01*
X132592225Y-127175592D01*
X132639844Y-126985116D01*
X132687463Y-126889878D01*
X132782701Y-126794640D01*
X132925559Y-126747020D01*
X133020797Y-126747020D01*
X133163654Y-126794640D01*
X133211273Y-126842259D01*
X133592225Y-126842259D02*
X133639844Y-126794640D01*
X133735082Y-126747020D01*
X133973178Y-126747020D01*
X134068416Y-126794640D01*
X134116035Y-126842259D01*
X134163654Y-126937497D01*
X134163654Y-127032735D01*
X134116035Y-127175592D01*
X133544606Y-127747020D01*
X134163654Y-127747020D01*
X122037813Y-127522242D02*
X121990194Y-127569861D01*
X121847337Y-127617480D01*
X121752099Y-127617480D01*
X121609241Y-127569861D01*
X121514003Y-127474623D01*
X121466384Y-127379385D01*
X121418765Y-127188909D01*
X121418765Y-127046052D01*
X121466384Y-126855576D01*
X121514003Y-126760338D01*
X121609241Y-126665100D01*
X121752099Y-126617480D01*
X121847337Y-126617480D01*
X121990194Y-126665100D01*
X122037813Y-126712719D01*
X122371146Y-126617480D02*
X122990194Y-126617480D01*
X122656860Y-126998433D01*
X122799718Y-126998433D01*
X122894956Y-127046052D01*
X122942575Y-127093671D01*
X122990194Y-127188909D01*
X122990194Y-127427004D01*
X122942575Y-127522242D01*
X122894956Y-127569861D01*
X122799718Y-127617480D01*
X122514003Y-127617480D01*
X122418765Y-127569861D01*
X122371146Y-127522242D01*
X132564142Y-104553046D02*
X132611761Y-104600665D01*
X132659380Y-104743522D01*
X132659380Y-104838760D01*
X132611761Y-104981618D01*
X132516523Y-105076856D01*
X132421285Y-105124475D01*
X132230809Y-105172094D01*
X132087952Y-105172094D01*
X131897476Y-105124475D01*
X131802238Y-105076856D01*
X131707000Y-104981618D01*
X131659380Y-104838760D01*
X131659380Y-104743522D01*
X131707000Y-104600665D01*
X131754619Y-104553046D01*
X131659380Y-103648284D02*
X131659380Y-104124475D01*
X132135571Y-104172094D01*
X132087952Y-104124475D01*
X132040333Y-104029237D01*
X132040333Y-103791141D01*
X132087952Y-103695903D01*
X132135571Y-103648284D01*
X132230809Y-103600665D01*
X132468904Y-103600665D01*
X132564142Y-103648284D01*
X132611761Y-103695903D01*
X132659380Y-103791141D01*
X132659380Y-104029237D01*
X132611761Y-104124475D01*
X132564142Y-104172094D01*
X106665733Y-125528342D02*
X106618114Y-125575961D01*
X106475257Y-125623580D01*
X106380019Y-125623580D01*
X106237161Y-125575961D01*
X106141923Y-125480723D01*
X106094304Y-125385485D01*
X106046685Y-125195009D01*
X106046685Y-125052152D01*
X106094304Y-124861676D01*
X106141923Y-124766438D01*
X106237161Y-124671200D01*
X106380019Y-124623580D01*
X106475257Y-124623580D01*
X106618114Y-124671200D01*
X106665733Y-124718819D01*
X106999066Y-124623580D02*
X107665733Y-124623580D01*
X107237161Y-125623580D01*
X133145233Y-116760262D02*
X133097614Y-116807881D01*
X132954757Y-116855500D01*
X132859519Y-116855500D01*
X132716661Y-116807881D01*
X132621423Y-116712643D01*
X132573804Y-116617405D01*
X132526185Y-116426929D01*
X132526185Y-116284072D01*
X132573804Y-116093596D01*
X132621423Y-115998358D01*
X132716661Y-115903120D01*
X132859519Y-115855500D01*
X132954757Y-115855500D01*
X133097614Y-115903120D01*
X133145233Y-115950739D01*
X133621423Y-116855500D02*
X133811900Y-116855500D01*
X133907138Y-116807881D01*
X133954757Y-116760262D01*
X134049995Y-116617405D01*
X134097614Y-116426929D01*
X134097614Y-116045977D01*
X134049995Y-115950739D01*
X134002376Y-115903120D01*
X133907138Y-115855500D01*
X133716661Y-115855500D01*
X133621423Y-115903120D01*
X133573804Y-115950739D01*
X133526185Y-116045977D01*
X133526185Y-116284072D01*
X133573804Y-116379310D01*
X133621423Y-116426929D01*
X133716661Y-116474548D01*
X133907138Y-116474548D01*
X134002376Y-116426929D01*
X134049995Y-116379310D01*
X134097614Y-116284072D01*
X117907844Y-105671880D02*
X117907844Y-104671880D01*
X118145940Y-104671880D01*
X118288797Y-104719500D01*
X118384035Y-104814738D01*
X118431654Y-104909976D01*
X118479273Y-105100452D01*
X118479273Y-105243309D01*
X118431654Y-105433785D01*
X118384035Y-105529023D01*
X118288797Y-105624261D01*
X118145940Y-105671880D01*
X117907844Y-105671880D01*
X119431654Y-105671880D02*
X118860225Y-105671880D01*
X119145940Y-105671880D02*
X119145940Y-104671880D01*
X119050701Y-104814738D01*
X118955463Y-104909976D01*
X118860225Y-104957595D01*
X115220524Y-105631240D02*
X115220524Y-104631240D01*
X115458620Y-104631240D01*
X115601477Y-104678860D01*
X115696715Y-104774098D01*
X115744334Y-104869336D01*
X115791953Y-105059812D01*
X115791953Y-105202669D01*
X115744334Y-105393145D01*
X115696715Y-105488383D01*
X115601477Y-105583621D01*
X115458620Y-105631240D01*
X115220524Y-105631240D01*
X116172905Y-104726479D02*
X116220524Y-104678860D01*
X116315762Y-104631240D01*
X116553858Y-104631240D01*
X116649096Y-104678860D01*
X116696715Y-104726479D01*
X116744334Y-104821717D01*
X116744334Y-104916955D01*
X116696715Y-105059812D01*
X116125286Y-105631240D01*
X116744334Y-105631240D01*
X112588300Y-128769335D02*
X111588300Y-128769335D01*
X111588300Y-128531240D01*
X111635920Y-128388382D01*
X111731158Y-128293144D01*
X111826396Y-128245525D01*
X112016872Y-128197906D01*
X112159729Y-128197906D01*
X112350205Y-128245525D01*
X112445443Y-128293144D01*
X112540681Y-128388382D01*
X112588300Y-128531240D01*
X112588300Y-128769335D01*
X111588300Y-127864573D02*
X111588300Y-127245525D01*
X111969253Y-127578859D01*
X111969253Y-127436001D01*
X112016872Y-127340763D01*
X112064491Y-127293144D01*
X112159729Y-127245525D01*
X112397824Y-127245525D01*
X112493062Y-127293144D01*
X112540681Y-127340763D01*
X112588300Y-127436001D01*
X112588300Y-127721716D01*
X112540681Y-127816954D01*
X112493062Y-127864573D01*
X112545120Y-124591035D02*
X111545120Y-124591035D01*
X111545120Y-124352940D01*
X111592740Y-124210082D01*
X111687978Y-124114844D01*
X111783216Y-124067225D01*
X111973692Y-124019606D01*
X112116549Y-124019606D01*
X112307025Y-124067225D01*
X112402263Y-124114844D01*
X112497501Y-124210082D01*
X112545120Y-124352940D01*
X112545120Y-124591035D01*
X111878454Y-123162463D02*
X112545120Y-123162463D01*
X111497501Y-123400559D02*
X112211787Y-123638654D01*
X112211787Y-123019606D01*
X101558766Y-131678371D02*
X101225433Y-131678371D01*
X101225433Y-132202180D02*
X101225433Y-131202180D01*
X101701623Y-131202180D01*
X102606385Y-132202180D02*
X102034957Y-132202180D01*
X102320671Y-132202180D02*
X102320671Y-131202180D01*
X102225433Y-131345038D01*
X102130195Y-131440276D01*
X102034957Y-131487895D01*
X121398706Y-110879640D02*
X121398706Y-111593926D01*
X121351087Y-111736783D01*
X121255849Y-111832021D01*
X121112992Y-111879640D01*
X121017754Y-111879640D01*
X122303468Y-111212974D02*
X122303468Y-111879640D01*
X122065373Y-110832021D02*
X121827278Y-111546307D01*
X122446325Y-111546307D01*
X120431820Y-114121226D02*
X119955630Y-114454560D01*
X120431820Y-114692655D02*
X119431820Y-114692655D01*
X119431820Y-114311702D01*
X119479440Y-114216464D01*
X119527059Y-114168845D01*
X119622297Y-114121226D01*
X119765154Y-114121226D01*
X119860392Y-114168845D01*
X119908011Y-114216464D01*
X119955630Y-114311702D01*
X119955630Y-114692655D01*
X120431820Y-113168845D02*
X120431820Y-113740274D01*
X120431820Y-113454560D02*
X119431820Y-113454560D01*
X119574678Y-113549798D01*
X119669916Y-113645036D01*
X119717535Y-113740274D01*
X118951000Y-114128846D02*
X118474810Y-114462180D01*
X118951000Y-114700275D02*
X117951000Y-114700275D01*
X117951000Y-114319322D01*
X117998620Y-114224084D01*
X118046239Y-114176465D01*
X118141477Y-114128846D01*
X118284334Y-114128846D01*
X118379572Y-114176465D01*
X118427191Y-114224084D01*
X118474810Y-114319322D01*
X118474810Y-114700275D01*
X118046239Y-113747894D02*
X117998620Y-113700275D01*
X117951000Y-113605037D01*
X117951000Y-113366941D01*
X117998620Y-113271703D01*
X118046239Y-113224084D01*
X118141477Y-113176465D01*
X118236715Y-113176465D01*
X118379572Y-113224084D01*
X118951000Y-113795513D01*
X118951000Y-113176465D01*
X116700560Y-114118686D02*
X116224370Y-114452020D01*
X116700560Y-114690115D02*
X115700560Y-114690115D01*
X115700560Y-114309162D01*
X115748180Y-114213924D01*
X115795799Y-114166305D01*
X115891037Y-114118686D01*
X116033894Y-114118686D01*
X116129132Y-114166305D01*
X116176751Y-114213924D01*
X116224370Y-114309162D01*
X116224370Y-114690115D01*
X115700560Y-113785353D02*
X115700560Y-113166305D01*
X116081513Y-113499639D01*
X116081513Y-113356781D01*
X116129132Y-113261543D01*
X116176751Y-113213924D01*
X116271989Y-113166305D01*
X116510084Y-113166305D01*
X116605322Y-113213924D01*
X116652941Y-113261543D01*
X116700560Y-113356781D01*
X116700560Y-113642496D01*
X116652941Y-113737734D01*
X116605322Y-113785353D01*
X115163860Y-114121226D02*
X114687670Y-114454560D01*
X115163860Y-114692655D02*
X114163860Y-114692655D01*
X114163860Y-114311702D01*
X114211480Y-114216464D01*
X114259099Y-114168845D01*
X114354337Y-114121226D01*
X114497194Y-114121226D01*
X114592432Y-114168845D01*
X114640051Y-114216464D01*
X114687670Y-114311702D01*
X114687670Y-114692655D01*
X114497194Y-113264083D02*
X115163860Y-113264083D01*
X114116241Y-113502179D02*
X114830527Y-113740274D01*
X114830527Y-113121226D01*
X117505740Y-122363526D02*
X117029550Y-122696860D01*
X117505740Y-122934955D02*
X116505740Y-122934955D01*
X116505740Y-122554002D01*
X116553360Y-122458764D01*
X116600979Y-122411145D01*
X116696217Y-122363526D01*
X116839074Y-122363526D01*
X116934312Y-122411145D01*
X116981931Y-122458764D01*
X117029550Y-122554002D01*
X117029550Y-122934955D01*
X116505740Y-121458764D02*
X116505740Y-121934955D01*
X116981931Y-121982574D01*
X116934312Y-121934955D01*
X116886693Y-121839717D01*
X116886693Y-121601621D01*
X116934312Y-121506383D01*
X116981931Y-121458764D01*
X117077169Y-121411145D01*
X117315264Y-121411145D01*
X117410502Y-121458764D01*
X117458121Y-121506383D01*
X117505740Y-121601621D01*
X117505740Y-121839717D01*
X117458121Y-121934955D01*
X117410502Y-121982574D01*
X119235480Y-130428026D02*
X118759290Y-130761360D01*
X119235480Y-130999455D02*
X118235480Y-130999455D01*
X118235480Y-130618502D01*
X118283100Y-130523264D01*
X118330719Y-130475645D01*
X118425957Y-130428026D01*
X118568814Y-130428026D01*
X118664052Y-130475645D01*
X118711671Y-130523264D01*
X118759290Y-130618502D01*
X118759290Y-130999455D01*
X118235480Y-129570883D02*
X118235480Y-129761360D01*
X118283100Y-129856598D01*
X118330719Y-129904217D01*
X118473576Y-129999455D01*
X118664052Y-130047074D01*
X119045004Y-130047074D01*
X119140242Y-129999455D01*
X119187861Y-129951836D01*
X119235480Y-129856598D01*
X119235480Y-129666121D01*
X119187861Y-129570883D01*
X119140242Y-129523264D01*
X119045004Y-129475645D01*
X118806909Y-129475645D01*
X118711671Y-129523264D01*
X118664052Y-129570883D01*
X118616433Y-129666121D01*
X118616433Y-129856598D01*
X118664052Y-129951836D01*
X118711671Y-129999455D01*
X118806909Y-130047074D01*
X132964180Y-109036146D02*
X132487990Y-109369480D01*
X132964180Y-109607575D02*
X131964180Y-109607575D01*
X131964180Y-109226622D01*
X132011800Y-109131384D01*
X132059419Y-109083765D01*
X132154657Y-109036146D01*
X132297514Y-109036146D01*
X132392752Y-109083765D01*
X132440371Y-109131384D01*
X132487990Y-109226622D01*
X132487990Y-109607575D01*
X131964180Y-108702813D02*
X131964180Y-108036146D01*
X132964180Y-108464718D01*
X116731753Y-119471720D02*
X116398420Y-118995530D01*
X116160324Y-119471720D02*
X116160324Y-118471720D01*
X116541277Y-118471720D01*
X116636515Y-118519340D01*
X116684134Y-118566959D01*
X116731753Y-118662197D01*
X116731753Y-118805054D01*
X116684134Y-118900292D01*
X116636515Y-118947911D01*
X116541277Y-118995530D01*
X116160324Y-118995530D01*
X117303181Y-118900292D02*
X117207943Y-118852673D01*
X117160324Y-118805054D01*
X117112705Y-118709816D01*
X117112705Y-118662197D01*
X117160324Y-118566959D01*
X117207943Y-118519340D01*
X117303181Y-118471720D01*
X117493658Y-118471720D01*
X117588896Y-118519340D01*
X117636515Y-118566959D01*
X117684134Y-118662197D01*
X117684134Y-118709816D01*
X117636515Y-118805054D01*
X117588896Y-118852673D01*
X117493658Y-118900292D01*
X117303181Y-118900292D01*
X117207943Y-118947911D01*
X117160324Y-118995530D01*
X117112705Y-119090768D01*
X117112705Y-119281244D01*
X117160324Y-119376482D01*
X117207943Y-119424101D01*
X117303181Y-119471720D01*
X117493658Y-119471720D01*
X117588896Y-119424101D01*
X117636515Y-119376482D01*
X117684134Y-119281244D01*
X117684134Y-119090768D01*
X117636515Y-118995530D01*
X117588896Y-118947911D01*
X117493658Y-118900292D01*
X117663220Y-130428026D02*
X117187030Y-130761360D01*
X117663220Y-130999455D02*
X116663220Y-130999455D01*
X116663220Y-130618502D01*
X116710840Y-130523264D01*
X116758459Y-130475645D01*
X116853697Y-130428026D01*
X116996554Y-130428026D01*
X117091792Y-130475645D01*
X117139411Y-130523264D01*
X117187030Y-130618502D01*
X117187030Y-130999455D01*
X117663220Y-129951836D02*
X117663220Y-129761360D01*
X117615601Y-129666121D01*
X117567982Y-129618502D01*
X117425125Y-129523264D01*
X117234649Y-129475645D01*
X116853697Y-129475645D01*
X116758459Y-129523264D01*
X116710840Y-129570883D01*
X116663220Y-129666121D01*
X116663220Y-129856598D01*
X116710840Y-129951836D01*
X116758459Y-129999455D01*
X116853697Y-130047074D01*
X117091792Y-130047074D01*
X117187030Y-129999455D01*
X117234649Y-129951836D01*
X117282268Y-129856598D01*
X117282268Y-129666121D01*
X117234649Y-129570883D01*
X117187030Y-129523264D01*
X117091792Y-129475645D01*
X113669842Y-130594380D02*
X113336509Y-130118190D01*
X113098414Y-130594380D02*
X113098414Y-129594380D01*
X113479366Y-129594380D01*
X113574604Y-129642000D01*
X113622223Y-129689619D01*
X113669842Y-129784857D01*
X113669842Y-129927714D01*
X113622223Y-130022952D01*
X113574604Y-130070571D01*
X113479366Y-130118190D01*
X113098414Y-130118190D01*
X114622223Y-130594380D02*
X114050795Y-130594380D01*
X114336509Y-130594380D02*
X114336509Y-129594380D01*
X114241271Y-129737238D01*
X114146033Y-129832476D01*
X114050795Y-129880095D01*
X115241271Y-129594380D02*
X115336509Y-129594380D01*
X115431747Y-129642000D01*
X115479366Y-129689619D01*
X115526985Y-129784857D01*
X115574604Y-129975333D01*
X115574604Y-130213428D01*
X115526985Y-130403904D01*
X115479366Y-130499142D01*
X115431747Y-130546761D01*
X115336509Y-130594380D01*
X115241271Y-130594380D01*
X115146033Y-130546761D01*
X115098414Y-130499142D01*
X115050795Y-130403904D01*
X115003176Y-130213428D01*
X115003176Y-129975333D01*
X115050795Y-129784857D01*
X115098414Y-129689619D01*
X115146033Y-129642000D01*
X115241271Y-129594380D01*
X132702560Y-114102117D02*
X132226370Y-114435450D01*
X132702560Y-114673545D02*
X131702560Y-114673545D01*
X131702560Y-114292593D01*
X131750180Y-114197355D01*
X131797799Y-114149736D01*
X131893037Y-114102117D01*
X132035894Y-114102117D01*
X132131132Y-114149736D01*
X132178751Y-114197355D01*
X132226370Y-114292593D01*
X132226370Y-114673545D01*
X132702560Y-113149736D02*
X132702560Y-113721164D01*
X132702560Y-113435450D02*
X131702560Y-113435450D01*
X131845418Y-113530688D01*
X131940656Y-113625926D01*
X131988275Y-113721164D01*
X132702560Y-112197355D02*
X132702560Y-112768783D01*
X132702560Y-112483069D02*
X131702560Y-112483069D01*
X131845418Y-112578307D01*
X131940656Y-112673545D01*
X131988275Y-112768783D01*
X120129395Y-115654840D02*
X120129395Y-116464364D01*
X120177014Y-116559602D01*
X120224633Y-116607221D01*
X120319871Y-116654840D01*
X120510347Y-116654840D01*
X120605585Y-116607221D01*
X120653204Y-116559602D01*
X120700823Y-116464364D01*
X120700823Y-115654840D01*
X121700823Y-116654840D02*
X121129395Y-116654840D01*
X121415109Y-116654840D02*
X121415109Y-115654840D01*
X121319871Y-115797698D01*
X121224633Y-115892936D01*
X121129395Y-115940555D01*
X128657409Y-127313090D02*
X128657409Y-127789280D01*
X128324076Y-126789280D02*
X128657409Y-127313090D01*
X128990742Y-126789280D01*
X129847885Y-127789280D02*
X129276457Y-127789280D01*
X129562171Y-127789280D02*
X129562171Y-126789280D01*
X129466933Y-126932138D01*
X129371695Y-127027376D01*
X129276457Y-127074995D01*
X134333180Y-94910233D02*
X135047466Y-94910233D01*
X135190323Y-94957852D01*
X135285561Y-95053090D01*
X135333180Y-95195947D01*
X135333180Y-95291185D01*
X134333180Y-94005471D02*
X134333180Y-94195947D01*
X134380800Y-94291185D01*
X134428419Y-94338804D01*
X134571276Y-94434042D01*
X134761752Y-94481661D01*
X135142704Y-94481661D01*
X135237942Y-94434042D01*
X135285561Y-94386423D01*
X135333180Y-94291185D01*
X135333180Y-94100709D01*
X135285561Y-94005471D01*
X135237942Y-93957852D01*
X135142704Y-93910233D01*
X134904609Y-93910233D01*
X134809371Y-93957852D01*
X134761752Y-94005471D01*
X134714133Y-94100709D01*
X134714133Y-94291185D01*
X134761752Y-94386423D01*
X134809371Y-94434042D01*
X134904609Y-94481661D01*
M02*
