M48
;DRILL file {KiCad (5.0.0-3-g5ebb6b6)} date Friday, February 08, 2019 at 12:04:36 PM
;FORMAT={-:-/ absolute / inch / decimal}
FMAT,2
INCH,TZ
T1C0.0138
T2C0.0157
T3C0.0177
T4C0.0354
T5C0.0394
T6C0.0433
T7C0.0787
%
G90
G05
M72
T1
X5.6685Y-3.8955
X5.6695Y-3.8045
X5.766Y-3.931
X5.807Y-3.926
X5.843Y-3.7775
X5.869Y-3.958
X5.8695Y-3.8965
X5.87Y-3.8015
X5.8805Y-3.768
X6.0755Y-3.834
X6.076Y-3.8005
X6.0765Y-3.7665
X6.248Y-3.512
X6.2795Y-3.5115
T2
X5.4525Y-3.7225
T3
X4.774Y-4.156
X4.7955Y-3.863
X4.838Y-3.9235
X4.888Y-3.5165
X4.913Y-3.446
X4.9155Y-4.251
X5.086Y-3.6495
X5.148Y-3.848
X5.1765Y-3.74
X5.252Y-3.8975
X5.252Y-3.999
X5.2565Y-3.798
X5.352Y-3.6175
X5.391Y-3.461
X5.452Y-3.8576
X5.495Y-3.65
X5.5395Y-3.705
X5.541Y-3.6085
X5.6025Y-4.015
X5.617Y-3.681
X5.806Y-4.1635
X5.9405Y-3.4615
X6.0025Y-3.4065
X6.053Y-3.561
X6.0855Y-4.099
X6.1065Y-4.005
X6.1075Y-3.9155
X6.3285Y-3.5105
X6.5385Y-3.619
X6.5445Y-4.136
X6.545Y-4.099
X6.5455Y-4.062
X6.5815Y-4.136
X6.582Y-4.062
X6.582Y-4.1
X6.5991Y-3.5591
X6.618Y-4.062
X6.618Y-4.0995
X6.618Y-4.1355
T5
X5.5992Y-4.2618
X5.6992Y-4.2618
X5.7992Y-4.2618
X5.8992Y-4.2618
X5.9992Y-4.2618
X6.0992Y-4.2618
X6.1992Y-4.2618
X6.2992Y-4.2618
T6
X6.7304Y-3.7579
X6.7304Y-3.939
T7
X4.7244Y-3.435
X6.6142Y-4.2618
X4.7244Y-4.2618
X6.6142Y-3.435
T4
X6.6989Y-3.624G85X6.7619Y-3.624
G05
X6.6989Y-4.0728G85X6.7619Y-4.0728
G05
T0
M30
