G04 #@! TF.GenerationSoftware,KiCad,Pcbnew,(5.0.0-3-g5ebb6b6)*
G04 #@! TF.CreationDate,2019-02-08T12:04:07-05:00*
G04 #@! TF.ProjectId,ROCKETasp,524F434B45546173702E6B696361645F,2.0*
G04 #@! TF.SameCoordinates,Original*
G04 #@! TF.FileFunction,Legend,Top*
G04 #@! TF.FilePolarity,Positive*
%FSLAX46Y46*%
G04 Gerber Fmt 4.6, Leading zero omitted, Abs format (unit mm)*
G04 Created by KiCad (PCBNEW (5.0.0-3-g5ebb6b6)) date Friday, February 08, 2019 at 12:04:07 PM*
%MOMM*%
%LPD*%
G01*
G04 APERTURE LIST*
%ADD10C,0.200000*%
%ADD11C,0.300000*%
%ADD12C,0.150000*%
%ADD13C,0.120000*%
G04 APERTURE END LIST*
D10*
X159021180Y-106712076D02*
X159021180Y-105462076D01*
X159318800Y-105462076D01*
X159497371Y-105521600D01*
X159616419Y-105640647D01*
X159675942Y-105759695D01*
X159735466Y-105997790D01*
X159735466Y-106176361D01*
X159675942Y-106414457D01*
X159616419Y-106533504D01*
X159497371Y-106652552D01*
X159318800Y-106712076D01*
X159021180Y-106712076D01*
X160806895Y-105462076D02*
X160568800Y-105462076D01*
X160449752Y-105521600D01*
X160390228Y-105581123D01*
X160271180Y-105759695D01*
X160211657Y-105997790D01*
X160211657Y-106473980D01*
X160271180Y-106593028D01*
X160330704Y-106652552D01*
X160449752Y-106712076D01*
X160687847Y-106712076D01*
X160806895Y-106652552D01*
X160866419Y-106593028D01*
X160925942Y-106473980D01*
X160925942Y-106176361D01*
X160866419Y-106057314D01*
X160806895Y-105997790D01*
X160687847Y-105938266D01*
X160449752Y-105938266D01*
X160330704Y-105997790D01*
X160271180Y-106057314D01*
X160211657Y-106176361D01*
X156531980Y-106712076D02*
X156531980Y-105462076D01*
X156829600Y-105462076D01*
X157008171Y-105521600D01*
X157127219Y-105640647D01*
X157186742Y-105759695D01*
X157246266Y-105997790D01*
X157246266Y-106176361D01*
X157186742Y-106414457D01*
X157127219Y-106533504D01*
X157008171Y-106652552D01*
X156829600Y-106712076D01*
X156531980Y-106712076D01*
X158377219Y-105462076D02*
X157781980Y-105462076D01*
X157722457Y-106057314D01*
X157781980Y-105997790D01*
X157901028Y-105938266D01*
X158198647Y-105938266D01*
X158317695Y-105997790D01*
X158377219Y-106057314D01*
X158436742Y-106176361D01*
X158436742Y-106473980D01*
X158377219Y-106593028D01*
X158317695Y-106652552D01*
X158198647Y-106712076D01*
X157901028Y-106712076D01*
X157781980Y-106652552D01*
X157722457Y-106593028D01*
X154076904Y-106057314D02*
X154493571Y-106057314D01*
X154672142Y-106712076D02*
X154076904Y-106712076D01*
X154076904Y-105462076D01*
X154672142Y-105462076D01*
X155862619Y-106712076D02*
X155148333Y-106712076D01*
X155505476Y-106712076D02*
X155505476Y-105462076D01*
X155386428Y-105640647D01*
X155267380Y-105759695D01*
X155148333Y-105819219D01*
X151448004Y-106057314D02*
X151864671Y-106057314D01*
X152043242Y-106712076D02*
X151448004Y-106712076D01*
X151448004Y-105462076D01*
X152043242Y-105462076D01*
X152817052Y-105462076D02*
X152936100Y-105462076D01*
X153055147Y-105521600D01*
X153114671Y-105581123D01*
X153174195Y-105700171D01*
X153233719Y-105938266D01*
X153233719Y-106235885D01*
X153174195Y-106473980D01*
X153114671Y-106593028D01*
X153055147Y-106652552D01*
X152936100Y-106712076D01*
X152817052Y-106712076D01*
X152698004Y-106652552D01*
X152638480Y-106593028D01*
X152578957Y-106473980D01*
X152519433Y-106235885D01*
X152519433Y-105938266D01*
X152578957Y-105700171D01*
X152638480Y-105581123D01*
X152698004Y-105521600D01*
X152817052Y-105462076D01*
X148861180Y-106737476D02*
X148861180Y-105487476D01*
X149158800Y-105487476D01*
X149337371Y-105547000D01*
X149456419Y-105666047D01*
X149515942Y-105785095D01*
X149575466Y-106023190D01*
X149575466Y-106201761D01*
X149515942Y-106439857D01*
X149456419Y-106558904D01*
X149337371Y-106677952D01*
X149158800Y-106737476D01*
X148861180Y-106737476D01*
X149992133Y-105487476D02*
X150765942Y-105487476D01*
X150349276Y-105963666D01*
X150527847Y-105963666D01*
X150646895Y-106023190D01*
X150706419Y-106082714D01*
X150765942Y-106201761D01*
X150765942Y-106499380D01*
X150706419Y-106618428D01*
X150646895Y-106677952D01*
X150527847Y-106737476D01*
X150170704Y-106737476D01*
X150051657Y-106677952D01*
X149992133Y-106618428D01*
X147048166Y-106605728D02*
X146988642Y-106665252D01*
X146810071Y-106724776D01*
X146691023Y-106724776D01*
X146512452Y-106665252D01*
X146393404Y-106546204D01*
X146333880Y-106427157D01*
X146274357Y-106189061D01*
X146274357Y-106010490D01*
X146333880Y-105772395D01*
X146393404Y-105653347D01*
X146512452Y-105534300D01*
X146691023Y-105474776D01*
X146810071Y-105474776D01*
X146988642Y-105534300D01*
X147048166Y-105593823D01*
X148238642Y-106724776D02*
X147524357Y-106724776D01*
X147881500Y-106724776D02*
X147881500Y-105474776D01*
X147762452Y-105653347D01*
X147643404Y-105772395D01*
X147524357Y-105831919D01*
X143866104Y-106070014D02*
X144282771Y-106070014D01*
X144461342Y-106724776D02*
X143866104Y-106724776D01*
X143866104Y-105474776D01*
X144461342Y-105474776D01*
X144878009Y-105474776D02*
X145651819Y-105474776D01*
X145235152Y-105950966D01*
X145413723Y-105950966D01*
X145532771Y-106010490D01*
X145592295Y-106070014D01*
X145651819Y-106189061D01*
X145651819Y-106486680D01*
X145592295Y-106605728D01*
X145532771Y-106665252D01*
X145413723Y-106724776D01*
X145056580Y-106724776D01*
X144937533Y-106665252D01*
X144878009Y-106605728D01*
X141389604Y-106082714D02*
X141806271Y-106082714D01*
X141984842Y-106737476D02*
X141389604Y-106737476D01*
X141389604Y-105487476D01*
X141984842Y-105487476D01*
X142461033Y-105606523D02*
X142520557Y-105547000D01*
X142639604Y-105487476D01*
X142937223Y-105487476D01*
X143056271Y-105547000D01*
X143115795Y-105606523D01*
X143175319Y-105725571D01*
X143175319Y-105844619D01*
X143115795Y-106023190D01*
X142401509Y-106737476D01*
X143175319Y-106737476D01*
X137145104Y-108267114D02*
X137561771Y-108267114D01*
X137740342Y-108921876D02*
X137145104Y-108921876D01*
X137145104Y-107671876D01*
X137740342Y-107671876D01*
X138157009Y-107671876D02*
X138990342Y-108921876D01*
X138990342Y-107671876D02*
X138157009Y-108921876D01*
X139466533Y-108921876D02*
X139466533Y-107671876D01*
X139942723Y-107671876D01*
X140061771Y-107731400D01*
X140121295Y-107790923D01*
X140180819Y-107909971D01*
X140180819Y-108088542D01*
X140121295Y-108207590D01*
X140061771Y-108267114D01*
X139942723Y-108326638D01*
X139466533Y-108326638D01*
X127407290Y-90095076D02*
X127645385Y-90095076D01*
X127764433Y-90154600D01*
X127883480Y-90273647D01*
X127943004Y-90511742D01*
X127943004Y-90928409D01*
X127883480Y-91166504D01*
X127764433Y-91285552D01*
X127645385Y-91345076D01*
X127407290Y-91345076D01*
X127288242Y-91285552D01*
X127169195Y-91166504D01*
X127109671Y-90928409D01*
X127109671Y-90511742D01*
X127169195Y-90273647D01*
X127288242Y-90154600D01*
X127407290Y-90095076D01*
X128478719Y-91345076D02*
X128478719Y-90095076D01*
X129193004Y-91345076D01*
X129193004Y-90095076D01*
X121752319Y-102140076D02*
X121752319Y-100890076D01*
X122049938Y-100890076D01*
X122228509Y-100949600D01*
X122347557Y-101068647D01*
X122407080Y-101187695D01*
X122466604Y-101425790D01*
X122466604Y-101604361D01*
X122407080Y-101842457D01*
X122347557Y-101961504D01*
X122228509Y-102080552D01*
X122049938Y-102140076D01*
X121752319Y-102140076D01*
X123418985Y-101485314D02*
X123597557Y-101544838D01*
X123657080Y-101604361D01*
X123716604Y-101723409D01*
X123716604Y-101901980D01*
X123657080Y-102021028D01*
X123597557Y-102080552D01*
X123478509Y-102140076D01*
X123002319Y-102140076D01*
X123002319Y-100890076D01*
X123418985Y-100890076D01*
X123538033Y-100949600D01*
X123597557Y-101009123D01*
X123657080Y-101128171D01*
X123657080Y-101247219D01*
X123597557Y-101366266D01*
X123538033Y-101425790D01*
X123418985Y-101485314D01*
X123002319Y-101485314D01*
X124907080Y-100949600D02*
X124788033Y-100890076D01*
X124609461Y-100890076D01*
X124430890Y-100949600D01*
X124311842Y-101068647D01*
X124252319Y-101187695D01*
X124192795Y-101425790D01*
X124192795Y-101604361D01*
X124252319Y-101842457D01*
X124311842Y-101961504D01*
X124430890Y-102080552D01*
X124609461Y-102140076D01*
X124728509Y-102140076D01*
X124907080Y-102080552D01*
X124966604Y-102021028D01*
X124966604Y-101604361D01*
X124728509Y-101604361D01*
X121837242Y-98375476D02*
X122253909Y-99625476D01*
X122670576Y-98375476D01*
X122908671Y-98375476D02*
X123622957Y-98375476D01*
X123265814Y-99625476D02*
X123265814Y-98375476D01*
X124694385Y-98435000D02*
X124575338Y-98375476D01*
X124396766Y-98375476D01*
X124218195Y-98435000D01*
X124099147Y-98554047D01*
X124039623Y-98673095D01*
X123980100Y-98911190D01*
X123980100Y-99089761D01*
X124039623Y-99327857D01*
X124099147Y-99446904D01*
X124218195Y-99565952D01*
X124396766Y-99625476D01*
X124515814Y-99625476D01*
X124694385Y-99565952D01*
X124753909Y-99506428D01*
X124753909Y-99089761D01*
X124515814Y-99089761D01*
X121828519Y-97064052D02*
X122007090Y-97123576D01*
X122304709Y-97123576D01*
X122423757Y-97064052D01*
X122483280Y-97004528D01*
X122542804Y-96885480D01*
X122542804Y-96766433D01*
X122483280Y-96647385D01*
X122423757Y-96587861D01*
X122304709Y-96528338D01*
X122066614Y-96468814D01*
X121947566Y-96409290D01*
X121888042Y-96349766D01*
X121828519Y-96230719D01*
X121828519Y-96111671D01*
X121888042Y-95992623D01*
X121947566Y-95933100D01*
X122066614Y-95873576D01*
X122364233Y-95873576D01*
X122542804Y-95933100D01*
X123673757Y-97123576D02*
X123078519Y-97123576D01*
X123078519Y-95873576D01*
X123971376Y-95873576D02*
X124268995Y-97123576D01*
X124507090Y-96230719D01*
X124745185Y-97123576D01*
X125042804Y-95873576D01*
X122997185Y-93941514D02*
X122580519Y-93941514D01*
X122580519Y-94596276D02*
X122580519Y-93346276D01*
X123175757Y-93346276D01*
X123532900Y-93346276D02*
X123830519Y-94596276D01*
X124068614Y-93703419D01*
X124306709Y-94596276D01*
X124604328Y-93346276D01*
D11*
X107468371Y-91552478D02*
X107539800Y-91623906D01*
X107611228Y-91766764D01*
X107611228Y-92123906D01*
X107539800Y-92266764D01*
X107468371Y-92338192D01*
X107325514Y-92409621D01*
X107182657Y-92409621D01*
X106968371Y-92338192D01*
X106111228Y-91481049D01*
X106111228Y-92409621D01*
X107611228Y-93766764D02*
X107611228Y-93052478D01*
X106896942Y-92981049D01*
X106968371Y-93052478D01*
X107039800Y-93195335D01*
X107039800Y-93552478D01*
X106968371Y-93695335D01*
X106896942Y-93766764D01*
X106754085Y-93838192D01*
X106396942Y-93838192D01*
X106254085Y-93766764D01*
X106182657Y-93695335D01*
X106111228Y-93552478D01*
X106111228Y-93195335D01*
X106182657Y-93052478D01*
X106254085Y-92981049D01*
X106254085Y-94481049D02*
X106182657Y-94552478D01*
X106111228Y-94481049D01*
X106182657Y-94409621D01*
X106254085Y-94481049D01*
X106111228Y-94481049D01*
X107611228Y-95909621D02*
X107611228Y-95195335D01*
X106896942Y-95123906D01*
X106968371Y-95195335D01*
X107039800Y-95338192D01*
X107039800Y-95695335D01*
X106968371Y-95838192D01*
X106896942Y-95909621D01*
X106754085Y-95981049D01*
X106396942Y-95981049D01*
X106254085Y-95909621D01*
X106182657Y-95838192D01*
X106111228Y-95695335D01*
X106111228Y-95338192D01*
X106182657Y-95195335D01*
X106254085Y-95123906D01*
X107611228Y-96909621D02*
X107611228Y-97052478D01*
X107539800Y-97195335D01*
X107468371Y-97266764D01*
X107325514Y-97338192D01*
X107039800Y-97409621D01*
X106682657Y-97409621D01*
X106396942Y-97338192D01*
X106254085Y-97266764D01*
X106182657Y-97195335D01*
X106111228Y-97052478D01*
X106111228Y-96909621D01*
X106182657Y-96766764D01*
X106254085Y-96695335D01*
X106396942Y-96623906D01*
X106682657Y-96552478D01*
X107039800Y-96552478D01*
X107325514Y-96623906D01*
X107468371Y-96695335D01*
X107539800Y-96766764D01*
X107611228Y-96909621D01*
X107611228Y-98338192D02*
X107611228Y-98481049D01*
X107539800Y-98623906D01*
X107468371Y-98695335D01*
X107325514Y-98766764D01*
X107039800Y-98838192D01*
X106682657Y-98838192D01*
X106396942Y-98766764D01*
X106254085Y-98695335D01*
X106182657Y-98623906D01*
X106111228Y-98481049D01*
X106111228Y-98338192D01*
X106182657Y-98195335D01*
X106254085Y-98123906D01*
X106396942Y-98052478D01*
X106682657Y-97981049D01*
X107039800Y-97981049D01*
X107325514Y-98052478D01*
X107468371Y-98123906D01*
X107539800Y-98195335D01*
X107611228Y-98338192D01*
X106111228Y-100623906D02*
X107111228Y-100623906D01*
X106968371Y-100623906D02*
X107039800Y-100695335D01*
X107111228Y-100838192D01*
X107111228Y-101052478D01*
X107039800Y-101195335D01*
X106896942Y-101266764D01*
X106111228Y-101266764D01*
X106896942Y-101266764D02*
X107039800Y-101338192D01*
X107111228Y-101481049D01*
X107111228Y-101695335D01*
X107039800Y-101838192D01*
X106896942Y-101909621D01*
X106111228Y-101909621D01*
X106111228Y-102623906D02*
X107111228Y-102623906D01*
X106968371Y-102623906D02*
X107039800Y-102695335D01*
X107111228Y-102838192D01*
X107111228Y-103052478D01*
X107039800Y-103195335D01*
X106896942Y-103266764D01*
X106111228Y-103266764D01*
X106896942Y-103266764D02*
X107039800Y-103338192D01*
X107111228Y-103481049D01*
X107111228Y-103695335D01*
X107039800Y-103838192D01*
X106896942Y-103909621D01*
X106111228Y-103909621D01*
X108889800Y-85013800D02*
X108889800Y-110519728D01*
X112585500Y-85013800D02*
X108303379Y-85013800D01*
X112585500Y-110519728D02*
X108303379Y-110519728D01*
X108889800Y-110519728D02*
X108303379Y-109393224D01*
X108889800Y-110519728D02*
X109476221Y-109393224D01*
X108889800Y-85013800D02*
X108303379Y-86140304D01*
X108889800Y-85013800D02*
X109476221Y-86140304D01*
X139072052Y-76656771D02*
X138357766Y-76656771D01*
X138286338Y-77371057D01*
X138357766Y-77299628D01*
X138500624Y-77228200D01*
X138857766Y-77228200D01*
X139000624Y-77299628D01*
X139072052Y-77371057D01*
X139143481Y-77513914D01*
X139143481Y-77871057D01*
X139072052Y-78013914D01*
X139000624Y-78085342D01*
X138857766Y-78156771D01*
X138500624Y-78156771D01*
X138357766Y-78085342D01*
X138286338Y-78013914D01*
X139857766Y-78156771D02*
X140143481Y-78156771D01*
X140286338Y-78085342D01*
X140357766Y-78013914D01*
X140500624Y-77799628D01*
X140572052Y-77513914D01*
X140572052Y-76942485D01*
X140500624Y-76799628D01*
X140429195Y-76728200D01*
X140286338Y-76656771D01*
X140000624Y-76656771D01*
X139857766Y-76728200D01*
X139786338Y-76799628D01*
X139714909Y-76942485D01*
X139714909Y-77299628D01*
X139786338Y-77442485D01*
X139857766Y-77513914D01*
X140000624Y-77585342D01*
X140286338Y-77585342D01*
X140429195Y-77513914D01*
X140500624Y-77442485D01*
X140572052Y-77299628D01*
X141214909Y-78013914D02*
X141286338Y-78085342D01*
X141214909Y-78156771D01*
X141143481Y-78085342D01*
X141214909Y-78013914D01*
X141214909Y-78156771D01*
X142214909Y-76656771D02*
X142357766Y-76656771D01*
X142500624Y-76728200D01*
X142572052Y-76799628D01*
X142643481Y-76942485D01*
X142714909Y-77228200D01*
X142714909Y-77585342D01*
X142643481Y-77871057D01*
X142572052Y-78013914D01*
X142500624Y-78085342D01*
X142357766Y-78156771D01*
X142214909Y-78156771D01*
X142072052Y-78085342D01*
X142000624Y-78013914D01*
X141929195Y-77871057D01*
X141857766Y-77585342D01*
X141857766Y-77228200D01*
X141929195Y-76942485D01*
X142000624Y-76799628D01*
X142072052Y-76728200D01*
X142214909Y-76656771D01*
X143643481Y-76656771D02*
X143786338Y-76656771D01*
X143929195Y-76728200D01*
X144000624Y-76799628D01*
X144072052Y-76942485D01*
X144143481Y-77228200D01*
X144143481Y-77585342D01*
X144072052Y-77871057D01*
X144000624Y-78013914D01*
X143929195Y-78085342D01*
X143786338Y-78156771D01*
X143643481Y-78156771D01*
X143500624Y-78085342D01*
X143429195Y-78013914D01*
X143357766Y-77871057D01*
X143286338Y-77585342D01*
X143286338Y-77228200D01*
X143357766Y-76942485D01*
X143429195Y-76799628D01*
X143500624Y-76728200D01*
X143643481Y-76656771D01*
X145072052Y-76656771D02*
X145214909Y-76656771D01*
X145357766Y-76728200D01*
X145429195Y-76799628D01*
X145500624Y-76942485D01*
X145572052Y-77228200D01*
X145572052Y-77585342D01*
X145500624Y-77871057D01*
X145429195Y-78013914D01*
X145357766Y-78085342D01*
X145214909Y-78156771D01*
X145072052Y-78156771D01*
X144929195Y-78085342D01*
X144857766Y-78013914D01*
X144786338Y-77871057D01*
X144714909Y-77585342D01*
X144714909Y-77228200D01*
X144786338Y-76942485D01*
X144857766Y-76799628D01*
X144929195Y-76728200D01*
X145072052Y-76656771D01*
X147357766Y-78156771D02*
X147357766Y-77156771D01*
X147357766Y-77299628D02*
X147429195Y-77228200D01*
X147572052Y-77156771D01*
X147786338Y-77156771D01*
X147929195Y-77228200D01*
X148000624Y-77371057D01*
X148000624Y-78156771D01*
X148000624Y-77371057D02*
X148072052Y-77228200D01*
X148214909Y-77156771D01*
X148429195Y-77156771D01*
X148572052Y-77228200D01*
X148643481Y-77371057D01*
X148643481Y-78156771D01*
X149357766Y-78156771D02*
X149357766Y-77156771D01*
X149357766Y-77299628D02*
X149429195Y-77228200D01*
X149572052Y-77156771D01*
X149786338Y-77156771D01*
X149929195Y-77228200D01*
X150000624Y-77371057D01*
X150000624Y-78156771D01*
X150000624Y-77371057D02*
X150072052Y-77228200D01*
X150214909Y-77156771D01*
X150429195Y-77156771D01*
X150572052Y-77228200D01*
X150643481Y-77371057D01*
X150643481Y-78156771D01*
X114998500Y-79578200D02*
X174002749Y-79578200D01*
X114998500Y-82956400D02*
X114998500Y-78991779D01*
X174002749Y-82956400D02*
X174002749Y-78991779D01*
X174002749Y-79578200D02*
X172876245Y-80164621D01*
X174002749Y-79578200D02*
X172876245Y-78991779D01*
X114998500Y-79578200D02*
X116125004Y-80164621D01*
X114998500Y-79578200D02*
X116125004Y-78991779D01*
D12*
G04 #@! TO.C,D2*
X127065000Y-106750000D02*
X127065000Y-108250000D01*
X127000000Y-107500000D02*
X126750000Y-107500000D01*
X125250000Y-107200000D02*
X125250000Y-107800000D01*
X125300000Y-107500000D02*
X125600000Y-107500000D01*
D13*
G04 #@! TO.C,C1*
X157591979Y-97026000D02*
X157266421Y-97026000D01*
X157591979Y-98046000D02*
X157266421Y-98046000D01*
G04 #@! TO.C,C2*
X156542521Y-89714800D02*
X156868079Y-89714800D01*
X156542521Y-88694800D02*
X156868079Y-88694800D01*
G04 #@! TO.C,C4*
X153506900Y-97170021D02*
X153506900Y-97495579D01*
X152486900Y-97170021D02*
X152486900Y-97495579D01*
G04 #@! TO.C,C5*
X139105421Y-96280700D02*
X139430979Y-96280700D01*
X139105421Y-95260700D02*
X139430979Y-95260700D01*
G04 #@! TO.C,C6*
X139507500Y-98321079D02*
X139507500Y-97995521D01*
X140527500Y-98321079D02*
X140527500Y-97995521D01*
D12*
G04 #@! TO.C,D1*
X125300000Y-88000000D02*
X125600000Y-88000000D01*
X125250000Y-87700000D02*
X125250000Y-88300000D01*
X127000000Y-88000000D02*
X126750000Y-88000000D01*
X127065000Y-87250000D02*
X127065000Y-88750000D01*
D13*
G04 #@! TO.C,D3*
X162059500Y-92161900D02*
X162059500Y-90701900D01*
X165219500Y-92161900D02*
X165219500Y-90001900D01*
X165219500Y-92161900D02*
X164289500Y-92161900D01*
X162059500Y-92161900D02*
X162989500Y-92161900D01*
G04 #@! TO.C,D4*
X165156000Y-103316500D02*
X164226000Y-103316500D01*
X161996000Y-103316500D02*
X162926000Y-103316500D01*
X161996000Y-103316500D02*
X161996000Y-105476500D01*
X165156000Y-103316500D02*
X165156000Y-104776500D01*
G04 #@! TO.C,J1*
X169831600Y-93350000D02*
X169831600Y-102150000D01*
X173001600Y-91605000D02*
X174051600Y-91605000D01*
X173001600Y-103895000D02*
X174051600Y-103895000D01*
G04 #@! TO.C,J2*
X140890000Y-106920000D02*
X140890000Y-109580000D01*
X158730000Y-106920000D02*
X140890000Y-106920000D01*
X158730000Y-109580000D02*
X140890000Y-109580000D01*
X158730000Y-106920000D02*
X158730000Y-109580000D01*
X160000000Y-106920000D02*
X161330000Y-106920000D01*
X161330000Y-106920000D02*
X161330000Y-108250000D01*
G04 #@! TO.C,J3*
X116076916Y-105330000D02*
X118168400Y-105330000D01*
X118168400Y-104760000D02*
X118168400Y-105330000D01*
X118133400Y-92160000D02*
X118133400Y-93180000D01*
X118133400Y-94700000D02*
X118133400Y-95720000D01*
X118148400Y-97230000D02*
X118148400Y-98250000D01*
X118143400Y-99770000D02*
X118143400Y-100790000D01*
X118158400Y-102320000D02*
X118158400Y-103340000D01*
X118133400Y-90759698D02*
X118133400Y-90149918D01*
D12*
G36*
X121078400Y-104660000D02*
X121078400Y-103540000D01*
X120308400Y-104090000D01*
X121078400Y-104660000D01*
G37*
X121078400Y-104660000D02*
X121078400Y-103540000D01*
X120308400Y-104090000D01*
X121078400Y-104660000D01*
D13*
G04 #@! TO.C,R1*
X131138021Y-86661700D02*
X131463579Y-86661700D01*
X131138021Y-87681700D02*
X131463579Y-87681700D01*
G04 #@! TO.C,R2*
X131138021Y-89256500D02*
X131463579Y-89256500D01*
X131138021Y-88236500D02*
X131463579Y-88236500D01*
G04 #@! TO.C,R3*
X131087221Y-107248000D02*
X131412779Y-107248000D01*
X131087221Y-106228000D02*
X131412779Y-106228000D01*
G04 #@! TO.C,R4*
X131087221Y-108835500D02*
X131412779Y-108835500D01*
X131087221Y-107815500D02*
X131412779Y-107815500D01*
G04 #@! TO.C,R5*
X163980079Y-99239800D02*
X163654521Y-99239800D01*
X163980079Y-98219800D02*
X163654521Y-98219800D01*
G04 #@! TO.C,R6*
X163980079Y-97284000D02*
X163654521Y-97284000D01*
X163980079Y-96264000D02*
X163654521Y-96264000D01*
G04 #@! TO.C,R7*
X120114600Y-96344521D02*
X120114600Y-96670079D01*
X121134600Y-96344521D02*
X121134600Y-96670079D01*
G04 #@! TO.C,R8*
X147927279Y-104688100D02*
X147601721Y-104688100D01*
X147927279Y-103668100D02*
X147601721Y-103668100D01*
G04 #@! TO.C,R9*
X163654521Y-95009600D02*
X163980079Y-95009600D01*
X163654521Y-93989600D02*
X163980079Y-93989600D01*
G04 #@! TO.C,R10*
X172160379Y-106757100D02*
X171834821Y-106757100D01*
X172160379Y-105737100D02*
X171834821Y-105737100D01*
G04 #@! TO.C,SW1*
X127668200Y-91830000D02*
X134488200Y-91830000D01*
X127668200Y-103670000D02*
X134488200Y-103670000D01*
X127668200Y-91830000D02*
X127668200Y-93140000D01*
X127668200Y-94740000D02*
X127668200Y-95680000D01*
X127668200Y-97280000D02*
X127668200Y-98220000D01*
X127668200Y-99820000D02*
X127668200Y-100760000D01*
X127668200Y-102360000D02*
X127668200Y-103670000D01*
X134488200Y-102360000D02*
X134488200Y-103670000D01*
X134488200Y-99820000D02*
X134488200Y-100760000D01*
X134488200Y-97280000D02*
X134488200Y-98220000D01*
X134488200Y-91830000D02*
X134488200Y-93140000D01*
X134488200Y-94740000D02*
X134488200Y-95680000D01*
X127428200Y-91590000D02*
X128811200Y-91590000D01*
X127428200Y-91590000D02*
X127428200Y-92973000D01*
X129268200Y-93305000D02*
X129268200Y-94575000D01*
X129268200Y-94575000D02*
X132888200Y-94575000D01*
X132888200Y-94575000D02*
X132888200Y-93305000D01*
X132888200Y-93305000D02*
X129268200Y-93305000D01*
X129268200Y-93425000D02*
X130474867Y-93425000D01*
X129268200Y-93545000D02*
X130474867Y-93545000D01*
X129268200Y-93665000D02*
X130474867Y-93665000D01*
X129268200Y-93785000D02*
X130474867Y-93785000D01*
X129268200Y-93905000D02*
X130474867Y-93905000D01*
X129268200Y-94025000D02*
X130474867Y-94025000D01*
X129268200Y-94145000D02*
X130474867Y-94145000D01*
X129268200Y-94265000D02*
X130474867Y-94265000D01*
X129268200Y-94385000D02*
X130474867Y-94385000D01*
X129268200Y-94505000D02*
X130474867Y-94505000D01*
X130474867Y-93305000D02*
X130474867Y-94575000D01*
X129268200Y-95845000D02*
X129268200Y-97115000D01*
X129268200Y-97115000D02*
X132888200Y-97115000D01*
X132888200Y-97115000D02*
X132888200Y-95845000D01*
X132888200Y-95845000D02*
X129268200Y-95845000D01*
X129268200Y-95965000D02*
X130474867Y-95965000D01*
X129268200Y-96085000D02*
X130474867Y-96085000D01*
X129268200Y-96205000D02*
X130474867Y-96205000D01*
X129268200Y-96325000D02*
X130474867Y-96325000D01*
X129268200Y-96445000D02*
X130474867Y-96445000D01*
X129268200Y-96565000D02*
X130474867Y-96565000D01*
X129268200Y-96685000D02*
X130474867Y-96685000D01*
X129268200Y-96805000D02*
X130474867Y-96805000D01*
X129268200Y-96925000D02*
X130474867Y-96925000D01*
X129268200Y-97045000D02*
X130474867Y-97045000D01*
X130474867Y-95845000D02*
X130474867Y-97115000D01*
X129268200Y-98385000D02*
X129268200Y-99655000D01*
X129268200Y-99655000D02*
X132888200Y-99655000D01*
X132888200Y-99655000D02*
X132888200Y-98385000D01*
X132888200Y-98385000D02*
X129268200Y-98385000D01*
X129268200Y-98505000D02*
X130474867Y-98505000D01*
X129268200Y-98625000D02*
X130474867Y-98625000D01*
X129268200Y-98745000D02*
X130474867Y-98745000D01*
X129268200Y-98865000D02*
X130474867Y-98865000D01*
X129268200Y-98985000D02*
X130474867Y-98985000D01*
X129268200Y-99105000D02*
X130474867Y-99105000D01*
X129268200Y-99225000D02*
X130474867Y-99225000D01*
X129268200Y-99345000D02*
X130474867Y-99345000D01*
X129268200Y-99465000D02*
X130474867Y-99465000D01*
X129268200Y-99585000D02*
X130474867Y-99585000D01*
X130474867Y-98385000D02*
X130474867Y-99655000D01*
X129268200Y-100925000D02*
X129268200Y-102195000D01*
X129268200Y-102195000D02*
X132888200Y-102195000D01*
X132888200Y-102195000D02*
X132888200Y-100925000D01*
X132888200Y-100925000D02*
X129268200Y-100925000D01*
X129268200Y-101045000D02*
X130474867Y-101045000D01*
X129268200Y-101165000D02*
X130474867Y-101165000D01*
X129268200Y-101285000D02*
X130474867Y-101285000D01*
X129268200Y-101405000D02*
X130474867Y-101405000D01*
X129268200Y-101525000D02*
X130474867Y-101525000D01*
X129268200Y-101645000D02*
X130474867Y-101645000D01*
X129268200Y-101765000D02*
X130474867Y-101765000D01*
X129268200Y-101885000D02*
X130474867Y-101885000D01*
X129268200Y-102005000D02*
X130474867Y-102005000D01*
X129268200Y-102125000D02*
X130474867Y-102125000D01*
X130474867Y-100925000D02*
X130474867Y-102195000D01*
D12*
G04 #@! TO.C,U1*
X150197200Y-101375000D02*
X150197200Y-101150000D01*
X142947200Y-101375000D02*
X142947200Y-101050000D01*
X142947200Y-94125000D02*
X142947200Y-94450000D01*
X150197200Y-94125000D02*
X150197200Y-94450000D01*
X150197200Y-101375000D02*
X149872200Y-101375000D01*
X150197200Y-94125000D02*
X149872200Y-94125000D01*
X142947200Y-94125000D02*
X143272200Y-94125000D01*
X142947200Y-101375000D02*
X143272200Y-101375000D01*
X150197200Y-101150000D02*
X151622200Y-101150000D01*
D13*
G04 #@! TO.C,Y1*
X155060900Y-96257700D02*
X159060900Y-96257700D01*
X159060900Y-96257700D02*
X159060900Y-90457700D01*
G04 #@! TD*
M02*
