G04 #@! TF.GenerationSoftware,KiCad,Pcbnew,(5.0.0-3-g5ebb6b6)*
G04 #@! TF.CreationDate,2019-02-08T12:04:07-05:00*
G04 #@! TF.ProjectId,ROCKETasp,524F434B45546173702E6B696361645F,2.0*
G04 #@! TF.SameCoordinates,Original*
G04 #@! TF.FileFunction,Copper,L2,Bot,Signal*
G04 #@! TF.FilePolarity,Positive*
%FSLAX46Y46*%
G04 Gerber Fmt 4.6, Leading zero omitted, Abs format (unit mm)*
G04 Created by KiCad (PCBNEW (5.0.0-3-g5ebb6b6)) date Friday, February 08, 2019 at 12:04:07 PM*
%MOMM*%
%LPD*%
G01*
G04 APERTURE LIST*
G04 #@! TA.AperFunction,Conductor*
%ADD10C,0.100000*%
G04 #@! TD*
G04 #@! TA.AperFunction,SMDPad,CuDef*
%ADD11C,0.875000*%
G04 #@! TD*
G04 #@! TA.AperFunction,SMDPad,CuDef*
%ADD12C,0.975000*%
G04 #@! TD*
G04 #@! TA.AperFunction,SMDPad,CuDef*
%ADD13C,1.250000*%
G04 #@! TD*
G04 #@! TA.AperFunction,ComponentPad*
%ADD14O,3.500000X1.900000*%
G04 #@! TD*
G04 #@! TA.AperFunction,ComponentPad*
%ADD15R,1.700000X1.700000*%
G04 #@! TD*
G04 #@! TA.AperFunction,ComponentPad*
%ADD16O,1.700000X1.700000*%
G04 #@! TD*
G04 #@! TA.AperFunction,SMDPad,CuDef*
%ADD17R,3.000000X1.000000*%
G04 #@! TD*
G04 #@! TA.AperFunction,SMDPad,CuDef*
%ADD18C,0.500000*%
G04 #@! TD*
G04 #@! TA.AperFunction,SMDPad,CuDef*
%ADD19R,2.000000X3.800000*%
G04 #@! TD*
G04 #@! TA.AperFunction,SMDPad,CuDef*
%ADD20R,2.000000X1.500000*%
G04 #@! TD*
G04 #@! TA.AperFunction,ViaPad*
%ADD21C,0.762000*%
G04 #@! TD*
G04 #@! TA.AperFunction,ViaPad*
%ADD22C,0.635000*%
G04 #@! TD*
G04 #@! TA.AperFunction,ViaPad*
%ADD23C,0.812800*%
G04 #@! TD*
G04 #@! TA.AperFunction,ViaPad*
%ADD24C,0.889000*%
G04 #@! TD*
G04 #@! TA.AperFunction,Conductor*
%ADD25C,0.609600*%
G04 #@! TD*
G04 #@! TA.AperFunction,Conductor*
%ADD26C,0.457200*%
G04 #@! TD*
G04 #@! TA.AperFunction,Conductor*
%ADD27C,0.304800*%
G04 #@! TD*
G04 #@! TA.AperFunction,Conductor*
%ADD28C,0.254000*%
G04 #@! TD*
G04 APERTURE END LIST*
D10*
G04 #@! TO.N,GND*
G04 #@! TO.C,C3*
G36*
X121321391Y-92578453D02*
X121342626Y-92581603D01*
X121363450Y-92586819D01*
X121383662Y-92594051D01*
X121403068Y-92603230D01*
X121421481Y-92614266D01*
X121438724Y-92627054D01*
X121454630Y-92641470D01*
X121469046Y-92657376D01*
X121481834Y-92674619D01*
X121492870Y-92693032D01*
X121502049Y-92712438D01*
X121509281Y-92732650D01*
X121514497Y-92753474D01*
X121517647Y-92774709D01*
X121518700Y-92796150D01*
X121518700Y-93233650D01*
X121517647Y-93255091D01*
X121514497Y-93276326D01*
X121509281Y-93297150D01*
X121502049Y-93317362D01*
X121492870Y-93336768D01*
X121481834Y-93355181D01*
X121469046Y-93372424D01*
X121454630Y-93388330D01*
X121438724Y-93402746D01*
X121421481Y-93415534D01*
X121403068Y-93426570D01*
X121383662Y-93435749D01*
X121363450Y-93442981D01*
X121342626Y-93448197D01*
X121321391Y-93451347D01*
X121299950Y-93452400D01*
X120787450Y-93452400D01*
X120766009Y-93451347D01*
X120744774Y-93448197D01*
X120723950Y-93442981D01*
X120703738Y-93435749D01*
X120684332Y-93426570D01*
X120665919Y-93415534D01*
X120648676Y-93402746D01*
X120632770Y-93388330D01*
X120618354Y-93372424D01*
X120605566Y-93355181D01*
X120594530Y-93336768D01*
X120585351Y-93317362D01*
X120578119Y-93297150D01*
X120572903Y-93276326D01*
X120569753Y-93255091D01*
X120568700Y-93233650D01*
X120568700Y-92796150D01*
X120569753Y-92774709D01*
X120572903Y-92753474D01*
X120578119Y-92732650D01*
X120585351Y-92712438D01*
X120594530Y-92693032D01*
X120605566Y-92674619D01*
X120618354Y-92657376D01*
X120632770Y-92641470D01*
X120648676Y-92627054D01*
X120665919Y-92614266D01*
X120684332Y-92603230D01*
X120703738Y-92594051D01*
X120723950Y-92586819D01*
X120744774Y-92581603D01*
X120766009Y-92578453D01*
X120787450Y-92577400D01*
X121299950Y-92577400D01*
X121321391Y-92578453D01*
X121321391Y-92578453D01*
G37*
D11*
G04 #@! TD*
G04 #@! TO.P,C3,1*
G04 #@! TO.N,GND*
X121043700Y-93014900D03*
D10*
G04 #@! TO.N,VCC*
G04 #@! TO.C,C3*
G36*
X121321391Y-91003453D02*
X121342626Y-91006603D01*
X121363450Y-91011819D01*
X121383662Y-91019051D01*
X121403068Y-91028230D01*
X121421481Y-91039266D01*
X121438724Y-91052054D01*
X121454630Y-91066470D01*
X121469046Y-91082376D01*
X121481834Y-91099619D01*
X121492870Y-91118032D01*
X121502049Y-91137438D01*
X121509281Y-91157650D01*
X121514497Y-91178474D01*
X121517647Y-91199709D01*
X121518700Y-91221150D01*
X121518700Y-91658650D01*
X121517647Y-91680091D01*
X121514497Y-91701326D01*
X121509281Y-91722150D01*
X121502049Y-91742362D01*
X121492870Y-91761768D01*
X121481834Y-91780181D01*
X121469046Y-91797424D01*
X121454630Y-91813330D01*
X121438724Y-91827746D01*
X121421481Y-91840534D01*
X121403068Y-91851570D01*
X121383662Y-91860749D01*
X121363450Y-91867981D01*
X121342626Y-91873197D01*
X121321391Y-91876347D01*
X121299950Y-91877400D01*
X120787450Y-91877400D01*
X120766009Y-91876347D01*
X120744774Y-91873197D01*
X120723950Y-91867981D01*
X120703738Y-91860749D01*
X120684332Y-91851570D01*
X120665919Y-91840534D01*
X120648676Y-91827746D01*
X120632770Y-91813330D01*
X120618354Y-91797424D01*
X120605566Y-91780181D01*
X120594530Y-91761768D01*
X120585351Y-91742362D01*
X120578119Y-91722150D01*
X120572903Y-91701326D01*
X120569753Y-91680091D01*
X120568700Y-91658650D01*
X120568700Y-91221150D01*
X120569753Y-91199709D01*
X120572903Y-91178474D01*
X120578119Y-91157650D01*
X120585351Y-91137438D01*
X120594530Y-91118032D01*
X120605566Y-91099619D01*
X120618354Y-91082376D01*
X120632770Y-91066470D01*
X120648676Y-91052054D01*
X120665919Y-91039266D01*
X120684332Y-91028230D01*
X120703738Y-91019051D01*
X120723950Y-91011819D01*
X120744774Y-91006603D01*
X120766009Y-91003453D01*
X120787450Y-91002400D01*
X121299950Y-91002400D01*
X121321391Y-91003453D01*
X121321391Y-91003453D01*
G37*
D11*
G04 #@! TD*
G04 #@! TO.P,C3,2*
G04 #@! TO.N,VCC*
X121043700Y-91439900D03*
D10*
G04 #@! TO.N,VCC*
G04 #@! TO.C,C7*
G36*
X146823342Y-89852174D02*
X146847003Y-89855684D01*
X146870207Y-89861496D01*
X146892729Y-89869554D01*
X146914353Y-89879782D01*
X146934870Y-89892079D01*
X146954083Y-89906329D01*
X146971807Y-89922393D01*
X146987871Y-89940117D01*
X147002121Y-89959330D01*
X147014418Y-89979847D01*
X147024646Y-90001471D01*
X147032704Y-90023993D01*
X147038516Y-90047197D01*
X147042026Y-90070858D01*
X147043200Y-90094750D01*
X147043200Y-91007250D01*
X147042026Y-91031142D01*
X147038516Y-91054803D01*
X147032704Y-91078007D01*
X147024646Y-91100529D01*
X147014418Y-91122153D01*
X147002121Y-91142670D01*
X146987871Y-91161883D01*
X146971807Y-91179607D01*
X146954083Y-91195671D01*
X146934870Y-91209921D01*
X146914353Y-91222218D01*
X146892729Y-91232446D01*
X146870207Y-91240504D01*
X146847003Y-91246316D01*
X146823342Y-91249826D01*
X146799450Y-91251000D01*
X146311950Y-91251000D01*
X146288058Y-91249826D01*
X146264397Y-91246316D01*
X146241193Y-91240504D01*
X146218671Y-91232446D01*
X146197047Y-91222218D01*
X146176530Y-91209921D01*
X146157317Y-91195671D01*
X146139593Y-91179607D01*
X146123529Y-91161883D01*
X146109279Y-91142670D01*
X146096982Y-91122153D01*
X146086754Y-91100529D01*
X146078696Y-91078007D01*
X146072884Y-91054803D01*
X146069374Y-91031142D01*
X146068200Y-91007250D01*
X146068200Y-90094750D01*
X146069374Y-90070858D01*
X146072884Y-90047197D01*
X146078696Y-90023993D01*
X146086754Y-90001471D01*
X146096982Y-89979847D01*
X146109279Y-89959330D01*
X146123529Y-89940117D01*
X146139593Y-89922393D01*
X146157317Y-89906329D01*
X146176530Y-89892079D01*
X146197047Y-89879782D01*
X146218671Y-89869554D01*
X146241193Y-89861496D01*
X146264397Y-89855684D01*
X146288058Y-89852174D01*
X146311950Y-89851000D01*
X146799450Y-89851000D01*
X146823342Y-89852174D01*
X146823342Y-89852174D01*
G37*
D12*
G04 #@! TD*
G04 #@! TO.P,C7,1*
G04 #@! TO.N,VCC*
X146555700Y-90551000D03*
D10*
G04 #@! TO.N,GND*
G04 #@! TO.C,C7*
G36*
X144948342Y-89852174D02*
X144972003Y-89855684D01*
X144995207Y-89861496D01*
X145017729Y-89869554D01*
X145039353Y-89879782D01*
X145059870Y-89892079D01*
X145079083Y-89906329D01*
X145096807Y-89922393D01*
X145112871Y-89940117D01*
X145127121Y-89959330D01*
X145139418Y-89979847D01*
X145149646Y-90001471D01*
X145157704Y-90023993D01*
X145163516Y-90047197D01*
X145167026Y-90070858D01*
X145168200Y-90094750D01*
X145168200Y-91007250D01*
X145167026Y-91031142D01*
X145163516Y-91054803D01*
X145157704Y-91078007D01*
X145149646Y-91100529D01*
X145139418Y-91122153D01*
X145127121Y-91142670D01*
X145112871Y-91161883D01*
X145096807Y-91179607D01*
X145079083Y-91195671D01*
X145059870Y-91209921D01*
X145039353Y-91222218D01*
X145017729Y-91232446D01*
X144995207Y-91240504D01*
X144972003Y-91246316D01*
X144948342Y-91249826D01*
X144924450Y-91251000D01*
X144436950Y-91251000D01*
X144413058Y-91249826D01*
X144389397Y-91246316D01*
X144366193Y-91240504D01*
X144343671Y-91232446D01*
X144322047Y-91222218D01*
X144301530Y-91209921D01*
X144282317Y-91195671D01*
X144264593Y-91179607D01*
X144248529Y-91161883D01*
X144234279Y-91142670D01*
X144221982Y-91122153D01*
X144211754Y-91100529D01*
X144203696Y-91078007D01*
X144197884Y-91054803D01*
X144194374Y-91031142D01*
X144193200Y-91007250D01*
X144193200Y-90094750D01*
X144194374Y-90070858D01*
X144197884Y-90047197D01*
X144203696Y-90023993D01*
X144211754Y-90001471D01*
X144221982Y-89979847D01*
X144234279Y-89959330D01*
X144248529Y-89940117D01*
X144264593Y-89922393D01*
X144282317Y-89906329D01*
X144301530Y-89892079D01*
X144322047Y-89879782D01*
X144343671Y-89869554D01*
X144366193Y-89861496D01*
X144389397Y-89855684D01*
X144413058Y-89852174D01*
X144436950Y-89851000D01*
X144924450Y-89851000D01*
X144948342Y-89852174D01*
X144948342Y-89852174D01*
G37*
D12*
G04 #@! TD*
G04 #@! TO.P,C7,2*
G04 #@! TO.N,GND*
X144680700Y-90551000D03*
D10*
G04 #@! TO.N,GND*
G04 #@! TO.C,C8*
G36*
X157038742Y-96875274D02*
X157062403Y-96878784D01*
X157085607Y-96884596D01*
X157108129Y-96892654D01*
X157129753Y-96902882D01*
X157150270Y-96915179D01*
X157169483Y-96929429D01*
X157187207Y-96945493D01*
X157203271Y-96963217D01*
X157217521Y-96982430D01*
X157229818Y-97002947D01*
X157240046Y-97024571D01*
X157248104Y-97047093D01*
X157253916Y-97070297D01*
X157257426Y-97093958D01*
X157258600Y-97117850D01*
X157258600Y-98030350D01*
X157257426Y-98054242D01*
X157253916Y-98077903D01*
X157248104Y-98101107D01*
X157240046Y-98123629D01*
X157229818Y-98145253D01*
X157217521Y-98165770D01*
X157203271Y-98184983D01*
X157187207Y-98202707D01*
X157169483Y-98218771D01*
X157150270Y-98233021D01*
X157129753Y-98245318D01*
X157108129Y-98255546D01*
X157085607Y-98263604D01*
X157062403Y-98269416D01*
X157038742Y-98272926D01*
X157014850Y-98274100D01*
X156527350Y-98274100D01*
X156503458Y-98272926D01*
X156479797Y-98269416D01*
X156456593Y-98263604D01*
X156434071Y-98255546D01*
X156412447Y-98245318D01*
X156391930Y-98233021D01*
X156372717Y-98218771D01*
X156354993Y-98202707D01*
X156338929Y-98184983D01*
X156324679Y-98165770D01*
X156312382Y-98145253D01*
X156302154Y-98123629D01*
X156294096Y-98101107D01*
X156288284Y-98077903D01*
X156284774Y-98054242D01*
X156283600Y-98030350D01*
X156283600Y-97117850D01*
X156284774Y-97093958D01*
X156288284Y-97070297D01*
X156294096Y-97047093D01*
X156302154Y-97024571D01*
X156312382Y-97002947D01*
X156324679Y-96982430D01*
X156338929Y-96963217D01*
X156354993Y-96945493D01*
X156372717Y-96929429D01*
X156391930Y-96915179D01*
X156412447Y-96902882D01*
X156434071Y-96892654D01*
X156456593Y-96884596D01*
X156479797Y-96878784D01*
X156503458Y-96875274D01*
X156527350Y-96874100D01*
X157014850Y-96874100D01*
X157038742Y-96875274D01*
X157038742Y-96875274D01*
G37*
D12*
G04 #@! TD*
G04 #@! TO.P,C8,2*
G04 #@! TO.N,GND*
X156771100Y-97574100D03*
D10*
G04 #@! TO.N,VBUS*
G04 #@! TO.C,C8*
G36*
X158913742Y-96875274D02*
X158937403Y-96878784D01*
X158960607Y-96884596D01*
X158983129Y-96892654D01*
X159004753Y-96902882D01*
X159025270Y-96915179D01*
X159044483Y-96929429D01*
X159062207Y-96945493D01*
X159078271Y-96963217D01*
X159092521Y-96982430D01*
X159104818Y-97002947D01*
X159115046Y-97024571D01*
X159123104Y-97047093D01*
X159128916Y-97070297D01*
X159132426Y-97093958D01*
X159133600Y-97117850D01*
X159133600Y-98030350D01*
X159132426Y-98054242D01*
X159128916Y-98077903D01*
X159123104Y-98101107D01*
X159115046Y-98123629D01*
X159104818Y-98145253D01*
X159092521Y-98165770D01*
X159078271Y-98184983D01*
X159062207Y-98202707D01*
X159044483Y-98218771D01*
X159025270Y-98233021D01*
X159004753Y-98245318D01*
X158983129Y-98255546D01*
X158960607Y-98263604D01*
X158937403Y-98269416D01*
X158913742Y-98272926D01*
X158889850Y-98274100D01*
X158402350Y-98274100D01*
X158378458Y-98272926D01*
X158354797Y-98269416D01*
X158331593Y-98263604D01*
X158309071Y-98255546D01*
X158287447Y-98245318D01*
X158266930Y-98233021D01*
X158247717Y-98218771D01*
X158229993Y-98202707D01*
X158213929Y-98184983D01*
X158199679Y-98165770D01*
X158187382Y-98145253D01*
X158177154Y-98123629D01*
X158169096Y-98101107D01*
X158163284Y-98077903D01*
X158159774Y-98054242D01*
X158158600Y-98030350D01*
X158158600Y-97117850D01*
X158159774Y-97093958D01*
X158163284Y-97070297D01*
X158169096Y-97047093D01*
X158177154Y-97024571D01*
X158187382Y-97002947D01*
X158199679Y-96982430D01*
X158213929Y-96963217D01*
X158229993Y-96945493D01*
X158247717Y-96929429D01*
X158266930Y-96915179D01*
X158287447Y-96902882D01*
X158309071Y-96892654D01*
X158331593Y-96884596D01*
X158354797Y-96878784D01*
X158378458Y-96875274D01*
X158402350Y-96874100D01*
X158889850Y-96874100D01*
X158913742Y-96875274D01*
X158913742Y-96875274D01*
G37*
D12*
G04 #@! TD*
G04 #@! TO.P,C8,1*
G04 #@! TO.N,VBUS*
X158646100Y-97574100D03*
D10*
G04 #@! TO.N,VTG*
G04 #@! TO.C,C9*
G36*
X121295991Y-103627453D02*
X121317226Y-103630603D01*
X121338050Y-103635819D01*
X121358262Y-103643051D01*
X121377668Y-103652230D01*
X121396081Y-103663266D01*
X121413324Y-103676054D01*
X121429230Y-103690470D01*
X121443646Y-103706376D01*
X121456434Y-103723619D01*
X121467470Y-103742032D01*
X121476649Y-103761438D01*
X121483881Y-103781650D01*
X121489097Y-103802474D01*
X121492247Y-103823709D01*
X121493300Y-103845150D01*
X121493300Y-104282650D01*
X121492247Y-104304091D01*
X121489097Y-104325326D01*
X121483881Y-104346150D01*
X121476649Y-104366362D01*
X121467470Y-104385768D01*
X121456434Y-104404181D01*
X121443646Y-104421424D01*
X121429230Y-104437330D01*
X121413324Y-104451746D01*
X121396081Y-104464534D01*
X121377668Y-104475570D01*
X121358262Y-104484749D01*
X121338050Y-104491981D01*
X121317226Y-104497197D01*
X121295991Y-104500347D01*
X121274550Y-104501400D01*
X120762050Y-104501400D01*
X120740609Y-104500347D01*
X120719374Y-104497197D01*
X120698550Y-104491981D01*
X120678338Y-104484749D01*
X120658932Y-104475570D01*
X120640519Y-104464534D01*
X120623276Y-104451746D01*
X120607370Y-104437330D01*
X120592954Y-104421424D01*
X120580166Y-104404181D01*
X120569130Y-104385768D01*
X120559951Y-104366362D01*
X120552719Y-104346150D01*
X120547503Y-104325326D01*
X120544353Y-104304091D01*
X120543300Y-104282650D01*
X120543300Y-103845150D01*
X120544353Y-103823709D01*
X120547503Y-103802474D01*
X120552719Y-103781650D01*
X120559951Y-103761438D01*
X120569130Y-103742032D01*
X120580166Y-103723619D01*
X120592954Y-103706376D01*
X120607370Y-103690470D01*
X120623276Y-103676054D01*
X120640519Y-103663266D01*
X120658932Y-103652230D01*
X120678338Y-103643051D01*
X120698550Y-103635819D01*
X120719374Y-103630603D01*
X120740609Y-103627453D01*
X120762050Y-103626400D01*
X121274550Y-103626400D01*
X121295991Y-103627453D01*
X121295991Y-103627453D01*
G37*
D11*
G04 #@! TD*
G04 #@! TO.P,C9,1*
G04 #@! TO.N,VTG*
X121018300Y-104063900D03*
D10*
G04 #@! TO.N,GND*
G04 #@! TO.C,C9*
G36*
X121295991Y-102052453D02*
X121317226Y-102055603D01*
X121338050Y-102060819D01*
X121358262Y-102068051D01*
X121377668Y-102077230D01*
X121396081Y-102088266D01*
X121413324Y-102101054D01*
X121429230Y-102115470D01*
X121443646Y-102131376D01*
X121456434Y-102148619D01*
X121467470Y-102167032D01*
X121476649Y-102186438D01*
X121483881Y-102206650D01*
X121489097Y-102227474D01*
X121492247Y-102248709D01*
X121493300Y-102270150D01*
X121493300Y-102707650D01*
X121492247Y-102729091D01*
X121489097Y-102750326D01*
X121483881Y-102771150D01*
X121476649Y-102791362D01*
X121467470Y-102810768D01*
X121456434Y-102829181D01*
X121443646Y-102846424D01*
X121429230Y-102862330D01*
X121413324Y-102876746D01*
X121396081Y-102889534D01*
X121377668Y-102900570D01*
X121358262Y-102909749D01*
X121338050Y-102916981D01*
X121317226Y-102922197D01*
X121295991Y-102925347D01*
X121274550Y-102926400D01*
X120762050Y-102926400D01*
X120740609Y-102925347D01*
X120719374Y-102922197D01*
X120698550Y-102916981D01*
X120678338Y-102909749D01*
X120658932Y-102900570D01*
X120640519Y-102889534D01*
X120623276Y-102876746D01*
X120607370Y-102862330D01*
X120592954Y-102846424D01*
X120580166Y-102829181D01*
X120569130Y-102810768D01*
X120559951Y-102791362D01*
X120552719Y-102771150D01*
X120547503Y-102750326D01*
X120544353Y-102729091D01*
X120543300Y-102707650D01*
X120543300Y-102270150D01*
X120544353Y-102248709D01*
X120547503Y-102227474D01*
X120552719Y-102206650D01*
X120559951Y-102186438D01*
X120569130Y-102167032D01*
X120580166Y-102148619D01*
X120592954Y-102131376D01*
X120607370Y-102115470D01*
X120623276Y-102101054D01*
X120640519Y-102088266D01*
X120658932Y-102077230D01*
X120678338Y-102068051D01*
X120698550Y-102060819D01*
X120719374Y-102055603D01*
X120740609Y-102052453D01*
X120762050Y-102051400D01*
X121274550Y-102051400D01*
X121295991Y-102052453D01*
X121295991Y-102052453D01*
G37*
D11*
G04 #@! TD*
G04 #@! TO.P,C9,2*
G04 #@! TO.N,GND*
X121018300Y-102488900D03*
D10*
G04 #@! TO.N,VBUS*
G04 #@! TO.C,F1*
G36*
X158981404Y-93626904D02*
X159005673Y-93630504D01*
X159029471Y-93636465D01*
X159052571Y-93644730D01*
X159074749Y-93655220D01*
X159095793Y-93667833D01*
X159115498Y-93682447D01*
X159133677Y-93698923D01*
X159150153Y-93717102D01*
X159164767Y-93736807D01*
X159177380Y-93757851D01*
X159187870Y-93780029D01*
X159196135Y-93803129D01*
X159202096Y-93826927D01*
X159205696Y-93851196D01*
X159206900Y-93875700D01*
X159206900Y-95125700D01*
X159205696Y-95150204D01*
X159202096Y-95174473D01*
X159196135Y-95198271D01*
X159187870Y-95221371D01*
X159177380Y-95243549D01*
X159164767Y-95264593D01*
X159150153Y-95284298D01*
X159133677Y-95302477D01*
X159115498Y-95318953D01*
X159095793Y-95333567D01*
X159074749Y-95346180D01*
X159052571Y-95356670D01*
X159029471Y-95364935D01*
X159005673Y-95370896D01*
X158981404Y-95374496D01*
X158956900Y-95375700D01*
X158206900Y-95375700D01*
X158182396Y-95374496D01*
X158158127Y-95370896D01*
X158134329Y-95364935D01*
X158111229Y-95356670D01*
X158089051Y-95346180D01*
X158068007Y-95333567D01*
X158048302Y-95318953D01*
X158030123Y-95302477D01*
X158013647Y-95284298D01*
X157999033Y-95264593D01*
X157986420Y-95243549D01*
X157975930Y-95221371D01*
X157967665Y-95198271D01*
X157961704Y-95174473D01*
X157958104Y-95150204D01*
X157956900Y-95125700D01*
X157956900Y-93875700D01*
X157958104Y-93851196D01*
X157961704Y-93826927D01*
X157967665Y-93803129D01*
X157975930Y-93780029D01*
X157986420Y-93757851D01*
X157999033Y-93736807D01*
X158013647Y-93717102D01*
X158030123Y-93698923D01*
X158048302Y-93682447D01*
X158068007Y-93667833D01*
X158089051Y-93655220D01*
X158111229Y-93644730D01*
X158134329Y-93636465D01*
X158158127Y-93630504D01*
X158182396Y-93626904D01*
X158206900Y-93625700D01*
X158956900Y-93625700D01*
X158981404Y-93626904D01*
X158981404Y-93626904D01*
G37*
D13*
G04 #@! TD*
G04 #@! TO.P,F1,1*
G04 #@! TO.N,VBUS*
X158581900Y-94500700D03*
D10*
G04 #@! TO.N,Net-(F1-Pad2)*
G04 #@! TO.C,F1*
G36*
X161781404Y-93626904D02*
X161805673Y-93630504D01*
X161829471Y-93636465D01*
X161852571Y-93644730D01*
X161874749Y-93655220D01*
X161895793Y-93667833D01*
X161915498Y-93682447D01*
X161933677Y-93698923D01*
X161950153Y-93717102D01*
X161964767Y-93736807D01*
X161977380Y-93757851D01*
X161987870Y-93780029D01*
X161996135Y-93803129D01*
X162002096Y-93826927D01*
X162005696Y-93851196D01*
X162006900Y-93875700D01*
X162006900Y-95125700D01*
X162005696Y-95150204D01*
X162002096Y-95174473D01*
X161996135Y-95198271D01*
X161987870Y-95221371D01*
X161977380Y-95243549D01*
X161964767Y-95264593D01*
X161950153Y-95284298D01*
X161933677Y-95302477D01*
X161915498Y-95318953D01*
X161895793Y-95333567D01*
X161874749Y-95346180D01*
X161852571Y-95356670D01*
X161829471Y-95364935D01*
X161805673Y-95370896D01*
X161781404Y-95374496D01*
X161756900Y-95375700D01*
X161006900Y-95375700D01*
X160982396Y-95374496D01*
X160958127Y-95370896D01*
X160934329Y-95364935D01*
X160911229Y-95356670D01*
X160889051Y-95346180D01*
X160868007Y-95333567D01*
X160848302Y-95318953D01*
X160830123Y-95302477D01*
X160813647Y-95284298D01*
X160799033Y-95264593D01*
X160786420Y-95243549D01*
X160775930Y-95221371D01*
X160767665Y-95198271D01*
X160761704Y-95174473D01*
X160758104Y-95150204D01*
X160756900Y-95125700D01*
X160756900Y-93875700D01*
X160758104Y-93851196D01*
X160761704Y-93826927D01*
X160767665Y-93803129D01*
X160775930Y-93780029D01*
X160786420Y-93757851D01*
X160799033Y-93736807D01*
X160813647Y-93717102D01*
X160830123Y-93698923D01*
X160848302Y-93682447D01*
X160868007Y-93667833D01*
X160889051Y-93655220D01*
X160911229Y-93644730D01*
X160934329Y-93636465D01*
X160958127Y-93630504D01*
X160982396Y-93626904D01*
X161006900Y-93625700D01*
X161756900Y-93625700D01*
X161781404Y-93626904D01*
X161781404Y-93626904D01*
G37*
D13*
G04 #@! TD*
G04 #@! TO.P,F1,2*
G04 #@! TO.N,Net-(F1-Pad2)*
X161381900Y-94500700D03*
D14*
G04 #@! TO.P,J1,5*
G04 #@! TO.N,Net-(J1-Pad5)*
X170951600Y-92050000D03*
X170951600Y-103450000D03*
G04 #@! TD*
D15*
G04 #@! TO.P,J2,1*
G04 #@! TO.N,PD6*
X160000000Y-108250000D03*
D16*
G04 #@! TO.P,J2,2*
G04 #@! TO.N,PD5*
X157460000Y-108250000D03*
G04 #@! TO.P,J2,3*
G04 #@! TO.N,PE1*
X154920000Y-108250000D03*
G04 #@! TO.P,J2,4*
G04 #@! TO.N,PE0*
X152380000Y-108250000D03*
G04 #@! TO.P,J2,5*
G04 #@! TO.N,PD3*
X149840000Y-108250000D03*
G04 #@! TO.P,J2,6*
G04 #@! TO.N,PC1*
X147300000Y-108250000D03*
G04 #@! TO.P,J2,7*
G04 #@! TO.N,PE3*
X144760000Y-108250000D03*
G04 #@! TO.P,J2,8*
G04 #@! TO.N,PE2*
X142220000Y-108250000D03*
G04 #@! TD*
D17*
G04 #@! TO.P,J3,12*
G04 #@! TO.N,VCC*
X117738400Y-91400000D03*
G04 #@! TO.P,J3,10*
G04 #@! TO.N,GND*
X117738400Y-93940000D03*
G04 #@! TO.P,J3,8*
G04 #@! TO.N,SLWCLK*
X117738400Y-96480000D03*
G04 #@! TO.P,J3,6*
G04 #@! TO.N,GND*
X117738400Y-99020000D03*
G04 #@! TO.P,J3,4*
G04 #@! TO.N,MOSI*
X117738400Y-101560000D03*
G04 #@! TO.P,J3,2*
G04 #@! TO.N,VTG*
X117738400Y-104100000D03*
G04 #@! TD*
D18*
G04 #@! TO.P,JP1,1*
G04 #@! TO.N,VBUS*
X159882600Y-90830400D03*
D10*
G04 #@! TD*
G04 #@! TO.N,VBUS*
G04 #@! TO.C,JP1*
G36*
X159382600Y-90080400D02*
X159882600Y-90080400D01*
X159882600Y-90081002D01*
X159907134Y-90081002D01*
X159955965Y-90085812D01*
X160004090Y-90095384D01*
X160051045Y-90109628D01*
X160096378Y-90128405D01*
X160139651Y-90151536D01*
X160180450Y-90178796D01*
X160218379Y-90209924D01*
X160253076Y-90244621D01*
X160284204Y-90282550D01*
X160311464Y-90323349D01*
X160334595Y-90366622D01*
X160353372Y-90411955D01*
X160367616Y-90458910D01*
X160377188Y-90507035D01*
X160381998Y-90555866D01*
X160381998Y-90580400D01*
X160382600Y-90580400D01*
X160382600Y-91080400D01*
X160381998Y-91080400D01*
X160381998Y-91104934D01*
X160377188Y-91153765D01*
X160367616Y-91201890D01*
X160353372Y-91248845D01*
X160334595Y-91294178D01*
X160311464Y-91337451D01*
X160284204Y-91378250D01*
X160253076Y-91416179D01*
X160218379Y-91450876D01*
X160180450Y-91482004D01*
X160139651Y-91509264D01*
X160096378Y-91532395D01*
X160051045Y-91551172D01*
X160004090Y-91565416D01*
X159955965Y-91574988D01*
X159907134Y-91579798D01*
X159882600Y-91579798D01*
X159882600Y-91580400D01*
X159382600Y-91580400D01*
X159382600Y-90080400D01*
X159382600Y-90080400D01*
G37*
D18*
G04 #@! TO.P,JP1,2*
G04 #@! TO.N,VCC*
X158582600Y-90830400D03*
D10*
G04 #@! TD*
G04 #@! TO.N,VCC*
G04 #@! TO.C,JP1*
G36*
X158582600Y-91579798D02*
X158558066Y-91579798D01*
X158509235Y-91574988D01*
X158461110Y-91565416D01*
X158414155Y-91551172D01*
X158368822Y-91532395D01*
X158325549Y-91509264D01*
X158284750Y-91482004D01*
X158246821Y-91450876D01*
X158212124Y-91416179D01*
X158180996Y-91378250D01*
X158153736Y-91337451D01*
X158130605Y-91294178D01*
X158111828Y-91248845D01*
X158097584Y-91201890D01*
X158088012Y-91153765D01*
X158083202Y-91104934D01*
X158083202Y-91080400D01*
X158082600Y-91080400D01*
X158082600Y-90580400D01*
X158083202Y-90580400D01*
X158083202Y-90555866D01*
X158088012Y-90507035D01*
X158097584Y-90458910D01*
X158111828Y-90411955D01*
X158130605Y-90366622D01*
X158153736Y-90323349D01*
X158180996Y-90282550D01*
X158212124Y-90244621D01*
X158246821Y-90209924D01*
X158284750Y-90178796D01*
X158325549Y-90151536D01*
X158368822Y-90128405D01*
X158414155Y-90109628D01*
X158461110Y-90095384D01*
X158509235Y-90085812D01*
X158558066Y-90081002D01*
X158582600Y-90081002D01*
X158582600Y-90080400D01*
X159082600Y-90080400D01*
X159082600Y-91580400D01*
X158582600Y-91580400D01*
X158582600Y-91579798D01*
X158582600Y-91579798D01*
G37*
D19*
G04 #@! TO.P,U2,2*
G04 #@! TO.N,VCC*
X149199200Y-90449400D03*
D20*
X155499200Y-90449400D03*
G04 #@! TO.P,U2,3*
G04 #@! TO.N,VBUS*
X155499200Y-92749400D03*
G04 #@! TO.P,U2,1*
G04 #@! TO.N,GND*
X155499200Y-88149400D03*
G04 #@! TD*
D21*
G04 #@! TO.N,GND*
X138493500Y-94551500D03*
D22*
X154330400Y-96532700D03*
X158699200Y-89204800D03*
X154317700Y-97383602D03*
X154343100Y-95669098D03*
X159499300Y-89192100D03*
D23*
X167182800Y-104140000D03*
X167182800Y-103174800D03*
X168097200Y-103174800D03*
X168097200Y-104127300D03*
X167170100Y-105054400D03*
X168097200Y-105041700D03*
X166255700Y-103174800D03*
X166243000Y-104114600D03*
X166230300Y-105054400D03*
X167617900Y-90401900D03*
X133400800Y-101574600D03*
X133515100Y-96469200D03*
X124790200Y-87528400D03*
X124853700Y-107975400D03*
X138480700Y-97984000D03*
D24*
X147472400Y-105752900D03*
X154571700Y-104114600D03*
D23*
G04 #@! TO.N,VCC*
X136931400Y-87909400D03*
X139573000Y-92710000D03*
X155130500Y-99453700D03*
X155105100Y-101727000D03*
X153746200Y-90449400D03*
X150888700Y-87922100D03*
G04 #@! TO.N,VBUS*
X160743900Y-89166700D03*
G04 #@! TO.N,VTG*
X133400800Y-98996500D03*
G04 #@! TO.N,Net-(F1-Pad2)*
X166077900Y-91922600D03*
G04 #@! TO.N,PC1*
X142303500Y-101981000D03*
D22*
G04 #@! TO.N,PD3*
X149072600Y-100533200D03*
G04 #@! TO.N,PD5*
X149364700Y-95707200D03*
G04 #@! TO.N,PD6*
X148412200Y-95948500D03*
G04 #@! TO.N,PE0*
X149085300Y-98971100D03*
G04 #@! TO.N,PE1*
X149098000Y-96558100D03*
G04 #@! TO.N,PE2*
X144005300Y-96634300D03*
G04 #@! TO.N,PE3*
X143979900Y-98945700D03*
D23*
G04 #@! TO.N,TXD*
X152463500Y-86525100D03*
D22*
X147497800Y-99720400D03*
D23*
G04 #@! TO.N,RXD*
X124155200Y-89319100D03*
D22*
X146456400Y-99847400D03*
D23*
G04 #@! TO.N,SLWCLK*
X135940800Y-91884500D03*
G04 #@! TO.N,RESET*
X129184400Y-92697300D03*
X131483100Y-94996000D03*
G04 #@! TO.N,SCK*
X140703300Y-94107000D03*
X122885200Y-99656900D03*
G04 #@! TO.N,MOSI*
X140741400Y-91655900D03*
G04 #@! TO.N,MISO*
X142671800Y-93497400D03*
X121259600Y-105562400D03*
G04 #@! TO.N,MISC*
X130759200Y-97739200D03*
X121805700Y-98120200D03*
G04 #@! TD*
D25*
G04 #@! TO.N,VCC*
X158201600Y-90449400D02*
X158582600Y-90830400D01*
X155499200Y-90449400D02*
X158201600Y-90449400D01*
X149097600Y-90551000D02*
X149199200Y-90449400D01*
X146555700Y-90551000D02*
X149097600Y-90551000D01*
X121003800Y-91400000D02*
X121043700Y-91439900D01*
X117738400Y-91400000D02*
X121003800Y-91400000D01*
D26*
X146555700Y-88618300D02*
X146555700Y-90551000D01*
X145376900Y-87439500D02*
X146555700Y-88618300D01*
X138087100Y-87439500D02*
X145376900Y-87439500D01*
X137617200Y-87909400D02*
X138087100Y-87439500D01*
X136931400Y-87909400D02*
X137617200Y-87909400D01*
X136931400Y-87909400D02*
X134607300Y-87909400D01*
X134607300Y-87909400D02*
X133350000Y-89166700D01*
X133350000Y-89166700D02*
X133350000Y-90893900D01*
X132804000Y-91439900D02*
X121043700Y-91439900D01*
X133350000Y-90893900D02*
X132804000Y-91439900D01*
X139573000Y-90551000D02*
X136931400Y-87909400D01*
X139573000Y-92710000D02*
X139573000Y-90551000D01*
X155130500Y-101701600D02*
X155130500Y-99453700D01*
X155105100Y-101727000D02*
X155130500Y-101701600D01*
X155499200Y-90449400D02*
X153746200Y-90449400D01*
D25*
G04 #@! TO.N,VBUS*
X156830600Y-92749400D02*
X158581900Y-94500700D01*
X155499200Y-92749400D02*
X156830600Y-92749400D01*
X158581900Y-94500700D02*
X158581900Y-93652800D01*
X159882600Y-92352100D02*
X159882600Y-90830400D01*
X158581900Y-93652800D02*
X159882600Y-92352100D01*
D26*
X159882600Y-90028000D02*
X160743900Y-89166700D01*
X159882600Y-90830400D02*
X159882600Y-90028000D01*
X158646100Y-94564900D02*
X158581900Y-94500700D01*
X158646100Y-97574100D02*
X158646100Y-94564900D01*
D25*
G04 #@! TO.N,VTG*
X120982200Y-104100000D02*
X121018300Y-104063900D01*
X117738400Y-104100000D02*
X120982200Y-104100000D01*
D26*
X128333400Y-104063900D02*
X121018300Y-104063900D01*
X133400800Y-98996500D02*
X128333400Y-104063900D01*
D25*
G04 #@! TO.N,Net-(F1-Pad2)*
X163499800Y-94500700D02*
X166077900Y-91922600D01*
X161381900Y-94500700D02*
X163499800Y-94500700D01*
D27*
G04 #@! TO.N,PC1*
X147300000Y-108250000D02*
X147300000Y-108234800D01*
X147300000Y-108250000D02*
X147300000Y-108006200D01*
X147300000Y-108006200D02*
X142303500Y-103009700D01*
X142303500Y-103009700D02*
X142303500Y-101981000D01*
G04 #@! TO.N,PD3*
X149821900Y-106108500D02*
X149821900Y-108231900D01*
X149491700Y-105778300D02*
X149821900Y-106108500D01*
X149491700Y-101041200D02*
X149491700Y-105778300D01*
X149072600Y-100622100D02*
X149491700Y-101041200D01*
X149821900Y-108231900D02*
X149840000Y-108250000D01*
X149072600Y-100533200D02*
X149072600Y-100622100D01*
G04 #@! TO.N,PD5*
X151587200Y-97929700D02*
X149364700Y-95707200D01*
X151587200Y-104825800D02*
X151587200Y-97929700D01*
X155128000Y-105918000D02*
X152679400Y-105918000D01*
X152679400Y-105918000D02*
X151587200Y-104825800D01*
X157460000Y-108250000D02*
X155128000Y-105918000D01*
G04 #@! TO.N,PD6*
X148412200Y-95732600D02*
X148412200Y-95948500D01*
X152196800Y-97180400D02*
X150126700Y-95110300D01*
X152196800Y-104330500D02*
X152196800Y-97180400D01*
X153111200Y-105244900D02*
X152196800Y-104330500D01*
X157022800Y-106591100D02*
X155676600Y-105244900D01*
X149034500Y-95110300D02*
X148412200Y-95732600D01*
X150126700Y-95110300D02*
X149034500Y-95110300D01*
X155676600Y-105244900D02*
X153111200Y-105244900D01*
X159194500Y-106591100D02*
X157022800Y-106591100D01*
X160000000Y-107396600D02*
X159194500Y-106591100D01*
X160000000Y-108250000D02*
X160000000Y-107396600D01*
G04 #@! TO.N,PE0*
X150202900Y-105524300D02*
X152380000Y-107701400D01*
X150202900Y-100088700D02*
X150202900Y-105524300D01*
X152380000Y-107701400D02*
X152380000Y-108250000D01*
X149085300Y-98971100D02*
X150202900Y-100088700D01*
G04 #@! TO.N,PE1*
X150939500Y-98399600D02*
X149098000Y-96558100D01*
X150939500Y-105206800D02*
X150939500Y-98399600D01*
X154076400Y-106591100D02*
X152323800Y-106591100D01*
X154920000Y-107434700D02*
X154076400Y-106591100D01*
X152323800Y-106591100D02*
X150939500Y-105206800D01*
X154920000Y-108250000D02*
X154920000Y-107434700D01*
G04 #@! TO.N,PE2*
X142220000Y-108250000D02*
X142220000Y-106456800D01*
X142220000Y-106456800D02*
X139687300Y-103924100D01*
X139687300Y-103924100D02*
X139687300Y-98818700D01*
X139687300Y-98818700D02*
X141871700Y-96634300D01*
X141871700Y-96634300D02*
X144005300Y-96634300D01*
G04 #@! TO.N,PE3*
X144760000Y-108250000D02*
X144760000Y-107803000D01*
X144760000Y-107803000D02*
X140538200Y-103581200D01*
X140538200Y-103581200D02*
X140538200Y-99910900D01*
X140538200Y-99910900D02*
X141503400Y-98945700D01*
X141503400Y-98945700D02*
X143979900Y-98945700D01*
G04 #@! TO.N,TXD*
X152742900Y-86804500D02*
X152463500Y-86525100D01*
X152082500Y-94640400D02*
X152742900Y-93980000D01*
X152742900Y-93980000D02*
X152742900Y-86804500D01*
X148691600Y-94640400D02*
X152082500Y-94640400D01*
X147497800Y-95834200D02*
X148691600Y-94640400D01*
X147497800Y-99720400D02*
X147497800Y-95834200D01*
G04 #@! TO.N,RXD*
X124180600Y-89319100D02*
X124155200Y-89319100D01*
X126746000Y-86753700D02*
X124180600Y-89319100D01*
X151587200Y-86753700D02*
X126746000Y-86753700D01*
X152120600Y-87287100D02*
X151587200Y-86753700D01*
X152120600Y-93738700D02*
X152120600Y-87287100D01*
X151828500Y-94030800D02*
X152120600Y-93738700D01*
X146456400Y-99847400D02*
X146456400Y-96075500D01*
X146456400Y-96075500D02*
X148501100Y-94030800D01*
X148501100Y-94030800D02*
X151828500Y-94030800D01*
G04 #@! TO.N,SLWCLK*
X128995800Y-96480000D02*
X117738400Y-96480000D01*
X132003800Y-95758000D02*
X129717800Y-95758000D01*
X135877300Y-91884500D02*
X132003800Y-95758000D01*
X129717800Y-95758000D02*
X128995800Y-96480000D01*
X135940800Y-91884500D02*
X135877300Y-91884500D01*
G04 #@! TO.N,RESET*
X129184400Y-92722700D02*
X129184400Y-92697300D01*
X131457700Y-94996000D02*
X129184400Y-92722700D01*
X131483100Y-94996000D02*
X131457700Y-94996000D01*
G04 #@! TO.N,SCK*
X140093700Y-93497400D02*
X140703300Y-94107000D01*
X138112500Y-93497400D02*
X140093700Y-93497400D01*
X134048500Y-97561400D02*
X138112500Y-93497400D01*
X132270500Y-97561400D02*
X134048500Y-97561400D01*
X131292600Y-98539300D02*
X132270500Y-97561400D01*
X124002800Y-98539300D02*
X131292600Y-98539300D01*
X122885200Y-99656900D02*
X124002800Y-98539300D01*
G04 #@! TO.N,MOSI*
X140741400Y-92875100D02*
X140741400Y-91655900D01*
X141744700Y-93878400D02*
X140741400Y-92875100D01*
X141744700Y-94488000D02*
X141744700Y-93878400D01*
X140728700Y-95504000D02*
X141744700Y-94488000D01*
X136969500Y-95504000D02*
X140728700Y-95504000D01*
X134289800Y-98183700D02*
X136969500Y-95504000D01*
X132727700Y-98183700D02*
X134289800Y-98183700D01*
X124612400Y-99161600D02*
X131749800Y-99161600D01*
X122986800Y-100787200D02*
X124612400Y-99161600D01*
X131749800Y-99161600D02*
X132727700Y-98183700D01*
X117738400Y-101560000D02*
X119115200Y-101560000D01*
X119888000Y-100787200D02*
X122986800Y-100787200D01*
X119115200Y-101560000D02*
X119888000Y-100787200D01*
G04 #@! TO.N,MISO*
X142671800Y-94627700D02*
X142671800Y-93497400D01*
X141097000Y-96202500D02*
X142671800Y-94627700D01*
X137452100Y-96202500D02*
X141097000Y-96202500D01*
X128816100Y-104838500D02*
X137452100Y-96202500D01*
X121259600Y-105562400D02*
X121602500Y-105562400D01*
X122326400Y-104838500D02*
X128816100Y-104838500D01*
X121602500Y-105562400D02*
X122326400Y-104838500D01*
G04 #@! TO.N,MISC*
X130606800Y-97891600D02*
X130759200Y-97739200D01*
X122034300Y-97891600D02*
X130606800Y-97891600D01*
X121805700Y-98120200D02*
X122034300Y-97891600D01*
G04 #@! TD*
D28*
G04 #@! TO.N,GND*
G36*
X169967001Y-86171357D02*
X169964180Y-86200000D01*
X169975436Y-86314288D01*
X170008773Y-86424184D01*
X170062908Y-86525464D01*
X170135763Y-86614237D01*
X170224536Y-86687092D01*
X170325816Y-86741227D01*
X170435712Y-86774564D01*
X170521367Y-86783000D01*
X170550000Y-86785820D01*
X170578633Y-86783000D01*
X173417000Y-86783000D01*
X173417001Y-108717000D01*
X170578633Y-108717000D01*
X170550000Y-108714180D01*
X170521367Y-108717000D01*
X170435712Y-108725436D01*
X170325816Y-108758773D01*
X170224536Y-108812908D01*
X170135763Y-108885763D01*
X170062908Y-108974536D01*
X170008773Y-109075816D01*
X169975436Y-109185712D01*
X169964180Y-109300000D01*
X169967000Y-109328633D01*
X169967001Y-109917000D01*
X119033000Y-109917000D01*
X119033000Y-109415634D01*
X119038706Y-109421340D01*
X119285694Y-109586373D01*
X119560132Y-109700049D01*
X119851475Y-109758000D01*
X120148525Y-109758000D01*
X120439868Y-109700049D01*
X120714306Y-109586373D01*
X120961294Y-109421340D01*
X121171340Y-109211294D01*
X121336373Y-108964306D01*
X121450049Y-108689868D01*
X121508000Y-108398525D01*
X121508000Y-108101475D01*
X121450049Y-107810132D01*
X121336373Y-107535694D01*
X121171340Y-107288706D01*
X120961294Y-107078660D01*
X120714306Y-106913627D01*
X120439868Y-106799951D01*
X120148525Y-106742000D01*
X119851475Y-106742000D01*
X119560132Y-106799951D01*
X119285694Y-106913627D01*
X119038706Y-107078660D01*
X119033000Y-107084366D01*
X119033000Y-107028632D01*
X119035820Y-107000000D01*
X119024564Y-106885712D01*
X118991227Y-106775816D01*
X118937092Y-106674536D01*
X118864237Y-106585763D01*
X118775464Y-106512908D01*
X118674184Y-106458773D01*
X118564288Y-106425436D01*
X118478633Y-106417000D01*
X118450000Y-106414180D01*
X118421367Y-106417000D01*
X115583000Y-106417000D01*
X115583000Y-99242250D01*
X115857400Y-99242250D01*
X115857400Y-99557525D01*
X115872042Y-99631134D01*
X115900762Y-99700471D01*
X115942458Y-99762874D01*
X115995527Y-99815942D01*
X116057929Y-99857638D01*
X116127267Y-99886358D01*
X116200875Y-99901000D01*
X117516150Y-99901000D01*
X117611400Y-99805750D01*
X117611400Y-99147000D01*
X117865400Y-99147000D01*
X117865400Y-99805750D01*
X117960650Y-99901000D01*
X119275925Y-99901000D01*
X119349533Y-99886358D01*
X119418871Y-99857638D01*
X119481273Y-99815942D01*
X119534342Y-99762874D01*
X119576038Y-99700471D01*
X119604758Y-99631134D01*
X119619400Y-99557525D01*
X119619400Y-99242250D01*
X119524150Y-99147000D01*
X117865400Y-99147000D01*
X117611400Y-99147000D01*
X115952650Y-99147000D01*
X115857400Y-99242250D01*
X115583000Y-99242250D01*
X115583000Y-98482475D01*
X115857400Y-98482475D01*
X115857400Y-98797750D01*
X115952650Y-98893000D01*
X117611400Y-98893000D01*
X117611400Y-98234250D01*
X117865400Y-98234250D01*
X117865400Y-98893000D01*
X119524150Y-98893000D01*
X119619400Y-98797750D01*
X119619400Y-98482475D01*
X119604758Y-98408866D01*
X119576038Y-98339529D01*
X119534342Y-98277126D01*
X119481273Y-98224058D01*
X119418871Y-98182362D01*
X119349533Y-98153642D01*
X119275925Y-98139000D01*
X117960650Y-98139000D01*
X117865400Y-98234250D01*
X117611400Y-98234250D01*
X117516150Y-98139000D01*
X116200875Y-98139000D01*
X116127267Y-98153642D01*
X116057929Y-98182362D01*
X115995527Y-98224058D01*
X115942458Y-98277126D01*
X115900762Y-98339529D01*
X115872042Y-98408866D01*
X115857400Y-98482475D01*
X115583000Y-98482475D01*
X115583000Y-94162250D01*
X115857400Y-94162250D01*
X115857400Y-94477525D01*
X115872042Y-94551134D01*
X115900762Y-94620471D01*
X115942458Y-94682874D01*
X115995527Y-94735942D01*
X116057929Y-94777638D01*
X116127267Y-94806358D01*
X116200875Y-94821000D01*
X117516150Y-94821000D01*
X117611400Y-94725750D01*
X117611400Y-94067000D01*
X117865400Y-94067000D01*
X117865400Y-94725750D01*
X117960650Y-94821000D01*
X119275925Y-94821000D01*
X119349533Y-94806358D01*
X119418871Y-94777638D01*
X119481273Y-94735942D01*
X119534342Y-94682874D01*
X119576038Y-94620471D01*
X119604758Y-94551134D01*
X119619400Y-94477525D01*
X119619400Y-94162250D01*
X119524150Y-94067000D01*
X117865400Y-94067000D01*
X117611400Y-94067000D01*
X115952650Y-94067000D01*
X115857400Y-94162250D01*
X115583000Y-94162250D01*
X115583000Y-93402475D01*
X115857400Y-93402475D01*
X115857400Y-93717750D01*
X115952650Y-93813000D01*
X117611400Y-93813000D01*
X117611400Y-93154250D01*
X117865400Y-93154250D01*
X117865400Y-93813000D01*
X119524150Y-93813000D01*
X119619400Y-93717750D01*
X119619400Y-93402475D01*
X119604758Y-93328866D01*
X119576038Y-93259529D01*
X119561085Y-93237150D01*
X120187700Y-93237150D01*
X120187700Y-93489925D01*
X120202342Y-93563533D01*
X120231062Y-93632871D01*
X120272758Y-93695273D01*
X120325826Y-93748342D01*
X120388229Y-93790038D01*
X120457566Y-93818758D01*
X120531175Y-93833400D01*
X120821450Y-93833400D01*
X120916700Y-93738150D01*
X120916700Y-93141900D01*
X121170700Y-93141900D01*
X121170700Y-93738150D01*
X121265950Y-93833400D01*
X121556225Y-93833400D01*
X121629834Y-93818758D01*
X121699171Y-93790038D01*
X121761574Y-93748342D01*
X121814642Y-93695273D01*
X121856338Y-93632871D01*
X121885058Y-93563533D01*
X121899700Y-93489925D01*
X121899700Y-93237150D01*
X121804450Y-93141900D01*
X121170700Y-93141900D01*
X120916700Y-93141900D01*
X120282950Y-93141900D01*
X120187700Y-93237150D01*
X119561085Y-93237150D01*
X119534342Y-93197126D01*
X119481273Y-93144058D01*
X119418871Y-93102362D01*
X119349533Y-93073642D01*
X119275925Y-93059000D01*
X117960650Y-93059000D01*
X117865400Y-93154250D01*
X117611400Y-93154250D01*
X117516150Y-93059000D01*
X116200875Y-93059000D01*
X116127267Y-93073642D01*
X116057929Y-93102362D01*
X115995527Y-93144058D01*
X115942458Y-93197126D01*
X115900762Y-93259529D01*
X115872042Y-93328866D01*
X115857400Y-93402475D01*
X115583000Y-93402475D01*
X115583000Y-90900000D01*
X115727943Y-90900000D01*
X115727943Y-91900000D01*
X115737751Y-91999585D01*
X115766799Y-92095343D01*
X115813971Y-92183595D01*
X115877452Y-92260948D01*
X115954805Y-92324429D01*
X116043057Y-92371601D01*
X116138815Y-92400649D01*
X116238400Y-92410457D01*
X119238400Y-92410457D01*
X119337985Y-92400649D01*
X119433743Y-92371601D01*
X119521995Y-92324429D01*
X119599348Y-92260948D01*
X119638861Y-92212800D01*
X120318763Y-92212800D01*
X120368048Y-92253247D01*
X120325826Y-92281458D01*
X120272758Y-92334527D01*
X120231062Y-92396929D01*
X120202342Y-92466267D01*
X120187700Y-92539875D01*
X120187700Y-92792650D01*
X120282950Y-92887900D01*
X120916700Y-92887900D01*
X120916700Y-92867900D01*
X121170700Y-92867900D01*
X121170700Y-92887900D01*
X121804450Y-92887900D01*
X121899700Y-92792650D01*
X121899700Y-92539875D01*
X121885058Y-92466267D01*
X121856338Y-92396929D01*
X121814642Y-92334527D01*
X121761574Y-92281458D01*
X121719352Y-92253247D01*
X121812868Y-92176500D01*
X128432648Y-92176500D01*
X128374070Y-92264169D01*
X128305140Y-92430579D01*
X128270000Y-92607239D01*
X128270000Y-92787361D01*
X128305140Y-92964021D01*
X128374070Y-93130431D01*
X128474139Y-93280196D01*
X128601504Y-93407561D01*
X128751269Y-93507630D01*
X128917679Y-93576560D01*
X129094339Y-93611700D01*
X129139454Y-93611700D01*
X130568700Y-95040947D01*
X130568700Y-95086061D01*
X130570995Y-95097600D01*
X129750238Y-95097600D01*
X129717799Y-95094405D01*
X129650008Y-95101082D01*
X129588339Y-95107156D01*
X129463853Y-95144918D01*
X129349126Y-95206241D01*
X129248567Y-95288767D01*
X129227888Y-95313965D01*
X128722254Y-95819600D01*
X119720601Y-95819600D01*
X119710001Y-95784657D01*
X119662829Y-95696405D01*
X119599348Y-95619052D01*
X119521995Y-95555571D01*
X119433743Y-95508399D01*
X119337985Y-95479351D01*
X119238400Y-95469543D01*
X116238400Y-95469543D01*
X116138815Y-95479351D01*
X116043057Y-95508399D01*
X115954805Y-95555571D01*
X115877452Y-95619052D01*
X115813971Y-95696405D01*
X115766799Y-95784657D01*
X115737751Y-95880415D01*
X115727943Y-95980000D01*
X115727943Y-96980000D01*
X115737751Y-97079585D01*
X115766799Y-97175343D01*
X115813971Y-97263595D01*
X115877452Y-97340948D01*
X115954805Y-97404429D01*
X116043057Y-97451601D01*
X116138815Y-97480649D01*
X116238400Y-97490457D01*
X119238400Y-97490457D01*
X119337985Y-97480649D01*
X119433743Y-97451601D01*
X119521995Y-97404429D01*
X119599348Y-97340948D01*
X119662829Y-97263595D01*
X119710001Y-97175343D01*
X119720601Y-97140400D01*
X128963361Y-97140400D01*
X128995800Y-97143595D01*
X129028239Y-97140400D01*
X129125261Y-97130844D01*
X129249747Y-97093082D01*
X129364474Y-97031759D01*
X129465033Y-96949233D01*
X129485718Y-96924028D01*
X129991347Y-96418400D01*
X131971361Y-96418400D01*
X132003800Y-96421595D01*
X132036239Y-96418400D01*
X132133261Y-96408844D01*
X132257747Y-96371082D01*
X132372474Y-96309759D01*
X132473033Y-96227233D01*
X132493718Y-96202028D01*
X135896846Y-92798900D01*
X136030861Y-92798900D01*
X136207521Y-92763760D01*
X136373931Y-92694830D01*
X136523696Y-92594761D01*
X136651061Y-92467396D01*
X136751130Y-92317631D01*
X136820060Y-92151221D01*
X136855200Y-91974561D01*
X136855200Y-91794439D01*
X136820060Y-91617779D01*
X136751130Y-91451369D01*
X136651061Y-91301604D01*
X136523696Y-91174239D01*
X136373931Y-91074170D01*
X136207521Y-91005240D01*
X136030861Y-90970100D01*
X135850739Y-90970100D01*
X135674079Y-91005240D01*
X135507669Y-91074170D01*
X135357904Y-91174239D01*
X135230539Y-91301604D01*
X135130470Y-91451369D01*
X135061540Y-91617779D01*
X135026400Y-91794439D01*
X135026400Y-91801454D01*
X132282037Y-94545817D01*
X132193361Y-94413104D01*
X132065996Y-94285739D01*
X131916231Y-94185670D01*
X131749821Y-94116740D01*
X131573161Y-94081600D01*
X131477247Y-94081600D01*
X130098800Y-92703154D01*
X130098800Y-92607239D01*
X130063660Y-92430579D01*
X129994730Y-92264169D01*
X129936152Y-92176500D01*
X132767817Y-92176500D01*
X132804000Y-92180064D01*
X132840183Y-92176500D01*
X132840186Y-92176500D01*
X132948399Y-92165842D01*
X133087249Y-92123722D01*
X133215213Y-92055324D01*
X133327375Y-91963275D01*
X133350445Y-91935164D01*
X133845268Y-91440341D01*
X133873375Y-91417275D01*
X133942750Y-91332742D01*
X133965424Y-91305113D01*
X133988361Y-91262200D01*
X134033822Y-91177149D01*
X134075942Y-91038299D01*
X134086600Y-90930086D01*
X134090164Y-90893900D01*
X134086600Y-90857714D01*
X134086600Y-89471809D01*
X134912410Y-88646000D01*
X136387923Y-88646000D01*
X136498269Y-88719730D01*
X136664679Y-88788660D01*
X136794842Y-88814551D01*
X138836401Y-90856111D01*
X138836400Y-92166523D01*
X138762670Y-92276869D01*
X138693740Y-92443279D01*
X138658600Y-92619939D01*
X138658600Y-92800061D01*
X138665948Y-92837000D01*
X138144939Y-92837000D01*
X138112500Y-92833805D01*
X138080061Y-92837000D01*
X137983039Y-92846556D01*
X137858553Y-92884318D01*
X137743826Y-92945641D01*
X137643267Y-93028167D01*
X137622586Y-93053367D01*
X133774954Y-96901000D01*
X132302938Y-96901000D01*
X132270499Y-96897805D01*
X132141039Y-96910556D01*
X132016553Y-96948318D01*
X131901826Y-97009641D01*
X131801267Y-97092167D01*
X131780582Y-97117372D01*
X131576078Y-97321876D01*
X131569530Y-97306069D01*
X131469461Y-97156304D01*
X131342096Y-97028939D01*
X131192331Y-96928870D01*
X131025921Y-96859940D01*
X130849261Y-96824800D01*
X130669139Y-96824800D01*
X130492479Y-96859940D01*
X130326069Y-96928870D01*
X130176304Y-97028939D01*
X130048939Y-97156304D01*
X129998895Y-97231200D01*
X122066738Y-97231200D01*
X122034299Y-97228005D01*
X122016303Y-97229777D01*
X121895761Y-97205800D01*
X121715639Y-97205800D01*
X121538979Y-97240940D01*
X121372569Y-97309870D01*
X121222804Y-97409939D01*
X121095439Y-97537304D01*
X120995370Y-97687069D01*
X120926440Y-97853479D01*
X120891300Y-98030139D01*
X120891300Y-98210261D01*
X120926440Y-98386921D01*
X120995370Y-98553331D01*
X121095439Y-98703096D01*
X121222804Y-98830461D01*
X121372569Y-98930530D01*
X121538979Y-98999460D01*
X121715639Y-99034600D01*
X121895761Y-99034600D01*
X122072421Y-98999460D01*
X122238831Y-98930530D01*
X122388596Y-98830461D01*
X122515961Y-98703096D01*
X122616030Y-98553331D01*
X122616581Y-98552000D01*
X123056153Y-98552000D01*
X122865654Y-98742500D01*
X122795139Y-98742500D01*
X122618479Y-98777640D01*
X122452069Y-98846570D01*
X122302304Y-98946639D01*
X122174939Y-99074004D01*
X122074870Y-99223769D01*
X122005940Y-99390179D01*
X121970800Y-99566839D01*
X121970800Y-99746961D01*
X122005940Y-99923621D01*
X122074870Y-100090031D01*
X122099438Y-100126800D01*
X119920438Y-100126800D01*
X119887999Y-100123605D01*
X119758539Y-100136356D01*
X119634053Y-100174118D01*
X119519326Y-100235441D01*
X119418767Y-100317967D01*
X119398082Y-100343172D01*
X119191711Y-100549543D01*
X116238400Y-100549543D01*
X116138815Y-100559351D01*
X116043057Y-100588399D01*
X115954805Y-100635571D01*
X115877452Y-100699052D01*
X115813971Y-100776405D01*
X115766799Y-100864657D01*
X115737751Y-100960415D01*
X115727943Y-101060000D01*
X115727943Y-102060000D01*
X115737751Y-102159585D01*
X115766799Y-102255343D01*
X115813971Y-102343595D01*
X115877452Y-102420948D01*
X115954805Y-102484429D01*
X116043057Y-102531601D01*
X116138815Y-102560649D01*
X116238400Y-102570457D01*
X119238400Y-102570457D01*
X119337985Y-102560649D01*
X119433743Y-102531601D01*
X119521995Y-102484429D01*
X119599348Y-102420948D01*
X119662829Y-102343595D01*
X119710001Y-102255343D01*
X119739049Y-102159585D01*
X119748857Y-102060000D01*
X119748857Y-102013875D01*
X120162300Y-102013875D01*
X120162300Y-102266650D01*
X120257550Y-102361900D01*
X120891300Y-102361900D01*
X120891300Y-101765650D01*
X121145300Y-101765650D01*
X121145300Y-102361900D01*
X121779050Y-102361900D01*
X121874300Y-102266650D01*
X121874300Y-102013875D01*
X121859658Y-101940267D01*
X121830938Y-101870929D01*
X121789242Y-101808527D01*
X121736174Y-101755458D01*
X121673771Y-101713762D01*
X121604434Y-101685042D01*
X121530825Y-101670400D01*
X121240550Y-101670400D01*
X121145300Y-101765650D01*
X120891300Y-101765650D01*
X120796050Y-101670400D01*
X120505775Y-101670400D01*
X120432166Y-101685042D01*
X120362829Y-101713762D01*
X120300426Y-101755458D01*
X120247358Y-101808527D01*
X120205662Y-101870929D01*
X120176942Y-101940267D01*
X120162300Y-102013875D01*
X119748857Y-102013875D01*
X119748857Y-101860289D01*
X120161546Y-101447600D01*
X122954361Y-101447600D01*
X122986800Y-101450795D01*
X123019239Y-101447600D01*
X123116261Y-101438044D01*
X123240747Y-101400282D01*
X123355474Y-101338959D01*
X123456033Y-101256433D01*
X123476718Y-101231228D01*
X124885947Y-99822000D01*
X131533590Y-99822000D01*
X128028291Y-103327300D01*
X121787468Y-103327300D01*
X121693952Y-103250553D01*
X121736174Y-103222342D01*
X121789242Y-103169273D01*
X121830938Y-103106871D01*
X121859658Y-103037533D01*
X121874300Y-102963925D01*
X121874300Y-102711150D01*
X121779050Y-102615900D01*
X121145300Y-102615900D01*
X121145300Y-102635900D01*
X120891300Y-102635900D01*
X120891300Y-102615900D01*
X120257550Y-102615900D01*
X120162300Y-102711150D01*
X120162300Y-102963925D01*
X120176942Y-103037533D01*
X120205662Y-103106871D01*
X120247358Y-103169273D01*
X120300426Y-103222342D01*
X120342648Y-103250553D01*
X120297994Y-103287200D01*
X119638861Y-103287200D01*
X119599348Y-103239052D01*
X119521995Y-103175571D01*
X119433743Y-103128399D01*
X119337985Y-103099351D01*
X119238400Y-103089543D01*
X116238400Y-103089543D01*
X116138815Y-103099351D01*
X116043057Y-103128399D01*
X115954805Y-103175571D01*
X115877452Y-103239052D01*
X115813971Y-103316405D01*
X115766799Y-103404657D01*
X115737751Y-103500415D01*
X115727943Y-103600000D01*
X115727943Y-104600000D01*
X115737751Y-104699585D01*
X115766799Y-104795343D01*
X115813971Y-104883595D01*
X115877452Y-104960948D01*
X115954805Y-105024429D01*
X116043057Y-105071601D01*
X116138815Y-105100649D01*
X116238400Y-105110457D01*
X119238400Y-105110457D01*
X119337985Y-105100649D01*
X119433743Y-105071601D01*
X119521995Y-105024429D01*
X119599348Y-104960948D01*
X119638861Y-104912800D01*
X120401520Y-104912800D01*
X120482995Y-104956349D01*
X120551664Y-104977179D01*
X120549339Y-104979504D01*
X120449270Y-105129269D01*
X120380340Y-105295679D01*
X120345200Y-105472339D01*
X120345200Y-105652461D01*
X120380340Y-105829121D01*
X120449270Y-105995531D01*
X120549339Y-106145296D01*
X120676704Y-106272661D01*
X120826469Y-106372730D01*
X120992879Y-106441660D01*
X121169539Y-106476800D01*
X121349661Y-106476800D01*
X121526321Y-106441660D01*
X121692731Y-106372730D01*
X121842496Y-106272661D01*
X121969861Y-106145296D01*
X122014331Y-106078741D01*
X122071733Y-106031633D01*
X122092418Y-106006428D01*
X122599947Y-105498900D01*
X128783661Y-105498900D01*
X128816100Y-105502095D01*
X128848539Y-105498900D01*
X128945561Y-105489344D01*
X129070047Y-105451582D01*
X129184774Y-105390259D01*
X129285333Y-105307733D01*
X129306018Y-105282528D01*
X137725646Y-96862900D01*
X140709153Y-96862900D01*
X139243268Y-98328786D01*
X139218068Y-98349467D01*
X139135542Y-98450026D01*
X139118885Y-98481189D01*
X139074218Y-98564754D01*
X139036456Y-98689240D01*
X139023705Y-98818700D01*
X139026901Y-98851149D01*
X139026900Y-103891661D01*
X139023705Y-103924100D01*
X139026900Y-103956538D01*
X139036456Y-104053560D01*
X139074218Y-104178046D01*
X139135541Y-104292773D01*
X139218067Y-104393333D01*
X139243272Y-104414018D01*
X141559601Y-106730348D01*
X141559601Y-107063172D01*
X141461886Y-107115402D01*
X141255103Y-107285103D01*
X141085402Y-107491886D01*
X140959302Y-107727802D01*
X140881650Y-107983786D01*
X140855430Y-108250000D01*
X140881650Y-108516214D01*
X140959302Y-108772198D01*
X141085402Y-109008114D01*
X141255103Y-109214897D01*
X141461886Y-109384598D01*
X141697802Y-109510698D01*
X141953786Y-109588350D01*
X142153294Y-109608000D01*
X142286706Y-109608000D01*
X142486214Y-109588350D01*
X142742198Y-109510698D01*
X142978114Y-109384598D01*
X143184897Y-109214897D01*
X143354598Y-109008114D01*
X143480698Y-108772198D01*
X143490000Y-108741533D01*
X143499302Y-108772198D01*
X143625402Y-109008114D01*
X143795103Y-109214897D01*
X144001886Y-109384598D01*
X144237802Y-109510698D01*
X144493786Y-109588350D01*
X144693294Y-109608000D01*
X144826706Y-109608000D01*
X145026214Y-109588350D01*
X145282198Y-109510698D01*
X145518114Y-109384598D01*
X145724897Y-109214897D01*
X145894598Y-109008114D01*
X146020698Y-108772198D01*
X146030000Y-108741533D01*
X146039302Y-108772198D01*
X146165402Y-109008114D01*
X146335103Y-109214897D01*
X146541886Y-109384598D01*
X146777802Y-109510698D01*
X147033786Y-109588350D01*
X147233294Y-109608000D01*
X147366706Y-109608000D01*
X147566214Y-109588350D01*
X147822198Y-109510698D01*
X148058114Y-109384598D01*
X148264897Y-109214897D01*
X148434598Y-109008114D01*
X148560698Y-108772198D01*
X148570000Y-108741533D01*
X148579302Y-108772198D01*
X148705402Y-109008114D01*
X148875103Y-109214897D01*
X149081886Y-109384598D01*
X149317802Y-109510698D01*
X149573786Y-109588350D01*
X149773294Y-109608000D01*
X149906706Y-109608000D01*
X150106214Y-109588350D01*
X150362198Y-109510698D01*
X150598114Y-109384598D01*
X150804897Y-109214897D01*
X150974598Y-109008114D01*
X151100698Y-108772198D01*
X151110000Y-108741533D01*
X151119302Y-108772198D01*
X151245402Y-109008114D01*
X151415103Y-109214897D01*
X151621886Y-109384598D01*
X151857802Y-109510698D01*
X152113786Y-109588350D01*
X152313294Y-109608000D01*
X152446706Y-109608000D01*
X152646214Y-109588350D01*
X152902198Y-109510698D01*
X153138114Y-109384598D01*
X153344897Y-109214897D01*
X153514598Y-109008114D01*
X153640698Y-108772198D01*
X153650000Y-108741533D01*
X153659302Y-108772198D01*
X153785402Y-109008114D01*
X153955103Y-109214897D01*
X154161886Y-109384598D01*
X154397802Y-109510698D01*
X154653786Y-109588350D01*
X154853294Y-109608000D01*
X154986706Y-109608000D01*
X155186214Y-109588350D01*
X155442198Y-109510698D01*
X155678114Y-109384598D01*
X155884897Y-109214897D01*
X156054598Y-109008114D01*
X156180698Y-108772198D01*
X156190000Y-108741533D01*
X156199302Y-108772198D01*
X156325402Y-109008114D01*
X156495103Y-109214897D01*
X156701886Y-109384598D01*
X156937802Y-109510698D01*
X157193786Y-109588350D01*
X157393294Y-109608000D01*
X157526706Y-109608000D01*
X157726214Y-109588350D01*
X157982198Y-109510698D01*
X158218114Y-109384598D01*
X158424897Y-109214897D01*
X158594598Y-109008114D01*
X158639543Y-108924028D01*
X158639543Y-109100000D01*
X158649351Y-109199585D01*
X158678399Y-109295343D01*
X158725571Y-109383595D01*
X158789052Y-109460948D01*
X158866405Y-109524429D01*
X158954657Y-109571601D01*
X159050415Y-109600649D01*
X159150000Y-109610457D01*
X160850000Y-109610457D01*
X160949585Y-109600649D01*
X161045343Y-109571601D01*
X161133595Y-109524429D01*
X161210948Y-109460948D01*
X161274429Y-109383595D01*
X161321601Y-109295343D01*
X161350649Y-109199585D01*
X161360457Y-109100000D01*
X161360457Y-108101475D01*
X166492000Y-108101475D01*
X166492000Y-108398525D01*
X166549951Y-108689868D01*
X166663627Y-108964306D01*
X166828660Y-109211294D01*
X167038706Y-109421340D01*
X167285694Y-109586373D01*
X167560132Y-109700049D01*
X167851475Y-109758000D01*
X168148525Y-109758000D01*
X168439868Y-109700049D01*
X168714306Y-109586373D01*
X168961294Y-109421340D01*
X169171340Y-109211294D01*
X169336373Y-108964306D01*
X169450049Y-108689868D01*
X169508000Y-108398525D01*
X169508000Y-108101475D01*
X169450049Y-107810132D01*
X169336373Y-107535694D01*
X169171340Y-107288706D01*
X168961294Y-107078660D01*
X168714306Y-106913627D01*
X168439868Y-106799951D01*
X168148525Y-106742000D01*
X167851475Y-106742000D01*
X167560132Y-106799951D01*
X167285694Y-106913627D01*
X167038706Y-107078660D01*
X166828660Y-107288706D01*
X166663627Y-107535694D01*
X166549951Y-107810132D01*
X166492000Y-108101475D01*
X161360457Y-108101475D01*
X161360457Y-107400000D01*
X161350649Y-107300415D01*
X161321601Y-107204657D01*
X161274429Y-107116405D01*
X161210948Y-107039052D01*
X161133595Y-106975571D01*
X161045343Y-106928399D01*
X160949585Y-106899351D01*
X160850000Y-106889543D01*
X160426890Y-106889543D01*
X159684418Y-106147072D01*
X159663733Y-106121867D01*
X159563174Y-106039341D01*
X159448447Y-105978018D01*
X159323961Y-105940256D01*
X159226939Y-105930700D01*
X159194500Y-105927505D01*
X159162061Y-105930700D01*
X157296346Y-105930700D01*
X156166518Y-104800872D01*
X156145833Y-104775667D01*
X156045274Y-104693141D01*
X155930547Y-104631818D01*
X155806061Y-104594056D01*
X155709039Y-104584500D01*
X155676600Y-104581305D01*
X155644161Y-104584500D01*
X153384747Y-104584500D01*
X152857200Y-104056954D01*
X152857200Y-103450000D01*
X168686546Y-103450000D01*
X168714697Y-103735818D01*
X168798067Y-104010652D01*
X168933452Y-104263940D01*
X169115650Y-104485950D01*
X169337660Y-104668148D01*
X169590948Y-104803533D01*
X169865782Y-104886903D01*
X170079981Y-104908000D01*
X171823219Y-104908000D01*
X172037418Y-104886903D01*
X172312252Y-104803533D01*
X172565540Y-104668148D01*
X172787550Y-104485950D01*
X172969748Y-104263940D01*
X173105133Y-104010652D01*
X173188503Y-103735818D01*
X173216654Y-103450000D01*
X173188503Y-103164182D01*
X173105133Y-102889348D01*
X172969748Y-102636060D01*
X172787550Y-102414050D01*
X172565540Y-102231852D01*
X172312252Y-102096467D01*
X172037418Y-102013097D01*
X171823219Y-101992000D01*
X170079981Y-101992000D01*
X169865782Y-102013097D01*
X169590948Y-102096467D01*
X169337660Y-102231852D01*
X169115650Y-102414050D01*
X168933452Y-102636060D01*
X168798067Y-102889348D01*
X168714697Y-103164182D01*
X168686546Y-103450000D01*
X152857200Y-103450000D01*
X152857200Y-101636939D01*
X154190700Y-101636939D01*
X154190700Y-101817061D01*
X154225840Y-101993721D01*
X154294770Y-102160131D01*
X154394839Y-102309896D01*
X154522204Y-102437261D01*
X154671969Y-102537330D01*
X154838379Y-102606260D01*
X155015039Y-102641400D01*
X155195161Y-102641400D01*
X155371821Y-102606260D01*
X155538231Y-102537330D01*
X155687996Y-102437261D01*
X155815361Y-102309896D01*
X155915430Y-102160131D01*
X155984360Y-101993721D01*
X156019500Y-101817061D01*
X156019500Y-101636939D01*
X155984360Y-101460279D01*
X155915430Y-101293869D01*
X155867100Y-101221537D01*
X155867100Y-99997177D01*
X155901431Y-99945796D01*
X169893600Y-99945796D01*
X169893600Y-100154204D01*
X169934259Y-100358607D01*
X170014013Y-100551151D01*
X170129798Y-100724436D01*
X170277164Y-100871802D01*
X170450449Y-100987587D01*
X170642993Y-101067341D01*
X170847396Y-101108000D01*
X171055804Y-101108000D01*
X171260207Y-101067341D01*
X171452751Y-100987587D01*
X171626036Y-100871802D01*
X171773402Y-100724436D01*
X171889187Y-100551151D01*
X171968941Y-100358607D01*
X172009600Y-100154204D01*
X172009600Y-99945796D01*
X171968941Y-99741393D01*
X171889187Y-99548849D01*
X171773402Y-99375564D01*
X171626036Y-99228198D01*
X171452751Y-99112413D01*
X171260207Y-99032659D01*
X171055804Y-98992000D01*
X170847396Y-98992000D01*
X170642993Y-99032659D01*
X170450449Y-99112413D01*
X170277164Y-99228198D01*
X170129798Y-99375564D01*
X170014013Y-99548849D01*
X169934259Y-99741393D01*
X169893600Y-99945796D01*
X155901431Y-99945796D01*
X155940830Y-99886831D01*
X156009760Y-99720421D01*
X156044900Y-99543761D01*
X156044900Y-99363639D01*
X156009760Y-99186979D01*
X155940830Y-99020569D01*
X155840761Y-98870804D01*
X155713396Y-98743439D01*
X155563631Y-98643370D01*
X155397221Y-98574440D01*
X155220561Y-98539300D01*
X155040439Y-98539300D01*
X154863779Y-98574440D01*
X154697369Y-98643370D01*
X154547604Y-98743439D01*
X154420239Y-98870804D01*
X154320170Y-99020569D01*
X154251240Y-99186979D01*
X154216100Y-99363639D01*
X154216100Y-99543761D01*
X154251240Y-99720421D01*
X154320170Y-99886831D01*
X154393901Y-99997178D01*
X154393900Y-101145509D01*
X154294770Y-101293869D01*
X154225840Y-101460279D01*
X154190700Y-101636939D01*
X152857200Y-101636939D01*
X152857200Y-97796350D01*
X155902600Y-97796350D01*
X155902600Y-98311625D01*
X155917242Y-98385234D01*
X155945962Y-98454571D01*
X155987658Y-98516974D01*
X156040727Y-98570042D01*
X156103129Y-98611738D01*
X156172467Y-98640458D01*
X156246075Y-98655100D01*
X156548850Y-98655100D01*
X156644100Y-98559850D01*
X156644100Y-97701100D01*
X156898100Y-97701100D01*
X156898100Y-98559850D01*
X156993350Y-98655100D01*
X157296125Y-98655100D01*
X157369733Y-98640458D01*
X157439071Y-98611738D01*
X157501473Y-98570042D01*
X157554542Y-98516974D01*
X157596238Y-98454571D01*
X157624958Y-98385234D01*
X157639600Y-98311625D01*
X157639600Y-97796350D01*
X157544350Y-97701100D01*
X156898100Y-97701100D01*
X156644100Y-97701100D01*
X155997850Y-97701100D01*
X155902600Y-97796350D01*
X152857200Y-97796350D01*
X152857200Y-97212838D01*
X152860395Y-97180399D01*
X152847644Y-97050939D01*
X152841826Y-97031759D01*
X152809882Y-96926453D01*
X152761842Y-96836575D01*
X155902600Y-96836575D01*
X155902600Y-97351850D01*
X155997850Y-97447100D01*
X156644100Y-97447100D01*
X156644100Y-96588350D01*
X156898100Y-96588350D01*
X156898100Y-97447100D01*
X157544350Y-97447100D01*
X157639600Y-97351850D01*
X157639600Y-96836575D01*
X157624958Y-96762966D01*
X157596238Y-96693629D01*
X157554542Y-96631226D01*
X157501473Y-96578158D01*
X157439071Y-96536462D01*
X157369733Y-96507742D01*
X157296125Y-96493100D01*
X156993350Y-96493100D01*
X156898100Y-96588350D01*
X156644100Y-96588350D01*
X156548850Y-96493100D01*
X156246075Y-96493100D01*
X156172467Y-96507742D01*
X156103129Y-96536462D01*
X156040727Y-96578158D01*
X155987658Y-96631226D01*
X155945962Y-96693629D01*
X155917242Y-96762966D01*
X155902600Y-96836575D01*
X152761842Y-96836575D01*
X152748559Y-96811726D01*
X152666033Y-96711167D01*
X152640828Y-96690482D01*
X151251146Y-95300800D01*
X152050061Y-95300800D01*
X152082500Y-95303995D01*
X152114939Y-95300800D01*
X152211961Y-95291244D01*
X152336447Y-95253482D01*
X152451174Y-95192159D01*
X152551733Y-95109633D01*
X152572418Y-95084428D01*
X153186934Y-94469913D01*
X153212133Y-94449233D01*
X153294659Y-94348674D01*
X153355982Y-94233947D01*
X153393744Y-94109461D01*
X153403300Y-94012439D01*
X153403300Y-94012438D01*
X153406495Y-93980000D01*
X153403300Y-93947561D01*
X153403300Y-91297105D01*
X153479479Y-91328660D01*
X153656139Y-91363800D01*
X153836261Y-91363800D01*
X154007858Y-91329667D01*
X154027599Y-91394743D01*
X154074771Y-91482995D01*
X154138252Y-91560348D01*
X154185838Y-91599400D01*
X154138252Y-91638452D01*
X154074771Y-91715805D01*
X154027599Y-91804057D01*
X153998551Y-91899815D01*
X153988743Y-91999400D01*
X153988743Y-93499400D01*
X153998551Y-93598985D01*
X154027599Y-93694743D01*
X154074771Y-93782995D01*
X154138252Y-93860348D01*
X154215605Y-93923829D01*
X154303857Y-93971001D01*
X154399615Y-94000049D01*
X154499200Y-94009857D01*
X156499200Y-94009857D01*
X156598785Y-94000049D01*
X156694543Y-93971001D01*
X156782795Y-93923829D01*
X156822759Y-93891032D01*
X157446443Y-94514716D01*
X157446443Y-95125700D01*
X157461055Y-95274058D01*
X157504329Y-95416714D01*
X157574603Y-95548187D01*
X157669176Y-95663424D01*
X157784413Y-95757997D01*
X157909501Y-95824858D01*
X157909500Y-96551344D01*
X157869045Y-96584545D01*
X157775250Y-96698835D01*
X157705554Y-96829227D01*
X157662635Y-96970712D01*
X157648143Y-97117850D01*
X157648143Y-98030350D01*
X157662635Y-98177488D01*
X157705554Y-98318973D01*
X157775250Y-98449365D01*
X157869045Y-98563655D01*
X157983335Y-98657450D01*
X158113727Y-98727146D01*
X158255212Y-98770065D01*
X158402350Y-98784557D01*
X158889850Y-98784557D01*
X159036988Y-98770065D01*
X159178473Y-98727146D01*
X159308865Y-98657450D01*
X159423155Y-98563655D01*
X159516950Y-98449365D01*
X159586646Y-98318973D01*
X159629565Y-98177488D01*
X159644057Y-98030350D01*
X159644057Y-97117850D01*
X159629565Y-96970712D01*
X159586646Y-96829227D01*
X159516950Y-96698835D01*
X159423155Y-96584545D01*
X159382700Y-96551345D01*
X159382700Y-95755278D01*
X159494624Y-95663424D01*
X159589197Y-95548187D01*
X159659471Y-95416714D01*
X159702745Y-95274058D01*
X159717357Y-95125700D01*
X159717357Y-93875700D01*
X160246443Y-93875700D01*
X160246443Y-95125700D01*
X160261055Y-95274058D01*
X160304329Y-95416714D01*
X160374603Y-95548187D01*
X160469176Y-95663424D01*
X160584413Y-95757997D01*
X160715886Y-95828271D01*
X160858542Y-95871545D01*
X161006900Y-95886157D01*
X161756900Y-95886157D01*
X161905258Y-95871545D01*
X162047914Y-95828271D01*
X162179387Y-95757997D01*
X162294624Y-95663424D01*
X162389197Y-95548187D01*
X162459471Y-95416714D01*
X162480983Y-95345796D01*
X169893600Y-95345796D01*
X169893600Y-95554204D01*
X169934259Y-95758607D01*
X170014013Y-95951151D01*
X170129798Y-96124436D01*
X170277164Y-96271802D01*
X170450449Y-96387587D01*
X170642993Y-96467341D01*
X170847396Y-96508000D01*
X171055804Y-96508000D01*
X171260207Y-96467341D01*
X171452751Y-96387587D01*
X171626036Y-96271802D01*
X171773402Y-96124436D01*
X171889187Y-95951151D01*
X171968941Y-95758607D01*
X172009600Y-95554204D01*
X172009600Y-95345796D01*
X171968941Y-95141393D01*
X171889187Y-94948849D01*
X171773402Y-94775564D01*
X171626036Y-94628198D01*
X171452751Y-94512413D01*
X171260207Y-94432659D01*
X171055804Y-94392000D01*
X170847396Y-94392000D01*
X170642993Y-94432659D01*
X170450449Y-94512413D01*
X170277164Y-94628198D01*
X170129798Y-94775564D01*
X170014013Y-94948849D01*
X169934259Y-95141393D01*
X169893600Y-95345796D01*
X162480983Y-95345796D01*
X162490780Y-95313500D01*
X163459880Y-95313500D01*
X163499800Y-95317432D01*
X163539720Y-95313500D01*
X163539723Y-95313500D01*
X163659137Y-95301739D01*
X163812350Y-95255262D01*
X163953552Y-95179788D01*
X164077317Y-95078217D01*
X164102771Y-95047201D01*
X166350582Y-92799391D01*
X166511031Y-92732930D01*
X166660796Y-92632861D01*
X166788161Y-92505496D01*
X166888230Y-92355731D01*
X166957160Y-92189321D01*
X166984872Y-92050000D01*
X168686546Y-92050000D01*
X168714697Y-92335818D01*
X168798067Y-92610652D01*
X168933452Y-92863940D01*
X169115650Y-93085950D01*
X169337660Y-93268148D01*
X169590948Y-93403533D01*
X169865782Y-93486903D01*
X170079981Y-93508000D01*
X171823219Y-93508000D01*
X172037418Y-93486903D01*
X172312252Y-93403533D01*
X172565540Y-93268148D01*
X172787550Y-93085950D01*
X172969748Y-92863940D01*
X173105133Y-92610652D01*
X173188503Y-92335818D01*
X173216654Y-92050000D01*
X173188503Y-91764182D01*
X173105133Y-91489348D01*
X172969748Y-91236060D01*
X172787550Y-91014050D01*
X172565540Y-90831852D01*
X172312252Y-90696467D01*
X172037418Y-90613097D01*
X171823219Y-90592000D01*
X170079981Y-90592000D01*
X169865782Y-90613097D01*
X169590948Y-90696467D01*
X169337660Y-90831852D01*
X169115650Y-91014050D01*
X168933452Y-91236060D01*
X168798067Y-91489348D01*
X168714697Y-91764182D01*
X168686546Y-92050000D01*
X166984872Y-92050000D01*
X166992300Y-92012661D01*
X166992300Y-91832539D01*
X166957160Y-91655879D01*
X166888230Y-91489469D01*
X166788161Y-91339704D01*
X166660796Y-91212339D01*
X166511031Y-91112270D01*
X166344621Y-91043340D01*
X166167961Y-91008200D01*
X165987839Y-91008200D01*
X165811179Y-91043340D01*
X165644769Y-91112270D01*
X165495004Y-91212339D01*
X165367639Y-91339704D01*
X165267570Y-91489469D01*
X165201109Y-91649918D01*
X163163128Y-93687900D01*
X162490780Y-93687900D01*
X162459471Y-93584686D01*
X162389197Y-93453213D01*
X162294624Y-93337976D01*
X162179387Y-93243403D01*
X162047914Y-93173129D01*
X161905258Y-93129855D01*
X161756900Y-93115243D01*
X161006900Y-93115243D01*
X160858542Y-93129855D01*
X160715886Y-93173129D01*
X160584413Y-93243403D01*
X160469176Y-93337976D01*
X160374603Y-93453213D01*
X160304329Y-93584686D01*
X160261055Y-93727342D01*
X160246443Y-93875700D01*
X159717357Y-93875700D01*
X159702745Y-93727342D01*
X159692059Y-93692114D01*
X160429107Y-92955066D01*
X160460117Y-92929617D01*
X160561688Y-92805852D01*
X160637162Y-92664650D01*
X160683639Y-92511437D01*
X160695400Y-92392023D01*
X160695400Y-92392022D01*
X160699332Y-92352100D01*
X160695400Y-92312177D01*
X160695400Y-91678402D01*
X160747991Y-91599694D01*
X160795164Y-91511439D01*
X160832673Y-91420883D01*
X160861720Y-91325127D01*
X160880842Y-91228994D01*
X160890650Y-91129409D01*
X160890650Y-91104849D01*
X160893058Y-91080400D01*
X160893058Y-90580400D01*
X160890650Y-90555951D01*
X160890650Y-90531391D01*
X160880842Y-90431806D01*
X160861720Y-90335673D01*
X160832673Y-90239917D01*
X160797444Y-90154865D01*
X160880459Y-90071851D01*
X161010621Y-90045960D01*
X161177031Y-89977030D01*
X161326796Y-89876961D01*
X161454161Y-89749596D01*
X161554230Y-89599831D01*
X161623160Y-89433421D01*
X161658300Y-89256761D01*
X161658300Y-89076639D01*
X161623160Y-88899979D01*
X161554230Y-88733569D01*
X161454161Y-88583804D01*
X161326796Y-88456439D01*
X161177031Y-88356370D01*
X161010621Y-88287440D01*
X160833961Y-88252300D01*
X160653839Y-88252300D01*
X160477179Y-88287440D01*
X160310769Y-88356370D01*
X160161004Y-88456439D01*
X160033639Y-88583804D01*
X159933570Y-88733569D01*
X159864640Y-88899979D01*
X159838749Y-89030141D01*
X159387332Y-89481559D01*
X159359226Y-89504625D01*
X159336160Y-89532731D01*
X159336158Y-89532733D01*
X159298852Y-89578190D01*
X159283015Y-89579750D01*
X159232600Y-89595043D01*
X159182185Y-89579750D01*
X159082600Y-89569942D01*
X158582600Y-89569942D01*
X158558151Y-89572350D01*
X158533591Y-89572350D01*
X158434006Y-89582158D01*
X158337873Y-89601280D01*
X158242117Y-89630327D01*
X158229767Y-89635442D01*
X158201600Y-89632668D01*
X158161680Y-89636600D01*
X157003472Y-89636600D01*
X156999849Y-89599815D01*
X156970801Y-89504057D01*
X156923629Y-89415805D01*
X156860148Y-89338452D01*
X156782795Y-89274971D01*
X156694543Y-89227799D01*
X156693824Y-89227581D01*
X156742073Y-89195342D01*
X156795142Y-89142274D01*
X156836838Y-89079871D01*
X156865558Y-89010534D01*
X156880200Y-88936925D01*
X156880200Y-88371650D01*
X156784950Y-88276400D01*
X155626200Y-88276400D01*
X155626200Y-88296400D01*
X155372200Y-88296400D01*
X155372200Y-88276400D01*
X154213450Y-88276400D01*
X154118200Y-88371650D01*
X154118200Y-88936925D01*
X154132842Y-89010534D01*
X154161562Y-89079871D01*
X154203258Y-89142274D01*
X154256327Y-89195342D01*
X154304576Y-89227581D01*
X154303857Y-89227799D01*
X154215605Y-89274971D01*
X154138252Y-89338452D01*
X154074771Y-89415805D01*
X154027599Y-89504057D01*
X154007858Y-89569133D01*
X153836261Y-89535000D01*
X153656139Y-89535000D01*
X153479479Y-89570140D01*
X153403300Y-89601695D01*
X153403300Y-87361875D01*
X154118200Y-87361875D01*
X154118200Y-87927150D01*
X154213450Y-88022400D01*
X155372200Y-88022400D01*
X155372200Y-87113650D01*
X155626200Y-87113650D01*
X155626200Y-88022400D01*
X156784950Y-88022400D01*
X156880200Y-87927150D01*
X156880200Y-87361875D01*
X156865558Y-87288266D01*
X156836838Y-87218929D01*
X156795142Y-87156526D01*
X156742073Y-87103458D01*
X156739106Y-87101475D01*
X166492000Y-87101475D01*
X166492000Y-87398525D01*
X166549951Y-87689868D01*
X166663627Y-87964306D01*
X166828660Y-88211294D01*
X167038706Y-88421340D01*
X167285694Y-88586373D01*
X167560132Y-88700049D01*
X167851475Y-88758000D01*
X168148525Y-88758000D01*
X168439868Y-88700049D01*
X168714306Y-88586373D01*
X168961294Y-88421340D01*
X169171340Y-88211294D01*
X169336373Y-87964306D01*
X169450049Y-87689868D01*
X169508000Y-87398525D01*
X169508000Y-87101475D01*
X169450049Y-86810132D01*
X169336373Y-86535694D01*
X169171340Y-86288706D01*
X168961294Y-86078660D01*
X168714306Y-85913627D01*
X168439868Y-85799951D01*
X168148525Y-85742000D01*
X167851475Y-85742000D01*
X167560132Y-85799951D01*
X167285694Y-85913627D01*
X167038706Y-86078660D01*
X166828660Y-86288706D01*
X166663627Y-86535694D01*
X166549951Y-86810132D01*
X166492000Y-87101475D01*
X156739106Y-87101475D01*
X156679671Y-87061762D01*
X156610333Y-87033042D01*
X156536725Y-87018400D01*
X155721450Y-87018400D01*
X155626200Y-87113650D01*
X155372200Y-87113650D01*
X155276950Y-87018400D01*
X154461675Y-87018400D01*
X154388067Y-87033042D01*
X154318729Y-87061762D01*
X154256327Y-87103458D01*
X154203258Y-87156526D01*
X154161562Y-87218929D01*
X154132842Y-87288266D01*
X154118200Y-87361875D01*
X153403300Y-87361875D01*
X153403300Y-86836938D01*
X153406495Y-86804499D01*
X153393744Y-86675039D01*
X153378334Y-86624239D01*
X153376981Y-86619779D01*
X153377900Y-86615161D01*
X153377900Y-86435039D01*
X153342760Y-86258379D01*
X153273830Y-86091969D01*
X153173761Y-85942204D01*
X153046396Y-85814839D01*
X152896631Y-85714770D01*
X152730221Y-85645840D01*
X152553561Y-85610700D01*
X152373439Y-85610700D01*
X152196779Y-85645840D01*
X152030369Y-85714770D01*
X151880604Y-85814839D01*
X151753239Y-85942204D01*
X151653170Y-86091969D01*
X151651326Y-86096421D01*
X151619639Y-86093300D01*
X151587200Y-86090105D01*
X151554761Y-86093300D01*
X126778438Y-86093300D01*
X126745999Y-86090105D01*
X126616539Y-86102856D01*
X126492053Y-86140618D01*
X126377326Y-86201941D01*
X126276767Y-86284467D01*
X126256082Y-86309672D01*
X124161054Y-88404700D01*
X124065139Y-88404700D01*
X123888479Y-88439840D01*
X123722069Y-88508770D01*
X123572304Y-88608839D01*
X123444939Y-88736204D01*
X123344870Y-88885969D01*
X123275940Y-89052379D01*
X123240800Y-89229039D01*
X123240800Y-89409161D01*
X123275940Y-89585821D01*
X123344870Y-89752231D01*
X123444939Y-89901996D01*
X123572304Y-90029361D01*
X123722069Y-90129430D01*
X123888479Y-90198360D01*
X124065139Y-90233500D01*
X124245261Y-90233500D01*
X124421921Y-90198360D01*
X124588331Y-90129430D01*
X124738096Y-90029361D01*
X124865461Y-89901996D01*
X124965530Y-89752231D01*
X125034460Y-89585821D01*
X125069600Y-89409161D01*
X125069600Y-89364046D01*
X127019546Y-87414100D01*
X134060884Y-87414100D01*
X134060859Y-87414131D01*
X132854733Y-88620258D01*
X132826625Y-88643326D01*
X132803559Y-88671432D01*
X132803558Y-88671433D01*
X132753499Y-88732430D01*
X132734576Y-88755488D01*
X132666178Y-88883452D01*
X132624058Y-89022302D01*
X132613400Y-89130514D01*
X132609836Y-89166700D01*
X132613400Y-89202884D01*
X132613401Y-90588790D01*
X132498891Y-90703300D01*
X121812868Y-90703300D01*
X121705076Y-90614837D01*
X121579005Y-90547451D01*
X121442211Y-90505955D01*
X121299950Y-90491943D01*
X120787450Y-90491943D01*
X120645189Y-90505955D01*
X120508395Y-90547451D01*
X120434029Y-90587200D01*
X119638861Y-90587200D01*
X119599348Y-90539052D01*
X119521995Y-90475571D01*
X119433743Y-90428399D01*
X119337985Y-90399351D01*
X119238400Y-90389543D01*
X116238400Y-90389543D01*
X116138815Y-90399351D01*
X116043057Y-90428399D01*
X115954805Y-90475571D01*
X115877452Y-90539052D01*
X115813971Y-90616405D01*
X115766799Y-90704657D01*
X115737751Y-90800415D01*
X115727943Y-90900000D01*
X115583000Y-90900000D01*
X115583000Y-89083000D01*
X118421367Y-89083000D01*
X118450000Y-89085820D01*
X118478633Y-89083000D01*
X118564288Y-89074564D01*
X118674184Y-89041227D01*
X118775464Y-88987092D01*
X118864237Y-88914237D01*
X118937092Y-88825464D01*
X118991227Y-88724184D01*
X119024564Y-88614288D01*
X119035820Y-88500000D01*
X119033000Y-88471367D01*
X119033000Y-88415634D01*
X119038706Y-88421340D01*
X119285694Y-88586373D01*
X119560132Y-88700049D01*
X119851475Y-88758000D01*
X120148525Y-88758000D01*
X120439868Y-88700049D01*
X120714306Y-88586373D01*
X120961294Y-88421340D01*
X121171340Y-88211294D01*
X121336373Y-87964306D01*
X121450049Y-87689868D01*
X121508000Y-87398525D01*
X121508000Y-87101475D01*
X121450049Y-86810132D01*
X121336373Y-86535694D01*
X121171340Y-86288706D01*
X120961294Y-86078660D01*
X120714306Y-85913627D01*
X120439868Y-85799951D01*
X120148525Y-85742000D01*
X119851475Y-85742000D01*
X119560132Y-85799951D01*
X119285694Y-85913627D01*
X119038706Y-86078660D01*
X119033000Y-86084366D01*
X119033000Y-85583000D01*
X169967000Y-85583000D01*
X169967001Y-86171357D01*
X169967001Y-86171357D01*
G37*
X169967001Y-86171357D02*
X169964180Y-86200000D01*
X169975436Y-86314288D01*
X170008773Y-86424184D01*
X170062908Y-86525464D01*
X170135763Y-86614237D01*
X170224536Y-86687092D01*
X170325816Y-86741227D01*
X170435712Y-86774564D01*
X170521367Y-86783000D01*
X170550000Y-86785820D01*
X170578633Y-86783000D01*
X173417000Y-86783000D01*
X173417001Y-108717000D01*
X170578633Y-108717000D01*
X170550000Y-108714180D01*
X170521367Y-108717000D01*
X170435712Y-108725436D01*
X170325816Y-108758773D01*
X170224536Y-108812908D01*
X170135763Y-108885763D01*
X170062908Y-108974536D01*
X170008773Y-109075816D01*
X169975436Y-109185712D01*
X169964180Y-109300000D01*
X169967000Y-109328633D01*
X169967001Y-109917000D01*
X119033000Y-109917000D01*
X119033000Y-109415634D01*
X119038706Y-109421340D01*
X119285694Y-109586373D01*
X119560132Y-109700049D01*
X119851475Y-109758000D01*
X120148525Y-109758000D01*
X120439868Y-109700049D01*
X120714306Y-109586373D01*
X120961294Y-109421340D01*
X121171340Y-109211294D01*
X121336373Y-108964306D01*
X121450049Y-108689868D01*
X121508000Y-108398525D01*
X121508000Y-108101475D01*
X121450049Y-107810132D01*
X121336373Y-107535694D01*
X121171340Y-107288706D01*
X120961294Y-107078660D01*
X120714306Y-106913627D01*
X120439868Y-106799951D01*
X120148525Y-106742000D01*
X119851475Y-106742000D01*
X119560132Y-106799951D01*
X119285694Y-106913627D01*
X119038706Y-107078660D01*
X119033000Y-107084366D01*
X119033000Y-107028632D01*
X119035820Y-107000000D01*
X119024564Y-106885712D01*
X118991227Y-106775816D01*
X118937092Y-106674536D01*
X118864237Y-106585763D01*
X118775464Y-106512908D01*
X118674184Y-106458773D01*
X118564288Y-106425436D01*
X118478633Y-106417000D01*
X118450000Y-106414180D01*
X118421367Y-106417000D01*
X115583000Y-106417000D01*
X115583000Y-99242250D01*
X115857400Y-99242250D01*
X115857400Y-99557525D01*
X115872042Y-99631134D01*
X115900762Y-99700471D01*
X115942458Y-99762874D01*
X115995527Y-99815942D01*
X116057929Y-99857638D01*
X116127267Y-99886358D01*
X116200875Y-99901000D01*
X117516150Y-99901000D01*
X117611400Y-99805750D01*
X117611400Y-99147000D01*
X117865400Y-99147000D01*
X117865400Y-99805750D01*
X117960650Y-99901000D01*
X119275925Y-99901000D01*
X119349533Y-99886358D01*
X119418871Y-99857638D01*
X119481273Y-99815942D01*
X119534342Y-99762874D01*
X119576038Y-99700471D01*
X119604758Y-99631134D01*
X119619400Y-99557525D01*
X119619400Y-99242250D01*
X119524150Y-99147000D01*
X117865400Y-99147000D01*
X117611400Y-99147000D01*
X115952650Y-99147000D01*
X115857400Y-99242250D01*
X115583000Y-99242250D01*
X115583000Y-98482475D01*
X115857400Y-98482475D01*
X115857400Y-98797750D01*
X115952650Y-98893000D01*
X117611400Y-98893000D01*
X117611400Y-98234250D01*
X117865400Y-98234250D01*
X117865400Y-98893000D01*
X119524150Y-98893000D01*
X119619400Y-98797750D01*
X119619400Y-98482475D01*
X119604758Y-98408866D01*
X119576038Y-98339529D01*
X119534342Y-98277126D01*
X119481273Y-98224058D01*
X119418871Y-98182362D01*
X119349533Y-98153642D01*
X119275925Y-98139000D01*
X117960650Y-98139000D01*
X117865400Y-98234250D01*
X117611400Y-98234250D01*
X117516150Y-98139000D01*
X116200875Y-98139000D01*
X116127267Y-98153642D01*
X116057929Y-98182362D01*
X115995527Y-98224058D01*
X115942458Y-98277126D01*
X115900762Y-98339529D01*
X115872042Y-98408866D01*
X115857400Y-98482475D01*
X115583000Y-98482475D01*
X115583000Y-94162250D01*
X115857400Y-94162250D01*
X115857400Y-94477525D01*
X115872042Y-94551134D01*
X115900762Y-94620471D01*
X115942458Y-94682874D01*
X115995527Y-94735942D01*
X116057929Y-94777638D01*
X116127267Y-94806358D01*
X116200875Y-94821000D01*
X117516150Y-94821000D01*
X117611400Y-94725750D01*
X117611400Y-94067000D01*
X117865400Y-94067000D01*
X117865400Y-94725750D01*
X117960650Y-94821000D01*
X119275925Y-94821000D01*
X119349533Y-94806358D01*
X119418871Y-94777638D01*
X119481273Y-94735942D01*
X119534342Y-94682874D01*
X119576038Y-94620471D01*
X119604758Y-94551134D01*
X119619400Y-94477525D01*
X119619400Y-94162250D01*
X119524150Y-94067000D01*
X117865400Y-94067000D01*
X117611400Y-94067000D01*
X115952650Y-94067000D01*
X115857400Y-94162250D01*
X115583000Y-94162250D01*
X115583000Y-93402475D01*
X115857400Y-93402475D01*
X115857400Y-93717750D01*
X115952650Y-93813000D01*
X117611400Y-93813000D01*
X117611400Y-93154250D01*
X117865400Y-93154250D01*
X117865400Y-93813000D01*
X119524150Y-93813000D01*
X119619400Y-93717750D01*
X119619400Y-93402475D01*
X119604758Y-93328866D01*
X119576038Y-93259529D01*
X119561085Y-93237150D01*
X120187700Y-93237150D01*
X120187700Y-93489925D01*
X120202342Y-93563533D01*
X120231062Y-93632871D01*
X120272758Y-93695273D01*
X120325826Y-93748342D01*
X120388229Y-93790038D01*
X120457566Y-93818758D01*
X120531175Y-93833400D01*
X120821450Y-93833400D01*
X120916700Y-93738150D01*
X120916700Y-93141900D01*
X121170700Y-93141900D01*
X121170700Y-93738150D01*
X121265950Y-93833400D01*
X121556225Y-93833400D01*
X121629834Y-93818758D01*
X121699171Y-93790038D01*
X121761574Y-93748342D01*
X121814642Y-93695273D01*
X121856338Y-93632871D01*
X121885058Y-93563533D01*
X121899700Y-93489925D01*
X121899700Y-93237150D01*
X121804450Y-93141900D01*
X121170700Y-93141900D01*
X120916700Y-93141900D01*
X120282950Y-93141900D01*
X120187700Y-93237150D01*
X119561085Y-93237150D01*
X119534342Y-93197126D01*
X119481273Y-93144058D01*
X119418871Y-93102362D01*
X119349533Y-93073642D01*
X119275925Y-93059000D01*
X117960650Y-93059000D01*
X117865400Y-93154250D01*
X117611400Y-93154250D01*
X117516150Y-93059000D01*
X116200875Y-93059000D01*
X116127267Y-93073642D01*
X116057929Y-93102362D01*
X115995527Y-93144058D01*
X115942458Y-93197126D01*
X115900762Y-93259529D01*
X115872042Y-93328866D01*
X115857400Y-93402475D01*
X115583000Y-93402475D01*
X115583000Y-90900000D01*
X115727943Y-90900000D01*
X115727943Y-91900000D01*
X115737751Y-91999585D01*
X115766799Y-92095343D01*
X115813971Y-92183595D01*
X115877452Y-92260948D01*
X115954805Y-92324429D01*
X116043057Y-92371601D01*
X116138815Y-92400649D01*
X116238400Y-92410457D01*
X119238400Y-92410457D01*
X119337985Y-92400649D01*
X119433743Y-92371601D01*
X119521995Y-92324429D01*
X119599348Y-92260948D01*
X119638861Y-92212800D01*
X120318763Y-92212800D01*
X120368048Y-92253247D01*
X120325826Y-92281458D01*
X120272758Y-92334527D01*
X120231062Y-92396929D01*
X120202342Y-92466267D01*
X120187700Y-92539875D01*
X120187700Y-92792650D01*
X120282950Y-92887900D01*
X120916700Y-92887900D01*
X120916700Y-92867900D01*
X121170700Y-92867900D01*
X121170700Y-92887900D01*
X121804450Y-92887900D01*
X121899700Y-92792650D01*
X121899700Y-92539875D01*
X121885058Y-92466267D01*
X121856338Y-92396929D01*
X121814642Y-92334527D01*
X121761574Y-92281458D01*
X121719352Y-92253247D01*
X121812868Y-92176500D01*
X128432648Y-92176500D01*
X128374070Y-92264169D01*
X128305140Y-92430579D01*
X128270000Y-92607239D01*
X128270000Y-92787361D01*
X128305140Y-92964021D01*
X128374070Y-93130431D01*
X128474139Y-93280196D01*
X128601504Y-93407561D01*
X128751269Y-93507630D01*
X128917679Y-93576560D01*
X129094339Y-93611700D01*
X129139454Y-93611700D01*
X130568700Y-95040947D01*
X130568700Y-95086061D01*
X130570995Y-95097600D01*
X129750238Y-95097600D01*
X129717799Y-95094405D01*
X129650008Y-95101082D01*
X129588339Y-95107156D01*
X129463853Y-95144918D01*
X129349126Y-95206241D01*
X129248567Y-95288767D01*
X129227888Y-95313965D01*
X128722254Y-95819600D01*
X119720601Y-95819600D01*
X119710001Y-95784657D01*
X119662829Y-95696405D01*
X119599348Y-95619052D01*
X119521995Y-95555571D01*
X119433743Y-95508399D01*
X119337985Y-95479351D01*
X119238400Y-95469543D01*
X116238400Y-95469543D01*
X116138815Y-95479351D01*
X116043057Y-95508399D01*
X115954805Y-95555571D01*
X115877452Y-95619052D01*
X115813971Y-95696405D01*
X115766799Y-95784657D01*
X115737751Y-95880415D01*
X115727943Y-95980000D01*
X115727943Y-96980000D01*
X115737751Y-97079585D01*
X115766799Y-97175343D01*
X115813971Y-97263595D01*
X115877452Y-97340948D01*
X115954805Y-97404429D01*
X116043057Y-97451601D01*
X116138815Y-97480649D01*
X116238400Y-97490457D01*
X119238400Y-97490457D01*
X119337985Y-97480649D01*
X119433743Y-97451601D01*
X119521995Y-97404429D01*
X119599348Y-97340948D01*
X119662829Y-97263595D01*
X119710001Y-97175343D01*
X119720601Y-97140400D01*
X128963361Y-97140400D01*
X128995800Y-97143595D01*
X129028239Y-97140400D01*
X129125261Y-97130844D01*
X129249747Y-97093082D01*
X129364474Y-97031759D01*
X129465033Y-96949233D01*
X129485718Y-96924028D01*
X129991347Y-96418400D01*
X131971361Y-96418400D01*
X132003800Y-96421595D01*
X132036239Y-96418400D01*
X132133261Y-96408844D01*
X132257747Y-96371082D01*
X132372474Y-96309759D01*
X132473033Y-96227233D01*
X132493718Y-96202028D01*
X135896846Y-92798900D01*
X136030861Y-92798900D01*
X136207521Y-92763760D01*
X136373931Y-92694830D01*
X136523696Y-92594761D01*
X136651061Y-92467396D01*
X136751130Y-92317631D01*
X136820060Y-92151221D01*
X136855200Y-91974561D01*
X136855200Y-91794439D01*
X136820060Y-91617779D01*
X136751130Y-91451369D01*
X136651061Y-91301604D01*
X136523696Y-91174239D01*
X136373931Y-91074170D01*
X136207521Y-91005240D01*
X136030861Y-90970100D01*
X135850739Y-90970100D01*
X135674079Y-91005240D01*
X135507669Y-91074170D01*
X135357904Y-91174239D01*
X135230539Y-91301604D01*
X135130470Y-91451369D01*
X135061540Y-91617779D01*
X135026400Y-91794439D01*
X135026400Y-91801454D01*
X132282037Y-94545817D01*
X132193361Y-94413104D01*
X132065996Y-94285739D01*
X131916231Y-94185670D01*
X131749821Y-94116740D01*
X131573161Y-94081600D01*
X131477247Y-94081600D01*
X130098800Y-92703154D01*
X130098800Y-92607239D01*
X130063660Y-92430579D01*
X129994730Y-92264169D01*
X129936152Y-92176500D01*
X132767817Y-92176500D01*
X132804000Y-92180064D01*
X132840183Y-92176500D01*
X132840186Y-92176500D01*
X132948399Y-92165842D01*
X133087249Y-92123722D01*
X133215213Y-92055324D01*
X133327375Y-91963275D01*
X133350445Y-91935164D01*
X133845268Y-91440341D01*
X133873375Y-91417275D01*
X133942750Y-91332742D01*
X133965424Y-91305113D01*
X133988361Y-91262200D01*
X134033822Y-91177149D01*
X134075942Y-91038299D01*
X134086600Y-90930086D01*
X134090164Y-90893900D01*
X134086600Y-90857714D01*
X134086600Y-89471809D01*
X134912410Y-88646000D01*
X136387923Y-88646000D01*
X136498269Y-88719730D01*
X136664679Y-88788660D01*
X136794842Y-88814551D01*
X138836401Y-90856111D01*
X138836400Y-92166523D01*
X138762670Y-92276869D01*
X138693740Y-92443279D01*
X138658600Y-92619939D01*
X138658600Y-92800061D01*
X138665948Y-92837000D01*
X138144939Y-92837000D01*
X138112500Y-92833805D01*
X138080061Y-92837000D01*
X137983039Y-92846556D01*
X137858553Y-92884318D01*
X137743826Y-92945641D01*
X137643267Y-93028167D01*
X137622586Y-93053367D01*
X133774954Y-96901000D01*
X132302938Y-96901000D01*
X132270499Y-96897805D01*
X132141039Y-96910556D01*
X132016553Y-96948318D01*
X131901826Y-97009641D01*
X131801267Y-97092167D01*
X131780582Y-97117372D01*
X131576078Y-97321876D01*
X131569530Y-97306069D01*
X131469461Y-97156304D01*
X131342096Y-97028939D01*
X131192331Y-96928870D01*
X131025921Y-96859940D01*
X130849261Y-96824800D01*
X130669139Y-96824800D01*
X130492479Y-96859940D01*
X130326069Y-96928870D01*
X130176304Y-97028939D01*
X130048939Y-97156304D01*
X129998895Y-97231200D01*
X122066738Y-97231200D01*
X122034299Y-97228005D01*
X122016303Y-97229777D01*
X121895761Y-97205800D01*
X121715639Y-97205800D01*
X121538979Y-97240940D01*
X121372569Y-97309870D01*
X121222804Y-97409939D01*
X121095439Y-97537304D01*
X120995370Y-97687069D01*
X120926440Y-97853479D01*
X120891300Y-98030139D01*
X120891300Y-98210261D01*
X120926440Y-98386921D01*
X120995370Y-98553331D01*
X121095439Y-98703096D01*
X121222804Y-98830461D01*
X121372569Y-98930530D01*
X121538979Y-98999460D01*
X121715639Y-99034600D01*
X121895761Y-99034600D01*
X122072421Y-98999460D01*
X122238831Y-98930530D01*
X122388596Y-98830461D01*
X122515961Y-98703096D01*
X122616030Y-98553331D01*
X122616581Y-98552000D01*
X123056153Y-98552000D01*
X122865654Y-98742500D01*
X122795139Y-98742500D01*
X122618479Y-98777640D01*
X122452069Y-98846570D01*
X122302304Y-98946639D01*
X122174939Y-99074004D01*
X122074870Y-99223769D01*
X122005940Y-99390179D01*
X121970800Y-99566839D01*
X121970800Y-99746961D01*
X122005940Y-99923621D01*
X122074870Y-100090031D01*
X122099438Y-100126800D01*
X119920438Y-100126800D01*
X119887999Y-100123605D01*
X119758539Y-100136356D01*
X119634053Y-100174118D01*
X119519326Y-100235441D01*
X119418767Y-100317967D01*
X119398082Y-100343172D01*
X119191711Y-100549543D01*
X116238400Y-100549543D01*
X116138815Y-100559351D01*
X116043057Y-100588399D01*
X115954805Y-100635571D01*
X115877452Y-100699052D01*
X115813971Y-100776405D01*
X115766799Y-100864657D01*
X115737751Y-100960415D01*
X115727943Y-101060000D01*
X115727943Y-102060000D01*
X115737751Y-102159585D01*
X115766799Y-102255343D01*
X115813971Y-102343595D01*
X115877452Y-102420948D01*
X115954805Y-102484429D01*
X116043057Y-102531601D01*
X116138815Y-102560649D01*
X116238400Y-102570457D01*
X119238400Y-102570457D01*
X119337985Y-102560649D01*
X119433743Y-102531601D01*
X119521995Y-102484429D01*
X119599348Y-102420948D01*
X119662829Y-102343595D01*
X119710001Y-102255343D01*
X119739049Y-102159585D01*
X119748857Y-102060000D01*
X119748857Y-102013875D01*
X120162300Y-102013875D01*
X120162300Y-102266650D01*
X120257550Y-102361900D01*
X120891300Y-102361900D01*
X120891300Y-101765650D01*
X121145300Y-101765650D01*
X121145300Y-102361900D01*
X121779050Y-102361900D01*
X121874300Y-102266650D01*
X121874300Y-102013875D01*
X121859658Y-101940267D01*
X121830938Y-101870929D01*
X121789242Y-101808527D01*
X121736174Y-101755458D01*
X121673771Y-101713762D01*
X121604434Y-101685042D01*
X121530825Y-101670400D01*
X121240550Y-101670400D01*
X121145300Y-101765650D01*
X120891300Y-101765650D01*
X120796050Y-101670400D01*
X120505775Y-101670400D01*
X120432166Y-101685042D01*
X120362829Y-101713762D01*
X120300426Y-101755458D01*
X120247358Y-101808527D01*
X120205662Y-101870929D01*
X120176942Y-101940267D01*
X120162300Y-102013875D01*
X119748857Y-102013875D01*
X119748857Y-101860289D01*
X120161546Y-101447600D01*
X122954361Y-101447600D01*
X122986800Y-101450795D01*
X123019239Y-101447600D01*
X123116261Y-101438044D01*
X123240747Y-101400282D01*
X123355474Y-101338959D01*
X123456033Y-101256433D01*
X123476718Y-101231228D01*
X124885947Y-99822000D01*
X131533590Y-99822000D01*
X128028291Y-103327300D01*
X121787468Y-103327300D01*
X121693952Y-103250553D01*
X121736174Y-103222342D01*
X121789242Y-103169273D01*
X121830938Y-103106871D01*
X121859658Y-103037533D01*
X121874300Y-102963925D01*
X121874300Y-102711150D01*
X121779050Y-102615900D01*
X121145300Y-102615900D01*
X121145300Y-102635900D01*
X120891300Y-102635900D01*
X120891300Y-102615900D01*
X120257550Y-102615900D01*
X120162300Y-102711150D01*
X120162300Y-102963925D01*
X120176942Y-103037533D01*
X120205662Y-103106871D01*
X120247358Y-103169273D01*
X120300426Y-103222342D01*
X120342648Y-103250553D01*
X120297994Y-103287200D01*
X119638861Y-103287200D01*
X119599348Y-103239052D01*
X119521995Y-103175571D01*
X119433743Y-103128399D01*
X119337985Y-103099351D01*
X119238400Y-103089543D01*
X116238400Y-103089543D01*
X116138815Y-103099351D01*
X116043057Y-103128399D01*
X115954805Y-103175571D01*
X115877452Y-103239052D01*
X115813971Y-103316405D01*
X115766799Y-103404657D01*
X115737751Y-103500415D01*
X115727943Y-103600000D01*
X115727943Y-104600000D01*
X115737751Y-104699585D01*
X115766799Y-104795343D01*
X115813971Y-104883595D01*
X115877452Y-104960948D01*
X115954805Y-105024429D01*
X116043057Y-105071601D01*
X116138815Y-105100649D01*
X116238400Y-105110457D01*
X119238400Y-105110457D01*
X119337985Y-105100649D01*
X119433743Y-105071601D01*
X119521995Y-105024429D01*
X119599348Y-104960948D01*
X119638861Y-104912800D01*
X120401520Y-104912800D01*
X120482995Y-104956349D01*
X120551664Y-104977179D01*
X120549339Y-104979504D01*
X120449270Y-105129269D01*
X120380340Y-105295679D01*
X120345200Y-105472339D01*
X120345200Y-105652461D01*
X120380340Y-105829121D01*
X120449270Y-105995531D01*
X120549339Y-106145296D01*
X120676704Y-106272661D01*
X120826469Y-106372730D01*
X120992879Y-106441660D01*
X121169539Y-106476800D01*
X121349661Y-106476800D01*
X121526321Y-106441660D01*
X121692731Y-106372730D01*
X121842496Y-106272661D01*
X121969861Y-106145296D01*
X122014331Y-106078741D01*
X122071733Y-106031633D01*
X122092418Y-106006428D01*
X122599947Y-105498900D01*
X128783661Y-105498900D01*
X128816100Y-105502095D01*
X128848539Y-105498900D01*
X128945561Y-105489344D01*
X129070047Y-105451582D01*
X129184774Y-105390259D01*
X129285333Y-105307733D01*
X129306018Y-105282528D01*
X137725646Y-96862900D01*
X140709153Y-96862900D01*
X139243268Y-98328786D01*
X139218068Y-98349467D01*
X139135542Y-98450026D01*
X139118885Y-98481189D01*
X139074218Y-98564754D01*
X139036456Y-98689240D01*
X139023705Y-98818700D01*
X139026901Y-98851149D01*
X139026900Y-103891661D01*
X139023705Y-103924100D01*
X139026900Y-103956538D01*
X139036456Y-104053560D01*
X139074218Y-104178046D01*
X139135541Y-104292773D01*
X139218067Y-104393333D01*
X139243272Y-104414018D01*
X141559601Y-106730348D01*
X141559601Y-107063172D01*
X141461886Y-107115402D01*
X141255103Y-107285103D01*
X141085402Y-107491886D01*
X140959302Y-107727802D01*
X140881650Y-107983786D01*
X140855430Y-108250000D01*
X140881650Y-108516214D01*
X140959302Y-108772198D01*
X141085402Y-109008114D01*
X141255103Y-109214897D01*
X141461886Y-109384598D01*
X141697802Y-109510698D01*
X141953786Y-109588350D01*
X142153294Y-109608000D01*
X142286706Y-109608000D01*
X142486214Y-109588350D01*
X142742198Y-109510698D01*
X142978114Y-109384598D01*
X143184897Y-109214897D01*
X143354598Y-109008114D01*
X143480698Y-108772198D01*
X143490000Y-108741533D01*
X143499302Y-108772198D01*
X143625402Y-109008114D01*
X143795103Y-109214897D01*
X144001886Y-109384598D01*
X144237802Y-109510698D01*
X144493786Y-109588350D01*
X144693294Y-109608000D01*
X144826706Y-109608000D01*
X145026214Y-109588350D01*
X145282198Y-109510698D01*
X145518114Y-109384598D01*
X145724897Y-109214897D01*
X145894598Y-109008114D01*
X146020698Y-108772198D01*
X146030000Y-108741533D01*
X146039302Y-108772198D01*
X146165402Y-109008114D01*
X146335103Y-109214897D01*
X146541886Y-109384598D01*
X146777802Y-109510698D01*
X147033786Y-109588350D01*
X147233294Y-109608000D01*
X147366706Y-109608000D01*
X147566214Y-109588350D01*
X147822198Y-109510698D01*
X148058114Y-109384598D01*
X148264897Y-109214897D01*
X148434598Y-109008114D01*
X148560698Y-108772198D01*
X148570000Y-108741533D01*
X148579302Y-108772198D01*
X148705402Y-109008114D01*
X148875103Y-109214897D01*
X149081886Y-109384598D01*
X149317802Y-109510698D01*
X149573786Y-109588350D01*
X149773294Y-109608000D01*
X149906706Y-109608000D01*
X150106214Y-109588350D01*
X150362198Y-109510698D01*
X150598114Y-109384598D01*
X150804897Y-109214897D01*
X150974598Y-109008114D01*
X151100698Y-108772198D01*
X151110000Y-108741533D01*
X151119302Y-108772198D01*
X151245402Y-109008114D01*
X151415103Y-109214897D01*
X151621886Y-109384598D01*
X151857802Y-109510698D01*
X152113786Y-109588350D01*
X152313294Y-109608000D01*
X152446706Y-109608000D01*
X152646214Y-109588350D01*
X152902198Y-109510698D01*
X153138114Y-109384598D01*
X153344897Y-109214897D01*
X153514598Y-109008114D01*
X153640698Y-108772198D01*
X153650000Y-108741533D01*
X153659302Y-108772198D01*
X153785402Y-109008114D01*
X153955103Y-109214897D01*
X154161886Y-109384598D01*
X154397802Y-109510698D01*
X154653786Y-109588350D01*
X154853294Y-109608000D01*
X154986706Y-109608000D01*
X155186214Y-109588350D01*
X155442198Y-109510698D01*
X155678114Y-109384598D01*
X155884897Y-109214897D01*
X156054598Y-109008114D01*
X156180698Y-108772198D01*
X156190000Y-108741533D01*
X156199302Y-108772198D01*
X156325402Y-109008114D01*
X156495103Y-109214897D01*
X156701886Y-109384598D01*
X156937802Y-109510698D01*
X157193786Y-109588350D01*
X157393294Y-109608000D01*
X157526706Y-109608000D01*
X157726214Y-109588350D01*
X157982198Y-109510698D01*
X158218114Y-109384598D01*
X158424897Y-109214897D01*
X158594598Y-109008114D01*
X158639543Y-108924028D01*
X158639543Y-109100000D01*
X158649351Y-109199585D01*
X158678399Y-109295343D01*
X158725571Y-109383595D01*
X158789052Y-109460948D01*
X158866405Y-109524429D01*
X158954657Y-109571601D01*
X159050415Y-109600649D01*
X159150000Y-109610457D01*
X160850000Y-109610457D01*
X160949585Y-109600649D01*
X161045343Y-109571601D01*
X161133595Y-109524429D01*
X161210948Y-109460948D01*
X161274429Y-109383595D01*
X161321601Y-109295343D01*
X161350649Y-109199585D01*
X161360457Y-109100000D01*
X161360457Y-108101475D01*
X166492000Y-108101475D01*
X166492000Y-108398525D01*
X166549951Y-108689868D01*
X166663627Y-108964306D01*
X166828660Y-109211294D01*
X167038706Y-109421340D01*
X167285694Y-109586373D01*
X167560132Y-109700049D01*
X167851475Y-109758000D01*
X168148525Y-109758000D01*
X168439868Y-109700049D01*
X168714306Y-109586373D01*
X168961294Y-109421340D01*
X169171340Y-109211294D01*
X169336373Y-108964306D01*
X169450049Y-108689868D01*
X169508000Y-108398525D01*
X169508000Y-108101475D01*
X169450049Y-107810132D01*
X169336373Y-107535694D01*
X169171340Y-107288706D01*
X168961294Y-107078660D01*
X168714306Y-106913627D01*
X168439868Y-106799951D01*
X168148525Y-106742000D01*
X167851475Y-106742000D01*
X167560132Y-106799951D01*
X167285694Y-106913627D01*
X167038706Y-107078660D01*
X166828660Y-107288706D01*
X166663627Y-107535694D01*
X166549951Y-107810132D01*
X166492000Y-108101475D01*
X161360457Y-108101475D01*
X161360457Y-107400000D01*
X161350649Y-107300415D01*
X161321601Y-107204657D01*
X161274429Y-107116405D01*
X161210948Y-107039052D01*
X161133595Y-106975571D01*
X161045343Y-106928399D01*
X160949585Y-106899351D01*
X160850000Y-106889543D01*
X160426890Y-106889543D01*
X159684418Y-106147072D01*
X159663733Y-106121867D01*
X159563174Y-106039341D01*
X159448447Y-105978018D01*
X159323961Y-105940256D01*
X159226939Y-105930700D01*
X159194500Y-105927505D01*
X159162061Y-105930700D01*
X157296346Y-105930700D01*
X156166518Y-104800872D01*
X156145833Y-104775667D01*
X156045274Y-104693141D01*
X155930547Y-104631818D01*
X155806061Y-104594056D01*
X155709039Y-104584500D01*
X155676600Y-104581305D01*
X155644161Y-104584500D01*
X153384747Y-104584500D01*
X152857200Y-104056954D01*
X152857200Y-103450000D01*
X168686546Y-103450000D01*
X168714697Y-103735818D01*
X168798067Y-104010652D01*
X168933452Y-104263940D01*
X169115650Y-104485950D01*
X169337660Y-104668148D01*
X169590948Y-104803533D01*
X169865782Y-104886903D01*
X170079981Y-104908000D01*
X171823219Y-104908000D01*
X172037418Y-104886903D01*
X172312252Y-104803533D01*
X172565540Y-104668148D01*
X172787550Y-104485950D01*
X172969748Y-104263940D01*
X173105133Y-104010652D01*
X173188503Y-103735818D01*
X173216654Y-103450000D01*
X173188503Y-103164182D01*
X173105133Y-102889348D01*
X172969748Y-102636060D01*
X172787550Y-102414050D01*
X172565540Y-102231852D01*
X172312252Y-102096467D01*
X172037418Y-102013097D01*
X171823219Y-101992000D01*
X170079981Y-101992000D01*
X169865782Y-102013097D01*
X169590948Y-102096467D01*
X169337660Y-102231852D01*
X169115650Y-102414050D01*
X168933452Y-102636060D01*
X168798067Y-102889348D01*
X168714697Y-103164182D01*
X168686546Y-103450000D01*
X152857200Y-103450000D01*
X152857200Y-101636939D01*
X154190700Y-101636939D01*
X154190700Y-101817061D01*
X154225840Y-101993721D01*
X154294770Y-102160131D01*
X154394839Y-102309896D01*
X154522204Y-102437261D01*
X154671969Y-102537330D01*
X154838379Y-102606260D01*
X155015039Y-102641400D01*
X155195161Y-102641400D01*
X155371821Y-102606260D01*
X155538231Y-102537330D01*
X155687996Y-102437261D01*
X155815361Y-102309896D01*
X155915430Y-102160131D01*
X155984360Y-101993721D01*
X156019500Y-101817061D01*
X156019500Y-101636939D01*
X155984360Y-101460279D01*
X155915430Y-101293869D01*
X155867100Y-101221537D01*
X155867100Y-99997177D01*
X155901431Y-99945796D01*
X169893600Y-99945796D01*
X169893600Y-100154204D01*
X169934259Y-100358607D01*
X170014013Y-100551151D01*
X170129798Y-100724436D01*
X170277164Y-100871802D01*
X170450449Y-100987587D01*
X170642993Y-101067341D01*
X170847396Y-101108000D01*
X171055804Y-101108000D01*
X171260207Y-101067341D01*
X171452751Y-100987587D01*
X171626036Y-100871802D01*
X171773402Y-100724436D01*
X171889187Y-100551151D01*
X171968941Y-100358607D01*
X172009600Y-100154204D01*
X172009600Y-99945796D01*
X171968941Y-99741393D01*
X171889187Y-99548849D01*
X171773402Y-99375564D01*
X171626036Y-99228198D01*
X171452751Y-99112413D01*
X171260207Y-99032659D01*
X171055804Y-98992000D01*
X170847396Y-98992000D01*
X170642993Y-99032659D01*
X170450449Y-99112413D01*
X170277164Y-99228198D01*
X170129798Y-99375564D01*
X170014013Y-99548849D01*
X169934259Y-99741393D01*
X169893600Y-99945796D01*
X155901431Y-99945796D01*
X155940830Y-99886831D01*
X156009760Y-99720421D01*
X156044900Y-99543761D01*
X156044900Y-99363639D01*
X156009760Y-99186979D01*
X155940830Y-99020569D01*
X155840761Y-98870804D01*
X155713396Y-98743439D01*
X155563631Y-98643370D01*
X155397221Y-98574440D01*
X155220561Y-98539300D01*
X155040439Y-98539300D01*
X154863779Y-98574440D01*
X154697369Y-98643370D01*
X154547604Y-98743439D01*
X154420239Y-98870804D01*
X154320170Y-99020569D01*
X154251240Y-99186979D01*
X154216100Y-99363639D01*
X154216100Y-99543761D01*
X154251240Y-99720421D01*
X154320170Y-99886831D01*
X154393901Y-99997178D01*
X154393900Y-101145509D01*
X154294770Y-101293869D01*
X154225840Y-101460279D01*
X154190700Y-101636939D01*
X152857200Y-101636939D01*
X152857200Y-97796350D01*
X155902600Y-97796350D01*
X155902600Y-98311625D01*
X155917242Y-98385234D01*
X155945962Y-98454571D01*
X155987658Y-98516974D01*
X156040727Y-98570042D01*
X156103129Y-98611738D01*
X156172467Y-98640458D01*
X156246075Y-98655100D01*
X156548850Y-98655100D01*
X156644100Y-98559850D01*
X156644100Y-97701100D01*
X156898100Y-97701100D01*
X156898100Y-98559850D01*
X156993350Y-98655100D01*
X157296125Y-98655100D01*
X157369733Y-98640458D01*
X157439071Y-98611738D01*
X157501473Y-98570042D01*
X157554542Y-98516974D01*
X157596238Y-98454571D01*
X157624958Y-98385234D01*
X157639600Y-98311625D01*
X157639600Y-97796350D01*
X157544350Y-97701100D01*
X156898100Y-97701100D01*
X156644100Y-97701100D01*
X155997850Y-97701100D01*
X155902600Y-97796350D01*
X152857200Y-97796350D01*
X152857200Y-97212838D01*
X152860395Y-97180399D01*
X152847644Y-97050939D01*
X152841826Y-97031759D01*
X152809882Y-96926453D01*
X152761842Y-96836575D01*
X155902600Y-96836575D01*
X155902600Y-97351850D01*
X155997850Y-97447100D01*
X156644100Y-97447100D01*
X156644100Y-96588350D01*
X156898100Y-96588350D01*
X156898100Y-97447100D01*
X157544350Y-97447100D01*
X157639600Y-97351850D01*
X157639600Y-96836575D01*
X157624958Y-96762966D01*
X157596238Y-96693629D01*
X157554542Y-96631226D01*
X157501473Y-96578158D01*
X157439071Y-96536462D01*
X157369733Y-96507742D01*
X157296125Y-96493100D01*
X156993350Y-96493100D01*
X156898100Y-96588350D01*
X156644100Y-96588350D01*
X156548850Y-96493100D01*
X156246075Y-96493100D01*
X156172467Y-96507742D01*
X156103129Y-96536462D01*
X156040727Y-96578158D01*
X155987658Y-96631226D01*
X155945962Y-96693629D01*
X155917242Y-96762966D01*
X155902600Y-96836575D01*
X152761842Y-96836575D01*
X152748559Y-96811726D01*
X152666033Y-96711167D01*
X152640828Y-96690482D01*
X151251146Y-95300800D01*
X152050061Y-95300800D01*
X152082500Y-95303995D01*
X152114939Y-95300800D01*
X152211961Y-95291244D01*
X152336447Y-95253482D01*
X152451174Y-95192159D01*
X152551733Y-95109633D01*
X152572418Y-95084428D01*
X153186934Y-94469913D01*
X153212133Y-94449233D01*
X153294659Y-94348674D01*
X153355982Y-94233947D01*
X153393744Y-94109461D01*
X153403300Y-94012439D01*
X153403300Y-94012438D01*
X153406495Y-93980000D01*
X153403300Y-93947561D01*
X153403300Y-91297105D01*
X153479479Y-91328660D01*
X153656139Y-91363800D01*
X153836261Y-91363800D01*
X154007858Y-91329667D01*
X154027599Y-91394743D01*
X154074771Y-91482995D01*
X154138252Y-91560348D01*
X154185838Y-91599400D01*
X154138252Y-91638452D01*
X154074771Y-91715805D01*
X154027599Y-91804057D01*
X153998551Y-91899815D01*
X153988743Y-91999400D01*
X153988743Y-93499400D01*
X153998551Y-93598985D01*
X154027599Y-93694743D01*
X154074771Y-93782995D01*
X154138252Y-93860348D01*
X154215605Y-93923829D01*
X154303857Y-93971001D01*
X154399615Y-94000049D01*
X154499200Y-94009857D01*
X156499200Y-94009857D01*
X156598785Y-94000049D01*
X156694543Y-93971001D01*
X156782795Y-93923829D01*
X156822759Y-93891032D01*
X157446443Y-94514716D01*
X157446443Y-95125700D01*
X157461055Y-95274058D01*
X157504329Y-95416714D01*
X157574603Y-95548187D01*
X157669176Y-95663424D01*
X157784413Y-95757997D01*
X157909501Y-95824858D01*
X157909500Y-96551344D01*
X157869045Y-96584545D01*
X157775250Y-96698835D01*
X157705554Y-96829227D01*
X157662635Y-96970712D01*
X157648143Y-97117850D01*
X157648143Y-98030350D01*
X157662635Y-98177488D01*
X157705554Y-98318973D01*
X157775250Y-98449365D01*
X157869045Y-98563655D01*
X157983335Y-98657450D01*
X158113727Y-98727146D01*
X158255212Y-98770065D01*
X158402350Y-98784557D01*
X158889850Y-98784557D01*
X159036988Y-98770065D01*
X159178473Y-98727146D01*
X159308865Y-98657450D01*
X159423155Y-98563655D01*
X159516950Y-98449365D01*
X159586646Y-98318973D01*
X159629565Y-98177488D01*
X159644057Y-98030350D01*
X159644057Y-97117850D01*
X159629565Y-96970712D01*
X159586646Y-96829227D01*
X159516950Y-96698835D01*
X159423155Y-96584545D01*
X159382700Y-96551345D01*
X159382700Y-95755278D01*
X159494624Y-95663424D01*
X159589197Y-95548187D01*
X159659471Y-95416714D01*
X159702745Y-95274058D01*
X159717357Y-95125700D01*
X159717357Y-93875700D01*
X160246443Y-93875700D01*
X160246443Y-95125700D01*
X160261055Y-95274058D01*
X160304329Y-95416714D01*
X160374603Y-95548187D01*
X160469176Y-95663424D01*
X160584413Y-95757997D01*
X160715886Y-95828271D01*
X160858542Y-95871545D01*
X161006900Y-95886157D01*
X161756900Y-95886157D01*
X161905258Y-95871545D01*
X162047914Y-95828271D01*
X162179387Y-95757997D01*
X162294624Y-95663424D01*
X162389197Y-95548187D01*
X162459471Y-95416714D01*
X162480983Y-95345796D01*
X169893600Y-95345796D01*
X169893600Y-95554204D01*
X169934259Y-95758607D01*
X170014013Y-95951151D01*
X170129798Y-96124436D01*
X170277164Y-96271802D01*
X170450449Y-96387587D01*
X170642993Y-96467341D01*
X170847396Y-96508000D01*
X171055804Y-96508000D01*
X171260207Y-96467341D01*
X171452751Y-96387587D01*
X171626036Y-96271802D01*
X171773402Y-96124436D01*
X171889187Y-95951151D01*
X171968941Y-95758607D01*
X172009600Y-95554204D01*
X172009600Y-95345796D01*
X171968941Y-95141393D01*
X171889187Y-94948849D01*
X171773402Y-94775564D01*
X171626036Y-94628198D01*
X171452751Y-94512413D01*
X171260207Y-94432659D01*
X171055804Y-94392000D01*
X170847396Y-94392000D01*
X170642993Y-94432659D01*
X170450449Y-94512413D01*
X170277164Y-94628198D01*
X170129798Y-94775564D01*
X170014013Y-94948849D01*
X169934259Y-95141393D01*
X169893600Y-95345796D01*
X162480983Y-95345796D01*
X162490780Y-95313500D01*
X163459880Y-95313500D01*
X163499800Y-95317432D01*
X163539720Y-95313500D01*
X163539723Y-95313500D01*
X163659137Y-95301739D01*
X163812350Y-95255262D01*
X163953552Y-95179788D01*
X164077317Y-95078217D01*
X164102771Y-95047201D01*
X166350582Y-92799391D01*
X166511031Y-92732930D01*
X166660796Y-92632861D01*
X166788161Y-92505496D01*
X166888230Y-92355731D01*
X166957160Y-92189321D01*
X166984872Y-92050000D01*
X168686546Y-92050000D01*
X168714697Y-92335818D01*
X168798067Y-92610652D01*
X168933452Y-92863940D01*
X169115650Y-93085950D01*
X169337660Y-93268148D01*
X169590948Y-93403533D01*
X169865782Y-93486903D01*
X170079981Y-93508000D01*
X171823219Y-93508000D01*
X172037418Y-93486903D01*
X172312252Y-93403533D01*
X172565540Y-93268148D01*
X172787550Y-93085950D01*
X172969748Y-92863940D01*
X173105133Y-92610652D01*
X173188503Y-92335818D01*
X173216654Y-92050000D01*
X173188503Y-91764182D01*
X173105133Y-91489348D01*
X172969748Y-91236060D01*
X172787550Y-91014050D01*
X172565540Y-90831852D01*
X172312252Y-90696467D01*
X172037418Y-90613097D01*
X171823219Y-90592000D01*
X170079981Y-90592000D01*
X169865782Y-90613097D01*
X169590948Y-90696467D01*
X169337660Y-90831852D01*
X169115650Y-91014050D01*
X168933452Y-91236060D01*
X168798067Y-91489348D01*
X168714697Y-91764182D01*
X168686546Y-92050000D01*
X166984872Y-92050000D01*
X166992300Y-92012661D01*
X166992300Y-91832539D01*
X166957160Y-91655879D01*
X166888230Y-91489469D01*
X166788161Y-91339704D01*
X166660796Y-91212339D01*
X166511031Y-91112270D01*
X166344621Y-91043340D01*
X166167961Y-91008200D01*
X165987839Y-91008200D01*
X165811179Y-91043340D01*
X165644769Y-91112270D01*
X165495004Y-91212339D01*
X165367639Y-91339704D01*
X165267570Y-91489469D01*
X165201109Y-91649918D01*
X163163128Y-93687900D01*
X162490780Y-93687900D01*
X162459471Y-93584686D01*
X162389197Y-93453213D01*
X162294624Y-93337976D01*
X162179387Y-93243403D01*
X162047914Y-93173129D01*
X161905258Y-93129855D01*
X161756900Y-93115243D01*
X161006900Y-93115243D01*
X160858542Y-93129855D01*
X160715886Y-93173129D01*
X160584413Y-93243403D01*
X160469176Y-93337976D01*
X160374603Y-93453213D01*
X160304329Y-93584686D01*
X160261055Y-93727342D01*
X160246443Y-93875700D01*
X159717357Y-93875700D01*
X159702745Y-93727342D01*
X159692059Y-93692114D01*
X160429107Y-92955066D01*
X160460117Y-92929617D01*
X160561688Y-92805852D01*
X160637162Y-92664650D01*
X160683639Y-92511437D01*
X160695400Y-92392023D01*
X160695400Y-92392022D01*
X160699332Y-92352100D01*
X160695400Y-92312177D01*
X160695400Y-91678402D01*
X160747991Y-91599694D01*
X160795164Y-91511439D01*
X160832673Y-91420883D01*
X160861720Y-91325127D01*
X160880842Y-91228994D01*
X160890650Y-91129409D01*
X160890650Y-91104849D01*
X160893058Y-91080400D01*
X160893058Y-90580400D01*
X160890650Y-90555951D01*
X160890650Y-90531391D01*
X160880842Y-90431806D01*
X160861720Y-90335673D01*
X160832673Y-90239917D01*
X160797444Y-90154865D01*
X160880459Y-90071851D01*
X161010621Y-90045960D01*
X161177031Y-89977030D01*
X161326796Y-89876961D01*
X161454161Y-89749596D01*
X161554230Y-89599831D01*
X161623160Y-89433421D01*
X161658300Y-89256761D01*
X161658300Y-89076639D01*
X161623160Y-88899979D01*
X161554230Y-88733569D01*
X161454161Y-88583804D01*
X161326796Y-88456439D01*
X161177031Y-88356370D01*
X161010621Y-88287440D01*
X160833961Y-88252300D01*
X160653839Y-88252300D01*
X160477179Y-88287440D01*
X160310769Y-88356370D01*
X160161004Y-88456439D01*
X160033639Y-88583804D01*
X159933570Y-88733569D01*
X159864640Y-88899979D01*
X159838749Y-89030141D01*
X159387332Y-89481559D01*
X159359226Y-89504625D01*
X159336160Y-89532731D01*
X159336158Y-89532733D01*
X159298852Y-89578190D01*
X159283015Y-89579750D01*
X159232600Y-89595043D01*
X159182185Y-89579750D01*
X159082600Y-89569942D01*
X158582600Y-89569942D01*
X158558151Y-89572350D01*
X158533591Y-89572350D01*
X158434006Y-89582158D01*
X158337873Y-89601280D01*
X158242117Y-89630327D01*
X158229767Y-89635442D01*
X158201600Y-89632668D01*
X158161680Y-89636600D01*
X157003472Y-89636600D01*
X156999849Y-89599815D01*
X156970801Y-89504057D01*
X156923629Y-89415805D01*
X156860148Y-89338452D01*
X156782795Y-89274971D01*
X156694543Y-89227799D01*
X156693824Y-89227581D01*
X156742073Y-89195342D01*
X156795142Y-89142274D01*
X156836838Y-89079871D01*
X156865558Y-89010534D01*
X156880200Y-88936925D01*
X156880200Y-88371650D01*
X156784950Y-88276400D01*
X155626200Y-88276400D01*
X155626200Y-88296400D01*
X155372200Y-88296400D01*
X155372200Y-88276400D01*
X154213450Y-88276400D01*
X154118200Y-88371650D01*
X154118200Y-88936925D01*
X154132842Y-89010534D01*
X154161562Y-89079871D01*
X154203258Y-89142274D01*
X154256327Y-89195342D01*
X154304576Y-89227581D01*
X154303857Y-89227799D01*
X154215605Y-89274971D01*
X154138252Y-89338452D01*
X154074771Y-89415805D01*
X154027599Y-89504057D01*
X154007858Y-89569133D01*
X153836261Y-89535000D01*
X153656139Y-89535000D01*
X153479479Y-89570140D01*
X153403300Y-89601695D01*
X153403300Y-87361875D01*
X154118200Y-87361875D01*
X154118200Y-87927150D01*
X154213450Y-88022400D01*
X155372200Y-88022400D01*
X155372200Y-87113650D01*
X155626200Y-87113650D01*
X155626200Y-88022400D01*
X156784950Y-88022400D01*
X156880200Y-87927150D01*
X156880200Y-87361875D01*
X156865558Y-87288266D01*
X156836838Y-87218929D01*
X156795142Y-87156526D01*
X156742073Y-87103458D01*
X156739106Y-87101475D01*
X166492000Y-87101475D01*
X166492000Y-87398525D01*
X166549951Y-87689868D01*
X166663627Y-87964306D01*
X166828660Y-88211294D01*
X167038706Y-88421340D01*
X167285694Y-88586373D01*
X167560132Y-88700049D01*
X167851475Y-88758000D01*
X168148525Y-88758000D01*
X168439868Y-88700049D01*
X168714306Y-88586373D01*
X168961294Y-88421340D01*
X169171340Y-88211294D01*
X169336373Y-87964306D01*
X169450049Y-87689868D01*
X169508000Y-87398525D01*
X169508000Y-87101475D01*
X169450049Y-86810132D01*
X169336373Y-86535694D01*
X169171340Y-86288706D01*
X168961294Y-86078660D01*
X168714306Y-85913627D01*
X168439868Y-85799951D01*
X168148525Y-85742000D01*
X167851475Y-85742000D01*
X167560132Y-85799951D01*
X167285694Y-85913627D01*
X167038706Y-86078660D01*
X166828660Y-86288706D01*
X166663627Y-86535694D01*
X166549951Y-86810132D01*
X166492000Y-87101475D01*
X156739106Y-87101475D01*
X156679671Y-87061762D01*
X156610333Y-87033042D01*
X156536725Y-87018400D01*
X155721450Y-87018400D01*
X155626200Y-87113650D01*
X155372200Y-87113650D01*
X155276950Y-87018400D01*
X154461675Y-87018400D01*
X154388067Y-87033042D01*
X154318729Y-87061762D01*
X154256327Y-87103458D01*
X154203258Y-87156526D01*
X154161562Y-87218929D01*
X154132842Y-87288266D01*
X154118200Y-87361875D01*
X153403300Y-87361875D01*
X153403300Y-86836938D01*
X153406495Y-86804499D01*
X153393744Y-86675039D01*
X153378334Y-86624239D01*
X153376981Y-86619779D01*
X153377900Y-86615161D01*
X153377900Y-86435039D01*
X153342760Y-86258379D01*
X153273830Y-86091969D01*
X153173761Y-85942204D01*
X153046396Y-85814839D01*
X152896631Y-85714770D01*
X152730221Y-85645840D01*
X152553561Y-85610700D01*
X152373439Y-85610700D01*
X152196779Y-85645840D01*
X152030369Y-85714770D01*
X151880604Y-85814839D01*
X151753239Y-85942204D01*
X151653170Y-86091969D01*
X151651326Y-86096421D01*
X151619639Y-86093300D01*
X151587200Y-86090105D01*
X151554761Y-86093300D01*
X126778438Y-86093300D01*
X126745999Y-86090105D01*
X126616539Y-86102856D01*
X126492053Y-86140618D01*
X126377326Y-86201941D01*
X126276767Y-86284467D01*
X126256082Y-86309672D01*
X124161054Y-88404700D01*
X124065139Y-88404700D01*
X123888479Y-88439840D01*
X123722069Y-88508770D01*
X123572304Y-88608839D01*
X123444939Y-88736204D01*
X123344870Y-88885969D01*
X123275940Y-89052379D01*
X123240800Y-89229039D01*
X123240800Y-89409161D01*
X123275940Y-89585821D01*
X123344870Y-89752231D01*
X123444939Y-89901996D01*
X123572304Y-90029361D01*
X123722069Y-90129430D01*
X123888479Y-90198360D01*
X124065139Y-90233500D01*
X124245261Y-90233500D01*
X124421921Y-90198360D01*
X124588331Y-90129430D01*
X124738096Y-90029361D01*
X124865461Y-89901996D01*
X124965530Y-89752231D01*
X125034460Y-89585821D01*
X125069600Y-89409161D01*
X125069600Y-89364046D01*
X127019546Y-87414100D01*
X134060884Y-87414100D01*
X134060859Y-87414131D01*
X132854733Y-88620258D01*
X132826625Y-88643326D01*
X132803559Y-88671432D01*
X132803558Y-88671433D01*
X132753499Y-88732430D01*
X132734576Y-88755488D01*
X132666178Y-88883452D01*
X132624058Y-89022302D01*
X132613400Y-89130514D01*
X132609836Y-89166700D01*
X132613400Y-89202884D01*
X132613401Y-90588790D01*
X132498891Y-90703300D01*
X121812868Y-90703300D01*
X121705076Y-90614837D01*
X121579005Y-90547451D01*
X121442211Y-90505955D01*
X121299950Y-90491943D01*
X120787450Y-90491943D01*
X120645189Y-90505955D01*
X120508395Y-90547451D01*
X120434029Y-90587200D01*
X119638861Y-90587200D01*
X119599348Y-90539052D01*
X119521995Y-90475571D01*
X119433743Y-90428399D01*
X119337985Y-90399351D01*
X119238400Y-90389543D01*
X116238400Y-90389543D01*
X116138815Y-90399351D01*
X116043057Y-90428399D01*
X115954805Y-90475571D01*
X115877452Y-90539052D01*
X115813971Y-90616405D01*
X115766799Y-90704657D01*
X115737751Y-90800415D01*
X115727943Y-90900000D01*
X115583000Y-90900000D01*
X115583000Y-89083000D01*
X118421367Y-89083000D01*
X118450000Y-89085820D01*
X118478633Y-89083000D01*
X118564288Y-89074564D01*
X118674184Y-89041227D01*
X118775464Y-88987092D01*
X118864237Y-88914237D01*
X118937092Y-88825464D01*
X118991227Y-88724184D01*
X119024564Y-88614288D01*
X119035820Y-88500000D01*
X119033000Y-88471367D01*
X119033000Y-88415634D01*
X119038706Y-88421340D01*
X119285694Y-88586373D01*
X119560132Y-88700049D01*
X119851475Y-88758000D01*
X120148525Y-88758000D01*
X120439868Y-88700049D01*
X120714306Y-88586373D01*
X120961294Y-88421340D01*
X121171340Y-88211294D01*
X121336373Y-87964306D01*
X121450049Y-87689868D01*
X121508000Y-87398525D01*
X121508000Y-87101475D01*
X121450049Y-86810132D01*
X121336373Y-86535694D01*
X121171340Y-86288706D01*
X120961294Y-86078660D01*
X120714306Y-85913627D01*
X120439868Y-85799951D01*
X120148525Y-85742000D01*
X119851475Y-85742000D01*
X119560132Y-85799951D01*
X119285694Y-85913627D01*
X119038706Y-86078660D01*
X119033000Y-86084366D01*
X119033000Y-85583000D01*
X169967000Y-85583000D01*
X169967001Y-86171357D01*
G36*
X145338800Y-88443109D02*
X145338800Y-89509273D01*
X145279333Y-89484642D01*
X145205725Y-89470000D01*
X144902950Y-89470000D01*
X144807700Y-89565250D01*
X144807700Y-90424000D01*
X144827700Y-90424000D01*
X144827700Y-90678000D01*
X144807700Y-90678000D01*
X144807700Y-91536750D01*
X144902950Y-91632000D01*
X145205725Y-91632000D01*
X145279333Y-91617358D01*
X145338800Y-91592727D01*
X145338800Y-93599000D01*
X145377469Y-93793403D01*
X145487590Y-93958210D01*
X145652397Y-94068331D01*
X145846800Y-94107000D01*
X147490954Y-94107000D01*
X146012368Y-95585586D01*
X145987168Y-95606267D01*
X145904642Y-95706826D01*
X145877289Y-95758000D01*
X145843318Y-95821554D01*
X145805556Y-95946040D01*
X145792805Y-96075500D01*
X145796001Y-96107949D01*
X145796000Y-99349898D01*
X145724852Y-99456379D01*
X145662624Y-99606611D01*
X145630900Y-99766095D01*
X145630900Y-99928705D01*
X145662624Y-100088189D01*
X145724852Y-100238421D01*
X145815192Y-100373625D01*
X145930175Y-100488608D01*
X146065379Y-100578948D01*
X146215611Y-100641176D01*
X146375095Y-100672900D01*
X146537705Y-100672900D01*
X146697189Y-100641176D01*
X146847421Y-100578948D01*
X146982625Y-100488608D01*
X147054330Y-100416903D01*
X147106779Y-100451948D01*
X147257011Y-100514176D01*
X147416495Y-100545900D01*
X147579105Y-100545900D01*
X147738589Y-100514176D01*
X147888821Y-100451948D01*
X148024025Y-100361608D01*
X148139008Y-100246625D01*
X148229348Y-100111421D01*
X148291576Y-99961189D01*
X148323300Y-99801705D01*
X148323300Y-99639095D01*
X148291576Y-99479611D01*
X148229348Y-99329379D01*
X148158200Y-99222898D01*
X148158200Y-96736804D01*
X148171411Y-96742276D01*
X148297970Y-96767451D01*
X148304224Y-96798889D01*
X148366452Y-96949121D01*
X148456792Y-97084325D01*
X148571775Y-97199308D01*
X148706979Y-97289648D01*
X148857211Y-97351876D01*
X148982815Y-97376861D01*
X150279101Y-98673147D01*
X150279101Y-99230954D01*
X149904061Y-98855914D01*
X149879076Y-98730311D01*
X149816848Y-98580079D01*
X149726508Y-98444875D01*
X149611525Y-98329892D01*
X149476321Y-98239552D01*
X149326089Y-98177324D01*
X149166605Y-98145600D01*
X149003995Y-98145600D01*
X148844511Y-98177324D01*
X148694279Y-98239552D01*
X148559075Y-98329892D01*
X148444092Y-98444875D01*
X148353752Y-98580079D01*
X148291524Y-98730311D01*
X148259800Y-98889795D01*
X148259800Y-99052405D01*
X148291524Y-99211889D01*
X148353752Y-99362121D01*
X148444092Y-99497325D01*
X148559075Y-99612308D01*
X148694279Y-99702648D01*
X148807438Y-99749520D01*
X148681579Y-99801652D01*
X148546375Y-99891992D01*
X148431392Y-100006975D01*
X148341052Y-100142179D01*
X148278824Y-100292411D01*
X148247100Y-100451895D01*
X148247100Y-100614505D01*
X148278824Y-100773989D01*
X148341052Y-100924221D01*
X148431392Y-101059425D01*
X148546375Y-101174408D01*
X148681579Y-101264748D01*
X148831300Y-101326764D01*
X148831301Y-105745851D01*
X148828105Y-105778300D01*
X148840856Y-105907760D01*
X148878618Y-106032246D01*
X148886751Y-106047461D01*
X148939942Y-106146974D01*
X149022468Y-106247533D01*
X149047668Y-106268214D01*
X149161500Y-106382046D01*
X149161500Y-107072847D01*
X149081886Y-107115402D01*
X148875103Y-107285103D01*
X148705402Y-107491886D01*
X148579302Y-107727802D01*
X148570000Y-107758467D01*
X148560698Y-107727802D01*
X148434598Y-107491886D01*
X148264897Y-107285103D01*
X148058114Y-107115402D01*
X147822198Y-106989302D01*
X147566214Y-106911650D01*
X147366706Y-106892000D01*
X147233294Y-106892000D01*
X147129928Y-106902181D01*
X142963900Y-102736154D01*
X142963900Y-102613757D01*
X143013761Y-102563896D01*
X143113830Y-102414131D01*
X143182760Y-102247721D01*
X143217900Y-102071061D01*
X143217900Y-101890939D01*
X143182760Y-101714279D01*
X143113830Y-101547869D01*
X143013761Y-101398104D01*
X142886396Y-101270739D01*
X142736631Y-101170670D01*
X142570221Y-101101740D01*
X142393561Y-101066600D01*
X142213439Y-101066600D01*
X142036779Y-101101740D01*
X141870369Y-101170670D01*
X141720604Y-101270739D01*
X141593239Y-101398104D01*
X141493170Y-101547869D01*
X141424240Y-101714279D01*
X141389100Y-101890939D01*
X141389100Y-102071061D01*
X141424240Y-102247721D01*
X141493170Y-102414131D01*
X141593239Y-102563896D01*
X141643100Y-102613757D01*
X141643100Y-102977261D01*
X141639905Y-103009700D01*
X141643100Y-103042138D01*
X141652656Y-103139160D01*
X141690418Y-103263646D01*
X141751741Y-103378373D01*
X141834267Y-103478933D01*
X141859472Y-103499618D01*
X145426041Y-107066188D01*
X145282198Y-106989302D01*
X145026214Y-106911650D01*
X144826706Y-106892000D01*
X144782947Y-106892000D01*
X141198600Y-103307654D01*
X141198600Y-100184446D01*
X141776947Y-99606100D01*
X143482398Y-99606100D01*
X143588879Y-99677248D01*
X143739111Y-99739476D01*
X143898595Y-99771200D01*
X144061205Y-99771200D01*
X144220689Y-99739476D01*
X144370921Y-99677248D01*
X144506125Y-99586908D01*
X144621108Y-99471925D01*
X144711448Y-99336721D01*
X144773676Y-99186489D01*
X144805400Y-99027005D01*
X144805400Y-98864395D01*
X144773676Y-98704911D01*
X144711448Y-98554679D01*
X144621108Y-98419475D01*
X144506125Y-98304492D01*
X144370921Y-98214152D01*
X144220689Y-98151924D01*
X144061205Y-98120200D01*
X143898595Y-98120200D01*
X143739111Y-98151924D01*
X143588879Y-98214152D01*
X143482398Y-98285300D01*
X141535839Y-98285300D01*
X141503400Y-98282105D01*
X141470961Y-98285300D01*
X141373939Y-98294856D01*
X141249453Y-98332618D01*
X141134726Y-98393941D01*
X141034167Y-98476467D01*
X141013486Y-98501667D01*
X140347700Y-99167454D01*
X140347700Y-99092246D01*
X142145247Y-97294700D01*
X143507798Y-97294700D01*
X143614279Y-97365848D01*
X143764511Y-97428076D01*
X143923995Y-97459800D01*
X144086605Y-97459800D01*
X144246089Y-97428076D01*
X144396321Y-97365848D01*
X144531525Y-97275508D01*
X144646508Y-97160525D01*
X144736848Y-97025321D01*
X144799076Y-96875089D01*
X144830800Y-96715605D01*
X144830800Y-96552995D01*
X144799076Y-96393511D01*
X144736848Y-96243279D01*
X144646508Y-96108075D01*
X144531525Y-95993092D01*
X144396321Y-95902752D01*
X144246089Y-95840524D01*
X144086605Y-95808800D01*
X143923995Y-95808800D01*
X143764511Y-95840524D01*
X143614279Y-95902752D01*
X143507798Y-95973900D01*
X142259546Y-95973900D01*
X143115834Y-95117613D01*
X143141033Y-95096933D01*
X143223559Y-94996374D01*
X143284882Y-94881647D01*
X143322644Y-94757161D01*
X143324132Y-94742053D01*
X143335396Y-94627700D01*
X143332200Y-94595254D01*
X143332200Y-94130157D01*
X143382061Y-94080296D01*
X143482130Y-93930531D01*
X143551060Y-93764121D01*
X143586200Y-93587461D01*
X143586200Y-93407339D01*
X143551060Y-93230679D01*
X143482130Y-93064269D01*
X143382061Y-92914504D01*
X143254696Y-92787139D01*
X143104931Y-92687070D01*
X142938521Y-92618140D01*
X142761861Y-92583000D01*
X142581739Y-92583000D01*
X142405079Y-92618140D01*
X142238669Y-92687070D01*
X142088904Y-92787139D01*
X141961539Y-92914504D01*
X141862690Y-93062444D01*
X141401800Y-92601554D01*
X141401800Y-92288657D01*
X141451661Y-92238796D01*
X141551730Y-92089031D01*
X141620660Y-91922621D01*
X141655800Y-91745961D01*
X141655800Y-91565839D01*
X141620660Y-91389179D01*
X141551730Y-91222769D01*
X141451661Y-91073004D01*
X141324296Y-90945639D01*
X141174531Y-90845570D01*
X141008121Y-90776640D01*
X140991079Y-90773250D01*
X143812200Y-90773250D01*
X143812200Y-91288525D01*
X143826842Y-91362134D01*
X143855562Y-91431471D01*
X143897258Y-91493874D01*
X143950327Y-91546942D01*
X144012729Y-91588638D01*
X144082067Y-91617358D01*
X144155675Y-91632000D01*
X144458450Y-91632000D01*
X144553700Y-91536750D01*
X144553700Y-90678000D01*
X143907450Y-90678000D01*
X143812200Y-90773250D01*
X140991079Y-90773250D01*
X140831461Y-90741500D01*
X140651339Y-90741500D01*
X140474679Y-90776640D01*
X140309600Y-90845019D01*
X140309600Y-90587186D01*
X140313164Y-90551000D01*
X140298942Y-90406601D01*
X140268122Y-90305001D01*
X140256822Y-90267751D01*
X140188424Y-90139787D01*
X140139686Y-90080400D01*
X140119442Y-90055732D01*
X140119441Y-90055731D01*
X140096375Y-90027625D01*
X140068269Y-90004559D01*
X139877185Y-89813475D01*
X143812200Y-89813475D01*
X143812200Y-90328750D01*
X143907450Y-90424000D01*
X144553700Y-90424000D01*
X144553700Y-89565250D01*
X144458450Y-89470000D01*
X144155675Y-89470000D01*
X144082067Y-89484642D01*
X144012729Y-89513362D01*
X143950327Y-89555058D01*
X143897258Y-89608126D01*
X143855562Y-89670529D01*
X143826842Y-89739866D01*
X143812200Y-89813475D01*
X139877185Y-89813475D01*
X138316009Y-88252300D01*
X138392209Y-88176100D01*
X145071791Y-88176100D01*
X145338800Y-88443109D01*
X145338800Y-88443109D01*
G37*
X145338800Y-88443109D02*
X145338800Y-89509273D01*
X145279333Y-89484642D01*
X145205725Y-89470000D01*
X144902950Y-89470000D01*
X144807700Y-89565250D01*
X144807700Y-90424000D01*
X144827700Y-90424000D01*
X144827700Y-90678000D01*
X144807700Y-90678000D01*
X144807700Y-91536750D01*
X144902950Y-91632000D01*
X145205725Y-91632000D01*
X145279333Y-91617358D01*
X145338800Y-91592727D01*
X145338800Y-93599000D01*
X145377469Y-93793403D01*
X145487590Y-93958210D01*
X145652397Y-94068331D01*
X145846800Y-94107000D01*
X147490954Y-94107000D01*
X146012368Y-95585586D01*
X145987168Y-95606267D01*
X145904642Y-95706826D01*
X145877289Y-95758000D01*
X145843318Y-95821554D01*
X145805556Y-95946040D01*
X145792805Y-96075500D01*
X145796001Y-96107949D01*
X145796000Y-99349898D01*
X145724852Y-99456379D01*
X145662624Y-99606611D01*
X145630900Y-99766095D01*
X145630900Y-99928705D01*
X145662624Y-100088189D01*
X145724852Y-100238421D01*
X145815192Y-100373625D01*
X145930175Y-100488608D01*
X146065379Y-100578948D01*
X146215611Y-100641176D01*
X146375095Y-100672900D01*
X146537705Y-100672900D01*
X146697189Y-100641176D01*
X146847421Y-100578948D01*
X146982625Y-100488608D01*
X147054330Y-100416903D01*
X147106779Y-100451948D01*
X147257011Y-100514176D01*
X147416495Y-100545900D01*
X147579105Y-100545900D01*
X147738589Y-100514176D01*
X147888821Y-100451948D01*
X148024025Y-100361608D01*
X148139008Y-100246625D01*
X148229348Y-100111421D01*
X148291576Y-99961189D01*
X148323300Y-99801705D01*
X148323300Y-99639095D01*
X148291576Y-99479611D01*
X148229348Y-99329379D01*
X148158200Y-99222898D01*
X148158200Y-96736804D01*
X148171411Y-96742276D01*
X148297970Y-96767451D01*
X148304224Y-96798889D01*
X148366452Y-96949121D01*
X148456792Y-97084325D01*
X148571775Y-97199308D01*
X148706979Y-97289648D01*
X148857211Y-97351876D01*
X148982815Y-97376861D01*
X150279101Y-98673147D01*
X150279101Y-99230954D01*
X149904061Y-98855914D01*
X149879076Y-98730311D01*
X149816848Y-98580079D01*
X149726508Y-98444875D01*
X149611525Y-98329892D01*
X149476321Y-98239552D01*
X149326089Y-98177324D01*
X149166605Y-98145600D01*
X149003995Y-98145600D01*
X148844511Y-98177324D01*
X148694279Y-98239552D01*
X148559075Y-98329892D01*
X148444092Y-98444875D01*
X148353752Y-98580079D01*
X148291524Y-98730311D01*
X148259800Y-98889795D01*
X148259800Y-99052405D01*
X148291524Y-99211889D01*
X148353752Y-99362121D01*
X148444092Y-99497325D01*
X148559075Y-99612308D01*
X148694279Y-99702648D01*
X148807438Y-99749520D01*
X148681579Y-99801652D01*
X148546375Y-99891992D01*
X148431392Y-100006975D01*
X148341052Y-100142179D01*
X148278824Y-100292411D01*
X148247100Y-100451895D01*
X148247100Y-100614505D01*
X148278824Y-100773989D01*
X148341052Y-100924221D01*
X148431392Y-101059425D01*
X148546375Y-101174408D01*
X148681579Y-101264748D01*
X148831300Y-101326764D01*
X148831301Y-105745851D01*
X148828105Y-105778300D01*
X148840856Y-105907760D01*
X148878618Y-106032246D01*
X148886751Y-106047461D01*
X148939942Y-106146974D01*
X149022468Y-106247533D01*
X149047668Y-106268214D01*
X149161500Y-106382046D01*
X149161500Y-107072847D01*
X149081886Y-107115402D01*
X148875103Y-107285103D01*
X148705402Y-107491886D01*
X148579302Y-107727802D01*
X148570000Y-107758467D01*
X148560698Y-107727802D01*
X148434598Y-107491886D01*
X148264897Y-107285103D01*
X148058114Y-107115402D01*
X147822198Y-106989302D01*
X147566214Y-106911650D01*
X147366706Y-106892000D01*
X147233294Y-106892000D01*
X147129928Y-106902181D01*
X142963900Y-102736154D01*
X142963900Y-102613757D01*
X143013761Y-102563896D01*
X143113830Y-102414131D01*
X143182760Y-102247721D01*
X143217900Y-102071061D01*
X143217900Y-101890939D01*
X143182760Y-101714279D01*
X143113830Y-101547869D01*
X143013761Y-101398104D01*
X142886396Y-101270739D01*
X142736631Y-101170670D01*
X142570221Y-101101740D01*
X142393561Y-101066600D01*
X142213439Y-101066600D01*
X142036779Y-101101740D01*
X141870369Y-101170670D01*
X141720604Y-101270739D01*
X141593239Y-101398104D01*
X141493170Y-101547869D01*
X141424240Y-101714279D01*
X141389100Y-101890939D01*
X141389100Y-102071061D01*
X141424240Y-102247721D01*
X141493170Y-102414131D01*
X141593239Y-102563896D01*
X141643100Y-102613757D01*
X141643100Y-102977261D01*
X141639905Y-103009700D01*
X141643100Y-103042138D01*
X141652656Y-103139160D01*
X141690418Y-103263646D01*
X141751741Y-103378373D01*
X141834267Y-103478933D01*
X141859472Y-103499618D01*
X145426041Y-107066188D01*
X145282198Y-106989302D01*
X145026214Y-106911650D01*
X144826706Y-106892000D01*
X144782947Y-106892000D01*
X141198600Y-103307654D01*
X141198600Y-100184446D01*
X141776947Y-99606100D01*
X143482398Y-99606100D01*
X143588879Y-99677248D01*
X143739111Y-99739476D01*
X143898595Y-99771200D01*
X144061205Y-99771200D01*
X144220689Y-99739476D01*
X144370921Y-99677248D01*
X144506125Y-99586908D01*
X144621108Y-99471925D01*
X144711448Y-99336721D01*
X144773676Y-99186489D01*
X144805400Y-99027005D01*
X144805400Y-98864395D01*
X144773676Y-98704911D01*
X144711448Y-98554679D01*
X144621108Y-98419475D01*
X144506125Y-98304492D01*
X144370921Y-98214152D01*
X144220689Y-98151924D01*
X144061205Y-98120200D01*
X143898595Y-98120200D01*
X143739111Y-98151924D01*
X143588879Y-98214152D01*
X143482398Y-98285300D01*
X141535839Y-98285300D01*
X141503400Y-98282105D01*
X141470961Y-98285300D01*
X141373939Y-98294856D01*
X141249453Y-98332618D01*
X141134726Y-98393941D01*
X141034167Y-98476467D01*
X141013486Y-98501667D01*
X140347700Y-99167454D01*
X140347700Y-99092246D01*
X142145247Y-97294700D01*
X143507798Y-97294700D01*
X143614279Y-97365848D01*
X143764511Y-97428076D01*
X143923995Y-97459800D01*
X144086605Y-97459800D01*
X144246089Y-97428076D01*
X144396321Y-97365848D01*
X144531525Y-97275508D01*
X144646508Y-97160525D01*
X144736848Y-97025321D01*
X144799076Y-96875089D01*
X144830800Y-96715605D01*
X144830800Y-96552995D01*
X144799076Y-96393511D01*
X144736848Y-96243279D01*
X144646508Y-96108075D01*
X144531525Y-95993092D01*
X144396321Y-95902752D01*
X144246089Y-95840524D01*
X144086605Y-95808800D01*
X143923995Y-95808800D01*
X143764511Y-95840524D01*
X143614279Y-95902752D01*
X143507798Y-95973900D01*
X142259546Y-95973900D01*
X143115834Y-95117613D01*
X143141033Y-95096933D01*
X143223559Y-94996374D01*
X143284882Y-94881647D01*
X143322644Y-94757161D01*
X143324132Y-94742053D01*
X143335396Y-94627700D01*
X143332200Y-94595254D01*
X143332200Y-94130157D01*
X143382061Y-94080296D01*
X143482130Y-93930531D01*
X143551060Y-93764121D01*
X143586200Y-93587461D01*
X143586200Y-93407339D01*
X143551060Y-93230679D01*
X143482130Y-93064269D01*
X143382061Y-92914504D01*
X143254696Y-92787139D01*
X143104931Y-92687070D01*
X142938521Y-92618140D01*
X142761861Y-92583000D01*
X142581739Y-92583000D01*
X142405079Y-92618140D01*
X142238669Y-92687070D01*
X142088904Y-92787139D01*
X141961539Y-92914504D01*
X141862690Y-93062444D01*
X141401800Y-92601554D01*
X141401800Y-92288657D01*
X141451661Y-92238796D01*
X141551730Y-92089031D01*
X141620660Y-91922621D01*
X141655800Y-91745961D01*
X141655800Y-91565839D01*
X141620660Y-91389179D01*
X141551730Y-91222769D01*
X141451661Y-91073004D01*
X141324296Y-90945639D01*
X141174531Y-90845570D01*
X141008121Y-90776640D01*
X140991079Y-90773250D01*
X143812200Y-90773250D01*
X143812200Y-91288525D01*
X143826842Y-91362134D01*
X143855562Y-91431471D01*
X143897258Y-91493874D01*
X143950327Y-91546942D01*
X144012729Y-91588638D01*
X144082067Y-91617358D01*
X144155675Y-91632000D01*
X144458450Y-91632000D01*
X144553700Y-91536750D01*
X144553700Y-90678000D01*
X143907450Y-90678000D01*
X143812200Y-90773250D01*
X140991079Y-90773250D01*
X140831461Y-90741500D01*
X140651339Y-90741500D01*
X140474679Y-90776640D01*
X140309600Y-90845019D01*
X140309600Y-90587186D01*
X140313164Y-90551000D01*
X140298942Y-90406601D01*
X140268122Y-90305001D01*
X140256822Y-90267751D01*
X140188424Y-90139787D01*
X140139686Y-90080400D01*
X140119442Y-90055732D01*
X140119441Y-90055731D01*
X140096375Y-90027625D01*
X140068269Y-90004559D01*
X139877185Y-89813475D01*
X143812200Y-89813475D01*
X143812200Y-90328750D01*
X143907450Y-90424000D01*
X144553700Y-90424000D01*
X144553700Y-89565250D01*
X144458450Y-89470000D01*
X144155675Y-89470000D01*
X144082067Y-89484642D01*
X144012729Y-89513362D01*
X143950327Y-89555058D01*
X143897258Y-89608126D01*
X143855562Y-89670529D01*
X143826842Y-89739866D01*
X143812200Y-89813475D01*
X139877185Y-89813475D01*
X138316009Y-88252300D01*
X138392209Y-88176100D01*
X145071791Y-88176100D01*
X145338800Y-88443109D01*
G36*
X139788900Y-94197061D02*
X139824040Y-94373721D01*
X139892970Y-94540131D01*
X139993039Y-94689896D01*
X140120404Y-94817261D01*
X140159823Y-94843600D01*
X137700247Y-94843600D01*
X138386047Y-94157800D01*
X139788900Y-94157800D01*
X139788900Y-94197061D01*
X139788900Y-94197061D01*
G37*
X139788900Y-94197061D02*
X139824040Y-94373721D01*
X139892970Y-94540131D01*
X139993039Y-94689896D01*
X140120404Y-94817261D01*
X140159823Y-94843600D01*
X137700247Y-94843600D01*
X138386047Y-94157800D01*
X139788900Y-94157800D01*
X139788900Y-94197061D01*
G04 #@! TO.N,VCC*
G36*
X151396700Y-87497147D02*
X151396700Y-93370400D01*
X148533538Y-93370400D01*
X148501099Y-93367205D01*
X148371639Y-93379956D01*
X148247153Y-93417718D01*
X148145599Y-93472000D01*
X145973800Y-93472000D01*
X145973800Y-91620687D01*
X146030675Y-91632000D01*
X146333450Y-91632000D01*
X146428700Y-91536750D01*
X146428700Y-90678000D01*
X146682700Y-90678000D01*
X146682700Y-91536750D01*
X146777950Y-91632000D01*
X147080725Y-91632000D01*
X147154333Y-91617358D01*
X147223671Y-91588638D01*
X147286073Y-91546942D01*
X147339142Y-91493874D01*
X147380838Y-91431471D01*
X147409558Y-91362134D01*
X147424200Y-91288525D01*
X147424200Y-90773250D01*
X147328950Y-90678000D01*
X146682700Y-90678000D01*
X146428700Y-90678000D01*
X146408700Y-90678000D01*
X146408700Y-90671650D01*
X147818200Y-90671650D01*
X147818200Y-92386925D01*
X147832842Y-92460534D01*
X147861562Y-92529871D01*
X147903258Y-92592274D01*
X147956327Y-92645342D01*
X148018729Y-92687038D01*
X148088067Y-92715758D01*
X148161675Y-92730400D01*
X148976950Y-92730400D01*
X149072200Y-92635150D01*
X149072200Y-90576400D01*
X149326200Y-90576400D01*
X149326200Y-92635150D01*
X149421450Y-92730400D01*
X150236725Y-92730400D01*
X150310333Y-92715758D01*
X150379671Y-92687038D01*
X150442073Y-92645342D01*
X150495142Y-92592274D01*
X150536838Y-92529871D01*
X150565558Y-92460534D01*
X150580200Y-92386925D01*
X150580200Y-90671650D01*
X150484950Y-90576400D01*
X149326200Y-90576400D01*
X149072200Y-90576400D01*
X147913450Y-90576400D01*
X147818200Y-90671650D01*
X146408700Y-90671650D01*
X146408700Y-90424000D01*
X146428700Y-90424000D01*
X146428700Y-89565250D01*
X146682700Y-89565250D01*
X146682700Y-90424000D01*
X147328950Y-90424000D01*
X147424200Y-90328750D01*
X147424200Y-89813475D01*
X147409558Y-89739866D01*
X147380838Y-89670529D01*
X147339142Y-89608126D01*
X147286073Y-89555058D01*
X147223671Y-89513362D01*
X147154333Y-89484642D01*
X147080725Y-89470000D01*
X146777950Y-89470000D01*
X146682700Y-89565250D01*
X146428700Y-89565250D01*
X146333450Y-89470000D01*
X146030675Y-89470000D01*
X145973800Y-89481313D01*
X145973800Y-88511875D01*
X147818200Y-88511875D01*
X147818200Y-90227150D01*
X147913450Y-90322400D01*
X149072200Y-90322400D01*
X149072200Y-88263650D01*
X149326200Y-88263650D01*
X149326200Y-90322400D01*
X150484950Y-90322400D01*
X150580200Y-90227150D01*
X150580200Y-88511875D01*
X150565558Y-88438266D01*
X150536838Y-88368929D01*
X150495142Y-88306526D01*
X150442073Y-88253458D01*
X150379671Y-88211762D01*
X150310333Y-88183042D01*
X150236725Y-88168400D01*
X149421450Y-88168400D01*
X149326200Y-88263650D01*
X149072200Y-88263650D01*
X148976950Y-88168400D01*
X148161675Y-88168400D01*
X148088067Y-88183042D01*
X148018729Y-88211762D01*
X147956327Y-88253458D01*
X147903258Y-88306526D01*
X147861562Y-88368929D01*
X147832842Y-88438266D01*
X147818200Y-88511875D01*
X145973800Y-88511875D01*
X145973800Y-87439500D01*
X151339054Y-87439500D01*
X151396700Y-87497147D01*
X151396700Y-87497147D01*
G37*
X151396700Y-87497147D02*
X151396700Y-93370400D01*
X148533538Y-93370400D01*
X148501099Y-93367205D01*
X148371639Y-93379956D01*
X148247153Y-93417718D01*
X148145599Y-93472000D01*
X145973800Y-93472000D01*
X145973800Y-91620687D01*
X146030675Y-91632000D01*
X146333450Y-91632000D01*
X146428700Y-91536750D01*
X146428700Y-90678000D01*
X146682700Y-90678000D01*
X146682700Y-91536750D01*
X146777950Y-91632000D01*
X147080725Y-91632000D01*
X147154333Y-91617358D01*
X147223671Y-91588638D01*
X147286073Y-91546942D01*
X147339142Y-91493874D01*
X147380838Y-91431471D01*
X147409558Y-91362134D01*
X147424200Y-91288525D01*
X147424200Y-90773250D01*
X147328950Y-90678000D01*
X146682700Y-90678000D01*
X146428700Y-90678000D01*
X146408700Y-90678000D01*
X146408700Y-90671650D01*
X147818200Y-90671650D01*
X147818200Y-92386925D01*
X147832842Y-92460534D01*
X147861562Y-92529871D01*
X147903258Y-92592274D01*
X147956327Y-92645342D01*
X148018729Y-92687038D01*
X148088067Y-92715758D01*
X148161675Y-92730400D01*
X148976950Y-92730400D01*
X149072200Y-92635150D01*
X149072200Y-90576400D01*
X149326200Y-90576400D01*
X149326200Y-92635150D01*
X149421450Y-92730400D01*
X150236725Y-92730400D01*
X150310333Y-92715758D01*
X150379671Y-92687038D01*
X150442073Y-92645342D01*
X150495142Y-92592274D01*
X150536838Y-92529871D01*
X150565558Y-92460534D01*
X150580200Y-92386925D01*
X150580200Y-90671650D01*
X150484950Y-90576400D01*
X149326200Y-90576400D01*
X149072200Y-90576400D01*
X147913450Y-90576400D01*
X147818200Y-90671650D01*
X146408700Y-90671650D01*
X146408700Y-90424000D01*
X146428700Y-90424000D01*
X146428700Y-89565250D01*
X146682700Y-89565250D01*
X146682700Y-90424000D01*
X147328950Y-90424000D01*
X147424200Y-90328750D01*
X147424200Y-89813475D01*
X147409558Y-89739866D01*
X147380838Y-89670529D01*
X147339142Y-89608126D01*
X147286073Y-89555058D01*
X147223671Y-89513362D01*
X147154333Y-89484642D01*
X147080725Y-89470000D01*
X146777950Y-89470000D01*
X146682700Y-89565250D01*
X146428700Y-89565250D01*
X146333450Y-89470000D01*
X146030675Y-89470000D01*
X145973800Y-89481313D01*
X145973800Y-88511875D01*
X147818200Y-88511875D01*
X147818200Y-90227150D01*
X147913450Y-90322400D01*
X149072200Y-90322400D01*
X149072200Y-88263650D01*
X149326200Y-88263650D01*
X149326200Y-90322400D01*
X150484950Y-90322400D01*
X150580200Y-90227150D01*
X150580200Y-88511875D01*
X150565558Y-88438266D01*
X150536838Y-88368929D01*
X150495142Y-88306526D01*
X150442073Y-88253458D01*
X150379671Y-88211762D01*
X150310333Y-88183042D01*
X150236725Y-88168400D01*
X149421450Y-88168400D01*
X149326200Y-88263650D01*
X149072200Y-88263650D01*
X148976950Y-88168400D01*
X148161675Y-88168400D01*
X148088067Y-88183042D01*
X148018729Y-88211762D01*
X147956327Y-88253458D01*
X147903258Y-88306526D01*
X147861562Y-88368929D01*
X147832842Y-88438266D01*
X147818200Y-88511875D01*
X145973800Y-88511875D01*
X145973800Y-87439500D01*
X151339054Y-87439500D01*
X151396700Y-87497147D01*
G04 #@! TD*
M02*
