G04 #@! TF.GenerationSoftware,KiCad,Pcbnew,(5.0.0-3-g5ebb6b6)*
G04 #@! TF.CreationDate,2019-02-08T12:04:07-05:00*
G04 #@! TF.ProjectId,ROCKETasp,524F434B45546173702E6B696361645F,2.0*
G04 #@! TF.SameCoordinates,Original*
G04 #@! TF.FileFunction,Copper,L1,Top,Signal*
G04 #@! TF.FilePolarity,Positive*
%FSLAX46Y46*%
G04 Gerber Fmt 4.6, Leading zero omitted, Abs format (unit mm)*
G04 Created by KiCad (PCBNEW (5.0.0-3-g5ebb6b6)) date Friday, February 08, 2019 at 12:04:07 PM*
%MOMM*%
%LPD*%
G01*
G04 APERTURE LIST*
G04 #@! TA.AperFunction,NonConductor*
%ADD10C,0.300000*%
G04 #@! TD*
G04 #@! TA.AperFunction,SMDPad,CuDef*
%ADD11R,1.200000X0.600000*%
G04 #@! TD*
G04 #@! TA.AperFunction,Conductor*
%ADD12C,0.100000*%
G04 #@! TD*
G04 #@! TA.AperFunction,SMDPad,CuDef*
%ADD13C,0.875000*%
G04 #@! TD*
G04 #@! TA.AperFunction,SMDPad,CuDef*
%ADD14R,0.800000X0.900000*%
G04 #@! TD*
G04 #@! TA.AperFunction,SMDPad,CuDef*
%ADD15R,2.500000X1.100000*%
G04 #@! TD*
G04 #@! TA.AperFunction,ComponentPad*
%ADD16O,3.500000X1.900000*%
G04 #@! TD*
G04 #@! TA.AperFunction,ComponentPad*
%ADD17R,1.700000X1.700000*%
G04 #@! TD*
G04 #@! TA.AperFunction,ComponentPad*
%ADD18O,1.700000X1.700000*%
G04 #@! TD*
G04 #@! TA.AperFunction,SMDPad,CuDef*
%ADD19R,3.000000X1.000000*%
G04 #@! TD*
G04 #@! TA.AperFunction,SMDPad,CuDef*
%ADD20R,2.440000X1.120000*%
G04 #@! TD*
G04 #@! TA.AperFunction,SMDPad,CuDef*
%ADD21R,1.600000X0.550000*%
G04 #@! TD*
G04 #@! TA.AperFunction,SMDPad,CuDef*
%ADD22R,0.550000X1.600000*%
G04 #@! TD*
G04 #@! TA.AperFunction,SMDPad,CuDef*
%ADD23R,1.300000X1.600000*%
G04 #@! TD*
G04 #@! TA.AperFunction,ViaPad*
%ADD24C,0.762000*%
G04 #@! TD*
G04 #@! TA.AperFunction,ViaPad*
%ADD25C,0.635000*%
G04 #@! TD*
G04 #@! TA.AperFunction,ViaPad*
%ADD26C,0.812800*%
G04 #@! TD*
G04 #@! TA.AperFunction,ViaPad*
%ADD27C,0.889000*%
G04 #@! TD*
G04 #@! TA.AperFunction,Conductor*
%ADD28C,0.457200*%
G04 #@! TD*
G04 #@! TA.AperFunction,Conductor*
%ADD29C,0.304800*%
G04 #@! TD*
G04 #@! TA.AperFunction,Conductor*
%ADD30C,0.812800*%
G04 #@! TD*
G04 #@! TA.AperFunction,Conductor*
%ADD31C,0.254000*%
G04 #@! TD*
G04 APERTURE END LIST*
D10*
X159837714Y-86198971D02*
X159980571Y-86198971D01*
X160123428Y-86270400D01*
X160194857Y-86341828D01*
X160266285Y-86484685D01*
X160337714Y-86770400D01*
X160337714Y-87127542D01*
X160266285Y-87413257D01*
X160194857Y-87556114D01*
X160123428Y-87627542D01*
X159980571Y-87698971D01*
X159837714Y-87698971D01*
X159694857Y-87627542D01*
X159623428Y-87556114D01*
X159552000Y-87413257D01*
X159480571Y-87127542D01*
X159480571Y-86770400D01*
X159552000Y-86484685D01*
X159623428Y-86341828D01*
X159694857Y-86270400D01*
X159837714Y-86198971D01*
X161694857Y-86198971D02*
X160980571Y-86198971D01*
X160909142Y-86913257D01*
X160980571Y-86841828D01*
X161123428Y-86770400D01*
X161480571Y-86770400D01*
X161623428Y-86841828D01*
X161694857Y-86913257D01*
X161766285Y-87056114D01*
X161766285Y-87413257D01*
X161694857Y-87556114D01*
X161623428Y-87627542D01*
X161480571Y-87698971D01*
X161123428Y-87698971D01*
X160980571Y-87627542D01*
X160909142Y-87556114D01*
X163194857Y-87698971D02*
X162337714Y-87698971D01*
X162766285Y-87698971D02*
X162766285Y-86198971D01*
X162623428Y-86413257D01*
X162480571Y-86556114D01*
X162337714Y-86627542D01*
X163909142Y-87698971D02*
X164194857Y-87698971D01*
X164337714Y-87627542D01*
X164409142Y-87556114D01*
X164552000Y-87341828D01*
X164623428Y-87056114D01*
X164623428Y-86484685D01*
X164552000Y-86341828D01*
X164480571Y-86270400D01*
X164337714Y-86198971D01*
X164052000Y-86198971D01*
X163909142Y-86270400D01*
X163837714Y-86341828D01*
X163766285Y-86484685D01*
X163766285Y-86841828D01*
X163837714Y-86984685D01*
X163909142Y-87056114D01*
X164052000Y-87127542D01*
X164337714Y-87127542D01*
X164480571Y-87056114D01*
X164552000Y-86984685D01*
X164623428Y-86841828D01*
D11*
G04 #@! TO.P,D2,1*
G04 #@! TO.N,Net-(D2-Pad1)*
X127900000Y-107025000D03*
G04 #@! TO.P,D2,2*
G04 #@! TO.N,GND*
X126100000Y-107025000D03*
G04 #@! TO.P,D2,3*
X126100000Y-107975000D03*
G04 #@! TO.P,D2,4*
G04 #@! TO.N,Net-(D2-Pad4)*
X127900000Y-107975000D03*
G04 #@! TD*
D12*
G04 #@! TO.N,GND*
G04 #@! TO.C,C1*
G36*
X156881891Y-97062053D02*
X156903126Y-97065203D01*
X156923950Y-97070419D01*
X156944162Y-97077651D01*
X156963568Y-97086830D01*
X156981981Y-97097866D01*
X156999224Y-97110654D01*
X157015130Y-97125070D01*
X157029546Y-97140976D01*
X157042334Y-97158219D01*
X157053370Y-97176632D01*
X157062549Y-97196038D01*
X157069781Y-97216250D01*
X157074997Y-97237074D01*
X157078147Y-97258309D01*
X157079200Y-97279750D01*
X157079200Y-97792250D01*
X157078147Y-97813691D01*
X157074997Y-97834926D01*
X157069781Y-97855750D01*
X157062549Y-97875962D01*
X157053370Y-97895368D01*
X157042334Y-97913781D01*
X157029546Y-97931024D01*
X157015130Y-97946930D01*
X156999224Y-97961346D01*
X156981981Y-97974134D01*
X156963568Y-97985170D01*
X156944162Y-97994349D01*
X156923950Y-98001581D01*
X156903126Y-98006797D01*
X156881891Y-98009947D01*
X156860450Y-98011000D01*
X156422950Y-98011000D01*
X156401509Y-98009947D01*
X156380274Y-98006797D01*
X156359450Y-98001581D01*
X156339238Y-97994349D01*
X156319832Y-97985170D01*
X156301419Y-97974134D01*
X156284176Y-97961346D01*
X156268270Y-97946930D01*
X156253854Y-97931024D01*
X156241066Y-97913781D01*
X156230030Y-97895368D01*
X156220851Y-97875962D01*
X156213619Y-97855750D01*
X156208403Y-97834926D01*
X156205253Y-97813691D01*
X156204200Y-97792250D01*
X156204200Y-97279750D01*
X156205253Y-97258309D01*
X156208403Y-97237074D01*
X156213619Y-97216250D01*
X156220851Y-97196038D01*
X156230030Y-97176632D01*
X156241066Y-97158219D01*
X156253854Y-97140976D01*
X156268270Y-97125070D01*
X156284176Y-97110654D01*
X156301419Y-97097866D01*
X156319832Y-97086830D01*
X156339238Y-97077651D01*
X156359450Y-97070419D01*
X156380274Y-97065203D01*
X156401509Y-97062053D01*
X156422950Y-97061000D01*
X156860450Y-97061000D01*
X156881891Y-97062053D01*
X156881891Y-97062053D01*
G37*
D13*
G04 #@! TD*
G04 #@! TO.P,C1,2*
G04 #@! TO.N,GND*
X156641700Y-97536000D03*
D12*
G04 #@! TO.N,Net-(C1-Pad1)*
G04 #@! TO.C,C1*
G36*
X158456891Y-97062053D02*
X158478126Y-97065203D01*
X158498950Y-97070419D01*
X158519162Y-97077651D01*
X158538568Y-97086830D01*
X158556981Y-97097866D01*
X158574224Y-97110654D01*
X158590130Y-97125070D01*
X158604546Y-97140976D01*
X158617334Y-97158219D01*
X158628370Y-97176632D01*
X158637549Y-97196038D01*
X158644781Y-97216250D01*
X158649997Y-97237074D01*
X158653147Y-97258309D01*
X158654200Y-97279750D01*
X158654200Y-97792250D01*
X158653147Y-97813691D01*
X158649997Y-97834926D01*
X158644781Y-97855750D01*
X158637549Y-97875962D01*
X158628370Y-97895368D01*
X158617334Y-97913781D01*
X158604546Y-97931024D01*
X158590130Y-97946930D01*
X158574224Y-97961346D01*
X158556981Y-97974134D01*
X158538568Y-97985170D01*
X158519162Y-97994349D01*
X158498950Y-98001581D01*
X158478126Y-98006797D01*
X158456891Y-98009947D01*
X158435450Y-98011000D01*
X157997950Y-98011000D01*
X157976509Y-98009947D01*
X157955274Y-98006797D01*
X157934450Y-98001581D01*
X157914238Y-97994349D01*
X157894832Y-97985170D01*
X157876419Y-97974134D01*
X157859176Y-97961346D01*
X157843270Y-97946930D01*
X157828854Y-97931024D01*
X157816066Y-97913781D01*
X157805030Y-97895368D01*
X157795851Y-97875962D01*
X157788619Y-97855750D01*
X157783403Y-97834926D01*
X157780253Y-97813691D01*
X157779200Y-97792250D01*
X157779200Y-97279750D01*
X157780253Y-97258309D01*
X157783403Y-97237074D01*
X157788619Y-97216250D01*
X157795851Y-97196038D01*
X157805030Y-97176632D01*
X157816066Y-97158219D01*
X157828854Y-97140976D01*
X157843270Y-97125070D01*
X157859176Y-97110654D01*
X157876419Y-97097866D01*
X157894832Y-97086830D01*
X157914238Y-97077651D01*
X157934450Y-97070419D01*
X157955274Y-97065203D01*
X157976509Y-97062053D01*
X157997950Y-97061000D01*
X158435450Y-97061000D01*
X158456891Y-97062053D01*
X158456891Y-97062053D01*
G37*
D13*
G04 #@! TD*
G04 #@! TO.P,C1,1*
G04 #@! TO.N,Net-(C1-Pad1)*
X158216700Y-97536000D03*
D12*
G04 #@! TO.N,GND*
G04 #@! TO.C,C2*
G36*
X157732991Y-88730853D02*
X157754226Y-88734003D01*
X157775050Y-88739219D01*
X157795262Y-88746451D01*
X157814668Y-88755630D01*
X157833081Y-88766666D01*
X157850324Y-88779454D01*
X157866230Y-88793870D01*
X157880646Y-88809776D01*
X157893434Y-88827019D01*
X157904470Y-88845432D01*
X157913649Y-88864838D01*
X157920881Y-88885050D01*
X157926097Y-88905874D01*
X157929247Y-88927109D01*
X157930300Y-88948550D01*
X157930300Y-89461050D01*
X157929247Y-89482491D01*
X157926097Y-89503726D01*
X157920881Y-89524550D01*
X157913649Y-89544762D01*
X157904470Y-89564168D01*
X157893434Y-89582581D01*
X157880646Y-89599824D01*
X157866230Y-89615730D01*
X157850324Y-89630146D01*
X157833081Y-89642934D01*
X157814668Y-89653970D01*
X157795262Y-89663149D01*
X157775050Y-89670381D01*
X157754226Y-89675597D01*
X157732991Y-89678747D01*
X157711550Y-89679800D01*
X157274050Y-89679800D01*
X157252609Y-89678747D01*
X157231374Y-89675597D01*
X157210550Y-89670381D01*
X157190338Y-89663149D01*
X157170932Y-89653970D01*
X157152519Y-89642934D01*
X157135276Y-89630146D01*
X157119370Y-89615730D01*
X157104954Y-89599824D01*
X157092166Y-89582581D01*
X157081130Y-89564168D01*
X157071951Y-89544762D01*
X157064719Y-89524550D01*
X157059503Y-89503726D01*
X157056353Y-89482491D01*
X157055300Y-89461050D01*
X157055300Y-88948550D01*
X157056353Y-88927109D01*
X157059503Y-88905874D01*
X157064719Y-88885050D01*
X157071951Y-88864838D01*
X157081130Y-88845432D01*
X157092166Y-88827019D01*
X157104954Y-88809776D01*
X157119370Y-88793870D01*
X157135276Y-88779454D01*
X157152519Y-88766666D01*
X157170932Y-88755630D01*
X157190338Y-88746451D01*
X157210550Y-88739219D01*
X157231374Y-88734003D01*
X157252609Y-88730853D01*
X157274050Y-88729800D01*
X157711550Y-88729800D01*
X157732991Y-88730853D01*
X157732991Y-88730853D01*
G37*
D13*
G04 #@! TD*
G04 #@! TO.P,C2,2*
G04 #@! TO.N,GND*
X157492800Y-89204800D03*
D12*
G04 #@! TO.N,Net-(C2-Pad1)*
G04 #@! TO.C,C2*
G36*
X156157991Y-88730853D02*
X156179226Y-88734003D01*
X156200050Y-88739219D01*
X156220262Y-88746451D01*
X156239668Y-88755630D01*
X156258081Y-88766666D01*
X156275324Y-88779454D01*
X156291230Y-88793870D01*
X156305646Y-88809776D01*
X156318434Y-88827019D01*
X156329470Y-88845432D01*
X156338649Y-88864838D01*
X156345881Y-88885050D01*
X156351097Y-88905874D01*
X156354247Y-88927109D01*
X156355300Y-88948550D01*
X156355300Y-89461050D01*
X156354247Y-89482491D01*
X156351097Y-89503726D01*
X156345881Y-89524550D01*
X156338649Y-89544762D01*
X156329470Y-89564168D01*
X156318434Y-89582581D01*
X156305646Y-89599824D01*
X156291230Y-89615730D01*
X156275324Y-89630146D01*
X156258081Y-89642934D01*
X156239668Y-89653970D01*
X156220262Y-89663149D01*
X156200050Y-89670381D01*
X156179226Y-89675597D01*
X156157991Y-89678747D01*
X156136550Y-89679800D01*
X155699050Y-89679800D01*
X155677609Y-89678747D01*
X155656374Y-89675597D01*
X155635550Y-89670381D01*
X155615338Y-89663149D01*
X155595932Y-89653970D01*
X155577519Y-89642934D01*
X155560276Y-89630146D01*
X155544370Y-89615730D01*
X155529954Y-89599824D01*
X155517166Y-89582581D01*
X155506130Y-89564168D01*
X155496951Y-89544762D01*
X155489719Y-89524550D01*
X155484503Y-89503726D01*
X155481353Y-89482491D01*
X155480300Y-89461050D01*
X155480300Y-88948550D01*
X155481353Y-88927109D01*
X155484503Y-88905874D01*
X155489719Y-88885050D01*
X155496951Y-88864838D01*
X155506130Y-88845432D01*
X155517166Y-88827019D01*
X155529954Y-88809776D01*
X155544370Y-88793870D01*
X155560276Y-88779454D01*
X155577519Y-88766666D01*
X155595932Y-88755630D01*
X155615338Y-88746451D01*
X155635550Y-88739219D01*
X155656374Y-88734003D01*
X155677609Y-88730853D01*
X155699050Y-88729800D01*
X156136550Y-88729800D01*
X156157991Y-88730853D01*
X156157991Y-88730853D01*
G37*
D13*
G04 #@! TD*
G04 #@! TO.P,C2,1*
G04 #@! TO.N,Net-(C2-Pad1)*
X155917800Y-89204800D03*
D12*
G04 #@! TO.N,GND*
G04 #@! TO.C,C4*
G36*
X153274591Y-96108853D02*
X153295826Y-96112003D01*
X153316650Y-96117219D01*
X153336862Y-96124451D01*
X153356268Y-96133630D01*
X153374681Y-96144666D01*
X153391924Y-96157454D01*
X153407830Y-96171870D01*
X153422246Y-96187776D01*
X153435034Y-96205019D01*
X153446070Y-96223432D01*
X153455249Y-96242838D01*
X153462481Y-96263050D01*
X153467697Y-96283874D01*
X153470847Y-96305109D01*
X153471900Y-96326550D01*
X153471900Y-96764050D01*
X153470847Y-96785491D01*
X153467697Y-96806726D01*
X153462481Y-96827550D01*
X153455249Y-96847762D01*
X153446070Y-96867168D01*
X153435034Y-96885581D01*
X153422246Y-96902824D01*
X153407830Y-96918730D01*
X153391924Y-96933146D01*
X153374681Y-96945934D01*
X153356268Y-96956970D01*
X153336862Y-96966149D01*
X153316650Y-96973381D01*
X153295826Y-96978597D01*
X153274591Y-96981747D01*
X153253150Y-96982800D01*
X152740650Y-96982800D01*
X152719209Y-96981747D01*
X152697974Y-96978597D01*
X152677150Y-96973381D01*
X152656938Y-96966149D01*
X152637532Y-96956970D01*
X152619119Y-96945934D01*
X152601876Y-96933146D01*
X152585970Y-96918730D01*
X152571554Y-96902824D01*
X152558766Y-96885581D01*
X152547730Y-96867168D01*
X152538551Y-96847762D01*
X152531319Y-96827550D01*
X152526103Y-96806726D01*
X152522953Y-96785491D01*
X152521900Y-96764050D01*
X152521900Y-96326550D01*
X152522953Y-96305109D01*
X152526103Y-96283874D01*
X152531319Y-96263050D01*
X152538551Y-96242838D01*
X152547730Y-96223432D01*
X152558766Y-96205019D01*
X152571554Y-96187776D01*
X152585970Y-96171870D01*
X152601876Y-96157454D01*
X152619119Y-96144666D01*
X152637532Y-96133630D01*
X152656938Y-96124451D01*
X152677150Y-96117219D01*
X152697974Y-96112003D01*
X152719209Y-96108853D01*
X152740650Y-96107800D01*
X153253150Y-96107800D01*
X153274591Y-96108853D01*
X153274591Y-96108853D01*
G37*
D13*
G04 #@! TD*
G04 #@! TO.P,C4,1*
G04 #@! TO.N,GND*
X152996900Y-96545300D03*
D12*
G04 #@! TO.N,VCC*
G04 #@! TO.C,C4*
G36*
X153274591Y-97683853D02*
X153295826Y-97687003D01*
X153316650Y-97692219D01*
X153336862Y-97699451D01*
X153356268Y-97708630D01*
X153374681Y-97719666D01*
X153391924Y-97732454D01*
X153407830Y-97746870D01*
X153422246Y-97762776D01*
X153435034Y-97780019D01*
X153446070Y-97798432D01*
X153455249Y-97817838D01*
X153462481Y-97838050D01*
X153467697Y-97858874D01*
X153470847Y-97880109D01*
X153471900Y-97901550D01*
X153471900Y-98339050D01*
X153470847Y-98360491D01*
X153467697Y-98381726D01*
X153462481Y-98402550D01*
X153455249Y-98422762D01*
X153446070Y-98442168D01*
X153435034Y-98460581D01*
X153422246Y-98477824D01*
X153407830Y-98493730D01*
X153391924Y-98508146D01*
X153374681Y-98520934D01*
X153356268Y-98531970D01*
X153336862Y-98541149D01*
X153316650Y-98548381D01*
X153295826Y-98553597D01*
X153274591Y-98556747D01*
X153253150Y-98557800D01*
X152740650Y-98557800D01*
X152719209Y-98556747D01*
X152697974Y-98553597D01*
X152677150Y-98548381D01*
X152656938Y-98541149D01*
X152637532Y-98531970D01*
X152619119Y-98520934D01*
X152601876Y-98508146D01*
X152585970Y-98493730D01*
X152571554Y-98477824D01*
X152558766Y-98460581D01*
X152547730Y-98442168D01*
X152538551Y-98422762D01*
X152531319Y-98402550D01*
X152526103Y-98381726D01*
X152522953Y-98360491D01*
X152521900Y-98339050D01*
X152521900Y-97901550D01*
X152522953Y-97880109D01*
X152526103Y-97858874D01*
X152531319Y-97838050D01*
X152538551Y-97817838D01*
X152547730Y-97798432D01*
X152558766Y-97780019D01*
X152571554Y-97762776D01*
X152585970Y-97746870D01*
X152601876Y-97732454D01*
X152619119Y-97719666D01*
X152637532Y-97708630D01*
X152656938Y-97699451D01*
X152677150Y-97692219D01*
X152697974Y-97687003D01*
X152719209Y-97683853D01*
X152740650Y-97682800D01*
X153253150Y-97682800D01*
X153274591Y-97683853D01*
X153274591Y-97683853D01*
G37*
D13*
G04 #@! TD*
G04 #@! TO.P,C4,2*
G04 #@! TO.N,VCC*
X152996900Y-98120300D03*
D12*
G04 #@! TO.N,VCC*
G04 #@! TO.C,C5*
G36*
X140295891Y-95296753D02*
X140317126Y-95299903D01*
X140337950Y-95305119D01*
X140358162Y-95312351D01*
X140377568Y-95321530D01*
X140395981Y-95332566D01*
X140413224Y-95345354D01*
X140429130Y-95359770D01*
X140443546Y-95375676D01*
X140456334Y-95392919D01*
X140467370Y-95411332D01*
X140476549Y-95430738D01*
X140483781Y-95450950D01*
X140488997Y-95471774D01*
X140492147Y-95493009D01*
X140493200Y-95514450D01*
X140493200Y-96026950D01*
X140492147Y-96048391D01*
X140488997Y-96069626D01*
X140483781Y-96090450D01*
X140476549Y-96110662D01*
X140467370Y-96130068D01*
X140456334Y-96148481D01*
X140443546Y-96165724D01*
X140429130Y-96181630D01*
X140413224Y-96196046D01*
X140395981Y-96208834D01*
X140377568Y-96219870D01*
X140358162Y-96229049D01*
X140337950Y-96236281D01*
X140317126Y-96241497D01*
X140295891Y-96244647D01*
X140274450Y-96245700D01*
X139836950Y-96245700D01*
X139815509Y-96244647D01*
X139794274Y-96241497D01*
X139773450Y-96236281D01*
X139753238Y-96229049D01*
X139733832Y-96219870D01*
X139715419Y-96208834D01*
X139698176Y-96196046D01*
X139682270Y-96181630D01*
X139667854Y-96165724D01*
X139655066Y-96148481D01*
X139644030Y-96130068D01*
X139634851Y-96110662D01*
X139627619Y-96090450D01*
X139622403Y-96069626D01*
X139619253Y-96048391D01*
X139618200Y-96026950D01*
X139618200Y-95514450D01*
X139619253Y-95493009D01*
X139622403Y-95471774D01*
X139627619Y-95450950D01*
X139634851Y-95430738D01*
X139644030Y-95411332D01*
X139655066Y-95392919D01*
X139667854Y-95375676D01*
X139682270Y-95359770D01*
X139698176Y-95345354D01*
X139715419Y-95332566D01*
X139733832Y-95321530D01*
X139753238Y-95312351D01*
X139773450Y-95305119D01*
X139794274Y-95299903D01*
X139815509Y-95296753D01*
X139836950Y-95295700D01*
X140274450Y-95295700D01*
X140295891Y-95296753D01*
X140295891Y-95296753D01*
G37*
D13*
G04 #@! TD*
G04 #@! TO.P,C5,2*
G04 #@! TO.N,VCC*
X140055700Y-95770700D03*
D12*
G04 #@! TO.N,GND*
G04 #@! TO.C,C5*
G36*
X138720891Y-95296753D02*
X138742126Y-95299903D01*
X138762950Y-95305119D01*
X138783162Y-95312351D01*
X138802568Y-95321530D01*
X138820981Y-95332566D01*
X138838224Y-95345354D01*
X138854130Y-95359770D01*
X138868546Y-95375676D01*
X138881334Y-95392919D01*
X138892370Y-95411332D01*
X138901549Y-95430738D01*
X138908781Y-95450950D01*
X138913997Y-95471774D01*
X138917147Y-95493009D01*
X138918200Y-95514450D01*
X138918200Y-96026950D01*
X138917147Y-96048391D01*
X138913997Y-96069626D01*
X138908781Y-96090450D01*
X138901549Y-96110662D01*
X138892370Y-96130068D01*
X138881334Y-96148481D01*
X138868546Y-96165724D01*
X138854130Y-96181630D01*
X138838224Y-96196046D01*
X138820981Y-96208834D01*
X138802568Y-96219870D01*
X138783162Y-96229049D01*
X138762950Y-96236281D01*
X138742126Y-96241497D01*
X138720891Y-96244647D01*
X138699450Y-96245700D01*
X138261950Y-96245700D01*
X138240509Y-96244647D01*
X138219274Y-96241497D01*
X138198450Y-96236281D01*
X138178238Y-96229049D01*
X138158832Y-96219870D01*
X138140419Y-96208834D01*
X138123176Y-96196046D01*
X138107270Y-96181630D01*
X138092854Y-96165724D01*
X138080066Y-96148481D01*
X138069030Y-96130068D01*
X138059851Y-96110662D01*
X138052619Y-96090450D01*
X138047403Y-96069626D01*
X138044253Y-96048391D01*
X138043200Y-96026950D01*
X138043200Y-95514450D01*
X138044253Y-95493009D01*
X138047403Y-95471774D01*
X138052619Y-95450950D01*
X138059851Y-95430738D01*
X138069030Y-95411332D01*
X138080066Y-95392919D01*
X138092854Y-95375676D01*
X138107270Y-95359770D01*
X138123176Y-95345354D01*
X138140419Y-95332566D01*
X138158832Y-95321530D01*
X138178238Y-95312351D01*
X138198450Y-95305119D01*
X138219274Y-95299903D01*
X138240509Y-95296753D01*
X138261950Y-95295700D01*
X138699450Y-95295700D01*
X138720891Y-95296753D01*
X138720891Y-95296753D01*
G37*
D13*
G04 #@! TD*
G04 #@! TO.P,C5,1*
G04 #@! TO.N,GND*
X138480700Y-95770700D03*
D12*
G04 #@! TO.N,GND*
G04 #@! TO.C,C6*
G36*
X140295191Y-98509353D02*
X140316426Y-98512503D01*
X140337250Y-98517719D01*
X140357462Y-98524951D01*
X140376868Y-98534130D01*
X140395281Y-98545166D01*
X140412524Y-98557954D01*
X140428430Y-98572370D01*
X140442846Y-98588276D01*
X140455634Y-98605519D01*
X140466670Y-98623932D01*
X140475849Y-98643338D01*
X140483081Y-98663550D01*
X140488297Y-98684374D01*
X140491447Y-98705609D01*
X140492500Y-98727050D01*
X140492500Y-99164550D01*
X140491447Y-99185991D01*
X140488297Y-99207226D01*
X140483081Y-99228050D01*
X140475849Y-99248262D01*
X140466670Y-99267668D01*
X140455634Y-99286081D01*
X140442846Y-99303324D01*
X140428430Y-99319230D01*
X140412524Y-99333646D01*
X140395281Y-99346434D01*
X140376868Y-99357470D01*
X140357462Y-99366649D01*
X140337250Y-99373881D01*
X140316426Y-99379097D01*
X140295191Y-99382247D01*
X140273750Y-99383300D01*
X139761250Y-99383300D01*
X139739809Y-99382247D01*
X139718574Y-99379097D01*
X139697750Y-99373881D01*
X139677538Y-99366649D01*
X139658132Y-99357470D01*
X139639719Y-99346434D01*
X139622476Y-99333646D01*
X139606570Y-99319230D01*
X139592154Y-99303324D01*
X139579366Y-99286081D01*
X139568330Y-99267668D01*
X139559151Y-99248262D01*
X139551919Y-99228050D01*
X139546703Y-99207226D01*
X139543553Y-99185991D01*
X139542500Y-99164550D01*
X139542500Y-98727050D01*
X139543553Y-98705609D01*
X139546703Y-98684374D01*
X139551919Y-98663550D01*
X139559151Y-98643338D01*
X139568330Y-98623932D01*
X139579366Y-98605519D01*
X139592154Y-98588276D01*
X139606570Y-98572370D01*
X139622476Y-98557954D01*
X139639719Y-98545166D01*
X139658132Y-98534130D01*
X139677538Y-98524951D01*
X139697750Y-98517719D01*
X139718574Y-98512503D01*
X139739809Y-98509353D01*
X139761250Y-98508300D01*
X140273750Y-98508300D01*
X140295191Y-98509353D01*
X140295191Y-98509353D01*
G37*
D13*
G04 #@! TD*
G04 #@! TO.P,C6,1*
G04 #@! TO.N,GND*
X140017500Y-98945800D03*
D12*
G04 #@! TO.N,Net-(C6-Pad2)*
G04 #@! TO.C,C6*
G36*
X140295191Y-96934353D02*
X140316426Y-96937503D01*
X140337250Y-96942719D01*
X140357462Y-96949951D01*
X140376868Y-96959130D01*
X140395281Y-96970166D01*
X140412524Y-96982954D01*
X140428430Y-96997370D01*
X140442846Y-97013276D01*
X140455634Y-97030519D01*
X140466670Y-97048932D01*
X140475849Y-97068338D01*
X140483081Y-97088550D01*
X140488297Y-97109374D01*
X140491447Y-97130609D01*
X140492500Y-97152050D01*
X140492500Y-97589550D01*
X140491447Y-97610991D01*
X140488297Y-97632226D01*
X140483081Y-97653050D01*
X140475849Y-97673262D01*
X140466670Y-97692668D01*
X140455634Y-97711081D01*
X140442846Y-97728324D01*
X140428430Y-97744230D01*
X140412524Y-97758646D01*
X140395281Y-97771434D01*
X140376868Y-97782470D01*
X140357462Y-97791649D01*
X140337250Y-97798881D01*
X140316426Y-97804097D01*
X140295191Y-97807247D01*
X140273750Y-97808300D01*
X139761250Y-97808300D01*
X139739809Y-97807247D01*
X139718574Y-97804097D01*
X139697750Y-97798881D01*
X139677538Y-97791649D01*
X139658132Y-97782470D01*
X139639719Y-97771434D01*
X139622476Y-97758646D01*
X139606570Y-97744230D01*
X139592154Y-97728324D01*
X139579366Y-97711081D01*
X139568330Y-97692668D01*
X139559151Y-97673262D01*
X139551919Y-97653050D01*
X139546703Y-97632226D01*
X139543553Y-97610991D01*
X139542500Y-97589550D01*
X139542500Y-97152050D01*
X139543553Y-97130609D01*
X139546703Y-97109374D01*
X139551919Y-97088550D01*
X139559151Y-97068338D01*
X139568330Y-97048932D01*
X139579366Y-97030519D01*
X139592154Y-97013276D01*
X139606570Y-96997370D01*
X139622476Y-96982954D01*
X139639719Y-96970166D01*
X139658132Y-96959130D01*
X139677538Y-96949951D01*
X139697750Y-96942719D01*
X139718574Y-96937503D01*
X139739809Y-96934353D01*
X139761250Y-96933300D01*
X140273750Y-96933300D01*
X140295191Y-96934353D01*
X140295191Y-96934353D01*
G37*
D13*
G04 #@! TD*
G04 #@! TO.P,C6,2*
G04 #@! TO.N,Net-(C6-Pad2)*
X140017500Y-97370800D03*
D11*
G04 #@! TO.P,D1,4*
G04 #@! TO.N,Net-(D1-Pad4)*
X127900000Y-88475000D03*
G04 #@! TO.P,D1,3*
G04 #@! TO.N,GND*
X126100000Y-88475000D03*
G04 #@! TO.P,D1,2*
X126100000Y-87525000D03*
G04 #@! TO.P,D1,1*
G04 #@! TO.N,Net-(D1-Pad1)*
X127900000Y-87525000D03*
G04 #@! TD*
D14*
G04 #@! TO.P,D3,3*
G04 #@! TO.N,/D-*
X163639500Y-92401900D03*
G04 #@! TO.P,D3,2*
G04 #@! TO.N,Net-(D3-Pad2)*
X162689500Y-90401900D03*
G04 #@! TO.P,D3,1*
G04 #@! TO.N,GND*
X164589500Y-90401900D03*
G04 #@! TD*
G04 #@! TO.P,D4,1*
G04 #@! TO.N,GND*
X162626000Y-105076500D03*
G04 #@! TO.P,D4,2*
G04 #@! TO.N,Net-(D4-Pad2)*
X164526000Y-105076500D03*
G04 #@! TO.P,D4,3*
G04 #@! TO.N,/D+*
X163576000Y-103076500D03*
G04 #@! TD*
D15*
G04 #@! TO.P,J1,2*
G04 #@! TO.N,/D-*
X168201600Y-96750000D03*
G04 #@! TO.P,J1,3*
G04 #@! TO.N,/D+*
X168201600Y-98750000D03*
G04 #@! TO.P,J1,1*
G04 #@! TO.N,Net-(F1-Pad2)*
X168201600Y-94250000D03*
G04 #@! TO.P,J1,4*
G04 #@! TO.N,GND*
X168201600Y-101250000D03*
D16*
G04 #@! TO.P,J1,5*
G04 #@! TO.N,Net-(J1-Pad5)*
X170951600Y-92050000D03*
X170951600Y-103450000D03*
G04 #@! TD*
D17*
G04 #@! TO.P,J2,1*
G04 #@! TO.N,PD6*
X160000000Y-108250000D03*
D18*
G04 #@! TO.P,J2,2*
G04 #@! TO.N,PD5*
X157460000Y-108250000D03*
G04 #@! TO.P,J2,3*
G04 #@! TO.N,PE1*
X154920000Y-108250000D03*
G04 #@! TO.P,J2,4*
G04 #@! TO.N,PE0*
X152380000Y-108250000D03*
G04 #@! TO.P,J2,5*
G04 #@! TO.N,PD3*
X149840000Y-108250000D03*
G04 #@! TO.P,J2,6*
G04 #@! TO.N,PC1*
X147300000Y-108250000D03*
G04 #@! TO.P,J2,7*
G04 #@! TO.N,PE3*
X144760000Y-108250000D03*
G04 #@! TO.P,J2,8*
G04 #@! TO.N,PE2*
X142220000Y-108250000D03*
G04 #@! TD*
D19*
G04 #@! TO.P,J3,11*
G04 #@! TO.N,TXD*
X117753400Y-91400000D03*
G04 #@! TO.P,J3,9*
G04 #@! TO.N,RXD*
X117753400Y-93940000D03*
G04 #@! TO.P,J3,7*
G04 #@! TO.N,Net-(J3-Pad7)*
X117753400Y-96480000D03*
G04 #@! TO.P,J3,5*
G04 #@! TO.N,RESET*
X117753400Y-99020000D03*
G04 #@! TO.P,J3,3*
G04 #@! TO.N,SCK*
X117753400Y-101560000D03*
G04 #@! TO.P,J3,1*
G04 #@! TO.N,MISO*
X117753400Y-104100000D03*
G04 #@! TD*
D12*
G04 #@! TO.N,Net-(D1-Pad1)*
G04 #@! TO.C,R1*
G36*
X130753491Y-86697753D02*
X130774726Y-86700903D01*
X130795550Y-86706119D01*
X130815762Y-86713351D01*
X130835168Y-86722530D01*
X130853581Y-86733566D01*
X130870824Y-86746354D01*
X130886730Y-86760770D01*
X130901146Y-86776676D01*
X130913934Y-86793919D01*
X130924970Y-86812332D01*
X130934149Y-86831738D01*
X130941381Y-86851950D01*
X130946597Y-86872774D01*
X130949747Y-86894009D01*
X130950800Y-86915450D01*
X130950800Y-87427950D01*
X130949747Y-87449391D01*
X130946597Y-87470626D01*
X130941381Y-87491450D01*
X130934149Y-87511662D01*
X130924970Y-87531068D01*
X130913934Y-87549481D01*
X130901146Y-87566724D01*
X130886730Y-87582630D01*
X130870824Y-87597046D01*
X130853581Y-87609834D01*
X130835168Y-87620870D01*
X130815762Y-87630049D01*
X130795550Y-87637281D01*
X130774726Y-87642497D01*
X130753491Y-87645647D01*
X130732050Y-87646700D01*
X130294550Y-87646700D01*
X130273109Y-87645647D01*
X130251874Y-87642497D01*
X130231050Y-87637281D01*
X130210838Y-87630049D01*
X130191432Y-87620870D01*
X130173019Y-87609834D01*
X130155776Y-87597046D01*
X130139870Y-87582630D01*
X130125454Y-87566724D01*
X130112666Y-87549481D01*
X130101630Y-87531068D01*
X130092451Y-87511662D01*
X130085219Y-87491450D01*
X130080003Y-87470626D01*
X130076853Y-87449391D01*
X130075800Y-87427950D01*
X130075800Y-86915450D01*
X130076853Y-86894009D01*
X130080003Y-86872774D01*
X130085219Y-86851950D01*
X130092451Y-86831738D01*
X130101630Y-86812332D01*
X130112666Y-86793919D01*
X130125454Y-86776676D01*
X130139870Y-86760770D01*
X130155776Y-86746354D01*
X130173019Y-86733566D01*
X130191432Y-86722530D01*
X130210838Y-86713351D01*
X130231050Y-86706119D01*
X130251874Y-86700903D01*
X130273109Y-86697753D01*
X130294550Y-86696700D01*
X130732050Y-86696700D01*
X130753491Y-86697753D01*
X130753491Y-86697753D01*
G37*
D13*
G04 #@! TD*
G04 #@! TO.P,R1,1*
G04 #@! TO.N,Net-(D1-Pad1)*
X130513300Y-87171700D03*
D12*
G04 #@! TO.N,LEDR*
G04 #@! TO.C,R1*
G36*
X132328491Y-86697753D02*
X132349726Y-86700903D01*
X132370550Y-86706119D01*
X132390762Y-86713351D01*
X132410168Y-86722530D01*
X132428581Y-86733566D01*
X132445824Y-86746354D01*
X132461730Y-86760770D01*
X132476146Y-86776676D01*
X132488934Y-86793919D01*
X132499970Y-86812332D01*
X132509149Y-86831738D01*
X132516381Y-86851950D01*
X132521597Y-86872774D01*
X132524747Y-86894009D01*
X132525800Y-86915450D01*
X132525800Y-87427950D01*
X132524747Y-87449391D01*
X132521597Y-87470626D01*
X132516381Y-87491450D01*
X132509149Y-87511662D01*
X132499970Y-87531068D01*
X132488934Y-87549481D01*
X132476146Y-87566724D01*
X132461730Y-87582630D01*
X132445824Y-87597046D01*
X132428581Y-87609834D01*
X132410168Y-87620870D01*
X132390762Y-87630049D01*
X132370550Y-87637281D01*
X132349726Y-87642497D01*
X132328491Y-87645647D01*
X132307050Y-87646700D01*
X131869550Y-87646700D01*
X131848109Y-87645647D01*
X131826874Y-87642497D01*
X131806050Y-87637281D01*
X131785838Y-87630049D01*
X131766432Y-87620870D01*
X131748019Y-87609834D01*
X131730776Y-87597046D01*
X131714870Y-87582630D01*
X131700454Y-87566724D01*
X131687666Y-87549481D01*
X131676630Y-87531068D01*
X131667451Y-87511662D01*
X131660219Y-87491450D01*
X131655003Y-87470626D01*
X131651853Y-87449391D01*
X131650800Y-87427950D01*
X131650800Y-86915450D01*
X131651853Y-86894009D01*
X131655003Y-86872774D01*
X131660219Y-86851950D01*
X131667451Y-86831738D01*
X131676630Y-86812332D01*
X131687666Y-86793919D01*
X131700454Y-86776676D01*
X131714870Y-86760770D01*
X131730776Y-86746354D01*
X131748019Y-86733566D01*
X131766432Y-86722530D01*
X131785838Y-86713351D01*
X131806050Y-86706119D01*
X131826874Y-86700903D01*
X131848109Y-86697753D01*
X131869550Y-86696700D01*
X132307050Y-86696700D01*
X132328491Y-86697753D01*
X132328491Y-86697753D01*
G37*
D13*
G04 #@! TD*
G04 #@! TO.P,R1,2*
G04 #@! TO.N,LEDR*
X132088300Y-87171700D03*
D12*
G04 #@! TO.N,LEDG*
G04 #@! TO.C,R2*
G36*
X132328491Y-88272553D02*
X132349726Y-88275703D01*
X132370550Y-88280919D01*
X132390762Y-88288151D01*
X132410168Y-88297330D01*
X132428581Y-88308366D01*
X132445824Y-88321154D01*
X132461730Y-88335570D01*
X132476146Y-88351476D01*
X132488934Y-88368719D01*
X132499970Y-88387132D01*
X132509149Y-88406538D01*
X132516381Y-88426750D01*
X132521597Y-88447574D01*
X132524747Y-88468809D01*
X132525800Y-88490250D01*
X132525800Y-89002750D01*
X132524747Y-89024191D01*
X132521597Y-89045426D01*
X132516381Y-89066250D01*
X132509149Y-89086462D01*
X132499970Y-89105868D01*
X132488934Y-89124281D01*
X132476146Y-89141524D01*
X132461730Y-89157430D01*
X132445824Y-89171846D01*
X132428581Y-89184634D01*
X132410168Y-89195670D01*
X132390762Y-89204849D01*
X132370550Y-89212081D01*
X132349726Y-89217297D01*
X132328491Y-89220447D01*
X132307050Y-89221500D01*
X131869550Y-89221500D01*
X131848109Y-89220447D01*
X131826874Y-89217297D01*
X131806050Y-89212081D01*
X131785838Y-89204849D01*
X131766432Y-89195670D01*
X131748019Y-89184634D01*
X131730776Y-89171846D01*
X131714870Y-89157430D01*
X131700454Y-89141524D01*
X131687666Y-89124281D01*
X131676630Y-89105868D01*
X131667451Y-89086462D01*
X131660219Y-89066250D01*
X131655003Y-89045426D01*
X131651853Y-89024191D01*
X131650800Y-89002750D01*
X131650800Y-88490250D01*
X131651853Y-88468809D01*
X131655003Y-88447574D01*
X131660219Y-88426750D01*
X131667451Y-88406538D01*
X131676630Y-88387132D01*
X131687666Y-88368719D01*
X131700454Y-88351476D01*
X131714870Y-88335570D01*
X131730776Y-88321154D01*
X131748019Y-88308366D01*
X131766432Y-88297330D01*
X131785838Y-88288151D01*
X131806050Y-88280919D01*
X131826874Y-88275703D01*
X131848109Y-88272553D01*
X131869550Y-88271500D01*
X132307050Y-88271500D01*
X132328491Y-88272553D01*
X132328491Y-88272553D01*
G37*
D13*
G04 #@! TD*
G04 #@! TO.P,R2,2*
G04 #@! TO.N,LEDG*
X132088300Y-88746500D03*
D12*
G04 #@! TO.N,Net-(D1-Pad4)*
G04 #@! TO.C,R2*
G36*
X130753491Y-88272553D02*
X130774726Y-88275703D01*
X130795550Y-88280919D01*
X130815762Y-88288151D01*
X130835168Y-88297330D01*
X130853581Y-88308366D01*
X130870824Y-88321154D01*
X130886730Y-88335570D01*
X130901146Y-88351476D01*
X130913934Y-88368719D01*
X130924970Y-88387132D01*
X130934149Y-88406538D01*
X130941381Y-88426750D01*
X130946597Y-88447574D01*
X130949747Y-88468809D01*
X130950800Y-88490250D01*
X130950800Y-89002750D01*
X130949747Y-89024191D01*
X130946597Y-89045426D01*
X130941381Y-89066250D01*
X130934149Y-89086462D01*
X130924970Y-89105868D01*
X130913934Y-89124281D01*
X130901146Y-89141524D01*
X130886730Y-89157430D01*
X130870824Y-89171846D01*
X130853581Y-89184634D01*
X130835168Y-89195670D01*
X130815762Y-89204849D01*
X130795550Y-89212081D01*
X130774726Y-89217297D01*
X130753491Y-89220447D01*
X130732050Y-89221500D01*
X130294550Y-89221500D01*
X130273109Y-89220447D01*
X130251874Y-89217297D01*
X130231050Y-89212081D01*
X130210838Y-89204849D01*
X130191432Y-89195670D01*
X130173019Y-89184634D01*
X130155776Y-89171846D01*
X130139870Y-89157430D01*
X130125454Y-89141524D01*
X130112666Y-89124281D01*
X130101630Y-89105868D01*
X130092451Y-89086462D01*
X130085219Y-89066250D01*
X130080003Y-89045426D01*
X130076853Y-89024191D01*
X130075800Y-89002750D01*
X130075800Y-88490250D01*
X130076853Y-88468809D01*
X130080003Y-88447574D01*
X130085219Y-88426750D01*
X130092451Y-88406538D01*
X130101630Y-88387132D01*
X130112666Y-88368719D01*
X130125454Y-88351476D01*
X130139870Y-88335570D01*
X130155776Y-88321154D01*
X130173019Y-88308366D01*
X130191432Y-88297330D01*
X130210838Y-88288151D01*
X130231050Y-88280919D01*
X130251874Y-88275703D01*
X130273109Y-88272553D01*
X130294550Y-88271500D01*
X130732050Y-88271500D01*
X130753491Y-88272553D01*
X130753491Y-88272553D01*
G37*
D13*
G04 #@! TD*
G04 #@! TO.P,R2,1*
G04 #@! TO.N,Net-(D1-Pad4)*
X130513300Y-88746500D03*
D12*
G04 #@! TO.N,LEDG2*
G04 #@! TO.C,R3*
G36*
X132277691Y-106264053D02*
X132298926Y-106267203D01*
X132319750Y-106272419D01*
X132339962Y-106279651D01*
X132359368Y-106288830D01*
X132377781Y-106299866D01*
X132395024Y-106312654D01*
X132410930Y-106327070D01*
X132425346Y-106342976D01*
X132438134Y-106360219D01*
X132449170Y-106378632D01*
X132458349Y-106398038D01*
X132465581Y-106418250D01*
X132470797Y-106439074D01*
X132473947Y-106460309D01*
X132475000Y-106481750D01*
X132475000Y-106994250D01*
X132473947Y-107015691D01*
X132470797Y-107036926D01*
X132465581Y-107057750D01*
X132458349Y-107077962D01*
X132449170Y-107097368D01*
X132438134Y-107115781D01*
X132425346Y-107133024D01*
X132410930Y-107148930D01*
X132395024Y-107163346D01*
X132377781Y-107176134D01*
X132359368Y-107187170D01*
X132339962Y-107196349D01*
X132319750Y-107203581D01*
X132298926Y-107208797D01*
X132277691Y-107211947D01*
X132256250Y-107213000D01*
X131818750Y-107213000D01*
X131797309Y-107211947D01*
X131776074Y-107208797D01*
X131755250Y-107203581D01*
X131735038Y-107196349D01*
X131715632Y-107187170D01*
X131697219Y-107176134D01*
X131679976Y-107163346D01*
X131664070Y-107148930D01*
X131649654Y-107133024D01*
X131636866Y-107115781D01*
X131625830Y-107097368D01*
X131616651Y-107077962D01*
X131609419Y-107057750D01*
X131604203Y-107036926D01*
X131601053Y-107015691D01*
X131600000Y-106994250D01*
X131600000Y-106481750D01*
X131601053Y-106460309D01*
X131604203Y-106439074D01*
X131609419Y-106418250D01*
X131616651Y-106398038D01*
X131625830Y-106378632D01*
X131636866Y-106360219D01*
X131649654Y-106342976D01*
X131664070Y-106327070D01*
X131679976Y-106312654D01*
X131697219Y-106299866D01*
X131715632Y-106288830D01*
X131735038Y-106279651D01*
X131755250Y-106272419D01*
X131776074Y-106267203D01*
X131797309Y-106264053D01*
X131818750Y-106263000D01*
X132256250Y-106263000D01*
X132277691Y-106264053D01*
X132277691Y-106264053D01*
G37*
D13*
G04 #@! TD*
G04 #@! TO.P,R3,2*
G04 #@! TO.N,LEDG2*
X132037500Y-106738000D03*
D12*
G04 #@! TO.N,Net-(D2-Pad1)*
G04 #@! TO.C,R3*
G36*
X130702691Y-106264053D02*
X130723926Y-106267203D01*
X130744750Y-106272419D01*
X130764962Y-106279651D01*
X130784368Y-106288830D01*
X130802781Y-106299866D01*
X130820024Y-106312654D01*
X130835930Y-106327070D01*
X130850346Y-106342976D01*
X130863134Y-106360219D01*
X130874170Y-106378632D01*
X130883349Y-106398038D01*
X130890581Y-106418250D01*
X130895797Y-106439074D01*
X130898947Y-106460309D01*
X130900000Y-106481750D01*
X130900000Y-106994250D01*
X130898947Y-107015691D01*
X130895797Y-107036926D01*
X130890581Y-107057750D01*
X130883349Y-107077962D01*
X130874170Y-107097368D01*
X130863134Y-107115781D01*
X130850346Y-107133024D01*
X130835930Y-107148930D01*
X130820024Y-107163346D01*
X130802781Y-107176134D01*
X130784368Y-107187170D01*
X130764962Y-107196349D01*
X130744750Y-107203581D01*
X130723926Y-107208797D01*
X130702691Y-107211947D01*
X130681250Y-107213000D01*
X130243750Y-107213000D01*
X130222309Y-107211947D01*
X130201074Y-107208797D01*
X130180250Y-107203581D01*
X130160038Y-107196349D01*
X130140632Y-107187170D01*
X130122219Y-107176134D01*
X130104976Y-107163346D01*
X130089070Y-107148930D01*
X130074654Y-107133024D01*
X130061866Y-107115781D01*
X130050830Y-107097368D01*
X130041651Y-107077962D01*
X130034419Y-107057750D01*
X130029203Y-107036926D01*
X130026053Y-107015691D01*
X130025000Y-106994250D01*
X130025000Y-106481750D01*
X130026053Y-106460309D01*
X130029203Y-106439074D01*
X130034419Y-106418250D01*
X130041651Y-106398038D01*
X130050830Y-106378632D01*
X130061866Y-106360219D01*
X130074654Y-106342976D01*
X130089070Y-106327070D01*
X130104976Y-106312654D01*
X130122219Y-106299866D01*
X130140632Y-106288830D01*
X130160038Y-106279651D01*
X130180250Y-106272419D01*
X130201074Y-106267203D01*
X130222309Y-106264053D01*
X130243750Y-106263000D01*
X130681250Y-106263000D01*
X130702691Y-106264053D01*
X130702691Y-106264053D01*
G37*
D13*
G04 #@! TD*
G04 #@! TO.P,R3,1*
G04 #@! TO.N,Net-(D2-Pad1)*
X130462500Y-106738000D03*
D12*
G04 #@! TO.N,LEDY*
G04 #@! TO.C,R4*
G36*
X132277691Y-107851553D02*
X132298926Y-107854703D01*
X132319750Y-107859919D01*
X132339962Y-107867151D01*
X132359368Y-107876330D01*
X132377781Y-107887366D01*
X132395024Y-107900154D01*
X132410930Y-107914570D01*
X132425346Y-107930476D01*
X132438134Y-107947719D01*
X132449170Y-107966132D01*
X132458349Y-107985538D01*
X132465581Y-108005750D01*
X132470797Y-108026574D01*
X132473947Y-108047809D01*
X132475000Y-108069250D01*
X132475000Y-108581750D01*
X132473947Y-108603191D01*
X132470797Y-108624426D01*
X132465581Y-108645250D01*
X132458349Y-108665462D01*
X132449170Y-108684868D01*
X132438134Y-108703281D01*
X132425346Y-108720524D01*
X132410930Y-108736430D01*
X132395024Y-108750846D01*
X132377781Y-108763634D01*
X132359368Y-108774670D01*
X132339962Y-108783849D01*
X132319750Y-108791081D01*
X132298926Y-108796297D01*
X132277691Y-108799447D01*
X132256250Y-108800500D01*
X131818750Y-108800500D01*
X131797309Y-108799447D01*
X131776074Y-108796297D01*
X131755250Y-108791081D01*
X131735038Y-108783849D01*
X131715632Y-108774670D01*
X131697219Y-108763634D01*
X131679976Y-108750846D01*
X131664070Y-108736430D01*
X131649654Y-108720524D01*
X131636866Y-108703281D01*
X131625830Y-108684868D01*
X131616651Y-108665462D01*
X131609419Y-108645250D01*
X131604203Y-108624426D01*
X131601053Y-108603191D01*
X131600000Y-108581750D01*
X131600000Y-108069250D01*
X131601053Y-108047809D01*
X131604203Y-108026574D01*
X131609419Y-108005750D01*
X131616651Y-107985538D01*
X131625830Y-107966132D01*
X131636866Y-107947719D01*
X131649654Y-107930476D01*
X131664070Y-107914570D01*
X131679976Y-107900154D01*
X131697219Y-107887366D01*
X131715632Y-107876330D01*
X131735038Y-107867151D01*
X131755250Y-107859919D01*
X131776074Y-107854703D01*
X131797309Y-107851553D01*
X131818750Y-107850500D01*
X132256250Y-107850500D01*
X132277691Y-107851553D01*
X132277691Y-107851553D01*
G37*
D13*
G04 #@! TD*
G04 #@! TO.P,R4,2*
G04 #@! TO.N,LEDY*
X132037500Y-108325500D03*
D12*
G04 #@! TO.N,Net-(D2-Pad4)*
G04 #@! TO.C,R4*
G36*
X130702691Y-107851553D02*
X130723926Y-107854703D01*
X130744750Y-107859919D01*
X130764962Y-107867151D01*
X130784368Y-107876330D01*
X130802781Y-107887366D01*
X130820024Y-107900154D01*
X130835930Y-107914570D01*
X130850346Y-107930476D01*
X130863134Y-107947719D01*
X130874170Y-107966132D01*
X130883349Y-107985538D01*
X130890581Y-108005750D01*
X130895797Y-108026574D01*
X130898947Y-108047809D01*
X130900000Y-108069250D01*
X130900000Y-108581750D01*
X130898947Y-108603191D01*
X130895797Y-108624426D01*
X130890581Y-108645250D01*
X130883349Y-108665462D01*
X130874170Y-108684868D01*
X130863134Y-108703281D01*
X130850346Y-108720524D01*
X130835930Y-108736430D01*
X130820024Y-108750846D01*
X130802781Y-108763634D01*
X130784368Y-108774670D01*
X130764962Y-108783849D01*
X130744750Y-108791081D01*
X130723926Y-108796297D01*
X130702691Y-108799447D01*
X130681250Y-108800500D01*
X130243750Y-108800500D01*
X130222309Y-108799447D01*
X130201074Y-108796297D01*
X130180250Y-108791081D01*
X130160038Y-108783849D01*
X130140632Y-108774670D01*
X130122219Y-108763634D01*
X130104976Y-108750846D01*
X130089070Y-108736430D01*
X130074654Y-108720524D01*
X130061866Y-108703281D01*
X130050830Y-108684868D01*
X130041651Y-108665462D01*
X130034419Y-108645250D01*
X130029203Y-108624426D01*
X130026053Y-108603191D01*
X130025000Y-108581750D01*
X130025000Y-108069250D01*
X130026053Y-108047809D01*
X130029203Y-108026574D01*
X130034419Y-108005750D01*
X130041651Y-107985538D01*
X130050830Y-107966132D01*
X130061866Y-107947719D01*
X130074654Y-107930476D01*
X130089070Y-107914570D01*
X130104976Y-107900154D01*
X130122219Y-107887366D01*
X130140632Y-107876330D01*
X130160038Y-107867151D01*
X130180250Y-107859919D01*
X130201074Y-107854703D01*
X130222309Y-107851553D01*
X130243750Y-107850500D01*
X130681250Y-107850500D01*
X130702691Y-107851553D01*
X130702691Y-107851553D01*
G37*
D13*
G04 #@! TD*
G04 #@! TO.P,R4,1*
G04 #@! TO.N,Net-(D2-Pad4)*
X130462500Y-108325500D03*
D12*
G04 #@! TO.N,/D+*
G04 #@! TO.C,R5*
G36*
X164844991Y-98255853D02*
X164866226Y-98259003D01*
X164887050Y-98264219D01*
X164907262Y-98271451D01*
X164926668Y-98280630D01*
X164945081Y-98291666D01*
X164962324Y-98304454D01*
X164978230Y-98318870D01*
X164992646Y-98334776D01*
X165005434Y-98352019D01*
X165016470Y-98370432D01*
X165025649Y-98389838D01*
X165032881Y-98410050D01*
X165038097Y-98430874D01*
X165041247Y-98452109D01*
X165042300Y-98473550D01*
X165042300Y-98986050D01*
X165041247Y-99007491D01*
X165038097Y-99028726D01*
X165032881Y-99049550D01*
X165025649Y-99069762D01*
X165016470Y-99089168D01*
X165005434Y-99107581D01*
X164992646Y-99124824D01*
X164978230Y-99140730D01*
X164962324Y-99155146D01*
X164945081Y-99167934D01*
X164926668Y-99178970D01*
X164907262Y-99188149D01*
X164887050Y-99195381D01*
X164866226Y-99200597D01*
X164844991Y-99203747D01*
X164823550Y-99204800D01*
X164386050Y-99204800D01*
X164364609Y-99203747D01*
X164343374Y-99200597D01*
X164322550Y-99195381D01*
X164302338Y-99188149D01*
X164282932Y-99178970D01*
X164264519Y-99167934D01*
X164247276Y-99155146D01*
X164231370Y-99140730D01*
X164216954Y-99124824D01*
X164204166Y-99107581D01*
X164193130Y-99089168D01*
X164183951Y-99069762D01*
X164176719Y-99049550D01*
X164171503Y-99028726D01*
X164168353Y-99007491D01*
X164167300Y-98986050D01*
X164167300Y-98473550D01*
X164168353Y-98452109D01*
X164171503Y-98430874D01*
X164176719Y-98410050D01*
X164183951Y-98389838D01*
X164193130Y-98370432D01*
X164204166Y-98352019D01*
X164216954Y-98334776D01*
X164231370Y-98318870D01*
X164247276Y-98304454D01*
X164264519Y-98291666D01*
X164282932Y-98280630D01*
X164302338Y-98271451D01*
X164322550Y-98264219D01*
X164343374Y-98259003D01*
X164364609Y-98255853D01*
X164386050Y-98254800D01*
X164823550Y-98254800D01*
X164844991Y-98255853D01*
X164844991Y-98255853D01*
G37*
D13*
G04 #@! TD*
G04 #@! TO.P,R5,1*
G04 #@! TO.N,/D+*
X164604800Y-98729800D03*
D12*
G04 #@! TO.N,/RD+*
G04 #@! TO.C,R5*
G36*
X163269991Y-98255853D02*
X163291226Y-98259003D01*
X163312050Y-98264219D01*
X163332262Y-98271451D01*
X163351668Y-98280630D01*
X163370081Y-98291666D01*
X163387324Y-98304454D01*
X163403230Y-98318870D01*
X163417646Y-98334776D01*
X163430434Y-98352019D01*
X163441470Y-98370432D01*
X163450649Y-98389838D01*
X163457881Y-98410050D01*
X163463097Y-98430874D01*
X163466247Y-98452109D01*
X163467300Y-98473550D01*
X163467300Y-98986050D01*
X163466247Y-99007491D01*
X163463097Y-99028726D01*
X163457881Y-99049550D01*
X163450649Y-99069762D01*
X163441470Y-99089168D01*
X163430434Y-99107581D01*
X163417646Y-99124824D01*
X163403230Y-99140730D01*
X163387324Y-99155146D01*
X163370081Y-99167934D01*
X163351668Y-99178970D01*
X163332262Y-99188149D01*
X163312050Y-99195381D01*
X163291226Y-99200597D01*
X163269991Y-99203747D01*
X163248550Y-99204800D01*
X162811050Y-99204800D01*
X162789609Y-99203747D01*
X162768374Y-99200597D01*
X162747550Y-99195381D01*
X162727338Y-99188149D01*
X162707932Y-99178970D01*
X162689519Y-99167934D01*
X162672276Y-99155146D01*
X162656370Y-99140730D01*
X162641954Y-99124824D01*
X162629166Y-99107581D01*
X162618130Y-99089168D01*
X162608951Y-99069762D01*
X162601719Y-99049550D01*
X162596503Y-99028726D01*
X162593353Y-99007491D01*
X162592300Y-98986050D01*
X162592300Y-98473550D01*
X162593353Y-98452109D01*
X162596503Y-98430874D01*
X162601719Y-98410050D01*
X162608951Y-98389838D01*
X162618130Y-98370432D01*
X162629166Y-98352019D01*
X162641954Y-98334776D01*
X162656370Y-98318870D01*
X162672276Y-98304454D01*
X162689519Y-98291666D01*
X162707932Y-98280630D01*
X162727338Y-98271451D01*
X162747550Y-98264219D01*
X162768374Y-98259003D01*
X162789609Y-98255853D01*
X162811050Y-98254800D01*
X163248550Y-98254800D01*
X163269991Y-98255853D01*
X163269991Y-98255853D01*
G37*
D13*
G04 #@! TD*
G04 #@! TO.P,R5,2*
G04 #@! TO.N,/RD+*
X163029800Y-98729800D03*
D12*
G04 #@! TO.N,/D-*
G04 #@! TO.C,R6*
G36*
X164844991Y-96300053D02*
X164866226Y-96303203D01*
X164887050Y-96308419D01*
X164907262Y-96315651D01*
X164926668Y-96324830D01*
X164945081Y-96335866D01*
X164962324Y-96348654D01*
X164978230Y-96363070D01*
X164992646Y-96378976D01*
X165005434Y-96396219D01*
X165016470Y-96414632D01*
X165025649Y-96434038D01*
X165032881Y-96454250D01*
X165038097Y-96475074D01*
X165041247Y-96496309D01*
X165042300Y-96517750D01*
X165042300Y-97030250D01*
X165041247Y-97051691D01*
X165038097Y-97072926D01*
X165032881Y-97093750D01*
X165025649Y-97113962D01*
X165016470Y-97133368D01*
X165005434Y-97151781D01*
X164992646Y-97169024D01*
X164978230Y-97184930D01*
X164962324Y-97199346D01*
X164945081Y-97212134D01*
X164926668Y-97223170D01*
X164907262Y-97232349D01*
X164887050Y-97239581D01*
X164866226Y-97244797D01*
X164844991Y-97247947D01*
X164823550Y-97249000D01*
X164386050Y-97249000D01*
X164364609Y-97247947D01*
X164343374Y-97244797D01*
X164322550Y-97239581D01*
X164302338Y-97232349D01*
X164282932Y-97223170D01*
X164264519Y-97212134D01*
X164247276Y-97199346D01*
X164231370Y-97184930D01*
X164216954Y-97169024D01*
X164204166Y-97151781D01*
X164193130Y-97133368D01*
X164183951Y-97113962D01*
X164176719Y-97093750D01*
X164171503Y-97072926D01*
X164168353Y-97051691D01*
X164167300Y-97030250D01*
X164167300Y-96517750D01*
X164168353Y-96496309D01*
X164171503Y-96475074D01*
X164176719Y-96454250D01*
X164183951Y-96434038D01*
X164193130Y-96414632D01*
X164204166Y-96396219D01*
X164216954Y-96378976D01*
X164231370Y-96363070D01*
X164247276Y-96348654D01*
X164264519Y-96335866D01*
X164282932Y-96324830D01*
X164302338Y-96315651D01*
X164322550Y-96308419D01*
X164343374Y-96303203D01*
X164364609Y-96300053D01*
X164386050Y-96299000D01*
X164823550Y-96299000D01*
X164844991Y-96300053D01*
X164844991Y-96300053D01*
G37*
D13*
G04 #@! TD*
G04 #@! TO.P,R6,1*
G04 #@! TO.N,/D-*
X164604800Y-96774000D03*
D12*
G04 #@! TO.N,/RD-*
G04 #@! TO.C,R6*
G36*
X163269991Y-96300053D02*
X163291226Y-96303203D01*
X163312050Y-96308419D01*
X163332262Y-96315651D01*
X163351668Y-96324830D01*
X163370081Y-96335866D01*
X163387324Y-96348654D01*
X163403230Y-96363070D01*
X163417646Y-96378976D01*
X163430434Y-96396219D01*
X163441470Y-96414632D01*
X163450649Y-96434038D01*
X163457881Y-96454250D01*
X163463097Y-96475074D01*
X163466247Y-96496309D01*
X163467300Y-96517750D01*
X163467300Y-97030250D01*
X163466247Y-97051691D01*
X163463097Y-97072926D01*
X163457881Y-97093750D01*
X163450649Y-97113962D01*
X163441470Y-97133368D01*
X163430434Y-97151781D01*
X163417646Y-97169024D01*
X163403230Y-97184930D01*
X163387324Y-97199346D01*
X163370081Y-97212134D01*
X163351668Y-97223170D01*
X163332262Y-97232349D01*
X163312050Y-97239581D01*
X163291226Y-97244797D01*
X163269991Y-97247947D01*
X163248550Y-97249000D01*
X162811050Y-97249000D01*
X162789609Y-97247947D01*
X162768374Y-97244797D01*
X162747550Y-97239581D01*
X162727338Y-97232349D01*
X162707932Y-97223170D01*
X162689519Y-97212134D01*
X162672276Y-97199346D01*
X162656370Y-97184930D01*
X162641954Y-97169024D01*
X162629166Y-97151781D01*
X162618130Y-97133368D01*
X162608951Y-97113962D01*
X162601719Y-97093750D01*
X162596503Y-97072926D01*
X162593353Y-97051691D01*
X162592300Y-97030250D01*
X162592300Y-96517750D01*
X162593353Y-96496309D01*
X162596503Y-96475074D01*
X162601719Y-96454250D01*
X162608951Y-96434038D01*
X162618130Y-96414632D01*
X162629166Y-96396219D01*
X162641954Y-96378976D01*
X162656370Y-96363070D01*
X162672276Y-96348654D01*
X162689519Y-96335866D01*
X162707932Y-96324830D01*
X162727338Y-96315651D01*
X162747550Y-96308419D01*
X162768374Y-96303203D01*
X162789609Y-96300053D01*
X162811050Y-96299000D01*
X163248550Y-96299000D01*
X163269991Y-96300053D01*
X163269991Y-96300053D01*
G37*
D13*
G04 #@! TD*
G04 #@! TO.P,R6,2*
G04 #@! TO.N,/RD-*
X163029800Y-96774000D03*
D12*
G04 #@! TO.N,MISC*
G04 #@! TO.C,R7*
G36*
X120902291Y-96858353D02*
X120923526Y-96861503D01*
X120944350Y-96866719D01*
X120964562Y-96873951D01*
X120983968Y-96883130D01*
X121002381Y-96894166D01*
X121019624Y-96906954D01*
X121035530Y-96921370D01*
X121049946Y-96937276D01*
X121062734Y-96954519D01*
X121073770Y-96972932D01*
X121082949Y-96992338D01*
X121090181Y-97012550D01*
X121095397Y-97033374D01*
X121098547Y-97054609D01*
X121099600Y-97076050D01*
X121099600Y-97513550D01*
X121098547Y-97534991D01*
X121095397Y-97556226D01*
X121090181Y-97577050D01*
X121082949Y-97597262D01*
X121073770Y-97616668D01*
X121062734Y-97635081D01*
X121049946Y-97652324D01*
X121035530Y-97668230D01*
X121019624Y-97682646D01*
X121002381Y-97695434D01*
X120983968Y-97706470D01*
X120964562Y-97715649D01*
X120944350Y-97722881D01*
X120923526Y-97728097D01*
X120902291Y-97731247D01*
X120880850Y-97732300D01*
X120368350Y-97732300D01*
X120346909Y-97731247D01*
X120325674Y-97728097D01*
X120304850Y-97722881D01*
X120284638Y-97715649D01*
X120265232Y-97706470D01*
X120246819Y-97695434D01*
X120229576Y-97682646D01*
X120213670Y-97668230D01*
X120199254Y-97652324D01*
X120186466Y-97635081D01*
X120175430Y-97616668D01*
X120166251Y-97597262D01*
X120159019Y-97577050D01*
X120153803Y-97556226D01*
X120150653Y-97534991D01*
X120149600Y-97513550D01*
X120149600Y-97076050D01*
X120150653Y-97054609D01*
X120153803Y-97033374D01*
X120159019Y-97012550D01*
X120166251Y-96992338D01*
X120175430Y-96972932D01*
X120186466Y-96954519D01*
X120199254Y-96937276D01*
X120213670Y-96921370D01*
X120229576Y-96906954D01*
X120246819Y-96894166D01*
X120265232Y-96883130D01*
X120284638Y-96873951D01*
X120304850Y-96866719D01*
X120325674Y-96861503D01*
X120346909Y-96858353D01*
X120368350Y-96857300D01*
X120880850Y-96857300D01*
X120902291Y-96858353D01*
X120902291Y-96858353D01*
G37*
D13*
G04 #@! TD*
G04 #@! TO.P,R7,2*
G04 #@! TO.N,MISC*
X120624600Y-97294800D03*
D12*
G04 #@! TO.N,Net-(J3-Pad7)*
G04 #@! TO.C,R7*
G36*
X120902291Y-95283353D02*
X120923526Y-95286503D01*
X120944350Y-95291719D01*
X120964562Y-95298951D01*
X120983968Y-95308130D01*
X121002381Y-95319166D01*
X121019624Y-95331954D01*
X121035530Y-95346370D01*
X121049946Y-95362276D01*
X121062734Y-95379519D01*
X121073770Y-95397932D01*
X121082949Y-95417338D01*
X121090181Y-95437550D01*
X121095397Y-95458374D01*
X121098547Y-95479609D01*
X121099600Y-95501050D01*
X121099600Y-95938550D01*
X121098547Y-95959991D01*
X121095397Y-95981226D01*
X121090181Y-96002050D01*
X121082949Y-96022262D01*
X121073770Y-96041668D01*
X121062734Y-96060081D01*
X121049946Y-96077324D01*
X121035530Y-96093230D01*
X121019624Y-96107646D01*
X121002381Y-96120434D01*
X120983968Y-96131470D01*
X120964562Y-96140649D01*
X120944350Y-96147881D01*
X120923526Y-96153097D01*
X120902291Y-96156247D01*
X120880850Y-96157300D01*
X120368350Y-96157300D01*
X120346909Y-96156247D01*
X120325674Y-96153097D01*
X120304850Y-96147881D01*
X120284638Y-96140649D01*
X120265232Y-96131470D01*
X120246819Y-96120434D01*
X120229576Y-96107646D01*
X120213670Y-96093230D01*
X120199254Y-96077324D01*
X120186466Y-96060081D01*
X120175430Y-96041668D01*
X120166251Y-96022262D01*
X120159019Y-96002050D01*
X120153803Y-95981226D01*
X120150653Y-95959991D01*
X120149600Y-95938550D01*
X120149600Y-95501050D01*
X120150653Y-95479609D01*
X120153803Y-95458374D01*
X120159019Y-95437550D01*
X120166251Y-95417338D01*
X120175430Y-95397932D01*
X120186466Y-95379519D01*
X120199254Y-95362276D01*
X120213670Y-95346370D01*
X120229576Y-95331954D01*
X120246819Y-95319166D01*
X120265232Y-95308130D01*
X120284638Y-95298951D01*
X120304850Y-95291719D01*
X120325674Y-95286503D01*
X120346909Y-95283353D01*
X120368350Y-95282300D01*
X120880850Y-95282300D01*
X120902291Y-95283353D01*
X120902291Y-95283353D01*
G37*
D13*
G04 #@! TD*
G04 #@! TO.P,R7,1*
G04 #@! TO.N,Net-(J3-Pad7)*
X120624600Y-95719800D03*
D12*
G04 #@! TO.N,VCC*
G04 #@! TO.C,R8*
G36*
X148792191Y-103704153D02*
X148813426Y-103707303D01*
X148834250Y-103712519D01*
X148854462Y-103719751D01*
X148873868Y-103728930D01*
X148892281Y-103739966D01*
X148909524Y-103752754D01*
X148925430Y-103767170D01*
X148939846Y-103783076D01*
X148952634Y-103800319D01*
X148963670Y-103818732D01*
X148972849Y-103838138D01*
X148980081Y-103858350D01*
X148985297Y-103879174D01*
X148988447Y-103900409D01*
X148989500Y-103921850D01*
X148989500Y-104434350D01*
X148988447Y-104455791D01*
X148985297Y-104477026D01*
X148980081Y-104497850D01*
X148972849Y-104518062D01*
X148963670Y-104537468D01*
X148952634Y-104555881D01*
X148939846Y-104573124D01*
X148925430Y-104589030D01*
X148909524Y-104603446D01*
X148892281Y-104616234D01*
X148873868Y-104627270D01*
X148854462Y-104636449D01*
X148834250Y-104643681D01*
X148813426Y-104648897D01*
X148792191Y-104652047D01*
X148770750Y-104653100D01*
X148333250Y-104653100D01*
X148311809Y-104652047D01*
X148290574Y-104648897D01*
X148269750Y-104643681D01*
X148249538Y-104636449D01*
X148230132Y-104627270D01*
X148211719Y-104616234D01*
X148194476Y-104603446D01*
X148178570Y-104589030D01*
X148164154Y-104573124D01*
X148151366Y-104555881D01*
X148140330Y-104537468D01*
X148131151Y-104518062D01*
X148123919Y-104497850D01*
X148118703Y-104477026D01*
X148115553Y-104455791D01*
X148114500Y-104434350D01*
X148114500Y-103921850D01*
X148115553Y-103900409D01*
X148118703Y-103879174D01*
X148123919Y-103858350D01*
X148131151Y-103838138D01*
X148140330Y-103818732D01*
X148151366Y-103800319D01*
X148164154Y-103783076D01*
X148178570Y-103767170D01*
X148194476Y-103752754D01*
X148211719Y-103739966D01*
X148230132Y-103728930D01*
X148249538Y-103719751D01*
X148269750Y-103712519D01*
X148290574Y-103707303D01*
X148311809Y-103704153D01*
X148333250Y-103703100D01*
X148770750Y-103703100D01*
X148792191Y-103704153D01*
X148792191Y-103704153D01*
G37*
D13*
G04 #@! TD*
G04 #@! TO.P,R8,1*
G04 #@! TO.N,VCC*
X148552000Y-104178100D03*
D12*
G04 #@! TO.N,~RESET~*
G04 #@! TO.C,R8*
G36*
X147217191Y-103704153D02*
X147238426Y-103707303D01*
X147259250Y-103712519D01*
X147279462Y-103719751D01*
X147298868Y-103728930D01*
X147317281Y-103739966D01*
X147334524Y-103752754D01*
X147350430Y-103767170D01*
X147364846Y-103783076D01*
X147377634Y-103800319D01*
X147388670Y-103818732D01*
X147397849Y-103838138D01*
X147405081Y-103858350D01*
X147410297Y-103879174D01*
X147413447Y-103900409D01*
X147414500Y-103921850D01*
X147414500Y-104434350D01*
X147413447Y-104455791D01*
X147410297Y-104477026D01*
X147405081Y-104497850D01*
X147397849Y-104518062D01*
X147388670Y-104537468D01*
X147377634Y-104555881D01*
X147364846Y-104573124D01*
X147350430Y-104589030D01*
X147334524Y-104603446D01*
X147317281Y-104616234D01*
X147298868Y-104627270D01*
X147279462Y-104636449D01*
X147259250Y-104643681D01*
X147238426Y-104648897D01*
X147217191Y-104652047D01*
X147195750Y-104653100D01*
X146758250Y-104653100D01*
X146736809Y-104652047D01*
X146715574Y-104648897D01*
X146694750Y-104643681D01*
X146674538Y-104636449D01*
X146655132Y-104627270D01*
X146636719Y-104616234D01*
X146619476Y-104603446D01*
X146603570Y-104589030D01*
X146589154Y-104573124D01*
X146576366Y-104555881D01*
X146565330Y-104537468D01*
X146556151Y-104518062D01*
X146548919Y-104497850D01*
X146543703Y-104477026D01*
X146540553Y-104455791D01*
X146539500Y-104434350D01*
X146539500Y-103921850D01*
X146540553Y-103900409D01*
X146543703Y-103879174D01*
X146548919Y-103858350D01*
X146556151Y-103838138D01*
X146565330Y-103818732D01*
X146576366Y-103800319D01*
X146589154Y-103783076D01*
X146603570Y-103767170D01*
X146619476Y-103752754D01*
X146636719Y-103739966D01*
X146655132Y-103728930D01*
X146674538Y-103719751D01*
X146694750Y-103712519D01*
X146715574Y-103707303D01*
X146736809Y-103704153D01*
X146758250Y-103703100D01*
X147195750Y-103703100D01*
X147217191Y-103704153D01*
X147217191Y-103704153D01*
G37*
D13*
G04 #@! TD*
G04 #@! TO.P,R8,2*
G04 #@! TO.N,~RESET~*
X146977000Y-104178100D03*
D12*
G04 #@! TO.N,/D-*
G04 #@! TO.C,R9*
G36*
X164844991Y-94025653D02*
X164866226Y-94028803D01*
X164887050Y-94034019D01*
X164907262Y-94041251D01*
X164926668Y-94050430D01*
X164945081Y-94061466D01*
X164962324Y-94074254D01*
X164978230Y-94088670D01*
X164992646Y-94104576D01*
X165005434Y-94121819D01*
X165016470Y-94140232D01*
X165025649Y-94159638D01*
X165032881Y-94179850D01*
X165038097Y-94200674D01*
X165041247Y-94221909D01*
X165042300Y-94243350D01*
X165042300Y-94755850D01*
X165041247Y-94777291D01*
X165038097Y-94798526D01*
X165032881Y-94819350D01*
X165025649Y-94839562D01*
X165016470Y-94858968D01*
X165005434Y-94877381D01*
X164992646Y-94894624D01*
X164978230Y-94910530D01*
X164962324Y-94924946D01*
X164945081Y-94937734D01*
X164926668Y-94948770D01*
X164907262Y-94957949D01*
X164887050Y-94965181D01*
X164866226Y-94970397D01*
X164844991Y-94973547D01*
X164823550Y-94974600D01*
X164386050Y-94974600D01*
X164364609Y-94973547D01*
X164343374Y-94970397D01*
X164322550Y-94965181D01*
X164302338Y-94957949D01*
X164282932Y-94948770D01*
X164264519Y-94937734D01*
X164247276Y-94924946D01*
X164231370Y-94910530D01*
X164216954Y-94894624D01*
X164204166Y-94877381D01*
X164193130Y-94858968D01*
X164183951Y-94839562D01*
X164176719Y-94819350D01*
X164171503Y-94798526D01*
X164168353Y-94777291D01*
X164167300Y-94755850D01*
X164167300Y-94243350D01*
X164168353Y-94221909D01*
X164171503Y-94200674D01*
X164176719Y-94179850D01*
X164183951Y-94159638D01*
X164193130Y-94140232D01*
X164204166Y-94121819D01*
X164216954Y-94104576D01*
X164231370Y-94088670D01*
X164247276Y-94074254D01*
X164264519Y-94061466D01*
X164282932Y-94050430D01*
X164302338Y-94041251D01*
X164322550Y-94034019D01*
X164343374Y-94028803D01*
X164364609Y-94025653D01*
X164386050Y-94024600D01*
X164823550Y-94024600D01*
X164844991Y-94025653D01*
X164844991Y-94025653D01*
G37*
D13*
G04 #@! TD*
G04 #@! TO.P,R9,2*
G04 #@! TO.N,/D-*
X164604800Y-94499600D03*
D12*
G04 #@! TO.N,VBUS*
G04 #@! TO.C,R9*
G36*
X163269991Y-94025653D02*
X163291226Y-94028803D01*
X163312050Y-94034019D01*
X163332262Y-94041251D01*
X163351668Y-94050430D01*
X163370081Y-94061466D01*
X163387324Y-94074254D01*
X163403230Y-94088670D01*
X163417646Y-94104576D01*
X163430434Y-94121819D01*
X163441470Y-94140232D01*
X163450649Y-94159638D01*
X163457881Y-94179850D01*
X163463097Y-94200674D01*
X163466247Y-94221909D01*
X163467300Y-94243350D01*
X163467300Y-94755850D01*
X163466247Y-94777291D01*
X163463097Y-94798526D01*
X163457881Y-94819350D01*
X163450649Y-94839562D01*
X163441470Y-94858968D01*
X163430434Y-94877381D01*
X163417646Y-94894624D01*
X163403230Y-94910530D01*
X163387324Y-94924946D01*
X163370081Y-94937734D01*
X163351668Y-94948770D01*
X163332262Y-94957949D01*
X163312050Y-94965181D01*
X163291226Y-94970397D01*
X163269991Y-94973547D01*
X163248550Y-94974600D01*
X162811050Y-94974600D01*
X162789609Y-94973547D01*
X162768374Y-94970397D01*
X162747550Y-94965181D01*
X162727338Y-94957949D01*
X162707932Y-94948770D01*
X162689519Y-94937734D01*
X162672276Y-94924946D01*
X162656370Y-94910530D01*
X162641954Y-94894624D01*
X162629166Y-94877381D01*
X162618130Y-94858968D01*
X162608951Y-94839562D01*
X162601719Y-94819350D01*
X162596503Y-94798526D01*
X162593353Y-94777291D01*
X162592300Y-94755850D01*
X162592300Y-94243350D01*
X162593353Y-94221909D01*
X162596503Y-94200674D01*
X162601719Y-94179850D01*
X162608951Y-94159638D01*
X162618130Y-94140232D01*
X162629166Y-94121819D01*
X162641954Y-94104576D01*
X162656370Y-94088670D01*
X162672276Y-94074254D01*
X162689519Y-94061466D01*
X162707932Y-94050430D01*
X162727338Y-94041251D01*
X162747550Y-94034019D01*
X162768374Y-94028803D01*
X162789609Y-94025653D01*
X162811050Y-94024600D01*
X163248550Y-94024600D01*
X163269991Y-94025653D01*
X163269991Y-94025653D01*
G37*
D13*
G04 #@! TD*
G04 #@! TO.P,R9,1*
G04 #@! TO.N,VBUS*
X163029800Y-94499600D03*
D12*
G04 #@! TO.N,Net-(J1-Pad5)*
G04 #@! TO.C,R10*
G36*
X173025291Y-105773153D02*
X173046526Y-105776303D01*
X173067350Y-105781519D01*
X173087562Y-105788751D01*
X173106968Y-105797930D01*
X173125381Y-105808966D01*
X173142624Y-105821754D01*
X173158530Y-105836170D01*
X173172946Y-105852076D01*
X173185734Y-105869319D01*
X173196770Y-105887732D01*
X173205949Y-105907138D01*
X173213181Y-105927350D01*
X173218397Y-105948174D01*
X173221547Y-105969409D01*
X173222600Y-105990850D01*
X173222600Y-106503350D01*
X173221547Y-106524791D01*
X173218397Y-106546026D01*
X173213181Y-106566850D01*
X173205949Y-106587062D01*
X173196770Y-106606468D01*
X173185734Y-106624881D01*
X173172946Y-106642124D01*
X173158530Y-106658030D01*
X173142624Y-106672446D01*
X173125381Y-106685234D01*
X173106968Y-106696270D01*
X173087562Y-106705449D01*
X173067350Y-106712681D01*
X173046526Y-106717897D01*
X173025291Y-106721047D01*
X173003850Y-106722100D01*
X172566350Y-106722100D01*
X172544909Y-106721047D01*
X172523674Y-106717897D01*
X172502850Y-106712681D01*
X172482638Y-106705449D01*
X172463232Y-106696270D01*
X172444819Y-106685234D01*
X172427576Y-106672446D01*
X172411670Y-106658030D01*
X172397254Y-106642124D01*
X172384466Y-106624881D01*
X172373430Y-106606468D01*
X172364251Y-106587062D01*
X172357019Y-106566850D01*
X172351803Y-106546026D01*
X172348653Y-106524791D01*
X172347600Y-106503350D01*
X172347600Y-105990850D01*
X172348653Y-105969409D01*
X172351803Y-105948174D01*
X172357019Y-105927350D01*
X172364251Y-105907138D01*
X172373430Y-105887732D01*
X172384466Y-105869319D01*
X172397254Y-105852076D01*
X172411670Y-105836170D01*
X172427576Y-105821754D01*
X172444819Y-105808966D01*
X172463232Y-105797930D01*
X172482638Y-105788751D01*
X172502850Y-105781519D01*
X172523674Y-105776303D01*
X172544909Y-105773153D01*
X172566350Y-105772100D01*
X173003850Y-105772100D01*
X173025291Y-105773153D01*
X173025291Y-105773153D01*
G37*
D13*
G04 #@! TD*
G04 #@! TO.P,R10,1*
G04 #@! TO.N,Net-(J1-Pad5)*
X172785100Y-106247100D03*
D12*
G04 #@! TO.N,GND*
G04 #@! TO.C,R10*
G36*
X171450291Y-105773153D02*
X171471526Y-105776303D01*
X171492350Y-105781519D01*
X171512562Y-105788751D01*
X171531968Y-105797930D01*
X171550381Y-105808966D01*
X171567624Y-105821754D01*
X171583530Y-105836170D01*
X171597946Y-105852076D01*
X171610734Y-105869319D01*
X171621770Y-105887732D01*
X171630949Y-105907138D01*
X171638181Y-105927350D01*
X171643397Y-105948174D01*
X171646547Y-105969409D01*
X171647600Y-105990850D01*
X171647600Y-106503350D01*
X171646547Y-106524791D01*
X171643397Y-106546026D01*
X171638181Y-106566850D01*
X171630949Y-106587062D01*
X171621770Y-106606468D01*
X171610734Y-106624881D01*
X171597946Y-106642124D01*
X171583530Y-106658030D01*
X171567624Y-106672446D01*
X171550381Y-106685234D01*
X171531968Y-106696270D01*
X171512562Y-106705449D01*
X171492350Y-106712681D01*
X171471526Y-106717897D01*
X171450291Y-106721047D01*
X171428850Y-106722100D01*
X170991350Y-106722100D01*
X170969909Y-106721047D01*
X170948674Y-106717897D01*
X170927850Y-106712681D01*
X170907638Y-106705449D01*
X170888232Y-106696270D01*
X170869819Y-106685234D01*
X170852576Y-106672446D01*
X170836670Y-106658030D01*
X170822254Y-106642124D01*
X170809466Y-106624881D01*
X170798430Y-106606468D01*
X170789251Y-106587062D01*
X170782019Y-106566850D01*
X170776803Y-106546026D01*
X170773653Y-106524791D01*
X170772600Y-106503350D01*
X170772600Y-105990850D01*
X170773653Y-105969409D01*
X170776803Y-105948174D01*
X170782019Y-105927350D01*
X170789251Y-105907138D01*
X170798430Y-105887732D01*
X170809466Y-105869319D01*
X170822254Y-105852076D01*
X170836670Y-105836170D01*
X170852576Y-105821754D01*
X170869819Y-105808966D01*
X170888232Y-105797930D01*
X170907638Y-105788751D01*
X170927850Y-105781519D01*
X170948674Y-105776303D01*
X170969909Y-105773153D01*
X170991350Y-105772100D01*
X171428850Y-105772100D01*
X171450291Y-105773153D01*
X171450291Y-105773153D01*
G37*
D13*
G04 #@! TD*
G04 #@! TO.P,R10,2*
G04 #@! TO.N,GND*
X171210100Y-106247100D03*
D20*
G04 #@! TO.P,SW1,1*
G04 #@! TO.N,~RESET~*
X126773200Y-93940000D03*
G04 #@! TO.P,SW1,5*
G04 #@! TO.N,GND*
X135383200Y-101560000D03*
G04 #@! TO.P,SW1,2*
G04 #@! TO.N,SLCK*
X126773200Y-96480000D03*
G04 #@! TO.P,SW1,6*
G04 #@! TO.N,VTG*
X135383200Y-99020000D03*
G04 #@! TO.P,SW1,3*
G04 #@! TO.N,VCC*
X126773200Y-99020000D03*
G04 #@! TO.P,SW1,7*
G04 #@! TO.N,GND*
X135383200Y-96480000D03*
G04 #@! TO.P,SW1,4*
G04 #@! TO.N,OPT*
X126773200Y-101560000D03*
G04 #@! TO.P,SW1,8*
G04 #@! TO.N,RESET*
X135383200Y-93940000D03*
G04 #@! TD*
D21*
G04 #@! TO.P,U1,1*
G04 #@! TO.N,PD3*
X150822200Y-100550000D03*
G04 #@! TO.P,U1,2*
G04 #@! TO.N,/RD-*
X150822200Y-99750000D03*
G04 #@! TO.P,U1,3*
G04 #@! TO.N,PE0*
X150822200Y-98950000D03*
G04 #@! TO.P,U1,4*
G04 #@! TO.N,VCC*
X150822200Y-98150000D03*
G04 #@! TO.P,U1,5*
G04 #@! TO.N,GND*
X150822200Y-97350000D03*
G04 #@! TO.P,U1,6*
G04 #@! TO.N,PE1*
X150822200Y-96550000D03*
G04 #@! TO.P,U1,7*
G04 #@! TO.N,Net-(C1-Pad1)*
X150822200Y-95750000D03*
G04 #@! TO.P,U1,8*
G04 #@! TO.N,Net-(C2-Pad1)*
X150822200Y-94950000D03*
D22*
G04 #@! TO.P,U1,9*
G04 #@! TO.N,PD5*
X149372200Y-93500000D03*
G04 #@! TO.P,U1,10*
G04 #@! TO.N,PD6*
X148572200Y-93500000D03*
G04 #@! TO.P,U1,11*
G04 #@! TO.N,LEDR*
X147772200Y-93500000D03*
G04 #@! TO.P,U1,12*
G04 #@! TO.N,SLWCLK*
X146972200Y-93500000D03*
G04 #@! TO.P,U1,13*
G04 #@! TO.N,OPT*
X146172200Y-93500000D03*
G04 #@! TO.P,U1,14*
G04 #@! TO.N,RESET*
X145372200Y-93500000D03*
G04 #@! TO.P,U1,15*
G04 #@! TO.N,MOSI*
X144572200Y-93500000D03*
G04 #@! TO.P,U1,16*
G04 #@! TO.N,MISO*
X143772200Y-93500000D03*
D21*
G04 #@! TO.P,U1,17*
G04 #@! TO.N,SCK*
X142322200Y-94950000D03*
G04 #@! TO.P,U1,18*
G04 #@! TO.N,VCC*
X142322200Y-95750000D03*
G04 #@! TO.P,U1,19*
G04 #@! TO.N,PE2*
X142322200Y-96550000D03*
G04 #@! TO.P,U1,20*
G04 #@! TO.N,Net-(C6-Pad2)*
X142322200Y-97350000D03*
G04 #@! TO.P,U1,21*
G04 #@! TO.N,GND*
X142322200Y-98150000D03*
G04 #@! TO.P,U1,22*
G04 #@! TO.N,PE3*
X142322200Y-98950000D03*
G04 #@! TO.P,U1,23*
G04 #@! TO.N,MISC*
X142322200Y-99750000D03*
G04 #@! TO.P,U1,24*
G04 #@! TO.N,PC1*
X142322200Y-100550000D03*
D22*
G04 #@! TO.P,U1,25*
G04 #@! TO.N,SLCK*
X143772200Y-102000000D03*
G04 #@! TO.P,U1,26*
G04 #@! TO.N,LEDG*
X144572200Y-102000000D03*
G04 #@! TO.P,U1,27*
G04 #@! TO.N,LEDG2*
X145372200Y-102000000D03*
G04 #@! TO.P,U1,28*
G04 #@! TO.N,LEDY*
X146172200Y-102000000D03*
G04 #@! TO.P,U1,29*
G04 #@! TO.N,~RESET~*
X146972200Y-102000000D03*
G04 #@! TO.P,U1,30*
G04 #@! TO.N,RXD*
X147772200Y-102000000D03*
G04 #@! TO.P,U1,31*
G04 #@! TO.N,TXD*
X148572200Y-102000000D03*
G04 #@! TO.P,U1,32*
G04 #@! TO.N,/RD+*
X149372200Y-102000000D03*
G04 #@! TD*
D23*
G04 #@! TO.P,Y1,1*
G04 #@! TO.N,Net-(C1-Pad1)*
X158210900Y-95257700D03*
G04 #@! TO.P,Y1,2*
G04 #@! TO.N,GND*
X158210900Y-91457700D03*
G04 #@! TO.P,Y1,3*
G04 #@! TO.N,Net-(C2-Pad1)*
X155910900Y-91457700D03*
G04 #@! TO.P,Y1,4*
G04 #@! TO.N,GND*
X155910900Y-95257700D03*
G04 #@! TD*
D24*
G04 #@! TO.N,GND*
X138493500Y-94551500D03*
D25*
X154330400Y-96532700D03*
X158699200Y-89204800D03*
X154317700Y-97383602D03*
X154343100Y-95669098D03*
X159499300Y-89192100D03*
D26*
X167182800Y-104140000D03*
X167182800Y-103174800D03*
X168097200Y-103174800D03*
X168097200Y-104127300D03*
X167170100Y-105054400D03*
X168097200Y-105041700D03*
X166255700Y-103174800D03*
X166243000Y-104114600D03*
X166230300Y-105054400D03*
X167617900Y-90401900D03*
X133400800Y-101574600D03*
X133515100Y-96469200D03*
X124790200Y-87528400D03*
X124853700Y-107975400D03*
X138480700Y-97984000D03*
D27*
X147472400Y-105752900D03*
X154571700Y-104114600D03*
D26*
G04 #@! TO.N,VCC*
X136931400Y-87909400D03*
X139573000Y-92710000D03*
X155130500Y-99453700D03*
X155105100Y-101727000D03*
X153746200Y-90449400D03*
X150888700Y-87922100D03*
G04 #@! TO.N,VBUS*
X160743900Y-89166700D03*
G04 #@! TO.N,VTG*
X133400800Y-98996500D03*
G04 #@! TO.N,Net-(F1-Pad2)*
X166077900Y-91922600D03*
G04 #@! TO.N,PC1*
X142303500Y-101981000D03*
D25*
G04 #@! TO.N,PD3*
X149072600Y-100533200D03*
G04 #@! TO.N,PD5*
X149364700Y-95707200D03*
G04 #@! TO.N,PD6*
X148412200Y-95948500D03*
G04 #@! TO.N,PE0*
X149085300Y-98971100D03*
G04 #@! TO.N,PE1*
X149098000Y-96558100D03*
G04 #@! TO.N,PE2*
X144005300Y-96634300D03*
G04 #@! TO.N,PE3*
X143979900Y-98945700D03*
D26*
G04 #@! TO.N,TXD*
X152463500Y-86525100D03*
D25*
X147497800Y-99720400D03*
D26*
G04 #@! TO.N,RXD*
X124155200Y-89319100D03*
D25*
X146456400Y-99847400D03*
D26*
G04 #@! TO.N,SLWCLK*
X135940800Y-91884500D03*
G04 #@! TO.N,RESET*
X129184400Y-92697300D03*
X131483100Y-94996000D03*
G04 #@! TO.N,SCK*
X140703300Y-94107000D03*
X122885200Y-99656900D03*
G04 #@! TO.N,MOSI*
X140741400Y-91655900D03*
G04 #@! TO.N,MISO*
X142671800Y-93497400D03*
X121259600Y-105562400D03*
G04 #@! TO.N,MISC*
X130759200Y-97739200D03*
X121805700Y-98120200D03*
G04 #@! TD*
D28*
G04 #@! TO.N,GND*
X155910900Y-96805200D02*
X155910900Y-95257700D01*
X156641700Y-97536000D02*
X155910900Y-96805200D01*
X158210900Y-89922900D02*
X158210900Y-91457700D01*
X157492800Y-89204800D02*
X158210900Y-89922900D01*
X152192200Y-97350000D02*
X152996900Y-96545300D01*
X150822200Y-97350000D02*
X152192200Y-97350000D01*
X140813300Y-98150000D02*
X142322200Y-98150000D01*
X140017500Y-98945800D02*
X140813300Y-98150000D01*
X138480700Y-96345700D02*
X138480700Y-95770700D01*
X138480700Y-97984000D02*
X138480700Y-96345700D01*
X138480700Y-95195700D02*
X138493500Y-95182900D01*
X138480700Y-95770700D02*
X138480700Y-95195700D01*
X138493500Y-95182900D02*
X138493500Y-94551500D01*
X153571900Y-96545300D02*
X153584500Y-96532700D01*
X152996900Y-96545300D02*
X153571900Y-96545300D01*
X153584500Y-96532700D02*
X154330400Y-96532700D01*
X157492800Y-89204800D02*
X158030300Y-89204800D01*
X158030300Y-89204800D02*
X158699200Y-89204800D01*
X156641700Y-97536000D02*
X154470098Y-97536000D01*
X154470098Y-97536000D02*
X154317700Y-97383602D01*
X155910900Y-95257700D02*
X154754498Y-95257700D01*
X154754498Y-95257700D02*
X154660599Y-95351599D01*
X154660599Y-95351599D02*
X154343100Y-95669098D01*
X158210900Y-91307700D02*
X159499300Y-90019300D01*
X158210900Y-91457700D02*
X158210900Y-91307700D01*
X159499300Y-90019300D02*
X159499300Y-89192100D01*
X171210100Y-106247100D02*
X170102700Y-106247100D01*
X170102700Y-106247100D02*
X169405300Y-105549700D01*
X168605200Y-105549700D02*
X168097200Y-105041700D01*
X169405300Y-105549700D02*
X168605200Y-105549700D01*
X162626000Y-105076500D02*
X162626000Y-105869700D01*
X162626000Y-105869700D02*
X163156900Y-106400600D01*
X165823900Y-106400600D02*
X167170100Y-105054400D01*
X163156900Y-106400600D02*
X165823900Y-106400600D01*
X164589500Y-90401900D02*
X167617900Y-90401900D01*
X133706000Y-101560000D02*
X135383200Y-101560000D01*
X133691400Y-101574600D02*
X133706000Y-101560000D01*
X133400800Y-101574600D02*
X133691400Y-101574600D01*
X133706000Y-96480000D02*
X135383200Y-96480000D01*
X133695200Y-96469200D02*
X133706000Y-96480000D01*
X133515100Y-96469200D02*
X133695200Y-96469200D01*
D29*
X124790200Y-87528400D02*
X124793600Y-87525000D01*
X124793600Y-87525000D02*
X126100000Y-87525000D01*
X124854100Y-107975000D02*
X126100000Y-107975000D01*
X124853700Y-107975400D02*
X124854100Y-107975000D01*
X126100000Y-107025000D02*
X126100000Y-107975000D01*
X126100000Y-88475000D02*
X126100000Y-87525000D01*
D28*
X139442500Y-98945800D02*
X138480700Y-97984000D01*
X140017500Y-98945800D02*
X139442500Y-98945800D01*
X167182800Y-102268800D02*
X167182800Y-103174800D01*
X168201600Y-101250000D02*
X167182800Y-102268800D01*
X137771400Y-96480000D02*
X138480700Y-95770700D01*
X135383200Y-96480000D02*
X137771400Y-96480000D01*
X152933400Y-105752900D02*
X154571700Y-104114600D01*
X147472400Y-105752900D02*
X152933400Y-105752900D01*
G04 #@! TO.N,Net-(C1-Pad1)*
X158216700Y-95263500D02*
X158210900Y-95257700D01*
X158216700Y-97536000D02*
X158216700Y-95263500D01*
D29*
X152077800Y-95750000D02*
X150822200Y-95750000D01*
X158210900Y-95257700D02*
X158210900Y-94558500D01*
X158210900Y-94558500D02*
X157378400Y-93726000D01*
X157378400Y-93726000D02*
X154101800Y-93726000D01*
X154101800Y-93726000D02*
X152077800Y-95750000D01*
D28*
G04 #@! TO.N,Net-(C2-Pad1)*
X155910900Y-89211700D02*
X155917800Y-89204800D01*
X155910900Y-91457700D02*
X155910900Y-89211700D01*
D29*
X155910900Y-92562500D02*
X155910900Y-91457700D01*
X155369700Y-93103700D02*
X155910900Y-92562500D01*
X153631900Y-93103700D02*
X155369700Y-93103700D01*
X151785600Y-94950000D02*
X153631900Y-93103700D01*
X150822200Y-94950000D02*
X151785600Y-94950000D01*
G04 #@! TO.N,VCC*
X152967200Y-98150000D02*
X152996900Y-98120300D01*
D28*
X150822200Y-98150000D02*
X152967200Y-98150000D01*
D29*
X142301500Y-95770700D02*
X142322200Y-95750000D01*
D28*
X140055700Y-95770700D02*
X142301500Y-95770700D01*
X128005200Y-99020000D02*
X126773200Y-99020000D01*
X128968500Y-98056700D02*
X128005200Y-99020000D01*
X128968500Y-95377000D02*
X128968500Y-98056700D01*
X133286500Y-91059000D02*
X128968500Y-95377000D01*
X133286500Y-89192100D02*
X133286500Y-91059000D01*
X134569200Y-87909400D02*
X133286500Y-89192100D01*
X136931400Y-87909400D02*
X134569200Y-87909400D01*
X140055700Y-95770700D02*
X139573000Y-95288000D01*
X139573000Y-95288000D02*
X139573000Y-92710000D01*
X152996900Y-98120300D02*
X153797100Y-98120300D01*
X153797100Y-98120300D02*
X155130500Y-99453700D01*
X148552000Y-104178100D02*
X152654000Y-104178100D01*
X152654000Y-104178100D02*
X155105100Y-101727000D01*
X153746200Y-90449400D02*
X153416000Y-90449400D01*
X153416000Y-90449400D02*
X150888700Y-87922100D01*
X148061000Y-98150000D02*
X150822200Y-98150000D01*
X145008600Y-95097600D02*
X148061000Y-98150000D01*
X144195800Y-95097600D02*
X145008600Y-95097600D01*
X143543400Y-95750000D02*
X144195800Y-95097600D01*
X142322200Y-95750000D02*
X143543400Y-95750000D01*
D29*
G04 #@! TO.N,Net-(C6-Pad2)*
X142301400Y-97370800D02*
X142322200Y-97350000D01*
D28*
X140017500Y-97370800D02*
X142301400Y-97370800D01*
G04 #@! TO.N,VBUS*
X163029800Y-94499600D02*
X162317600Y-94499600D01*
X162317600Y-94499600D02*
X160743900Y-92925900D01*
X160743900Y-92925900D02*
X160743900Y-89166700D01*
D29*
G04 #@! TO.N,VTG*
X133424300Y-99020000D02*
X133400800Y-98996500D01*
X135383200Y-99020000D02*
X133424300Y-99020000D01*
G04 #@! TO.N,Net-(D1-Pad4)*
X130241800Y-88475000D02*
X130513300Y-88746500D01*
X127900000Y-88475000D02*
X130241800Y-88475000D01*
G04 #@! TO.N,Net-(D1-Pad1)*
X130230700Y-87365400D02*
X130526000Y-87070100D01*
X130160000Y-87525000D02*
X130513300Y-87171700D01*
X127900000Y-87525000D02*
X130160000Y-87525000D01*
G04 #@! TO.N,Net-(D2-Pad1)*
X130175500Y-107025000D02*
X130462500Y-106738000D01*
X127900000Y-107025000D02*
X130175500Y-107025000D01*
G04 #@! TO.N,Net-(D2-Pad4)*
X130112000Y-107975000D02*
X130462500Y-108325500D01*
X127900000Y-107975000D02*
X130112000Y-107975000D01*
D28*
G04 #@! TO.N,/D-*
X164604800Y-94577300D02*
X164682500Y-94499600D01*
X164604800Y-96774000D02*
X164604800Y-94499600D01*
X164604800Y-93367200D02*
X163639500Y-92401900D01*
X164604800Y-94499600D02*
X164604800Y-93367200D01*
D29*
X164628800Y-96750000D02*
X164604800Y-96774000D01*
X168201600Y-96750000D02*
X164628800Y-96750000D01*
D28*
G04 #@! TO.N,/D+*
X163576000Y-103076500D02*
X163576000Y-101866700D01*
X164604800Y-100837900D02*
X164604800Y-98729800D01*
X163576000Y-101866700D02*
X164604800Y-100837900D01*
D29*
X164625000Y-98750000D02*
X164604800Y-98729800D01*
X168201600Y-98750000D02*
X164625000Y-98750000D01*
D28*
G04 #@! TO.N,Net-(F1-Pad2)*
X168201600Y-94046300D02*
X166077900Y-91922600D01*
X168201600Y-94250000D02*
X168201600Y-94046300D01*
D30*
G04 #@! TO.N,Net-(J1-Pad5)*
X170850000Y-92050000D02*
X170853500Y-92050000D01*
X170955100Y-92050000D02*
X172643800Y-93738700D01*
X172643800Y-101757800D02*
X170951600Y-103450000D01*
X172643800Y-93738700D02*
X172643800Y-101757800D01*
X172785100Y-105283500D02*
X170951600Y-103450000D01*
X172785100Y-106247100D02*
X172785100Y-105283500D01*
D29*
G04 #@! TO.N,PC1*
X142303500Y-100568700D02*
X142322200Y-100550000D01*
X142303500Y-101981000D02*
X142303500Y-100568700D01*
G04 #@! TO.N,PD3*
X149072600Y-100533200D02*
X150805400Y-100533200D01*
X150805400Y-100533200D02*
X150822200Y-100550000D01*
G04 #@! TO.N,PD5*
X149372200Y-95699700D02*
X149364700Y-95707200D01*
X149372200Y-93500000D02*
X149372200Y-95699700D01*
G04 #@! TO.N,PD6*
X148572200Y-95788500D02*
X148572200Y-93500000D01*
X148412200Y-95948500D02*
X148572200Y-95788500D01*
G04 #@! TO.N,PE0*
X149106400Y-98950000D02*
X149085300Y-98971100D01*
X150822200Y-98950000D02*
X149106400Y-98950000D01*
G04 #@! TO.N,PE1*
X150822200Y-96550000D02*
X149106100Y-96550000D01*
X149106100Y-96550000D02*
X149098000Y-96558100D01*
G04 #@! TO.N,PE2*
X142406500Y-96634300D02*
X142322200Y-96550000D01*
X144005300Y-96634300D02*
X142406500Y-96634300D01*
G04 #@! TO.N,PE3*
X142326500Y-98945700D02*
X142322200Y-98950000D01*
X143979900Y-98945700D02*
X142326500Y-98945700D01*
G04 #@! TO.N,TXD*
X121121800Y-91400000D02*
X117753400Y-91400000D01*
X123583700Y-88938100D02*
X121121800Y-91400000D01*
X123583700Y-87083900D02*
X123583700Y-88938100D01*
X124523500Y-86144100D02*
X123583700Y-87083900D01*
X152463500Y-86525100D02*
X152196800Y-86258400D01*
X152019000Y-86144100D02*
X124523500Y-86144100D01*
X152196800Y-86258400D02*
X152133300Y-86258400D01*
X152133300Y-86258400D02*
X152019000Y-86144100D01*
X148475700Y-101903500D02*
X148572200Y-102000000D01*
X148572200Y-100972600D02*
X148572200Y-102000000D01*
X148374100Y-100774500D02*
X148572200Y-100972600D01*
X148374100Y-100596700D02*
X148374100Y-100774500D01*
X147497800Y-99720400D02*
X148374100Y-100596700D01*
G04 #@! TO.N,RXD*
X119534300Y-93940000D02*
X124155200Y-89319100D01*
X117753400Y-93940000D02*
X119534300Y-93940000D01*
X147772200Y-101163200D02*
X147772200Y-102000000D01*
X146456400Y-99847400D02*
X147772200Y-101163200D01*
G04 #@! TO.N,Net-(J3-Pad7)*
X117776900Y-96456500D02*
X117753400Y-96480000D01*
D28*
X117753400Y-96480000D02*
X118873900Y-96480000D01*
X119634100Y-95719800D02*
X120624600Y-95719800D01*
X118873900Y-96480000D02*
X119634100Y-95719800D01*
D29*
G04 #@! TO.N,SLWCLK*
X146972200Y-90342900D02*
X146972200Y-93500000D01*
X135940800Y-91884500D02*
X138214100Y-89611200D01*
X138214100Y-89611200D02*
X146240500Y-89611200D01*
X146240500Y-89611200D02*
X146972200Y-90342900D01*
G04 #@! TO.N,RESET*
X136908000Y-93940000D02*
X140157300Y-90690700D01*
X135383200Y-93940000D02*
X136908000Y-93940000D01*
X140157300Y-90690700D02*
X144322800Y-90690700D01*
X145372200Y-91740100D02*
X145372200Y-93500000D01*
X144322800Y-90690700D02*
X145372200Y-91740100D01*
X117753400Y-99020000D02*
X122302900Y-99020000D01*
X122302900Y-99020000D02*
X123266200Y-98056700D01*
X123266200Y-98056700D02*
X123266200Y-94348300D01*
X123266200Y-94348300D02*
X124917200Y-92697300D01*
X124917200Y-92697300D02*
X129184400Y-92697300D01*
X135355900Y-93967300D02*
X135383200Y-93940000D01*
X132511800Y-93967300D02*
X135355900Y-93967300D01*
X131483100Y-94996000D02*
X132511800Y-93967300D01*
G04 #@! TO.N,SCK*
X142322200Y-94950000D02*
X141546300Y-94950000D01*
X141546300Y-94950000D02*
X140703300Y-94107000D01*
X119022500Y-101560000D02*
X117753400Y-101560000D01*
X120925600Y-99656900D02*
X119022500Y-101560000D01*
X122885200Y-99656900D02*
X120925600Y-99656900D01*
G04 #@! TO.N,MOSI*
X144572200Y-93500000D02*
X144572200Y-92426000D01*
X144572200Y-92426000D02*
X143802100Y-91655900D01*
X143802100Y-91655900D02*
X140741400Y-91655900D01*
G04 #@! TO.N,MISO*
X142674400Y-93500000D02*
X143772200Y-93500000D01*
X142671800Y-93497400D02*
X142674400Y-93500000D01*
X119873400Y-104100000D02*
X117753400Y-104100000D01*
X121259600Y-105562400D02*
X121259600Y-105486200D01*
X121259600Y-105486200D02*
X119873400Y-104100000D01*
G04 #@! TO.N,LEDR*
X132088300Y-87171700D02*
X137412900Y-87171700D01*
X137412900Y-87171700D02*
X139280900Y-89039700D01*
X139280900Y-89039700D02*
X146596100Y-89039700D01*
X147772200Y-90215800D02*
X147772200Y-93500000D01*
X146596100Y-89039700D02*
X147772200Y-90215800D01*
G04 #@! TO.N,LEDG*
X144572200Y-102000000D02*
X144572200Y-103103200D01*
X144572200Y-103103200D02*
X143814800Y-103860600D01*
X143814800Y-103860600D02*
X125107700Y-103860600D01*
X125107700Y-103860600D02*
X124320300Y-103073200D01*
X124320300Y-103073200D02*
X124320300Y-96164400D01*
X124320300Y-96164400D02*
X125272800Y-95211900D01*
X125272800Y-95211900D02*
X128206500Y-95211900D01*
X132088300Y-91330100D02*
X132088300Y-88746500D01*
X128206500Y-95211900D02*
X132088300Y-91330100D01*
G04 #@! TO.N,LEDG2*
X132037500Y-106738000D02*
X133469800Y-106738000D01*
X133469800Y-106738000D02*
X135826500Y-104381300D01*
X135826500Y-104381300D02*
X144208500Y-104381300D01*
X145372200Y-103217600D02*
X145372200Y-102000000D01*
X144208500Y-104381300D02*
X145372200Y-103217600D01*
G04 #@! TO.N,LEDY*
X146172200Y-103205000D02*
X146172200Y-102000000D01*
X144424400Y-104952800D02*
X146172200Y-103205000D01*
X136347200Y-104952800D02*
X144424400Y-104952800D01*
X132974500Y-108325500D02*
X136347200Y-104952800D01*
X132037500Y-108325500D02*
X132974500Y-108325500D01*
G04 #@! TO.N,/RD+*
X152406400Y-102000000D02*
X149372200Y-102000000D01*
X153530300Y-100876100D02*
X152406400Y-102000000D01*
X158648400Y-100876100D02*
X153530300Y-100876100D01*
X160794700Y-98729800D02*
X158648400Y-100876100D01*
X163029800Y-98729800D02*
X160794700Y-98729800D01*
G04 #@! TO.N,/RD-*
X152975700Y-99750000D02*
X150822200Y-99750000D01*
X158381700Y-100291900D02*
X153517600Y-100291900D01*
X161899600Y-96774000D02*
X158381700Y-100291900D01*
X153517600Y-100291900D02*
X152975700Y-99750000D01*
X163029800Y-96774000D02*
X161899600Y-96774000D01*
G04 #@! TO.N,MISC*
X141194400Y-99750000D02*
X142322200Y-99750000D01*
X140627100Y-100317300D02*
X141194400Y-99750000D01*
X133388100Y-100317300D02*
X140627100Y-100317300D01*
X130810000Y-97739200D02*
X133388100Y-100317300D01*
X130759200Y-97739200D02*
X130810000Y-97739200D01*
X121081800Y-98120200D02*
X120624600Y-97663000D01*
X120624600Y-97663000D02*
X120624600Y-97294800D01*
X121805700Y-98120200D02*
X121081800Y-98120200D01*
D28*
G04 #@! TO.N,~RESET~*
X146977000Y-102004800D02*
X146972200Y-102000000D01*
X146977000Y-104178100D02*
X146977000Y-102004800D01*
D29*
X145618100Y-105537000D02*
X146977000Y-104178100D01*
X136931400Y-105537000D02*
X145618100Y-105537000D01*
X125528700Y-93940000D02*
X123786900Y-95681800D01*
X123786900Y-95681800D02*
X123786900Y-108242100D01*
X123786900Y-108242100D02*
X124904500Y-109359700D01*
X133108700Y-109359700D02*
X136931400Y-105537000D01*
X124904500Y-109359700D02*
X133108700Y-109359700D01*
X126773200Y-93940000D02*
X125528700Y-93940000D01*
G04 #@! TO.N,SLCK*
X125361700Y-103289100D02*
X142483100Y-103289100D01*
X124891800Y-102819200D02*
X125361700Y-103289100D01*
X124891800Y-97510600D02*
X124891800Y-102819200D01*
X125922400Y-96480000D02*
X124891800Y-97510600D01*
X142483100Y-103289100D02*
X143772200Y-102000000D01*
X126773200Y-96480000D02*
X125922400Y-96480000D01*
G04 #@! TO.N,OPT*
X129832100Y-100584000D02*
X128856100Y-101560000D01*
X129832100Y-95605600D02*
X129832100Y-100584000D01*
X132715000Y-92722700D02*
X129832100Y-95605600D01*
X137312400Y-92722700D02*
X132715000Y-92722700D01*
X146172200Y-93500000D02*
X146172200Y-91701900D01*
X146172200Y-91701900D02*
X144602200Y-90131900D01*
X139903200Y-90131900D02*
X137312400Y-92722700D01*
X128856100Y-101560000D02*
X126773200Y-101560000D01*
X144602200Y-90131900D02*
X139903200Y-90131900D01*
G04 #@! TD*
D31*
G04 #@! TO.N,GND*
G36*
X168452800Y-105448100D02*
X165886854Y-105448100D01*
X165875249Y-102755700D01*
X168452800Y-102755700D01*
X168452800Y-105448100D01*
X168452800Y-105448100D01*
G37*
X168452800Y-105448100D02*
X165886854Y-105448100D01*
X165875249Y-102755700D01*
X168452800Y-102755700D01*
X168452800Y-105448100D01*
G04 #@! TD*
M02*
