G04 #@! TF.GenerationSoftware,KiCad,Pcbnew,(5.0.0-3-g5ebb6b6)*
G04 #@! TF.CreationDate,2019-02-08T12:04:07-05:00*
G04 #@! TF.ProjectId,ROCKETasp,524F434B45546173702E6B696361645F,2.0*
G04 #@! TF.SameCoordinates,Original*
G04 #@! TF.FileFunction,Legend,Bot*
G04 #@! TF.FilePolarity,Positive*
%FSLAX46Y46*%
G04 Gerber Fmt 4.6, Leading zero omitted, Abs format (unit mm)*
G04 Created by KiCad (PCBNEW (5.0.0-3-g5ebb6b6)) date Friday, February 08, 2019 at 12:04:07 PM*
%MOMM*%
%LPD*%
G01*
G04 APERTURE LIST*
%ADD10C,0.150000*%
%ADD11C,0.120000*%
%ADD12C,0.010000*%
G04 APERTURE END LIST*
D10*
X164396176Y-103691180D02*
X164729509Y-103214990D01*
X164967604Y-103691180D02*
X164967604Y-102691180D01*
X164586652Y-102691180D01*
X164491414Y-102738800D01*
X164443795Y-102786419D01*
X164396176Y-102881657D01*
X164396176Y-103024514D01*
X164443795Y-103119752D01*
X164491414Y-103167371D01*
X164586652Y-103214990D01*
X164967604Y-103214990D01*
X163777128Y-102691180D02*
X163586652Y-102691180D01*
X163491414Y-102738800D01*
X163396176Y-102834038D01*
X163348557Y-103024514D01*
X163348557Y-103357847D01*
X163396176Y-103548323D01*
X163491414Y-103643561D01*
X163586652Y-103691180D01*
X163777128Y-103691180D01*
X163872366Y-103643561D01*
X163967604Y-103548323D01*
X164015223Y-103357847D01*
X164015223Y-103024514D01*
X163967604Y-102834038D01*
X163872366Y-102738800D01*
X163777128Y-102691180D01*
X162348557Y-103595942D02*
X162396176Y-103643561D01*
X162539033Y-103691180D01*
X162634271Y-103691180D01*
X162777128Y-103643561D01*
X162872366Y-103548323D01*
X162919985Y-103453085D01*
X162967604Y-103262609D01*
X162967604Y-103119752D01*
X162919985Y-102929276D01*
X162872366Y-102834038D01*
X162777128Y-102738800D01*
X162634271Y-102691180D01*
X162539033Y-102691180D01*
X162396176Y-102738800D01*
X162348557Y-102786419D01*
X161919985Y-103691180D02*
X161919985Y-102691180D01*
X161348557Y-103691180D02*
X161777128Y-103119752D01*
X161348557Y-102691180D02*
X161919985Y-103262609D01*
X160919985Y-103167371D02*
X160586652Y-103167371D01*
X160443795Y-103691180D02*
X160919985Y-103691180D01*
X160919985Y-102691180D01*
X160443795Y-102691180D01*
X160158080Y-102691180D02*
X159586652Y-102691180D01*
X159872366Y-103691180D02*
X159872366Y-102691180D01*
X159253319Y-103691180D02*
X159253319Y-103024514D01*
X159253319Y-102691180D02*
X159300938Y-102738800D01*
X159253319Y-102786419D01*
X159205700Y-102738800D01*
X159253319Y-102691180D01*
X159253319Y-102786419D01*
X158824747Y-103643561D02*
X158729509Y-103691180D01*
X158539033Y-103691180D01*
X158443795Y-103643561D01*
X158396176Y-103548323D01*
X158396176Y-103500704D01*
X158443795Y-103405466D01*
X158539033Y-103357847D01*
X158681890Y-103357847D01*
X158777128Y-103310228D01*
X158824747Y-103214990D01*
X158824747Y-103167371D01*
X158777128Y-103072133D01*
X158681890Y-103024514D01*
X158539033Y-103024514D01*
X158443795Y-103072133D01*
X157967604Y-103024514D02*
X157967604Y-104024514D01*
X157967604Y-103072133D02*
X157872366Y-103024514D01*
X157681890Y-103024514D01*
X157586652Y-103072133D01*
X157539033Y-103119752D01*
X157491414Y-103214990D01*
X157491414Y-103500704D01*
X157539033Y-103595942D01*
X157586652Y-103643561D01*
X157681890Y-103691180D01*
X157872366Y-103691180D01*
X157967604Y-103643561D01*
X156396176Y-103024514D02*
X156158080Y-103691180D01*
X155919985Y-103024514D01*
X155586652Y-102786419D02*
X155539033Y-102738800D01*
X155443795Y-102691180D01*
X155205700Y-102691180D01*
X155110461Y-102738800D01*
X155062842Y-102786419D01*
X155015223Y-102881657D01*
X155015223Y-102976895D01*
X155062842Y-103119752D01*
X155634271Y-103691180D01*
X155015223Y-103691180D01*
X154586652Y-103595942D02*
X154539033Y-103643561D01*
X154586652Y-103691180D01*
X154634271Y-103643561D01*
X154586652Y-103595942D01*
X154586652Y-103691180D01*
X153919985Y-102691180D02*
X153824747Y-102691180D01*
X153729509Y-102738800D01*
X153681890Y-102786419D01*
X153634271Y-102881657D01*
X153586652Y-103072133D01*
X153586652Y-103310228D01*
X153634271Y-103500704D01*
X153681890Y-103595942D01*
X153729509Y-103643561D01*
X153824747Y-103691180D01*
X153919985Y-103691180D01*
X154015223Y-103643561D01*
X154062842Y-103595942D01*
X154110461Y-103500704D01*
X154158080Y-103310228D01*
X154158080Y-103072133D01*
X154110461Y-102881657D01*
X154062842Y-102786419D01*
X154015223Y-102738800D01*
X153919985Y-102691180D01*
X165015223Y-105293561D02*
X164872366Y-105341180D01*
X164634271Y-105341180D01*
X164539033Y-105293561D01*
X164491414Y-105245942D01*
X164443795Y-105150704D01*
X164443795Y-105055466D01*
X164491414Y-104960228D01*
X164539033Y-104912609D01*
X164634271Y-104864990D01*
X164824747Y-104817371D01*
X164919985Y-104769752D01*
X164967604Y-104722133D01*
X165015223Y-104626895D01*
X165015223Y-104531657D01*
X164967604Y-104436419D01*
X164919985Y-104388800D01*
X164824747Y-104341180D01*
X164586652Y-104341180D01*
X164443795Y-104388800D01*
X164015223Y-105341180D02*
X164015223Y-104341180D01*
X163634271Y-104341180D01*
X163539033Y-104388800D01*
X163491414Y-104436419D01*
X163443795Y-104531657D01*
X163443795Y-104674514D01*
X163491414Y-104769752D01*
X163539033Y-104817371D01*
X163634271Y-104864990D01*
X164015223Y-104864990D01*
X163015223Y-105341180D02*
X163015223Y-104341180D01*
X161919985Y-104341180D02*
X161348557Y-104341180D01*
X161634271Y-105341180D02*
X161634271Y-104341180D01*
X161015223Y-105341180D02*
X161015223Y-104341180D01*
X160634271Y-104341180D01*
X160539033Y-104388800D01*
X160491414Y-104436419D01*
X160443795Y-104531657D01*
X160443795Y-104674514D01*
X160491414Y-104769752D01*
X160539033Y-104817371D01*
X160634271Y-104864990D01*
X161015223Y-104864990D01*
X160015223Y-105341180D02*
X160015223Y-104341180D01*
X158777128Y-105341180D02*
X158777128Y-104341180D01*
X158396176Y-104341180D01*
X158300938Y-104388800D01*
X158253319Y-104436419D01*
X158205700Y-104531657D01*
X158205700Y-104674514D01*
X158253319Y-104769752D01*
X158300938Y-104817371D01*
X158396176Y-104864990D01*
X158777128Y-104864990D01*
X157777128Y-105341180D02*
X157777128Y-104341180D01*
X157539033Y-104341180D01*
X157396176Y-104388800D01*
X157300938Y-104484038D01*
X157253319Y-104579276D01*
X157205700Y-104769752D01*
X157205700Y-104912609D01*
X157253319Y-105103085D01*
X157300938Y-105198323D01*
X157396176Y-105293561D01*
X157539033Y-105341180D01*
X157777128Y-105341180D01*
X156777128Y-105341180D02*
X156777128Y-104341180D01*
X155539033Y-105341180D02*
X155539033Y-104341180D01*
X155158080Y-104341180D01*
X155062842Y-104388800D01*
X155015223Y-104436419D01*
X154967604Y-104531657D01*
X154967604Y-104674514D01*
X155015223Y-104769752D01*
X155062842Y-104817371D01*
X155158080Y-104864990D01*
X155539033Y-104864990D01*
X154539033Y-105341180D02*
X154539033Y-104674514D01*
X154539033Y-104864990D02*
X154491414Y-104769752D01*
X154443795Y-104722133D01*
X154348557Y-104674514D01*
X154253319Y-104674514D01*
X153777128Y-105341180D02*
X153872366Y-105293561D01*
X153919985Y-105245942D01*
X153967604Y-105150704D01*
X153967604Y-104864990D01*
X153919985Y-104769752D01*
X153872366Y-104722133D01*
X153777128Y-104674514D01*
X153634271Y-104674514D01*
X153539033Y-104722133D01*
X153491414Y-104769752D01*
X153443795Y-104864990D01*
X153443795Y-105150704D01*
X153491414Y-105245942D01*
X153539033Y-105293561D01*
X153634271Y-105341180D01*
X153777128Y-105341180D01*
X152586652Y-104674514D02*
X152586652Y-105484038D01*
X152634271Y-105579276D01*
X152681890Y-105626895D01*
X152777128Y-105674514D01*
X152919985Y-105674514D01*
X153015223Y-105626895D01*
X152586652Y-105293561D02*
X152681890Y-105341180D01*
X152872366Y-105341180D01*
X152967604Y-105293561D01*
X153015223Y-105245942D01*
X153062842Y-105150704D01*
X153062842Y-104864990D01*
X153015223Y-104769752D01*
X152967604Y-104722133D01*
X152872366Y-104674514D01*
X152681890Y-104674514D01*
X152586652Y-104722133D01*
X152110461Y-105341180D02*
X152110461Y-104674514D01*
X152110461Y-104864990D02*
X152062842Y-104769752D01*
X152015223Y-104722133D01*
X151919985Y-104674514D01*
X151824747Y-104674514D01*
X151062842Y-105341180D02*
X151062842Y-104817371D01*
X151110461Y-104722133D01*
X151205700Y-104674514D01*
X151396176Y-104674514D01*
X151491414Y-104722133D01*
X151062842Y-105293561D02*
X151158080Y-105341180D01*
X151396176Y-105341180D01*
X151491414Y-105293561D01*
X151539033Y-105198323D01*
X151539033Y-105103085D01*
X151491414Y-105007847D01*
X151396176Y-104960228D01*
X151158080Y-104960228D01*
X151062842Y-104912609D01*
X150586652Y-105341180D02*
X150586652Y-104674514D01*
X150586652Y-104769752D02*
X150539033Y-104722133D01*
X150443795Y-104674514D01*
X150300938Y-104674514D01*
X150205700Y-104722133D01*
X150158080Y-104817371D01*
X150158080Y-105341180D01*
X150158080Y-104817371D02*
X150110461Y-104722133D01*
X150015223Y-104674514D01*
X149872366Y-104674514D01*
X149777128Y-104722133D01*
X149729509Y-104817371D01*
X149729509Y-105341180D01*
X149253319Y-105341180D02*
X149253319Y-104674514D01*
X149253319Y-104769752D02*
X149205700Y-104722133D01*
X149110461Y-104674514D01*
X148967604Y-104674514D01*
X148872366Y-104722133D01*
X148824747Y-104817371D01*
X148824747Y-105341180D01*
X148824747Y-104817371D02*
X148777128Y-104722133D01*
X148681890Y-104674514D01*
X148539033Y-104674514D01*
X148443795Y-104722133D01*
X148396176Y-104817371D01*
X148396176Y-105341180D01*
X147539033Y-105293561D02*
X147634271Y-105341180D01*
X147824747Y-105341180D01*
X147919985Y-105293561D01*
X147967604Y-105198323D01*
X147967604Y-104817371D01*
X147919985Y-104722133D01*
X147824747Y-104674514D01*
X147634271Y-104674514D01*
X147539033Y-104722133D01*
X147491414Y-104817371D01*
X147491414Y-104912609D01*
X147967604Y-105007847D01*
X147062842Y-105341180D02*
X147062842Y-104674514D01*
X147062842Y-104864990D02*
X147015223Y-104769752D01*
X146967604Y-104722133D01*
X146872366Y-104674514D01*
X146777128Y-104674514D01*
D11*
G04 #@! TO.C,C3*
X121553700Y-92390179D02*
X121553700Y-92064621D01*
X120533700Y-92390179D02*
X120533700Y-92064621D01*
G04 #@! TO.C,C7*
X145876778Y-89841000D02*
X145359622Y-89841000D01*
X145876778Y-91261000D02*
X145359622Y-91261000D01*
G04 #@! TO.C,C8*
X157967178Y-98284100D02*
X157450022Y-98284100D01*
X157967178Y-96864100D02*
X157450022Y-96864100D01*
G04 #@! TO.C,C9*
X121528300Y-103439179D02*
X121528300Y-103113621D01*
X120508300Y-103439179D02*
X120508300Y-103113621D01*
G04 #@! TO.C,F1*
X159379836Y-95410700D02*
X160583964Y-95410700D01*
X159379836Y-93590700D02*
X160583964Y-93590700D01*
G04 #@! TO.C,JP1*
X158532600Y-89830400D02*
G75*
G03X157832600Y-90530400I0J-700000D01*
G01*
X157832600Y-91130400D02*
G75*
G03X158532600Y-91830400I700000J0D01*
G01*
X159932600Y-91830400D02*
G75*
G03X160632600Y-91130400I0J700000D01*
G01*
X160632600Y-90530400D02*
G75*
G03X159932600Y-89830400I-700000J0D01*
G01*
X160632600Y-91130400D02*
X160632600Y-90530400D01*
X158532600Y-91830400D02*
X159932600Y-91830400D01*
X157832600Y-90530400D02*
X157832600Y-91130400D01*
X159932600Y-89830400D02*
X158532600Y-89830400D01*
G04 #@! TO.C,U2*
X150439200Y-93859400D02*
X150439200Y-92599400D01*
X150439200Y-87039400D02*
X150439200Y-88299400D01*
X154199200Y-93859400D02*
X150439200Y-93859400D01*
X156449200Y-87039400D02*
X150439200Y-87039400D01*
D12*
G04 #@! TO.C,G\002A\002A\002A*
G36*
X125516923Y-87256056D02*
X126024923Y-87256056D01*
X126024923Y-88610722D01*
X126222478Y-88610722D01*
X126222478Y-87256056D01*
X126730478Y-87256056D01*
X126730478Y-87086722D01*
X125516923Y-87086722D01*
X125516923Y-87256056D01*
X125516923Y-87256056D01*
G37*
X125516923Y-87256056D02*
X126024923Y-87256056D01*
X126024923Y-88610722D01*
X126222478Y-88610722D01*
X126222478Y-87256056D01*
X126730478Y-87256056D01*
X126730478Y-87086722D01*
X125516923Y-87086722D01*
X125516923Y-87256056D01*
G36*
X128039707Y-87092074D02*
X127937824Y-87100833D01*
X127693811Y-87753475D01*
X127449797Y-88406117D01*
X126962813Y-87100833D01*
X126860757Y-87092074D01*
X126794354Y-87091396D01*
X126760007Y-87100852D01*
X126758700Y-87104048D01*
X126768564Y-87134735D01*
X126796422Y-87211110D01*
X126839673Y-87326307D01*
X126895716Y-87473462D01*
X126961949Y-87645709D01*
X127035772Y-87836183D01*
X127047978Y-87867543D01*
X127337256Y-88610306D01*
X127563034Y-88610306D01*
X127852311Y-87867543D01*
X127927097Y-87674814D01*
X127994704Y-87499225D01*
X128052533Y-87347642D01*
X128097981Y-87226930D01*
X128128448Y-87143955D01*
X128141333Y-87105580D01*
X128141589Y-87104048D01*
X128116879Y-87092673D01*
X128055838Y-87090949D01*
X128039707Y-87092074D01*
X128039707Y-87092074D01*
G37*
X128039707Y-87092074D02*
X127937824Y-87100833D01*
X127693811Y-87753475D01*
X127449797Y-88406117D01*
X126962813Y-87100833D01*
X126860757Y-87092074D01*
X126794354Y-87091396D01*
X126760007Y-87100852D01*
X126758700Y-87104048D01*
X126768564Y-87134735D01*
X126796422Y-87211110D01*
X126839673Y-87326307D01*
X126895716Y-87473462D01*
X126961949Y-87645709D01*
X127035772Y-87836183D01*
X127047978Y-87867543D01*
X127337256Y-88610306D01*
X127563034Y-88610306D01*
X127852311Y-87867543D01*
X127927097Y-87674814D01*
X127994704Y-87499225D01*
X128052533Y-87347642D01*
X128097981Y-87226930D01*
X128128448Y-87143955D01*
X128141333Y-87105580D01*
X128141589Y-87104048D01*
X128116879Y-87092673D01*
X128055838Y-87090949D01*
X128039707Y-87092074D01*
G36*
X124461440Y-87077192D02*
X124305077Y-87116369D01*
X124246923Y-87143351D01*
X124165019Y-87202807D01*
X124092635Y-87279393D01*
X124037124Y-87361160D01*
X124005836Y-87436159D01*
X124006125Y-87492441D01*
X124021145Y-87510311D01*
X124103127Y-87537810D01*
X124173082Y-87510917D01*
X124218700Y-87447667D01*
X124297258Y-87337378D01*
X124411585Y-87267101D01*
X124566047Y-87234170D01*
X124568584Y-87233956D01*
X124743372Y-87243541D01*
X124892027Y-87302529D01*
X125012160Y-87409732D01*
X125058710Y-87477489D01*
X125097904Y-87551218D01*
X125121174Y-87620218D01*
X125132499Y-87703611D01*
X125135857Y-87820521D01*
X125135923Y-87848722D01*
X125133634Y-87974484D01*
X125124136Y-88062975D01*
X125103477Y-88133275D01*
X125067710Y-88204463D01*
X125059274Y-88218994D01*
X124957726Y-88339927D01*
X124824963Y-88421370D01*
X124671724Y-88461594D01*
X124508747Y-88458873D01*
X124346772Y-88411476D01*
X124239867Y-88350883D01*
X124193934Y-88311625D01*
X124170717Y-88264474D01*
X124162802Y-88189582D01*
X124162256Y-88143134D01*
X124162256Y-87989833D01*
X124585589Y-87989833D01*
X124585589Y-87820500D01*
X123962791Y-87820500D01*
X123978811Y-88422340D01*
X124158717Y-88520995D01*
X124276765Y-88579422D01*
X124380362Y-88612010D01*
X124499752Y-88627393D01*
X124539717Y-88629773D01*
X124700131Y-88628211D01*
X124826086Y-88607178D01*
X124847980Y-88599953D01*
X125022169Y-88515816D01*
X125151890Y-88406841D01*
X125246544Y-88265052D01*
X125249269Y-88259535D01*
X125317961Y-88066912D01*
X125343382Y-87868050D01*
X125327998Y-87672563D01*
X125274275Y-87490062D01*
X125184679Y-87330160D01*
X125061674Y-87202469D01*
X124962070Y-87139856D01*
X124810150Y-87088837D01*
X124636536Y-87067982D01*
X124461440Y-87077192D01*
X124461440Y-87077192D01*
G37*
X124461440Y-87077192D02*
X124305077Y-87116369D01*
X124246923Y-87143351D01*
X124165019Y-87202807D01*
X124092635Y-87279393D01*
X124037124Y-87361160D01*
X124005836Y-87436159D01*
X124006125Y-87492441D01*
X124021145Y-87510311D01*
X124103127Y-87537810D01*
X124173082Y-87510917D01*
X124218700Y-87447667D01*
X124297258Y-87337378D01*
X124411585Y-87267101D01*
X124566047Y-87234170D01*
X124568584Y-87233956D01*
X124743372Y-87243541D01*
X124892027Y-87302529D01*
X125012160Y-87409732D01*
X125058710Y-87477489D01*
X125097904Y-87551218D01*
X125121174Y-87620218D01*
X125132499Y-87703611D01*
X125135857Y-87820521D01*
X125135923Y-87848722D01*
X125133634Y-87974484D01*
X125124136Y-88062975D01*
X125103477Y-88133275D01*
X125067710Y-88204463D01*
X125059274Y-88218994D01*
X124957726Y-88339927D01*
X124824963Y-88421370D01*
X124671724Y-88461594D01*
X124508747Y-88458873D01*
X124346772Y-88411476D01*
X124239867Y-88350883D01*
X124193934Y-88311625D01*
X124170717Y-88264474D01*
X124162802Y-88189582D01*
X124162256Y-88143134D01*
X124162256Y-87989833D01*
X124585589Y-87989833D01*
X124585589Y-87820500D01*
X123962791Y-87820500D01*
X123978811Y-88422340D01*
X124158717Y-88520995D01*
X124276765Y-88579422D01*
X124380362Y-88612010D01*
X124499752Y-88627393D01*
X124539717Y-88629773D01*
X124700131Y-88628211D01*
X124826086Y-88607178D01*
X124847980Y-88599953D01*
X125022169Y-88515816D01*
X125151890Y-88406841D01*
X125246544Y-88265052D01*
X125249269Y-88259535D01*
X125317961Y-88066912D01*
X125343382Y-87868050D01*
X125327998Y-87672563D01*
X125274275Y-87490062D01*
X125184679Y-87330160D01*
X125061674Y-87202469D01*
X124962070Y-87139856D01*
X124810150Y-87088837D01*
X124636536Y-87067982D01*
X124461440Y-87077192D01*
G36*
X130399367Y-88610722D02*
X130596923Y-88610722D01*
X130596923Y-87086722D01*
X130399367Y-87086722D01*
X130399367Y-88610722D01*
X130399367Y-88610722D01*
G37*
X130399367Y-88610722D02*
X130596923Y-88610722D01*
X130596923Y-87086722D01*
X130399367Y-87086722D01*
X130399367Y-88610722D01*
G36*
X131908984Y-87672333D02*
X131852860Y-87848642D01*
X131801450Y-88010309D01*
X131757610Y-88148338D01*
X131724198Y-88253729D01*
X131704071Y-88317484D01*
X131700697Y-88328283D01*
X131678919Y-88398622D01*
X131658165Y-88314172D01*
X131643469Y-88262455D01*
X131614324Y-88166438D01*
X131573656Y-88035523D01*
X131524395Y-87879115D01*
X131469466Y-87706616D01*
X131453954Y-87658222D01*
X131270495Y-87086722D01*
X130963811Y-87086722D01*
X130963811Y-88610722D01*
X131160307Y-88610722D01*
X131167893Y-87968667D01*
X131175478Y-87326611D01*
X131574990Y-88596611D01*
X131791966Y-88596611D01*
X132191478Y-87326611D01*
X132199064Y-87968667D01*
X132206649Y-88610722D01*
X132403145Y-88610722D01*
X132403145Y-87086722D01*
X132095492Y-87086722D01*
X131908984Y-87672333D01*
X131908984Y-87672333D01*
G37*
X131908984Y-87672333D02*
X131852860Y-87848642D01*
X131801450Y-88010309D01*
X131757610Y-88148338D01*
X131724198Y-88253729D01*
X131704071Y-88317484D01*
X131700697Y-88328283D01*
X131678919Y-88398622D01*
X131658165Y-88314172D01*
X131643469Y-88262455D01*
X131614324Y-88166438D01*
X131573656Y-88035523D01*
X131524395Y-87879115D01*
X131469466Y-87706616D01*
X131453954Y-87658222D01*
X131270495Y-87086722D01*
X130963811Y-87086722D01*
X130963811Y-88610722D01*
X131160307Y-88610722D01*
X131167893Y-87968667D01*
X131175478Y-87326611D01*
X131574990Y-88596611D01*
X131791966Y-88596611D01*
X132191478Y-87326611D01*
X132199064Y-87968667D01*
X132206649Y-88610722D01*
X132403145Y-88610722D01*
X132403145Y-87086722D01*
X132095492Y-87086722D01*
X131908984Y-87672333D01*
G36*
X126970095Y-91595222D02*
X126913972Y-91771530D01*
X126862561Y-91933198D01*
X126818721Y-92071227D01*
X126785309Y-92176618D01*
X126765182Y-92240373D01*
X126761809Y-92251172D01*
X126740030Y-92321511D01*
X126719276Y-92237061D01*
X126704580Y-92185344D01*
X126675435Y-92089327D01*
X126634768Y-91958412D01*
X126585506Y-91802004D01*
X126530577Y-91629505D01*
X126515065Y-91581111D01*
X126331606Y-91009611D01*
X126024923Y-91009611D01*
X126024923Y-92533611D01*
X126221418Y-92533611D01*
X126229004Y-91891556D01*
X126236589Y-91249500D01*
X126636101Y-92519500D01*
X126853077Y-92519500D01*
X127252589Y-91249500D01*
X127260175Y-91891556D01*
X127267760Y-92533611D01*
X127464256Y-92533611D01*
X127464256Y-91009611D01*
X127156603Y-91009611D01*
X126970095Y-91595222D01*
X126970095Y-91595222D01*
G37*
X126970095Y-91595222D02*
X126913972Y-91771530D01*
X126862561Y-91933198D01*
X126818721Y-92071227D01*
X126785309Y-92176618D01*
X126765182Y-92240373D01*
X126761809Y-92251172D01*
X126740030Y-92321511D01*
X126719276Y-92237061D01*
X126704580Y-92185344D01*
X126675435Y-92089327D01*
X126634768Y-91958412D01*
X126585506Y-91802004D01*
X126530577Y-91629505D01*
X126515065Y-91581111D01*
X126331606Y-91009611D01*
X126024923Y-91009611D01*
X126024923Y-92533611D01*
X126221418Y-92533611D01*
X126229004Y-91891556D01*
X126236589Y-91249500D01*
X126636101Y-92519500D01*
X126853077Y-92519500D01*
X127252589Y-91249500D01*
X127260175Y-91891556D01*
X127267760Y-92533611D01*
X127464256Y-92533611D01*
X127464256Y-91009611D01*
X127156603Y-91009611D01*
X126970095Y-91595222D01*
G36*
X124913093Y-90995355D02*
X124734088Y-91051058D01*
X124580878Y-91153368D01*
X124460200Y-91298563D01*
X124420854Y-91371402D01*
X124382773Y-91461297D01*
X124360171Y-91543930D01*
X124349394Y-91639768D01*
X124346784Y-91769275D01*
X124346835Y-91785722D01*
X124359690Y-91981472D01*
X124399530Y-92139763D01*
X124471205Y-92275058D01*
X124539385Y-92359969D01*
X124655596Y-92450701D01*
X124806165Y-92515688D01*
X124973379Y-92550969D01*
X125139528Y-92552585D01*
X125270035Y-92523299D01*
X125438690Y-92433471D01*
X125571061Y-92301909D01*
X125648788Y-92174012D01*
X125690186Y-92081266D01*
X125714356Y-91998005D01*
X125725624Y-91902342D01*
X125728314Y-91772390D01*
X125728314Y-91771611D01*
X125724090Y-91725279D01*
X125546302Y-91725279D01*
X125538284Y-91909272D01*
X125492449Y-92074641D01*
X125411737Y-92212326D01*
X125299089Y-92313269D01*
X125251604Y-92338724D01*
X125094389Y-92385535D01*
X124942017Y-92377863D01*
X124810291Y-92329000D01*
X124692689Y-92249048D01*
X124611460Y-92142388D01*
X124563048Y-92001595D01*
X124543896Y-91819246D01*
X124543256Y-91771611D01*
X124556299Y-91578863D01*
X124597801Y-91429345D01*
X124671317Y-91315635D01*
X124780405Y-91230307D01*
X124810291Y-91214222D01*
X124970385Y-91161233D01*
X125125692Y-91160748D01*
X125267751Y-91208947D01*
X125388099Y-91302010D01*
X125478275Y-91436116D01*
X125513562Y-91531722D01*
X125546302Y-91725279D01*
X125724090Y-91725279D01*
X125707396Y-91542185D01*
X125646163Y-91349678D01*
X125546040Y-91195898D01*
X125408453Y-91082651D01*
X125234829Y-91011743D01*
X125111155Y-90989982D01*
X124913093Y-90995355D01*
X124913093Y-90995355D01*
G37*
X124913093Y-90995355D02*
X124734088Y-91051058D01*
X124580878Y-91153368D01*
X124460200Y-91298563D01*
X124420854Y-91371402D01*
X124382773Y-91461297D01*
X124360171Y-91543930D01*
X124349394Y-91639768D01*
X124346784Y-91769275D01*
X124346835Y-91785722D01*
X124359690Y-91981472D01*
X124399530Y-92139763D01*
X124471205Y-92275058D01*
X124539385Y-92359969D01*
X124655596Y-92450701D01*
X124806165Y-92515688D01*
X124973379Y-92550969D01*
X125139528Y-92552585D01*
X125270035Y-92523299D01*
X125438690Y-92433471D01*
X125571061Y-92301909D01*
X125648788Y-92174012D01*
X125690186Y-92081266D01*
X125714356Y-91998005D01*
X125725624Y-91902342D01*
X125728314Y-91772390D01*
X125728314Y-91771611D01*
X125724090Y-91725279D01*
X125546302Y-91725279D01*
X125538284Y-91909272D01*
X125492449Y-92074641D01*
X125411737Y-92212326D01*
X125299089Y-92313269D01*
X125251604Y-92338724D01*
X125094389Y-92385535D01*
X124942017Y-92377863D01*
X124810291Y-92329000D01*
X124692689Y-92249048D01*
X124611460Y-92142388D01*
X124563048Y-92001595D01*
X124543896Y-91819246D01*
X124543256Y-91771611D01*
X124556299Y-91578863D01*
X124597801Y-91429345D01*
X124671317Y-91315635D01*
X124780405Y-91230307D01*
X124810291Y-91214222D01*
X124970385Y-91161233D01*
X125125692Y-91160748D01*
X125267751Y-91208947D01*
X125388099Y-91302010D01*
X125478275Y-91436116D01*
X125513562Y-91531722D01*
X125546302Y-91725279D01*
X125724090Y-91725279D01*
X125707396Y-91542185D01*
X125646163Y-91349678D01*
X125546040Y-91195898D01*
X125408453Y-91082651D01*
X125234829Y-91011743D01*
X125111155Y-90989982D01*
X124913093Y-90995355D01*
G36*
X130342923Y-91722151D02*
X129965078Y-91365881D01*
X129831088Y-91240069D01*
X129730544Y-91147983D01*
X129656069Y-91084372D01*
X129600284Y-91043983D01*
X129555812Y-91021564D01*
X129515275Y-91011863D01*
X129471294Y-91009627D01*
X129464615Y-91009611D01*
X129341996Y-91009611D01*
X129644904Y-91313461D01*
X129750025Y-91420173D01*
X129839306Y-91513215D01*
X129905829Y-91585186D01*
X129942675Y-91628683D01*
X129947811Y-91637545D01*
X129931754Y-91665476D01*
X129887028Y-91731286D01*
X129818806Y-91827677D01*
X129732258Y-91947351D01*
X129632556Y-92083011D01*
X129623159Y-92095695D01*
X129298506Y-92533611D01*
X129539708Y-92533611D01*
X129819691Y-92152010D01*
X130099673Y-91770410D01*
X130221298Y-91889775D01*
X130342923Y-92009141D01*
X130342923Y-92533611D01*
X130540478Y-92533611D01*
X130540478Y-91009611D01*
X130342923Y-91009611D01*
X130342923Y-91722151D01*
X130342923Y-91722151D01*
G37*
X130342923Y-91722151D02*
X129965078Y-91365881D01*
X129831088Y-91240069D01*
X129730544Y-91147983D01*
X129656069Y-91084372D01*
X129600284Y-91043983D01*
X129555812Y-91021564D01*
X129515275Y-91011863D01*
X129471294Y-91009627D01*
X129464615Y-91009611D01*
X129341996Y-91009611D01*
X129644904Y-91313461D01*
X129750025Y-91420173D01*
X129839306Y-91513215D01*
X129905829Y-91585186D01*
X129942675Y-91628683D01*
X129947811Y-91637545D01*
X129931754Y-91665476D01*
X129887028Y-91731286D01*
X129818806Y-91827677D01*
X129732258Y-91947351D01*
X129632556Y-92083011D01*
X129623159Y-92095695D01*
X129298506Y-92533611D01*
X129539708Y-92533611D01*
X129819691Y-92152010D01*
X130099673Y-91770410D01*
X130221298Y-91889775D01*
X130342923Y-92009141D01*
X130342923Y-92533611D01*
X130540478Y-92533611D01*
X130540478Y-91009611D01*
X130342923Y-91009611D01*
X130342923Y-91722151D01*
G36*
X131279999Y-90995559D02*
X131126885Y-91055518D01*
X131024950Y-91130903D01*
X130979303Y-91183870D01*
X130930573Y-91255514D01*
X130888010Y-91329739D01*
X130860863Y-91390453D01*
X130858067Y-91421274D01*
X130890745Y-91433994D01*
X130954349Y-91449393D01*
X130956660Y-91449859D01*
X131012456Y-91455976D01*
X131049742Y-91438362D01*
X131085448Y-91385488D01*
X131104432Y-91349240D01*
X131186858Y-91241700D01*
X131295829Y-91175799D01*
X131420795Y-91150629D01*
X131551206Y-91165285D01*
X131676512Y-91218862D01*
X131786163Y-91310453D01*
X131857313Y-91413895D01*
X131894186Y-91524213D01*
X131913978Y-91667956D01*
X131915770Y-91824469D01*
X131898644Y-91973095D01*
X131884742Y-92031144D01*
X131819713Y-92175218D01*
X131725019Y-92283172D01*
X131610067Y-92354248D01*
X131484266Y-92387685D01*
X131357023Y-92382724D01*
X131237746Y-92338608D01*
X131135842Y-92254575D01*
X131060721Y-92129868D01*
X131049270Y-92098566D01*
X131024127Y-92035582D01*
X130993592Y-92015084D01*
X130937644Y-92025041D01*
X130930351Y-92027114D01*
X130866503Y-92047826D01*
X130831802Y-92063585D01*
X130831325Y-92064023D01*
X130831672Y-92099150D01*
X130856974Y-92164747D01*
X130899485Y-92245278D01*
X130951457Y-92325208D01*
X130979534Y-92361238D01*
X131103963Y-92467186D01*
X131259050Y-92534778D01*
X131431343Y-92560877D01*
X131607390Y-92542344D01*
X131672611Y-92522897D01*
X131828291Y-92445860D01*
X131944615Y-92335582D01*
X132022858Y-92204963D01*
X132090941Y-92001566D01*
X132117107Y-91779316D01*
X132099752Y-91558867D01*
X132079705Y-91473875D01*
X132006841Y-91309427D01*
X131897473Y-91174859D01*
X131760854Y-91073180D01*
X131606235Y-91007399D01*
X131442866Y-90980522D01*
X131279999Y-90995559D01*
X131279999Y-90995559D01*
G37*
X131279999Y-90995559D02*
X131126885Y-91055518D01*
X131024950Y-91130903D01*
X130979303Y-91183870D01*
X130930573Y-91255514D01*
X130888010Y-91329739D01*
X130860863Y-91390453D01*
X130858067Y-91421274D01*
X130890745Y-91433994D01*
X130954349Y-91449393D01*
X130956660Y-91449859D01*
X131012456Y-91455976D01*
X131049742Y-91438362D01*
X131085448Y-91385488D01*
X131104432Y-91349240D01*
X131186858Y-91241700D01*
X131295829Y-91175799D01*
X131420795Y-91150629D01*
X131551206Y-91165285D01*
X131676512Y-91218862D01*
X131786163Y-91310453D01*
X131857313Y-91413895D01*
X131894186Y-91524213D01*
X131913978Y-91667956D01*
X131915770Y-91824469D01*
X131898644Y-91973095D01*
X131884742Y-92031144D01*
X131819713Y-92175218D01*
X131725019Y-92283172D01*
X131610067Y-92354248D01*
X131484266Y-92387685D01*
X131357023Y-92382724D01*
X131237746Y-92338608D01*
X131135842Y-92254575D01*
X131060721Y-92129868D01*
X131049270Y-92098566D01*
X131024127Y-92035582D01*
X130993592Y-92015084D01*
X130937644Y-92025041D01*
X130930351Y-92027114D01*
X130866503Y-92047826D01*
X130831802Y-92063585D01*
X130831325Y-92064023D01*
X130831672Y-92099150D01*
X130856974Y-92164747D01*
X130899485Y-92245278D01*
X130951457Y-92325208D01*
X130979534Y-92361238D01*
X131103963Y-92467186D01*
X131259050Y-92534778D01*
X131431343Y-92560877D01*
X131607390Y-92542344D01*
X131672611Y-92522897D01*
X131828291Y-92445860D01*
X131944615Y-92335582D01*
X132022858Y-92204963D01*
X132090941Y-92001566D01*
X132117107Y-91779316D01*
X132099752Y-91558867D01*
X132079705Y-91473875D01*
X132006841Y-91309427D01*
X131897473Y-91174859D01*
X131760854Y-91073180D01*
X131606235Y-91007399D01*
X131442866Y-90980522D01*
X131279999Y-90995559D01*
G36*
X132911145Y-90987236D02*
X132720400Y-91016248D01*
X132571719Y-91081988D01*
X132463719Y-91185148D01*
X132438887Y-91223773D01*
X132388671Y-91324256D01*
X132376579Y-91388440D01*
X132403651Y-91422581D01*
X132470929Y-91432936D01*
X132473700Y-91432945D01*
X132547090Y-91423590D01*
X132572370Y-91393997D01*
X132572478Y-91391056D01*
X132590191Y-91345353D01*
X132634602Y-91280927D01*
X132654830Y-91257001D01*
X132701425Y-91208854D01*
X132745146Y-91181268D01*
X132803597Y-91168541D01*
X132894383Y-91164973D01*
X132939496Y-91164833D01*
X133047461Y-91166696D01*
X133115851Y-91175568D01*
X133161497Y-91196378D01*
X133201230Y-91234055D01*
X133209922Y-91244018D01*
X133266140Y-91340212D01*
X133271613Y-91433196D01*
X133226729Y-91512471D01*
X133178479Y-91541553D01*
X133089868Y-91578537D01*
X132975338Y-91617804D01*
X132895118Y-91641534D01*
X132717516Y-91695181D01*
X132586899Y-91746249D01*
X132494326Y-91799770D01*
X132430853Y-91860773D01*
X132392038Y-91924488D01*
X132351815Y-92064184D01*
X132361353Y-92196213D01*
X132414029Y-92315531D01*
X132503222Y-92417096D01*
X132622308Y-92495865D01*
X132764667Y-92546792D01*
X132923674Y-92564837D01*
X133092709Y-92544954D01*
X133174876Y-92520667D01*
X133322546Y-92440774D01*
X133434211Y-92318171D01*
X133478693Y-92237278D01*
X133520751Y-92133580D01*
X133529836Y-92068922D01*
X133504506Y-92035531D01*
X133443318Y-92025629D01*
X133439441Y-92025611D01*
X133379628Y-92031367D01*
X133343258Y-92058492D01*
X133313806Y-92121772D01*
X133305386Y-92145556D01*
X133265570Y-92230908D01*
X133205836Y-92289852D01*
X133137998Y-92329000D01*
X132994771Y-92379563D01*
X132856812Y-92389681D01*
X132733452Y-92362957D01*
X132634021Y-92302992D01*
X132567848Y-92213389D01*
X132544256Y-92099758D01*
X132563363Y-92030519D01*
X132623763Y-91969029D01*
X132730070Y-91912278D01*
X132886901Y-91857256D01*
X132939367Y-91842066D01*
X133066630Y-91803300D01*
X133183410Y-91762124D01*
X133271968Y-91725029D01*
X133299885Y-91710184D01*
X133404197Y-91618088D01*
X133461606Y-91506174D01*
X133473266Y-91384231D01*
X133440328Y-91262051D01*
X133363944Y-91149423D01*
X133245268Y-91056139D01*
X133221361Y-91043110D01*
X133131716Y-91004496D01*
X133042700Y-90987189D01*
X132927927Y-90986438D01*
X132911145Y-90987236D01*
X132911145Y-90987236D01*
G37*
X132911145Y-90987236D02*
X132720400Y-91016248D01*
X132571719Y-91081988D01*
X132463719Y-91185148D01*
X132438887Y-91223773D01*
X132388671Y-91324256D01*
X132376579Y-91388440D01*
X132403651Y-91422581D01*
X132470929Y-91432936D01*
X132473700Y-91432945D01*
X132547090Y-91423590D01*
X132572370Y-91393997D01*
X132572478Y-91391056D01*
X132590191Y-91345353D01*
X132634602Y-91280927D01*
X132654830Y-91257001D01*
X132701425Y-91208854D01*
X132745146Y-91181268D01*
X132803597Y-91168541D01*
X132894383Y-91164973D01*
X132939496Y-91164833D01*
X133047461Y-91166696D01*
X133115851Y-91175568D01*
X133161497Y-91196378D01*
X133201230Y-91234055D01*
X133209922Y-91244018D01*
X133266140Y-91340212D01*
X133271613Y-91433196D01*
X133226729Y-91512471D01*
X133178479Y-91541553D01*
X133089868Y-91578537D01*
X132975338Y-91617804D01*
X132895118Y-91641534D01*
X132717516Y-91695181D01*
X132586899Y-91746249D01*
X132494326Y-91799770D01*
X132430853Y-91860773D01*
X132392038Y-91924488D01*
X132351815Y-92064184D01*
X132361353Y-92196213D01*
X132414029Y-92315531D01*
X132503222Y-92417096D01*
X132622308Y-92495865D01*
X132764667Y-92546792D01*
X132923674Y-92564837D01*
X133092709Y-92544954D01*
X133174876Y-92520667D01*
X133322546Y-92440774D01*
X133434211Y-92318171D01*
X133478693Y-92237278D01*
X133520751Y-92133580D01*
X133529836Y-92068922D01*
X133504506Y-92035531D01*
X133443318Y-92025629D01*
X133439441Y-92025611D01*
X133379628Y-92031367D01*
X133343258Y-92058492D01*
X133313806Y-92121772D01*
X133305386Y-92145556D01*
X133265570Y-92230908D01*
X133205836Y-92289852D01*
X133137998Y-92329000D01*
X132994771Y-92379563D01*
X132856812Y-92389681D01*
X132733452Y-92362957D01*
X132634021Y-92302992D01*
X132567848Y-92213389D01*
X132544256Y-92099758D01*
X132563363Y-92030519D01*
X132623763Y-91969029D01*
X132730070Y-91912278D01*
X132886901Y-91857256D01*
X132939367Y-91842066D01*
X133066630Y-91803300D01*
X133183410Y-91762124D01*
X133271968Y-91725029D01*
X133299885Y-91710184D01*
X133404197Y-91618088D01*
X133461606Y-91506174D01*
X133473266Y-91384231D01*
X133440328Y-91262051D01*
X133363944Y-91149423D01*
X133245268Y-91056139D01*
X133221361Y-91043110D01*
X133131716Y-91004496D01*
X133042700Y-90987189D01*
X132927927Y-90986438D01*
X132911145Y-90987236D01*
G36*
X124719645Y-95134465D02*
X124559038Y-95138959D01*
X124443103Y-95144707D01*
X124360071Y-95153632D01*
X124298174Y-95167657D01*
X124245641Y-95188705D01*
X124190705Y-95218699D01*
X124185517Y-95221740D01*
X124064326Y-95323980D01*
X123972766Y-95463834D01*
X123911696Y-95630358D01*
X123881974Y-95812607D01*
X123884457Y-95999636D01*
X123920003Y-96180500D01*
X123989471Y-96344255D01*
X124087371Y-96473709D01*
X124163535Y-96541299D01*
X124243382Y-96590056D01*
X124337823Y-96622833D01*
X124457766Y-96642486D01*
X124614121Y-96651868D01*
X124776089Y-96653898D01*
X125121811Y-96654056D01*
X125121811Y-96490012D01*
X124924256Y-96490012D01*
X124644021Y-96480311D01*
X124504930Y-96473375D01*
X124408793Y-96462299D01*
X124342141Y-96444537D01*
X124291506Y-96417546D01*
X124284188Y-96412345D01*
X124194881Y-96325608D01*
X124135227Y-96213356D01*
X124101932Y-96066444D01*
X124091700Y-95877945D01*
X124094501Y-95741787D01*
X124104587Y-95646203D01*
X124124488Y-95575521D01*
X124148145Y-95528117D01*
X124209920Y-95437519D01*
X124277828Y-95375441D01*
X124364356Y-95336232D01*
X124481991Y-95314244D01*
X124643220Y-95303828D01*
X124644021Y-95303800D01*
X124924256Y-95294100D01*
X124924256Y-96490012D01*
X125121811Y-96490012D01*
X125121811Y-95124763D01*
X124719645Y-95134465D01*
X124719645Y-95134465D01*
G37*
X124719645Y-95134465D02*
X124559038Y-95138959D01*
X124443103Y-95144707D01*
X124360071Y-95153632D01*
X124298174Y-95167657D01*
X124245641Y-95188705D01*
X124190705Y-95218699D01*
X124185517Y-95221740D01*
X124064326Y-95323980D01*
X123972766Y-95463834D01*
X123911696Y-95630358D01*
X123881974Y-95812607D01*
X123884457Y-95999636D01*
X123920003Y-96180500D01*
X123989471Y-96344255D01*
X124087371Y-96473709D01*
X124163535Y-96541299D01*
X124243382Y-96590056D01*
X124337823Y-96622833D01*
X124457766Y-96642486D01*
X124614121Y-96651868D01*
X124776089Y-96653898D01*
X125121811Y-96654056D01*
X125121811Y-96490012D01*
X124924256Y-96490012D01*
X124644021Y-96480311D01*
X124504930Y-96473375D01*
X124408793Y-96462299D01*
X124342141Y-96444537D01*
X124291506Y-96417546D01*
X124284188Y-96412345D01*
X124194881Y-96325608D01*
X124135227Y-96213356D01*
X124101932Y-96066444D01*
X124091700Y-95877945D01*
X124094501Y-95741787D01*
X124104587Y-95646203D01*
X124124488Y-95575521D01*
X124148145Y-95528117D01*
X124209920Y-95437519D01*
X124277828Y-95375441D01*
X124364356Y-95336232D01*
X124481991Y-95314244D01*
X124643220Y-95303828D01*
X124644021Y-95303800D01*
X124924256Y-95294100D01*
X124924256Y-96490012D01*
X125121811Y-96490012D01*
X125121811Y-95124763D01*
X124719645Y-95134465D01*
G36*
X125460478Y-96654056D02*
X125566311Y-96653896D01*
X125672145Y-96653736D01*
X126434145Y-95485608D01*
X126449401Y-96654056D01*
X126645811Y-96654056D01*
X126645811Y-95130056D01*
X126434145Y-95130376D01*
X126053145Y-95714439D01*
X125672145Y-96298503D01*
X125664517Y-95714279D01*
X125656889Y-95130056D01*
X125460478Y-95130056D01*
X125460478Y-96654056D01*
X125460478Y-96654056D01*
G37*
X125460478Y-96654056D02*
X125566311Y-96653896D01*
X125672145Y-96653736D01*
X126434145Y-95485608D01*
X126449401Y-96654056D01*
X126645811Y-96654056D01*
X126645811Y-95130056D01*
X126434145Y-95130376D01*
X126053145Y-95714439D01*
X125672145Y-96298503D01*
X125664517Y-95714279D01*
X125656889Y-95130056D01*
X125460478Y-95130056D01*
X125460478Y-96654056D01*
G36*
X127481218Y-95120526D02*
X127324855Y-95159702D01*
X127266700Y-95186684D01*
X127184797Y-95246140D01*
X127112413Y-95322726D01*
X127056902Y-95404493D01*
X127025614Y-95479493D01*
X127025903Y-95535774D01*
X127040923Y-95553644D01*
X127122905Y-95581144D01*
X127192859Y-95554251D01*
X127238478Y-95491001D01*
X127317035Y-95380711D01*
X127431363Y-95310434D01*
X127585825Y-95277504D01*
X127588362Y-95277289D01*
X127763150Y-95286874D01*
X127911805Y-95345862D01*
X128031938Y-95453066D01*
X128078488Y-95520822D01*
X128117681Y-95594552D01*
X128140952Y-95663551D01*
X128152277Y-95746944D01*
X128155635Y-95863854D01*
X128155700Y-95892056D01*
X128153412Y-96017817D01*
X128143913Y-96106308D01*
X128123255Y-96176608D01*
X128087488Y-96247797D01*
X128079052Y-96262328D01*
X127977503Y-96383260D01*
X127844740Y-96464703D01*
X127691502Y-96504928D01*
X127528525Y-96502206D01*
X127366550Y-96454809D01*
X127259645Y-96394216D01*
X127213712Y-96354959D01*
X127190495Y-96307807D01*
X127182580Y-96232915D01*
X127182034Y-96186467D01*
X127182034Y-96033167D01*
X127605367Y-96033167D01*
X127605367Y-95863833D01*
X126982569Y-95863833D01*
X126998589Y-96465673D01*
X127178495Y-96564329D01*
X127296543Y-96622755D01*
X127400140Y-96655343D01*
X127519529Y-96670727D01*
X127559495Y-96673106D01*
X127719909Y-96671545D01*
X127845864Y-96650512D01*
X127867758Y-96643286D01*
X128041946Y-96559150D01*
X128171668Y-96450174D01*
X128266321Y-96308386D01*
X128269047Y-96302869D01*
X128337738Y-96110245D01*
X128363159Y-95911384D01*
X128347776Y-95715896D01*
X128294053Y-95533396D01*
X128204456Y-95373494D01*
X128081452Y-95245803D01*
X127981848Y-95183190D01*
X127829928Y-95132171D01*
X127656314Y-95111316D01*
X127481218Y-95120526D01*
X127481218Y-95120526D01*
G37*
X127481218Y-95120526D02*
X127324855Y-95159702D01*
X127266700Y-95186684D01*
X127184797Y-95246140D01*
X127112413Y-95322726D01*
X127056902Y-95404493D01*
X127025614Y-95479493D01*
X127025903Y-95535774D01*
X127040923Y-95553644D01*
X127122905Y-95581144D01*
X127192859Y-95554251D01*
X127238478Y-95491001D01*
X127317035Y-95380711D01*
X127431363Y-95310434D01*
X127585825Y-95277504D01*
X127588362Y-95277289D01*
X127763150Y-95286874D01*
X127911805Y-95345862D01*
X128031938Y-95453066D01*
X128078488Y-95520822D01*
X128117681Y-95594552D01*
X128140952Y-95663551D01*
X128152277Y-95746944D01*
X128155635Y-95863854D01*
X128155700Y-95892056D01*
X128153412Y-96017817D01*
X128143913Y-96106308D01*
X128123255Y-96176608D01*
X128087488Y-96247797D01*
X128079052Y-96262328D01*
X127977503Y-96383260D01*
X127844740Y-96464703D01*
X127691502Y-96504928D01*
X127528525Y-96502206D01*
X127366550Y-96454809D01*
X127259645Y-96394216D01*
X127213712Y-96354959D01*
X127190495Y-96307807D01*
X127182580Y-96232915D01*
X127182034Y-96186467D01*
X127182034Y-96033167D01*
X127605367Y-96033167D01*
X127605367Y-95863833D01*
X126982569Y-95863833D01*
X126998589Y-96465673D01*
X127178495Y-96564329D01*
X127296543Y-96622755D01*
X127400140Y-96655343D01*
X127519529Y-96670727D01*
X127559495Y-96673106D01*
X127719909Y-96671545D01*
X127845864Y-96650512D01*
X127867758Y-96643286D01*
X128041946Y-96559150D01*
X128171668Y-96450174D01*
X128266321Y-96308386D01*
X128269047Y-96302869D01*
X128337738Y-96110245D01*
X128363159Y-95911384D01*
X128347776Y-95715896D01*
X128294053Y-95533396D01*
X128204456Y-95373494D01*
X128081452Y-95245803D01*
X127981848Y-95183190D01*
X127829928Y-95132171D01*
X127656314Y-95111316D01*
X127481218Y-95120526D01*
G36*
X129468034Y-95299389D02*
X129976034Y-95299389D01*
X129976034Y-96654056D01*
X130173589Y-96654056D01*
X130173589Y-95299389D01*
X130681589Y-95299389D01*
X130681589Y-95130056D01*
X129468034Y-95130056D01*
X129468034Y-95299389D01*
X129468034Y-95299389D01*
G37*
X129468034Y-95299389D02*
X129976034Y-95299389D01*
X129976034Y-96654056D01*
X130173589Y-96654056D01*
X130173589Y-95299389D01*
X130681589Y-95299389D01*
X130681589Y-95130056D01*
X129468034Y-95130056D01*
X129468034Y-95299389D01*
G36*
X133015642Y-95134683D02*
X132822983Y-95140015D01*
X132677641Y-95148790D01*
X132570492Y-95163744D01*
X132492411Y-95187613D01*
X132434277Y-95223135D01*
X132386965Y-95273045D01*
X132343782Y-95336200D01*
X132304330Y-95426132D01*
X132296677Y-95532547D01*
X132298499Y-95558840D01*
X132329393Y-95702225D01*
X132398122Y-95807928D01*
X132511395Y-95885359D01*
X132540916Y-95898674D01*
X132672487Y-95954261D01*
X132586548Y-96045383D01*
X132546853Y-96094962D01*
X132490079Y-96175113D01*
X132423682Y-96274159D01*
X132355118Y-96380419D01*
X132291843Y-96482216D01*
X132241314Y-96567869D01*
X132210987Y-96625699D01*
X132205589Y-96642097D01*
X132230552Y-96649766D01*
X132292438Y-96653782D01*
X132311423Y-96653959D01*
X132359645Y-96651831D01*
X132397398Y-96639810D01*
X132433430Y-96609288D01*
X132476492Y-96551653D01*
X132535332Y-96458295D01*
X132572478Y-96397060D01*
X132647392Y-96279969D01*
X132723324Y-96172775D01*
X132789301Y-96090463D01*
X132820405Y-96058490D01*
X132879297Y-96012696D01*
X132937518Y-95987995D01*
X133016101Y-95978138D01*
X133095571Y-95976722D01*
X133278034Y-95976722D01*
X133278034Y-96654056D01*
X133475589Y-96654056D01*
X133475589Y-95807389D01*
X133278034Y-95807389D01*
X132994410Y-95807389D01*
X132827077Y-95803111D01*
X132708510Y-95789727D01*
X132631643Y-95766415D01*
X132628358Y-95764763D01*
X132535404Y-95690570D01*
X132491564Y-95595960D01*
X132498929Y-95491664D01*
X132555862Y-95392685D01*
X132587448Y-95358678D01*
X132620500Y-95335753D01*
X132666668Y-95321296D01*
X132737604Y-95312693D01*
X132844956Y-95307329D01*
X132950973Y-95304016D01*
X133278034Y-95294532D01*
X133278034Y-95807389D01*
X133475589Y-95807389D01*
X133475589Y-95125199D01*
X133015642Y-95134683D01*
X133015642Y-95134683D01*
G37*
X133015642Y-95134683D02*
X132822983Y-95140015D01*
X132677641Y-95148790D01*
X132570492Y-95163744D01*
X132492411Y-95187613D01*
X132434277Y-95223135D01*
X132386965Y-95273045D01*
X132343782Y-95336200D01*
X132304330Y-95426132D01*
X132296677Y-95532547D01*
X132298499Y-95558840D01*
X132329393Y-95702225D01*
X132398122Y-95807928D01*
X132511395Y-95885359D01*
X132540916Y-95898674D01*
X132672487Y-95954261D01*
X132586548Y-96045383D01*
X132546853Y-96094962D01*
X132490079Y-96175113D01*
X132423682Y-96274159D01*
X132355118Y-96380419D01*
X132291843Y-96482216D01*
X132241314Y-96567869D01*
X132210987Y-96625699D01*
X132205589Y-96642097D01*
X132230552Y-96649766D01*
X132292438Y-96653782D01*
X132311423Y-96653959D01*
X132359645Y-96651831D01*
X132397398Y-96639810D01*
X132433430Y-96609288D01*
X132476492Y-96551653D01*
X132535332Y-96458295D01*
X132572478Y-96397060D01*
X132647392Y-96279969D01*
X132723324Y-96172775D01*
X132789301Y-96090463D01*
X132820405Y-96058490D01*
X132879297Y-96012696D01*
X132937518Y-95987995D01*
X133016101Y-95978138D01*
X133095571Y-95976722D01*
X133278034Y-95976722D01*
X133278034Y-96654056D01*
X133475589Y-96654056D01*
X133475589Y-95807389D01*
X133278034Y-95807389D01*
X132994410Y-95807389D01*
X132827077Y-95803111D01*
X132708510Y-95789727D01*
X132631643Y-95766415D01*
X132628358Y-95764763D01*
X132535404Y-95690570D01*
X132491564Y-95595960D01*
X132498929Y-95491664D01*
X132555862Y-95392685D01*
X132587448Y-95358678D01*
X132620500Y-95335753D01*
X132666668Y-95321296D01*
X132737604Y-95312693D01*
X132844956Y-95307329D01*
X132950973Y-95304016D01*
X133278034Y-95294532D01*
X133278034Y-95807389D01*
X133475589Y-95807389D01*
X133475589Y-95125199D01*
X133015642Y-95134683D01*
G36*
X131387145Y-95107680D02*
X131196400Y-95136693D01*
X131047719Y-95202433D01*
X130939719Y-95305593D01*
X130914887Y-95344217D01*
X130864671Y-95444700D01*
X130852579Y-95508884D01*
X130879651Y-95543026D01*
X130946929Y-95553380D01*
X130949700Y-95553389D01*
X131023090Y-95544034D01*
X131048370Y-95514442D01*
X131048478Y-95511501D01*
X131066191Y-95465798D01*
X131110602Y-95401371D01*
X131130830Y-95377445D01*
X131177425Y-95329299D01*
X131221146Y-95301712D01*
X131279597Y-95288985D01*
X131370383Y-95285418D01*
X131415496Y-95285278D01*
X131523461Y-95287140D01*
X131591851Y-95296012D01*
X131637497Y-95316823D01*
X131677230Y-95354500D01*
X131685922Y-95364463D01*
X131742140Y-95460656D01*
X131747613Y-95553640D01*
X131702729Y-95632916D01*
X131654479Y-95661997D01*
X131565868Y-95698982D01*
X131451338Y-95738249D01*
X131371118Y-95761979D01*
X131193516Y-95815625D01*
X131062899Y-95866694D01*
X130970326Y-95920214D01*
X130906853Y-95981218D01*
X130868038Y-96044932D01*
X130827815Y-96184628D01*
X130837353Y-96316657D01*
X130890029Y-96435976D01*
X130979222Y-96537541D01*
X131098308Y-96616309D01*
X131240667Y-96667237D01*
X131399674Y-96685281D01*
X131568709Y-96665398D01*
X131650876Y-96641112D01*
X131798546Y-96561219D01*
X131910211Y-96438615D01*
X131954693Y-96357722D01*
X131996751Y-96254024D01*
X132005836Y-96189367D01*
X131980506Y-96155975D01*
X131919318Y-96146074D01*
X131915441Y-96146056D01*
X131855628Y-96151812D01*
X131819258Y-96178937D01*
X131789806Y-96242216D01*
X131781386Y-96266000D01*
X131741570Y-96351353D01*
X131681836Y-96410296D01*
X131613998Y-96449445D01*
X131470771Y-96500007D01*
X131332812Y-96510125D01*
X131209452Y-96483401D01*
X131110021Y-96423436D01*
X131043848Y-96333833D01*
X131020256Y-96220203D01*
X131039363Y-96150963D01*
X131099763Y-96089474D01*
X131206070Y-96032723D01*
X131362901Y-95977701D01*
X131415367Y-95962510D01*
X131542630Y-95923744D01*
X131659410Y-95882569D01*
X131747968Y-95845473D01*
X131775885Y-95830629D01*
X131880197Y-95738532D01*
X131937606Y-95626618D01*
X131949266Y-95504675D01*
X131916328Y-95382495D01*
X131839944Y-95269868D01*
X131721268Y-95176584D01*
X131697361Y-95163555D01*
X131607716Y-95124941D01*
X131518700Y-95107634D01*
X131403927Y-95106882D01*
X131387145Y-95107680D01*
X131387145Y-95107680D01*
G37*
X131387145Y-95107680D02*
X131196400Y-95136693D01*
X131047719Y-95202433D01*
X130939719Y-95305593D01*
X130914887Y-95344217D01*
X130864671Y-95444700D01*
X130852579Y-95508884D01*
X130879651Y-95543026D01*
X130946929Y-95553380D01*
X130949700Y-95553389D01*
X131023090Y-95544034D01*
X131048370Y-95514442D01*
X131048478Y-95511501D01*
X131066191Y-95465798D01*
X131110602Y-95401371D01*
X131130830Y-95377445D01*
X131177425Y-95329299D01*
X131221146Y-95301712D01*
X131279597Y-95288985D01*
X131370383Y-95285418D01*
X131415496Y-95285278D01*
X131523461Y-95287140D01*
X131591851Y-95296012D01*
X131637497Y-95316823D01*
X131677230Y-95354500D01*
X131685922Y-95364463D01*
X131742140Y-95460656D01*
X131747613Y-95553640D01*
X131702729Y-95632916D01*
X131654479Y-95661997D01*
X131565868Y-95698982D01*
X131451338Y-95738249D01*
X131371118Y-95761979D01*
X131193516Y-95815625D01*
X131062899Y-95866694D01*
X130970326Y-95920214D01*
X130906853Y-95981218D01*
X130868038Y-96044932D01*
X130827815Y-96184628D01*
X130837353Y-96316657D01*
X130890029Y-96435976D01*
X130979222Y-96537541D01*
X131098308Y-96616309D01*
X131240667Y-96667237D01*
X131399674Y-96685281D01*
X131568709Y-96665398D01*
X131650876Y-96641112D01*
X131798546Y-96561219D01*
X131910211Y-96438615D01*
X131954693Y-96357722D01*
X131996751Y-96254024D01*
X132005836Y-96189367D01*
X131980506Y-96155975D01*
X131919318Y-96146074D01*
X131915441Y-96146056D01*
X131855628Y-96151812D01*
X131819258Y-96178937D01*
X131789806Y-96242216D01*
X131781386Y-96266000D01*
X131741570Y-96351353D01*
X131681836Y-96410296D01*
X131613998Y-96449445D01*
X131470771Y-96500007D01*
X131332812Y-96510125D01*
X131209452Y-96483401D01*
X131110021Y-96423436D01*
X131043848Y-96333833D01*
X131020256Y-96220203D01*
X131039363Y-96150963D01*
X131099763Y-96089474D01*
X131206070Y-96032723D01*
X131362901Y-95977701D01*
X131415367Y-95962510D01*
X131542630Y-95923744D01*
X131659410Y-95882569D01*
X131747968Y-95845473D01*
X131775885Y-95830629D01*
X131880197Y-95738532D01*
X131937606Y-95626618D01*
X131949266Y-95504675D01*
X131916328Y-95382495D01*
X131839944Y-95269868D01*
X131721268Y-95176584D01*
X131697361Y-95163555D01*
X131607716Y-95124941D01*
X131518700Y-95107634D01*
X131403927Y-95106882D01*
X131387145Y-95107680D01*
G36*
X124489759Y-98897577D02*
X124310754Y-98953280D01*
X124157544Y-99055591D01*
X124036867Y-99200785D01*
X123997521Y-99273624D01*
X123959439Y-99363519D01*
X123936838Y-99446152D01*
X123926060Y-99541990D01*
X123923450Y-99671498D01*
X123923501Y-99687945D01*
X123936357Y-99883695D01*
X123976197Y-100041985D01*
X124047872Y-100177280D01*
X124116052Y-100262191D01*
X124232263Y-100352924D01*
X124382831Y-100417910D01*
X124550046Y-100453191D01*
X124716195Y-100454807D01*
X124846702Y-100425521D01*
X125015357Y-100335693D01*
X125147728Y-100204131D01*
X125225454Y-100076235D01*
X125266853Y-99983488D01*
X125291023Y-99900227D01*
X125302291Y-99804564D01*
X125304981Y-99674612D01*
X125304980Y-99673833D01*
X125300756Y-99627502D01*
X125122969Y-99627502D01*
X125114951Y-99811494D01*
X125069115Y-99976863D01*
X124988404Y-100114548D01*
X124875756Y-100215491D01*
X124828270Y-100240947D01*
X124671056Y-100287757D01*
X124518684Y-100280086D01*
X124386958Y-100231222D01*
X124269356Y-100151270D01*
X124188127Y-100044610D01*
X124139715Y-99903817D01*
X124120563Y-99721468D01*
X124119923Y-99673833D01*
X124132966Y-99481085D01*
X124174468Y-99331568D01*
X124247984Y-99217857D01*
X124357071Y-99132529D01*
X124386958Y-99116445D01*
X124547052Y-99063455D01*
X124702359Y-99062970D01*
X124844417Y-99111170D01*
X124964766Y-99204232D01*
X125054941Y-99338339D01*
X125090229Y-99433945D01*
X125122969Y-99627502D01*
X125300756Y-99627502D01*
X125284063Y-99444407D01*
X125222829Y-99251900D01*
X125122707Y-99098121D01*
X124985120Y-98984874D01*
X124811496Y-98913965D01*
X124687821Y-98892204D01*
X124489759Y-98897577D01*
X124489759Y-98897577D01*
G37*
X124489759Y-98897577D02*
X124310754Y-98953280D01*
X124157544Y-99055591D01*
X124036867Y-99200785D01*
X123997521Y-99273624D01*
X123959439Y-99363519D01*
X123936838Y-99446152D01*
X123926060Y-99541990D01*
X123923450Y-99671498D01*
X123923501Y-99687945D01*
X123936357Y-99883695D01*
X123976197Y-100041985D01*
X124047872Y-100177280D01*
X124116052Y-100262191D01*
X124232263Y-100352924D01*
X124382831Y-100417910D01*
X124550046Y-100453191D01*
X124716195Y-100454807D01*
X124846702Y-100425521D01*
X125015357Y-100335693D01*
X125147728Y-100204131D01*
X125225454Y-100076235D01*
X125266853Y-99983488D01*
X125291023Y-99900227D01*
X125302291Y-99804564D01*
X125304981Y-99674612D01*
X125304980Y-99673833D01*
X125300756Y-99627502D01*
X125122969Y-99627502D01*
X125114951Y-99811494D01*
X125069115Y-99976863D01*
X124988404Y-100114548D01*
X124875756Y-100215491D01*
X124828270Y-100240947D01*
X124671056Y-100287757D01*
X124518684Y-100280086D01*
X124386958Y-100231222D01*
X124269356Y-100151270D01*
X124188127Y-100044610D01*
X124139715Y-99903817D01*
X124120563Y-99721468D01*
X124119923Y-99673833D01*
X124132966Y-99481085D01*
X124174468Y-99331568D01*
X124247984Y-99217857D01*
X124357071Y-99132529D01*
X124386958Y-99116445D01*
X124547052Y-99063455D01*
X124702359Y-99062970D01*
X124844417Y-99111170D01*
X124964766Y-99204232D01*
X125054941Y-99338339D01*
X125090229Y-99433945D01*
X125122969Y-99627502D01*
X125300756Y-99627502D01*
X125284063Y-99444407D01*
X125222829Y-99251900D01*
X125122707Y-99098121D01*
X124985120Y-98984874D01*
X124811496Y-98913965D01*
X124687821Y-98892204D01*
X124489759Y-98897577D01*
G36*
X126002444Y-98897781D02*
X125849330Y-98957740D01*
X125747395Y-99033125D01*
X125701747Y-99086093D01*
X125653018Y-99157736D01*
X125610455Y-99231961D01*
X125583308Y-99292675D01*
X125580512Y-99323497D01*
X125613190Y-99336216D01*
X125676794Y-99351616D01*
X125679105Y-99352081D01*
X125734901Y-99358198D01*
X125772186Y-99340584D01*
X125807893Y-99287710D01*
X125826876Y-99251462D01*
X125909303Y-99143923D01*
X126018274Y-99078021D01*
X126143240Y-99052851D01*
X126273650Y-99067508D01*
X126398956Y-99121084D01*
X126508608Y-99212675D01*
X126579757Y-99316117D01*
X126616630Y-99426435D01*
X126636422Y-99570178D01*
X126638214Y-99726691D01*
X126621089Y-99875317D01*
X126607186Y-99933366D01*
X126542157Y-100077440D01*
X126447463Y-100185394D01*
X126332512Y-100256470D01*
X126206710Y-100289907D01*
X126079467Y-100284947D01*
X125960190Y-100240830D01*
X125858287Y-100156798D01*
X125783165Y-100032090D01*
X125771715Y-100000789D01*
X125746572Y-99937804D01*
X125716037Y-99917306D01*
X125660089Y-99927263D01*
X125652795Y-99929336D01*
X125588947Y-99950048D01*
X125554246Y-99965807D01*
X125553770Y-99966245D01*
X125554116Y-100001372D01*
X125579419Y-100066969D01*
X125621929Y-100147500D01*
X125673902Y-100227430D01*
X125701978Y-100263460D01*
X125826408Y-100369409D01*
X125981494Y-100437001D01*
X126153787Y-100463099D01*
X126329835Y-100444566D01*
X126395055Y-100425120D01*
X126550735Y-100348082D01*
X126667059Y-100237804D01*
X126745303Y-100107185D01*
X126813385Y-99903788D01*
X126839552Y-99681538D01*
X126822197Y-99461090D01*
X126802150Y-99376098D01*
X126729285Y-99211649D01*
X126619918Y-99077081D01*
X126483299Y-98975403D01*
X126328679Y-98909621D01*
X126165310Y-98882744D01*
X126002444Y-98897781D01*
X126002444Y-98897781D01*
G37*
X126002444Y-98897781D02*
X125849330Y-98957740D01*
X125747395Y-99033125D01*
X125701747Y-99086093D01*
X125653018Y-99157736D01*
X125610455Y-99231961D01*
X125583308Y-99292675D01*
X125580512Y-99323497D01*
X125613190Y-99336216D01*
X125676794Y-99351616D01*
X125679105Y-99352081D01*
X125734901Y-99358198D01*
X125772186Y-99340584D01*
X125807893Y-99287710D01*
X125826876Y-99251462D01*
X125909303Y-99143923D01*
X126018274Y-99078021D01*
X126143240Y-99052851D01*
X126273650Y-99067508D01*
X126398956Y-99121084D01*
X126508608Y-99212675D01*
X126579757Y-99316117D01*
X126616630Y-99426435D01*
X126636422Y-99570178D01*
X126638214Y-99726691D01*
X126621089Y-99875317D01*
X126607186Y-99933366D01*
X126542157Y-100077440D01*
X126447463Y-100185394D01*
X126332512Y-100256470D01*
X126206710Y-100289907D01*
X126079467Y-100284947D01*
X125960190Y-100240830D01*
X125858287Y-100156798D01*
X125783165Y-100032090D01*
X125771715Y-100000789D01*
X125746572Y-99937804D01*
X125716037Y-99917306D01*
X125660089Y-99927263D01*
X125652795Y-99929336D01*
X125588947Y-99950048D01*
X125554246Y-99965807D01*
X125553770Y-99966245D01*
X125554116Y-100001372D01*
X125579419Y-100066969D01*
X125621929Y-100147500D01*
X125673902Y-100227430D01*
X125701978Y-100263460D01*
X125826408Y-100369409D01*
X125981494Y-100437001D01*
X126153787Y-100463099D01*
X126329835Y-100444566D01*
X126395055Y-100425120D01*
X126550735Y-100348082D01*
X126667059Y-100237804D01*
X126745303Y-100107185D01*
X126813385Y-99903788D01*
X126839552Y-99681538D01*
X126822197Y-99461090D01*
X126802150Y-99376098D01*
X126729285Y-99211649D01*
X126619918Y-99077081D01*
X126483299Y-98975403D01*
X126328679Y-98909621D01*
X126165310Y-98882744D01*
X126002444Y-98897781D01*
G36*
X127633589Y-98889458D02*
X127442845Y-98918470D01*
X127294163Y-98984211D01*
X127186163Y-99087371D01*
X127161331Y-99125995D01*
X127111115Y-99226478D01*
X127099023Y-99290662D01*
X127126096Y-99324803D01*
X127193374Y-99335158D01*
X127196145Y-99335167D01*
X127269534Y-99325812D01*
X127294815Y-99296220D01*
X127294923Y-99293279D01*
X127312635Y-99247576D01*
X127357046Y-99183149D01*
X127377274Y-99159223D01*
X127423870Y-99111077D01*
X127467591Y-99083490D01*
X127526041Y-99070763D01*
X127616827Y-99067195D01*
X127661940Y-99067056D01*
X127769905Y-99068918D01*
X127838295Y-99077790D01*
X127883941Y-99098600D01*
X127923674Y-99136277D01*
X127932366Y-99146240D01*
X127988584Y-99242434D01*
X127994057Y-99335418D01*
X127949174Y-99414693D01*
X127900923Y-99443775D01*
X127812313Y-99480760D01*
X127697783Y-99520027D01*
X127617563Y-99543756D01*
X127439960Y-99597403D01*
X127309344Y-99648471D01*
X127216771Y-99701992D01*
X127153297Y-99762995D01*
X127114483Y-99826710D01*
X127074259Y-99966406D01*
X127083797Y-100098435D01*
X127136473Y-100217754D01*
X127225666Y-100319319D01*
X127344753Y-100398087D01*
X127487111Y-100449015D01*
X127646119Y-100467059D01*
X127815153Y-100447176D01*
X127897321Y-100422889D01*
X128044991Y-100342997D01*
X128156655Y-100220393D01*
X128201137Y-100139500D01*
X128243196Y-100035802D01*
X128252281Y-99971145D01*
X128226950Y-99937753D01*
X128165763Y-99927851D01*
X128161886Y-99927833D01*
X128102073Y-99933589D01*
X128065702Y-99960714D01*
X128036250Y-100023994D01*
X128027830Y-100047778D01*
X127988015Y-100133131D01*
X127928281Y-100192074D01*
X127860443Y-100231222D01*
X127717215Y-100281785D01*
X127579257Y-100291903D01*
X127455897Y-100265179D01*
X127356466Y-100205214D01*
X127290292Y-100115611D01*
X127266700Y-100001981D01*
X127285808Y-99932741D01*
X127346207Y-99871251D01*
X127452515Y-99814501D01*
X127609345Y-99759479D01*
X127661811Y-99744288D01*
X127789074Y-99705522D01*
X127905855Y-99664347D01*
X127994412Y-99627251D01*
X128022329Y-99612406D01*
X128126641Y-99520310D01*
X128184051Y-99408396D01*
X128195710Y-99286453D01*
X128162772Y-99164273D01*
X128086389Y-99051646D01*
X127967713Y-98958362D01*
X127943806Y-98945333D01*
X127854160Y-98906718D01*
X127765144Y-98889412D01*
X127650371Y-98888660D01*
X127633589Y-98889458D01*
X127633589Y-98889458D01*
G37*
X127633589Y-98889458D02*
X127442845Y-98918470D01*
X127294163Y-98984211D01*
X127186163Y-99087371D01*
X127161331Y-99125995D01*
X127111115Y-99226478D01*
X127099023Y-99290662D01*
X127126096Y-99324803D01*
X127193374Y-99335158D01*
X127196145Y-99335167D01*
X127269534Y-99325812D01*
X127294815Y-99296220D01*
X127294923Y-99293279D01*
X127312635Y-99247576D01*
X127357046Y-99183149D01*
X127377274Y-99159223D01*
X127423870Y-99111077D01*
X127467591Y-99083490D01*
X127526041Y-99070763D01*
X127616827Y-99067195D01*
X127661940Y-99067056D01*
X127769905Y-99068918D01*
X127838295Y-99077790D01*
X127883941Y-99098600D01*
X127923674Y-99136277D01*
X127932366Y-99146240D01*
X127988584Y-99242434D01*
X127994057Y-99335418D01*
X127949174Y-99414693D01*
X127900923Y-99443775D01*
X127812313Y-99480760D01*
X127697783Y-99520027D01*
X127617563Y-99543756D01*
X127439960Y-99597403D01*
X127309344Y-99648471D01*
X127216771Y-99701992D01*
X127153297Y-99762995D01*
X127114483Y-99826710D01*
X127074259Y-99966406D01*
X127083797Y-100098435D01*
X127136473Y-100217754D01*
X127225666Y-100319319D01*
X127344753Y-100398087D01*
X127487111Y-100449015D01*
X127646119Y-100467059D01*
X127815153Y-100447176D01*
X127897321Y-100422889D01*
X128044991Y-100342997D01*
X128156655Y-100220393D01*
X128201137Y-100139500D01*
X128243196Y-100035802D01*
X128252281Y-99971145D01*
X128226950Y-99937753D01*
X128165763Y-99927851D01*
X128161886Y-99927833D01*
X128102073Y-99933589D01*
X128065702Y-99960714D01*
X128036250Y-100023994D01*
X128027830Y-100047778D01*
X127988015Y-100133131D01*
X127928281Y-100192074D01*
X127860443Y-100231222D01*
X127717215Y-100281785D01*
X127579257Y-100291903D01*
X127455897Y-100265179D01*
X127356466Y-100205214D01*
X127290292Y-100115611D01*
X127266700Y-100001981D01*
X127285808Y-99932741D01*
X127346207Y-99871251D01*
X127452515Y-99814501D01*
X127609345Y-99759479D01*
X127661811Y-99744288D01*
X127789074Y-99705522D01*
X127905855Y-99664347D01*
X127994412Y-99627251D01*
X128022329Y-99612406D01*
X128126641Y-99520310D01*
X128184051Y-99408396D01*
X128195710Y-99286453D01*
X128162772Y-99164273D01*
X128086389Y-99051646D01*
X127967713Y-98958362D01*
X127943806Y-98945333D01*
X127854160Y-98906718D01*
X127765144Y-98889412D01*
X127650371Y-98888660D01*
X127633589Y-98889458D01*
G36*
X133150762Y-99497445D02*
X133094638Y-99673753D01*
X133043228Y-99835420D01*
X132999388Y-99973449D01*
X132965976Y-100078840D01*
X132945848Y-100142595D01*
X132942475Y-100153394D01*
X132920697Y-100223733D01*
X132899943Y-100139283D01*
X132885247Y-100087566D01*
X132856101Y-99991549D01*
X132815434Y-99860635D01*
X132766173Y-99704226D01*
X132711244Y-99531727D01*
X132695731Y-99483333D01*
X132512273Y-98911833D01*
X132205589Y-98911833D01*
X132205589Y-100435833D01*
X132402085Y-100435833D01*
X132409671Y-99793778D01*
X132417256Y-99151722D01*
X132816768Y-100421722D01*
X133033744Y-100421722D01*
X133433256Y-99151722D01*
X133440841Y-99793778D01*
X133448427Y-100435833D01*
X133644923Y-100435833D01*
X133644923Y-98911833D01*
X133337269Y-98911833D01*
X133150762Y-99497445D01*
X133150762Y-99497445D01*
G37*
X133150762Y-99497445D02*
X133094638Y-99673753D01*
X133043228Y-99835420D01*
X132999388Y-99973449D01*
X132965976Y-100078840D01*
X132945848Y-100142595D01*
X132942475Y-100153394D01*
X132920697Y-100223733D01*
X132899943Y-100139283D01*
X132885247Y-100087566D01*
X132856101Y-99991549D01*
X132815434Y-99860635D01*
X132766173Y-99704226D01*
X132711244Y-99531727D01*
X132695731Y-99483333D01*
X132512273Y-98911833D01*
X132205589Y-98911833D01*
X132205589Y-100435833D01*
X132402085Y-100435833D01*
X132409671Y-99793778D01*
X132417256Y-99151722D01*
X132816768Y-100421722D01*
X133033744Y-100421722D01*
X133433256Y-99151722D01*
X133440841Y-99793778D01*
X133448427Y-100435833D01*
X133644923Y-100435833D01*
X133644923Y-98911833D01*
X133337269Y-98911833D01*
X133150762Y-99497445D01*
G36*
X129643110Y-98897781D02*
X129489997Y-98957740D01*
X129388061Y-99033125D01*
X129342414Y-99086093D01*
X129293684Y-99157736D01*
X129251121Y-99231961D01*
X129223974Y-99292675D01*
X129221178Y-99323497D01*
X129253856Y-99336216D01*
X129317460Y-99351616D01*
X129319771Y-99352081D01*
X129375567Y-99358198D01*
X129412853Y-99340584D01*
X129448559Y-99287710D01*
X129467543Y-99251462D01*
X129549969Y-99143923D01*
X129658941Y-99078021D01*
X129783906Y-99052851D01*
X129914317Y-99067508D01*
X130039623Y-99121084D01*
X130149275Y-99212675D01*
X130220424Y-99316117D01*
X130257297Y-99426435D01*
X130277089Y-99570178D01*
X130278881Y-99726691D01*
X130261755Y-99875317D01*
X130247853Y-99933366D01*
X130182824Y-100077440D01*
X130088130Y-100185394D01*
X129973178Y-100256470D01*
X129847377Y-100289907D01*
X129720134Y-100284947D01*
X129600857Y-100240830D01*
X129498954Y-100156798D01*
X129423832Y-100032090D01*
X129412381Y-100000789D01*
X129387238Y-99937804D01*
X129356704Y-99917306D01*
X129300755Y-99927263D01*
X129293462Y-99929336D01*
X129229614Y-99950048D01*
X129194913Y-99965807D01*
X129194436Y-99966245D01*
X129194783Y-100001372D01*
X129220085Y-100066969D01*
X129262596Y-100147500D01*
X129314568Y-100227430D01*
X129342645Y-100263460D01*
X129467074Y-100369409D01*
X129622161Y-100437001D01*
X129794454Y-100463099D01*
X129970501Y-100444566D01*
X130035722Y-100425120D01*
X130191402Y-100348082D01*
X130307726Y-100237804D01*
X130385969Y-100107185D01*
X130454052Y-99903788D01*
X130480219Y-99681538D01*
X130462864Y-99461090D01*
X130442816Y-99376098D01*
X130369952Y-99211649D01*
X130260585Y-99077081D01*
X130123965Y-98975403D01*
X129969346Y-98909621D01*
X129805977Y-98882744D01*
X129643110Y-98897781D01*
X129643110Y-98897781D01*
G37*
X129643110Y-98897781D02*
X129489997Y-98957740D01*
X129388061Y-99033125D01*
X129342414Y-99086093D01*
X129293684Y-99157736D01*
X129251121Y-99231961D01*
X129223974Y-99292675D01*
X129221178Y-99323497D01*
X129253856Y-99336216D01*
X129317460Y-99351616D01*
X129319771Y-99352081D01*
X129375567Y-99358198D01*
X129412853Y-99340584D01*
X129448559Y-99287710D01*
X129467543Y-99251462D01*
X129549969Y-99143923D01*
X129658941Y-99078021D01*
X129783906Y-99052851D01*
X129914317Y-99067508D01*
X130039623Y-99121084D01*
X130149275Y-99212675D01*
X130220424Y-99316117D01*
X130257297Y-99426435D01*
X130277089Y-99570178D01*
X130278881Y-99726691D01*
X130261755Y-99875317D01*
X130247853Y-99933366D01*
X130182824Y-100077440D01*
X130088130Y-100185394D01*
X129973178Y-100256470D01*
X129847377Y-100289907D01*
X129720134Y-100284947D01*
X129600857Y-100240830D01*
X129498954Y-100156798D01*
X129423832Y-100032090D01*
X129412381Y-100000789D01*
X129387238Y-99937804D01*
X129356704Y-99917306D01*
X129300755Y-99927263D01*
X129293462Y-99929336D01*
X129229614Y-99950048D01*
X129194913Y-99965807D01*
X129194436Y-99966245D01*
X129194783Y-100001372D01*
X129220085Y-100066969D01*
X129262596Y-100147500D01*
X129314568Y-100227430D01*
X129342645Y-100263460D01*
X129467074Y-100369409D01*
X129622161Y-100437001D01*
X129794454Y-100463099D01*
X129970501Y-100444566D01*
X130035722Y-100425120D01*
X130191402Y-100348082D01*
X130307726Y-100237804D01*
X130385969Y-100107185D01*
X130454052Y-99903788D01*
X130480219Y-99681538D01*
X130462864Y-99461090D01*
X130442816Y-99376098D01*
X130369952Y-99211649D01*
X130260585Y-99077081D01*
X130123965Y-98975403D01*
X129969346Y-98909621D01*
X129805977Y-98882744D01*
X129643110Y-98897781D01*
G36*
X131274256Y-98889458D02*
X131083512Y-98918470D01*
X130934830Y-98984211D01*
X130826830Y-99087371D01*
X130801998Y-99125995D01*
X130751782Y-99226478D01*
X130739690Y-99290662D01*
X130766762Y-99324803D01*
X130834041Y-99335158D01*
X130836811Y-99335167D01*
X130910201Y-99325812D01*
X130935482Y-99296220D01*
X130935589Y-99293279D01*
X130953302Y-99247576D01*
X130997713Y-99183149D01*
X131017941Y-99159223D01*
X131064537Y-99111077D01*
X131108257Y-99083490D01*
X131166708Y-99070763D01*
X131257494Y-99067195D01*
X131302607Y-99067056D01*
X131410572Y-99068918D01*
X131478962Y-99077790D01*
X131524608Y-99098600D01*
X131564341Y-99136277D01*
X131573033Y-99146240D01*
X131629251Y-99242434D01*
X131634724Y-99335418D01*
X131589840Y-99414693D01*
X131541590Y-99443775D01*
X131452979Y-99480760D01*
X131338449Y-99520027D01*
X131258229Y-99543756D01*
X131080627Y-99597403D01*
X130950010Y-99648471D01*
X130857437Y-99701992D01*
X130793964Y-99762995D01*
X130755149Y-99826710D01*
X130714926Y-99966406D01*
X130724464Y-100098435D01*
X130777140Y-100217754D01*
X130866333Y-100319319D01*
X130985420Y-100398087D01*
X131127778Y-100449015D01*
X131286786Y-100467059D01*
X131455820Y-100447176D01*
X131537987Y-100422889D01*
X131685657Y-100342997D01*
X131797322Y-100220393D01*
X131841804Y-100139500D01*
X131883862Y-100035802D01*
X131892948Y-99971145D01*
X131867617Y-99937753D01*
X131806429Y-99927851D01*
X131802552Y-99927833D01*
X131742739Y-99933589D01*
X131706369Y-99960714D01*
X131676917Y-100023994D01*
X131668497Y-100047778D01*
X131628681Y-100133131D01*
X131568947Y-100192074D01*
X131501109Y-100231222D01*
X131357882Y-100281785D01*
X131219923Y-100291903D01*
X131096564Y-100265179D01*
X130997132Y-100205214D01*
X130930959Y-100115611D01*
X130907367Y-100001981D01*
X130926475Y-99932741D01*
X130986874Y-99871251D01*
X131093181Y-99814501D01*
X131250012Y-99759479D01*
X131302478Y-99744288D01*
X131429741Y-99705522D01*
X131546521Y-99664347D01*
X131635079Y-99627251D01*
X131662996Y-99612406D01*
X131767308Y-99520310D01*
X131824717Y-99408396D01*
X131836377Y-99286453D01*
X131803439Y-99164273D01*
X131727055Y-99051646D01*
X131608379Y-98958362D01*
X131584473Y-98945333D01*
X131494827Y-98906718D01*
X131405811Y-98889412D01*
X131291038Y-98888660D01*
X131274256Y-98889458D01*
X131274256Y-98889458D01*
G37*
X131274256Y-98889458D02*
X131083512Y-98918470D01*
X130934830Y-98984211D01*
X130826830Y-99087371D01*
X130801998Y-99125995D01*
X130751782Y-99226478D01*
X130739690Y-99290662D01*
X130766762Y-99324803D01*
X130834041Y-99335158D01*
X130836811Y-99335167D01*
X130910201Y-99325812D01*
X130935482Y-99296220D01*
X130935589Y-99293279D01*
X130953302Y-99247576D01*
X130997713Y-99183149D01*
X131017941Y-99159223D01*
X131064537Y-99111077D01*
X131108257Y-99083490D01*
X131166708Y-99070763D01*
X131257494Y-99067195D01*
X131302607Y-99067056D01*
X131410572Y-99068918D01*
X131478962Y-99077790D01*
X131524608Y-99098600D01*
X131564341Y-99136277D01*
X131573033Y-99146240D01*
X131629251Y-99242434D01*
X131634724Y-99335418D01*
X131589840Y-99414693D01*
X131541590Y-99443775D01*
X131452979Y-99480760D01*
X131338449Y-99520027D01*
X131258229Y-99543756D01*
X131080627Y-99597403D01*
X130950010Y-99648471D01*
X130857437Y-99701992D01*
X130793964Y-99762995D01*
X130755149Y-99826710D01*
X130714926Y-99966406D01*
X130724464Y-100098435D01*
X130777140Y-100217754D01*
X130866333Y-100319319D01*
X130985420Y-100398087D01*
X131127778Y-100449015D01*
X131286786Y-100467059D01*
X131455820Y-100447176D01*
X131537987Y-100422889D01*
X131685657Y-100342997D01*
X131797322Y-100220393D01*
X131841804Y-100139500D01*
X131883862Y-100035802D01*
X131892948Y-99971145D01*
X131867617Y-99937753D01*
X131806429Y-99927851D01*
X131802552Y-99927833D01*
X131742739Y-99933589D01*
X131706369Y-99960714D01*
X131676917Y-100023994D01*
X131668497Y-100047778D01*
X131628681Y-100133131D01*
X131568947Y-100192074D01*
X131501109Y-100231222D01*
X131357882Y-100281785D01*
X131219923Y-100291903D01*
X131096564Y-100265179D01*
X130997132Y-100205214D01*
X130930959Y-100115611D01*
X130907367Y-100001981D01*
X130926475Y-99932741D01*
X130986874Y-99871251D01*
X131093181Y-99814501D01*
X131250012Y-99759479D01*
X131302478Y-99744288D01*
X131429741Y-99705522D01*
X131546521Y-99664347D01*
X131635079Y-99627251D01*
X131662996Y-99612406D01*
X131767308Y-99520310D01*
X131824717Y-99408396D01*
X131836377Y-99286453D01*
X131803439Y-99164273D01*
X131727055Y-99051646D01*
X131608379Y-98958362D01*
X131584473Y-98945333D01*
X131494827Y-98906718D01*
X131405811Y-98889412D01*
X131291038Y-98888660D01*
X131274256Y-98889458D01*
G36*
X124719645Y-102952020D02*
X124559038Y-102956514D01*
X124443103Y-102962262D01*
X124360071Y-102971187D01*
X124298174Y-102985212D01*
X124245641Y-103006260D01*
X124190705Y-103036254D01*
X124185517Y-103039296D01*
X124064326Y-103141535D01*
X123972766Y-103281389D01*
X123911696Y-103447913D01*
X123881974Y-103630162D01*
X123884457Y-103817192D01*
X123920003Y-103998056D01*
X123989471Y-104161810D01*
X124087371Y-104291265D01*
X124163535Y-104358855D01*
X124243382Y-104407612D01*
X124337823Y-104440389D01*
X124457766Y-104460041D01*
X124614121Y-104469423D01*
X124776089Y-104471454D01*
X125121811Y-104471611D01*
X125121811Y-104307567D01*
X124924256Y-104307567D01*
X124644021Y-104297867D01*
X124504930Y-104290931D01*
X124408793Y-104279854D01*
X124342141Y-104262092D01*
X124291506Y-104235102D01*
X124284188Y-104229901D01*
X124194881Y-104143163D01*
X124135227Y-104030911D01*
X124101932Y-103884000D01*
X124091700Y-103695500D01*
X124094501Y-103559342D01*
X124104587Y-103463758D01*
X124124488Y-103393077D01*
X124148145Y-103345672D01*
X124209920Y-103255075D01*
X124277828Y-103192996D01*
X124364356Y-103153787D01*
X124481991Y-103131799D01*
X124643220Y-103121383D01*
X124644021Y-103121355D01*
X124924256Y-103111655D01*
X124924256Y-104307567D01*
X125121811Y-104307567D01*
X125121811Y-102942319D01*
X124719645Y-102952020D01*
X124719645Y-102952020D01*
G37*
X124719645Y-102952020D02*
X124559038Y-102956514D01*
X124443103Y-102962262D01*
X124360071Y-102971187D01*
X124298174Y-102985212D01*
X124245641Y-103006260D01*
X124190705Y-103036254D01*
X124185517Y-103039296D01*
X124064326Y-103141535D01*
X123972766Y-103281389D01*
X123911696Y-103447913D01*
X123881974Y-103630162D01*
X123884457Y-103817192D01*
X123920003Y-103998056D01*
X123989471Y-104161810D01*
X124087371Y-104291265D01*
X124163535Y-104358855D01*
X124243382Y-104407612D01*
X124337823Y-104440389D01*
X124457766Y-104460041D01*
X124614121Y-104469423D01*
X124776089Y-104471454D01*
X125121811Y-104471611D01*
X125121811Y-104307567D01*
X124924256Y-104307567D01*
X124644021Y-104297867D01*
X124504930Y-104290931D01*
X124408793Y-104279854D01*
X124342141Y-104262092D01*
X124291506Y-104235102D01*
X124284188Y-104229901D01*
X124194881Y-104143163D01*
X124135227Y-104030911D01*
X124101932Y-103884000D01*
X124091700Y-103695500D01*
X124094501Y-103559342D01*
X124104587Y-103463758D01*
X124124488Y-103393077D01*
X124148145Y-103345672D01*
X124209920Y-103255075D01*
X124277828Y-103192996D01*
X124364356Y-103153787D01*
X124481991Y-103131799D01*
X124643220Y-103121383D01*
X124644021Y-103121355D01*
X124924256Y-103111655D01*
X124924256Y-104307567D01*
X125121811Y-104307567D01*
X125121811Y-102942319D01*
X124719645Y-102952020D01*
G36*
X125460478Y-104471611D02*
X125566311Y-104471451D01*
X125672145Y-104471291D01*
X126053145Y-103887228D01*
X126434145Y-103303164D01*
X126441773Y-103887388D01*
X126449401Y-104471611D01*
X126645811Y-104471611D01*
X126645811Y-102947611D01*
X126434145Y-102947931D01*
X126053145Y-103531995D01*
X125672145Y-104116058D01*
X125664517Y-103531835D01*
X125656889Y-102947611D01*
X125460478Y-102947611D01*
X125460478Y-104471611D01*
X125460478Y-104471611D01*
G37*
X125460478Y-104471611D02*
X125566311Y-104471451D01*
X125672145Y-104471291D01*
X126053145Y-103887228D01*
X126434145Y-103303164D01*
X126441773Y-103887388D01*
X126449401Y-104471611D01*
X126645811Y-104471611D01*
X126645811Y-102947611D01*
X126434145Y-102947931D01*
X126053145Y-103531995D01*
X125672145Y-104116058D01*
X125664517Y-103531835D01*
X125656889Y-102947611D01*
X125460478Y-102947611D01*
X125460478Y-104471611D01*
G36*
X127481218Y-102938081D02*
X127324855Y-102977258D01*
X127266700Y-103004240D01*
X127184797Y-103063695D01*
X127112413Y-103140282D01*
X127056902Y-103222049D01*
X127025614Y-103297048D01*
X127025903Y-103353330D01*
X127040923Y-103371200D01*
X127122905Y-103398699D01*
X127192859Y-103371806D01*
X127238478Y-103308556D01*
X127317035Y-103198267D01*
X127431363Y-103127990D01*
X127585825Y-103095059D01*
X127588362Y-103094845D01*
X127763150Y-103104430D01*
X127911805Y-103163417D01*
X128031938Y-103270621D01*
X128078488Y-103338377D01*
X128117681Y-103412107D01*
X128140952Y-103481107D01*
X128152277Y-103564500D01*
X128155635Y-103681410D01*
X128155700Y-103709611D01*
X128153412Y-103835373D01*
X128143913Y-103923864D01*
X128123255Y-103994164D01*
X128087488Y-104065352D01*
X128079052Y-104079883D01*
X127977503Y-104200816D01*
X127844740Y-104282258D01*
X127691502Y-104322483D01*
X127528525Y-104319762D01*
X127366550Y-104272365D01*
X127259645Y-104211772D01*
X127213712Y-104172514D01*
X127190495Y-104125363D01*
X127182580Y-104050471D01*
X127182034Y-104004023D01*
X127182034Y-103850722D01*
X127605367Y-103850722D01*
X127605367Y-103681389D01*
X126982569Y-103681389D01*
X126998589Y-104283229D01*
X127178495Y-104381884D01*
X127296543Y-104440311D01*
X127400140Y-104472899D01*
X127519529Y-104488282D01*
X127559495Y-104490662D01*
X127719909Y-104489100D01*
X127845864Y-104468067D01*
X127867758Y-104460842D01*
X128041946Y-104376705D01*
X128171668Y-104267729D01*
X128266321Y-104125941D01*
X128269047Y-104120424D01*
X128337738Y-103927801D01*
X128363159Y-103728939D01*
X128347776Y-103533452D01*
X128294053Y-103350951D01*
X128204456Y-103191049D01*
X128081452Y-103063358D01*
X127981848Y-103000745D01*
X127829928Y-102949726D01*
X127656314Y-102928871D01*
X127481218Y-102938081D01*
X127481218Y-102938081D01*
G37*
X127481218Y-102938081D02*
X127324855Y-102977258D01*
X127266700Y-103004240D01*
X127184797Y-103063695D01*
X127112413Y-103140282D01*
X127056902Y-103222049D01*
X127025614Y-103297048D01*
X127025903Y-103353330D01*
X127040923Y-103371200D01*
X127122905Y-103398699D01*
X127192859Y-103371806D01*
X127238478Y-103308556D01*
X127317035Y-103198267D01*
X127431363Y-103127990D01*
X127585825Y-103095059D01*
X127588362Y-103094845D01*
X127763150Y-103104430D01*
X127911805Y-103163417D01*
X128031938Y-103270621D01*
X128078488Y-103338377D01*
X128117681Y-103412107D01*
X128140952Y-103481107D01*
X128152277Y-103564500D01*
X128155635Y-103681410D01*
X128155700Y-103709611D01*
X128153412Y-103835373D01*
X128143913Y-103923864D01*
X128123255Y-103994164D01*
X128087488Y-104065352D01*
X128079052Y-104079883D01*
X127977503Y-104200816D01*
X127844740Y-104282258D01*
X127691502Y-104322483D01*
X127528525Y-104319762D01*
X127366550Y-104272365D01*
X127259645Y-104211772D01*
X127213712Y-104172514D01*
X127190495Y-104125363D01*
X127182580Y-104050471D01*
X127182034Y-104004023D01*
X127182034Y-103850722D01*
X127605367Y-103850722D01*
X127605367Y-103681389D01*
X126982569Y-103681389D01*
X126998589Y-104283229D01*
X127178495Y-104381884D01*
X127296543Y-104440311D01*
X127400140Y-104472899D01*
X127519529Y-104488282D01*
X127559495Y-104490662D01*
X127719909Y-104489100D01*
X127845864Y-104468067D01*
X127867758Y-104460842D01*
X128041946Y-104376705D01*
X128171668Y-104267729D01*
X128266321Y-104125941D01*
X128269047Y-104120424D01*
X128337738Y-103927801D01*
X128363159Y-103728939D01*
X128347776Y-103533452D01*
X128294053Y-103350951D01*
X128204456Y-103191049D01*
X128081452Y-103063358D01*
X127981848Y-103000745D01*
X127829928Y-102949726D01*
X127656314Y-102928871D01*
X127481218Y-102938081D01*
G36*
X130138311Y-102952020D02*
X129977705Y-102956514D01*
X129861770Y-102962262D01*
X129778738Y-102971187D01*
X129716840Y-102985212D01*
X129664308Y-103006260D01*
X129609372Y-103036254D01*
X129604183Y-103039296D01*
X129482992Y-103141535D01*
X129391433Y-103281389D01*
X129330363Y-103447913D01*
X129300640Y-103630162D01*
X129303123Y-103817192D01*
X129338670Y-103998056D01*
X129408138Y-104161810D01*
X129506038Y-104291265D01*
X129582202Y-104358855D01*
X129662049Y-104407612D01*
X129756490Y-104440389D01*
X129876432Y-104460041D01*
X130032787Y-104469423D01*
X130194756Y-104471454D01*
X130540478Y-104471611D01*
X130540478Y-104307567D01*
X130342923Y-104307567D01*
X130062688Y-104297867D01*
X129923597Y-104290931D01*
X129827460Y-104279854D01*
X129760808Y-104262092D01*
X129710173Y-104235102D01*
X129702854Y-104229901D01*
X129613548Y-104143163D01*
X129553894Y-104030911D01*
X129520599Y-103884000D01*
X129510367Y-103695500D01*
X129513167Y-103559342D01*
X129523254Y-103463758D01*
X129543155Y-103393077D01*
X129566811Y-103345672D01*
X129628587Y-103255075D01*
X129696495Y-103192996D01*
X129783023Y-103153787D01*
X129900658Y-103131799D01*
X130061887Y-103121383D01*
X130062688Y-103121355D01*
X130342923Y-103111655D01*
X130342923Y-104307567D01*
X130540478Y-104307567D01*
X130540478Y-102942319D01*
X130138311Y-102952020D01*
X130138311Y-102952020D01*
G37*
X130138311Y-102952020D02*
X129977705Y-102956514D01*
X129861770Y-102962262D01*
X129778738Y-102971187D01*
X129716840Y-102985212D01*
X129664308Y-103006260D01*
X129609372Y-103036254D01*
X129604183Y-103039296D01*
X129482992Y-103141535D01*
X129391433Y-103281389D01*
X129330363Y-103447913D01*
X129300640Y-103630162D01*
X129303123Y-103817192D01*
X129338670Y-103998056D01*
X129408138Y-104161810D01*
X129506038Y-104291265D01*
X129582202Y-104358855D01*
X129662049Y-104407612D01*
X129756490Y-104440389D01*
X129876432Y-104460041D01*
X130032787Y-104469423D01*
X130194756Y-104471454D01*
X130540478Y-104471611D01*
X130540478Y-104307567D01*
X130342923Y-104307567D01*
X130062688Y-104297867D01*
X129923597Y-104290931D01*
X129827460Y-104279854D01*
X129760808Y-104262092D01*
X129710173Y-104235102D01*
X129702854Y-104229901D01*
X129613548Y-104143163D01*
X129553894Y-104030911D01*
X129520599Y-103884000D01*
X129510367Y-103695500D01*
X129513167Y-103559342D01*
X129523254Y-103463758D01*
X129543155Y-103393077D01*
X129566811Y-103345672D01*
X129628587Y-103255075D01*
X129696495Y-103192996D01*
X129783023Y-103153787D01*
X129900658Y-103131799D01*
X130061887Y-103121383D01*
X130062688Y-103121355D01*
X130342923Y-103111655D01*
X130342923Y-104307567D01*
X130540478Y-104307567D01*
X130540478Y-102942319D01*
X130138311Y-102952020D01*
G36*
X131023225Y-103194556D02*
X131103527Y-103309908D01*
X131179735Y-103420007D01*
X131241020Y-103509178D01*
X131266569Y-103546777D01*
X131337465Y-103652054D01*
X131205893Y-103843110D01*
X131125055Y-103959761D01*
X131029515Y-104096548D01*
X130937329Y-104227640D01*
X130919476Y-104252889D01*
X130764631Y-104471611D01*
X130885388Y-104470760D01*
X130938788Y-104468973D01*
X130979867Y-104459098D01*
X131017868Y-104433037D01*
X131062036Y-104382691D01*
X131121616Y-104299963D01*
X131183401Y-104209704D01*
X131260501Y-104097234D01*
X131330621Y-103996224D01*
X131384859Y-103919424D01*
X131410150Y-103884873D01*
X131459643Y-103820247D01*
X131682100Y-104145929D01*
X131904556Y-104471611D01*
X132153952Y-104471611D01*
X132057338Y-104337556D01*
X132001089Y-104258504D01*
X131924011Y-104148844D01*
X131837251Y-104024481D01*
X131769639Y-103926944D01*
X131578553Y-103650389D01*
X131677260Y-103503611D01*
X131742238Y-103408337D01*
X131824153Y-103290092D01*
X131907101Y-103171810D01*
X131920958Y-103152222D01*
X132065948Y-102947611D01*
X131945269Y-102948463D01*
X131892451Y-102950184D01*
X131851714Y-102959814D01*
X131814025Y-102985361D01*
X131770353Y-103034834D01*
X131711667Y-103116240D01*
X131643639Y-103215926D01*
X131462689Y-103482537D01*
X131278534Y-103215074D01*
X131094380Y-102947611D01*
X130850777Y-102947611D01*
X131023225Y-103194556D01*
X131023225Y-103194556D01*
G37*
X131023225Y-103194556D02*
X131103527Y-103309908D01*
X131179735Y-103420007D01*
X131241020Y-103509178D01*
X131266569Y-103546777D01*
X131337465Y-103652054D01*
X131205893Y-103843110D01*
X131125055Y-103959761D01*
X131029515Y-104096548D01*
X130937329Y-104227640D01*
X130919476Y-104252889D01*
X130764631Y-104471611D01*
X130885388Y-104470760D01*
X130938788Y-104468973D01*
X130979867Y-104459098D01*
X131017868Y-104433037D01*
X131062036Y-104382691D01*
X131121616Y-104299963D01*
X131183401Y-104209704D01*
X131260501Y-104097234D01*
X131330621Y-103996224D01*
X131384859Y-103919424D01*
X131410150Y-103884873D01*
X131459643Y-103820247D01*
X131682100Y-104145929D01*
X131904556Y-104471611D01*
X132153952Y-104471611D01*
X132057338Y-104337556D01*
X132001089Y-104258504D01*
X131924011Y-104148844D01*
X131837251Y-104024481D01*
X131769639Y-103926944D01*
X131578553Y-103650389D01*
X131677260Y-103503611D01*
X131742238Y-103408337D01*
X131824153Y-103290092D01*
X131907101Y-103171810D01*
X131920958Y-103152222D01*
X132065948Y-102947611D01*
X131945269Y-102948463D01*
X131892451Y-102950184D01*
X131851714Y-102959814D01*
X131814025Y-102985361D01*
X131770353Y-103034834D01*
X131711667Y-103116240D01*
X131643639Y-103215926D01*
X131462689Y-103482537D01*
X131278534Y-103215074D01*
X131094380Y-102947611D01*
X130850777Y-102947611D01*
X131023225Y-103194556D01*
G36*
X133015642Y-102952239D02*
X132822983Y-102957571D01*
X132677641Y-102966345D01*
X132570492Y-102981299D01*
X132492411Y-103005169D01*
X132434277Y-103040690D01*
X132386965Y-103090601D01*
X132343782Y-103153756D01*
X132304330Y-103243687D01*
X132296677Y-103350103D01*
X132298499Y-103376396D01*
X132329393Y-103519780D01*
X132398122Y-103625484D01*
X132511395Y-103702914D01*
X132540916Y-103716229D01*
X132672487Y-103771817D01*
X132586548Y-103862939D01*
X132546853Y-103912517D01*
X132490079Y-103992669D01*
X132423682Y-104091714D01*
X132355118Y-104197975D01*
X132291843Y-104299771D01*
X132241314Y-104385424D01*
X132210987Y-104443255D01*
X132205589Y-104459652D01*
X132230552Y-104467322D01*
X132292438Y-104471337D01*
X132311423Y-104471514D01*
X132359645Y-104469386D01*
X132397398Y-104457366D01*
X132433430Y-104426843D01*
X132476492Y-104369208D01*
X132535332Y-104275851D01*
X132572478Y-104214615D01*
X132647392Y-104097525D01*
X132723324Y-103990331D01*
X132789301Y-103908019D01*
X132820405Y-103876045D01*
X132879297Y-103830252D01*
X132937518Y-103805551D01*
X133016101Y-103795693D01*
X133095571Y-103794278D01*
X133278034Y-103794278D01*
X133278034Y-104471611D01*
X133475589Y-104471611D01*
X133475589Y-103624945D01*
X133278034Y-103624945D01*
X132994410Y-103624945D01*
X132827077Y-103620666D01*
X132708510Y-103607283D01*
X132631643Y-103583971D01*
X132628358Y-103582319D01*
X132535404Y-103508126D01*
X132491564Y-103413515D01*
X132498929Y-103309220D01*
X132555862Y-103210240D01*
X132587448Y-103176233D01*
X132620500Y-103153308D01*
X132666668Y-103138852D01*
X132737604Y-103130249D01*
X132844956Y-103124885D01*
X132950973Y-103121571D01*
X133278034Y-103112087D01*
X133278034Y-103624945D01*
X133475589Y-103624945D01*
X133475589Y-102942755D01*
X133015642Y-102952239D01*
X133015642Y-102952239D01*
G37*
X133015642Y-102952239D02*
X132822983Y-102957571D01*
X132677641Y-102966345D01*
X132570492Y-102981299D01*
X132492411Y-103005169D01*
X132434277Y-103040690D01*
X132386965Y-103090601D01*
X132343782Y-103153756D01*
X132304330Y-103243687D01*
X132296677Y-103350103D01*
X132298499Y-103376396D01*
X132329393Y-103519780D01*
X132398122Y-103625484D01*
X132511395Y-103702914D01*
X132540916Y-103716229D01*
X132672487Y-103771817D01*
X132586548Y-103862939D01*
X132546853Y-103912517D01*
X132490079Y-103992669D01*
X132423682Y-104091714D01*
X132355118Y-104197975D01*
X132291843Y-104299771D01*
X132241314Y-104385424D01*
X132210987Y-104443255D01*
X132205589Y-104459652D01*
X132230552Y-104467322D01*
X132292438Y-104471337D01*
X132311423Y-104471514D01*
X132359645Y-104469386D01*
X132397398Y-104457366D01*
X132433430Y-104426843D01*
X132476492Y-104369208D01*
X132535332Y-104275851D01*
X132572478Y-104214615D01*
X132647392Y-104097525D01*
X132723324Y-103990331D01*
X132789301Y-103908019D01*
X132820405Y-103876045D01*
X132879297Y-103830252D01*
X132937518Y-103805551D01*
X133016101Y-103795693D01*
X133095571Y-103794278D01*
X133278034Y-103794278D01*
X133278034Y-104471611D01*
X133475589Y-104471611D01*
X133475589Y-103624945D01*
X133278034Y-103624945D01*
X132994410Y-103624945D01*
X132827077Y-103620666D01*
X132708510Y-103607283D01*
X132631643Y-103583971D01*
X132628358Y-103582319D01*
X132535404Y-103508126D01*
X132491564Y-103413515D01*
X132498929Y-103309220D01*
X132555862Y-103210240D01*
X132587448Y-103176233D01*
X132620500Y-103153308D01*
X132666668Y-103138852D01*
X132737604Y-103130249D01*
X132844956Y-103124885D01*
X132950973Y-103121571D01*
X133278034Y-103112087D01*
X133278034Y-103624945D01*
X133475589Y-103624945D01*
X133475589Y-102942755D01*
X133015642Y-102952239D01*
G36*
X128152596Y-106960519D02*
X128050713Y-106969278D01*
X127806700Y-107621920D01*
X127562686Y-108274562D01*
X127075702Y-106969278D01*
X126973645Y-106960519D01*
X126907243Y-106959840D01*
X126872896Y-106969297D01*
X126871589Y-106972492D01*
X126881453Y-107003179D01*
X126909311Y-107079554D01*
X126952562Y-107194752D01*
X127008605Y-107341907D01*
X127074838Y-107514154D01*
X127148661Y-107704628D01*
X127160867Y-107735987D01*
X127450145Y-108478750D01*
X127675923Y-108478750D01*
X127965200Y-107735987D01*
X128039986Y-107543258D01*
X128107593Y-107367670D01*
X128165422Y-107216087D01*
X128210870Y-107095375D01*
X128241337Y-107012399D01*
X128254222Y-106974025D01*
X128254478Y-106972492D01*
X128229768Y-106961118D01*
X128168726Y-106959393D01*
X128152596Y-106960519D01*
X128152596Y-106960519D01*
G37*
X128152596Y-106960519D02*
X128050713Y-106969278D01*
X127806700Y-107621920D01*
X127562686Y-108274562D01*
X127075702Y-106969278D01*
X126973645Y-106960519D01*
X126907243Y-106959840D01*
X126872896Y-106969297D01*
X126871589Y-106972492D01*
X126881453Y-107003179D01*
X126909311Y-107079554D01*
X126952562Y-107194752D01*
X127008605Y-107341907D01*
X127074838Y-107514154D01*
X127148661Y-107704628D01*
X127160867Y-107735987D01*
X127450145Y-108478750D01*
X127675923Y-108478750D01*
X127965200Y-107735987D01*
X128039986Y-107543258D01*
X128107593Y-107367670D01*
X128165422Y-107216087D01*
X128210870Y-107095375D01*
X128241337Y-107012399D01*
X128254222Y-106974025D01*
X128254478Y-106972492D01*
X128229768Y-106961118D01*
X128168726Y-106959393D01*
X128152596Y-106960519D01*
G36*
X124365555Y-106941115D02*
X124212441Y-107001073D01*
X124110506Y-107076458D01*
X124064858Y-107129426D01*
X124016129Y-107201069D01*
X123973566Y-107275294D01*
X123946419Y-107336009D01*
X123943623Y-107366830D01*
X123976301Y-107379549D01*
X124039905Y-107394949D01*
X124042216Y-107395414D01*
X124098012Y-107401531D01*
X124135297Y-107383917D01*
X124171004Y-107331044D01*
X124189987Y-107294796D01*
X124272414Y-107187256D01*
X124381385Y-107121354D01*
X124506351Y-107096185D01*
X124636762Y-107110841D01*
X124762068Y-107164418D01*
X124871719Y-107256008D01*
X124942868Y-107359450D01*
X124979742Y-107469769D01*
X124999533Y-107613512D01*
X125001325Y-107770024D01*
X124984200Y-107918650D01*
X124970297Y-107976700D01*
X124905269Y-108120774D01*
X124810575Y-108228728D01*
X124695623Y-108299803D01*
X124569822Y-108333240D01*
X124442578Y-108328280D01*
X124323301Y-108284163D01*
X124221398Y-108200131D01*
X124146277Y-108075423D01*
X124134826Y-108044122D01*
X124109683Y-107981138D01*
X124079148Y-107960639D01*
X124023200Y-107970596D01*
X124015906Y-107972669D01*
X123952059Y-107993381D01*
X123917358Y-108009141D01*
X123916881Y-108009579D01*
X123917228Y-108044706D01*
X123942530Y-108110303D01*
X123985041Y-108190834D01*
X124037013Y-108270764D01*
X124065089Y-108306794D01*
X124189519Y-108412742D01*
X124344606Y-108480334D01*
X124516898Y-108506432D01*
X124692946Y-108487899D01*
X124758166Y-108468453D01*
X124913846Y-108391415D01*
X125030170Y-108281138D01*
X125108414Y-108150518D01*
X125176496Y-107947122D01*
X125202663Y-107724871D01*
X125185308Y-107504423D01*
X125165261Y-107419431D01*
X125092396Y-107254983D01*
X124983029Y-107120415D01*
X124846410Y-107018736D01*
X124691790Y-106952954D01*
X124528422Y-106926078D01*
X124365555Y-106941115D01*
X124365555Y-106941115D01*
G37*
X124365555Y-106941115D02*
X124212441Y-107001073D01*
X124110506Y-107076458D01*
X124064858Y-107129426D01*
X124016129Y-107201069D01*
X123973566Y-107275294D01*
X123946419Y-107336009D01*
X123943623Y-107366830D01*
X123976301Y-107379549D01*
X124039905Y-107394949D01*
X124042216Y-107395414D01*
X124098012Y-107401531D01*
X124135297Y-107383917D01*
X124171004Y-107331044D01*
X124189987Y-107294796D01*
X124272414Y-107187256D01*
X124381385Y-107121354D01*
X124506351Y-107096185D01*
X124636762Y-107110841D01*
X124762068Y-107164418D01*
X124871719Y-107256008D01*
X124942868Y-107359450D01*
X124979742Y-107469769D01*
X124999533Y-107613512D01*
X125001325Y-107770024D01*
X124984200Y-107918650D01*
X124970297Y-107976700D01*
X124905269Y-108120774D01*
X124810575Y-108228728D01*
X124695623Y-108299803D01*
X124569822Y-108333240D01*
X124442578Y-108328280D01*
X124323301Y-108284163D01*
X124221398Y-108200131D01*
X124146277Y-108075423D01*
X124134826Y-108044122D01*
X124109683Y-107981138D01*
X124079148Y-107960639D01*
X124023200Y-107970596D01*
X124015906Y-107972669D01*
X123952059Y-107993381D01*
X123917358Y-108009141D01*
X123916881Y-108009579D01*
X123917228Y-108044706D01*
X123942530Y-108110303D01*
X123985041Y-108190834D01*
X124037013Y-108270764D01*
X124065089Y-108306794D01*
X124189519Y-108412742D01*
X124344606Y-108480334D01*
X124516898Y-108506432D01*
X124692946Y-108487899D01*
X124758166Y-108468453D01*
X124913846Y-108391415D01*
X125030170Y-108281138D01*
X125108414Y-108150518D01*
X125176496Y-107947122D01*
X125202663Y-107724871D01*
X125185308Y-107504423D01*
X125165261Y-107419431D01*
X125092396Y-107254983D01*
X124983029Y-107120415D01*
X124846410Y-107018736D01*
X124691790Y-106952954D01*
X124528422Y-106926078D01*
X124365555Y-106941115D01*
G36*
X125917777Y-106941115D02*
X125764663Y-107001073D01*
X125662728Y-107076458D01*
X125617081Y-107129426D01*
X125568351Y-107201069D01*
X125525788Y-107275294D01*
X125498641Y-107336009D01*
X125495845Y-107366830D01*
X125528523Y-107379549D01*
X125592127Y-107394949D01*
X125594438Y-107395414D01*
X125650234Y-107401531D01*
X125687519Y-107383917D01*
X125723226Y-107331044D01*
X125742209Y-107294796D01*
X125824636Y-107187256D01*
X125933607Y-107121354D01*
X126058573Y-107096185D01*
X126188984Y-107110841D01*
X126314290Y-107164418D01*
X126423941Y-107256008D01*
X126495090Y-107359450D01*
X126531964Y-107469769D01*
X126551756Y-107613512D01*
X126553548Y-107770024D01*
X126536422Y-107918650D01*
X126522519Y-107976700D01*
X126457491Y-108120774D01*
X126362797Y-108228728D01*
X126247845Y-108299803D01*
X126122044Y-108333240D01*
X125994801Y-108328280D01*
X125875524Y-108284163D01*
X125773620Y-108200131D01*
X125698499Y-108075423D01*
X125687048Y-108044122D01*
X125661905Y-107981138D01*
X125631370Y-107960639D01*
X125575422Y-107970596D01*
X125568129Y-107972669D01*
X125504281Y-107993381D01*
X125469580Y-108009141D01*
X125469103Y-108009579D01*
X125469450Y-108044706D01*
X125494752Y-108110303D01*
X125537263Y-108190834D01*
X125589235Y-108270764D01*
X125617312Y-108306794D01*
X125741741Y-108412742D01*
X125896828Y-108480334D01*
X126069121Y-108506432D01*
X126245168Y-108487899D01*
X126310388Y-108468453D01*
X126466068Y-108391415D01*
X126582393Y-108281138D01*
X126660636Y-108150518D01*
X126728718Y-107947122D01*
X126754885Y-107724871D01*
X126737530Y-107504423D01*
X126717483Y-107419431D01*
X126644619Y-107254983D01*
X126535251Y-107120415D01*
X126398632Y-107018736D01*
X126244013Y-106952954D01*
X126080644Y-106926078D01*
X125917777Y-106941115D01*
X125917777Y-106941115D01*
G37*
X125917777Y-106941115D02*
X125764663Y-107001073D01*
X125662728Y-107076458D01*
X125617081Y-107129426D01*
X125568351Y-107201069D01*
X125525788Y-107275294D01*
X125498641Y-107336009D01*
X125495845Y-107366830D01*
X125528523Y-107379549D01*
X125592127Y-107394949D01*
X125594438Y-107395414D01*
X125650234Y-107401531D01*
X125687519Y-107383917D01*
X125723226Y-107331044D01*
X125742209Y-107294796D01*
X125824636Y-107187256D01*
X125933607Y-107121354D01*
X126058573Y-107096185D01*
X126188984Y-107110841D01*
X126314290Y-107164418D01*
X126423941Y-107256008D01*
X126495090Y-107359450D01*
X126531964Y-107469769D01*
X126551756Y-107613512D01*
X126553548Y-107770024D01*
X126536422Y-107918650D01*
X126522519Y-107976700D01*
X126457491Y-108120774D01*
X126362797Y-108228728D01*
X126247845Y-108299803D01*
X126122044Y-108333240D01*
X125994801Y-108328280D01*
X125875524Y-108284163D01*
X125773620Y-108200131D01*
X125698499Y-108075423D01*
X125687048Y-108044122D01*
X125661905Y-107981138D01*
X125631370Y-107960639D01*
X125575422Y-107970596D01*
X125568129Y-107972669D01*
X125504281Y-107993381D01*
X125469580Y-108009141D01*
X125469103Y-108009579D01*
X125469450Y-108044706D01*
X125494752Y-108110303D01*
X125537263Y-108190834D01*
X125589235Y-108270764D01*
X125617312Y-108306794D01*
X125741741Y-108412742D01*
X125896828Y-108480334D01*
X126069121Y-108506432D01*
X126245168Y-108487899D01*
X126310388Y-108468453D01*
X126466068Y-108391415D01*
X126582393Y-108281138D01*
X126660636Y-108150518D01*
X126728718Y-107947122D01*
X126754885Y-107724871D01*
X126737530Y-107504423D01*
X126717483Y-107419431D01*
X126644619Y-107254983D01*
X126535251Y-107120415D01*
X126398632Y-107018736D01*
X126244013Y-106952954D01*
X126080644Y-106926078D01*
X125917777Y-106941115D01*
G36*
X130251200Y-106959576D02*
X130090594Y-106964070D01*
X129974659Y-106969818D01*
X129891627Y-106978743D01*
X129829729Y-106992768D01*
X129777197Y-107013816D01*
X129722260Y-107043810D01*
X129717072Y-107046851D01*
X129595881Y-107149091D01*
X129504322Y-107288945D01*
X129443252Y-107455469D01*
X129413529Y-107637718D01*
X129416012Y-107824747D01*
X129451559Y-108005611D01*
X129521027Y-108169366D01*
X129618927Y-108298820D01*
X129695091Y-108366410D01*
X129774938Y-108415167D01*
X129869378Y-108447945D01*
X129989321Y-108467597D01*
X130145676Y-108476979D01*
X130307645Y-108479009D01*
X130653367Y-108479167D01*
X130653367Y-108315123D01*
X130455811Y-108315123D01*
X130175576Y-108305422D01*
X130036486Y-108298487D01*
X129940349Y-108287410D01*
X129873697Y-108269648D01*
X129823062Y-108242657D01*
X129815743Y-108237457D01*
X129726437Y-108150719D01*
X129666783Y-108038467D01*
X129633488Y-107891555D01*
X129623256Y-107703056D01*
X129626056Y-107566898D01*
X129636143Y-107471314D01*
X129656044Y-107400633D01*
X129679700Y-107353228D01*
X129741476Y-107262631D01*
X129809384Y-107200552D01*
X129895912Y-107161343D01*
X130013546Y-107139355D01*
X130174776Y-107128939D01*
X130175576Y-107128911D01*
X130455811Y-107119211D01*
X130455811Y-108315123D01*
X130653367Y-108315123D01*
X130653367Y-106949874D01*
X130251200Y-106959576D01*
X130251200Y-106959576D01*
G37*
X130251200Y-106959576D02*
X130090594Y-106964070D01*
X129974659Y-106969818D01*
X129891627Y-106978743D01*
X129829729Y-106992768D01*
X129777197Y-107013816D01*
X129722260Y-107043810D01*
X129717072Y-107046851D01*
X129595881Y-107149091D01*
X129504322Y-107288945D01*
X129443252Y-107455469D01*
X129413529Y-107637718D01*
X129416012Y-107824747D01*
X129451559Y-108005611D01*
X129521027Y-108169366D01*
X129618927Y-108298820D01*
X129695091Y-108366410D01*
X129774938Y-108415167D01*
X129869378Y-108447945D01*
X129989321Y-108467597D01*
X130145676Y-108476979D01*
X130307645Y-108479009D01*
X130653367Y-108479167D01*
X130653367Y-108315123D01*
X130455811Y-108315123D01*
X130175576Y-108305422D01*
X130036486Y-108298487D01*
X129940349Y-108287410D01*
X129873697Y-108269648D01*
X129823062Y-108242657D01*
X129815743Y-108237457D01*
X129726437Y-108150719D01*
X129666783Y-108038467D01*
X129633488Y-107891555D01*
X129623256Y-107703056D01*
X129626056Y-107566898D01*
X129636143Y-107471314D01*
X129656044Y-107400633D01*
X129679700Y-107353228D01*
X129741476Y-107262631D01*
X129809384Y-107200552D01*
X129895912Y-107161343D01*
X130013546Y-107139355D01*
X130174776Y-107128939D01*
X130175576Y-107128911D01*
X130455811Y-107119211D01*
X130455811Y-108315123D01*
X130653367Y-108315123D01*
X130653367Y-106949874D01*
X130251200Y-106959576D01*
G36*
X131136114Y-107202111D02*
X131216416Y-107317464D01*
X131292624Y-107427562D01*
X131353909Y-107516734D01*
X131379458Y-107554333D01*
X131450354Y-107659610D01*
X131318782Y-107850666D01*
X131237944Y-107967317D01*
X131142404Y-108104104D01*
X131050218Y-108235196D01*
X131032365Y-108260445D01*
X130877520Y-108479167D01*
X130998277Y-108478315D01*
X131051677Y-108476529D01*
X131092755Y-108466654D01*
X131130757Y-108440592D01*
X131174925Y-108390247D01*
X131234505Y-108307519D01*
X131296290Y-108217260D01*
X131373390Y-108104790D01*
X131443510Y-108003779D01*
X131497747Y-107926980D01*
X131523039Y-107892429D01*
X131572532Y-107827802D01*
X131794989Y-108153485D01*
X132017445Y-108479167D01*
X132266841Y-108479167D01*
X132170227Y-108345111D01*
X132113977Y-108266060D01*
X132036900Y-108156399D01*
X131950140Y-108032036D01*
X131882528Y-107934500D01*
X131691442Y-107657944D01*
X131790149Y-107511167D01*
X131855127Y-107415892D01*
X131937042Y-107297647D01*
X132019990Y-107179365D01*
X132033847Y-107159778D01*
X132178837Y-106955167D01*
X132058158Y-106956018D01*
X132005340Y-106957740D01*
X131964603Y-106967370D01*
X131926914Y-106992917D01*
X131883242Y-107042389D01*
X131824556Y-107123795D01*
X131756528Y-107223481D01*
X131575578Y-107490092D01*
X131391423Y-107222630D01*
X131207269Y-106955167D01*
X130963666Y-106955167D01*
X131136114Y-107202111D01*
X131136114Y-107202111D01*
G37*
X131136114Y-107202111D02*
X131216416Y-107317464D01*
X131292624Y-107427562D01*
X131353909Y-107516734D01*
X131379458Y-107554333D01*
X131450354Y-107659610D01*
X131318782Y-107850666D01*
X131237944Y-107967317D01*
X131142404Y-108104104D01*
X131050218Y-108235196D01*
X131032365Y-108260445D01*
X130877520Y-108479167D01*
X130998277Y-108478315D01*
X131051677Y-108476529D01*
X131092755Y-108466654D01*
X131130757Y-108440592D01*
X131174925Y-108390247D01*
X131234505Y-108307519D01*
X131296290Y-108217260D01*
X131373390Y-108104790D01*
X131443510Y-108003779D01*
X131497747Y-107926980D01*
X131523039Y-107892429D01*
X131572532Y-107827802D01*
X131794989Y-108153485D01*
X132017445Y-108479167D01*
X132266841Y-108479167D01*
X132170227Y-108345111D01*
X132113977Y-108266060D01*
X132036900Y-108156399D01*
X131950140Y-108032036D01*
X131882528Y-107934500D01*
X131691442Y-107657944D01*
X131790149Y-107511167D01*
X131855127Y-107415892D01*
X131937042Y-107297647D01*
X132019990Y-107179365D01*
X132033847Y-107159778D01*
X132178837Y-106955167D01*
X132058158Y-106956018D01*
X132005340Y-106957740D01*
X131964603Y-106967370D01*
X131926914Y-106992917D01*
X131883242Y-107042389D01*
X131824556Y-107123795D01*
X131756528Y-107223481D01*
X131575578Y-107490092D01*
X131391423Y-107222630D01*
X131207269Y-106955167D01*
X130963666Y-106955167D01*
X131136114Y-107202111D01*
G36*
X132290256Y-107124500D02*
X132798256Y-107124500D01*
X132798256Y-108479167D01*
X132995811Y-108479167D01*
X132995811Y-107124500D01*
X133503811Y-107124500D01*
X133503811Y-106955167D01*
X132290256Y-106955167D01*
X132290256Y-107124500D01*
X132290256Y-107124500D01*
G37*
X132290256Y-107124500D02*
X132798256Y-107124500D01*
X132798256Y-108479167D01*
X132995811Y-108479167D01*
X132995811Y-107124500D01*
X133503811Y-107124500D01*
X133503811Y-106955167D01*
X132290256Y-106955167D01*
X132290256Y-107124500D01*
G36*
X123033367Y-109890278D02*
X134519811Y-109890278D01*
X134519811Y-105967389D01*
X133814256Y-105967389D01*
X133814256Y-109184722D01*
X129129367Y-109184722D01*
X129129367Y-105967389D01*
X128423811Y-105967389D01*
X128423811Y-109184722D01*
X123738923Y-109184722D01*
X123738923Y-105967389D01*
X128423811Y-105967389D01*
X129129367Y-105967389D01*
X133814256Y-105967389D01*
X134519811Y-105967389D01*
X134519811Y-102016278D01*
X133814256Y-102016278D01*
X133814256Y-105261833D01*
X129129367Y-105261833D01*
X129129367Y-102016278D01*
X128423811Y-102016278D01*
X128423811Y-105261833D01*
X123738923Y-105261833D01*
X123738923Y-102016278D01*
X128423811Y-102016278D01*
X129129367Y-102016278D01*
X133814256Y-102016278D01*
X134519811Y-102016278D01*
X134519811Y-98093389D01*
X133814256Y-98093389D01*
X133814256Y-101310722D01*
X129129367Y-101310722D01*
X129129367Y-98093389D01*
X128423811Y-98093389D01*
X128423811Y-101310722D01*
X123738923Y-101310722D01*
X123738923Y-98093389D01*
X128423811Y-98093389D01*
X129129367Y-98093389D01*
X133814256Y-98093389D01*
X134519811Y-98093389D01*
X134519811Y-94142278D01*
X133814256Y-94142278D01*
X133814256Y-97387833D01*
X129129367Y-97387833D01*
X129129367Y-94142278D01*
X128423811Y-94142278D01*
X128423811Y-97387833D01*
X123738923Y-97387833D01*
X123738923Y-94142278D01*
X128423811Y-94142278D01*
X129129367Y-94142278D01*
X133814256Y-94142278D01*
X134519811Y-94142278D01*
X134519811Y-90162945D01*
X133814256Y-90162945D01*
X133814256Y-93436722D01*
X129129367Y-93436722D01*
X129129367Y-90162945D01*
X128423811Y-90162945D01*
X128423811Y-93436722D01*
X123738923Y-93436722D01*
X123738923Y-90162945D01*
X128423811Y-90162945D01*
X129129367Y-90162945D01*
X133814256Y-90162945D01*
X134519811Y-90162945D01*
X134519811Y-89457389D01*
X133814256Y-89457389D01*
X129129367Y-89457389D01*
X129129367Y-86296500D01*
X128423811Y-86296500D01*
X128423811Y-89457389D01*
X123738923Y-89457389D01*
X123738923Y-86296500D01*
X128423811Y-86296500D01*
X129129367Y-86296500D01*
X132991669Y-86296500D01*
X133402568Y-86755111D01*
X133813468Y-87213722D01*
X133813862Y-88335556D01*
X133814256Y-89457389D01*
X134519811Y-89457389D01*
X134519811Y-85590945D01*
X123033367Y-85590945D01*
X123033367Y-109890278D01*
X123033367Y-109890278D01*
G37*
X123033367Y-109890278D02*
X134519811Y-109890278D01*
X134519811Y-105967389D01*
X133814256Y-105967389D01*
X133814256Y-109184722D01*
X129129367Y-109184722D01*
X129129367Y-105967389D01*
X128423811Y-105967389D01*
X128423811Y-109184722D01*
X123738923Y-109184722D01*
X123738923Y-105967389D01*
X128423811Y-105967389D01*
X129129367Y-105967389D01*
X133814256Y-105967389D01*
X134519811Y-105967389D01*
X134519811Y-102016278D01*
X133814256Y-102016278D01*
X133814256Y-105261833D01*
X129129367Y-105261833D01*
X129129367Y-102016278D01*
X128423811Y-102016278D01*
X128423811Y-105261833D01*
X123738923Y-105261833D01*
X123738923Y-102016278D01*
X128423811Y-102016278D01*
X129129367Y-102016278D01*
X133814256Y-102016278D01*
X134519811Y-102016278D01*
X134519811Y-98093389D01*
X133814256Y-98093389D01*
X133814256Y-101310722D01*
X129129367Y-101310722D01*
X129129367Y-98093389D01*
X128423811Y-98093389D01*
X128423811Y-101310722D01*
X123738923Y-101310722D01*
X123738923Y-98093389D01*
X128423811Y-98093389D01*
X129129367Y-98093389D01*
X133814256Y-98093389D01*
X134519811Y-98093389D01*
X134519811Y-94142278D01*
X133814256Y-94142278D01*
X133814256Y-97387833D01*
X129129367Y-97387833D01*
X129129367Y-94142278D01*
X128423811Y-94142278D01*
X128423811Y-97387833D01*
X123738923Y-97387833D01*
X123738923Y-94142278D01*
X128423811Y-94142278D01*
X129129367Y-94142278D01*
X133814256Y-94142278D01*
X134519811Y-94142278D01*
X134519811Y-90162945D01*
X133814256Y-90162945D01*
X133814256Y-93436722D01*
X129129367Y-93436722D01*
X129129367Y-90162945D01*
X128423811Y-90162945D01*
X128423811Y-93436722D01*
X123738923Y-93436722D01*
X123738923Y-90162945D01*
X128423811Y-90162945D01*
X129129367Y-90162945D01*
X133814256Y-90162945D01*
X134519811Y-90162945D01*
X134519811Y-89457389D01*
X133814256Y-89457389D01*
X129129367Y-89457389D01*
X129129367Y-86296500D01*
X128423811Y-86296500D01*
X128423811Y-89457389D01*
X123738923Y-89457389D01*
X123738923Y-86296500D01*
X128423811Y-86296500D01*
X129129367Y-86296500D01*
X132991669Y-86296500D01*
X133402568Y-86755111D01*
X133813468Y-87213722D01*
X133813862Y-88335556D01*
X133814256Y-89457389D01*
X134519811Y-89457389D01*
X134519811Y-85590945D01*
X123033367Y-85590945D01*
X123033367Y-109890278D01*
G04 #@! TO.C,F1*
D10*
X160924833Y-96283471D02*
X161258166Y-96283471D01*
X161258166Y-96807280D02*
X161258166Y-95807280D01*
X160781976Y-95807280D01*
X159877214Y-96807280D02*
X160448642Y-96807280D01*
X160162928Y-96807280D02*
X160162928Y-95807280D01*
X160258166Y-95950138D01*
X160353404Y-96045376D01*
X160448642Y-96092995D01*
G04 #@! TO.C,JP1*
X160065933Y-88482780D02*
X160065933Y-89197066D01*
X160113552Y-89339923D01*
X160208790Y-89435161D01*
X160351647Y-89482780D01*
X160446885Y-89482780D01*
X159589742Y-89482780D02*
X159589742Y-88482780D01*
X159208790Y-88482780D01*
X159113552Y-88530400D01*
X159065933Y-88578019D01*
X159018314Y-88673257D01*
X159018314Y-88816114D01*
X159065933Y-88911352D01*
X159113552Y-88958971D01*
X159208790Y-89006590D01*
X159589742Y-89006590D01*
X158065933Y-89482780D02*
X158637361Y-89482780D01*
X158351647Y-89482780D02*
X158351647Y-88482780D01*
X158446885Y-88625638D01*
X158542123Y-88720876D01*
X158637361Y-88768495D01*
G04 #@! TD*
M02*
