G04 #@! TF.GenerationSoftware,KiCad,Pcbnew,(5.0.0-3-g5ebb6b6)*
G04 #@! TF.CreationDate,2019-02-08T12:04:07-05:00*
G04 #@! TF.ProjectId,ROCKETasp,524F434B45546173702E6B696361645F,2.0*
G04 #@! TF.SameCoordinates,Original*
G04 #@! TF.FileFunction,Soldermask,Top*
G04 #@! TF.FilePolarity,Negative*
%FSLAX46Y46*%
G04 Gerber Fmt 4.6, Leading zero omitted, Abs format (unit mm)*
G04 Created by KiCad (PCBNEW (5.0.0-3-g5ebb6b6)) date Friday, February 08, 2019 at 12:04:07 PM*
%MOMM*%
%LPD*%
G01*
G04 APERTURE LIST*
%ADD10R,1.600000X1.000000*%
%ADD11C,2.400000*%
%ADD12C,0.100000*%
%ADD13C,1.275000*%
%ADD14R,1.200000X1.300000*%
%ADD15R,2.900000X1.500000*%
%ADD16O,3.900000X2.300000*%
%ADD17C,1.500000*%
%ADD18R,2.100000X2.100000*%
%ADD19O,2.100000X2.100000*%
%ADD20R,3.400000X1.400000*%
%ADD21R,2.840000X1.520000*%
%ADD22R,2.000000X0.950000*%
%ADD23R,0.950000X2.000000*%
%ADD24R,1.700000X2.000000*%
G04 APERTURE END LIST*
D10*
G04 #@! TO.C,D2*
X127900000Y-107025000D03*
X126100000Y-107025000D03*
X126100000Y-107975000D03*
X127900000Y-107975000D03*
G04 #@! TD*
D11*
G04 #@! TO.C,REF\002A\002A*
X168000000Y-108250000D03*
G04 #@! TD*
G04 #@! TO.C,REF\002A\002A*
X168000000Y-87250000D03*
G04 #@! TD*
G04 #@! TO.C,REF\002A\002A*
X120000000Y-108250000D03*
G04 #@! TD*
G04 #@! TO.C,REF\002A\002A*
X120000000Y-87250000D03*
G04 #@! TD*
D12*
G04 #@! TO.C,C1*
G36*
X156991693Y-96862535D02*
X157022635Y-96867125D01*
X157052978Y-96874725D01*
X157082430Y-96885263D01*
X157110708Y-96898638D01*
X157137538Y-96914719D01*
X157162663Y-96933353D01*
X157185840Y-96954360D01*
X157206847Y-96977537D01*
X157225481Y-97002662D01*
X157241562Y-97029492D01*
X157254937Y-97057770D01*
X157265475Y-97087222D01*
X157273075Y-97117565D01*
X157277665Y-97148507D01*
X157279200Y-97179750D01*
X157279200Y-97892250D01*
X157277665Y-97923493D01*
X157273075Y-97954435D01*
X157265475Y-97984778D01*
X157254937Y-98014230D01*
X157241562Y-98042508D01*
X157225481Y-98069338D01*
X157206847Y-98094463D01*
X157185840Y-98117640D01*
X157162663Y-98138647D01*
X157137538Y-98157281D01*
X157110708Y-98173362D01*
X157082430Y-98186737D01*
X157052978Y-98197275D01*
X157022635Y-98204875D01*
X156991693Y-98209465D01*
X156960450Y-98211000D01*
X156322950Y-98211000D01*
X156291707Y-98209465D01*
X156260765Y-98204875D01*
X156230422Y-98197275D01*
X156200970Y-98186737D01*
X156172692Y-98173362D01*
X156145862Y-98157281D01*
X156120737Y-98138647D01*
X156097560Y-98117640D01*
X156076553Y-98094463D01*
X156057919Y-98069338D01*
X156041838Y-98042508D01*
X156028463Y-98014230D01*
X156017925Y-97984778D01*
X156010325Y-97954435D01*
X156005735Y-97923493D01*
X156004200Y-97892250D01*
X156004200Y-97179750D01*
X156005735Y-97148507D01*
X156010325Y-97117565D01*
X156017925Y-97087222D01*
X156028463Y-97057770D01*
X156041838Y-97029492D01*
X156057919Y-97002662D01*
X156076553Y-96977537D01*
X156097560Y-96954360D01*
X156120737Y-96933353D01*
X156145862Y-96914719D01*
X156172692Y-96898638D01*
X156200970Y-96885263D01*
X156230422Y-96874725D01*
X156260765Y-96867125D01*
X156291707Y-96862535D01*
X156322950Y-96861000D01*
X156960450Y-96861000D01*
X156991693Y-96862535D01*
X156991693Y-96862535D01*
G37*
D13*
X156641700Y-97536000D03*
D12*
G36*
X158566693Y-96862535D02*
X158597635Y-96867125D01*
X158627978Y-96874725D01*
X158657430Y-96885263D01*
X158685708Y-96898638D01*
X158712538Y-96914719D01*
X158737663Y-96933353D01*
X158760840Y-96954360D01*
X158781847Y-96977537D01*
X158800481Y-97002662D01*
X158816562Y-97029492D01*
X158829937Y-97057770D01*
X158840475Y-97087222D01*
X158848075Y-97117565D01*
X158852665Y-97148507D01*
X158854200Y-97179750D01*
X158854200Y-97892250D01*
X158852665Y-97923493D01*
X158848075Y-97954435D01*
X158840475Y-97984778D01*
X158829937Y-98014230D01*
X158816562Y-98042508D01*
X158800481Y-98069338D01*
X158781847Y-98094463D01*
X158760840Y-98117640D01*
X158737663Y-98138647D01*
X158712538Y-98157281D01*
X158685708Y-98173362D01*
X158657430Y-98186737D01*
X158627978Y-98197275D01*
X158597635Y-98204875D01*
X158566693Y-98209465D01*
X158535450Y-98211000D01*
X157897950Y-98211000D01*
X157866707Y-98209465D01*
X157835765Y-98204875D01*
X157805422Y-98197275D01*
X157775970Y-98186737D01*
X157747692Y-98173362D01*
X157720862Y-98157281D01*
X157695737Y-98138647D01*
X157672560Y-98117640D01*
X157651553Y-98094463D01*
X157632919Y-98069338D01*
X157616838Y-98042508D01*
X157603463Y-98014230D01*
X157592925Y-97984778D01*
X157585325Y-97954435D01*
X157580735Y-97923493D01*
X157579200Y-97892250D01*
X157579200Y-97179750D01*
X157580735Y-97148507D01*
X157585325Y-97117565D01*
X157592925Y-97087222D01*
X157603463Y-97057770D01*
X157616838Y-97029492D01*
X157632919Y-97002662D01*
X157651553Y-96977537D01*
X157672560Y-96954360D01*
X157695737Y-96933353D01*
X157720862Y-96914719D01*
X157747692Y-96898638D01*
X157775970Y-96885263D01*
X157805422Y-96874725D01*
X157835765Y-96867125D01*
X157866707Y-96862535D01*
X157897950Y-96861000D01*
X158535450Y-96861000D01*
X158566693Y-96862535D01*
X158566693Y-96862535D01*
G37*
D13*
X158216700Y-97536000D03*
G04 #@! TD*
D12*
G04 #@! TO.C,C2*
G36*
X157842793Y-88531335D02*
X157873735Y-88535925D01*
X157904078Y-88543525D01*
X157933530Y-88554063D01*
X157961808Y-88567438D01*
X157988638Y-88583519D01*
X158013763Y-88602153D01*
X158036940Y-88623160D01*
X158057947Y-88646337D01*
X158076581Y-88671462D01*
X158092662Y-88698292D01*
X158106037Y-88726570D01*
X158116575Y-88756022D01*
X158124175Y-88786365D01*
X158128765Y-88817307D01*
X158130300Y-88848550D01*
X158130300Y-89561050D01*
X158128765Y-89592293D01*
X158124175Y-89623235D01*
X158116575Y-89653578D01*
X158106037Y-89683030D01*
X158092662Y-89711308D01*
X158076581Y-89738138D01*
X158057947Y-89763263D01*
X158036940Y-89786440D01*
X158013763Y-89807447D01*
X157988638Y-89826081D01*
X157961808Y-89842162D01*
X157933530Y-89855537D01*
X157904078Y-89866075D01*
X157873735Y-89873675D01*
X157842793Y-89878265D01*
X157811550Y-89879800D01*
X157174050Y-89879800D01*
X157142807Y-89878265D01*
X157111865Y-89873675D01*
X157081522Y-89866075D01*
X157052070Y-89855537D01*
X157023792Y-89842162D01*
X156996962Y-89826081D01*
X156971837Y-89807447D01*
X156948660Y-89786440D01*
X156927653Y-89763263D01*
X156909019Y-89738138D01*
X156892938Y-89711308D01*
X156879563Y-89683030D01*
X156869025Y-89653578D01*
X156861425Y-89623235D01*
X156856835Y-89592293D01*
X156855300Y-89561050D01*
X156855300Y-88848550D01*
X156856835Y-88817307D01*
X156861425Y-88786365D01*
X156869025Y-88756022D01*
X156879563Y-88726570D01*
X156892938Y-88698292D01*
X156909019Y-88671462D01*
X156927653Y-88646337D01*
X156948660Y-88623160D01*
X156971837Y-88602153D01*
X156996962Y-88583519D01*
X157023792Y-88567438D01*
X157052070Y-88554063D01*
X157081522Y-88543525D01*
X157111865Y-88535925D01*
X157142807Y-88531335D01*
X157174050Y-88529800D01*
X157811550Y-88529800D01*
X157842793Y-88531335D01*
X157842793Y-88531335D01*
G37*
D13*
X157492800Y-89204800D03*
D12*
G36*
X156267793Y-88531335D02*
X156298735Y-88535925D01*
X156329078Y-88543525D01*
X156358530Y-88554063D01*
X156386808Y-88567438D01*
X156413638Y-88583519D01*
X156438763Y-88602153D01*
X156461940Y-88623160D01*
X156482947Y-88646337D01*
X156501581Y-88671462D01*
X156517662Y-88698292D01*
X156531037Y-88726570D01*
X156541575Y-88756022D01*
X156549175Y-88786365D01*
X156553765Y-88817307D01*
X156555300Y-88848550D01*
X156555300Y-89561050D01*
X156553765Y-89592293D01*
X156549175Y-89623235D01*
X156541575Y-89653578D01*
X156531037Y-89683030D01*
X156517662Y-89711308D01*
X156501581Y-89738138D01*
X156482947Y-89763263D01*
X156461940Y-89786440D01*
X156438763Y-89807447D01*
X156413638Y-89826081D01*
X156386808Y-89842162D01*
X156358530Y-89855537D01*
X156329078Y-89866075D01*
X156298735Y-89873675D01*
X156267793Y-89878265D01*
X156236550Y-89879800D01*
X155599050Y-89879800D01*
X155567807Y-89878265D01*
X155536865Y-89873675D01*
X155506522Y-89866075D01*
X155477070Y-89855537D01*
X155448792Y-89842162D01*
X155421962Y-89826081D01*
X155396837Y-89807447D01*
X155373660Y-89786440D01*
X155352653Y-89763263D01*
X155334019Y-89738138D01*
X155317938Y-89711308D01*
X155304563Y-89683030D01*
X155294025Y-89653578D01*
X155286425Y-89623235D01*
X155281835Y-89592293D01*
X155280300Y-89561050D01*
X155280300Y-88848550D01*
X155281835Y-88817307D01*
X155286425Y-88786365D01*
X155294025Y-88756022D01*
X155304563Y-88726570D01*
X155317938Y-88698292D01*
X155334019Y-88671462D01*
X155352653Y-88646337D01*
X155373660Y-88623160D01*
X155396837Y-88602153D01*
X155421962Y-88583519D01*
X155448792Y-88567438D01*
X155477070Y-88554063D01*
X155506522Y-88543525D01*
X155536865Y-88535925D01*
X155567807Y-88531335D01*
X155599050Y-88529800D01*
X156236550Y-88529800D01*
X156267793Y-88531335D01*
X156267793Y-88531335D01*
G37*
D13*
X155917800Y-89204800D03*
G04 #@! TD*
D12*
G04 #@! TO.C,C4*
G36*
X153384393Y-95909335D02*
X153415335Y-95913925D01*
X153445678Y-95921525D01*
X153475130Y-95932063D01*
X153503408Y-95945438D01*
X153530238Y-95961519D01*
X153555363Y-95980153D01*
X153578540Y-96001160D01*
X153599547Y-96024337D01*
X153618181Y-96049462D01*
X153634262Y-96076292D01*
X153647637Y-96104570D01*
X153658175Y-96134022D01*
X153665775Y-96164365D01*
X153670365Y-96195307D01*
X153671900Y-96226550D01*
X153671900Y-96864050D01*
X153670365Y-96895293D01*
X153665775Y-96926235D01*
X153658175Y-96956578D01*
X153647637Y-96986030D01*
X153634262Y-97014308D01*
X153618181Y-97041138D01*
X153599547Y-97066263D01*
X153578540Y-97089440D01*
X153555363Y-97110447D01*
X153530238Y-97129081D01*
X153503408Y-97145162D01*
X153475130Y-97158537D01*
X153445678Y-97169075D01*
X153415335Y-97176675D01*
X153384393Y-97181265D01*
X153353150Y-97182800D01*
X152640650Y-97182800D01*
X152609407Y-97181265D01*
X152578465Y-97176675D01*
X152548122Y-97169075D01*
X152518670Y-97158537D01*
X152490392Y-97145162D01*
X152463562Y-97129081D01*
X152438437Y-97110447D01*
X152415260Y-97089440D01*
X152394253Y-97066263D01*
X152375619Y-97041138D01*
X152359538Y-97014308D01*
X152346163Y-96986030D01*
X152335625Y-96956578D01*
X152328025Y-96926235D01*
X152323435Y-96895293D01*
X152321900Y-96864050D01*
X152321900Y-96226550D01*
X152323435Y-96195307D01*
X152328025Y-96164365D01*
X152335625Y-96134022D01*
X152346163Y-96104570D01*
X152359538Y-96076292D01*
X152375619Y-96049462D01*
X152394253Y-96024337D01*
X152415260Y-96001160D01*
X152438437Y-95980153D01*
X152463562Y-95961519D01*
X152490392Y-95945438D01*
X152518670Y-95932063D01*
X152548122Y-95921525D01*
X152578465Y-95913925D01*
X152609407Y-95909335D01*
X152640650Y-95907800D01*
X153353150Y-95907800D01*
X153384393Y-95909335D01*
X153384393Y-95909335D01*
G37*
D13*
X152996900Y-96545300D03*
D12*
G36*
X153384393Y-97484335D02*
X153415335Y-97488925D01*
X153445678Y-97496525D01*
X153475130Y-97507063D01*
X153503408Y-97520438D01*
X153530238Y-97536519D01*
X153555363Y-97555153D01*
X153578540Y-97576160D01*
X153599547Y-97599337D01*
X153618181Y-97624462D01*
X153634262Y-97651292D01*
X153647637Y-97679570D01*
X153658175Y-97709022D01*
X153665775Y-97739365D01*
X153670365Y-97770307D01*
X153671900Y-97801550D01*
X153671900Y-98439050D01*
X153670365Y-98470293D01*
X153665775Y-98501235D01*
X153658175Y-98531578D01*
X153647637Y-98561030D01*
X153634262Y-98589308D01*
X153618181Y-98616138D01*
X153599547Y-98641263D01*
X153578540Y-98664440D01*
X153555363Y-98685447D01*
X153530238Y-98704081D01*
X153503408Y-98720162D01*
X153475130Y-98733537D01*
X153445678Y-98744075D01*
X153415335Y-98751675D01*
X153384393Y-98756265D01*
X153353150Y-98757800D01*
X152640650Y-98757800D01*
X152609407Y-98756265D01*
X152578465Y-98751675D01*
X152548122Y-98744075D01*
X152518670Y-98733537D01*
X152490392Y-98720162D01*
X152463562Y-98704081D01*
X152438437Y-98685447D01*
X152415260Y-98664440D01*
X152394253Y-98641263D01*
X152375619Y-98616138D01*
X152359538Y-98589308D01*
X152346163Y-98561030D01*
X152335625Y-98531578D01*
X152328025Y-98501235D01*
X152323435Y-98470293D01*
X152321900Y-98439050D01*
X152321900Y-97801550D01*
X152323435Y-97770307D01*
X152328025Y-97739365D01*
X152335625Y-97709022D01*
X152346163Y-97679570D01*
X152359538Y-97651292D01*
X152375619Y-97624462D01*
X152394253Y-97599337D01*
X152415260Y-97576160D01*
X152438437Y-97555153D01*
X152463562Y-97536519D01*
X152490392Y-97520438D01*
X152518670Y-97507063D01*
X152548122Y-97496525D01*
X152578465Y-97488925D01*
X152609407Y-97484335D01*
X152640650Y-97482800D01*
X153353150Y-97482800D01*
X153384393Y-97484335D01*
X153384393Y-97484335D01*
G37*
D13*
X152996900Y-98120300D03*
G04 #@! TD*
D12*
G04 #@! TO.C,C5*
G36*
X140405693Y-95097235D02*
X140436635Y-95101825D01*
X140466978Y-95109425D01*
X140496430Y-95119963D01*
X140524708Y-95133338D01*
X140551538Y-95149419D01*
X140576663Y-95168053D01*
X140599840Y-95189060D01*
X140620847Y-95212237D01*
X140639481Y-95237362D01*
X140655562Y-95264192D01*
X140668937Y-95292470D01*
X140679475Y-95321922D01*
X140687075Y-95352265D01*
X140691665Y-95383207D01*
X140693200Y-95414450D01*
X140693200Y-96126950D01*
X140691665Y-96158193D01*
X140687075Y-96189135D01*
X140679475Y-96219478D01*
X140668937Y-96248930D01*
X140655562Y-96277208D01*
X140639481Y-96304038D01*
X140620847Y-96329163D01*
X140599840Y-96352340D01*
X140576663Y-96373347D01*
X140551538Y-96391981D01*
X140524708Y-96408062D01*
X140496430Y-96421437D01*
X140466978Y-96431975D01*
X140436635Y-96439575D01*
X140405693Y-96444165D01*
X140374450Y-96445700D01*
X139736950Y-96445700D01*
X139705707Y-96444165D01*
X139674765Y-96439575D01*
X139644422Y-96431975D01*
X139614970Y-96421437D01*
X139586692Y-96408062D01*
X139559862Y-96391981D01*
X139534737Y-96373347D01*
X139511560Y-96352340D01*
X139490553Y-96329163D01*
X139471919Y-96304038D01*
X139455838Y-96277208D01*
X139442463Y-96248930D01*
X139431925Y-96219478D01*
X139424325Y-96189135D01*
X139419735Y-96158193D01*
X139418200Y-96126950D01*
X139418200Y-95414450D01*
X139419735Y-95383207D01*
X139424325Y-95352265D01*
X139431925Y-95321922D01*
X139442463Y-95292470D01*
X139455838Y-95264192D01*
X139471919Y-95237362D01*
X139490553Y-95212237D01*
X139511560Y-95189060D01*
X139534737Y-95168053D01*
X139559862Y-95149419D01*
X139586692Y-95133338D01*
X139614970Y-95119963D01*
X139644422Y-95109425D01*
X139674765Y-95101825D01*
X139705707Y-95097235D01*
X139736950Y-95095700D01*
X140374450Y-95095700D01*
X140405693Y-95097235D01*
X140405693Y-95097235D01*
G37*
D13*
X140055700Y-95770700D03*
D12*
G36*
X138830693Y-95097235D02*
X138861635Y-95101825D01*
X138891978Y-95109425D01*
X138921430Y-95119963D01*
X138949708Y-95133338D01*
X138976538Y-95149419D01*
X139001663Y-95168053D01*
X139024840Y-95189060D01*
X139045847Y-95212237D01*
X139064481Y-95237362D01*
X139080562Y-95264192D01*
X139093937Y-95292470D01*
X139104475Y-95321922D01*
X139112075Y-95352265D01*
X139116665Y-95383207D01*
X139118200Y-95414450D01*
X139118200Y-96126950D01*
X139116665Y-96158193D01*
X139112075Y-96189135D01*
X139104475Y-96219478D01*
X139093937Y-96248930D01*
X139080562Y-96277208D01*
X139064481Y-96304038D01*
X139045847Y-96329163D01*
X139024840Y-96352340D01*
X139001663Y-96373347D01*
X138976538Y-96391981D01*
X138949708Y-96408062D01*
X138921430Y-96421437D01*
X138891978Y-96431975D01*
X138861635Y-96439575D01*
X138830693Y-96444165D01*
X138799450Y-96445700D01*
X138161950Y-96445700D01*
X138130707Y-96444165D01*
X138099765Y-96439575D01*
X138069422Y-96431975D01*
X138039970Y-96421437D01*
X138011692Y-96408062D01*
X137984862Y-96391981D01*
X137959737Y-96373347D01*
X137936560Y-96352340D01*
X137915553Y-96329163D01*
X137896919Y-96304038D01*
X137880838Y-96277208D01*
X137867463Y-96248930D01*
X137856925Y-96219478D01*
X137849325Y-96189135D01*
X137844735Y-96158193D01*
X137843200Y-96126950D01*
X137843200Y-95414450D01*
X137844735Y-95383207D01*
X137849325Y-95352265D01*
X137856925Y-95321922D01*
X137867463Y-95292470D01*
X137880838Y-95264192D01*
X137896919Y-95237362D01*
X137915553Y-95212237D01*
X137936560Y-95189060D01*
X137959737Y-95168053D01*
X137984862Y-95149419D01*
X138011692Y-95133338D01*
X138039970Y-95119963D01*
X138069422Y-95109425D01*
X138099765Y-95101825D01*
X138130707Y-95097235D01*
X138161950Y-95095700D01*
X138799450Y-95095700D01*
X138830693Y-95097235D01*
X138830693Y-95097235D01*
G37*
D13*
X138480700Y-95770700D03*
G04 #@! TD*
D12*
G04 #@! TO.C,C6*
G36*
X140404993Y-98309835D02*
X140435935Y-98314425D01*
X140466278Y-98322025D01*
X140495730Y-98332563D01*
X140524008Y-98345938D01*
X140550838Y-98362019D01*
X140575963Y-98380653D01*
X140599140Y-98401660D01*
X140620147Y-98424837D01*
X140638781Y-98449962D01*
X140654862Y-98476792D01*
X140668237Y-98505070D01*
X140678775Y-98534522D01*
X140686375Y-98564865D01*
X140690965Y-98595807D01*
X140692500Y-98627050D01*
X140692500Y-99264550D01*
X140690965Y-99295793D01*
X140686375Y-99326735D01*
X140678775Y-99357078D01*
X140668237Y-99386530D01*
X140654862Y-99414808D01*
X140638781Y-99441638D01*
X140620147Y-99466763D01*
X140599140Y-99489940D01*
X140575963Y-99510947D01*
X140550838Y-99529581D01*
X140524008Y-99545662D01*
X140495730Y-99559037D01*
X140466278Y-99569575D01*
X140435935Y-99577175D01*
X140404993Y-99581765D01*
X140373750Y-99583300D01*
X139661250Y-99583300D01*
X139630007Y-99581765D01*
X139599065Y-99577175D01*
X139568722Y-99569575D01*
X139539270Y-99559037D01*
X139510992Y-99545662D01*
X139484162Y-99529581D01*
X139459037Y-99510947D01*
X139435860Y-99489940D01*
X139414853Y-99466763D01*
X139396219Y-99441638D01*
X139380138Y-99414808D01*
X139366763Y-99386530D01*
X139356225Y-99357078D01*
X139348625Y-99326735D01*
X139344035Y-99295793D01*
X139342500Y-99264550D01*
X139342500Y-98627050D01*
X139344035Y-98595807D01*
X139348625Y-98564865D01*
X139356225Y-98534522D01*
X139366763Y-98505070D01*
X139380138Y-98476792D01*
X139396219Y-98449962D01*
X139414853Y-98424837D01*
X139435860Y-98401660D01*
X139459037Y-98380653D01*
X139484162Y-98362019D01*
X139510992Y-98345938D01*
X139539270Y-98332563D01*
X139568722Y-98322025D01*
X139599065Y-98314425D01*
X139630007Y-98309835D01*
X139661250Y-98308300D01*
X140373750Y-98308300D01*
X140404993Y-98309835D01*
X140404993Y-98309835D01*
G37*
D13*
X140017500Y-98945800D03*
D12*
G36*
X140404993Y-96734835D02*
X140435935Y-96739425D01*
X140466278Y-96747025D01*
X140495730Y-96757563D01*
X140524008Y-96770938D01*
X140550838Y-96787019D01*
X140575963Y-96805653D01*
X140599140Y-96826660D01*
X140620147Y-96849837D01*
X140638781Y-96874962D01*
X140654862Y-96901792D01*
X140668237Y-96930070D01*
X140678775Y-96959522D01*
X140686375Y-96989865D01*
X140690965Y-97020807D01*
X140692500Y-97052050D01*
X140692500Y-97689550D01*
X140690965Y-97720793D01*
X140686375Y-97751735D01*
X140678775Y-97782078D01*
X140668237Y-97811530D01*
X140654862Y-97839808D01*
X140638781Y-97866638D01*
X140620147Y-97891763D01*
X140599140Y-97914940D01*
X140575963Y-97935947D01*
X140550838Y-97954581D01*
X140524008Y-97970662D01*
X140495730Y-97984037D01*
X140466278Y-97994575D01*
X140435935Y-98002175D01*
X140404993Y-98006765D01*
X140373750Y-98008300D01*
X139661250Y-98008300D01*
X139630007Y-98006765D01*
X139599065Y-98002175D01*
X139568722Y-97994575D01*
X139539270Y-97984037D01*
X139510992Y-97970662D01*
X139484162Y-97954581D01*
X139459037Y-97935947D01*
X139435860Y-97914940D01*
X139414853Y-97891763D01*
X139396219Y-97866638D01*
X139380138Y-97839808D01*
X139366763Y-97811530D01*
X139356225Y-97782078D01*
X139348625Y-97751735D01*
X139344035Y-97720793D01*
X139342500Y-97689550D01*
X139342500Y-97052050D01*
X139344035Y-97020807D01*
X139348625Y-96989865D01*
X139356225Y-96959522D01*
X139366763Y-96930070D01*
X139380138Y-96901792D01*
X139396219Y-96874962D01*
X139414853Y-96849837D01*
X139435860Y-96826660D01*
X139459037Y-96805653D01*
X139484162Y-96787019D01*
X139510992Y-96770938D01*
X139539270Y-96757563D01*
X139568722Y-96747025D01*
X139599065Y-96739425D01*
X139630007Y-96734835D01*
X139661250Y-96733300D01*
X140373750Y-96733300D01*
X140404993Y-96734835D01*
X140404993Y-96734835D01*
G37*
D13*
X140017500Y-97370800D03*
G04 #@! TD*
D10*
G04 #@! TO.C,D1*
X127900000Y-88475000D03*
X126100000Y-88475000D03*
X126100000Y-87525000D03*
X127900000Y-87525000D03*
G04 #@! TD*
D14*
G04 #@! TO.C,D3*
X163639500Y-92401900D03*
X162689500Y-90401900D03*
X164589500Y-90401900D03*
G04 #@! TD*
G04 #@! TO.C,D4*
X162626000Y-105076500D03*
X164526000Y-105076500D03*
X163576000Y-103076500D03*
G04 #@! TD*
D15*
G04 #@! TO.C,J1*
X168201600Y-96750000D03*
X168201600Y-98750000D03*
X168201600Y-94250000D03*
X168201600Y-101250000D03*
D16*
X170951600Y-92050000D03*
X170951600Y-103450000D03*
D17*
X170951600Y-95450000D03*
X170951600Y-100050000D03*
G04 #@! TD*
D18*
G04 #@! TO.C,J2*
X160000000Y-108250000D03*
D19*
X157460000Y-108250000D03*
X154920000Y-108250000D03*
X152380000Y-108250000D03*
X149840000Y-108250000D03*
X147300000Y-108250000D03*
X144760000Y-108250000D03*
X142220000Y-108250000D03*
G04 #@! TD*
D20*
G04 #@! TO.C,J3*
X117753400Y-91400000D03*
X117753400Y-93940000D03*
X117753400Y-96480000D03*
X117753400Y-99020000D03*
X117753400Y-101560000D03*
X117753400Y-104100000D03*
G04 #@! TD*
D12*
G04 #@! TO.C,R1*
G36*
X130863293Y-86498235D02*
X130894235Y-86502825D01*
X130924578Y-86510425D01*
X130954030Y-86520963D01*
X130982308Y-86534338D01*
X131009138Y-86550419D01*
X131034263Y-86569053D01*
X131057440Y-86590060D01*
X131078447Y-86613237D01*
X131097081Y-86638362D01*
X131113162Y-86665192D01*
X131126537Y-86693470D01*
X131137075Y-86722922D01*
X131144675Y-86753265D01*
X131149265Y-86784207D01*
X131150800Y-86815450D01*
X131150800Y-87527950D01*
X131149265Y-87559193D01*
X131144675Y-87590135D01*
X131137075Y-87620478D01*
X131126537Y-87649930D01*
X131113162Y-87678208D01*
X131097081Y-87705038D01*
X131078447Y-87730163D01*
X131057440Y-87753340D01*
X131034263Y-87774347D01*
X131009138Y-87792981D01*
X130982308Y-87809062D01*
X130954030Y-87822437D01*
X130924578Y-87832975D01*
X130894235Y-87840575D01*
X130863293Y-87845165D01*
X130832050Y-87846700D01*
X130194550Y-87846700D01*
X130163307Y-87845165D01*
X130132365Y-87840575D01*
X130102022Y-87832975D01*
X130072570Y-87822437D01*
X130044292Y-87809062D01*
X130017462Y-87792981D01*
X129992337Y-87774347D01*
X129969160Y-87753340D01*
X129948153Y-87730163D01*
X129929519Y-87705038D01*
X129913438Y-87678208D01*
X129900063Y-87649930D01*
X129889525Y-87620478D01*
X129881925Y-87590135D01*
X129877335Y-87559193D01*
X129875800Y-87527950D01*
X129875800Y-86815450D01*
X129877335Y-86784207D01*
X129881925Y-86753265D01*
X129889525Y-86722922D01*
X129900063Y-86693470D01*
X129913438Y-86665192D01*
X129929519Y-86638362D01*
X129948153Y-86613237D01*
X129969160Y-86590060D01*
X129992337Y-86569053D01*
X130017462Y-86550419D01*
X130044292Y-86534338D01*
X130072570Y-86520963D01*
X130102022Y-86510425D01*
X130132365Y-86502825D01*
X130163307Y-86498235D01*
X130194550Y-86496700D01*
X130832050Y-86496700D01*
X130863293Y-86498235D01*
X130863293Y-86498235D01*
G37*
D13*
X130513300Y-87171700D03*
D12*
G36*
X132438293Y-86498235D02*
X132469235Y-86502825D01*
X132499578Y-86510425D01*
X132529030Y-86520963D01*
X132557308Y-86534338D01*
X132584138Y-86550419D01*
X132609263Y-86569053D01*
X132632440Y-86590060D01*
X132653447Y-86613237D01*
X132672081Y-86638362D01*
X132688162Y-86665192D01*
X132701537Y-86693470D01*
X132712075Y-86722922D01*
X132719675Y-86753265D01*
X132724265Y-86784207D01*
X132725800Y-86815450D01*
X132725800Y-87527950D01*
X132724265Y-87559193D01*
X132719675Y-87590135D01*
X132712075Y-87620478D01*
X132701537Y-87649930D01*
X132688162Y-87678208D01*
X132672081Y-87705038D01*
X132653447Y-87730163D01*
X132632440Y-87753340D01*
X132609263Y-87774347D01*
X132584138Y-87792981D01*
X132557308Y-87809062D01*
X132529030Y-87822437D01*
X132499578Y-87832975D01*
X132469235Y-87840575D01*
X132438293Y-87845165D01*
X132407050Y-87846700D01*
X131769550Y-87846700D01*
X131738307Y-87845165D01*
X131707365Y-87840575D01*
X131677022Y-87832975D01*
X131647570Y-87822437D01*
X131619292Y-87809062D01*
X131592462Y-87792981D01*
X131567337Y-87774347D01*
X131544160Y-87753340D01*
X131523153Y-87730163D01*
X131504519Y-87705038D01*
X131488438Y-87678208D01*
X131475063Y-87649930D01*
X131464525Y-87620478D01*
X131456925Y-87590135D01*
X131452335Y-87559193D01*
X131450800Y-87527950D01*
X131450800Y-86815450D01*
X131452335Y-86784207D01*
X131456925Y-86753265D01*
X131464525Y-86722922D01*
X131475063Y-86693470D01*
X131488438Y-86665192D01*
X131504519Y-86638362D01*
X131523153Y-86613237D01*
X131544160Y-86590060D01*
X131567337Y-86569053D01*
X131592462Y-86550419D01*
X131619292Y-86534338D01*
X131647570Y-86520963D01*
X131677022Y-86510425D01*
X131707365Y-86502825D01*
X131738307Y-86498235D01*
X131769550Y-86496700D01*
X132407050Y-86496700D01*
X132438293Y-86498235D01*
X132438293Y-86498235D01*
G37*
D13*
X132088300Y-87171700D03*
G04 #@! TD*
D12*
G04 #@! TO.C,R2*
G36*
X132438293Y-88073035D02*
X132469235Y-88077625D01*
X132499578Y-88085225D01*
X132529030Y-88095763D01*
X132557308Y-88109138D01*
X132584138Y-88125219D01*
X132609263Y-88143853D01*
X132632440Y-88164860D01*
X132653447Y-88188037D01*
X132672081Y-88213162D01*
X132688162Y-88239992D01*
X132701537Y-88268270D01*
X132712075Y-88297722D01*
X132719675Y-88328065D01*
X132724265Y-88359007D01*
X132725800Y-88390250D01*
X132725800Y-89102750D01*
X132724265Y-89133993D01*
X132719675Y-89164935D01*
X132712075Y-89195278D01*
X132701537Y-89224730D01*
X132688162Y-89253008D01*
X132672081Y-89279838D01*
X132653447Y-89304963D01*
X132632440Y-89328140D01*
X132609263Y-89349147D01*
X132584138Y-89367781D01*
X132557308Y-89383862D01*
X132529030Y-89397237D01*
X132499578Y-89407775D01*
X132469235Y-89415375D01*
X132438293Y-89419965D01*
X132407050Y-89421500D01*
X131769550Y-89421500D01*
X131738307Y-89419965D01*
X131707365Y-89415375D01*
X131677022Y-89407775D01*
X131647570Y-89397237D01*
X131619292Y-89383862D01*
X131592462Y-89367781D01*
X131567337Y-89349147D01*
X131544160Y-89328140D01*
X131523153Y-89304963D01*
X131504519Y-89279838D01*
X131488438Y-89253008D01*
X131475063Y-89224730D01*
X131464525Y-89195278D01*
X131456925Y-89164935D01*
X131452335Y-89133993D01*
X131450800Y-89102750D01*
X131450800Y-88390250D01*
X131452335Y-88359007D01*
X131456925Y-88328065D01*
X131464525Y-88297722D01*
X131475063Y-88268270D01*
X131488438Y-88239992D01*
X131504519Y-88213162D01*
X131523153Y-88188037D01*
X131544160Y-88164860D01*
X131567337Y-88143853D01*
X131592462Y-88125219D01*
X131619292Y-88109138D01*
X131647570Y-88095763D01*
X131677022Y-88085225D01*
X131707365Y-88077625D01*
X131738307Y-88073035D01*
X131769550Y-88071500D01*
X132407050Y-88071500D01*
X132438293Y-88073035D01*
X132438293Y-88073035D01*
G37*
D13*
X132088300Y-88746500D03*
D12*
G36*
X130863293Y-88073035D02*
X130894235Y-88077625D01*
X130924578Y-88085225D01*
X130954030Y-88095763D01*
X130982308Y-88109138D01*
X131009138Y-88125219D01*
X131034263Y-88143853D01*
X131057440Y-88164860D01*
X131078447Y-88188037D01*
X131097081Y-88213162D01*
X131113162Y-88239992D01*
X131126537Y-88268270D01*
X131137075Y-88297722D01*
X131144675Y-88328065D01*
X131149265Y-88359007D01*
X131150800Y-88390250D01*
X131150800Y-89102750D01*
X131149265Y-89133993D01*
X131144675Y-89164935D01*
X131137075Y-89195278D01*
X131126537Y-89224730D01*
X131113162Y-89253008D01*
X131097081Y-89279838D01*
X131078447Y-89304963D01*
X131057440Y-89328140D01*
X131034263Y-89349147D01*
X131009138Y-89367781D01*
X130982308Y-89383862D01*
X130954030Y-89397237D01*
X130924578Y-89407775D01*
X130894235Y-89415375D01*
X130863293Y-89419965D01*
X130832050Y-89421500D01*
X130194550Y-89421500D01*
X130163307Y-89419965D01*
X130132365Y-89415375D01*
X130102022Y-89407775D01*
X130072570Y-89397237D01*
X130044292Y-89383862D01*
X130017462Y-89367781D01*
X129992337Y-89349147D01*
X129969160Y-89328140D01*
X129948153Y-89304963D01*
X129929519Y-89279838D01*
X129913438Y-89253008D01*
X129900063Y-89224730D01*
X129889525Y-89195278D01*
X129881925Y-89164935D01*
X129877335Y-89133993D01*
X129875800Y-89102750D01*
X129875800Y-88390250D01*
X129877335Y-88359007D01*
X129881925Y-88328065D01*
X129889525Y-88297722D01*
X129900063Y-88268270D01*
X129913438Y-88239992D01*
X129929519Y-88213162D01*
X129948153Y-88188037D01*
X129969160Y-88164860D01*
X129992337Y-88143853D01*
X130017462Y-88125219D01*
X130044292Y-88109138D01*
X130072570Y-88095763D01*
X130102022Y-88085225D01*
X130132365Y-88077625D01*
X130163307Y-88073035D01*
X130194550Y-88071500D01*
X130832050Y-88071500D01*
X130863293Y-88073035D01*
X130863293Y-88073035D01*
G37*
D13*
X130513300Y-88746500D03*
G04 #@! TD*
D12*
G04 #@! TO.C,R3*
G36*
X132387493Y-106064535D02*
X132418435Y-106069125D01*
X132448778Y-106076725D01*
X132478230Y-106087263D01*
X132506508Y-106100638D01*
X132533338Y-106116719D01*
X132558463Y-106135353D01*
X132581640Y-106156360D01*
X132602647Y-106179537D01*
X132621281Y-106204662D01*
X132637362Y-106231492D01*
X132650737Y-106259770D01*
X132661275Y-106289222D01*
X132668875Y-106319565D01*
X132673465Y-106350507D01*
X132675000Y-106381750D01*
X132675000Y-107094250D01*
X132673465Y-107125493D01*
X132668875Y-107156435D01*
X132661275Y-107186778D01*
X132650737Y-107216230D01*
X132637362Y-107244508D01*
X132621281Y-107271338D01*
X132602647Y-107296463D01*
X132581640Y-107319640D01*
X132558463Y-107340647D01*
X132533338Y-107359281D01*
X132506508Y-107375362D01*
X132478230Y-107388737D01*
X132448778Y-107399275D01*
X132418435Y-107406875D01*
X132387493Y-107411465D01*
X132356250Y-107413000D01*
X131718750Y-107413000D01*
X131687507Y-107411465D01*
X131656565Y-107406875D01*
X131626222Y-107399275D01*
X131596770Y-107388737D01*
X131568492Y-107375362D01*
X131541662Y-107359281D01*
X131516537Y-107340647D01*
X131493360Y-107319640D01*
X131472353Y-107296463D01*
X131453719Y-107271338D01*
X131437638Y-107244508D01*
X131424263Y-107216230D01*
X131413725Y-107186778D01*
X131406125Y-107156435D01*
X131401535Y-107125493D01*
X131400000Y-107094250D01*
X131400000Y-106381750D01*
X131401535Y-106350507D01*
X131406125Y-106319565D01*
X131413725Y-106289222D01*
X131424263Y-106259770D01*
X131437638Y-106231492D01*
X131453719Y-106204662D01*
X131472353Y-106179537D01*
X131493360Y-106156360D01*
X131516537Y-106135353D01*
X131541662Y-106116719D01*
X131568492Y-106100638D01*
X131596770Y-106087263D01*
X131626222Y-106076725D01*
X131656565Y-106069125D01*
X131687507Y-106064535D01*
X131718750Y-106063000D01*
X132356250Y-106063000D01*
X132387493Y-106064535D01*
X132387493Y-106064535D01*
G37*
D13*
X132037500Y-106738000D03*
D12*
G36*
X130812493Y-106064535D02*
X130843435Y-106069125D01*
X130873778Y-106076725D01*
X130903230Y-106087263D01*
X130931508Y-106100638D01*
X130958338Y-106116719D01*
X130983463Y-106135353D01*
X131006640Y-106156360D01*
X131027647Y-106179537D01*
X131046281Y-106204662D01*
X131062362Y-106231492D01*
X131075737Y-106259770D01*
X131086275Y-106289222D01*
X131093875Y-106319565D01*
X131098465Y-106350507D01*
X131100000Y-106381750D01*
X131100000Y-107094250D01*
X131098465Y-107125493D01*
X131093875Y-107156435D01*
X131086275Y-107186778D01*
X131075737Y-107216230D01*
X131062362Y-107244508D01*
X131046281Y-107271338D01*
X131027647Y-107296463D01*
X131006640Y-107319640D01*
X130983463Y-107340647D01*
X130958338Y-107359281D01*
X130931508Y-107375362D01*
X130903230Y-107388737D01*
X130873778Y-107399275D01*
X130843435Y-107406875D01*
X130812493Y-107411465D01*
X130781250Y-107413000D01*
X130143750Y-107413000D01*
X130112507Y-107411465D01*
X130081565Y-107406875D01*
X130051222Y-107399275D01*
X130021770Y-107388737D01*
X129993492Y-107375362D01*
X129966662Y-107359281D01*
X129941537Y-107340647D01*
X129918360Y-107319640D01*
X129897353Y-107296463D01*
X129878719Y-107271338D01*
X129862638Y-107244508D01*
X129849263Y-107216230D01*
X129838725Y-107186778D01*
X129831125Y-107156435D01*
X129826535Y-107125493D01*
X129825000Y-107094250D01*
X129825000Y-106381750D01*
X129826535Y-106350507D01*
X129831125Y-106319565D01*
X129838725Y-106289222D01*
X129849263Y-106259770D01*
X129862638Y-106231492D01*
X129878719Y-106204662D01*
X129897353Y-106179537D01*
X129918360Y-106156360D01*
X129941537Y-106135353D01*
X129966662Y-106116719D01*
X129993492Y-106100638D01*
X130021770Y-106087263D01*
X130051222Y-106076725D01*
X130081565Y-106069125D01*
X130112507Y-106064535D01*
X130143750Y-106063000D01*
X130781250Y-106063000D01*
X130812493Y-106064535D01*
X130812493Y-106064535D01*
G37*
D13*
X130462500Y-106738000D03*
G04 #@! TD*
D12*
G04 #@! TO.C,R4*
G36*
X132387493Y-107652035D02*
X132418435Y-107656625D01*
X132448778Y-107664225D01*
X132478230Y-107674763D01*
X132506508Y-107688138D01*
X132533338Y-107704219D01*
X132558463Y-107722853D01*
X132581640Y-107743860D01*
X132602647Y-107767037D01*
X132621281Y-107792162D01*
X132637362Y-107818992D01*
X132650737Y-107847270D01*
X132661275Y-107876722D01*
X132668875Y-107907065D01*
X132673465Y-107938007D01*
X132675000Y-107969250D01*
X132675000Y-108681750D01*
X132673465Y-108712993D01*
X132668875Y-108743935D01*
X132661275Y-108774278D01*
X132650737Y-108803730D01*
X132637362Y-108832008D01*
X132621281Y-108858838D01*
X132602647Y-108883963D01*
X132581640Y-108907140D01*
X132558463Y-108928147D01*
X132533338Y-108946781D01*
X132506508Y-108962862D01*
X132478230Y-108976237D01*
X132448778Y-108986775D01*
X132418435Y-108994375D01*
X132387493Y-108998965D01*
X132356250Y-109000500D01*
X131718750Y-109000500D01*
X131687507Y-108998965D01*
X131656565Y-108994375D01*
X131626222Y-108986775D01*
X131596770Y-108976237D01*
X131568492Y-108962862D01*
X131541662Y-108946781D01*
X131516537Y-108928147D01*
X131493360Y-108907140D01*
X131472353Y-108883963D01*
X131453719Y-108858838D01*
X131437638Y-108832008D01*
X131424263Y-108803730D01*
X131413725Y-108774278D01*
X131406125Y-108743935D01*
X131401535Y-108712993D01*
X131400000Y-108681750D01*
X131400000Y-107969250D01*
X131401535Y-107938007D01*
X131406125Y-107907065D01*
X131413725Y-107876722D01*
X131424263Y-107847270D01*
X131437638Y-107818992D01*
X131453719Y-107792162D01*
X131472353Y-107767037D01*
X131493360Y-107743860D01*
X131516537Y-107722853D01*
X131541662Y-107704219D01*
X131568492Y-107688138D01*
X131596770Y-107674763D01*
X131626222Y-107664225D01*
X131656565Y-107656625D01*
X131687507Y-107652035D01*
X131718750Y-107650500D01*
X132356250Y-107650500D01*
X132387493Y-107652035D01*
X132387493Y-107652035D01*
G37*
D13*
X132037500Y-108325500D03*
D12*
G36*
X130812493Y-107652035D02*
X130843435Y-107656625D01*
X130873778Y-107664225D01*
X130903230Y-107674763D01*
X130931508Y-107688138D01*
X130958338Y-107704219D01*
X130983463Y-107722853D01*
X131006640Y-107743860D01*
X131027647Y-107767037D01*
X131046281Y-107792162D01*
X131062362Y-107818992D01*
X131075737Y-107847270D01*
X131086275Y-107876722D01*
X131093875Y-107907065D01*
X131098465Y-107938007D01*
X131100000Y-107969250D01*
X131100000Y-108681750D01*
X131098465Y-108712993D01*
X131093875Y-108743935D01*
X131086275Y-108774278D01*
X131075737Y-108803730D01*
X131062362Y-108832008D01*
X131046281Y-108858838D01*
X131027647Y-108883963D01*
X131006640Y-108907140D01*
X130983463Y-108928147D01*
X130958338Y-108946781D01*
X130931508Y-108962862D01*
X130903230Y-108976237D01*
X130873778Y-108986775D01*
X130843435Y-108994375D01*
X130812493Y-108998965D01*
X130781250Y-109000500D01*
X130143750Y-109000500D01*
X130112507Y-108998965D01*
X130081565Y-108994375D01*
X130051222Y-108986775D01*
X130021770Y-108976237D01*
X129993492Y-108962862D01*
X129966662Y-108946781D01*
X129941537Y-108928147D01*
X129918360Y-108907140D01*
X129897353Y-108883963D01*
X129878719Y-108858838D01*
X129862638Y-108832008D01*
X129849263Y-108803730D01*
X129838725Y-108774278D01*
X129831125Y-108743935D01*
X129826535Y-108712993D01*
X129825000Y-108681750D01*
X129825000Y-107969250D01*
X129826535Y-107938007D01*
X129831125Y-107907065D01*
X129838725Y-107876722D01*
X129849263Y-107847270D01*
X129862638Y-107818992D01*
X129878719Y-107792162D01*
X129897353Y-107767037D01*
X129918360Y-107743860D01*
X129941537Y-107722853D01*
X129966662Y-107704219D01*
X129993492Y-107688138D01*
X130021770Y-107674763D01*
X130051222Y-107664225D01*
X130081565Y-107656625D01*
X130112507Y-107652035D01*
X130143750Y-107650500D01*
X130781250Y-107650500D01*
X130812493Y-107652035D01*
X130812493Y-107652035D01*
G37*
D13*
X130462500Y-108325500D03*
G04 #@! TD*
D12*
G04 #@! TO.C,R5*
G36*
X164954793Y-98056335D02*
X164985735Y-98060925D01*
X165016078Y-98068525D01*
X165045530Y-98079063D01*
X165073808Y-98092438D01*
X165100638Y-98108519D01*
X165125763Y-98127153D01*
X165148940Y-98148160D01*
X165169947Y-98171337D01*
X165188581Y-98196462D01*
X165204662Y-98223292D01*
X165218037Y-98251570D01*
X165228575Y-98281022D01*
X165236175Y-98311365D01*
X165240765Y-98342307D01*
X165242300Y-98373550D01*
X165242300Y-99086050D01*
X165240765Y-99117293D01*
X165236175Y-99148235D01*
X165228575Y-99178578D01*
X165218037Y-99208030D01*
X165204662Y-99236308D01*
X165188581Y-99263138D01*
X165169947Y-99288263D01*
X165148940Y-99311440D01*
X165125763Y-99332447D01*
X165100638Y-99351081D01*
X165073808Y-99367162D01*
X165045530Y-99380537D01*
X165016078Y-99391075D01*
X164985735Y-99398675D01*
X164954793Y-99403265D01*
X164923550Y-99404800D01*
X164286050Y-99404800D01*
X164254807Y-99403265D01*
X164223865Y-99398675D01*
X164193522Y-99391075D01*
X164164070Y-99380537D01*
X164135792Y-99367162D01*
X164108962Y-99351081D01*
X164083837Y-99332447D01*
X164060660Y-99311440D01*
X164039653Y-99288263D01*
X164021019Y-99263138D01*
X164004938Y-99236308D01*
X163991563Y-99208030D01*
X163981025Y-99178578D01*
X163973425Y-99148235D01*
X163968835Y-99117293D01*
X163967300Y-99086050D01*
X163967300Y-98373550D01*
X163968835Y-98342307D01*
X163973425Y-98311365D01*
X163981025Y-98281022D01*
X163991563Y-98251570D01*
X164004938Y-98223292D01*
X164021019Y-98196462D01*
X164039653Y-98171337D01*
X164060660Y-98148160D01*
X164083837Y-98127153D01*
X164108962Y-98108519D01*
X164135792Y-98092438D01*
X164164070Y-98079063D01*
X164193522Y-98068525D01*
X164223865Y-98060925D01*
X164254807Y-98056335D01*
X164286050Y-98054800D01*
X164923550Y-98054800D01*
X164954793Y-98056335D01*
X164954793Y-98056335D01*
G37*
D13*
X164604800Y-98729800D03*
D12*
G36*
X163379793Y-98056335D02*
X163410735Y-98060925D01*
X163441078Y-98068525D01*
X163470530Y-98079063D01*
X163498808Y-98092438D01*
X163525638Y-98108519D01*
X163550763Y-98127153D01*
X163573940Y-98148160D01*
X163594947Y-98171337D01*
X163613581Y-98196462D01*
X163629662Y-98223292D01*
X163643037Y-98251570D01*
X163653575Y-98281022D01*
X163661175Y-98311365D01*
X163665765Y-98342307D01*
X163667300Y-98373550D01*
X163667300Y-99086050D01*
X163665765Y-99117293D01*
X163661175Y-99148235D01*
X163653575Y-99178578D01*
X163643037Y-99208030D01*
X163629662Y-99236308D01*
X163613581Y-99263138D01*
X163594947Y-99288263D01*
X163573940Y-99311440D01*
X163550763Y-99332447D01*
X163525638Y-99351081D01*
X163498808Y-99367162D01*
X163470530Y-99380537D01*
X163441078Y-99391075D01*
X163410735Y-99398675D01*
X163379793Y-99403265D01*
X163348550Y-99404800D01*
X162711050Y-99404800D01*
X162679807Y-99403265D01*
X162648865Y-99398675D01*
X162618522Y-99391075D01*
X162589070Y-99380537D01*
X162560792Y-99367162D01*
X162533962Y-99351081D01*
X162508837Y-99332447D01*
X162485660Y-99311440D01*
X162464653Y-99288263D01*
X162446019Y-99263138D01*
X162429938Y-99236308D01*
X162416563Y-99208030D01*
X162406025Y-99178578D01*
X162398425Y-99148235D01*
X162393835Y-99117293D01*
X162392300Y-99086050D01*
X162392300Y-98373550D01*
X162393835Y-98342307D01*
X162398425Y-98311365D01*
X162406025Y-98281022D01*
X162416563Y-98251570D01*
X162429938Y-98223292D01*
X162446019Y-98196462D01*
X162464653Y-98171337D01*
X162485660Y-98148160D01*
X162508837Y-98127153D01*
X162533962Y-98108519D01*
X162560792Y-98092438D01*
X162589070Y-98079063D01*
X162618522Y-98068525D01*
X162648865Y-98060925D01*
X162679807Y-98056335D01*
X162711050Y-98054800D01*
X163348550Y-98054800D01*
X163379793Y-98056335D01*
X163379793Y-98056335D01*
G37*
D13*
X163029800Y-98729800D03*
G04 #@! TD*
D12*
G04 #@! TO.C,R6*
G36*
X164954793Y-96100535D02*
X164985735Y-96105125D01*
X165016078Y-96112725D01*
X165045530Y-96123263D01*
X165073808Y-96136638D01*
X165100638Y-96152719D01*
X165125763Y-96171353D01*
X165148940Y-96192360D01*
X165169947Y-96215537D01*
X165188581Y-96240662D01*
X165204662Y-96267492D01*
X165218037Y-96295770D01*
X165228575Y-96325222D01*
X165236175Y-96355565D01*
X165240765Y-96386507D01*
X165242300Y-96417750D01*
X165242300Y-97130250D01*
X165240765Y-97161493D01*
X165236175Y-97192435D01*
X165228575Y-97222778D01*
X165218037Y-97252230D01*
X165204662Y-97280508D01*
X165188581Y-97307338D01*
X165169947Y-97332463D01*
X165148940Y-97355640D01*
X165125763Y-97376647D01*
X165100638Y-97395281D01*
X165073808Y-97411362D01*
X165045530Y-97424737D01*
X165016078Y-97435275D01*
X164985735Y-97442875D01*
X164954793Y-97447465D01*
X164923550Y-97449000D01*
X164286050Y-97449000D01*
X164254807Y-97447465D01*
X164223865Y-97442875D01*
X164193522Y-97435275D01*
X164164070Y-97424737D01*
X164135792Y-97411362D01*
X164108962Y-97395281D01*
X164083837Y-97376647D01*
X164060660Y-97355640D01*
X164039653Y-97332463D01*
X164021019Y-97307338D01*
X164004938Y-97280508D01*
X163991563Y-97252230D01*
X163981025Y-97222778D01*
X163973425Y-97192435D01*
X163968835Y-97161493D01*
X163967300Y-97130250D01*
X163967300Y-96417750D01*
X163968835Y-96386507D01*
X163973425Y-96355565D01*
X163981025Y-96325222D01*
X163991563Y-96295770D01*
X164004938Y-96267492D01*
X164021019Y-96240662D01*
X164039653Y-96215537D01*
X164060660Y-96192360D01*
X164083837Y-96171353D01*
X164108962Y-96152719D01*
X164135792Y-96136638D01*
X164164070Y-96123263D01*
X164193522Y-96112725D01*
X164223865Y-96105125D01*
X164254807Y-96100535D01*
X164286050Y-96099000D01*
X164923550Y-96099000D01*
X164954793Y-96100535D01*
X164954793Y-96100535D01*
G37*
D13*
X164604800Y-96774000D03*
D12*
G36*
X163379793Y-96100535D02*
X163410735Y-96105125D01*
X163441078Y-96112725D01*
X163470530Y-96123263D01*
X163498808Y-96136638D01*
X163525638Y-96152719D01*
X163550763Y-96171353D01*
X163573940Y-96192360D01*
X163594947Y-96215537D01*
X163613581Y-96240662D01*
X163629662Y-96267492D01*
X163643037Y-96295770D01*
X163653575Y-96325222D01*
X163661175Y-96355565D01*
X163665765Y-96386507D01*
X163667300Y-96417750D01*
X163667300Y-97130250D01*
X163665765Y-97161493D01*
X163661175Y-97192435D01*
X163653575Y-97222778D01*
X163643037Y-97252230D01*
X163629662Y-97280508D01*
X163613581Y-97307338D01*
X163594947Y-97332463D01*
X163573940Y-97355640D01*
X163550763Y-97376647D01*
X163525638Y-97395281D01*
X163498808Y-97411362D01*
X163470530Y-97424737D01*
X163441078Y-97435275D01*
X163410735Y-97442875D01*
X163379793Y-97447465D01*
X163348550Y-97449000D01*
X162711050Y-97449000D01*
X162679807Y-97447465D01*
X162648865Y-97442875D01*
X162618522Y-97435275D01*
X162589070Y-97424737D01*
X162560792Y-97411362D01*
X162533962Y-97395281D01*
X162508837Y-97376647D01*
X162485660Y-97355640D01*
X162464653Y-97332463D01*
X162446019Y-97307338D01*
X162429938Y-97280508D01*
X162416563Y-97252230D01*
X162406025Y-97222778D01*
X162398425Y-97192435D01*
X162393835Y-97161493D01*
X162392300Y-97130250D01*
X162392300Y-96417750D01*
X162393835Y-96386507D01*
X162398425Y-96355565D01*
X162406025Y-96325222D01*
X162416563Y-96295770D01*
X162429938Y-96267492D01*
X162446019Y-96240662D01*
X162464653Y-96215537D01*
X162485660Y-96192360D01*
X162508837Y-96171353D01*
X162533962Y-96152719D01*
X162560792Y-96136638D01*
X162589070Y-96123263D01*
X162618522Y-96112725D01*
X162648865Y-96105125D01*
X162679807Y-96100535D01*
X162711050Y-96099000D01*
X163348550Y-96099000D01*
X163379793Y-96100535D01*
X163379793Y-96100535D01*
G37*
D13*
X163029800Y-96774000D03*
G04 #@! TD*
D12*
G04 #@! TO.C,R7*
G36*
X121012093Y-96658835D02*
X121043035Y-96663425D01*
X121073378Y-96671025D01*
X121102830Y-96681563D01*
X121131108Y-96694938D01*
X121157938Y-96711019D01*
X121183063Y-96729653D01*
X121206240Y-96750660D01*
X121227247Y-96773837D01*
X121245881Y-96798962D01*
X121261962Y-96825792D01*
X121275337Y-96854070D01*
X121285875Y-96883522D01*
X121293475Y-96913865D01*
X121298065Y-96944807D01*
X121299600Y-96976050D01*
X121299600Y-97613550D01*
X121298065Y-97644793D01*
X121293475Y-97675735D01*
X121285875Y-97706078D01*
X121275337Y-97735530D01*
X121261962Y-97763808D01*
X121245881Y-97790638D01*
X121227247Y-97815763D01*
X121206240Y-97838940D01*
X121183063Y-97859947D01*
X121157938Y-97878581D01*
X121131108Y-97894662D01*
X121102830Y-97908037D01*
X121073378Y-97918575D01*
X121043035Y-97926175D01*
X121012093Y-97930765D01*
X120980850Y-97932300D01*
X120268350Y-97932300D01*
X120237107Y-97930765D01*
X120206165Y-97926175D01*
X120175822Y-97918575D01*
X120146370Y-97908037D01*
X120118092Y-97894662D01*
X120091262Y-97878581D01*
X120066137Y-97859947D01*
X120042960Y-97838940D01*
X120021953Y-97815763D01*
X120003319Y-97790638D01*
X119987238Y-97763808D01*
X119973863Y-97735530D01*
X119963325Y-97706078D01*
X119955725Y-97675735D01*
X119951135Y-97644793D01*
X119949600Y-97613550D01*
X119949600Y-96976050D01*
X119951135Y-96944807D01*
X119955725Y-96913865D01*
X119963325Y-96883522D01*
X119973863Y-96854070D01*
X119987238Y-96825792D01*
X120003319Y-96798962D01*
X120021953Y-96773837D01*
X120042960Y-96750660D01*
X120066137Y-96729653D01*
X120091262Y-96711019D01*
X120118092Y-96694938D01*
X120146370Y-96681563D01*
X120175822Y-96671025D01*
X120206165Y-96663425D01*
X120237107Y-96658835D01*
X120268350Y-96657300D01*
X120980850Y-96657300D01*
X121012093Y-96658835D01*
X121012093Y-96658835D01*
G37*
D13*
X120624600Y-97294800D03*
D12*
G36*
X121012093Y-95083835D02*
X121043035Y-95088425D01*
X121073378Y-95096025D01*
X121102830Y-95106563D01*
X121131108Y-95119938D01*
X121157938Y-95136019D01*
X121183063Y-95154653D01*
X121206240Y-95175660D01*
X121227247Y-95198837D01*
X121245881Y-95223962D01*
X121261962Y-95250792D01*
X121275337Y-95279070D01*
X121285875Y-95308522D01*
X121293475Y-95338865D01*
X121298065Y-95369807D01*
X121299600Y-95401050D01*
X121299600Y-96038550D01*
X121298065Y-96069793D01*
X121293475Y-96100735D01*
X121285875Y-96131078D01*
X121275337Y-96160530D01*
X121261962Y-96188808D01*
X121245881Y-96215638D01*
X121227247Y-96240763D01*
X121206240Y-96263940D01*
X121183063Y-96284947D01*
X121157938Y-96303581D01*
X121131108Y-96319662D01*
X121102830Y-96333037D01*
X121073378Y-96343575D01*
X121043035Y-96351175D01*
X121012093Y-96355765D01*
X120980850Y-96357300D01*
X120268350Y-96357300D01*
X120237107Y-96355765D01*
X120206165Y-96351175D01*
X120175822Y-96343575D01*
X120146370Y-96333037D01*
X120118092Y-96319662D01*
X120091262Y-96303581D01*
X120066137Y-96284947D01*
X120042960Y-96263940D01*
X120021953Y-96240763D01*
X120003319Y-96215638D01*
X119987238Y-96188808D01*
X119973863Y-96160530D01*
X119963325Y-96131078D01*
X119955725Y-96100735D01*
X119951135Y-96069793D01*
X119949600Y-96038550D01*
X119949600Y-95401050D01*
X119951135Y-95369807D01*
X119955725Y-95338865D01*
X119963325Y-95308522D01*
X119973863Y-95279070D01*
X119987238Y-95250792D01*
X120003319Y-95223962D01*
X120021953Y-95198837D01*
X120042960Y-95175660D01*
X120066137Y-95154653D01*
X120091262Y-95136019D01*
X120118092Y-95119938D01*
X120146370Y-95106563D01*
X120175822Y-95096025D01*
X120206165Y-95088425D01*
X120237107Y-95083835D01*
X120268350Y-95082300D01*
X120980850Y-95082300D01*
X121012093Y-95083835D01*
X121012093Y-95083835D01*
G37*
D13*
X120624600Y-95719800D03*
G04 #@! TD*
D12*
G04 #@! TO.C,R8*
G36*
X148901993Y-103504635D02*
X148932935Y-103509225D01*
X148963278Y-103516825D01*
X148992730Y-103527363D01*
X149021008Y-103540738D01*
X149047838Y-103556819D01*
X149072963Y-103575453D01*
X149096140Y-103596460D01*
X149117147Y-103619637D01*
X149135781Y-103644762D01*
X149151862Y-103671592D01*
X149165237Y-103699870D01*
X149175775Y-103729322D01*
X149183375Y-103759665D01*
X149187965Y-103790607D01*
X149189500Y-103821850D01*
X149189500Y-104534350D01*
X149187965Y-104565593D01*
X149183375Y-104596535D01*
X149175775Y-104626878D01*
X149165237Y-104656330D01*
X149151862Y-104684608D01*
X149135781Y-104711438D01*
X149117147Y-104736563D01*
X149096140Y-104759740D01*
X149072963Y-104780747D01*
X149047838Y-104799381D01*
X149021008Y-104815462D01*
X148992730Y-104828837D01*
X148963278Y-104839375D01*
X148932935Y-104846975D01*
X148901993Y-104851565D01*
X148870750Y-104853100D01*
X148233250Y-104853100D01*
X148202007Y-104851565D01*
X148171065Y-104846975D01*
X148140722Y-104839375D01*
X148111270Y-104828837D01*
X148082992Y-104815462D01*
X148056162Y-104799381D01*
X148031037Y-104780747D01*
X148007860Y-104759740D01*
X147986853Y-104736563D01*
X147968219Y-104711438D01*
X147952138Y-104684608D01*
X147938763Y-104656330D01*
X147928225Y-104626878D01*
X147920625Y-104596535D01*
X147916035Y-104565593D01*
X147914500Y-104534350D01*
X147914500Y-103821850D01*
X147916035Y-103790607D01*
X147920625Y-103759665D01*
X147928225Y-103729322D01*
X147938763Y-103699870D01*
X147952138Y-103671592D01*
X147968219Y-103644762D01*
X147986853Y-103619637D01*
X148007860Y-103596460D01*
X148031037Y-103575453D01*
X148056162Y-103556819D01*
X148082992Y-103540738D01*
X148111270Y-103527363D01*
X148140722Y-103516825D01*
X148171065Y-103509225D01*
X148202007Y-103504635D01*
X148233250Y-103503100D01*
X148870750Y-103503100D01*
X148901993Y-103504635D01*
X148901993Y-103504635D01*
G37*
D13*
X148552000Y-104178100D03*
D12*
G36*
X147326993Y-103504635D02*
X147357935Y-103509225D01*
X147388278Y-103516825D01*
X147417730Y-103527363D01*
X147446008Y-103540738D01*
X147472838Y-103556819D01*
X147497963Y-103575453D01*
X147521140Y-103596460D01*
X147542147Y-103619637D01*
X147560781Y-103644762D01*
X147576862Y-103671592D01*
X147590237Y-103699870D01*
X147600775Y-103729322D01*
X147608375Y-103759665D01*
X147612965Y-103790607D01*
X147614500Y-103821850D01*
X147614500Y-104534350D01*
X147612965Y-104565593D01*
X147608375Y-104596535D01*
X147600775Y-104626878D01*
X147590237Y-104656330D01*
X147576862Y-104684608D01*
X147560781Y-104711438D01*
X147542147Y-104736563D01*
X147521140Y-104759740D01*
X147497963Y-104780747D01*
X147472838Y-104799381D01*
X147446008Y-104815462D01*
X147417730Y-104828837D01*
X147388278Y-104839375D01*
X147357935Y-104846975D01*
X147326993Y-104851565D01*
X147295750Y-104853100D01*
X146658250Y-104853100D01*
X146627007Y-104851565D01*
X146596065Y-104846975D01*
X146565722Y-104839375D01*
X146536270Y-104828837D01*
X146507992Y-104815462D01*
X146481162Y-104799381D01*
X146456037Y-104780747D01*
X146432860Y-104759740D01*
X146411853Y-104736563D01*
X146393219Y-104711438D01*
X146377138Y-104684608D01*
X146363763Y-104656330D01*
X146353225Y-104626878D01*
X146345625Y-104596535D01*
X146341035Y-104565593D01*
X146339500Y-104534350D01*
X146339500Y-103821850D01*
X146341035Y-103790607D01*
X146345625Y-103759665D01*
X146353225Y-103729322D01*
X146363763Y-103699870D01*
X146377138Y-103671592D01*
X146393219Y-103644762D01*
X146411853Y-103619637D01*
X146432860Y-103596460D01*
X146456037Y-103575453D01*
X146481162Y-103556819D01*
X146507992Y-103540738D01*
X146536270Y-103527363D01*
X146565722Y-103516825D01*
X146596065Y-103509225D01*
X146627007Y-103504635D01*
X146658250Y-103503100D01*
X147295750Y-103503100D01*
X147326993Y-103504635D01*
X147326993Y-103504635D01*
G37*
D13*
X146977000Y-104178100D03*
G04 #@! TD*
D12*
G04 #@! TO.C,R9*
G36*
X164954793Y-93826135D02*
X164985735Y-93830725D01*
X165016078Y-93838325D01*
X165045530Y-93848863D01*
X165073808Y-93862238D01*
X165100638Y-93878319D01*
X165125763Y-93896953D01*
X165148940Y-93917960D01*
X165169947Y-93941137D01*
X165188581Y-93966262D01*
X165204662Y-93993092D01*
X165218037Y-94021370D01*
X165228575Y-94050822D01*
X165236175Y-94081165D01*
X165240765Y-94112107D01*
X165242300Y-94143350D01*
X165242300Y-94855850D01*
X165240765Y-94887093D01*
X165236175Y-94918035D01*
X165228575Y-94948378D01*
X165218037Y-94977830D01*
X165204662Y-95006108D01*
X165188581Y-95032938D01*
X165169947Y-95058063D01*
X165148940Y-95081240D01*
X165125763Y-95102247D01*
X165100638Y-95120881D01*
X165073808Y-95136962D01*
X165045530Y-95150337D01*
X165016078Y-95160875D01*
X164985735Y-95168475D01*
X164954793Y-95173065D01*
X164923550Y-95174600D01*
X164286050Y-95174600D01*
X164254807Y-95173065D01*
X164223865Y-95168475D01*
X164193522Y-95160875D01*
X164164070Y-95150337D01*
X164135792Y-95136962D01*
X164108962Y-95120881D01*
X164083837Y-95102247D01*
X164060660Y-95081240D01*
X164039653Y-95058063D01*
X164021019Y-95032938D01*
X164004938Y-95006108D01*
X163991563Y-94977830D01*
X163981025Y-94948378D01*
X163973425Y-94918035D01*
X163968835Y-94887093D01*
X163967300Y-94855850D01*
X163967300Y-94143350D01*
X163968835Y-94112107D01*
X163973425Y-94081165D01*
X163981025Y-94050822D01*
X163991563Y-94021370D01*
X164004938Y-93993092D01*
X164021019Y-93966262D01*
X164039653Y-93941137D01*
X164060660Y-93917960D01*
X164083837Y-93896953D01*
X164108962Y-93878319D01*
X164135792Y-93862238D01*
X164164070Y-93848863D01*
X164193522Y-93838325D01*
X164223865Y-93830725D01*
X164254807Y-93826135D01*
X164286050Y-93824600D01*
X164923550Y-93824600D01*
X164954793Y-93826135D01*
X164954793Y-93826135D01*
G37*
D13*
X164604800Y-94499600D03*
D12*
G36*
X163379793Y-93826135D02*
X163410735Y-93830725D01*
X163441078Y-93838325D01*
X163470530Y-93848863D01*
X163498808Y-93862238D01*
X163525638Y-93878319D01*
X163550763Y-93896953D01*
X163573940Y-93917960D01*
X163594947Y-93941137D01*
X163613581Y-93966262D01*
X163629662Y-93993092D01*
X163643037Y-94021370D01*
X163653575Y-94050822D01*
X163661175Y-94081165D01*
X163665765Y-94112107D01*
X163667300Y-94143350D01*
X163667300Y-94855850D01*
X163665765Y-94887093D01*
X163661175Y-94918035D01*
X163653575Y-94948378D01*
X163643037Y-94977830D01*
X163629662Y-95006108D01*
X163613581Y-95032938D01*
X163594947Y-95058063D01*
X163573940Y-95081240D01*
X163550763Y-95102247D01*
X163525638Y-95120881D01*
X163498808Y-95136962D01*
X163470530Y-95150337D01*
X163441078Y-95160875D01*
X163410735Y-95168475D01*
X163379793Y-95173065D01*
X163348550Y-95174600D01*
X162711050Y-95174600D01*
X162679807Y-95173065D01*
X162648865Y-95168475D01*
X162618522Y-95160875D01*
X162589070Y-95150337D01*
X162560792Y-95136962D01*
X162533962Y-95120881D01*
X162508837Y-95102247D01*
X162485660Y-95081240D01*
X162464653Y-95058063D01*
X162446019Y-95032938D01*
X162429938Y-95006108D01*
X162416563Y-94977830D01*
X162406025Y-94948378D01*
X162398425Y-94918035D01*
X162393835Y-94887093D01*
X162392300Y-94855850D01*
X162392300Y-94143350D01*
X162393835Y-94112107D01*
X162398425Y-94081165D01*
X162406025Y-94050822D01*
X162416563Y-94021370D01*
X162429938Y-93993092D01*
X162446019Y-93966262D01*
X162464653Y-93941137D01*
X162485660Y-93917960D01*
X162508837Y-93896953D01*
X162533962Y-93878319D01*
X162560792Y-93862238D01*
X162589070Y-93848863D01*
X162618522Y-93838325D01*
X162648865Y-93830725D01*
X162679807Y-93826135D01*
X162711050Y-93824600D01*
X163348550Y-93824600D01*
X163379793Y-93826135D01*
X163379793Y-93826135D01*
G37*
D13*
X163029800Y-94499600D03*
G04 #@! TD*
D12*
G04 #@! TO.C,R10*
G36*
X173135093Y-105573635D02*
X173166035Y-105578225D01*
X173196378Y-105585825D01*
X173225830Y-105596363D01*
X173254108Y-105609738D01*
X173280938Y-105625819D01*
X173306063Y-105644453D01*
X173329240Y-105665460D01*
X173350247Y-105688637D01*
X173368881Y-105713762D01*
X173384962Y-105740592D01*
X173398337Y-105768870D01*
X173408875Y-105798322D01*
X173416475Y-105828665D01*
X173421065Y-105859607D01*
X173422600Y-105890850D01*
X173422600Y-106603350D01*
X173421065Y-106634593D01*
X173416475Y-106665535D01*
X173408875Y-106695878D01*
X173398337Y-106725330D01*
X173384962Y-106753608D01*
X173368881Y-106780438D01*
X173350247Y-106805563D01*
X173329240Y-106828740D01*
X173306063Y-106849747D01*
X173280938Y-106868381D01*
X173254108Y-106884462D01*
X173225830Y-106897837D01*
X173196378Y-106908375D01*
X173166035Y-106915975D01*
X173135093Y-106920565D01*
X173103850Y-106922100D01*
X172466350Y-106922100D01*
X172435107Y-106920565D01*
X172404165Y-106915975D01*
X172373822Y-106908375D01*
X172344370Y-106897837D01*
X172316092Y-106884462D01*
X172289262Y-106868381D01*
X172264137Y-106849747D01*
X172240960Y-106828740D01*
X172219953Y-106805563D01*
X172201319Y-106780438D01*
X172185238Y-106753608D01*
X172171863Y-106725330D01*
X172161325Y-106695878D01*
X172153725Y-106665535D01*
X172149135Y-106634593D01*
X172147600Y-106603350D01*
X172147600Y-105890850D01*
X172149135Y-105859607D01*
X172153725Y-105828665D01*
X172161325Y-105798322D01*
X172171863Y-105768870D01*
X172185238Y-105740592D01*
X172201319Y-105713762D01*
X172219953Y-105688637D01*
X172240960Y-105665460D01*
X172264137Y-105644453D01*
X172289262Y-105625819D01*
X172316092Y-105609738D01*
X172344370Y-105596363D01*
X172373822Y-105585825D01*
X172404165Y-105578225D01*
X172435107Y-105573635D01*
X172466350Y-105572100D01*
X173103850Y-105572100D01*
X173135093Y-105573635D01*
X173135093Y-105573635D01*
G37*
D13*
X172785100Y-106247100D03*
D12*
G36*
X171560093Y-105573635D02*
X171591035Y-105578225D01*
X171621378Y-105585825D01*
X171650830Y-105596363D01*
X171679108Y-105609738D01*
X171705938Y-105625819D01*
X171731063Y-105644453D01*
X171754240Y-105665460D01*
X171775247Y-105688637D01*
X171793881Y-105713762D01*
X171809962Y-105740592D01*
X171823337Y-105768870D01*
X171833875Y-105798322D01*
X171841475Y-105828665D01*
X171846065Y-105859607D01*
X171847600Y-105890850D01*
X171847600Y-106603350D01*
X171846065Y-106634593D01*
X171841475Y-106665535D01*
X171833875Y-106695878D01*
X171823337Y-106725330D01*
X171809962Y-106753608D01*
X171793881Y-106780438D01*
X171775247Y-106805563D01*
X171754240Y-106828740D01*
X171731063Y-106849747D01*
X171705938Y-106868381D01*
X171679108Y-106884462D01*
X171650830Y-106897837D01*
X171621378Y-106908375D01*
X171591035Y-106915975D01*
X171560093Y-106920565D01*
X171528850Y-106922100D01*
X170891350Y-106922100D01*
X170860107Y-106920565D01*
X170829165Y-106915975D01*
X170798822Y-106908375D01*
X170769370Y-106897837D01*
X170741092Y-106884462D01*
X170714262Y-106868381D01*
X170689137Y-106849747D01*
X170665960Y-106828740D01*
X170644953Y-106805563D01*
X170626319Y-106780438D01*
X170610238Y-106753608D01*
X170596863Y-106725330D01*
X170586325Y-106695878D01*
X170578725Y-106665535D01*
X170574135Y-106634593D01*
X170572600Y-106603350D01*
X170572600Y-105890850D01*
X170574135Y-105859607D01*
X170578725Y-105828665D01*
X170586325Y-105798322D01*
X170596863Y-105768870D01*
X170610238Y-105740592D01*
X170626319Y-105713762D01*
X170644953Y-105688637D01*
X170665960Y-105665460D01*
X170689137Y-105644453D01*
X170714262Y-105625819D01*
X170741092Y-105609738D01*
X170769370Y-105596363D01*
X170798822Y-105585825D01*
X170829165Y-105578225D01*
X170860107Y-105573635D01*
X170891350Y-105572100D01*
X171528850Y-105572100D01*
X171560093Y-105573635D01*
X171560093Y-105573635D01*
G37*
D13*
X171210100Y-106247100D03*
G04 #@! TD*
D21*
G04 #@! TO.C,SW1*
X126773200Y-93940000D03*
X135383200Y-101560000D03*
X126773200Y-96480000D03*
X135383200Y-99020000D03*
X126773200Y-99020000D03*
X135383200Y-96480000D03*
X126773200Y-101560000D03*
X135383200Y-93940000D03*
G04 #@! TD*
D22*
G04 #@! TO.C,U1*
X150822200Y-100550000D03*
X150822200Y-99750000D03*
X150822200Y-98950000D03*
X150822200Y-98150000D03*
X150822200Y-97350000D03*
X150822200Y-96550000D03*
X150822200Y-95750000D03*
X150822200Y-94950000D03*
D23*
X149372200Y-93500000D03*
X148572200Y-93500000D03*
X147772200Y-93500000D03*
X146972200Y-93500000D03*
X146172200Y-93500000D03*
X145372200Y-93500000D03*
X144572200Y-93500000D03*
X143772200Y-93500000D03*
D22*
X142322200Y-94950000D03*
X142322200Y-95750000D03*
X142322200Y-96550000D03*
X142322200Y-97350000D03*
X142322200Y-98150000D03*
X142322200Y-98950000D03*
X142322200Y-99750000D03*
X142322200Y-100550000D03*
D23*
X143772200Y-102000000D03*
X144572200Y-102000000D03*
X145372200Y-102000000D03*
X146172200Y-102000000D03*
X146972200Y-102000000D03*
X147772200Y-102000000D03*
X148572200Y-102000000D03*
X149372200Y-102000000D03*
G04 #@! TD*
D24*
G04 #@! TO.C,Y1*
X158210900Y-95257700D03*
X158210900Y-91457700D03*
X155910900Y-91457700D03*
X155910900Y-95257700D03*
G04 #@! TD*
M02*
