G04 #@! TF.GenerationSoftware,KiCad,Pcbnew,(5.0.0-3-g5ebb6b6)*
G04 #@! TF.CreationDate,2019-02-08T12:04:07-05:00*
G04 #@! TF.ProjectId,ROCKETasp,524F434B45546173702E6B696361645F,2.0*
G04 #@! TF.SameCoordinates,Original*
G04 #@! TF.FileFunction,Paste,Bot*
G04 #@! TF.FilePolarity,Positive*
%FSLAX46Y46*%
G04 Gerber Fmt 4.6, Leading zero omitted, Abs format (unit mm)*
G04 Created by KiCad (PCBNEW (5.0.0-3-g5ebb6b6)) date Friday, February 08, 2019 at 12:04:07 PM*
%MOMM*%
%LPD*%
G01*
G04 APERTURE LIST*
%ADD10C,0.100000*%
%ADD11C,0.875000*%
%ADD12C,0.975000*%
%ADD13C,1.250000*%
%ADD14R,3.000000X1.000000*%
%ADD15R,2.000000X3.800000*%
%ADD16R,2.000000X1.500000*%
G04 APERTURE END LIST*
D10*
G04 #@! TO.C,C3*
G36*
X121321391Y-92578453D02*
X121342626Y-92581603D01*
X121363450Y-92586819D01*
X121383662Y-92594051D01*
X121403068Y-92603230D01*
X121421481Y-92614266D01*
X121438724Y-92627054D01*
X121454630Y-92641470D01*
X121469046Y-92657376D01*
X121481834Y-92674619D01*
X121492870Y-92693032D01*
X121502049Y-92712438D01*
X121509281Y-92732650D01*
X121514497Y-92753474D01*
X121517647Y-92774709D01*
X121518700Y-92796150D01*
X121518700Y-93233650D01*
X121517647Y-93255091D01*
X121514497Y-93276326D01*
X121509281Y-93297150D01*
X121502049Y-93317362D01*
X121492870Y-93336768D01*
X121481834Y-93355181D01*
X121469046Y-93372424D01*
X121454630Y-93388330D01*
X121438724Y-93402746D01*
X121421481Y-93415534D01*
X121403068Y-93426570D01*
X121383662Y-93435749D01*
X121363450Y-93442981D01*
X121342626Y-93448197D01*
X121321391Y-93451347D01*
X121299950Y-93452400D01*
X120787450Y-93452400D01*
X120766009Y-93451347D01*
X120744774Y-93448197D01*
X120723950Y-93442981D01*
X120703738Y-93435749D01*
X120684332Y-93426570D01*
X120665919Y-93415534D01*
X120648676Y-93402746D01*
X120632770Y-93388330D01*
X120618354Y-93372424D01*
X120605566Y-93355181D01*
X120594530Y-93336768D01*
X120585351Y-93317362D01*
X120578119Y-93297150D01*
X120572903Y-93276326D01*
X120569753Y-93255091D01*
X120568700Y-93233650D01*
X120568700Y-92796150D01*
X120569753Y-92774709D01*
X120572903Y-92753474D01*
X120578119Y-92732650D01*
X120585351Y-92712438D01*
X120594530Y-92693032D01*
X120605566Y-92674619D01*
X120618354Y-92657376D01*
X120632770Y-92641470D01*
X120648676Y-92627054D01*
X120665919Y-92614266D01*
X120684332Y-92603230D01*
X120703738Y-92594051D01*
X120723950Y-92586819D01*
X120744774Y-92581603D01*
X120766009Y-92578453D01*
X120787450Y-92577400D01*
X121299950Y-92577400D01*
X121321391Y-92578453D01*
X121321391Y-92578453D01*
G37*
D11*
X121043700Y-93014900D03*
D10*
G36*
X121321391Y-91003453D02*
X121342626Y-91006603D01*
X121363450Y-91011819D01*
X121383662Y-91019051D01*
X121403068Y-91028230D01*
X121421481Y-91039266D01*
X121438724Y-91052054D01*
X121454630Y-91066470D01*
X121469046Y-91082376D01*
X121481834Y-91099619D01*
X121492870Y-91118032D01*
X121502049Y-91137438D01*
X121509281Y-91157650D01*
X121514497Y-91178474D01*
X121517647Y-91199709D01*
X121518700Y-91221150D01*
X121518700Y-91658650D01*
X121517647Y-91680091D01*
X121514497Y-91701326D01*
X121509281Y-91722150D01*
X121502049Y-91742362D01*
X121492870Y-91761768D01*
X121481834Y-91780181D01*
X121469046Y-91797424D01*
X121454630Y-91813330D01*
X121438724Y-91827746D01*
X121421481Y-91840534D01*
X121403068Y-91851570D01*
X121383662Y-91860749D01*
X121363450Y-91867981D01*
X121342626Y-91873197D01*
X121321391Y-91876347D01*
X121299950Y-91877400D01*
X120787450Y-91877400D01*
X120766009Y-91876347D01*
X120744774Y-91873197D01*
X120723950Y-91867981D01*
X120703738Y-91860749D01*
X120684332Y-91851570D01*
X120665919Y-91840534D01*
X120648676Y-91827746D01*
X120632770Y-91813330D01*
X120618354Y-91797424D01*
X120605566Y-91780181D01*
X120594530Y-91761768D01*
X120585351Y-91742362D01*
X120578119Y-91722150D01*
X120572903Y-91701326D01*
X120569753Y-91680091D01*
X120568700Y-91658650D01*
X120568700Y-91221150D01*
X120569753Y-91199709D01*
X120572903Y-91178474D01*
X120578119Y-91157650D01*
X120585351Y-91137438D01*
X120594530Y-91118032D01*
X120605566Y-91099619D01*
X120618354Y-91082376D01*
X120632770Y-91066470D01*
X120648676Y-91052054D01*
X120665919Y-91039266D01*
X120684332Y-91028230D01*
X120703738Y-91019051D01*
X120723950Y-91011819D01*
X120744774Y-91006603D01*
X120766009Y-91003453D01*
X120787450Y-91002400D01*
X121299950Y-91002400D01*
X121321391Y-91003453D01*
X121321391Y-91003453D01*
G37*
D11*
X121043700Y-91439900D03*
G04 #@! TD*
D10*
G04 #@! TO.C,C7*
G36*
X146823342Y-89852174D02*
X146847003Y-89855684D01*
X146870207Y-89861496D01*
X146892729Y-89869554D01*
X146914353Y-89879782D01*
X146934870Y-89892079D01*
X146954083Y-89906329D01*
X146971807Y-89922393D01*
X146987871Y-89940117D01*
X147002121Y-89959330D01*
X147014418Y-89979847D01*
X147024646Y-90001471D01*
X147032704Y-90023993D01*
X147038516Y-90047197D01*
X147042026Y-90070858D01*
X147043200Y-90094750D01*
X147043200Y-91007250D01*
X147042026Y-91031142D01*
X147038516Y-91054803D01*
X147032704Y-91078007D01*
X147024646Y-91100529D01*
X147014418Y-91122153D01*
X147002121Y-91142670D01*
X146987871Y-91161883D01*
X146971807Y-91179607D01*
X146954083Y-91195671D01*
X146934870Y-91209921D01*
X146914353Y-91222218D01*
X146892729Y-91232446D01*
X146870207Y-91240504D01*
X146847003Y-91246316D01*
X146823342Y-91249826D01*
X146799450Y-91251000D01*
X146311950Y-91251000D01*
X146288058Y-91249826D01*
X146264397Y-91246316D01*
X146241193Y-91240504D01*
X146218671Y-91232446D01*
X146197047Y-91222218D01*
X146176530Y-91209921D01*
X146157317Y-91195671D01*
X146139593Y-91179607D01*
X146123529Y-91161883D01*
X146109279Y-91142670D01*
X146096982Y-91122153D01*
X146086754Y-91100529D01*
X146078696Y-91078007D01*
X146072884Y-91054803D01*
X146069374Y-91031142D01*
X146068200Y-91007250D01*
X146068200Y-90094750D01*
X146069374Y-90070858D01*
X146072884Y-90047197D01*
X146078696Y-90023993D01*
X146086754Y-90001471D01*
X146096982Y-89979847D01*
X146109279Y-89959330D01*
X146123529Y-89940117D01*
X146139593Y-89922393D01*
X146157317Y-89906329D01*
X146176530Y-89892079D01*
X146197047Y-89879782D01*
X146218671Y-89869554D01*
X146241193Y-89861496D01*
X146264397Y-89855684D01*
X146288058Y-89852174D01*
X146311950Y-89851000D01*
X146799450Y-89851000D01*
X146823342Y-89852174D01*
X146823342Y-89852174D01*
G37*
D12*
X146555700Y-90551000D03*
D10*
G36*
X144948342Y-89852174D02*
X144972003Y-89855684D01*
X144995207Y-89861496D01*
X145017729Y-89869554D01*
X145039353Y-89879782D01*
X145059870Y-89892079D01*
X145079083Y-89906329D01*
X145096807Y-89922393D01*
X145112871Y-89940117D01*
X145127121Y-89959330D01*
X145139418Y-89979847D01*
X145149646Y-90001471D01*
X145157704Y-90023993D01*
X145163516Y-90047197D01*
X145167026Y-90070858D01*
X145168200Y-90094750D01*
X145168200Y-91007250D01*
X145167026Y-91031142D01*
X145163516Y-91054803D01*
X145157704Y-91078007D01*
X145149646Y-91100529D01*
X145139418Y-91122153D01*
X145127121Y-91142670D01*
X145112871Y-91161883D01*
X145096807Y-91179607D01*
X145079083Y-91195671D01*
X145059870Y-91209921D01*
X145039353Y-91222218D01*
X145017729Y-91232446D01*
X144995207Y-91240504D01*
X144972003Y-91246316D01*
X144948342Y-91249826D01*
X144924450Y-91251000D01*
X144436950Y-91251000D01*
X144413058Y-91249826D01*
X144389397Y-91246316D01*
X144366193Y-91240504D01*
X144343671Y-91232446D01*
X144322047Y-91222218D01*
X144301530Y-91209921D01*
X144282317Y-91195671D01*
X144264593Y-91179607D01*
X144248529Y-91161883D01*
X144234279Y-91142670D01*
X144221982Y-91122153D01*
X144211754Y-91100529D01*
X144203696Y-91078007D01*
X144197884Y-91054803D01*
X144194374Y-91031142D01*
X144193200Y-91007250D01*
X144193200Y-90094750D01*
X144194374Y-90070858D01*
X144197884Y-90047197D01*
X144203696Y-90023993D01*
X144211754Y-90001471D01*
X144221982Y-89979847D01*
X144234279Y-89959330D01*
X144248529Y-89940117D01*
X144264593Y-89922393D01*
X144282317Y-89906329D01*
X144301530Y-89892079D01*
X144322047Y-89879782D01*
X144343671Y-89869554D01*
X144366193Y-89861496D01*
X144389397Y-89855684D01*
X144413058Y-89852174D01*
X144436950Y-89851000D01*
X144924450Y-89851000D01*
X144948342Y-89852174D01*
X144948342Y-89852174D01*
G37*
D12*
X144680700Y-90551000D03*
G04 #@! TD*
D10*
G04 #@! TO.C,C8*
G36*
X157038742Y-96875274D02*
X157062403Y-96878784D01*
X157085607Y-96884596D01*
X157108129Y-96892654D01*
X157129753Y-96902882D01*
X157150270Y-96915179D01*
X157169483Y-96929429D01*
X157187207Y-96945493D01*
X157203271Y-96963217D01*
X157217521Y-96982430D01*
X157229818Y-97002947D01*
X157240046Y-97024571D01*
X157248104Y-97047093D01*
X157253916Y-97070297D01*
X157257426Y-97093958D01*
X157258600Y-97117850D01*
X157258600Y-98030350D01*
X157257426Y-98054242D01*
X157253916Y-98077903D01*
X157248104Y-98101107D01*
X157240046Y-98123629D01*
X157229818Y-98145253D01*
X157217521Y-98165770D01*
X157203271Y-98184983D01*
X157187207Y-98202707D01*
X157169483Y-98218771D01*
X157150270Y-98233021D01*
X157129753Y-98245318D01*
X157108129Y-98255546D01*
X157085607Y-98263604D01*
X157062403Y-98269416D01*
X157038742Y-98272926D01*
X157014850Y-98274100D01*
X156527350Y-98274100D01*
X156503458Y-98272926D01*
X156479797Y-98269416D01*
X156456593Y-98263604D01*
X156434071Y-98255546D01*
X156412447Y-98245318D01*
X156391930Y-98233021D01*
X156372717Y-98218771D01*
X156354993Y-98202707D01*
X156338929Y-98184983D01*
X156324679Y-98165770D01*
X156312382Y-98145253D01*
X156302154Y-98123629D01*
X156294096Y-98101107D01*
X156288284Y-98077903D01*
X156284774Y-98054242D01*
X156283600Y-98030350D01*
X156283600Y-97117850D01*
X156284774Y-97093958D01*
X156288284Y-97070297D01*
X156294096Y-97047093D01*
X156302154Y-97024571D01*
X156312382Y-97002947D01*
X156324679Y-96982430D01*
X156338929Y-96963217D01*
X156354993Y-96945493D01*
X156372717Y-96929429D01*
X156391930Y-96915179D01*
X156412447Y-96902882D01*
X156434071Y-96892654D01*
X156456593Y-96884596D01*
X156479797Y-96878784D01*
X156503458Y-96875274D01*
X156527350Y-96874100D01*
X157014850Y-96874100D01*
X157038742Y-96875274D01*
X157038742Y-96875274D01*
G37*
D12*
X156771100Y-97574100D03*
D10*
G36*
X158913742Y-96875274D02*
X158937403Y-96878784D01*
X158960607Y-96884596D01*
X158983129Y-96892654D01*
X159004753Y-96902882D01*
X159025270Y-96915179D01*
X159044483Y-96929429D01*
X159062207Y-96945493D01*
X159078271Y-96963217D01*
X159092521Y-96982430D01*
X159104818Y-97002947D01*
X159115046Y-97024571D01*
X159123104Y-97047093D01*
X159128916Y-97070297D01*
X159132426Y-97093958D01*
X159133600Y-97117850D01*
X159133600Y-98030350D01*
X159132426Y-98054242D01*
X159128916Y-98077903D01*
X159123104Y-98101107D01*
X159115046Y-98123629D01*
X159104818Y-98145253D01*
X159092521Y-98165770D01*
X159078271Y-98184983D01*
X159062207Y-98202707D01*
X159044483Y-98218771D01*
X159025270Y-98233021D01*
X159004753Y-98245318D01*
X158983129Y-98255546D01*
X158960607Y-98263604D01*
X158937403Y-98269416D01*
X158913742Y-98272926D01*
X158889850Y-98274100D01*
X158402350Y-98274100D01*
X158378458Y-98272926D01*
X158354797Y-98269416D01*
X158331593Y-98263604D01*
X158309071Y-98255546D01*
X158287447Y-98245318D01*
X158266930Y-98233021D01*
X158247717Y-98218771D01*
X158229993Y-98202707D01*
X158213929Y-98184983D01*
X158199679Y-98165770D01*
X158187382Y-98145253D01*
X158177154Y-98123629D01*
X158169096Y-98101107D01*
X158163284Y-98077903D01*
X158159774Y-98054242D01*
X158158600Y-98030350D01*
X158158600Y-97117850D01*
X158159774Y-97093958D01*
X158163284Y-97070297D01*
X158169096Y-97047093D01*
X158177154Y-97024571D01*
X158187382Y-97002947D01*
X158199679Y-96982430D01*
X158213929Y-96963217D01*
X158229993Y-96945493D01*
X158247717Y-96929429D01*
X158266930Y-96915179D01*
X158287447Y-96902882D01*
X158309071Y-96892654D01*
X158331593Y-96884596D01*
X158354797Y-96878784D01*
X158378458Y-96875274D01*
X158402350Y-96874100D01*
X158889850Y-96874100D01*
X158913742Y-96875274D01*
X158913742Y-96875274D01*
G37*
D12*
X158646100Y-97574100D03*
G04 #@! TD*
D10*
G04 #@! TO.C,C9*
G36*
X121295991Y-103627453D02*
X121317226Y-103630603D01*
X121338050Y-103635819D01*
X121358262Y-103643051D01*
X121377668Y-103652230D01*
X121396081Y-103663266D01*
X121413324Y-103676054D01*
X121429230Y-103690470D01*
X121443646Y-103706376D01*
X121456434Y-103723619D01*
X121467470Y-103742032D01*
X121476649Y-103761438D01*
X121483881Y-103781650D01*
X121489097Y-103802474D01*
X121492247Y-103823709D01*
X121493300Y-103845150D01*
X121493300Y-104282650D01*
X121492247Y-104304091D01*
X121489097Y-104325326D01*
X121483881Y-104346150D01*
X121476649Y-104366362D01*
X121467470Y-104385768D01*
X121456434Y-104404181D01*
X121443646Y-104421424D01*
X121429230Y-104437330D01*
X121413324Y-104451746D01*
X121396081Y-104464534D01*
X121377668Y-104475570D01*
X121358262Y-104484749D01*
X121338050Y-104491981D01*
X121317226Y-104497197D01*
X121295991Y-104500347D01*
X121274550Y-104501400D01*
X120762050Y-104501400D01*
X120740609Y-104500347D01*
X120719374Y-104497197D01*
X120698550Y-104491981D01*
X120678338Y-104484749D01*
X120658932Y-104475570D01*
X120640519Y-104464534D01*
X120623276Y-104451746D01*
X120607370Y-104437330D01*
X120592954Y-104421424D01*
X120580166Y-104404181D01*
X120569130Y-104385768D01*
X120559951Y-104366362D01*
X120552719Y-104346150D01*
X120547503Y-104325326D01*
X120544353Y-104304091D01*
X120543300Y-104282650D01*
X120543300Y-103845150D01*
X120544353Y-103823709D01*
X120547503Y-103802474D01*
X120552719Y-103781650D01*
X120559951Y-103761438D01*
X120569130Y-103742032D01*
X120580166Y-103723619D01*
X120592954Y-103706376D01*
X120607370Y-103690470D01*
X120623276Y-103676054D01*
X120640519Y-103663266D01*
X120658932Y-103652230D01*
X120678338Y-103643051D01*
X120698550Y-103635819D01*
X120719374Y-103630603D01*
X120740609Y-103627453D01*
X120762050Y-103626400D01*
X121274550Y-103626400D01*
X121295991Y-103627453D01*
X121295991Y-103627453D01*
G37*
D11*
X121018300Y-104063900D03*
D10*
G36*
X121295991Y-102052453D02*
X121317226Y-102055603D01*
X121338050Y-102060819D01*
X121358262Y-102068051D01*
X121377668Y-102077230D01*
X121396081Y-102088266D01*
X121413324Y-102101054D01*
X121429230Y-102115470D01*
X121443646Y-102131376D01*
X121456434Y-102148619D01*
X121467470Y-102167032D01*
X121476649Y-102186438D01*
X121483881Y-102206650D01*
X121489097Y-102227474D01*
X121492247Y-102248709D01*
X121493300Y-102270150D01*
X121493300Y-102707650D01*
X121492247Y-102729091D01*
X121489097Y-102750326D01*
X121483881Y-102771150D01*
X121476649Y-102791362D01*
X121467470Y-102810768D01*
X121456434Y-102829181D01*
X121443646Y-102846424D01*
X121429230Y-102862330D01*
X121413324Y-102876746D01*
X121396081Y-102889534D01*
X121377668Y-102900570D01*
X121358262Y-102909749D01*
X121338050Y-102916981D01*
X121317226Y-102922197D01*
X121295991Y-102925347D01*
X121274550Y-102926400D01*
X120762050Y-102926400D01*
X120740609Y-102925347D01*
X120719374Y-102922197D01*
X120698550Y-102916981D01*
X120678338Y-102909749D01*
X120658932Y-102900570D01*
X120640519Y-102889534D01*
X120623276Y-102876746D01*
X120607370Y-102862330D01*
X120592954Y-102846424D01*
X120580166Y-102829181D01*
X120569130Y-102810768D01*
X120559951Y-102791362D01*
X120552719Y-102771150D01*
X120547503Y-102750326D01*
X120544353Y-102729091D01*
X120543300Y-102707650D01*
X120543300Y-102270150D01*
X120544353Y-102248709D01*
X120547503Y-102227474D01*
X120552719Y-102206650D01*
X120559951Y-102186438D01*
X120569130Y-102167032D01*
X120580166Y-102148619D01*
X120592954Y-102131376D01*
X120607370Y-102115470D01*
X120623276Y-102101054D01*
X120640519Y-102088266D01*
X120658932Y-102077230D01*
X120678338Y-102068051D01*
X120698550Y-102060819D01*
X120719374Y-102055603D01*
X120740609Y-102052453D01*
X120762050Y-102051400D01*
X121274550Y-102051400D01*
X121295991Y-102052453D01*
X121295991Y-102052453D01*
G37*
D11*
X121018300Y-102488900D03*
G04 #@! TD*
D10*
G04 #@! TO.C,F1*
G36*
X158981404Y-93626904D02*
X159005673Y-93630504D01*
X159029471Y-93636465D01*
X159052571Y-93644730D01*
X159074749Y-93655220D01*
X159095793Y-93667833D01*
X159115498Y-93682447D01*
X159133677Y-93698923D01*
X159150153Y-93717102D01*
X159164767Y-93736807D01*
X159177380Y-93757851D01*
X159187870Y-93780029D01*
X159196135Y-93803129D01*
X159202096Y-93826927D01*
X159205696Y-93851196D01*
X159206900Y-93875700D01*
X159206900Y-95125700D01*
X159205696Y-95150204D01*
X159202096Y-95174473D01*
X159196135Y-95198271D01*
X159187870Y-95221371D01*
X159177380Y-95243549D01*
X159164767Y-95264593D01*
X159150153Y-95284298D01*
X159133677Y-95302477D01*
X159115498Y-95318953D01*
X159095793Y-95333567D01*
X159074749Y-95346180D01*
X159052571Y-95356670D01*
X159029471Y-95364935D01*
X159005673Y-95370896D01*
X158981404Y-95374496D01*
X158956900Y-95375700D01*
X158206900Y-95375700D01*
X158182396Y-95374496D01*
X158158127Y-95370896D01*
X158134329Y-95364935D01*
X158111229Y-95356670D01*
X158089051Y-95346180D01*
X158068007Y-95333567D01*
X158048302Y-95318953D01*
X158030123Y-95302477D01*
X158013647Y-95284298D01*
X157999033Y-95264593D01*
X157986420Y-95243549D01*
X157975930Y-95221371D01*
X157967665Y-95198271D01*
X157961704Y-95174473D01*
X157958104Y-95150204D01*
X157956900Y-95125700D01*
X157956900Y-93875700D01*
X157958104Y-93851196D01*
X157961704Y-93826927D01*
X157967665Y-93803129D01*
X157975930Y-93780029D01*
X157986420Y-93757851D01*
X157999033Y-93736807D01*
X158013647Y-93717102D01*
X158030123Y-93698923D01*
X158048302Y-93682447D01*
X158068007Y-93667833D01*
X158089051Y-93655220D01*
X158111229Y-93644730D01*
X158134329Y-93636465D01*
X158158127Y-93630504D01*
X158182396Y-93626904D01*
X158206900Y-93625700D01*
X158956900Y-93625700D01*
X158981404Y-93626904D01*
X158981404Y-93626904D01*
G37*
D13*
X158581900Y-94500700D03*
D10*
G36*
X161781404Y-93626904D02*
X161805673Y-93630504D01*
X161829471Y-93636465D01*
X161852571Y-93644730D01*
X161874749Y-93655220D01*
X161895793Y-93667833D01*
X161915498Y-93682447D01*
X161933677Y-93698923D01*
X161950153Y-93717102D01*
X161964767Y-93736807D01*
X161977380Y-93757851D01*
X161987870Y-93780029D01*
X161996135Y-93803129D01*
X162002096Y-93826927D01*
X162005696Y-93851196D01*
X162006900Y-93875700D01*
X162006900Y-95125700D01*
X162005696Y-95150204D01*
X162002096Y-95174473D01*
X161996135Y-95198271D01*
X161987870Y-95221371D01*
X161977380Y-95243549D01*
X161964767Y-95264593D01*
X161950153Y-95284298D01*
X161933677Y-95302477D01*
X161915498Y-95318953D01*
X161895793Y-95333567D01*
X161874749Y-95346180D01*
X161852571Y-95356670D01*
X161829471Y-95364935D01*
X161805673Y-95370896D01*
X161781404Y-95374496D01*
X161756900Y-95375700D01*
X161006900Y-95375700D01*
X160982396Y-95374496D01*
X160958127Y-95370896D01*
X160934329Y-95364935D01*
X160911229Y-95356670D01*
X160889051Y-95346180D01*
X160868007Y-95333567D01*
X160848302Y-95318953D01*
X160830123Y-95302477D01*
X160813647Y-95284298D01*
X160799033Y-95264593D01*
X160786420Y-95243549D01*
X160775930Y-95221371D01*
X160767665Y-95198271D01*
X160761704Y-95174473D01*
X160758104Y-95150204D01*
X160756900Y-95125700D01*
X160756900Y-93875700D01*
X160758104Y-93851196D01*
X160761704Y-93826927D01*
X160767665Y-93803129D01*
X160775930Y-93780029D01*
X160786420Y-93757851D01*
X160799033Y-93736807D01*
X160813647Y-93717102D01*
X160830123Y-93698923D01*
X160848302Y-93682447D01*
X160868007Y-93667833D01*
X160889051Y-93655220D01*
X160911229Y-93644730D01*
X160934329Y-93636465D01*
X160958127Y-93630504D01*
X160982396Y-93626904D01*
X161006900Y-93625700D01*
X161756900Y-93625700D01*
X161781404Y-93626904D01*
X161781404Y-93626904D01*
G37*
D13*
X161381900Y-94500700D03*
G04 #@! TD*
D14*
G04 #@! TO.C,J3*
X117738400Y-91400000D03*
X117738400Y-93940000D03*
X117738400Y-96480000D03*
X117738400Y-99020000D03*
X117738400Y-101560000D03*
X117738400Y-104100000D03*
G04 #@! TD*
D15*
G04 #@! TO.C,U2*
X149199200Y-90449400D03*
D16*
X155499200Y-90449400D03*
X155499200Y-92749400D03*
X155499200Y-88149400D03*
G04 #@! TD*
M02*
